<?xml version="1.0"?>
<svg xmlns="http://www.w3.org/2000/svg" xmlns:xlink="http://www.w3.org/1999/xlink" viewBox="0 0 311.400000 172.000000" width="155.700000mm" height="86.000000mm" version="1.1">
<defs>
   <filter id="filter" filterRes="18" x="0" y="0">
     <feGaussianBlur in="SourceGraphic" stdDeviation="1.55" result="blur"/>
     <feOffset in="blur" dx="3" dy="3"/>
   </filter>
</defs>
<a xlink:href="right-0x7f8f93b58a60.svg">
<rect x="1.000000" y="1.000000" width="310.400000" height="171.000000" rx="0.1" ry="0.1" style="stroke:none;fill:#aaaaaa;;filter:url(#filter);"/>
<rect x="0.000000" y="0.000000" width="310.400000" height="171.000000" rx="0" ry="0" style="stroke:none;fill:#ffffff;"/>
</a>
<text x="10.000000" y="7.000000" font-family="Arial" font-size="7"></text>
<rect x="49.000000" y="105.000000" width="24.000000" height="24.000000" rx="0.1" ry="0.1" style="stroke:none;fill:#aaaaaa;;filter:url(#filter);"/>
<rect x="48.000000" y="104.000000" width="24.000000" height="24.000000" rx="0" ry="0" style="stroke:none;fill:#4B71A1;"/>
<text x="60.000000" y="118.000000" font-family="Arial" font-size="7" text-anchor="middle" fill="#FFFFFF">+</text>
<circle cx="50.000000" cy="106.000000" r="1"/>
<line x1="45.000000" y1="111.000000" x2="48.000000" y2="112.000000"  transform="rotate(0.000000,48.000000,112.000000)" style="stroke: black; stroke-width:0.25;"/>
<line x1="45.000000" y1="113.000000" x2="48.000000" y2="112.000000"  transform="rotate(0.000000,48.000000,112.000000)" style="stroke: black; stroke-width:0.25;"/>
<line x1="45.000000" y1="119.000000" x2="48.000000" y2="120.000000"  transform="rotate(0.000000,48.000000,120.000000)" style="stroke: black; stroke-width:0.25;"/>
<line x1="45.000000" y1="121.000000" x2="48.000000" y2="120.000000"  transform="rotate(0.000000,48.000000,120.000000)" style="stroke: black; stroke-width:0.25;"/>
<a xlink:href="fdelay-0x7f8f93016680.svg">
<rect x="107.000000" y="85.000000" width="77.400000" height="24.000000" rx="0.1" ry="0.1" style="stroke:none;fill:#aaaaaa;;filter:url(#filter);"/>
<rect x="106.000000" y="84.000000" width="77.400000" height="24.000000" rx="0" ry="0" style="stroke:none;fill:#003366;"/>
</a>
<a xlink:href="fdelay-0x7f8f93016680.svg">
<text x="144.700000" y="98.000000" font-family="Arial" font-size="7" text-anchor="middle" fill="#FFFFFF">fdelay(9080)(907)</text>
</a>
<circle cx="108.000000" cy="86.000000" r="1"/>
<line x1="103.000000" y1="95.000000" x2="106.000000" y2="96.000000"  transform="rotate(0.000000,106.000000,96.000000)" style="stroke: black; stroke-width:0.25;"/>
<line x1="103.000000" y1="97.000000" x2="106.000000" y2="96.000000"  transform="rotate(0.000000,106.000000,96.000000)" style="stroke: black; stroke-width:0.25;"/>
<rect x="112.800000" y="125.000000" width="25.800000" height="24.000000" rx="0.1" ry="0.1" style="stroke:none;fill:#aaaaaa;;filter:url(#filter);"/>
<rect x="111.800000" y="124.000000" width="25.800000" height="24.000000" rx="0" ry="0" style="stroke:none;fill:#f44800;"/>
<text x="124.700000" y="138.000000" font-family="Arial" font-size="7" text-anchor="middle" fill="#FFFFFF">-0.7</text>
<circle cx="113.800000" cy="126.000000" r="1"/>
<rect x="154.600000" y="121.000000" width="24.000000" height="24.000000" rx="0.1" ry="0.1" style="stroke:none;fill:#aaaaaa;;filter:url(#filter);"/>
<rect x="153.600000" y="120.000000" width="24.000000" height="24.000000" rx="0" ry="0" style="stroke:none;fill:#4B71A1;"/>
<text x="165.600000" y="134.000000" font-family="Arial" font-size="7" text-anchor="middle" fill="#FFFFFF">*</text>
<circle cx="155.600000" cy="122.000000" r="1"/>
<line x1="150.600000" y1="127.000000" x2="153.600000" y2="128.000000"  transform="rotate(0.000000,153.600000,128.000000)" style="stroke: black; stroke-width:0.25;"/>
<line x1="150.600000" y1="129.000000" x2="153.600000" y2="128.000000"  transform="rotate(0.000000,153.600000,128.000000)" style="stroke: black; stroke-width:0.25;"/>
<line x1="150.600000" y1="135.000000" x2="153.600000" y2="136.000000"  transform="rotate(0.000000,153.600000,136.000000)" style="stroke: black; stroke-width:0.25;"/>
<line x1="150.600000" y1="137.000000" x2="153.600000" y2="136.000000"  transform="rotate(0.000000,153.600000,136.000000)" style="stroke: black; stroke-width:0.25;"/>
<rect x="124.700000" y="35.000000" width="24.000000" height="24.000000" rx="0.1" ry="0.1" style="stroke:none;fill:#aaaaaa;;filter:url(#filter);"/>
<rect x="123.700000" y="34.000000" width="24.000000" height="24.000000" rx="0" ry="0" style="stroke:none;fill:#f44800;"/>
<text x="135.700000" y="48.000000" font-family="Arial" font-size="7" text-anchor="middle" fill="#FFFFFF">0.7</text>
<circle cx="145.700000" cy="56.000000" r="1"/>
<line x1="114.700000" y1="25.000000" x2="114.700000" y2="67.000000"  style="stroke: black; stroke-linecap:round; stroke-width:0.25; stroke-dasharray:3,3;"/>
<line x1="114.700000" y1="67.000000" x2="156.700000" y2="67.000000"  style="stroke: black; stroke-linecap:round; stroke-width:0.25; stroke-dasharray:3,3;"/>
<line x1="156.700000" y1="67.000000" x2="156.700000" y2="25.000000"  style="stroke: black; stroke-linecap:round; stroke-width:0.25; stroke-dasharray:3,3;"/>
<line x1="114.700000" y1="25.000000" x2="119.700000" y2="25.000000"  style="stroke: black; stroke-linecap:round; stroke-width:0.25; stroke-dasharray:3,3;"/>
<line x1="151.950000" y1="25.000000" x2="156.700000" y2="25.000000"  style="stroke: black; stroke-linecap:round; stroke-width:0.25; stroke-dasharray:3,3;"/>
<text x="119.700000" y="27.000000" font-family="Arial" font-size="7">d_diff_1</text>
<rect x="74.700000" y="39.000000" width="24.000000" height="24.000000" rx="0.1" ry="0.1" style="stroke:none;fill:#aaaaaa;;filter:url(#filter);"/>
<rect x="73.700000" y="38.000000" width="24.000000" height="24.000000" rx="0" ry="0" style="stroke:none;fill:#4B71A1;"/>
<text x="85.700000" y="52.000000" font-family="Arial" font-size="7" text-anchor="middle" fill="#FFFFFF">*</text>
<circle cx="95.700000" cy="60.000000" r="1"/>
<line x1="100.700000" y1="53.000000" x2="97.700000" y2="54.000000"  transform="rotate(0.000000,97.700000,54.000000)" style="stroke: black; stroke-width:0.25;"/>
<line x1="100.700000" y1="55.000000" x2="97.700000" y2="54.000000"  transform="rotate(0.000000,97.700000,54.000000)" style="stroke: black; stroke-width:0.25;"/>
<line x1="100.700000" y1="45.000000" x2="97.700000" y2="46.000000"  transform="rotate(0.000000,97.700000,46.000000)" style="stroke: black; stroke-width:0.25;"/>
<line x1="100.700000" y1="47.000000" x2="97.700000" y2="46.000000"  transform="rotate(0.000000,97.700000,46.000000)" style="stroke: black; stroke-width:0.25;"/>
<line x1="185.400000" y1="96.000000" x2="185.400000" y2="92.000000"  style="stroke:black; stroke-linecap:round; stroke-width:0.25;"/>
<line x1="185.400000" y1="92.000000" x2="189.400000" y2="92.000000"  style="stroke:black; stroke-linecap:round; stroke-width:0.25;"/>
<line x1="189.400000" y1="92.000000" x2="189.400000" y2="96.000000"  style="stroke:black; stroke-linecap:round; stroke-width:0.25;"/>
<rect x="216.400000" y="71.000000" width="24.000000" height="24.000000" rx="0.1" ry="0.1" style="stroke:none;fill:#aaaaaa;;filter:url(#filter);"/>
<rect x="215.400000" y="70.000000" width="24.000000" height="24.000000" rx="0" ry="0" style="stroke:none;fill:#4B71A1;"/>
<text x="227.400000" y="84.000000" font-family="Arial" font-size="7" text-anchor="middle" fill="#FFFFFF">mem</text>
<circle cx="217.400000" cy="72.000000" r="1"/>
<line x1="212.400000" y1="81.000000" x2="215.400000" y2="82.000000"  transform="rotate(0.000000,215.400000,82.000000)" style="stroke: black; stroke-width:0.25;"/>
<line x1="212.400000" y1="83.000000" x2="215.400000" y2="82.000000"  transform="rotate(0.000000,215.400000,82.000000)" style="stroke: black; stroke-width:0.25;"/>
<rect x="256.400000" y="75.000000" width="24.000000" height="24.000000" rx="0.1" ry="0.1" style="stroke:none;fill:#aaaaaa;;filter:url(#filter);"/>
<rect x="255.400000" y="74.000000" width="24.000000" height="24.000000" rx="0" ry="0" style="stroke:none;fill:#4B71A1;"/>
<text x="267.400000" y="88.000000" font-family="Arial" font-size="7" text-anchor="middle" fill="#FFFFFF">+</text>
<circle cx="257.400000" cy="76.000000" r="1"/>
<line x1="252.400000" y1="81.000000" x2="255.400000" y2="82.000000"  transform="rotate(0.000000,255.400000,82.000000)" style="stroke: black; stroke-width:0.25;"/>
<line x1="252.400000" y1="83.000000" x2="255.400000" y2="82.000000"  transform="rotate(0.000000,255.400000,82.000000)" style="stroke: black; stroke-width:0.25;"/>
<line x1="252.400000" y1="89.000000" x2="255.400000" y2="90.000000"  transform="rotate(0.000000,255.400000,90.000000)" style="stroke: black; stroke-width:0.25;"/>
<line x1="252.400000" y1="91.000000" x2="255.400000" y2="90.000000"  transform="rotate(0.000000,255.400000,90.000000)" style="stroke: black; stroke-width:0.25;"/>
<line x1="15.000000" y1="15.000000" x2="15.000000" y2="157.000000"  style="stroke: black; stroke-linecap:round; stroke-width:0.25; stroke-dasharray:3,3;"/>
<line x1="15.000000" y1="157.000000" x2="296.400000" y2="157.000000"  style="stroke: black; stroke-linecap:round; stroke-width:0.25; stroke-dasharray:3,3;"/>
<line x1="296.400000" y1="157.000000" x2="296.400000" y2="15.000000"  style="stroke: black; stroke-linecap:round; stroke-width:0.25; stroke-dasharray:3,3;"/>
<line x1="15.000000" y1="15.000000" x2="20.000000" y2="15.000000"  style="stroke: black; stroke-linecap:round; stroke-width:0.25; stroke-dasharray:3,3;"/>
<line x1="119.975000" y1="15.000000" x2="296.400000" y2="15.000000"  style="stroke: black; stroke-linecap:round; stroke-width:0.25; stroke-dasharray:3,3;"/>
<text x="20.000000" y="17.000000" font-family="Arial" font-size="7">allpass_fcomb...99999999996f)</text>
<line x1="298.400000" y1="85.000000" x2="301.400000" y2="86.000000"  transform="rotate(0.000000,301.400000,86.000000)" style="stroke: black; stroke-width:0.25;"/>
<line x1="298.400000" y1="87.000000" x2="301.400000" y2="86.000000"  transform="rotate(0.000000,301.400000,86.000000)" style="stroke: black; stroke-width:0.25;"/>
<line x1="10.000000" y1="86.000000" x2="20.000000" y2="86.000000"  style="stroke:black; stroke-linecap:round; stroke-width:0.25;"/>
<line x1="20.000000" y1="86.000000" x2="24.000000" y2="86.000000"  style="stroke:black; stroke-linecap:round; stroke-width:0.25;"/>
<line x1="24.000000" y1="86.000000" x2="28.000000" y2="86.000000"  style="stroke:black; stroke-linecap:round; stroke-width:0.25;"/>
<line x1="28.000000" y1="86.000000" x2="36.000000" y2="86.000000"  style="stroke:black; stroke-linecap:round; stroke-width:0.25;"/>
<line x1="36.000000" y1="86.000000" x2="36.000000" y2="120.000000"  style="stroke:black; stroke-linecap:round; stroke-width:0.25;"/>
<line x1="36.000000" y1="120.000000" x2="36.000000" y2="120.000000"  style="stroke:black; stroke-linecap:round; stroke-width:0.25;"/>
<line x1="36.000000" y1="120.000000" x2="44.000000" y2="120.000000"  style="stroke:black; stroke-linecap:round; stroke-width:0.25;"/>
<line x1="44.000000" y1="50.000000" x2="44.000000" y2="50.000000"  style="stroke:black; stroke-linecap:round; stroke-width:0.25;"/>
<line x1="44.000000" y1="50.000000" x2="44.000000" y2="112.000000"  style="stroke:black; stroke-linecap:round; stroke-width:0.25;"/>
<line x1="44.000000" y1="112.000000" x2="44.000000" y2="112.000000"  style="stroke:black; stroke-linecap:round; stroke-width:0.25;"/>
<line x1="44.000000" y1="112.000000" x2="48.000000" y2="112.000000"  style="stroke:black; stroke-linecap:round; stroke-width:0.25;"/>
<line x1="44.000000" y1="120.000000" x2="48.000000" y2="120.000000"  style="stroke:black; stroke-linecap:round; stroke-width:0.25;"/>
<line x1="69.700000" y1="50.000000" x2="44.000000" y2="50.000000"  style="stroke:black; stroke-linecap:round; stroke-width:0.25;"/>
<line x1="72.000000" y1="116.000000" x2="76.000000" y2="116.000000"  style="stroke:black; stroke-linecap:round; stroke-width:0.25;"/>
<line x1="73.700000" y1="50.000000" x2="69.700000" y2="50.000000"  style="stroke:black; stroke-linecap:round; stroke-width:0.25;"/>
<line x1="76.000000" y1="116.000000" x2="102.000000" y2="116.000000"  style="stroke:black; stroke-linecap:round; stroke-width:0.25;"/>
<line x1="76.000000" y1="116.000000" x2="102.000000" y2="96.000000"  style="stroke:black; stroke-linecap:round; stroke-width:0.25;"/>
<line x1="101.700000" y1="46.000000" x2="97.700000" y2="46.000000"  style="stroke:black; stroke-linecap:round; stroke-width:0.25;"/>
<line x1="101.700000" y1="54.000000" x2="97.700000" y2="54.000000"  style="stroke:black; stroke-linecap:round; stroke-width:0.25;"/>
<line x1="101.700000" y1="54.000000" x2="101.700000" y2="54.000000"  style="stroke:black; stroke-linecap:round; stroke-width:0.25;"/>
<line x1="101.700000" y1="76.000000" x2="101.700000" y2="54.000000"  style="stroke:black; stroke-linecap:round; stroke-width:0.25;"/>
<line x1="102.000000" y1="116.000000" x2="107.800000" y2="116.000000"  style="stroke:black; stroke-linecap:round; stroke-width:0.25;"/>
<line x1="102.000000" y1="96.000000" x2="106.000000" y2="96.000000"  style="stroke:black; stroke-linecap:round; stroke-width:0.25;"/>
<line x1="107.800000" y1="116.000000" x2="124.700000" y2="116.000000"  style="stroke:black; stroke-linecap:round; stroke-width:0.25;"/>
<line x1="109.700000" y1="46.000000" x2="101.700000" y2="46.000000"  style="stroke:black; stroke-linecap:round; stroke-width:0.25;"/>
<line x1="109.700000" y1="76.000000" x2="101.700000" y2="76.000000"  style="stroke:black; stroke-linecap:round; stroke-width:0.25;"/>
<line x1="119.700000" y1="46.000000" x2="109.700000" y2="46.000000"  style="stroke:black; stroke-linecap:round; stroke-width:0.25;"/>
<line x1="123.700000" y1="46.000000" x2="119.700000" y2="46.000000"  style="stroke:black; stroke-linecap:round; stroke-width:0.25;"/>
<line x1="124.700000" y1="116.000000" x2="141.600000" y2="116.000000"  style="stroke:black; stroke-linecap:round; stroke-width:0.25;"/>
<line x1="135.700000" y1="76.000000" x2="109.700000" y2="76.000000"  style="stroke:black; stroke-linecap:round; stroke-width:0.25;"/>
<line x1="137.600000" y1="136.000000" x2="141.600000" y2="136.000000"  style="stroke:black; stroke-linecap:round; stroke-width:0.25;"/>
<line x1="141.600000" y1="116.000000" x2="149.600000" y2="116.000000"  style="stroke:black; stroke-linecap:round; stroke-width:0.25;"/>
<line x1="141.600000" y1="136.000000" x2="149.600000" y2="136.000000"  style="stroke:black; stroke-linecap:round; stroke-width:0.25;"/>
<line x1="149.600000" y1="116.000000" x2="149.600000" y2="128.000000"  style="stroke:black; stroke-linecap:round; stroke-width:0.25;"/>
<line x1="149.600000" y1="128.000000" x2="149.600000" y2="128.000000"  style="stroke:black; stroke-linecap:round; stroke-width:0.25;"/>
<line x1="149.600000" y1="128.000000" x2="153.600000" y2="128.000000"  style="stroke:black; stroke-linecap:round; stroke-width:0.25;"/>
<line x1="149.600000" y1="136.000000" x2="153.600000" y2="136.000000"  style="stroke:black; stroke-linecap:round; stroke-width:0.25;"/>
<line x1="161.700000" y1="76.000000" x2="135.700000" y2="76.000000"  style="stroke:black; stroke-linecap:round; stroke-width:0.25;"/>
<line x1="177.600000" y1="132.000000" x2="181.600000" y2="132.000000"  style="stroke:black; stroke-linecap:round; stroke-width:0.25;"/>
<line x1="181.600000" y1="132.000000" x2="187.400000" y2="132.000000"  style="stroke:black; stroke-linecap:round; stroke-width:0.25;"/>
<line x1="183.400000" y1="96.000000" x2="187.400000" y2="96.000000"  style="stroke:black; stroke-linecap:round; stroke-width:0.25;"/>
<line x1="187.400000" y1="76.000000" x2="161.700000" y2="76.000000"  style="stroke:black; stroke-linecap:round; stroke-width:0.25;"/>
<line x1="187.400000" y1="76.000000" x2="187.400000" y2="76.000000"  style="stroke:black; stroke-linecap:round; stroke-width:0.25;"/>
<line x1="187.400000" y1="92.000000" x2="187.400000" y2="76.000000"  style="stroke:black; stroke-linecap:round; stroke-width:0.25;"/>
<line x1="187.400000" y1="96.000000" x2="189.400000" y2="96.000000"  style="stroke:black; stroke-linecap:round; stroke-width:0.25;"/>
<line x1="187.400000" y1="132.000000" x2="195.400000" y2="132.000000"  style="stroke:black; stroke-linecap:round; stroke-width:0.25;"/>
<line x1="189.400000" y1="96.000000" x2="195.400000" y2="96.000000"  style="stroke:black; stroke-linecap:round; stroke-width:0.25;"/>
<line x1="195.400000" y1="82.000000" x2="211.400000" y2="82.000000"  style="stroke:black; stroke-linecap:round; stroke-width:0.25;"/>
<line x1="195.400000" y1="96.000000" x2="195.400000" y2="82.000000"  style="stroke:black; stroke-linecap:round; stroke-width:0.25;"/>
<line x1="195.400000" y1="96.000000" x2="195.400000" y2="96.000000"  style="stroke:black; stroke-linecap:round; stroke-width:0.25;"/>
<line x1="195.400000" y1="132.000000" x2="203.400000" y2="132.000000"  style="stroke:black; stroke-linecap:round; stroke-width:0.25;"/>
<line x1="203.400000" y1="102.000000" x2="211.400000" y2="102.000000"  style="stroke:black; stroke-linecap:round; stroke-width:0.25;"/>
<line x1="203.400000" y1="132.000000" x2="203.400000" y2="102.000000"  style="stroke:black; stroke-linecap:round; stroke-width:0.25;"/>
<line x1="211.400000" y1="82.000000" x2="215.400000" y2="82.000000"  style="stroke:black; stroke-linecap:round; stroke-width:0.25;"/>
<line x1="211.400000" y1="102.000000" x2="227.400000" y2="102.000000"  style="stroke:black; stroke-linecap:round; stroke-width:0.25;"/>
<line x1="227.400000" y1="102.000000" x2="243.400000" y2="102.000000"  style="stroke:black; stroke-linecap:round; stroke-width:0.25;"/>
<line x1="239.400000" y1="82.000000" x2="243.400000" y2="82.000000"  style="stroke:black; stroke-linecap:round; stroke-width:0.25;"/>
<line x1="243.400000" y1="82.000000" x2="251.400000" y2="82.000000"  style="stroke:black; stroke-linecap:round; stroke-width:0.25;"/>
<line x1="243.400000" y1="90.000000" x2="251.400000" y2="90.000000"  style="stroke:black; stroke-linecap:round; stroke-width:0.25;"/>
<line x1="243.400000" y1="102.000000" x2="243.400000" y2="90.000000"  style="stroke:black; stroke-linecap:round; stroke-width:0.25;"/>
<line x1="243.400000" y1="102.000000" x2="243.400000" y2="102.000000"  style="stroke:black; stroke-linecap:round; stroke-width:0.25;"/>
<line x1="251.400000" y1="82.000000" x2="255.400000" y2="82.000000"  style="stroke:black; stroke-linecap:round; stroke-width:0.25;"/>
<line x1="251.400000" y1="90.000000" x2="255.400000" y2="90.000000"  style="stroke:black; stroke-linecap:round; stroke-width:0.25;"/>
<line x1="279.400000" y1="86.000000" x2="283.400000" y2="86.000000"  style="stroke:black; stroke-linecap:round; stroke-width:0.25;"/>
<line x1="283.400000" y1="86.000000" x2="283.400000" y2="86.000000"  style="stroke:black; stroke-linecap:round; stroke-width:0.25;"/>
<line x1="283.400000" y1="86.000000" x2="287.400000" y2="86.000000"  style="stroke:black; stroke-linecap:round; stroke-width:0.25;"/>
<line x1="287.400000" y1="86.000000" x2="291.400000" y2="86.000000"  style="stroke:black; stroke-linecap:round; stroke-width:0.25;"/>
<line x1="291.400000" y1="86.000000" x2="301.400000" y2="86.000000"  style="stroke:black; stroke-linecap:round; stroke-width:0.25;"/>
</svg>
