<?xml version="1.0"?>
<svg xmlns="http://www.w3.org/2000/svg" xmlns:xlink="http://www.w3.org/1999/xlink" viewBox="0 0 418.500000 72.000000" width="209.250000mm" height="36.000000mm" version="1.1">
<defs>
   <filter id="filter" filterRes="18" x="0" y="0">
     <feGaussianBlur in="SourceGraphic" stdDeviation="1.55" result="blur"/>
     <feOffset in="blur" dx="3" dy="3"/>
   </filter>
</defs>
<a xlink:href="cgm-0x7f8f94bd9510.svg">
<rect x="1.000000" y="1.000000" width="417.500000" height="71.000000" rx="0.1" ry="0.1" style="stroke:none;fill:#aaaaaa;;filter:url(#filter);"/>
<rect x="0.000000" y="0.000000" width="417.500000" height="71.000000" rx="0" ry="0" style="stroke:none;fill:#ffffff;"/>
</a>
<text x="10.000000" y="7.000000" font-family="Arial" font-size="7"></text>
<a xlink:href="amp-0x7f8f94bd1a00.svg">
<rect x="33.000000" y="25.000000" width="90.300000" height="24.000000" rx="0.1" ry="0.1" style="stroke:none;fill:#aaaaaa;;filter:url(#filter);"/>
<rect x="32.000000" y="24.000000" width="90.300000" height="24.000000" rx="0" ry="0" style="stroke:none;fill:#003366;"/>
</a>
<a xlink:href="amp-0x7f8f94bd1a00.svg">
<text x="77.150000" y="38.000000" font-family="Arial" font-size="7" text-anchor="middle" fill="#FFFFFF">amp_follower_ar(1)(3)</text>
</a>
<circle cx="34.000000" cy="26.000000" r="1"/>
<line x1="29.000000" y1="35.000000" x2="32.000000" y2="36.000000"  transform="rotate(0.000000,32.000000,36.000000)" style="stroke: black; stroke-width:0.25;"/>
<line x1="29.000000" y1="37.000000" x2="32.000000" y2="36.000000"  transform="rotate(0.000000,32.000000,36.000000)" style="stroke: black; stroke-width:0.25;"/>
<a xlink:href="linear2db-0x7f8f94bd2e10.svg">
<rect x="131.300000" y="25.000000" width="38.700000" height="24.000000" rx="0.1" ry="0.1" style="stroke:none;fill:#aaaaaa;;filter:url(#filter);"/>
<rect x="130.300000" y="24.000000" width="38.700000" height="24.000000" rx="0" ry="0" style="stroke:none;fill:#003366;"/>
</a>
<a xlink:href="linear2db-0x7f8f94bd2e10.svg">
<text x="149.650000" y="38.000000" font-family="Arial" font-size="7" text-anchor="middle" fill="#FFFFFF">linear2db</text>
</a>
<circle cx="132.300000" cy="26.000000" r="1"/>
<line x1="127.300000" y1="35.000000" x2="130.300000" y2="36.000000"  transform="rotate(0.000000,130.300000,36.000000)" style="stroke: black; stroke-width:0.25;"/>
<line x1="127.300000" y1="37.000000" x2="130.300000" y2="36.000000"  transform="rotate(0.000000,130.300000,36.000000)" style="stroke: black; stroke-width:0.25;"/>
<a xlink:href="outminusindb-0x7f8f94bd62c0.svg">
<rect x="178.000000" y="25.000000" width="90.300000" height="24.000000" rx="0.1" ry="0.1" style="stroke:none;fill:#aaaaaa;;filter:url(#filter);"/>
<rect x="177.000000" y="24.000000" width="90.300000" height="24.000000" rx="0" ry="0" style="stroke:none;fill:#003366;"/>
</a>
<a xlink:href="outminusindb-0x7f8f94bd62c0.svg">
<text x="222.150000" y="38.000000" font-family="Arial" font-size="7" text-anchor="middle" fill="#FFFFFF">outminusindb(5)(-6)</text>
</a>
<circle cx="179.000000" cy="26.000000" r="1"/>
<line x1="174.000000" y1="35.000000" x2="177.000000" y2="36.000000"  transform="rotate(0.000000,177.000000,36.000000)" style="stroke: black; stroke-width:0.25;"/>
<line x1="174.000000" y1="37.000000" x2="177.000000" y2="36.000000"  transform="rotate(0.000000,177.000000,36.000000)" style="stroke: black; stroke-width:0.25;"/>
<a xlink:href="kneesmooth-0x7f8f94bce230.svg">
<rect x="276.300000" y="25.000000" width="64.500000" height="24.000000" rx="0.1" ry="0.1" style="stroke:none;fill:#aaaaaa;;filter:url(#filter);"/>
<rect x="275.300000" y="24.000000" width="64.500000" height="24.000000" rx="0" ry="0" style="stroke:none;fill:#003366;"/>
</a>
<a xlink:href="kneesmooth-0x7f8f94bce230.svg">
<text x="307.550000" y="38.000000" font-family="Arial" font-size="7" text-anchor="middle" fill="#FFFFFF">kneesmooth(1)</text>
</a>
<circle cx="277.300000" cy="26.000000" r="1"/>
<line x1="272.300000" y1="35.000000" x2="275.300000" y2="36.000000"  transform="rotate(0.000000,275.300000,36.000000)" style="stroke: black; stroke-width:0.25;"/>
<line x1="272.300000" y1="37.000000" x2="275.300000" y2="36.000000"  transform="rotate(0.000000,275.300000,36.000000)" style="stroke: black; stroke-width:0.25;"/>
<a xlink:href="db2linear-0x7f8f94bd7c10.svg">
<rect x="348.800000" y="25.000000" width="38.700000" height="24.000000" rx="0.1" ry="0.1" style="stroke:none;fill:#aaaaaa;;filter:url(#filter);"/>
<rect x="347.800000" y="24.000000" width="38.700000" height="24.000000" rx="0" ry="0" style="stroke:none;fill:#003366;"/>
</a>
<a xlink:href="db2linear-0x7f8f94bd7c10.svg">
<text x="367.150000" y="38.000000" font-family="Arial" font-size="7" text-anchor="middle" fill="#FFFFFF">db2linear</text>
</a>
<circle cx="349.800000" cy="26.000000" r="1"/>
<line x1="344.800000" y1="35.000000" x2="347.800000" y2="36.000000"  transform="rotate(0.000000,347.800000,36.000000)" style="stroke: black; stroke-width:0.25;"/>
<line x1="344.800000" y1="37.000000" x2="347.800000" y2="36.000000"  transform="rotate(0.000000,347.800000,36.000000)" style="stroke: black; stroke-width:0.25;"/>
<line x1="15.000000" y1="15.000000" x2="15.000000" y2="57.000000"  style="stroke: black; stroke-linecap:round; stroke-width:0.25; stroke-dasharray:3,3;"/>
<line x1="15.000000" y1="57.000000" x2="403.500000" y2="57.000000"  style="stroke: black; stroke-linecap:round; stroke-width:0.25; stroke-dasharray:3,3;"/>
<line x1="403.500000" y1="57.000000" x2="403.500000" y2="15.000000"  style="stroke: black; stroke-linecap:round; stroke-width:0.25; stroke-dasharray:3,3;"/>
<line x1="15.000000" y1="15.000000" x2="20.000000" y2="15.000000"  style="stroke: black; stroke-linecap:round; stroke-width:0.25; stroke-dasharray:3,3;"/>
<line x1="136.100000" y1="15.000000" x2="403.500000" y2="15.000000"  style="stroke: black; stroke-linecap:round; stroke-width:0.25; stroke-dasharray:3,3;"/>
<text x="20.000000" y="17.000000" font-family="Arial" font-size="7">compression_gain_mono(5)(-6)(1)(3)</text>
<line x1="405.500000" y1="35.000000" x2="408.500000" y2="36.000000"  transform="rotate(0.000000,408.500000,36.000000)" style="stroke: black; stroke-width:0.25;"/>
<line x1="405.500000" y1="37.000000" x2="408.500000" y2="36.000000"  transform="rotate(0.000000,408.500000,36.000000)" style="stroke: black; stroke-width:0.25;"/>
<line x1="10.000000" y1="36.000000" x2="20.000000" y2="36.000000"  style="stroke:black; stroke-linecap:round; stroke-width:0.25;"/>
<line x1="20.000000" y1="36.000000" x2="24.000000" y2="36.000000"  style="stroke:black; stroke-linecap:round; stroke-width:0.25;"/>
<line x1="24.000000" y1="36.000000" x2="28.000000" y2="36.000000"  style="stroke:black; stroke-linecap:round; stroke-width:0.25;"/>
<line x1="28.000000" y1="36.000000" x2="28.000000" y2="36.000000"  style="stroke:black; stroke-linecap:round; stroke-width:0.25;"/>
<line x1="28.000000" y1="36.000000" x2="32.000000" y2="36.000000"  style="stroke:black; stroke-linecap:round; stroke-width:0.25;"/>
<line x1="122.300000" y1="36.000000" x2="126.300000" y2="36.000000"  style="stroke:black; stroke-linecap:round; stroke-width:0.25;"/>
<line x1="126.300000" y1="36.000000" x2="126.300000" y2="36.000000"  style="stroke:black; stroke-linecap:round; stroke-width:0.25;"/>
<line x1="126.300000" y1="36.000000" x2="130.300000" y2="36.000000"  style="stroke:black; stroke-linecap:round; stroke-width:0.25;"/>
<line x1="169.000000" y1="36.000000" x2="173.000000" y2="36.000000"  style="stroke:black; stroke-linecap:round; stroke-width:0.25;"/>
<line x1="173.000000" y1="36.000000" x2="173.000000" y2="36.000000"  style="stroke:black; stroke-linecap:round; stroke-width:0.25;"/>
<line x1="173.000000" y1="36.000000" x2="177.000000" y2="36.000000"  style="stroke:black; stroke-linecap:round; stroke-width:0.25;"/>
<line x1="267.300000" y1="36.000000" x2="271.300000" y2="36.000000"  style="stroke:black; stroke-linecap:round; stroke-width:0.25;"/>
<line x1="271.300000" y1="36.000000" x2="271.300000" y2="36.000000"  style="stroke:black; stroke-linecap:round; stroke-width:0.25;"/>
<line x1="271.300000" y1="36.000000" x2="275.300000" y2="36.000000"  style="stroke:black; stroke-linecap:round; stroke-width:0.25;"/>
<line x1="339.800000" y1="36.000000" x2="343.800000" y2="36.000000"  style="stroke:black; stroke-linecap:round; stroke-width:0.25;"/>
<line x1="343.800000" y1="36.000000" x2="343.800000" y2="36.000000"  style="stroke:black; stroke-linecap:round; stroke-width:0.25;"/>
<line x1="343.800000" y1="36.000000" x2="347.800000" y2="36.000000"  style="stroke:black; stroke-linecap:round; stroke-width:0.25;"/>
<line x1="386.500000" y1="36.000000" x2="390.500000" y2="36.000000"  style="stroke:black; stroke-linecap:round; stroke-width:0.25;"/>
<line x1="390.500000" y1="36.000000" x2="390.500000" y2="36.000000"  style="stroke:black; stroke-linecap:round; stroke-width:0.25;"/>
<line x1="390.500000" y1="36.000000" x2="394.500000" y2="36.000000"  style="stroke:black; stroke-linecap:round; stroke-width:0.25;"/>
<line x1="394.500000" y1="36.000000" x2="398.500000" y2="36.000000"  style="stroke:black; stroke-linecap:round; stroke-width:0.25;"/>
<line x1="398.500000" y1="36.000000" x2="408.500000" y2="36.000000"  style="stroke:black; stroke-linecap:round; stroke-width:0.25;"/>
</svg>
