<?xml version="1.0"?>
<svg xmlns="http://www.w3.org/2000/svg" xmlns:xlink="http://www.w3.org/1999/xlink" viewBox="0 0 344.100000 100.000000" width="172.050000mm" height="50.000000mm" version="1.1">
<defs>
   <filter id="filter" filterRes="18" x="0" y="0">
     <feGaussianBlur in="SourceGraphic" stdDeviation="1.55" result="blur"/>
     <feOffset in="blur" dx="3" dy="3"/>
   </filter>
</defs>
<a xlink:href="process.svg">
<rect x="1.000000" y="1.000000" width="343.100000" height="99.000000" rx="0.1" ry="0.1" style="stroke:none;fill:#aaaaaa;;filter:url(#filter);"/>
<rect x="0.000000" y="0.000000" width="343.100000" height="99.000000" rx="0" ry="0" style="stroke:none;fill:#ffffff;"/>
</a>
<text x="10.000000" y="7.000000" font-family="Arial" font-size="7"></text>
<a xlink:href="pregain-0x7f8f8fe61850.svg">
<rect x="41.000000" y="43.000000" width="38.700000" height="24.000000" rx="0.1" ry="0.1" style="stroke:none;fill:#aaaaaa;;filter:url(#filter);"/>
<rect x="40.000000" y="42.000000" width="38.700000" height="24.000000" rx="0" ry="0" style="stroke:none;fill:#003366;"/>
</a>
<a xlink:href="pregain-0x7f8f8fe61850.svg">
<text x="59.350000" y="56.000000" font-family="Arial" font-size="7" text-anchor="middle" fill="#FFFFFF">pregain</text>
</a>
<circle cx="42.000000" cy="44.000000" r="1"/>
<rect x="95.700000" y="39.000000" width="24.000000" height="24.000000" rx="0.1" ry="0.1" style="stroke:none;fill:#aaaaaa;;filter:url(#filter);"/>
<rect x="94.700000" y="38.000000" width="24.000000" height="24.000000" rx="0" ry="0" style="stroke:none;fill:#4B71A1;"/>
<text x="106.700000" y="52.000000" font-family="Arial" font-size="7" text-anchor="middle" fill="#FFFFFF">*</text>
<circle cx="96.700000" cy="40.000000" r="1"/>
<line x1="91.700000" y1="45.000000" x2="94.700000" y2="46.000000"  transform="rotate(0.000000,94.700000,46.000000)" style="stroke: black; stroke-width:0.25;"/>
<line x1="91.700000" y1="47.000000" x2="94.700000" y2="46.000000"  transform="rotate(0.000000,94.700000,46.000000)" style="stroke: black; stroke-width:0.25;"/>
<line x1="91.700000" y1="53.000000" x2="94.700000" y2="54.000000"  transform="rotate(0.000000,94.700000,54.000000)" style="stroke: black; stroke-width:0.25;"/>
<line x1="91.700000" y1="55.000000" x2="94.700000" y2="54.000000"  transform="rotate(0.000000,94.700000,54.000000)" style="stroke: black; stroke-width:0.25;"/>
<rect x="145.700000" y="43.000000" width="24.000000" height="24.000000" rx="0.1" ry="0.1" style="stroke:none;fill:#aaaaaa;;filter:url(#filter);"/>
<rect x="144.700000" y="42.000000" width="24.000000" height="24.000000" rx="0" ry="0" style="stroke:none;fill:#f44800;"/>
<text x="156.700000" y="56.000000" font-family="Arial" font-size="7" text-anchor="middle" fill="#FFFFFF">0</text>
<circle cx="146.700000" cy="44.000000" r="1"/>
<line x1="135.700000" y1="33.000000" x2="135.700000" y2="75.000000"  style="stroke: black; stroke-linecap:round; stroke-width:0.25; stroke-dasharray:3,3;"/>
<line x1="135.700000" y1="75.000000" x2="177.700000" y2="75.000000"  style="stroke: black; stroke-linecap:round; stroke-width:0.25; stroke-dasharray:3,3;"/>
<line x1="177.700000" y1="75.000000" x2="177.700000" y2="33.000000"  style="stroke: black; stroke-linecap:round; stroke-width:0.25; stroke-dasharray:3,3;"/>
<line x1="135.700000" y1="33.000000" x2="140.700000" y2="33.000000"  style="stroke: black; stroke-linecap:round; stroke-width:0.25; stroke-dasharray:3,3;"/>
<line x1="172.950000" y1="33.000000" x2="177.700000" y2="33.000000"  style="stroke: black; stroke-linecap:round; stroke-width:0.25; stroke-dasharray:3,3;"/>
<text x="140.700000" y="35.000000" font-family="Arial" font-size="7">clipCond</text>
<rect x="195.700000" y="39.000000" width="24.000000" height="24.000000" rx="0.1" ry="0.1" style="stroke:none;fill:#aaaaaa;;filter:url(#filter);"/>
<rect x="194.700000" y="38.000000" width="24.000000" height="24.000000" rx="0" ry="0" style="stroke:none;fill:#4B71A1;"/>
<text x="206.700000" y="52.000000" font-family="Arial" font-size="7" text-anchor="middle" fill="#FFFFFF">+</text>
<circle cx="196.700000" cy="40.000000" r="1"/>
<line x1="191.700000" y1="45.000000" x2="194.700000" y2="46.000000"  transform="rotate(0.000000,194.700000,46.000000)" style="stroke: black; stroke-width:0.25;"/>
<line x1="191.700000" y1="47.000000" x2="194.700000" y2="46.000000"  transform="rotate(0.000000,194.700000,46.000000)" style="stroke: black; stroke-width:0.25;"/>
<line x1="191.700000" y1="53.000000" x2="194.700000" y2="54.000000"  transform="rotate(0.000000,194.700000,54.000000)" style="stroke: black; stroke-width:0.25;"/>
<line x1="191.700000" y1="55.000000" x2="194.700000" y2="54.000000"  transform="rotate(0.000000,194.700000,54.000000)" style="stroke: black; stroke-width:0.25;"/>
<a xlink:href="clip-0x7f8f8fe649e0.svg">
<rect x="227.700000" y="39.000000" width="51.600000" height="24.000000" rx="0.1" ry="0.1" style="stroke:none;fill:#aaaaaa;;filter:url(#filter);"/>
<rect x="226.700000" y="38.000000" width="51.600000" height="24.000000" rx="0" ry="0" style="stroke:none;fill:#003366;"/>
</a>
<a xlink:href="clip-0x7f8f8fe649e0.svg">
<text x="252.500000" y="52.000000" font-family="Arial" font-size="7" text-anchor="middle" fill="#FFFFFF">clip(-1)(1)</text>
</a>
<circle cx="228.700000" cy="40.000000" r="1"/>
<line x1="223.700000" y1="49.000000" x2="226.700000" y2="50.000000"  transform="rotate(0.000000,226.700000,50.000000)" style="stroke: black; stroke-width:0.25;"/>
<line x1="223.700000" y1="51.000000" x2="226.700000" y2="50.000000"  transform="rotate(0.000000,226.700000,50.000000)" style="stroke: black; stroke-width:0.25;"/>
<a xlink:href="cubic-0x7f8f91a93370.svg">
<rect x="287.300000" y="39.000000" width="25.800000" height="24.000000" rx="0.1" ry="0.1" style="stroke:none;fill:#aaaaaa;;filter:url(#filter);"/>
<rect x="286.300000" y="38.000000" width="25.800000" height="24.000000" rx="0" ry="0" style="stroke:none;fill:#003366;"/>
</a>
<a xlink:href="cubic-0x7f8f91a93370.svg">
<text x="299.200000" y="52.000000" font-family="Arial" font-size="7" text-anchor="middle" fill="#FFFFFF">cubic</text>
</a>
<circle cx="288.300000" cy="40.000000" r="1"/>
<line x1="283.300000" y1="49.000000" x2="286.300000" y2="50.000000"  transform="rotate(0.000000,286.300000,50.000000)" style="stroke: black; stroke-width:0.25;"/>
<line x1="283.300000" y1="51.000000" x2="286.300000" y2="50.000000"  transform="rotate(0.000000,286.300000,50.000000)" style="stroke: black; stroke-width:0.25;"/>
<line x1="15.000000" y1="15.000000" x2="15.000000" y2="85.000000"  style="stroke: black; stroke-linecap:round; stroke-width:0.25; stroke-dasharray:3,3;"/>
<line x1="15.000000" y1="85.000000" x2="329.100000" y2="85.000000"  style="stroke: black; stroke-linecap:round; stroke-width:0.25; stroke-dasharray:3,3;"/>
<line x1="329.100000" y1="85.000000" x2="329.100000" y2="15.000000"  style="stroke: black; stroke-linecap:round; stroke-width:0.25; stroke-dasharray:3,3;"/>
<line x1="15.000000" y1="15.000000" x2="20.000000" y2="15.000000"  style="stroke: black; stroke-linecap:round; stroke-width:0.25; stroke-dasharray:3,3;"/>
<line x1="129.650000" y1="15.000000" x2="329.100000" y2="15.000000"  style="stroke: black; stroke-linecap:round; stroke-width:0.25; stroke-dasharray:3,3;"/>
<text x="20.000000" y="17.000000" font-family="Arial" font-size="7">cubicnl(hslid...,0.999f : *))(0)</text>
<line x1="331.100000" y1="49.000000" x2="334.100000" y2="50.000000"  transform="rotate(0.000000,334.100000,50.000000)" style="stroke: black; stroke-width:0.25;"/>
<line x1="331.100000" y1="51.000000" x2="334.100000" y2="50.000000"  transform="rotate(0.000000,334.100000,50.000000)" style="stroke: black; stroke-width:0.25;"/>
<line x1="10.000000" y1="50.000000" x2="20.000000" y2="50.000000"  style="stroke:black; stroke-linecap:round; stroke-width:0.25;"/>
<line x1="20.000000" y1="50.000000" x2="24.000000" y2="50.000000"  style="stroke:black; stroke-linecap:round; stroke-width:0.25;"/>
<line x1="24.000000" y1="50.000000" x2="28.000000" y2="50.000000"  style="stroke:black; stroke-linecap:round; stroke-width:0.25;"/>
<line x1="28.000000" y1="34.000000" x2="36.000000" y2="34.000000"  style="stroke:black; stroke-linecap:round; stroke-width:0.25;"/>
<line x1="28.000000" y1="50.000000" x2="28.000000" y2="34.000000"  style="stroke:black; stroke-linecap:round; stroke-width:0.25;"/>
<line x1="28.000000" y1="50.000000" x2="28.000000" y2="50.000000"  style="stroke:black; stroke-linecap:round; stroke-width:0.25;"/>
<line x1="36.000000" y1="34.000000" x2="59.350000" y2="34.000000"  style="stroke:black; stroke-linecap:round; stroke-width:0.25;"/>
<line x1="59.350000" y1="34.000000" x2="82.700000" y2="34.000000"  style="stroke:black; stroke-linecap:round; stroke-width:0.25;"/>
<line x1="78.700000" y1="54.000000" x2="82.700000" y2="54.000000"  style="stroke:black; stroke-linecap:round; stroke-width:0.25;"/>
<line x1="82.700000" y1="34.000000" x2="90.700000" y2="34.000000"  style="stroke:black; stroke-linecap:round; stroke-width:0.25;"/>
<line x1="82.700000" y1="54.000000" x2="90.700000" y2="54.000000"  style="stroke:black; stroke-linecap:round; stroke-width:0.25;"/>
<line x1="90.700000" y1="34.000000" x2="90.700000" y2="46.000000"  style="stroke:black; stroke-linecap:round; stroke-width:0.25;"/>
<line x1="90.700000" y1="46.000000" x2="90.700000" y2="46.000000"  style="stroke:black; stroke-linecap:round; stroke-width:0.25;"/>
<line x1="90.700000" y1="46.000000" x2="94.700000" y2="46.000000"  style="stroke:black; stroke-linecap:round; stroke-width:0.25;"/>
<line x1="90.700000" y1="54.000000" x2="94.700000" y2="54.000000"  style="stroke:black; stroke-linecap:round; stroke-width:0.25;"/>
<line x1="118.700000" y1="50.000000" x2="122.700000" y2="50.000000"  style="stroke:black; stroke-linecap:round; stroke-width:0.25;"/>
<line x1="122.700000" y1="24.000000" x2="130.700000" y2="24.000000"  style="stroke:black; stroke-linecap:round; stroke-width:0.25;"/>
<line x1="122.700000" y1="50.000000" x2="122.700000" y2="24.000000"  style="stroke:black; stroke-linecap:round; stroke-width:0.25;"/>
<line x1="122.700000" y1="50.000000" x2="122.700000" y2="50.000000"  style="stroke:black; stroke-linecap:round; stroke-width:0.25;"/>
<line x1="130.700000" y1="24.000000" x2="156.700000" y2="24.000000"  style="stroke:black; stroke-linecap:round; stroke-width:0.25;"/>
<line x1="156.700000" y1="24.000000" x2="182.700000" y2="24.000000"  style="stroke:black; stroke-linecap:round; stroke-width:0.25;"/>
<line x1="168.700000" y1="54.000000" x2="172.700000" y2="54.000000"  style="stroke:black; stroke-linecap:round; stroke-width:0.25;"/>
<line x1="172.700000" y1="54.000000" x2="182.700000" y2="54.000000"  style="stroke:black; stroke-linecap:round; stroke-width:0.25;"/>
<line x1="182.700000" y1="24.000000" x2="190.700000" y2="24.000000"  style="stroke:black; stroke-linecap:round; stroke-width:0.25;"/>
<line x1="182.700000" y1="54.000000" x2="190.700000" y2="54.000000"  style="stroke:black; stroke-linecap:round; stroke-width:0.25;"/>
<line x1="190.700000" y1="24.000000" x2="190.700000" y2="46.000000"  style="stroke:black; stroke-linecap:round; stroke-width:0.25;"/>
<line x1="190.700000" y1="46.000000" x2="190.700000" y2="46.000000"  style="stroke:black; stroke-linecap:round; stroke-width:0.25;"/>
<line x1="190.700000" y1="46.000000" x2="194.700000" y2="46.000000"  style="stroke:black; stroke-linecap:round; stroke-width:0.25;"/>
<line x1="190.700000" y1="54.000000" x2="194.700000" y2="54.000000"  style="stroke:black; stroke-linecap:round; stroke-width:0.25;"/>
<line x1="218.700000" y1="50.000000" x2="222.700000" y2="50.000000"  style="stroke:black; stroke-linecap:round; stroke-width:0.25;"/>
<line x1="222.700000" y1="50.000000" x2="222.700000" y2="50.000000"  style="stroke:black; stroke-linecap:round; stroke-width:0.25;"/>
<line x1="222.700000" y1="50.000000" x2="226.700000" y2="50.000000"  style="stroke:black; stroke-linecap:round; stroke-width:0.25;"/>
<line x1="278.300000" y1="50.000000" x2="282.300000" y2="50.000000"  style="stroke:black; stroke-linecap:round; stroke-width:0.25;"/>
<line x1="282.300000" y1="50.000000" x2="282.300000" y2="50.000000"  style="stroke:black; stroke-linecap:round; stroke-width:0.25;"/>
<line x1="282.300000" y1="50.000000" x2="286.300000" y2="50.000000"  style="stroke:black; stroke-linecap:round; stroke-width:0.25;"/>
<line x1="312.100000" y1="50.000000" x2="316.100000" y2="50.000000"  style="stroke:black; stroke-linecap:round; stroke-width:0.25;"/>
<line x1="316.100000" y1="50.000000" x2="316.100000" y2="50.000000"  style="stroke:black; stroke-linecap:round; stroke-width:0.25;"/>
<line x1="316.100000" y1="50.000000" x2="320.100000" y2="50.000000"  style="stroke:black; stroke-linecap:round; stroke-width:0.25;"/>
<line x1="320.100000" y1="50.000000" x2="324.100000" y2="50.000000"  style="stroke:black; stroke-linecap:round; stroke-width:0.25;"/>
<line x1="324.100000" y1="50.000000" x2="334.100000" y2="50.000000"  style="stroke:black; stroke-linecap:round; stroke-width:0.25;"/>
</svg>
