<?xml version="1.0"?>
<svg xmlns="http://www.w3.org/2000/svg" xmlns:xlink="http://www.w3.org/1999/xlink" viewBox="0 0 293.800000 376.000000" width="146.900000mm" height="188.000000mm" version="1.1">
<defs>
   <filter id="filter" filterRes="18" x="0" y="0">
     <feGaussianBlur in="SourceGraphic" stdDeviation="1.55" result="blur"/>
     <feOffset in="blur" dx="3" dy="3"/>
   </filter>
</defs>
<a xlink:href="fdelay-0x7f8f92800840.svg">
<rect x="1.000000" y="1.000000" width="292.800000" height="375.000000" rx="0.1" ry="0.1" style="stroke:none;fill:#aaaaaa;;filter:url(#filter);"/>
<rect x="0.000000" y="0.000000" width="292.800000" height="375.000000" rx="0" ry="0" style="stroke:none;fill:#ffffff;"/>
</a>
<text x="10.000000" y="7.000000" font-family="Arial" font-size="7"></text>
<a xlink:href="diff-0x7f8f8fd79bf0.svg">
<rect x="44.550000" y="25.000000" width="38.700000" height="24.000000" rx="0.1" ry="0.1" style="stroke:none;fill:#aaaaaa;;filter:url(#filter);"/>
<rect x="43.550000" y="24.000000" width="38.700000" height="24.000000" rx="0" ry="0" style="stroke:none;fill:#003366;"/>
</a>
<a xlink:href="diff-0x7f8f8fd79bf0.svg">
<text x="62.900000" y="38.000000" font-family="Arial" font-size="7" text-anchor="middle" fill="#FFFFFF">diff_mult</text>
</a>
<circle cx="45.550000" cy="26.000000" r="1"/>
<rect x="51.900000" y="67.000000" width="24.000000" height="24.000000" rx="0.1" ry="0.1" style="stroke:none;fill:#aaaaaa;;filter:url(#filter);"/>
<rect x="50.900000" y="66.000000" width="24.000000" height="24.000000" rx="0" ry="0" style="stroke:none;fill:#f44800;"/>
<text x="62.900000" y="80.000000" font-family="Arial" font-size="7" text-anchor="middle" fill="#FFFFFF">151</text>
<circle cx="52.900000" cy="68.000000" r="1"/>
<line x1="41.900000" y1="57.000000" x2="41.900000" y2="99.000000"  style="stroke: black; stroke-linecap:round; stroke-width:0.25; stroke-dasharray:3,3;"/>
<line x1="41.900000" y1="99.000000" x2="83.900000" y2="99.000000"  style="stroke: black; stroke-linecap:round; stroke-width:0.25; stroke-dasharray:3,3;"/>
<line x1="83.900000" y1="99.000000" x2="83.900000" y2="57.000000"  style="stroke: black; stroke-linecap:round; stroke-width:0.25; stroke-dasharray:3,3;"/>
<line x1="41.900000" y1="57.000000" x2="46.900000" y2="57.000000"  style="stroke: black; stroke-linecap:round; stroke-width:0.25; stroke-dasharray:3,3;"/>
<line x1="79.150000" y1="57.000000" x2="83.900000" y2="57.000000"  style="stroke: black; stroke-linecap:round; stroke-width:0.25; stroke-dasharray:3,3;"/>
<text x="46.900000" y="59.000000" font-family="Arial" font-size="7">dt_idr_1</text>
<rect x="101.900000" y="51.000000" width="24.000000" height="24.000000" rx="0.1" ry="0.1" style="stroke:none;fill:#aaaaaa;;filter:url(#filter);"/>
<rect x="100.900000" y="50.000000" width="24.000000" height="24.000000" rx="0" ry="0" style="stroke:none;fill:#4B71A1;"/>
<text x="112.900000" y="64.000000" font-family="Arial" font-size="7" text-anchor="middle" fill="#FFFFFF">*</text>
<circle cx="102.900000" cy="52.000000" r="1"/>
<line x1="97.900000" y1="57.000000" x2="100.900000" y2="58.000000"  transform="rotate(0.000000,100.900000,58.000000)" style="stroke: black; stroke-width:0.25;"/>
<line x1="97.900000" y1="59.000000" x2="100.900000" y2="58.000000"  transform="rotate(0.000000,100.900000,58.000000)" style="stroke: black; stroke-width:0.25;"/>
<line x1="97.900000" y1="65.000000" x2="100.900000" y2="66.000000"  transform="rotate(0.000000,100.900000,66.000000)" style="stroke: black; stroke-width:0.25;"/>
<line x1="97.900000" y1="67.000000" x2="100.900000" y2="66.000000"  transform="rotate(0.000000,100.900000,66.000000)" style="stroke: black; stroke-width:0.25;"/>
<a xlink:href="mod-0x7f8f91f4eaa0.svg">
<rect x="71.900000" y="109.000000" width="24.000000" height="24.000000" rx="0.1" ry="0.1" style="stroke:none;fill:#aaaaaa;;filter:url(#filter);"/>
<rect x="70.900000" y="108.000000" width="24.000000" height="24.000000" rx="0" ry="0" style="stroke:none;fill:#003366;"/>
</a>
<a xlink:href="mod-0x7f8f91f4eaa0.svg">
<text x="82.900000" y="122.000000" font-family="Arial" font-size="7" text-anchor="middle" fill="#FFFFFF">mod</text>
</a>
<circle cx="72.900000" cy="110.000000" r="1"/>
<rect x="141.900000" y="67.000000" width="24.000000" height="24.000000" rx="0.1" ry="0.1" style="stroke:none;fill:#aaaaaa;;filter:url(#filter);"/>
<rect x="140.900000" y="66.000000" width="24.000000" height="24.000000" rx="0" ry="0" style="stroke:none;fill:#4B71A1;"/>
<text x="152.900000" y="80.000000" font-family="Arial" font-size="7" text-anchor="middle" fill="#FFFFFF">+</text>
<circle cx="142.900000" cy="68.000000" r="1"/>
<line x1="137.900000" y1="73.000000" x2="140.900000" y2="74.000000"  transform="rotate(0.000000,140.900000,74.000000)" style="stroke: black; stroke-width:0.25;"/>
<line x1="137.900000" y1="75.000000" x2="140.900000" y2="74.000000"  transform="rotate(0.000000,140.900000,74.000000)" style="stroke: black; stroke-width:0.25;"/>
<line x1="137.900000" y1="81.000000" x2="140.900000" y2="82.000000"  transform="rotate(0.000000,140.900000,82.000000)" style="stroke: black; stroke-width:0.25;"/>
<line x1="137.900000" y1="83.000000" x2="140.900000" y2="82.000000"  transform="rotate(0.000000,140.900000,82.000000)" style="stroke: black; stroke-width:0.25;"/>
<rect x="91.900000" y="151.000000" width="24.000000" height="24.000000" rx="0.1" ry="0.1" style="stroke:none;fill:#aaaaaa;;filter:url(#filter);"/>
<rect x="90.900000" y="150.000000" width="24.000000" height="24.000000" rx="0" ry="0" style="stroke:none;fill:#f44800;"/>
<text x="102.900000" y="164.000000" font-family="Arial" font-size="7" text-anchor="middle" fill="#FFFFFF">1</text>
<circle cx="92.900000" cy="152.000000" r="1"/>
<line x1="81.900000" y1="141.000000" x2="81.900000" y2="183.000000"  style="stroke: black; stroke-linecap:round; stroke-width:0.25; stroke-dasharray:3,3;"/>
<line x1="81.900000" y1="183.000000" x2="123.900000" y2="183.000000"  style="stroke: black; stroke-linecap:round; stroke-width:0.25; stroke-dasharray:3,3;"/>
<line x1="123.900000" y1="183.000000" x2="123.900000" y2="141.000000"  style="stroke: black; stroke-linecap:round; stroke-width:0.25; stroke-dasharray:3,3;"/>
<line x1="81.900000" y1="141.000000" x2="86.900000" y2="141.000000"  style="stroke: black; stroke-linecap:round; stroke-width:0.25; stroke-dasharray:3,3;"/>
<line x1="96.575000" y1="141.000000" x2="123.900000" y2="141.000000"  style="stroke: black; stroke-linecap:round; stroke-width:0.25; stroke-dasharray:3,3;"/>
<text x="86.900000" y="143.000000" font-family="Arial" font-size="7">S</text>
<rect x="181.900000" y="93.000000" width="24.000000" height="24.000000" rx="0.1" ry="0.1" style="stroke:none;fill:#aaaaaa;;filter:url(#filter);"/>
<rect x="180.900000" y="92.000000" width="24.000000" height="24.000000" rx="0" ry="0" style="stroke:none;fill:#4B71A1;"/>
<text x="192.900000" y="106.000000" font-family="Arial" font-size="7" text-anchor="middle" fill="#FFFFFF">-</text>
<circle cx="182.900000" cy="94.000000" r="1"/>
<line x1="177.900000" y1="99.000000" x2="180.900000" y2="100.000000"  transform="rotate(0.000000,180.900000,100.000000)" style="stroke: black; stroke-width:0.25;"/>
<line x1="177.900000" y1="101.000000" x2="180.900000" y2="100.000000"  transform="rotate(0.000000,180.900000,100.000000)" style="stroke: black; stroke-width:0.25;"/>
<line x1="177.900000" y1="107.000000" x2="180.900000" y2="108.000000"  transform="rotate(0.000000,180.900000,108.000000)" style="stroke: black; stroke-width:0.25;"/>
<line x1="177.900000" y1="109.000000" x2="180.900000" y2="108.000000"  transform="rotate(0.000000,180.900000,108.000000)" style="stroke: black; stroke-width:0.25;"/>
<a xlink:href="diff-0x7f8f8fd79bf0.svg">
<rect x="27.650000" y="193.000000" width="38.700000" height="24.000000" rx="0.1" ry="0.1" style="stroke:none;fill:#aaaaaa;;filter:url(#filter);"/>
<rect x="26.650000" y="192.000000" width="38.700000" height="24.000000" rx="0" ry="0" style="stroke:none;fill:#003366;"/>
</a>
<a xlink:href="diff-0x7f8f8fd79bf0.svg">
<text x="46.000000" y="206.000000" font-family="Arial" font-size="7" text-anchor="middle" fill="#FFFFFF">diff_mult</text>
</a>
<circle cx="28.650000" cy="194.000000" r="1"/>
<rect x="35.000000" y="235.000000" width="24.000000" height="24.000000" rx="0.1" ry="0.1" style="stroke:none;fill:#aaaaaa;;filter:url(#filter);"/>
<rect x="34.000000" y="234.000000" width="24.000000" height="24.000000" rx="0" ry="0" style="stroke:none;fill:#f44800;"/>
<text x="46.000000" y="248.000000" font-family="Arial" font-size="7" text-anchor="middle" fill="#FFFFFF">151</text>
<circle cx="36.000000" cy="236.000000" r="1"/>
<line x1="25.000000" y1="225.000000" x2="25.000000" y2="267.000000"  style="stroke: black; stroke-linecap:round; stroke-width:0.25; stroke-dasharray:3,3;"/>
<line x1="25.000000" y1="267.000000" x2="67.000000" y2="267.000000"  style="stroke: black; stroke-linecap:round; stroke-width:0.25; stroke-dasharray:3,3;"/>
<line x1="67.000000" y1="267.000000" x2="67.000000" y2="225.000000"  style="stroke: black; stroke-linecap:round; stroke-width:0.25; stroke-dasharray:3,3;"/>
<line x1="25.000000" y1="225.000000" x2="30.000000" y2="225.000000"  style="stroke: black; stroke-linecap:round; stroke-width:0.25; stroke-dasharray:3,3;"/>
<line x1="62.250000" y1="225.000000" x2="67.000000" y2="225.000000"  style="stroke: black; stroke-linecap:round; stroke-width:0.25; stroke-dasharray:3,3;"/>
<text x="30.000000" y="227.000000" font-family="Arial" font-size="7">dt_idr_1</text>
<rect x="85.000000" y="219.000000" width="24.000000" height="24.000000" rx="0.1" ry="0.1" style="stroke:none;fill:#aaaaaa;;filter:url(#filter);"/>
<rect x="84.000000" y="218.000000" width="24.000000" height="24.000000" rx="0" ry="0" style="stroke:none;fill:#4B71A1;"/>
<text x="96.000000" y="232.000000" font-family="Arial" font-size="7" text-anchor="middle" fill="#FFFFFF">*</text>
<circle cx="86.000000" cy="220.000000" r="1"/>
<line x1="81.000000" y1="225.000000" x2="84.000000" y2="226.000000"  transform="rotate(0.000000,84.000000,226.000000)" style="stroke: black; stroke-width:0.25;"/>
<line x1="81.000000" y1="227.000000" x2="84.000000" y2="226.000000"  transform="rotate(0.000000,84.000000,226.000000)" style="stroke: black; stroke-width:0.25;"/>
<line x1="81.000000" y1="233.000000" x2="84.000000" y2="234.000000"  transform="rotate(0.000000,84.000000,234.000000)" style="stroke: black; stroke-width:0.25;"/>
<line x1="81.000000" y1="235.000000" x2="84.000000" y2="234.000000"  transform="rotate(0.000000,84.000000,234.000000)" style="stroke: black; stroke-width:0.25;"/>
<a xlink:href="mod-0x7f8f91f4eaa0.svg">
<rect x="55.000000" y="277.000000" width="24.000000" height="24.000000" rx="0.1" ry="0.1" style="stroke:none;fill:#aaaaaa;;filter:url(#filter);"/>
<rect x="54.000000" y="276.000000" width="24.000000" height="24.000000" rx="0" ry="0" style="stroke:none;fill:#003366;"/>
</a>
<a xlink:href="mod-0x7f8f91f4eaa0.svg">
<text x="66.000000" y="290.000000" font-family="Arial" font-size="7" text-anchor="middle" fill="#FFFFFF">mod</text>
</a>
<circle cx="56.000000" cy="278.000000" r="1"/>
<rect x="125.000000" y="235.000000" width="24.000000" height="24.000000" rx="0.1" ry="0.1" style="stroke:none;fill:#aaaaaa;;filter:url(#filter);"/>
<rect x="124.000000" y="234.000000" width="24.000000" height="24.000000" rx="0" ry="0" style="stroke:none;fill:#4B71A1;"/>
<text x="136.000000" y="248.000000" font-family="Arial" font-size="7" text-anchor="middle" fill="#FFFFFF">+</text>
<circle cx="126.000000" cy="236.000000" r="1"/>
<line x1="121.000000" y1="241.000000" x2="124.000000" y2="242.000000"  transform="rotate(0.000000,124.000000,242.000000)" style="stroke: black; stroke-width:0.25;"/>
<line x1="121.000000" y1="243.000000" x2="124.000000" y2="242.000000"  transform="rotate(0.000000,124.000000,242.000000)" style="stroke: black; stroke-width:0.25;"/>
<line x1="121.000000" y1="249.000000" x2="124.000000" y2="250.000000"  transform="rotate(0.000000,124.000000,250.000000)" style="stroke: black; stroke-width:0.25;"/>
<line x1="121.000000" y1="251.000000" x2="124.000000" y2="250.000000"  transform="rotate(0.000000,124.000000,250.000000)" style="stroke: black; stroke-width:0.25;"/>
<rect x="75.000000" y="319.000000" width="24.000000" height="24.000000" rx="0.1" ry="0.1" style="stroke:none;fill:#aaaaaa;;filter:url(#filter);"/>
<rect x="74.000000" y="318.000000" width="24.000000" height="24.000000" rx="0" ry="0" style="stroke:none;fill:#f44800;"/>
<text x="86.000000" y="332.000000" font-family="Arial" font-size="7" text-anchor="middle" fill="#FFFFFF">1</text>
<circle cx="76.000000" cy="320.000000" r="1"/>
<line x1="65.000000" y1="309.000000" x2="65.000000" y2="351.000000"  style="stroke: black; stroke-linecap:round; stroke-width:0.25; stroke-dasharray:3,3;"/>
<line x1="65.000000" y1="351.000000" x2="107.000000" y2="351.000000"  style="stroke: black; stroke-linecap:round; stroke-width:0.25; stroke-dasharray:3,3;"/>
<line x1="107.000000" y1="351.000000" x2="107.000000" y2="309.000000"  style="stroke: black; stroke-linecap:round; stroke-width:0.25; stroke-dasharray:3,3;"/>
<line x1="65.000000" y1="309.000000" x2="70.000000" y2="309.000000"  style="stroke: black; stroke-linecap:round; stroke-width:0.25; stroke-dasharray:3,3;"/>
<line x1="79.675000" y1="309.000000" x2="107.000000" y2="309.000000"  style="stroke: black; stroke-linecap:round; stroke-width:0.25; stroke-dasharray:3,3;"/>
<text x="70.000000" y="311.000000" font-family="Arial" font-size="7">S</text>
<rect x="165.000000" y="261.000000" width="24.000000" height="24.000000" rx="0.1" ry="0.1" style="stroke:none;fill:#aaaaaa;;filter:url(#filter);"/>
<rect x="164.000000" y="260.000000" width="24.000000" height="24.000000" rx="0" ry="0" style="stroke:none;fill:#4B71A1;"/>
<text x="176.000000" y="274.000000" font-family="Arial" font-size="7" text-anchor="middle" fill="#FFFFFF">-</text>
<circle cx="166.000000" cy="262.000000" r="1"/>
<line x1="161.000000" y1="267.000000" x2="164.000000" y2="268.000000"  transform="rotate(0.000000,164.000000,268.000000)" style="stroke: black; stroke-width:0.25;"/>
<line x1="161.000000" y1="269.000000" x2="164.000000" y2="268.000000"  transform="rotate(0.000000,164.000000,268.000000)" style="stroke: black; stroke-width:0.25;"/>
<line x1="161.000000" y1="275.000000" x2="164.000000" y2="276.000000"  transform="rotate(0.000000,164.000000,276.000000)" style="stroke: black; stroke-width:0.25;"/>
<line x1="161.000000" y1="277.000000" x2="164.000000" y2="276.000000"  transform="rotate(0.000000,164.000000,276.000000)" style="stroke: black; stroke-width:0.25;"/>
<rect x="197.000000" y="261.000000" width="25.800000" height="24.000000" rx="0.1" ry="0.1" style="stroke:none;fill:#aaaaaa;;filter:url(#filter);"/>
<rect x="196.000000" y="260.000000" width="25.800000" height="24.000000" rx="0" ry="0" style="stroke:none;fill:#4B71A1;"/>
<text x="208.900000" y="274.000000" font-family="Arial" font-size="7" text-anchor="middle" fill="#FFFFFF">floor</text>
<circle cx="198.000000" cy="262.000000" r="1"/>
<line x1="193.000000" y1="271.000000" x2="196.000000" y2="272.000000"  transform="rotate(0.000000,196.000000,272.000000)" style="stroke: black; stroke-width:0.25;"/>
<line x1="193.000000" y1="273.000000" x2="196.000000" y2="272.000000"  transform="rotate(0.000000,196.000000,272.000000)" style="stroke: black; stroke-width:0.25;"/>
<rect x="238.800000" y="177.000000" width="24.000000" height="24.000000" rx="0.1" ry="0.1" style="stroke:none;fill:#aaaaaa;;filter:url(#filter);"/>
<rect x="237.800000" y="176.000000" width="24.000000" height="24.000000" rx="0" ry="0" style="stroke:none;fill:#4B71A1;"/>
<text x="249.800000" y="190.000000" font-family="Arial" font-size="7" text-anchor="middle" fill="#FFFFFF">-</text>
<circle cx="239.800000" cy="178.000000" r="1"/>
<line x1="234.800000" y1="183.000000" x2="237.800000" y2="184.000000"  transform="rotate(0.000000,237.800000,184.000000)" style="stroke: black; stroke-width:0.25;"/>
<line x1="234.800000" y1="185.000000" x2="237.800000" y2="184.000000"  transform="rotate(0.000000,237.800000,184.000000)" style="stroke: black; stroke-width:0.25;"/>
<line x1="234.800000" y1="191.000000" x2="237.800000" y2="192.000000"  transform="rotate(0.000000,237.800000,192.000000)" style="stroke: black; stroke-width:0.25;"/>
<line x1="234.800000" y1="193.000000" x2="237.800000" y2="192.000000"  transform="rotate(0.000000,237.800000,192.000000)" style="stroke: black; stroke-width:0.25;"/>
<line x1="15.000000" y1="15.000000" x2="15.000000" y2="361.000000"  style="stroke: black; stroke-linecap:round; stroke-width:0.25; stroke-dasharray:3,3;"/>
<line x1="15.000000" y1="361.000000" x2="278.800000" y2="361.000000"  style="stroke: black; stroke-linecap:round; stroke-width:0.25; stroke-dasharray:3,3;"/>
<line x1="278.800000" y1="361.000000" x2="278.800000" y2="15.000000"  style="stroke: black; stroke-linecap:round; stroke-width:0.25; stroke-dasharray:3,3;"/>
<line x1="15.000000" y1="15.000000" x2="20.000000" y2="15.000000"  style="stroke: black; stroke-linecap:round; stroke-width:0.25; stroke-dasharray:3,3;"/>
<line x1="119.975000" y1="15.000000" x2="278.800000" y2="15.000000"  style="stroke: black; stroke-linecap:round; stroke-width:0.25; stroke-dasharray:3,3;"/>
<text x="20.000000" y="17.000000" font-family="Arial" font-size="7">decimal((((hs...) : +),1 : -)</text>
<line x1="280.800000" y1="187.000000" x2="283.800000" y2="188.000000"  transform="rotate(0.000000,283.800000,188.000000)" style="stroke: black; stroke-width:0.25;"/>
<line x1="280.800000" y1="189.000000" x2="283.800000" y2="188.000000"  transform="rotate(0.000000,283.800000,188.000000)" style="stroke: black; stroke-width:0.25;"/>
<line x1="58.000000" y1="246.000000" x2="62.000000" y2="246.000000"  style="stroke:black; stroke-linecap:round; stroke-width:0.25;"/>
<line x1="62.000000" y1="246.000000" x2="72.000000" y2="246.000000"  style="stroke:black; stroke-linecap:round; stroke-width:0.25;"/>
<line x1="65.350000" y1="204.000000" x2="69.350000" y2="204.000000"  style="stroke:black; stroke-linecap:round; stroke-width:0.25;"/>
<line x1="69.350000" y1="204.000000" x2="72.000000" y2="204.000000"  style="stroke:black; stroke-linecap:round; stroke-width:0.25;"/>
<line x1="72.000000" y1="204.000000" x2="80.000000" y2="204.000000"  style="stroke:black; stroke-linecap:round; stroke-width:0.25;"/>
<line x1="72.000000" y1="234.000000" x2="80.000000" y2="234.000000"  style="stroke:black; stroke-linecap:round; stroke-width:0.25;"/>
<line x1="72.000000" y1="246.000000" x2="72.000000" y2="234.000000"  style="stroke:black; stroke-linecap:round; stroke-width:0.25;"/>
<line x1="72.000000" y1="246.000000" x2="72.000000" y2="246.000000"  style="stroke:black; stroke-linecap:round; stroke-width:0.25;"/>
<line x1="74.900000" y1="78.000000" x2="78.900000" y2="78.000000"  style="stroke:black; stroke-linecap:round; stroke-width:0.25;"/>
<line x1="78.000000" y1="288.000000" x2="82.000000" y2="288.000000"  style="stroke:black; stroke-linecap:round; stroke-width:0.25;"/>
<line x1="78.900000" y1="78.000000" x2="88.900000" y2="78.000000"  style="stroke:black; stroke-linecap:round; stroke-width:0.25;"/>
<line x1="80.000000" y1="204.000000" x2="80.000000" y2="226.000000"  style="stroke:black; stroke-linecap:round; stroke-width:0.25;"/>
<line x1="80.000000" y1="226.000000" x2="80.000000" y2="226.000000"  style="stroke:black; stroke-linecap:round; stroke-width:0.25;"/>
<line x1="80.000000" y1="226.000000" x2="84.000000" y2="226.000000"  style="stroke:black; stroke-linecap:round; stroke-width:0.25;"/>
<line x1="80.000000" y1="234.000000" x2="84.000000" y2="234.000000"  style="stroke:black; stroke-linecap:round; stroke-width:0.25;"/>
<line x1="82.000000" y1="288.000000" x2="112.000000" y2="288.000000"  style="stroke:black; stroke-linecap:round; stroke-width:0.25;"/>
<line x1="82.250000" y1="36.000000" x2="86.250000" y2="36.000000"  style="stroke:black; stroke-linecap:round; stroke-width:0.25;"/>
<line x1="86.250000" y1="36.000000" x2="88.900000" y2="36.000000"  style="stroke:black; stroke-linecap:round; stroke-width:0.25;"/>
<line x1="88.900000" y1="36.000000" x2="96.900000" y2="36.000000"  style="stroke:black; stroke-linecap:round; stroke-width:0.25;"/>
<line x1="88.900000" y1="66.000000" x2="96.900000" y2="66.000000"  style="stroke:black; stroke-linecap:round; stroke-width:0.25;"/>
<line x1="88.900000" y1="78.000000" x2="88.900000" y2="66.000000"  style="stroke:black; stroke-linecap:round; stroke-width:0.25;"/>
<line x1="88.900000" y1="78.000000" x2="88.900000" y2="78.000000"  style="stroke:black; stroke-linecap:round; stroke-width:0.25;"/>
<line x1="94.900000" y1="120.000000" x2="98.900000" y2="120.000000"  style="stroke:black; stroke-linecap:round; stroke-width:0.25;"/>
<line x1="96.900000" y1="36.000000" x2="96.900000" y2="58.000000"  style="stroke:black; stroke-linecap:round; stroke-width:0.25;"/>
<line x1="96.900000" y1="58.000000" x2="96.900000" y2="58.000000"  style="stroke:black; stroke-linecap:round; stroke-width:0.25;"/>
<line x1="96.900000" y1="58.000000" x2="100.900000" y2="58.000000"  style="stroke:black; stroke-linecap:round; stroke-width:0.25;"/>
<line x1="96.900000" y1="66.000000" x2="100.900000" y2="66.000000"  style="stroke:black; stroke-linecap:round; stroke-width:0.25;"/>
<line x1="98.000000" y1="330.000000" x2="102.000000" y2="330.000000"  style="stroke:black; stroke-linecap:round; stroke-width:0.25;"/>
<line x1="98.900000" y1="120.000000" x2="128.900000" y2="120.000000"  style="stroke:black; stroke-linecap:round; stroke-width:0.25;"/>
<line x1="102.000000" y1="330.000000" x2="112.000000" y2="330.000000"  style="stroke:black; stroke-linecap:round; stroke-width:0.25;"/>
<line x1="108.000000" y1="230.000000" x2="112.000000" y2="230.000000"  style="stroke:black; stroke-linecap:round; stroke-width:0.25;"/>
<line x1="112.000000" y1="230.000000" x2="120.000000" y2="230.000000"  style="stroke:black; stroke-linecap:round; stroke-width:0.25;"/>
<line x1="112.000000" y1="250.000000" x2="120.000000" y2="250.000000"  style="stroke:black; stroke-linecap:round; stroke-width:0.25;"/>
<line x1="112.000000" y1="288.000000" x2="112.000000" y2="250.000000"  style="stroke:black; stroke-linecap:round; stroke-width:0.25;"/>
<line x1="112.000000" y1="288.000000" x2="112.000000" y2="288.000000"  style="stroke:black; stroke-linecap:round; stroke-width:0.25;"/>
<line x1="112.000000" y1="330.000000" x2="152.000000" y2="330.000000"  style="stroke:black; stroke-linecap:round; stroke-width:0.25;"/>
<line x1="114.900000" y1="162.000000" x2="118.900000" y2="162.000000"  style="stroke:black; stroke-linecap:round; stroke-width:0.25;"/>
<line x1="118.900000" y1="162.000000" x2="128.900000" y2="162.000000"  style="stroke:black; stroke-linecap:round; stroke-width:0.25;"/>
<line x1="120.000000" y1="230.000000" x2="120.000000" y2="242.000000"  style="stroke:black; stroke-linecap:round; stroke-width:0.25;"/>
<line x1="120.000000" y1="242.000000" x2="120.000000" y2="242.000000"  style="stroke:black; stroke-linecap:round; stroke-width:0.25;"/>
<line x1="120.000000" y1="242.000000" x2="124.000000" y2="242.000000"  style="stroke:black; stroke-linecap:round; stroke-width:0.25;"/>
<line x1="120.000000" y1="250.000000" x2="124.000000" y2="250.000000"  style="stroke:black; stroke-linecap:round; stroke-width:0.25;"/>
<line x1="124.900000" y1="62.000000" x2="128.900000" y2="62.000000"  style="stroke:black; stroke-linecap:round; stroke-width:0.25;"/>
<line x1="128.900000" y1="62.000000" x2="136.900000" y2="62.000000"  style="stroke:black; stroke-linecap:round; stroke-width:0.25;"/>
<line x1="128.900000" y1="82.000000" x2="136.900000" y2="82.000000"  style="stroke:black; stroke-linecap:round; stroke-width:0.25;"/>
<line x1="128.900000" y1="120.000000" x2="128.900000" y2="82.000000"  style="stroke:black; stroke-linecap:round; stroke-width:0.25;"/>
<line x1="128.900000" y1="120.000000" x2="128.900000" y2="120.000000"  style="stroke:black; stroke-linecap:round; stroke-width:0.25;"/>
<line x1="128.900000" y1="162.000000" x2="168.900000" y2="162.000000"  style="stroke:black; stroke-linecap:round; stroke-width:0.25;"/>
<line x1="136.900000" y1="62.000000" x2="136.900000" y2="74.000000"  style="stroke:black; stroke-linecap:round; stroke-width:0.25;"/>
<line x1="136.900000" y1="74.000000" x2="136.900000" y2="74.000000"  style="stroke:black; stroke-linecap:round; stroke-width:0.25;"/>
<line x1="136.900000" y1="74.000000" x2="140.900000" y2="74.000000"  style="stroke:black; stroke-linecap:round; stroke-width:0.25;"/>
<line x1="136.900000" y1="82.000000" x2="140.900000" y2="82.000000"  style="stroke:black; stroke-linecap:round; stroke-width:0.25;"/>
<line x1="148.000000" y1="246.000000" x2="152.000000" y2="246.000000"  style="stroke:black; stroke-linecap:round; stroke-width:0.25;"/>
<line x1="152.000000" y1="246.000000" x2="160.000000" y2="246.000000"  style="stroke:black; stroke-linecap:round; stroke-width:0.25;"/>
<line x1="152.000000" y1="276.000000" x2="160.000000" y2="276.000000"  style="stroke:black; stroke-linecap:round; stroke-width:0.25;"/>
<line x1="152.000000" y1="330.000000" x2="152.000000" y2="276.000000"  style="stroke:black; stroke-linecap:round; stroke-width:0.25;"/>
<line x1="152.000000" y1="330.000000" x2="152.000000" y2="330.000000"  style="stroke:black; stroke-linecap:round; stroke-width:0.25;"/>
<line x1="160.000000" y1="246.000000" x2="160.000000" y2="268.000000"  style="stroke:black; stroke-linecap:round; stroke-width:0.25;"/>
<line x1="160.000000" y1="268.000000" x2="160.000000" y2="268.000000"  style="stroke:black; stroke-linecap:round; stroke-width:0.25;"/>
<line x1="160.000000" y1="268.000000" x2="164.000000" y2="268.000000"  style="stroke:black; stroke-linecap:round; stroke-width:0.25;"/>
<line x1="160.000000" y1="276.000000" x2="164.000000" y2="276.000000"  style="stroke:black; stroke-linecap:round; stroke-width:0.25;"/>
<line x1="164.900000" y1="78.000000" x2="168.900000" y2="78.000000"  style="stroke:black; stroke-linecap:round; stroke-width:0.25;"/>
<line x1="168.900000" y1="78.000000" x2="176.900000" y2="78.000000"  style="stroke:black; stroke-linecap:round; stroke-width:0.25;"/>
<line x1="168.900000" y1="108.000000" x2="176.900000" y2="108.000000"  style="stroke:black; stroke-linecap:round; stroke-width:0.25;"/>
<line x1="168.900000" y1="162.000000" x2="168.900000" y2="108.000000"  style="stroke:black; stroke-linecap:round; stroke-width:0.25;"/>
<line x1="168.900000" y1="162.000000" x2="168.900000" y2="162.000000"  style="stroke:black; stroke-linecap:round; stroke-width:0.25;"/>
<line x1="176.900000" y1="78.000000" x2="176.900000" y2="100.000000"  style="stroke:black; stroke-linecap:round; stroke-width:0.25;"/>
<line x1="176.900000" y1="100.000000" x2="176.900000" y2="100.000000"  style="stroke:black; stroke-linecap:round; stroke-width:0.25;"/>
<line x1="176.900000" y1="100.000000" x2="180.900000" y2="100.000000"  style="stroke:black; stroke-linecap:round; stroke-width:0.25;"/>
<line x1="176.900000" y1="108.000000" x2="180.900000" y2="108.000000"  style="stroke:black; stroke-linecap:round; stroke-width:0.25;"/>
<line x1="188.000000" y1="272.000000" x2="192.000000" y2="272.000000"  style="stroke:black; stroke-linecap:round; stroke-width:0.25;"/>
<line x1="192.000000" y1="272.000000" x2="192.000000" y2="272.000000"  style="stroke:black; stroke-linecap:round; stroke-width:0.25;"/>
<line x1="192.000000" y1="272.000000" x2="196.000000" y2="272.000000"  style="stroke:black; stroke-linecap:round; stroke-width:0.25;"/>
<line x1="204.900000" y1="104.000000" x2="208.900000" y2="104.000000"  style="stroke:black; stroke-linecap:round; stroke-width:0.25;"/>
<line x1="208.900000" y1="104.000000" x2="225.800000" y2="104.000000"  style="stroke:black; stroke-linecap:round; stroke-width:0.25;"/>
<line x1="221.800000" y1="272.000000" x2="225.800000" y2="272.000000"  style="stroke:black; stroke-linecap:round; stroke-width:0.25;"/>
<line x1="225.800000" y1="104.000000" x2="233.800000" y2="104.000000"  style="stroke:black; stroke-linecap:round; stroke-width:0.25;"/>
<line x1="225.800000" y1="192.000000" x2="233.800000" y2="192.000000"  style="stroke:black; stroke-linecap:round; stroke-width:0.25;"/>
<line x1="225.800000" y1="272.000000" x2="225.800000" y2="192.000000"  style="stroke:black; stroke-linecap:round; stroke-width:0.25;"/>
<line x1="225.800000" y1="272.000000" x2="225.800000" y2="272.000000"  style="stroke:black; stroke-linecap:round; stroke-width:0.25;"/>
<line x1="233.800000" y1="104.000000" x2="233.800000" y2="184.000000"  style="stroke:black; stroke-linecap:round; stroke-width:0.25;"/>
<line x1="233.800000" y1="184.000000" x2="233.800000" y2="184.000000"  style="stroke:black; stroke-linecap:round; stroke-width:0.25;"/>
<line x1="233.800000" y1="184.000000" x2="237.800000" y2="184.000000"  style="stroke:black; stroke-linecap:round; stroke-width:0.25;"/>
<line x1="233.800000" y1="192.000000" x2="237.800000" y2="192.000000"  style="stroke:black; stroke-linecap:round; stroke-width:0.25;"/>
<line x1="261.800000" y1="188.000000" x2="265.800000" y2="188.000000"  style="stroke:black; stroke-linecap:round; stroke-width:0.25;"/>
<line x1="265.800000" y1="188.000000" x2="265.800000" y2="188.000000"  style="stroke:black; stroke-linecap:round; stroke-width:0.25;"/>
<line x1="265.800000" y1="188.000000" x2="269.800000" y2="188.000000"  style="stroke:black; stroke-linecap:round; stroke-width:0.25;"/>
<line x1="269.800000" y1="188.000000" x2="273.800000" y2="188.000000"  style="stroke:black; stroke-linecap:round; stroke-width:0.25;"/>
<line x1="273.800000" y1="188.000000" x2="283.800000" y2="188.000000"  style="stroke:black; stroke-linecap:round; stroke-width:0.25;"/>
</svg>
