<?xml version="1.0"?>
<svg xmlns="http://www.w3.org/2000/svg" xmlns:xlink="http://www.w3.org/1999/xlink" viewBox="0 0 208.500000 168.000000" width="104.250000mm" height="84.000000mm" version="1.1">
<defs>
   <filter id="filter" filterRes="18" x="0" y="0">
     <feGaussianBlur in="SourceGraphic" stdDeviation="1.55" result="blur"/>
     <feOffset in="blur" dx="3" dy="3"/>
   </filter>
</defs>
<a xlink:href="fdelay-0x7f8f91a9e640.svg">
<rect x="1.000000" y="1.000000" width="207.500000" height="167.000000" rx="0.1" ry="0.1" style="stroke:none;fill:#aaaaaa;;filter:url(#filter);"/>
<rect x="0.000000" y="0.000000" width="207.500000" height="167.000000" rx="0" ry="0" style="stroke:none;fill:#ffffff;"/>
</a>
<text x="10.000000" y="7.000000" font-family="Arial" font-size="7"></text>
<a xlink:href="predelay-0x7f8f8fea8150.svg">
<rect x="41.900000" y="25.000000" width="38.700000" height="24.000000" rx="0.1" ry="0.1" style="stroke:none;fill:#aaaaaa;;filter:url(#filter);"/>
<rect x="40.900000" y="24.000000" width="38.700000" height="24.000000" rx="0" ry="0" style="stroke:none;fill:#003366;"/>
</a>
<a xlink:href="predelay-0x7f8f8fea8150.svg">
<text x="60.250000" y="38.000000" font-family="Arial" font-size="7" text-anchor="middle" fill="#FFFFFF">predelay</text>
</a>
<circle cx="42.900000" cy="26.000000" r="1"/>
<rect x="48.350000" y="57.000000" width="25.800000" height="24.000000" rx="0.1" ry="0.1" style="stroke:none;fill:#aaaaaa;;filter:url(#filter);"/>
<rect x="47.350000" y="56.000000" width="25.800000" height="24.000000" rx="0" ry="0" style="stroke:none;fill:#f44800;"/>
<text x="60.250000" y="70.000000" font-family="Arial" font-size="7" text-anchor="middle" fill="#FFFFFF">44.1</text>
<circle cx="49.350000" cy="58.000000" r="1"/>
<rect x="96.600000" y="41.000000" width="24.000000" height="24.000000" rx="0.1" ry="0.1" style="stroke:none;fill:#aaaaaa;;filter:url(#filter);"/>
<rect x="95.600000" y="40.000000" width="24.000000" height="24.000000" rx="0" ry="0" style="stroke:none;fill:#4B71A1;"/>
<text x="107.600000" y="54.000000" font-family="Arial" font-size="7" text-anchor="middle" fill="#FFFFFF">*</text>
<circle cx="97.600000" cy="42.000000" r="1"/>
<line x1="92.600000" y1="47.000000" x2="95.600000" y2="48.000000"  transform="rotate(0.000000,95.600000,48.000000)" style="stroke: black; stroke-width:0.25;"/>
<line x1="92.600000" y1="49.000000" x2="95.600000" y2="48.000000"  transform="rotate(0.000000,95.600000,48.000000)" style="stroke: black; stroke-width:0.25;"/>
<line x1="92.600000" y1="55.000000" x2="95.600000" y2="56.000000"  transform="rotate(0.000000,95.600000,56.000000)" style="stroke: black; stroke-width:0.25;"/>
<line x1="92.600000" y1="57.000000" x2="95.600000" y2="56.000000"  transform="rotate(0.000000,95.600000,56.000000)" style="stroke: black; stroke-width:0.25;"/>
<a xlink:href="predelay-0x7f8f8fea8150.svg">
<rect x="25.000000" y="89.000000" width="38.700000" height="24.000000" rx="0.1" ry="0.1" style="stroke:none;fill:#aaaaaa;;filter:url(#filter);"/>
<rect x="24.000000" y="88.000000" width="38.700000" height="24.000000" rx="0" ry="0" style="stroke:none;fill:#003366;"/>
</a>
<a xlink:href="predelay-0x7f8f8fea8150.svg">
<text x="43.350000" y="102.000000" font-family="Arial" font-size="7" text-anchor="middle" fill="#FFFFFF">predelay</text>
</a>
<circle cx="26.000000" cy="90.000000" r="1"/>
<rect x="31.450000" y="121.000000" width="25.800000" height="24.000000" rx="0.1" ry="0.1" style="stroke:none;fill:#aaaaaa;;filter:url(#filter);"/>
<rect x="30.450000" y="120.000000" width="25.800000" height="24.000000" rx="0" ry="0" style="stroke:none;fill:#f44800;"/>
<text x="43.350000" y="134.000000" font-family="Arial" font-size="7" text-anchor="middle" fill="#FFFFFF">44.1</text>
<circle cx="32.450000" cy="122.000000" r="1"/>
<rect x="79.700000" y="105.000000" width="24.000000" height="24.000000" rx="0.1" ry="0.1" style="stroke:none;fill:#aaaaaa;;filter:url(#filter);"/>
<rect x="78.700000" y="104.000000" width="24.000000" height="24.000000" rx="0" ry="0" style="stroke:none;fill:#4B71A1;"/>
<text x="90.700000" y="118.000000" font-family="Arial" font-size="7" text-anchor="middle" fill="#FFFFFF">*</text>
<circle cx="80.700000" cy="106.000000" r="1"/>
<line x1="75.700000" y1="111.000000" x2="78.700000" y2="112.000000"  transform="rotate(0.000000,78.700000,112.000000)" style="stroke: black; stroke-width:0.25;"/>
<line x1="75.700000" y1="113.000000" x2="78.700000" y2="112.000000"  transform="rotate(0.000000,78.700000,112.000000)" style="stroke: black; stroke-width:0.25;"/>
<line x1="75.700000" y1="119.000000" x2="78.700000" y2="120.000000"  transform="rotate(0.000000,78.700000,120.000000)" style="stroke: black; stroke-width:0.25;"/>
<line x1="75.700000" y1="121.000000" x2="78.700000" y2="120.000000"  transform="rotate(0.000000,78.700000,120.000000)" style="stroke: black; stroke-width:0.25;"/>
<rect x="111.700000" y="105.000000" width="25.800000" height="24.000000" rx="0.1" ry="0.1" style="stroke:none;fill:#aaaaaa;;filter:url(#filter);"/>
<rect x="110.700000" y="104.000000" width="25.800000" height="24.000000" rx="0" ry="0" style="stroke:none;fill:#4B71A1;"/>
<text x="123.600000" y="118.000000" font-family="Arial" font-size="7" text-anchor="middle" fill="#FFFFFF">floor</text>
<circle cx="112.700000" cy="106.000000" r="1"/>
<line x1="107.700000" y1="115.000000" x2="110.700000" y2="116.000000"  transform="rotate(0.000000,110.700000,116.000000)" style="stroke: black; stroke-width:0.25;"/>
<line x1="107.700000" y1="117.000000" x2="110.700000" y2="116.000000"  transform="rotate(0.000000,110.700000,116.000000)" style="stroke: black; stroke-width:0.25;"/>
<rect x="153.500000" y="73.000000" width="24.000000" height="24.000000" rx="0.1" ry="0.1" style="stroke:none;fill:#aaaaaa;;filter:url(#filter);"/>
<rect x="152.500000" y="72.000000" width="24.000000" height="24.000000" rx="0" ry="0" style="stroke:none;fill:#4B71A1;"/>
<text x="164.500000" y="86.000000" font-family="Arial" font-size="7" text-anchor="middle" fill="#FFFFFF">-</text>
<circle cx="154.500000" cy="74.000000" r="1"/>
<line x1="149.500000" y1="79.000000" x2="152.500000" y2="80.000000"  transform="rotate(0.000000,152.500000,80.000000)" style="stroke: black; stroke-width:0.25;"/>
<line x1="149.500000" y1="81.000000" x2="152.500000" y2="80.000000"  transform="rotate(0.000000,152.500000,80.000000)" style="stroke: black; stroke-width:0.25;"/>
<line x1="149.500000" y1="87.000000" x2="152.500000" y2="88.000000"  transform="rotate(0.000000,152.500000,88.000000)" style="stroke: black; stroke-width:0.25;"/>
<line x1="149.500000" y1="89.000000" x2="152.500000" y2="88.000000"  transform="rotate(0.000000,152.500000,88.000000)" style="stroke: black; stroke-width:0.25;"/>
<line x1="15.000000" y1="15.000000" x2="15.000000" y2="153.000000"  style="stroke: black; stroke-linecap:round; stroke-width:0.25; stroke-dasharray:3,3;"/>
<line x1="15.000000" y1="153.000000" x2="193.500000" y2="153.000000"  style="stroke: black; stroke-linecap:round; stroke-width:0.25; stroke-dasharray:3,3;"/>
<line x1="193.500000" y1="153.000000" x2="193.500000" y2="15.000000"  style="stroke: black; stroke-linecap:round; stroke-width:0.25; stroke-dasharray:3,3;"/>
<line x1="15.000000" y1="15.000000" x2="20.000000" y2="15.000000"  style="stroke: black; stroke-linecap:round; stroke-width:0.25; stroke-dasharray:3,3;"/>
<line x1="119.975000" y1="15.000000" x2="193.500000" y2="15.000000"  style="stroke: black; stroke-linecap:round; stroke-width:0.25; stroke-dasharray:3,3;"/>
<text x="20.000000" y="17.000000" font-family="Arial" font-size="7">decimal((hsli...0000001f : *)</text>
<line x1="195.500000" y1="83.000000" x2="198.500000" y2="84.000000"  transform="rotate(0.000000,198.500000,84.000000)" style="stroke: black; stroke-width:0.25;"/>
<line x1="195.500000" y1="85.000000" x2="198.500000" y2="84.000000"  transform="rotate(0.000000,198.500000,84.000000)" style="stroke: black; stroke-width:0.25;"/>
<line x1="56.250000" y1="132.000000" x2="60.250000" y2="132.000000"  style="stroke:black; stroke-linecap:round; stroke-width:0.25;"/>
<line x1="60.250000" y1="132.000000" x2="66.700000" y2="132.000000"  style="stroke:black; stroke-linecap:round; stroke-width:0.25;"/>
<line x1="62.700000" y1="100.000000" x2="66.700000" y2="100.000000"  style="stroke:black; stroke-linecap:round; stroke-width:0.25;"/>
<line x1="66.700000" y1="100.000000" x2="74.700000" y2="100.000000"  style="stroke:black; stroke-linecap:round; stroke-width:0.25;"/>
<line x1="66.700000" y1="120.000000" x2="74.700000" y2="120.000000"  style="stroke:black; stroke-linecap:round; stroke-width:0.25;"/>
<line x1="66.700000" y1="132.000000" x2="66.700000" y2="120.000000"  style="stroke:black; stroke-linecap:round; stroke-width:0.25;"/>
<line x1="66.700000" y1="132.000000" x2="66.700000" y2="132.000000"  style="stroke:black; stroke-linecap:round; stroke-width:0.25;"/>
<line x1="73.150000" y1="68.000000" x2="77.150000" y2="68.000000"  style="stroke:black; stroke-linecap:round; stroke-width:0.25;"/>
<line x1="74.700000" y1="100.000000" x2="74.700000" y2="112.000000"  style="stroke:black; stroke-linecap:round; stroke-width:0.25;"/>
<line x1="74.700000" y1="112.000000" x2="74.700000" y2="112.000000"  style="stroke:black; stroke-linecap:round; stroke-width:0.25;"/>
<line x1="74.700000" y1="112.000000" x2="78.700000" y2="112.000000"  style="stroke:black; stroke-linecap:round; stroke-width:0.25;"/>
<line x1="74.700000" y1="120.000000" x2="78.700000" y2="120.000000"  style="stroke:black; stroke-linecap:round; stroke-width:0.25;"/>
<line x1="77.150000" y1="68.000000" x2="83.600000" y2="68.000000"  style="stroke:black; stroke-linecap:round; stroke-width:0.25;"/>
<line x1="79.600000" y1="36.000000" x2="83.600000" y2="36.000000"  style="stroke:black; stroke-linecap:round; stroke-width:0.25;"/>
<line x1="83.600000" y1="36.000000" x2="91.600000" y2="36.000000"  style="stroke:black; stroke-linecap:round; stroke-width:0.25;"/>
<line x1="83.600000" y1="56.000000" x2="91.600000" y2="56.000000"  style="stroke:black; stroke-linecap:round; stroke-width:0.25;"/>
<line x1="83.600000" y1="68.000000" x2="83.600000" y2="56.000000"  style="stroke:black; stroke-linecap:round; stroke-width:0.25;"/>
<line x1="83.600000" y1="68.000000" x2="83.600000" y2="68.000000"  style="stroke:black; stroke-linecap:round; stroke-width:0.25;"/>
<line x1="91.600000" y1="36.000000" x2="91.600000" y2="48.000000"  style="stroke:black; stroke-linecap:round; stroke-width:0.25;"/>
<line x1="91.600000" y1="48.000000" x2="91.600000" y2="48.000000"  style="stroke:black; stroke-linecap:round; stroke-width:0.25;"/>
<line x1="91.600000" y1="48.000000" x2="95.600000" y2="48.000000"  style="stroke:black; stroke-linecap:round; stroke-width:0.25;"/>
<line x1="91.600000" y1="56.000000" x2="95.600000" y2="56.000000"  style="stroke:black; stroke-linecap:round; stroke-width:0.25;"/>
<line x1="102.700000" y1="116.000000" x2="106.700000" y2="116.000000"  style="stroke:black; stroke-linecap:round; stroke-width:0.25;"/>
<line x1="106.700000" y1="116.000000" x2="106.700000" y2="116.000000"  style="stroke:black; stroke-linecap:round; stroke-width:0.25;"/>
<line x1="106.700000" y1="116.000000" x2="110.700000" y2="116.000000"  style="stroke:black; stroke-linecap:round; stroke-width:0.25;"/>
<line x1="119.600000" y1="52.000000" x2="123.600000" y2="52.000000"  style="stroke:black; stroke-linecap:round; stroke-width:0.25;"/>
<line x1="123.600000" y1="52.000000" x2="140.500000" y2="52.000000"  style="stroke:black; stroke-linecap:round; stroke-width:0.25;"/>
<line x1="136.500000" y1="116.000000" x2="140.500000" y2="116.000000"  style="stroke:black; stroke-linecap:round; stroke-width:0.25;"/>
<line x1="140.500000" y1="52.000000" x2="148.500000" y2="52.000000"  style="stroke:black; stroke-linecap:round; stroke-width:0.25;"/>
<line x1="140.500000" y1="88.000000" x2="148.500000" y2="88.000000"  style="stroke:black; stroke-linecap:round; stroke-width:0.25;"/>
<line x1="140.500000" y1="116.000000" x2="140.500000" y2="88.000000"  style="stroke:black; stroke-linecap:round; stroke-width:0.25;"/>
<line x1="140.500000" y1="116.000000" x2="140.500000" y2="116.000000"  style="stroke:black; stroke-linecap:round; stroke-width:0.25;"/>
<line x1="148.500000" y1="52.000000" x2="148.500000" y2="80.000000"  style="stroke:black; stroke-linecap:round; stroke-width:0.25;"/>
<line x1="148.500000" y1="80.000000" x2="148.500000" y2="80.000000"  style="stroke:black; stroke-linecap:round; stroke-width:0.25;"/>
<line x1="148.500000" y1="80.000000" x2="152.500000" y2="80.000000"  style="stroke:black; stroke-linecap:round; stroke-width:0.25;"/>
<line x1="148.500000" y1="88.000000" x2="152.500000" y2="88.000000"  style="stroke:black; stroke-linecap:round; stroke-width:0.25;"/>
<line x1="176.500000" y1="84.000000" x2="180.500000" y2="84.000000"  style="stroke:black; stroke-linecap:round; stroke-width:0.25;"/>
<line x1="180.500000" y1="84.000000" x2="180.500000" y2="84.000000"  style="stroke:black; stroke-linecap:round; stroke-width:0.25;"/>
<line x1="180.500000" y1="84.000000" x2="184.500000" y2="84.000000"  style="stroke:black; stroke-linecap:round; stroke-width:0.25;"/>
<line x1="184.500000" y1="84.000000" x2="188.500000" y2="84.000000"  style="stroke:black; stroke-linecap:round; stroke-width:0.25;"/>
<line x1="188.500000" y1="84.000000" x2="198.500000" y2="84.000000"  style="stroke:black; stroke-linecap:round; stroke-width:0.25;"/>
</svg>
