<?xml version="1.0"?>
<svg xmlns="http://www.w3.org/2000/svg" xmlns:xlink="http://www.w3.org/1999/xlink" viewBox="0 0 412.000000 376.000000" width="206.000000mm" height="188.000000mm" version="1.1">
<defs>
   <filter id="filter" filterRes="18" x="0" y="0">
     <feGaussianBlur in="SourceGraphic" stdDeviation="1.55" result="blur"/>
     <feOffset in="blur" dx="3" dy="3"/>
   </filter>
</defs>
<a xlink:href="fdelay-0x7f8f91fae620.svg">
<rect x="1.000000" y="1.000000" width="411.000000" height="375.000000" rx="0.1" ry="0.1" style="stroke:none;fill:#aaaaaa;;filter:url(#filter);"/>
<rect x="0.000000" y="0.000000" width="411.000000" height="375.000000" rx="0" ry="0" style="stroke:none;fill:#ffffff;"/>
</a>
<text x="10.000000" y="7.000000" font-family="Arial" font-size="7"></text>
<rect x="171.000000" y="25.000000" width="24.000000" height="24.000000" rx="0.1" ry="0.1" style="stroke:none;fill:#aaaaaa;;filter:url(#filter);"/>
<rect x="170.000000" y="24.000000" width="24.000000" height="24.000000" rx="0" ry="0" style="stroke:none;fill:#47945E;"/>
<text x="182.000000" y="38.000000" font-family="Arial" font-size="7" text-anchor="middle" fill="#FFFFFF">x</text>
<circle cx="172.000000" cy="26.000000" r="1"/>
<rect x="150.100000" y="57.000000" width="25.800000" height="24.000000" rx="0.1" ry="0.1" style="stroke:none;fill:#aaaaaa;;filter:url(#filter);"/>
<rect x="149.100000" y="56.000000" width="25.800000" height="24.000000" rx="0" ry="0" style="stroke:none;fill:#f44800;"/>
<text x="162.000000" y="70.000000" font-family="Arial" font-size="7" text-anchor="middle" fill="#FFFFFF">9855</text>
<circle cx="151.100000" cy="58.000000" r="1"/>
<rect x="131.000000" y="99.000000" width="24.000000" height="24.000000" rx="0.1" ry="0.1" style="stroke:none;fill:#aaaaaa;;filter:url(#filter);"/>
<rect x="130.000000" y="98.000000" width="24.000000" height="24.000000" rx="0" ry="0" style="stroke:none;fill:#f44800;"/>
<text x="142.000000" y="112.000000" font-family="Arial" font-size="7" text-anchor="middle" fill="#FFFFFF">0</text>
<circle cx="132.000000" cy="100.000000" r="1"/>
<line x1="121.000000" y1="89.000000" x2="121.000000" y2="131.000000"  style="stroke: black; stroke-linecap:round; stroke-width:0.25; stroke-dasharray:3,3;"/>
<line x1="121.000000" y1="131.000000" x2="163.000000" y2="131.000000"  style="stroke: black; stroke-linecap:round; stroke-width:0.25; stroke-dasharray:3,3;"/>
<line x1="163.000000" y1="131.000000" x2="163.000000" y2="89.000000"  style="stroke: black; stroke-linecap:round; stroke-width:0.25; stroke-dasharray:3,3;"/>
<line x1="121.000000" y1="89.000000" x2="126.000000" y2="89.000000"  style="stroke: black; stroke-linecap:round; stroke-width:0.25; stroke-dasharray:3,3;"/>
<line x1="158.250000" y1="89.000000" x2="163.000000" y2="89.000000"  style="stroke: black; stroke-linecap:round; stroke-width:0.25; stroke-dasharray:3,3;"/>
<text x="126.000000" y="91.000000" font-family="Arial" font-size="7">clipCond</text>
<a xlink:href="diff-0x7f8f8fd79bf0.svg">
<rect x="27.650000" y="141.000000" width="38.700000" height="24.000000" rx="0.1" ry="0.1" style="stroke:none;fill:#aaaaaa;;filter:url(#filter);"/>
<rect x="26.650000" y="140.000000" width="38.700000" height="24.000000" rx="0" ry="0" style="stroke:none;fill:#003366;"/>
</a>
<a xlink:href="diff-0x7f8f8fd79bf0.svg">
<text x="46.000000" y="154.000000" font-family="Arial" font-size="7" text-anchor="middle" fill="#FFFFFF">diff_mult</text>
</a>
<circle cx="28.650000" cy="142.000000" r="1"/>
<rect x="35.000000" y="183.000000" width="24.000000" height="24.000000" rx="0.1" ry="0.1" style="stroke:none;fill:#aaaaaa;;filter:url(#filter);"/>
<rect x="34.000000" y="182.000000" width="24.000000" height="24.000000" rx="0" ry="0" style="stroke:none;fill:#f44800;"/>
<text x="46.000000" y="196.000000" font-family="Arial" font-size="7" text-anchor="middle" fill="#FFFFFF">379</text>
<circle cx="36.000000" cy="184.000000" r="1"/>
<line x1="25.000000" y1="173.000000" x2="25.000000" y2="215.000000"  style="stroke: black; stroke-linecap:round; stroke-width:0.25; stroke-dasharray:3,3;"/>
<line x1="25.000000" y1="215.000000" x2="67.000000" y2="215.000000"  style="stroke: black; stroke-linecap:round; stroke-width:0.25; stroke-dasharray:3,3;"/>
<line x1="67.000000" y1="215.000000" x2="67.000000" y2="173.000000"  style="stroke: black; stroke-linecap:round; stroke-width:0.25; stroke-dasharray:3,3;"/>
<line x1="25.000000" y1="173.000000" x2="30.000000" y2="173.000000"  style="stroke: black; stroke-linecap:round; stroke-width:0.25; stroke-dasharray:3,3;"/>
<line x1="62.250000" y1="173.000000" x2="67.000000" y2="173.000000"  style="stroke: black; stroke-linecap:round; stroke-width:0.25; stroke-dasharray:3,3;"/>
<text x="30.000000" y="175.000000" font-family="Arial" font-size="7">dt_idl_3</text>
<rect x="85.000000" y="167.000000" width="24.000000" height="24.000000" rx="0.1" ry="0.1" style="stroke:none;fill:#aaaaaa;;filter:url(#filter);"/>
<rect x="84.000000" y="166.000000" width="24.000000" height="24.000000" rx="0" ry="0" style="stroke:none;fill:#4B71A1;"/>
<text x="96.000000" y="180.000000" font-family="Arial" font-size="7" text-anchor="middle" fill="#FFFFFF">*</text>
<circle cx="86.000000" cy="168.000000" r="1"/>
<line x1="81.000000" y1="173.000000" x2="84.000000" y2="174.000000"  transform="rotate(0.000000,84.000000,174.000000)" style="stroke: black; stroke-width:0.25;"/>
<line x1="81.000000" y1="175.000000" x2="84.000000" y2="174.000000"  transform="rotate(0.000000,84.000000,174.000000)" style="stroke: black; stroke-width:0.25;"/>
<line x1="81.000000" y1="181.000000" x2="84.000000" y2="182.000000"  transform="rotate(0.000000,84.000000,182.000000)" style="stroke: black; stroke-width:0.25;"/>
<line x1="81.000000" y1="183.000000" x2="84.000000" y2="182.000000"  transform="rotate(0.000000,84.000000,182.000000)" style="stroke: black; stroke-width:0.25;"/>
<a xlink:href="mod-0x7f8f91f01530.svg">
<rect x="55.000000" y="225.000000" width="24.000000" height="24.000000" rx="0.1" ry="0.1" style="stroke:none;fill:#aaaaaa;;filter:url(#filter);"/>
<rect x="54.000000" y="224.000000" width="24.000000" height="24.000000" rx="0" ry="0" style="stroke:none;fill:#003366;"/>
</a>
<a xlink:href="mod-0x7f8f91f01530.svg">
<text x="66.000000" y="238.000000" font-family="Arial" font-size="7" text-anchor="middle" fill="#FFFFFF">mod</text>
</a>
<circle cx="56.000000" cy="226.000000" r="1"/>
<rect x="125.000000" y="183.000000" width="24.000000" height="24.000000" rx="0.1" ry="0.1" style="stroke:none;fill:#aaaaaa;;filter:url(#filter);"/>
<rect x="124.000000" y="182.000000" width="24.000000" height="24.000000" rx="0" ry="0" style="stroke:none;fill:#4B71A1;"/>
<text x="136.000000" y="196.000000" font-family="Arial" font-size="7" text-anchor="middle" fill="#FFFFFF">+</text>
<circle cx="126.000000" cy="184.000000" r="1"/>
<line x1="121.000000" y1="189.000000" x2="124.000000" y2="190.000000"  transform="rotate(0.000000,124.000000,190.000000)" style="stroke: black; stroke-width:0.25;"/>
<line x1="121.000000" y1="191.000000" x2="124.000000" y2="190.000000"  transform="rotate(0.000000,124.000000,190.000000)" style="stroke: black; stroke-width:0.25;"/>
<line x1="121.000000" y1="197.000000" x2="124.000000" y2="198.000000"  transform="rotate(0.000000,124.000000,198.000000)" style="stroke: black; stroke-width:0.25;"/>
<line x1="121.000000" y1="199.000000" x2="124.000000" y2="198.000000"  transform="rotate(0.000000,124.000000,198.000000)" style="stroke: black; stroke-width:0.25;"/>
<rect x="75.000000" y="267.000000" width="24.000000" height="24.000000" rx="0.1" ry="0.1" style="stroke:none;fill:#aaaaaa;;filter:url(#filter);"/>
<rect x="74.000000" y="266.000000" width="24.000000" height="24.000000" rx="0" ry="0" style="stroke:none;fill:#f44800;"/>
<text x="86.000000" y="280.000000" font-family="Arial" font-size="7" text-anchor="middle" fill="#FFFFFF">1</text>
<circle cx="76.000000" cy="268.000000" r="1"/>
<line x1="65.000000" y1="257.000000" x2="65.000000" y2="299.000000"  style="stroke: black; stroke-linecap:round; stroke-width:0.25; stroke-dasharray:3,3;"/>
<line x1="65.000000" y1="299.000000" x2="107.000000" y2="299.000000"  style="stroke: black; stroke-linecap:round; stroke-width:0.25; stroke-dasharray:3,3;"/>
<line x1="107.000000" y1="299.000000" x2="107.000000" y2="257.000000"  style="stroke: black; stroke-linecap:round; stroke-width:0.25; stroke-dasharray:3,3;"/>
<line x1="65.000000" y1="257.000000" x2="70.000000" y2="257.000000"  style="stroke: black; stroke-linecap:round; stroke-width:0.25; stroke-dasharray:3,3;"/>
<line x1="79.675000" y1="257.000000" x2="107.000000" y2="257.000000"  style="stroke: black; stroke-linecap:round; stroke-width:0.25; stroke-dasharray:3,3;"/>
<text x="70.000000" y="259.000000" font-family="Arial" font-size="7">S</text>
<rect x="165.000000" y="209.000000" width="24.000000" height="24.000000" rx="0.1" ry="0.1" style="stroke:none;fill:#aaaaaa;;filter:url(#filter);"/>
<rect x="164.000000" y="208.000000" width="24.000000" height="24.000000" rx="0" ry="0" style="stroke:none;fill:#4B71A1;"/>
<text x="176.000000" y="222.000000" font-family="Arial" font-size="7" text-anchor="middle" fill="#FFFFFF">-</text>
<circle cx="166.000000" cy="210.000000" r="1"/>
<line x1="161.000000" y1="215.000000" x2="164.000000" y2="216.000000"  transform="rotate(0.000000,164.000000,216.000000)" style="stroke: black; stroke-width:0.25;"/>
<line x1="161.000000" y1="217.000000" x2="164.000000" y2="216.000000"  transform="rotate(0.000000,164.000000,216.000000)" style="stroke: black; stroke-width:0.25;"/>
<line x1="161.000000" y1="223.000000" x2="164.000000" y2="224.000000"  transform="rotate(0.000000,164.000000,224.000000)" style="stroke: black; stroke-width:0.25;"/>
<line x1="161.000000" y1="225.000000" x2="164.000000" y2="224.000000"  transform="rotate(0.000000,164.000000,224.000000)" style="stroke: black; stroke-width:0.25;"/>
<rect x="197.000000" y="209.000000" width="24.000000" height="24.000000" rx="0.1" ry="0.1" style="stroke:none;fill:#aaaaaa;;filter:url(#filter);"/>
<rect x="196.000000" y="208.000000" width="24.000000" height="24.000000" rx="0" ry="0" style="stroke:none;fill:#4B71A1;"/>
<text x="208.000000" y="222.000000" font-family="Arial" font-size="7" text-anchor="middle" fill="#FFFFFF">int</text>
<circle cx="198.000000" cy="210.000000" r="1"/>
<line x1="193.000000" y1="219.000000" x2="196.000000" y2="220.000000"  transform="rotate(0.000000,196.000000,220.000000)" style="stroke: black; stroke-width:0.25;"/>
<line x1="193.000000" y1="221.000000" x2="196.000000" y2="220.000000"  transform="rotate(0.000000,196.000000,220.000000)" style="stroke: black; stroke-width:0.25;"/>
<rect x="111.000000" y="319.000000" width="24.000000" height="24.000000" rx="0.1" ry="0.1" style="stroke:none;fill:#aaaaaa;;filter:url(#filter);"/>
<rect x="110.000000" y="318.000000" width="24.000000" height="24.000000" rx="0" ry="0" style="stroke:none;fill:#f44800;"/>
<text x="122.000000" y="332.000000" font-family="Arial" font-size="7" text-anchor="middle" fill="#FFFFFF">1</text>
<circle cx="112.000000" cy="320.000000" r="1"/>
<line x1="101.000000" y1="309.000000" x2="101.000000" y2="351.000000"  style="stroke: black; stroke-linecap:round; stroke-width:0.25; stroke-dasharray:3,3;"/>
<line x1="101.000000" y1="351.000000" x2="143.000000" y2="351.000000"  style="stroke: black; stroke-linecap:round; stroke-width:0.25; stroke-dasharray:3,3;"/>
<line x1="143.000000" y1="351.000000" x2="143.000000" y2="309.000000"  style="stroke: black; stroke-linecap:round; stroke-width:0.25; stroke-dasharray:3,3;"/>
<line x1="101.000000" y1="309.000000" x2="106.000000" y2="309.000000"  style="stroke: black; stroke-linecap:round; stroke-width:0.25; stroke-dasharray:3,3;"/>
<line x1="115.675000" y1="309.000000" x2="143.000000" y2="309.000000"  style="stroke: black; stroke-linecap:round; stroke-width:0.25; stroke-dasharray:3,3;"/>
<text x="106.000000" y="311.000000" font-family="Arial" font-size="7">S</text>
<rect x="237.000000" y="235.000000" width="24.000000" height="24.000000" rx="0.1" ry="0.1" style="stroke:none;fill:#aaaaaa;;filter:url(#filter);"/>
<rect x="236.000000" y="234.000000" width="24.000000" height="24.000000" rx="0" ry="0" style="stroke:none;fill:#4B71A1;"/>
<text x="248.000000" y="248.000000" font-family="Arial" font-size="7" text-anchor="middle" fill="#FFFFFF">+</text>
<circle cx="238.000000" cy="236.000000" r="1"/>
<line x1="233.000000" y1="241.000000" x2="236.000000" y2="242.000000"  transform="rotate(0.000000,236.000000,242.000000)" style="stroke: black; stroke-width:0.25;"/>
<line x1="233.000000" y1="243.000000" x2="236.000000" y2="242.000000"  transform="rotate(0.000000,236.000000,242.000000)" style="stroke: black; stroke-width:0.25;"/>
<line x1="233.000000" y1="249.000000" x2="236.000000" y2="250.000000"  transform="rotate(0.000000,236.000000,250.000000)" style="stroke: black; stroke-width:0.25;"/>
<line x1="233.000000" y1="251.000000" x2="236.000000" y2="250.000000"  transform="rotate(0.000000,236.000000,250.000000)" style="stroke: black; stroke-width:0.25;"/>
<rect x="277.000000" y="209.000000" width="24.000000" height="24.000000" rx="0.1" ry="0.1" style="stroke:none;fill:#aaaaaa;;filter:url(#filter);"/>
<rect x="276.000000" y="208.000000" width="24.000000" height="24.000000" rx="0" ry="0" style="stroke:none;fill:#4B71A1;"/>
<text x="288.000000" y="222.000000" font-family="Arial" font-size="7" text-anchor="middle" fill="#FFFFFF">max</text>
<circle cx="278.000000" cy="210.000000" r="1"/>
<line x1="273.000000" y1="215.000000" x2="276.000000" y2="216.000000"  transform="rotate(0.000000,276.000000,216.000000)" style="stroke: black; stroke-width:0.25;"/>
<line x1="273.000000" y1="217.000000" x2="276.000000" y2="216.000000"  transform="rotate(0.000000,276.000000,216.000000)" style="stroke: black; stroke-width:0.25;"/>
<line x1="273.000000" y1="223.000000" x2="276.000000" y2="224.000000"  transform="rotate(0.000000,276.000000,224.000000)" style="stroke: black; stroke-width:0.25;"/>
<line x1="273.000000" y1="225.000000" x2="276.000000" y2="224.000000"  transform="rotate(0.000000,276.000000,224.000000)" style="stroke: black; stroke-width:0.25;"/>
<rect x="317.000000" y="193.000000" width="24.000000" height="24.000000" rx="0.1" ry="0.1" style="stroke:none;fill:#aaaaaa;;filter:url(#filter);"/>
<rect x="316.000000" y="192.000000" width="24.000000" height="24.000000" rx="0" ry="0" style="stroke:none;fill:#4B71A1;"/>
<text x="328.000000" y="206.000000" font-family="Arial" font-size="7" text-anchor="middle" fill="#FFFFFF">min</text>
<circle cx="318.000000" cy="194.000000" r="1"/>
<line x1="313.000000" y1="199.000000" x2="316.000000" y2="200.000000"  transform="rotate(0.000000,316.000000,200.000000)" style="stroke: black; stroke-width:0.25;"/>
<line x1="313.000000" y1="201.000000" x2="316.000000" y2="200.000000"  transform="rotate(0.000000,316.000000,200.000000)" style="stroke: black; stroke-width:0.25;"/>
<line x1="313.000000" y1="207.000000" x2="316.000000" y2="208.000000"  transform="rotate(0.000000,316.000000,208.000000)" style="stroke: black; stroke-width:0.25;"/>
<line x1="313.000000" y1="209.000000" x2="316.000000" y2="208.000000"  transform="rotate(0.000000,316.000000,208.000000)" style="stroke: black; stroke-width:0.25;"/>
<rect x="357.000000" y="177.000000" width="24.000000" height="24.000000" rx="0.1" ry="0.1" style="stroke:none;fill:#aaaaaa;;filter:url(#filter);"/>
<rect x="356.000000" y="176.000000" width="24.000000" height="24.000000" rx="0" ry="0" style="stroke:none;fill:#4B71A1;"/>
<text x="368.000000" y="190.000000" font-family="Arial" font-size="7" text-anchor="middle" fill="#FFFFFF">@</text>
<circle cx="358.000000" cy="178.000000" r="1"/>
<line x1="353.000000" y1="183.000000" x2="356.000000" y2="184.000000"  transform="rotate(0.000000,356.000000,184.000000)" style="stroke: black; stroke-width:0.25;"/>
<line x1="353.000000" y1="185.000000" x2="356.000000" y2="184.000000"  transform="rotate(0.000000,356.000000,184.000000)" style="stroke: black; stroke-width:0.25;"/>
<line x1="353.000000" y1="191.000000" x2="356.000000" y2="192.000000"  transform="rotate(0.000000,356.000000,192.000000)" style="stroke: black; stroke-width:0.25;"/>
<line x1="353.000000" y1="193.000000" x2="356.000000" y2="192.000000"  transform="rotate(0.000000,356.000000,192.000000)" style="stroke: black; stroke-width:0.25;"/>
<line x1="15.000000" y1="15.000000" x2="15.000000" y2="361.000000"  style="stroke: black; stroke-linecap:round; stroke-width:0.25; stroke-dasharray:3,3;"/>
<line x1="15.000000" y1="361.000000" x2="397.000000" y2="361.000000"  style="stroke: black; stroke-linecap:round; stroke-width:0.25; stroke-dasharray:3,3;"/>
<line x1="397.000000" y1="361.000000" x2="397.000000" y2="15.000000"  style="stroke: black; stroke-linecap:round; stroke-width:0.25; stroke-dasharray:3,3;"/>
<line x1="15.000000" y1="15.000000" x2="20.000000" y2="15.000000"  style="stroke: black; stroke-linecap:round; stroke-width:0.25; stroke-dasharray:3,3;"/>
<line x1="136.100000" y1="15.000000" x2="397.000000" y2="15.000000"  style="stroke: black; stroke-linecap:round; stroke-width:0.25; stroke-dasharray:3,3;"/>
<text x="20.000000" y="17.000000" font-family="Arial" font-size="7">delay(9855)((...: int),1 : +)(x61)</text>
<line x1="399.000000" y1="187.000000" x2="402.000000" y2="188.000000"  transform="rotate(0.000000,402.000000,188.000000)" style="stroke: black; stroke-width:0.25;"/>
<line x1="399.000000" y1="189.000000" x2="402.000000" y2="188.000000"  transform="rotate(0.000000,402.000000,188.000000)" style="stroke: black; stroke-width:0.25;"/>
<line x1="58.000000" y1="194.000000" x2="62.000000" y2="194.000000"  style="stroke:black; stroke-linecap:round; stroke-width:0.25;"/>
<line x1="62.000000" y1="194.000000" x2="72.000000" y2="194.000000"  style="stroke:black; stroke-linecap:round; stroke-width:0.25;"/>
<line x1="65.350000" y1="152.000000" x2="69.350000" y2="152.000000"  style="stroke:black; stroke-linecap:round; stroke-width:0.25;"/>
<line x1="69.350000" y1="152.000000" x2="72.000000" y2="152.000000"  style="stroke:black; stroke-linecap:round; stroke-width:0.25;"/>
<line x1="72.000000" y1="152.000000" x2="80.000000" y2="152.000000"  style="stroke:black; stroke-linecap:round; stroke-width:0.25;"/>
<line x1="72.000000" y1="182.000000" x2="80.000000" y2="182.000000"  style="stroke:black; stroke-linecap:round; stroke-width:0.25;"/>
<line x1="72.000000" y1="194.000000" x2="72.000000" y2="182.000000"  style="stroke:black; stroke-linecap:round; stroke-width:0.25;"/>
<line x1="72.000000" y1="194.000000" x2="72.000000" y2="194.000000"  style="stroke:black; stroke-linecap:round; stroke-width:0.25;"/>
<line x1="78.000000" y1="236.000000" x2="82.000000" y2="236.000000"  style="stroke:black; stroke-linecap:round; stroke-width:0.25;"/>
<line x1="80.000000" y1="152.000000" x2="80.000000" y2="174.000000"  style="stroke:black; stroke-linecap:round; stroke-width:0.25;"/>
<line x1="80.000000" y1="174.000000" x2="80.000000" y2="174.000000"  style="stroke:black; stroke-linecap:round; stroke-width:0.25;"/>
<line x1="80.000000" y1="174.000000" x2="84.000000" y2="174.000000"  style="stroke:black; stroke-linecap:round; stroke-width:0.25;"/>
<line x1="80.000000" y1="182.000000" x2="84.000000" y2="182.000000"  style="stroke:black; stroke-linecap:round; stroke-width:0.25;"/>
<line x1="82.000000" y1="236.000000" x2="112.000000" y2="236.000000"  style="stroke:black; stroke-linecap:round; stroke-width:0.25;"/>
<line x1="98.000000" y1="278.000000" x2="102.000000" y2="278.000000"  style="stroke:black; stroke-linecap:round; stroke-width:0.25;"/>
<line x1="102.000000" y1="278.000000" x2="112.000000" y2="278.000000"  style="stroke:black; stroke-linecap:round; stroke-width:0.25;"/>
<line x1="108.000000" y1="178.000000" x2="112.000000" y2="178.000000"  style="stroke:black; stroke-linecap:round; stroke-width:0.25;"/>
<line x1="112.000000" y1="178.000000" x2="120.000000" y2="178.000000"  style="stroke:black; stroke-linecap:round; stroke-width:0.25;"/>
<line x1="112.000000" y1="198.000000" x2="120.000000" y2="198.000000"  style="stroke:black; stroke-linecap:round; stroke-width:0.25;"/>
<line x1="112.000000" y1="236.000000" x2="112.000000" y2="198.000000"  style="stroke:black; stroke-linecap:round; stroke-width:0.25;"/>
<line x1="112.000000" y1="236.000000" x2="112.000000" y2="236.000000"  style="stroke:black; stroke-linecap:round; stroke-width:0.25;"/>
<line x1="112.000000" y1="278.000000" x2="152.000000" y2="278.000000"  style="stroke:black; stroke-linecap:round; stroke-width:0.25;"/>
<line x1="120.000000" y1="178.000000" x2="120.000000" y2="190.000000"  style="stroke:black; stroke-linecap:round; stroke-width:0.25;"/>
<line x1="120.000000" y1="190.000000" x2="120.000000" y2="190.000000"  style="stroke:black; stroke-linecap:round; stroke-width:0.25;"/>
<line x1="120.000000" y1="190.000000" x2="124.000000" y2="190.000000"  style="stroke:black; stroke-linecap:round; stroke-width:0.25;"/>
<line x1="120.000000" y1="198.000000" x2="124.000000" y2="198.000000"  style="stroke:black; stroke-linecap:round; stroke-width:0.25;"/>
<line x1="134.000000" y1="330.000000" x2="138.000000" y2="330.000000"  style="stroke:black; stroke-linecap:round; stroke-width:0.25;"/>
<line x1="138.000000" y1="330.000000" x2="148.000000" y2="330.000000"  style="stroke:black; stroke-linecap:round; stroke-width:0.25;"/>
<line x1="148.000000" y1="194.000000" x2="152.000000" y2="194.000000"  style="stroke:black; stroke-linecap:round; stroke-width:0.25;"/>
<line x1="148.000000" y1="330.000000" x2="224.000000" y2="330.000000"  style="stroke:black; stroke-linecap:round; stroke-width:0.25;"/>
<line x1="152.000000" y1="194.000000" x2="160.000000" y2="194.000000"  style="stroke:black; stroke-linecap:round; stroke-width:0.25;"/>
<line x1="152.000000" y1="224.000000" x2="160.000000" y2="224.000000"  style="stroke:black; stroke-linecap:round; stroke-width:0.25;"/>
<line x1="152.000000" y1="278.000000" x2="152.000000" y2="224.000000"  style="stroke:black; stroke-linecap:round; stroke-width:0.25;"/>
<line x1="152.000000" y1="278.000000" x2="152.000000" y2="278.000000"  style="stroke:black; stroke-linecap:round; stroke-width:0.25;"/>
<line x1="154.000000" y1="110.000000" x2="158.000000" y2="110.000000"  style="stroke:black; stroke-linecap:round; stroke-width:0.25;"/>
<line x1="158.000000" y1="110.000000" x2="168.000000" y2="110.000000"  style="stroke:black; stroke-linecap:round; stroke-width:0.25;"/>
<line x1="160.000000" y1="194.000000" x2="160.000000" y2="216.000000"  style="stroke:black; stroke-linecap:round; stroke-width:0.25;"/>
<line x1="160.000000" y1="216.000000" x2="160.000000" y2="216.000000"  style="stroke:black; stroke-linecap:round; stroke-width:0.25;"/>
<line x1="160.000000" y1="216.000000" x2="164.000000" y2="216.000000"  style="stroke:black; stroke-linecap:round; stroke-width:0.25;"/>
<line x1="160.000000" y1="224.000000" x2="164.000000" y2="224.000000"  style="stroke:black; stroke-linecap:round; stroke-width:0.25;"/>
<line x1="168.000000" y1="110.000000" x2="264.000000" y2="110.000000"  style="stroke:black; stroke-linecap:round; stroke-width:0.25;"/>
<line x1="174.900000" y1="68.000000" x2="178.900000" y2="68.000000"  style="stroke:black; stroke-linecap:round; stroke-width:0.25;"/>
<line x1="178.900000" y1="68.000000" x2="304.000000" y2="68.000000"  style="stroke:black; stroke-linecap:round; stroke-width:0.25;"/>
<line x1="188.000000" y1="220.000000" x2="192.000000" y2="220.000000"  style="stroke:black; stroke-linecap:round; stroke-width:0.25;"/>
<line x1="192.000000" y1="220.000000" x2="192.000000" y2="220.000000"  style="stroke:black; stroke-linecap:round; stroke-width:0.25;"/>
<line x1="192.000000" y1="220.000000" x2="196.000000" y2="220.000000"  style="stroke:black; stroke-linecap:round; stroke-width:0.25;"/>
<line x1="194.000000" y1="36.000000" x2="198.000000" y2="36.000000"  style="stroke:black; stroke-linecap:round; stroke-width:0.25;"/>
<line x1="198.000000" y1="36.000000" x2="344.000000" y2="36.000000"  style="stroke:black; stroke-linecap:round; stroke-width:0.25;"/>
<line x1="220.000000" y1="220.000000" x2="224.000000" y2="220.000000"  style="stroke:black; stroke-linecap:round; stroke-width:0.25;"/>
<line x1="224.000000" y1="220.000000" x2="232.000000" y2="220.000000"  style="stroke:black; stroke-linecap:round; stroke-width:0.25;"/>
<line x1="224.000000" y1="250.000000" x2="232.000000" y2="250.000000"  style="stroke:black; stroke-linecap:round; stroke-width:0.25;"/>
<line x1="224.000000" y1="330.000000" x2="224.000000" y2="250.000000"  style="stroke:black; stroke-linecap:round; stroke-width:0.25;"/>
<line x1="224.000000" y1="330.000000" x2="224.000000" y2="330.000000"  style="stroke:black; stroke-linecap:round; stroke-width:0.25;"/>
<line x1="232.000000" y1="220.000000" x2="232.000000" y2="242.000000"  style="stroke:black; stroke-linecap:round; stroke-width:0.25;"/>
<line x1="232.000000" y1="242.000000" x2="232.000000" y2="242.000000"  style="stroke:black; stroke-linecap:round; stroke-width:0.25;"/>
<line x1="232.000000" y1="242.000000" x2="236.000000" y2="242.000000"  style="stroke:black; stroke-linecap:round; stroke-width:0.25;"/>
<line x1="232.000000" y1="250.000000" x2="236.000000" y2="250.000000"  style="stroke:black; stroke-linecap:round; stroke-width:0.25;"/>
<line x1="260.000000" y1="246.000000" x2="264.000000" y2="246.000000"  style="stroke:black; stroke-linecap:round; stroke-width:0.25;"/>
<line x1="264.000000" y1="110.000000" x2="272.000000" y2="110.000000"  style="stroke:black; stroke-linecap:round; stroke-width:0.25;"/>
<line x1="264.000000" y1="224.000000" x2="272.000000" y2="224.000000"  style="stroke:black; stroke-linecap:round; stroke-width:0.25;"/>
<line x1="264.000000" y1="246.000000" x2="264.000000" y2="224.000000"  style="stroke:black; stroke-linecap:round; stroke-width:0.25;"/>
<line x1="264.000000" y1="246.000000" x2="264.000000" y2="246.000000"  style="stroke:black; stroke-linecap:round; stroke-width:0.25;"/>
<line x1="272.000000" y1="110.000000" x2="272.000000" y2="216.000000"  style="stroke:black; stroke-linecap:round; stroke-width:0.25;"/>
<line x1="272.000000" y1="216.000000" x2="272.000000" y2="216.000000"  style="stroke:black; stroke-linecap:round; stroke-width:0.25;"/>
<line x1="272.000000" y1="216.000000" x2="276.000000" y2="216.000000"  style="stroke:black; stroke-linecap:round; stroke-width:0.25;"/>
<line x1="272.000000" y1="224.000000" x2="276.000000" y2="224.000000"  style="stroke:black; stroke-linecap:round; stroke-width:0.25;"/>
<line x1="300.000000" y1="220.000000" x2="304.000000" y2="220.000000"  style="stroke:black; stroke-linecap:round; stroke-width:0.25;"/>
<line x1="304.000000" y1="68.000000" x2="312.000000" y2="68.000000"  style="stroke:black; stroke-linecap:round; stroke-width:0.25;"/>
<line x1="304.000000" y1="208.000000" x2="312.000000" y2="208.000000"  style="stroke:black; stroke-linecap:round; stroke-width:0.25;"/>
<line x1="304.000000" y1="220.000000" x2="304.000000" y2="208.000000"  style="stroke:black; stroke-linecap:round; stroke-width:0.25;"/>
<line x1="304.000000" y1="220.000000" x2="304.000000" y2="220.000000"  style="stroke:black; stroke-linecap:round; stroke-width:0.25;"/>
<line x1="312.000000" y1="68.000000" x2="312.000000" y2="200.000000"  style="stroke:black; stroke-linecap:round; stroke-width:0.25;"/>
<line x1="312.000000" y1="200.000000" x2="312.000000" y2="200.000000"  style="stroke:black; stroke-linecap:round; stroke-width:0.25;"/>
<line x1="312.000000" y1="200.000000" x2="316.000000" y2="200.000000"  style="stroke:black; stroke-linecap:round; stroke-width:0.25;"/>
<line x1="312.000000" y1="208.000000" x2="316.000000" y2="208.000000"  style="stroke:black; stroke-linecap:round; stroke-width:0.25;"/>
<line x1="340.000000" y1="204.000000" x2="344.000000" y2="204.000000"  style="stroke:black; stroke-linecap:round; stroke-width:0.25;"/>
<line x1="344.000000" y1="36.000000" x2="352.000000" y2="36.000000"  style="stroke:black; stroke-linecap:round; stroke-width:0.25;"/>
<line x1="344.000000" y1="192.000000" x2="352.000000" y2="192.000000"  style="stroke:black; stroke-linecap:round; stroke-width:0.25;"/>
<line x1="344.000000" y1="204.000000" x2="344.000000" y2="192.000000"  style="stroke:black; stroke-linecap:round; stroke-width:0.25;"/>
<line x1="344.000000" y1="204.000000" x2="344.000000" y2="204.000000"  style="stroke:black; stroke-linecap:round; stroke-width:0.25;"/>
<line x1="352.000000" y1="36.000000" x2="352.000000" y2="184.000000"  style="stroke:black; stroke-linecap:round; stroke-width:0.25;"/>
<line x1="352.000000" y1="184.000000" x2="352.000000" y2="184.000000"  style="stroke:black; stroke-linecap:round; stroke-width:0.25;"/>
<line x1="352.000000" y1="184.000000" x2="356.000000" y2="184.000000"  style="stroke:black; stroke-linecap:round; stroke-width:0.25;"/>
<line x1="352.000000" y1="192.000000" x2="356.000000" y2="192.000000"  style="stroke:black; stroke-linecap:round; stroke-width:0.25;"/>
<line x1="380.000000" y1="188.000000" x2="384.000000" y2="188.000000"  style="stroke:black; stroke-linecap:round; stroke-width:0.25;"/>
<line x1="384.000000" y1="188.000000" x2="384.000000" y2="188.000000"  style="stroke:black; stroke-linecap:round; stroke-width:0.25;"/>
<line x1="384.000000" y1="188.000000" x2="388.000000" y2="188.000000"  style="stroke:black; stroke-linecap:round; stroke-width:0.25;"/>
<line x1="388.000000" y1="188.000000" x2="392.000000" y2="188.000000"  style="stroke:black; stroke-linecap:round; stroke-width:0.25;"/>
<line x1="392.000000" y1="188.000000" x2="402.000000" y2="188.000000"  style="stroke:black; stroke-linecap:round; stroke-width:0.25;"/>
</svg>
