<?xml version="1.0"?>
<svg xmlns="http://www.w3.org/2000/svg" xmlns:xlink="http://www.w3.org/1999/xlink" viewBox="0 0 326.700000 272.000000" width="163.350000mm" height="136.000000mm" version="1.1">
<defs>
   <filter id="filter" filterRes="18" x="0" y="0">
     <feGaussianBlur in="SourceGraphic" stdDeviation="1.55" result="blur"/>
     <feOffset in="blur" dx="3" dy="3"/>
   </filter>
</defs>
<a xlink:href="fdelay-0x7f8f91a9e640.svg">
<rect x="1.000000" y="1.000000" width="325.700000" height="271.000000" rx="0.1" ry="0.1" style="stroke:none;fill:#aaaaaa;;filter:url(#filter);"/>
<rect x="0.000000" y="0.000000" width="325.700000" height="271.000000" rx="0" ry="0" style="stroke:none;fill:#ffffff;"/>
</a>
<text x="10.000000" y="7.000000" font-family="Arial" font-size="7"></text>
<rect x="128.350000" y="25.000000" width="24.000000" height="24.000000" rx="0.1" ry="0.1" style="stroke:none;fill:#aaaaaa;;filter:url(#filter);"/>
<rect x="127.350000" y="24.000000" width="24.000000" height="24.000000" rx="0" ry="0" style="stroke:none;fill:#47945E;"/>
<text x="139.350000" y="38.000000" font-family="Arial" font-size="7" text-anchor="middle" fill="#FFFFFF">x</text>
<circle cx="129.350000" cy="26.000000" r="1"/>
<rect x="107.450000" y="57.000000" width="25.800000" height="24.000000" rx="0.1" ry="0.1" style="stroke:none;fill:#aaaaaa;;filter:url(#filter);"/>
<rect x="106.450000" y="56.000000" width="25.800000" height="24.000000" rx="0" ry="0" style="stroke:none;fill:#f44800;"/>
<text x="119.350000" y="70.000000" font-family="Arial" font-size="7" text-anchor="middle" fill="#FFFFFF">11291</text>
<circle cx="108.450000" cy="58.000000" r="1"/>
<rect x="88.350000" y="99.000000" width="24.000000" height="24.000000" rx="0.1" ry="0.1" style="stroke:none;fill:#aaaaaa;;filter:url(#filter);"/>
<rect x="87.350000" y="98.000000" width="24.000000" height="24.000000" rx="0" ry="0" style="stroke:none;fill:#f44800;"/>
<text x="99.350000" y="112.000000" font-family="Arial" font-size="7" text-anchor="middle" fill="#FFFFFF">0</text>
<circle cx="89.350000" cy="100.000000" r="1"/>
<line x1="78.350000" y1="89.000000" x2="78.350000" y2="131.000000"  style="stroke: black; stroke-linecap:round; stroke-width:0.25; stroke-dasharray:3,3;"/>
<line x1="78.350000" y1="131.000000" x2="120.350000" y2="131.000000"  style="stroke: black; stroke-linecap:round; stroke-width:0.25; stroke-dasharray:3,3;"/>
<line x1="120.350000" y1="131.000000" x2="120.350000" y2="89.000000"  style="stroke: black; stroke-linecap:round; stroke-width:0.25; stroke-dasharray:3,3;"/>
<line x1="78.350000" y1="89.000000" x2="83.350000" y2="89.000000"  style="stroke: black; stroke-linecap:round; stroke-width:0.25; stroke-dasharray:3,3;"/>
<line x1="115.600000" y1="89.000000" x2="120.350000" y2="89.000000"  style="stroke: black; stroke-linecap:round; stroke-width:0.25; stroke-dasharray:3,3;"/>
<text x="83.350000" y="91.000000" font-family="Arial" font-size="7">clipCond</text>
<a xlink:href="predelay-0x7f8f8fea8150.svg">
<rect x="25.000000" y="141.000000" width="38.700000" height="24.000000" rx="0.1" ry="0.1" style="stroke:none;fill:#aaaaaa;;filter:url(#filter);"/>
<rect x="24.000000" y="140.000000" width="38.700000" height="24.000000" rx="0" ry="0" style="stroke:none;fill:#003366;"/>
</a>
<a xlink:href="predelay-0x7f8f8fea8150.svg">
<text x="43.350000" y="154.000000" font-family="Arial" font-size="7" text-anchor="middle" fill="#FFFFFF">predelay</text>
</a>
<circle cx="26.000000" cy="142.000000" r="1"/>
<rect x="31.450000" y="173.000000" width="25.800000" height="24.000000" rx="0.1" ry="0.1" style="stroke:none;fill:#aaaaaa;;filter:url(#filter);"/>
<rect x="30.450000" y="172.000000" width="25.800000" height="24.000000" rx="0" ry="0" style="stroke:none;fill:#f44800;"/>
<text x="43.350000" y="186.000000" font-family="Arial" font-size="7" text-anchor="middle" fill="#FFFFFF">44.1</text>
<circle cx="32.450000" cy="174.000000" r="1"/>
<rect x="79.700000" y="157.000000" width="24.000000" height="24.000000" rx="0.1" ry="0.1" style="stroke:none;fill:#aaaaaa;;filter:url(#filter);"/>
<rect x="78.700000" y="156.000000" width="24.000000" height="24.000000" rx="0" ry="0" style="stroke:none;fill:#4B71A1;"/>
<text x="90.700000" y="170.000000" font-family="Arial" font-size="7" text-anchor="middle" fill="#FFFFFF">*</text>
<circle cx="80.700000" cy="158.000000" r="1"/>
<line x1="75.700000" y1="163.000000" x2="78.700000" y2="164.000000"  transform="rotate(0.000000,78.700000,164.000000)" style="stroke: black; stroke-width:0.25;"/>
<line x1="75.700000" y1="165.000000" x2="78.700000" y2="164.000000"  transform="rotate(0.000000,78.700000,164.000000)" style="stroke: black; stroke-width:0.25;"/>
<line x1="75.700000" y1="171.000000" x2="78.700000" y2="172.000000"  transform="rotate(0.000000,78.700000,172.000000)" style="stroke: black; stroke-width:0.25;"/>
<line x1="75.700000" y1="173.000000" x2="78.700000" y2="172.000000"  transform="rotate(0.000000,78.700000,172.000000)" style="stroke: black; stroke-width:0.25;"/>
<rect x="111.700000" y="157.000000" width="24.000000" height="24.000000" rx="0.1" ry="0.1" style="stroke:none;fill:#aaaaaa;;filter:url(#filter);"/>
<rect x="110.700000" y="156.000000" width="24.000000" height="24.000000" rx="0" ry="0" style="stroke:none;fill:#4B71A1;"/>
<text x="122.700000" y="170.000000" font-family="Arial" font-size="7" text-anchor="middle" fill="#FFFFFF">int</text>
<circle cx="112.700000" cy="158.000000" r="1"/>
<line x1="107.700000" y1="167.000000" x2="110.700000" y2="168.000000"  transform="rotate(0.000000,110.700000,168.000000)" style="stroke: black; stroke-width:0.25;"/>
<line x1="107.700000" y1="169.000000" x2="110.700000" y2="168.000000"  transform="rotate(0.000000,110.700000,168.000000)" style="stroke: black; stroke-width:0.25;"/>
<rect x="68.350000" y="215.000000" width="24.000000" height="24.000000" rx="0.1" ry="0.1" style="stroke:none;fill:#aaaaaa;;filter:url(#filter);"/>
<rect x="67.350000" y="214.000000" width="24.000000" height="24.000000" rx="0" ry="0" style="stroke:none;fill:#f44800;"/>
<text x="79.350000" y="228.000000" font-family="Arial" font-size="7" text-anchor="middle" fill="#FFFFFF">1</text>
<circle cx="69.350000" cy="216.000000" r="1"/>
<line x1="58.350000" y1="205.000000" x2="58.350000" y2="247.000000"  style="stroke: black; stroke-linecap:round; stroke-width:0.25; stroke-dasharray:3,3;"/>
<line x1="58.350000" y1="247.000000" x2="100.350000" y2="247.000000"  style="stroke: black; stroke-linecap:round; stroke-width:0.25; stroke-dasharray:3,3;"/>
<line x1="100.350000" y1="247.000000" x2="100.350000" y2="205.000000"  style="stroke: black; stroke-linecap:round; stroke-width:0.25; stroke-dasharray:3,3;"/>
<line x1="58.350000" y1="205.000000" x2="63.350000" y2="205.000000"  style="stroke: black; stroke-linecap:round; stroke-width:0.25; stroke-dasharray:3,3;"/>
<line x1="73.025000" y1="205.000000" x2="100.350000" y2="205.000000"  style="stroke: black; stroke-linecap:round; stroke-width:0.25; stroke-dasharray:3,3;"/>
<text x="63.350000" y="207.000000" font-family="Arial" font-size="7">S</text>
<rect x="151.700000" y="183.000000" width="24.000000" height="24.000000" rx="0.1" ry="0.1" style="stroke:none;fill:#aaaaaa;;filter:url(#filter);"/>
<rect x="150.700000" y="182.000000" width="24.000000" height="24.000000" rx="0" ry="0" style="stroke:none;fill:#4B71A1;"/>
<text x="162.700000" y="196.000000" font-family="Arial" font-size="7" text-anchor="middle" fill="#FFFFFF">+</text>
<circle cx="152.700000" cy="184.000000" r="1"/>
<line x1="147.700000" y1="189.000000" x2="150.700000" y2="190.000000"  transform="rotate(0.000000,150.700000,190.000000)" style="stroke: black; stroke-width:0.25;"/>
<line x1="147.700000" y1="191.000000" x2="150.700000" y2="190.000000"  transform="rotate(0.000000,150.700000,190.000000)" style="stroke: black; stroke-width:0.25;"/>
<line x1="147.700000" y1="197.000000" x2="150.700000" y2="198.000000"  transform="rotate(0.000000,150.700000,198.000000)" style="stroke: black; stroke-width:0.25;"/>
<line x1="147.700000" y1="199.000000" x2="150.700000" y2="198.000000"  transform="rotate(0.000000,150.700000,198.000000)" style="stroke: black; stroke-width:0.25;"/>
<rect x="191.700000" y="157.000000" width="24.000000" height="24.000000" rx="0.1" ry="0.1" style="stroke:none;fill:#aaaaaa;;filter:url(#filter);"/>
<rect x="190.700000" y="156.000000" width="24.000000" height="24.000000" rx="0" ry="0" style="stroke:none;fill:#4B71A1;"/>
<text x="202.700000" y="170.000000" font-family="Arial" font-size="7" text-anchor="middle" fill="#FFFFFF">max</text>
<circle cx="192.700000" cy="158.000000" r="1"/>
<line x1="187.700000" y1="163.000000" x2="190.700000" y2="164.000000"  transform="rotate(0.000000,190.700000,164.000000)" style="stroke: black; stroke-width:0.25;"/>
<line x1="187.700000" y1="165.000000" x2="190.700000" y2="164.000000"  transform="rotate(0.000000,190.700000,164.000000)" style="stroke: black; stroke-width:0.25;"/>
<line x1="187.700000" y1="171.000000" x2="190.700000" y2="172.000000"  transform="rotate(0.000000,190.700000,172.000000)" style="stroke: black; stroke-width:0.25;"/>
<line x1="187.700000" y1="173.000000" x2="190.700000" y2="172.000000"  transform="rotate(0.000000,190.700000,172.000000)" style="stroke: black; stroke-width:0.25;"/>
<rect x="231.700000" y="141.000000" width="24.000000" height="24.000000" rx="0.1" ry="0.1" style="stroke:none;fill:#aaaaaa;;filter:url(#filter);"/>
<rect x="230.700000" y="140.000000" width="24.000000" height="24.000000" rx="0" ry="0" style="stroke:none;fill:#4B71A1;"/>
<text x="242.700000" y="154.000000" font-family="Arial" font-size="7" text-anchor="middle" fill="#FFFFFF">min</text>
<circle cx="232.700000" cy="142.000000" r="1"/>
<line x1="227.700000" y1="147.000000" x2="230.700000" y2="148.000000"  transform="rotate(0.000000,230.700000,148.000000)" style="stroke: black; stroke-width:0.25;"/>
<line x1="227.700000" y1="149.000000" x2="230.700000" y2="148.000000"  transform="rotate(0.000000,230.700000,148.000000)" style="stroke: black; stroke-width:0.25;"/>
<line x1="227.700000" y1="155.000000" x2="230.700000" y2="156.000000"  transform="rotate(0.000000,230.700000,156.000000)" style="stroke: black; stroke-width:0.25;"/>
<line x1="227.700000" y1="157.000000" x2="230.700000" y2="156.000000"  transform="rotate(0.000000,230.700000,156.000000)" style="stroke: black; stroke-width:0.25;"/>
<rect x="271.700000" y="125.000000" width="24.000000" height="24.000000" rx="0.1" ry="0.1" style="stroke:none;fill:#aaaaaa;;filter:url(#filter);"/>
<rect x="270.700000" y="124.000000" width="24.000000" height="24.000000" rx="0" ry="0" style="stroke:none;fill:#4B71A1;"/>
<text x="282.700000" y="138.000000" font-family="Arial" font-size="7" text-anchor="middle" fill="#FFFFFF">@</text>
<circle cx="272.700000" cy="126.000000" r="1"/>
<line x1="267.700000" y1="131.000000" x2="270.700000" y2="132.000000"  transform="rotate(0.000000,270.700000,132.000000)" style="stroke: black; stroke-width:0.25;"/>
<line x1="267.700000" y1="133.000000" x2="270.700000" y2="132.000000"  transform="rotate(0.000000,270.700000,132.000000)" style="stroke: black; stroke-width:0.25;"/>
<line x1="267.700000" y1="139.000000" x2="270.700000" y2="140.000000"  transform="rotate(0.000000,270.700000,140.000000)" style="stroke: black; stroke-width:0.25;"/>
<line x1="267.700000" y1="141.000000" x2="270.700000" y2="140.000000"  transform="rotate(0.000000,270.700000,140.000000)" style="stroke: black; stroke-width:0.25;"/>
<line x1="15.000000" y1="15.000000" x2="15.000000" y2="257.000000"  style="stroke: black; stroke-linecap:round; stroke-width:0.25; stroke-dasharray:3,3;"/>
<line x1="15.000000" y1="257.000000" x2="311.700000" y2="257.000000"  style="stroke: black; stroke-linecap:round; stroke-width:0.25; stroke-dasharray:3,3;"/>
<line x1="311.700000" y1="257.000000" x2="311.700000" y2="15.000000"  style="stroke: black; stroke-linecap:round; stroke-width:0.25; stroke-dasharray:3,3;"/>
<line x1="15.000000" y1="15.000000" x2="20.000000" y2="15.000000"  style="stroke: black; stroke-linecap:round; stroke-width:0.25; stroke-dasharray:3,3;"/>
<line x1="136.100000" y1="15.000000" x2="311.700000" y2="15.000000"  style="stroke: black; stroke-linecap:round; stroke-width:0.25; stroke-dasharray:3,3;"/>
<text x="20.000000" y="17.000000" font-family="Arial" font-size="7">delay(11291)(...: int),1 : +)(x33)</text>
<line x1="313.700000" y1="135.000000" x2="316.700000" y2="136.000000"  transform="rotate(0.000000,316.700000,136.000000)" style="stroke: black; stroke-width:0.25;"/>
<line x1="313.700000" y1="137.000000" x2="316.700000" y2="136.000000"  transform="rotate(0.000000,316.700000,136.000000)" style="stroke: black; stroke-width:0.25;"/>
<line x1="56.250000" y1="184.000000" x2="60.250000" y2="184.000000"  style="stroke:black; stroke-linecap:round; stroke-width:0.25;"/>
<line x1="60.250000" y1="184.000000" x2="66.700000" y2="184.000000"  style="stroke:black; stroke-linecap:round; stroke-width:0.25;"/>
<line x1="62.700000" y1="152.000000" x2="66.700000" y2="152.000000"  style="stroke:black; stroke-linecap:round; stroke-width:0.25;"/>
<line x1="66.700000" y1="152.000000" x2="74.700000" y2="152.000000"  style="stroke:black; stroke-linecap:round; stroke-width:0.25;"/>
<line x1="66.700000" y1="172.000000" x2="74.700000" y2="172.000000"  style="stroke:black; stroke-linecap:round; stroke-width:0.25;"/>
<line x1="66.700000" y1="184.000000" x2="66.700000" y2="172.000000"  style="stroke:black; stroke-linecap:round; stroke-width:0.25;"/>
<line x1="66.700000" y1="184.000000" x2="66.700000" y2="184.000000"  style="stroke:black; stroke-linecap:round; stroke-width:0.25;"/>
<line x1="74.700000" y1="152.000000" x2="74.700000" y2="164.000000"  style="stroke:black; stroke-linecap:round; stroke-width:0.25;"/>
<line x1="74.700000" y1="164.000000" x2="74.700000" y2="164.000000"  style="stroke:black; stroke-linecap:round; stroke-width:0.25;"/>
<line x1="74.700000" y1="164.000000" x2="78.700000" y2="164.000000"  style="stroke:black; stroke-linecap:round; stroke-width:0.25;"/>
<line x1="74.700000" y1="172.000000" x2="78.700000" y2="172.000000"  style="stroke:black; stroke-linecap:round; stroke-width:0.25;"/>
<line x1="91.350000" y1="226.000000" x2="95.350000" y2="226.000000"  style="stroke:black; stroke-linecap:round; stroke-width:0.25;"/>
<line x1="95.350000" y1="226.000000" x2="105.350000" y2="226.000000"  style="stroke:black; stroke-linecap:round; stroke-width:0.25;"/>
<line x1="102.700000" y1="168.000000" x2="106.700000" y2="168.000000"  style="stroke:black; stroke-linecap:round; stroke-width:0.25;"/>
<line x1="105.350000" y1="226.000000" x2="138.700000" y2="226.000000"  style="stroke:black; stroke-linecap:round; stroke-width:0.25;"/>
<line x1="106.700000" y1="168.000000" x2="106.700000" y2="168.000000"  style="stroke:black; stroke-linecap:round; stroke-width:0.25;"/>
<line x1="106.700000" y1="168.000000" x2="110.700000" y2="168.000000"  style="stroke:black; stroke-linecap:round; stroke-width:0.25;"/>
<line x1="111.350000" y1="110.000000" x2="115.350000" y2="110.000000"  style="stroke:black; stroke-linecap:round; stroke-width:0.25;"/>
<line x1="115.350000" y1="110.000000" x2="125.350000" y2="110.000000"  style="stroke:black; stroke-linecap:round; stroke-width:0.25;"/>
<line x1="125.350000" y1="110.000000" x2="178.700000" y2="110.000000"  style="stroke:black; stroke-linecap:round; stroke-width:0.25;"/>
<line x1="132.250000" y1="68.000000" x2="136.250000" y2="68.000000"  style="stroke:black; stroke-linecap:round; stroke-width:0.25;"/>
<line x1="134.700000" y1="168.000000" x2="138.700000" y2="168.000000"  style="stroke:black; stroke-linecap:round; stroke-width:0.25;"/>
<line x1="136.250000" y1="68.000000" x2="218.700000" y2="68.000000"  style="stroke:black; stroke-linecap:round; stroke-width:0.25;"/>
<line x1="138.700000" y1="168.000000" x2="146.700000" y2="168.000000"  style="stroke:black; stroke-linecap:round; stroke-width:0.25;"/>
<line x1="138.700000" y1="198.000000" x2="146.700000" y2="198.000000"  style="stroke:black; stroke-linecap:round; stroke-width:0.25;"/>
<line x1="138.700000" y1="226.000000" x2="138.700000" y2="198.000000"  style="stroke:black; stroke-linecap:round; stroke-width:0.25;"/>
<line x1="138.700000" y1="226.000000" x2="138.700000" y2="226.000000"  style="stroke:black; stroke-linecap:round; stroke-width:0.25;"/>
<line x1="146.700000" y1="168.000000" x2="146.700000" y2="190.000000"  style="stroke:black; stroke-linecap:round; stroke-width:0.25;"/>
<line x1="146.700000" y1="190.000000" x2="146.700000" y2="190.000000"  style="stroke:black; stroke-linecap:round; stroke-width:0.25;"/>
<line x1="146.700000" y1="190.000000" x2="150.700000" y2="190.000000"  style="stroke:black; stroke-linecap:round; stroke-width:0.25;"/>
<line x1="146.700000" y1="198.000000" x2="150.700000" y2="198.000000"  style="stroke:black; stroke-linecap:round; stroke-width:0.25;"/>
<line x1="151.350000" y1="36.000000" x2="155.350000" y2="36.000000"  style="stroke:black; stroke-linecap:round; stroke-width:0.25;"/>
<line x1="155.350000" y1="36.000000" x2="258.700000" y2="36.000000"  style="stroke:black; stroke-linecap:round; stroke-width:0.25;"/>
<line x1="174.700000" y1="194.000000" x2="178.700000" y2="194.000000"  style="stroke:black; stroke-linecap:round; stroke-width:0.25;"/>
<line x1="178.700000" y1="110.000000" x2="186.700000" y2="110.000000"  style="stroke:black; stroke-linecap:round; stroke-width:0.25;"/>
<line x1="178.700000" y1="172.000000" x2="186.700000" y2="172.000000"  style="stroke:black; stroke-linecap:round; stroke-width:0.25;"/>
<line x1="178.700000" y1="194.000000" x2="178.700000" y2="172.000000"  style="stroke:black; stroke-linecap:round; stroke-width:0.25;"/>
<line x1="178.700000" y1="194.000000" x2="178.700000" y2="194.000000"  style="stroke:black; stroke-linecap:round; stroke-width:0.25;"/>
<line x1="186.700000" y1="110.000000" x2="186.700000" y2="164.000000"  style="stroke:black; stroke-linecap:round; stroke-width:0.25;"/>
<line x1="186.700000" y1="164.000000" x2="186.700000" y2="164.000000"  style="stroke:black; stroke-linecap:round; stroke-width:0.25;"/>
<line x1="186.700000" y1="164.000000" x2="190.700000" y2="164.000000"  style="stroke:black; stroke-linecap:round; stroke-width:0.25;"/>
<line x1="186.700000" y1="172.000000" x2="190.700000" y2="172.000000"  style="stroke:black; stroke-linecap:round; stroke-width:0.25;"/>
<line x1="214.700000" y1="168.000000" x2="218.700000" y2="168.000000"  style="stroke:black; stroke-linecap:round; stroke-width:0.25;"/>
<line x1="218.700000" y1="68.000000" x2="226.700000" y2="68.000000"  style="stroke:black; stroke-linecap:round; stroke-width:0.25;"/>
<line x1="218.700000" y1="156.000000" x2="226.700000" y2="156.000000"  style="stroke:black; stroke-linecap:round; stroke-width:0.25;"/>
<line x1="218.700000" y1="168.000000" x2="218.700000" y2="156.000000"  style="stroke:black; stroke-linecap:round; stroke-width:0.25;"/>
<line x1="218.700000" y1="168.000000" x2="218.700000" y2="168.000000"  style="stroke:black; stroke-linecap:round; stroke-width:0.25;"/>
<line x1="226.700000" y1="68.000000" x2="226.700000" y2="148.000000"  style="stroke:black; stroke-linecap:round; stroke-width:0.25;"/>
<line x1="226.700000" y1="148.000000" x2="226.700000" y2="148.000000"  style="stroke:black; stroke-linecap:round; stroke-width:0.25;"/>
<line x1="226.700000" y1="148.000000" x2="230.700000" y2="148.000000"  style="stroke:black; stroke-linecap:round; stroke-width:0.25;"/>
<line x1="226.700000" y1="156.000000" x2="230.700000" y2="156.000000"  style="stroke:black; stroke-linecap:round; stroke-width:0.25;"/>
<line x1="254.700000" y1="152.000000" x2="258.700000" y2="152.000000"  style="stroke:black; stroke-linecap:round; stroke-width:0.25;"/>
<line x1="258.700000" y1="36.000000" x2="266.700000" y2="36.000000"  style="stroke:black; stroke-linecap:round; stroke-width:0.25;"/>
<line x1="258.700000" y1="140.000000" x2="266.700000" y2="140.000000"  style="stroke:black; stroke-linecap:round; stroke-width:0.25;"/>
<line x1="258.700000" y1="152.000000" x2="258.700000" y2="140.000000"  style="stroke:black; stroke-linecap:round; stroke-width:0.25;"/>
<line x1="258.700000" y1="152.000000" x2="258.700000" y2="152.000000"  style="stroke:black; stroke-linecap:round; stroke-width:0.25;"/>
<line x1="266.700000" y1="36.000000" x2="266.700000" y2="132.000000"  style="stroke:black; stroke-linecap:round; stroke-width:0.25;"/>
<line x1="266.700000" y1="132.000000" x2="266.700000" y2="132.000000"  style="stroke:black; stroke-linecap:round; stroke-width:0.25;"/>
<line x1="266.700000" y1="132.000000" x2="270.700000" y2="132.000000"  style="stroke:black; stroke-linecap:round; stroke-width:0.25;"/>
<line x1="266.700000" y1="140.000000" x2="270.700000" y2="140.000000"  style="stroke:black; stroke-linecap:round; stroke-width:0.25;"/>
<line x1="294.700000" y1="136.000000" x2="298.700000" y2="136.000000"  style="stroke:black; stroke-linecap:round; stroke-width:0.25;"/>
<line x1="298.700000" y1="136.000000" x2="298.700000" y2="136.000000"  style="stroke:black; stroke-linecap:round; stroke-width:0.25;"/>
<line x1="298.700000" y1="136.000000" x2="302.700000" y2="136.000000"  style="stroke:black; stroke-linecap:round; stroke-width:0.25;"/>
<line x1="302.700000" y1="136.000000" x2="306.700000" y2="136.000000"  style="stroke:black; stroke-linecap:round; stroke-width:0.25;"/>
<line x1="306.700000" y1="136.000000" x2="316.700000" y2="136.000000"  style="stroke:black; stroke-linecap:round; stroke-width:0.25;"/>
</svg>
