<?xml version="1.0"?>
<svg xmlns="http://www.w3.org/2000/svg" xmlns:xlink="http://www.w3.org/1999/xlink" viewBox="0 0 322.000000 72.000000" width="161.000000mm" height="36.000000mm" version="1.1">
<defs>
   <filter id="filter" filterRes="18" x="0" y="0">
     <feGaussianBlur in="SourceGraphic" stdDeviation="1.55" result="blur"/>
     <feOffset in="blur" dx="3" dy="3"/>
   </filter>
</defs>
<a xlink:href="dmo-0x7f8f948cb2b0.svg">
<rect x="1.000000" y="1.000000" width="321.000000" height="71.000000" rx="0.1" ry="0.1" style="stroke:none;fill:#aaaaaa;;filter:url(#filter);"/>
<rect x="0.000000" y="0.000000" width="321.000000" height="71.000000" rx="0" ry="0" style="stroke:none;fill:#ffffff;"/>
</a>
<text x="10.000000" y="7.000000" font-family="Arial" font-size="7"></text>
<rect x="25.000000" y="25.000000" width="193.500000" height="24.000000" rx="0.1" ry="0.1" style="stroke:none;fill:#aaaaaa;;filter:url(#filter);"/>
<rect x="24.000000" y="24.000000" width="193.500000" height="24.000000" rx="0" ry="0" style="stroke:none;fill:#477881;"/>
<text x="120.750000" y="38.000000" font-family="Arial" font-size="7" text-anchor="middle" fill="#FFFFFF">hslider(smear, 1.0f, 0.001f, 25.0f, 0.001f)</text>
<circle cx="26.000000" cy="26.000000" r="1"/>
<a xlink:href="smooth-0x7f8f8fe59950.svg">
<rect x="226.500000" y="25.000000" width="64.500000" height="24.000000" rx="0.1" ry="0.1" style="stroke:none;fill:#aaaaaa;;filter:url(#filter);"/>
<rect x="225.500000" y="24.000000" width="64.500000" height="24.000000" rx="0" ry="0" style="stroke:none;fill:#003366;"/>
</a>
<a xlink:href="smooth-0x7f8f8fe59950.svg">
<text x="257.750000" y="38.000000" font-family="Arial" font-size="7" text-anchor="middle" fill="#FFFFFF">smooth(0.999f)</text>
</a>
<circle cx="227.500000" cy="26.000000" r="1"/>
<line x1="222.500000" y1="35.000000" x2="225.500000" y2="36.000000"  transform="rotate(0.000000,225.500000,36.000000)" style="stroke: black; stroke-width:0.25;"/>
<line x1="222.500000" y1="37.000000" x2="225.500000" y2="36.000000"  transform="rotate(0.000000,225.500000,36.000000)" style="stroke: black; stroke-width:0.25;"/>
<line x1="15.000000" y1="15.000000" x2="15.000000" y2="57.000000"  style="stroke: black; stroke-linecap:round; stroke-width:0.25; stroke-dasharray:3,3;"/>
<line x1="15.000000" y1="57.000000" x2="307.000000" y2="57.000000"  style="stroke: black; stroke-linecap:round; stroke-width:0.25; stroke-dasharray:3,3;"/>
<line x1="307.000000" y1="57.000000" x2="307.000000" y2="15.000000"  style="stroke: black; stroke-linecap:round; stroke-width:0.25; stroke-dasharray:3,3;"/>
<line x1="15.000000" y1="15.000000" x2="20.000000" y2="15.000000"  style="stroke: black; stroke-linecap:round; stroke-width:0.25; stroke-dasharray:3,3;"/>
<line x1="55.475000" y1="15.000000" x2="307.000000" y2="15.000000"  style="stroke: black; stroke-linecap:round; stroke-width:0.25; stroke-dasharray:3,3;"/>
<text x="20.000000" y="17.000000" font-family="Arial" font-size="7">diff_mult</text>
<line x1="309.000000" y1="35.000000" x2="312.000000" y2="36.000000"  transform="rotate(0.000000,312.000000,36.000000)" style="stroke: black; stroke-width:0.25;"/>
<line x1="309.000000" y1="37.000000" x2="312.000000" y2="36.000000"  transform="rotate(0.000000,312.000000,36.000000)" style="stroke: black; stroke-width:0.25;"/>
<line x1="217.500000" y1="36.000000" x2="221.500000" y2="36.000000"  style="stroke:black; stroke-linecap:round; stroke-width:0.25;"/>
<line x1="221.500000" y1="36.000000" x2="221.500000" y2="36.000000"  style="stroke:black; stroke-linecap:round; stroke-width:0.25;"/>
<line x1="221.500000" y1="36.000000" x2="225.500000" y2="36.000000"  style="stroke:black; stroke-linecap:round; stroke-width:0.25;"/>
<line x1="290.000000" y1="36.000000" x2="294.000000" y2="36.000000"  style="stroke:black; stroke-linecap:round; stroke-width:0.25;"/>
<line x1="294.000000" y1="36.000000" x2="294.000000" y2="36.000000"  style="stroke:black; stroke-linecap:round; stroke-width:0.25;"/>
<line x1="294.000000" y1="36.000000" x2="298.000000" y2="36.000000"  style="stroke:black; stroke-linecap:round; stroke-width:0.25;"/>
<line x1="298.000000" y1="36.000000" x2="302.000000" y2="36.000000"  style="stroke:black; stroke-linecap:round; stroke-width:0.25;"/>
<line x1="302.000000" y1="36.000000" x2="312.000000" y2="36.000000"  style="stroke:black; stroke-linecap:round; stroke-width:0.25;"/>
</svg>
