<?xml version="1.0"?>
<svg xmlns="http://www.w3.org/2000/svg" xmlns:xlink="http://www.w3.org/1999/xlink" viewBox="0 0 296.200000 72.000000" width="148.100000mm" height="36.000000mm" version="1.1">
<defs>
   <filter id="filter" filterRes="18" x="0" y="0">
     <feGaussianBlur in="SourceGraphic" stdDeviation="1.55" result="blur"/>
     <feOffset in="blur" dx="3" dy="3"/>
   </filter>
</defs>
<a xlink:href="pregain-0x7f8f8fe61850.svg">
<rect x="1.000000" y="1.000000" width="295.200000" height="71.000000" rx="0.1" ry="0.1" style="stroke:none;fill:#aaaaaa;;filter:url(#filter);"/>
<rect x="0.000000" y="0.000000" width="295.200000" height="71.000000" rx="0" ry="0" style="stroke:none;fill:#ffffff;"/>
</a>
<text x="10.000000" y="7.000000" font-family="Arial" font-size="7"></text>
<rect x="25.000000" y="25.000000" width="167.700000" height="24.000000" rx="0.1" ry="0.1" style="stroke:none;fill:#aaaaaa;;filter:url(#filter);"/>
<rect x="24.000000" y="24.000000" width="167.700000" height="24.000000" rx="0" ry="0" style="stroke:none;fill:#477881;"/>
<text x="107.850000" y="38.000000" font-family="Arial" font-size="7" text-anchor="middle" fill="#FFFFFF">hslider(push, 0.0f, 0.0f, 1.0f, 0.01f)</text>
<circle cx="26.000000" cy="26.000000" r="1"/>
<a xlink:href="smooth-0x7f8f8fe59950.svg">
<rect x="200.700000" y="25.000000" width="64.500000" height="24.000000" rx="0.1" ry="0.1" style="stroke:none;fill:#aaaaaa;;filter:url(#filter);"/>
<rect x="199.700000" y="24.000000" width="64.500000" height="24.000000" rx="0" ry="0" style="stroke:none;fill:#003366;"/>
</a>
<a xlink:href="smooth-0x7f8f8fe59950.svg">
<text x="231.950000" y="38.000000" font-family="Arial" font-size="7" text-anchor="middle" fill="#FFFFFF">smooth(0.999f)</text>
</a>
<circle cx="201.700000" cy="26.000000" r="1"/>
<line x1="196.700000" y1="35.000000" x2="199.700000" y2="36.000000"  transform="rotate(0.000000,199.700000,36.000000)" style="stroke: black; stroke-width:0.25;"/>
<line x1="196.700000" y1="37.000000" x2="199.700000" y2="36.000000"  transform="rotate(0.000000,199.700000,36.000000)" style="stroke: black; stroke-width:0.25;"/>
<line x1="15.000000" y1="15.000000" x2="15.000000" y2="57.000000"  style="stroke: black; stroke-linecap:round; stroke-width:0.25; stroke-dasharray:3,3;"/>
<line x1="15.000000" y1="57.000000" x2="281.200000" y2="57.000000"  style="stroke: black; stroke-linecap:round; stroke-width:0.25; stroke-dasharray:3,3;"/>
<line x1="281.200000" y1="57.000000" x2="281.200000" y2="15.000000"  style="stroke: black; stroke-linecap:round; stroke-width:0.25; stroke-dasharray:3,3;"/>
<line x1="15.000000" y1="15.000000" x2="20.000000" y2="15.000000"  style="stroke: black; stroke-linecap:round; stroke-width:0.25; stroke-dasharray:3,3;"/>
<line x1="52.250000" y1="15.000000" x2="281.200000" y2="15.000000"  style="stroke: black; stroke-linecap:round; stroke-width:0.25; stroke-dasharray:3,3;"/>
<text x="20.000000" y="17.000000" font-family="Arial" font-size="7">dist_amt</text>
<line x1="283.200000" y1="35.000000" x2="286.200000" y2="36.000000"  transform="rotate(0.000000,286.200000,36.000000)" style="stroke: black; stroke-width:0.25;"/>
<line x1="283.200000" y1="37.000000" x2="286.200000" y2="36.000000"  transform="rotate(0.000000,286.200000,36.000000)" style="stroke: black; stroke-width:0.25;"/>
<line x1="191.700000" y1="36.000000" x2="195.700000" y2="36.000000"  style="stroke:black; stroke-linecap:round; stroke-width:0.25;"/>
<line x1="195.700000" y1="36.000000" x2="195.700000" y2="36.000000"  style="stroke:black; stroke-linecap:round; stroke-width:0.25;"/>
<line x1="195.700000" y1="36.000000" x2="199.700000" y2="36.000000"  style="stroke:black; stroke-linecap:round; stroke-width:0.25;"/>
<line x1="264.200000" y1="36.000000" x2="268.200000" y2="36.000000"  style="stroke:black; stroke-linecap:round; stroke-width:0.25;"/>
<line x1="268.200000" y1="36.000000" x2="268.200000" y2="36.000000"  style="stroke:black; stroke-linecap:round; stroke-width:0.25;"/>
<line x1="268.200000" y1="36.000000" x2="272.200000" y2="36.000000"  style="stroke:black; stroke-linecap:round; stroke-width:0.25;"/>
<line x1="272.200000" y1="36.000000" x2="276.200000" y2="36.000000"  style="stroke:black; stroke-linecap:round; stroke-width:0.25;"/>
<line x1="276.200000" y1="36.000000" x2="286.200000" y2="36.000000"  style="stroke:black; stroke-linecap:round; stroke-width:0.25;"/>
</svg>
