<?xml version="1.0"?>
<svg xmlns="http://www.w3.org/2000/svg" xmlns:xlink="http://www.w3.org/1999/xlink" viewBox="0 0 261.800000 260.000000" width="130.900000mm" height="130.000000mm" version="1.1">
<defs>
   <filter id="filter" filterRes="18" x="0" y="0">
     <feGaussianBlur in="SourceGraphic" stdDeviation="1.55" result="blur"/>
     <feOffset in="blur" dx="3" dy="3"/>
   </filter>
</defs>
<a xlink:href="decimal-0x7f8f9330eff0.svg">
<rect x="1.000000" y="1.000000" width="260.800000" height="259.000000" rx="0.1" ry="0.1" style="stroke:none;fill:#aaaaaa;;filter:url(#filter);"/>
<rect x="0.000000" y="0.000000" width="260.800000" height="259.000000" rx="0" ry="0" style="stroke:none;fill:#ffffff;"/>
</a>
<text x="10.000000" y="7.000000" font-family="Arial" font-size="7"></text>
<a xlink:href="late-0x7f8f91da24f0.svg">
<rect x="28.550000" y="25.000000" width="38.700000" height="24.000000" rx="0.1" ry="0.1" style="stroke:none;fill:#aaaaaa;;filter:url(#filter);"/>
<rect x="27.550000" y="24.000000" width="38.700000" height="24.000000" rx="0" ry="0" style="stroke:none;fill:#003366;"/>
</a>
<a xlink:href="late-0x7f8f91da24f0.svg">
<text x="46.900000" y="38.000000" font-family="Arial" font-size="7" text-anchor="middle" fill="#FFFFFF">late_diff</text>
</a>
<circle cx="29.550000" cy="26.000000" r="1"/>
<rect x="35.000000" y="67.000000" width="25.800000" height="24.000000" rx="0.1" ry="0.1" style="stroke:none;fill:#aaaaaa;;filter:url(#filter);"/>
<rect x="34.000000" y="66.000000" width="25.800000" height="24.000000" rx="0" ry="0" style="stroke:none;fill:#f44800;"/>
<text x="46.900000" y="80.000000" font-family="Arial" font-size="7" text-anchor="middle" fill="#FFFFFF">2656</text>
<circle cx="36.000000" cy="68.000000" r="1"/>
<line x1="25.000000" y1="57.000000" x2="25.000000" y2="99.000000"  style="stroke: black; stroke-linecap:round; stroke-width:0.25; stroke-dasharray:3,3;"/>
<line x1="25.000000" y1="99.000000" x2="68.800000" y2="99.000000"  style="stroke: black; stroke-linecap:round; stroke-width:0.25; stroke-dasharray:3,3;"/>
<line x1="68.800000" y1="99.000000" x2="68.800000" y2="57.000000"  style="stroke: black; stroke-linecap:round; stroke-width:0.25; stroke-dasharray:3,3;"/>
<line x1="25.000000" y1="57.000000" x2="30.000000" y2="57.000000"  style="stroke: black; stroke-linecap:round; stroke-width:0.25; stroke-dasharray:3,3;"/>
<line x1="68.700000" y1="57.000000" x2="68.800000" y2="57.000000"  style="stroke: black; stroke-linecap:round; stroke-width:0.25; stroke-dasharray:3,3;"/>
<text x="30.000000" y="59.000000" font-family="Arial" font-size="7">dt_late_r2</text>
<rect x="86.800000" y="51.000000" width="24.000000" height="24.000000" rx="0.1" ry="0.1" style="stroke:none;fill:#aaaaaa;;filter:url(#filter);"/>
<rect x="85.800000" y="50.000000" width="24.000000" height="24.000000" rx="0" ry="0" style="stroke:none;fill:#4B71A1;"/>
<text x="97.800000" y="64.000000" font-family="Arial" font-size="7" text-anchor="middle" fill="#FFFFFF">*</text>
<circle cx="87.800000" cy="52.000000" r="1"/>
<line x1="82.800000" y1="57.000000" x2="85.800000" y2="58.000000"  transform="rotate(0.000000,85.800000,58.000000)" style="stroke: black; stroke-width:0.25;"/>
<line x1="82.800000" y1="59.000000" x2="85.800000" y2="58.000000"  transform="rotate(0.000000,85.800000,58.000000)" style="stroke: black; stroke-width:0.25;"/>
<line x1="82.800000" y1="65.000000" x2="85.800000" y2="66.000000"  transform="rotate(0.000000,85.800000,66.000000)" style="stroke: black; stroke-width:0.25;"/>
<line x1="82.800000" y1="67.000000" x2="85.800000" y2="66.000000"  transform="rotate(0.000000,85.800000,66.000000)" style="stroke: black; stroke-width:0.25;"/>
<rect x="55.900000" y="119.000000" width="24.000000" height="24.000000" rx="0.1" ry="0.1" style="stroke:none;fill:#aaaaaa;;filter:url(#filter);"/>
<rect x="54.900000" y="118.000000" width="24.000000" height="24.000000" rx="0" ry="0" style="stroke:none;fill:#f44800;"/>
<text x="66.900000" y="132.000000" font-family="Arial" font-size="7" text-anchor="middle" fill="#FFFFFF">1</text>
<circle cx="56.900000" cy="120.000000" r="1"/>
<line x1="45.900000" y1="109.000000" x2="45.900000" y2="151.000000"  style="stroke: black; stroke-linecap:round; stroke-width:0.25; stroke-dasharray:3,3;"/>
<line x1="45.900000" y1="151.000000" x2="87.900000" y2="151.000000"  style="stroke: black; stroke-linecap:round; stroke-width:0.25; stroke-dasharray:3,3;"/>
<line x1="87.900000" y1="151.000000" x2="87.900000" y2="109.000000"  style="stroke: black; stroke-linecap:round; stroke-width:0.25; stroke-dasharray:3,3;"/>
<line x1="45.900000" y1="109.000000" x2="50.900000" y2="109.000000"  style="stroke: black; stroke-linecap:round; stroke-width:0.25; stroke-dasharray:3,3;"/>
<line x1="60.575000" y1="109.000000" x2="87.900000" y2="109.000000"  style="stroke: black; stroke-linecap:round; stroke-width:0.25; stroke-dasharray:3,3;"/>
<text x="50.900000" y="111.000000" font-family="Arial" font-size="7">S</text>
<rect x="126.800000" y="77.000000" width="24.000000" height="24.000000" rx="0.1" ry="0.1" style="stroke:none;fill:#aaaaaa;;filter:url(#filter);"/>
<rect x="125.800000" y="76.000000" width="24.000000" height="24.000000" rx="0" ry="0" style="stroke:none;fill:#4B71A1;"/>
<text x="137.800000" y="90.000000" font-family="Arial" font-size="7" text-anchor="middle" fill="#FFFFFF">-</text>
<circle cx="127.800000" cy="78.000000" r="1"/>
<line x1="122.800000" y1="83.000000" x2="125.800000" y2="84.000000"  transform="rotate(0.000000,125.800000,84.000000)" style="stroke: black; stroke-width:0.25;"/>
<line x1="122.800000" y1="85.000000" x2="125.800000" y2="84.000000"  transform="rotate(0.000000,125.800000,84.000000)" style="stroke: black; stroke-width:0.25;"/>
<line x1="122.800000" y1="91.000000" x2="125.800000" y2="92.000000"  transform="rotate(0.000000,125.800000,92.000000)" style="stroke: black; stroke-width:0.25;"/>
<line x1="122.800000" y1="93.000000" x2="125.800000" y2="92.000000"  transform="rotate(0.000000,125.800000,92.000000)" style="stroke: black; stroke-width:0.25;"/>
<a xlink:href="mod-0x7f8f9330e960.svg">
<rect x="75.900000" y="161.000000" width="24.000000" height="24.000000" rx="0.1" ry="0.1" style="stroke:none;fill:#aaaaaa;;filter:url(#filter);"/>
<rect x="74.900000" y="160.000000" width="24.000000" height="24.000000" rx="0" ry="0" style="stroke:none;fill:#003366;"/>
</a>
<a xlink:href="mod-0x7f8f9330e960.svg">
<text x="86.900000" y="174.000000" font-family="Arial" font-size="7" text-anchor="middle" fill="#FFFFFF">mod</text>
</a>
<circle cx="76.900000" cy="162.000000" r="1"/>
<rect x="166.800000" y="93.000000" width="24.000000" height="24.000000" rx="0.1" ry="0.1" style="stroke:none;fill:#aaaaaa;;filter:url(#filter);"/>
<rect x="165.800000" y="92.000000" width="24.000000" height="24.000000" rx="0" ry="0" style="stroke:none;fill:#4B71A1;"/>
<text x="177.800000" y="106.000000" font-family="Arial" font-size="7" text-anchor="middle" fill="#FFFFFF">+</text>
<circle cx="167.800000" cy="94.000000" r="1"/>
<line x1="162.800000" y1="99.000000" x2="165.800000" y2="100.000000"  transform="rotate(0.000000,165.800000,100.000000)" style="stroke: black; stroke-width:0.25;"/>
<line x1="162.800000" y1="101.000000" x2="165.800000" y2="100.000000"  transform="rotate(0.000000,165.800000,100.000000)" style="stroke: black; stroke-width:0.25;"/>
<line x1="162.800000" y1="107.000000" x2="165.800000" y2="108.000000"  transform="rotate(0.000000,165.800000,108.000000)" style="stroke: black; stroke-width:0.25;"/>
<line x1="162.800000" y1="109.000000" x2="165.800000" y2="108.000000"  transform="rotate(0.000000,165.800000,108.000000)" style="stroke: black; stroke-width:0.25;"/>
<rect x="88.550000" y="203.000000" width="38.700000" height="24.000000" rx="0.1" ry="0.1" style="stroke:none;fill:#aaaaaa;;filter:url(#filter);"/>
<rect x="87.550000" y="202.000000" width="38.700000" height="24.000000" rx="0" ry="0" style="stroke:none;fill:#f44800;"/>
<text x="106.900000" y="216.000000" font-family="Arial" font-size="7" text-anchor="middle" fill="#FFFFFF">0.499995</text>
<circle cx="89.550000" cy="204.000000" r="1"/>
<line x1="78.550000" y1="193.000000" x2="78.550000" y2="235.000000"  style="stroke: black; stroke-linecap:round; stroke-width:0.25; stroke-dasharray:3,3;"/>
<line x1="78.550000" y1="235.000000" x2="135.250000" y2="235.000000"  style="stroke: black; stroke-linecap:round; stroke-width:0.25; stroke-dasharray:3,3;"/>
<line x1="135.250000" y1="235.000000" x2="135.250000" y2="193.000000"  style="stroke: black; stroke-linecap:round; stroke-width:0.25; stroke-dasharray:3,3;"/>
<line x1="78.550000" y1="193.000000" x2="83.550000" y2="193.000000"  style="stroke: black; stroke-linecap:round; stroke-width:0.25; stroke-dasharray:3,3;"/>
<line x1="93.225000" y1="193.000000" x2="135.250000" y2="193.000000"  style="stroke: black; stroke-linecap:round; stroke-width:0.25; stroke-dasharray:3,3;"/>
<text x="83.550000" y="195.000000" font-family="Arial" font-size="7">o</text>
<rect x="206.800000" y="119.000000" width="24.000000" height="24.000000" rx="0.1" ry="0.1" style="stroke:none;fill:#aaaaaa;;filter:url(#filter);"/>
<rect x="205.800000" y="118.000000" width="24.000000" height="24.000000" rx="0" ry="0" style="stroke:none;fill:#4B71A1;"/>
<text x="217.800000" y="132.000000" font-family="Arial" font-size="7" text-anchor="middle" fill="#FFFFFF">-</text>
<circle cx="207.800000" cy="120.000000" r="1"/>
<line x1="202.800000" y1="125.000000" x2="205.800000" y2="126.000000"  transform="rotate(0.000000,205.800000,126.000000)" style="stroke: black; stroke-width:0.25;"/>
<line x1="202.800000" y1="127.000000" x2="205.800000" y2="126.000000"  transform="rotate(0.000000,205.800000,126.000000)" style="stroke: black; stroke-width:0.25;"/>
<line x1="202.800000" y1="133.000000" x2="205.800000" y2="134.000000"  transform="rotate(0.000000,205.800000,134.000000)" style="stroke: black; stroke-width:0.25;"/>
<line x1="202.800000" y1="135.000000" x2="205.800000" y2="134.000000"  transform="rotate(0.000000,205.800000,134.000000)" style="stroke: black; stroke-width:0.25;"/>
<line x1="15.000000" y1="15.000000" x2="15.000000" y2="245.000000"  style="stroke: black; stroke-linecap:round; stroke-width:0.25; stroke-dasharray:3,3;"/>
<line x1="15.000000" y1="245.000000" x2="246.800000" y2="245.000000"  style="stroke: black; stroke-linecap:round; stroke-width:0.25; stroke-dasharray:3,3;"/>
<line x1="246.800000" y1="245.000000" x2="246.800000" y2="15.000000"  style="stroke: black; stroke-linecap:round; stroke-width:0.25; stroke-dasharray:3,3;"/>
<line x1="15.000000" y1="15.000000" x2="20.000000" y2="15.000000"  style="stroke: black; stroke-linecap:round; stroke-width:0.25; stroke-dasharray:3,3;"/>
<line x1="36.125000" y1="15.000000" x2="246.800000" y2="15.000000"  style="stroke: black; stroke-linecap:round; stroke-width:0.25; stroke-dasharray:3,3;"/>
<text x="20.000000" y="17.000000" font-family="Arial" font-size="7">dmo</text>
<line x1="248.800000" y1="129.000000" x2="251.800000" y2="130.000000"  transform="rotate(0.000000,251.800000,130.000000)" style="stroke: black; stroke-width:0.25;"/>
<line x1="248.800000" y1="131.000000" x2="251.800000" y2="130.000000"  transform="rotate(0.000000,251.800000,130.000000)" style="stroke: black; stroke-width:0.25;"/>
<line x1="59.800000" y1="78.000000" x2="63.800000" y2="78.000000"  style="stroke:black; stroke-linecap:round; stroke-width:0.25;"/>
<line x1="63.800000" y1="78.000000" x2="73.800000" y2="78.000000"  style="stroke:black; stroke-linecap:round; stroke-width:0.25;"/>
<line x1="66.250000" y1="36.000000" x2="70.250000" y2="36.000000"  style="stroke:black; stroke-linecap:round; stroke-width:0.25;"/>
<line x1="70.250000" y1="36.000000" x2="73.800000" y2="36.000000"  style="stroke:black; stroke-linecap:round; stroke-width:0.25;"/>
<line x1="73.800000" y1="36.000000" x2="81.800000" y2="36.000000"  style="stroke:black; stroke-linecap:round; stroke-width:0.25;"/>
<line x1="73.800000" y1="66.000000" x2="81.800000" y2="66.000000"  style="stroke:black; stroke-linecap:round; stroke-width:0.25;"/>
<line x1="73.800000" y1="78.000000" x2="73.800000" y2="66.000000"  style="stroke:black; stroke-linecap:round; stroke-width:0.25;"/>
<line x1="73.800000" y1="78.000000" x2="73.800000" y2="78.000000"  style="stroke:black; stroke-linecap:round; stroke-width:0.25;"/>
<line x1="78.900000" y1="130.000000" x2="82.900000" y2="130.000000"  style="stroke:black; stroke-linecap:round; stroke-width:0.25;"/>
<line x1="81.800000" y1="36.000000" x2="81.800000" y2="58.000000"  style="stroke:black; stroke-linecap:round; stroke-width:0.25;"/>
<line x1="81.800000" y1="58.000000" x2="81.800000" y2="58.000000"  style="stroke:black; stroke-linecap:round; stroke-width:0.25;"/>
<line x1="81.800000" y1="58.000000" x2="85.800000" y2="58.000000"  style="stroke:black; stroke-linecap:round; stroke-width:0.25;"/>
<line x1="81.800000" y1="66.000000" x2="85.800000" y2="66.000000"  style="stroke:black; stroke-linecap:round; stroke-width:0.25;"/>
<line x1="82.900000" y1="130.000000" x2="92.900000" y2="130.000000"  style="stroke:black; stroke-linecap:round; stroke-width:0.25;"/>
<line x1="92.900000" y1="130.000000" x2="113.800000" y2="130.000000"  style="stroke:black; stroke-linecap:round; stroke-width:0.25;"/>
<line x1="98.900000" y1="172.000000" x2="102.900000" y2="172.000000"  style="stroke:black; stroke-linecap:round; stroke-width:0.25;"/>
<line x1="102.900000" y1="172.000000" x2="153.800000" y2="172.000000"  style="stroke:black; stroke-linecap:round; stroke-width:0.25;"/>
<line x1="109.800000" y1="62.000000" x2="113.800000" y2="62.000000"  style="stroke:black; stroke-linecap:round; stroke-width:0.25;"/>
<line x1="113.800000" y1="62.000000" x2="121.800000" y2="62.000000"  style="stroke:black; stroke-linecap:round; stroke-width:0.25;"/>
<line x1="113.800000" y1="92.000000" x2="121.800000" y2="92.000000"  style="stroke:black; stroke-linecap:round; stroke-width:0.25;"/>
<line x1="113.800000" y1="130.000000" x2="113.800000" y2="92.000000"  style="stroke:black; stroke-linecap:round; stroke-width:0.25;"/>
<line x1="113.800000" y1="130.000000" x2="113.800000" y2="130.000000"  style="stroke:black; stroke-linecap:round; stroke-width:0.25;"/>
<line x1="121.800000" y1="62.000000" x2="121.800000" y2="84.000000"  style="stroke:black; stroke-linecap:round; stroke-width:0.25;"/>
<line x1="121.800000" y1="84.000000" x2="121.800000" y2="84.000000"  style="stroke:black; stroke-linecap:round; stroke-width:0.25;"/>
<line x1="121.800000" y1="84.000000" x2="125.800000" y2="84.000000"  style="stroke:black; stroke-linecap:round; stroke-width:0.25;"/>
<line x1="121.800000" y1="92.000000" x2="125.800000" y2="92.000000"  style="stroke:black; stroke-linecap:round; stroke-width:0.25;"/>
<line x1="126.250000" y1="214.000000" x2="130.250000" y2="214.000000"  style="stroke:black; stroke-linecap:round; stroke-width:0.25;"/>
<line x1="130.250000" y1="214.000000" x2="140.250000" y2="214.000000"  style="stroke:black; stroke-linecap:round; stroke-width:0.25;"/>
<line x1="140.250000" y1="214.000000" x2="193.800000" y2="214.000000"  style="stroke:black; stroke-linecap:round; stroke-width:0.25;"/>
<line x1="149.800000" y1="88.000000" x2="153.800000" y2="88.000000"  style="stroke:black; stroke-linecap:round; stroke-width:0.25;"/>
<line x1="153.800000" y1="88.000000" x2="161.800000" y2="88.000000"  style="stroke:black; stroke-linecap:round; stroke-width:0.25;"/>
<line x1="153.800000" y1="108.000000" x2="161.800000" y2="108.000000"  style="stroke:black; stroke-linecap:round; stroke-width:0.25;"/>
<line x1="153.800000" y1="172.000000" x2="153.800000" y2="108.000000"  style="stroke:black; stroke-linecap:round; stroke-width:0.25;"/>
<line x1="153.800000" y1="172.000000" x2="153.800000" y2="172.000000"  style="stroke:black; stroke-linecap:round; stroke-width:0.25;"/>
<line x1="161.800000" y1="88.000000" x2="161.800000" y2="100.000000"  style="stroke:black; stroke-linecap:round; stroke-width:0.25;"/>
<line x1="161.800000" y1="100.000000" x2="161.800000" y2="100.000000"  style="stroke:black; stroke-linecap:round; stroke-width:0.25;"/>
<line x1="161.800000" y1="100.000000" x2="165.800000" y2="100.000000"  style="stroke:black; stroke-linecap:round; stroke-width:0.25;"/>
<line x1="161.800000" y1="108.000000" x2="165.800000" y2="108.000000"  style="stroke:black; stroke-linecap:round; stroke-width:0.25;"/>
<line x1="189.800000" y1="104.000000" x2="193.800000" y2="104.000000"  style="stroke:black; stroke-linecap:round; stroke-width:0.25;"/>
<line x1="193.800000" y1="104.000000" x2="201.800000" y2="104.000000"  style="stroke:black; stroke-linecap:round; stroke-width:0.25;"/>
<line x1="193.800000" y1="134.000000" x2="201.800000" y2="134.000000"  style="stroke:black; stroke-linecap:round; stroke-width:0.25;"/>
<line x1="193.800000" y1="214.000000" x2="193.800000" y2="134.000000"  style="stroke:black; stroke-linecap:round; stroke-width:0.25;"/>
<line x1="193.800000" y1="214.000000" x2="193.800000" y2="214.000000"  style="stroke:black; stroke-linecap:round; stroke-width:0.25;"/>
<line x1="201.800000" y1="104.000000" x2="201.800000" y2="126.000000"  style="stroke:black; stroke-linecap:round; stroke-width:0.25;"/>
<line x1="201.800000" y1="126.000000" x2="201.800000" y2="126.000000"  style="stroke:black; stroke-linecap:round; stroke-width:0.25;"/>
<line x1="201.800000" y1="126.000000" x2="205.800000" y2="126.000000"  style="stroke:black; stroke-linecap:round; stroke-width:0.25;"/>
<line x1="201.800000" y1="134.000000" x2="205.800000" y2="134.000000"  style="stroke:black; stroke-linecap:round; stroke-width:0.25;"/>
<line x1="229.800000" y1="130.000000" x2="233.800000" y2="130.000000"  style="stroke:black; stroke-linecap:round; stroke-width:0.25;"/>
<line x1="233.800000" y1="130.000000" x2="233.800000" y2="130.000000"  style="stroke:black; stroke-linecap:round; stroke-width:0.25;"/>
<line x1="233.800000" y1="130.000000" x2="237.800000" y2="130.000000"  style="stroke:black; stroke-linecap:round; stroke-width:0.25;"/>
<line x1="237.800000" y1="130.000000" x2="241.800000" y2="130.000000"  style="stroke:black; stroke-linecap:round; stroke-width:0.25;"/>
<line x1="241.800000" y1="130.000000" x2="251.800000" y2="130.000000"  style="stroke:black; stroke-linecap:round; stroke-width:0.25;"/>
</svg>
