<?xml version="1.0"?>
<svg xmlns="http://www.w3.org/2000/svg" xmlns:xlink="http://www.w3.org/1999/xlink" viewBox="0 0 219.200000 300.000000" width="109.600000mm" height="150.000000mm" version="1.1">
<defs>
   <filter id="filter" filterRes="18" x="0" y="0">
     <feGaussianBlur in="SourceGraphic" stdDeviation="1.55" result="blur"/>
     <feOffset in="blur" dx="3" dy="3"/>
   </filter>
</defs>
<a xlink:href="h-0x7f8f939dae70.svg">
<rect x="1.000000" y="1.000000" width="218.200000" height="299.000000" rx="0.1" ry="0.1" style="stroke:none;fill:#aaaaaa;;filter:url(#filter);"/>
<rect x="0.000000" y="0.000000" width="218.200000" height="299.000000" rx="0" ry="0" style="stroke:none;fill:#ffffff;"/>
</a>
<text x="10.000000" y="7.000000" font-family="Arial" font-size="7"></text>
<rect x="63.250000" y="35.000000" width="24.000000" height="24.000000" rx="0.1" ry="0.1" style="stroke:none;fill:#aaaaaa;;filter:url(#filter);"/>
<rect x="62.250000" y="34.000000" width="24.000000" height="24.000000" rx="0" ry="0" style="stroke:none;fill:#f44800;"/>
<text x="74.250000" y="48.000000" font-family="Arial" font-size="7" text-anchor="middle" fill="#FFFFFF">1</text>
<circle cx="64.250000" cy="36.000000" r="1"/>
<line x1="53.250000" y1="25.000000" x2="53.250000" y2="67.000000"  style="stroke: black; stroke-linecap:round; stroke-width:0.25; stroke-dasharray:3,3;"/>
<line x1="53.250000" y1="67.000000" x2="95.250000" y2="67.000000"  style="stroke: black; stroke-linecap:round; stroke-width:0.25; stroke-dasharray:3,3;"/>
<line x1="95.250000" y1="67.000000" x2="95.250000" y2="25.000000"  style="stroke: black; stroke-linecap:round; stroke-width:0.25; stroke-dasharray:3,3;"/>
<line x1="53.250000" y1="25.000000" x2="58.250000" y2="25.000000"  style="stroke: black; stroke-linecap:round; stroke-width:0.25; stroke-dasharray:3,3;"/>
<line x1="67.925000" y1="25.000000" x2="95.250000" y2="25.000000"  style="stroke: black; stroke-linecap:round; stroke-width:0.25; stroke-dasharray:3,3;"/>
<text x="58.250000" y="27.000000" font-family="Arial" font-size="7">S</text>
<rect x="63.250000" y="87.000000" width="24.000000" height="24.000000" rx="0.1" ry="0.1" style="stroke:none;fill:#aaaaaa;;filter:url(#filter);"/>
<rect x="62.250000" y="86.000000" width="24.000000" height="24.000000" rx="0" ry="0" style="stroke:none;fill:#f44800;"/>
<text x="74.250000" y="100.000000" font-family="Arial" font-size="7" text-anchor="middle" fill="#FFFFFF">1</text>
<circle cx="64.250000" cy="88.000000" r="1"/>
<line x1="53.250000" y1="77.000000" x2="53.250000" y2="119.000000"  style="stroke: black; stroke-linecap:round; stroke-width:0.25; stroke-dasharray:3,3;"/>
<line x1="53.250000" y1="119.000000" x2="95.250000" y2="119.000000"  style="stroke: black; stroke-linecap:round; stroke-width:0.25; stroke-dasharray:3,3;"/>
<line x1="95.250000" y1="119.000000" x2="95.250000" y2="77.000000"  style="stroke: black; stroke-linecap:round; stroke-width:0.25; stroke-dasharray:3,3;"/>
<line x1="53.250000" y1="77.000000" x2="58.250000" y2="77.000000"  style="stroke: black; stroke-linecap:round; stroke-width:0.25; stroke-dasharray:3,3;"/>
<line x1="67.925000" y1="77.000000" x2="95.250000" y2="77.000000"  style="stroke: black; stroke-linecap:round; stroke-width:0.25; stroke-dasharray:3,3;"/>
<text x="58.250000" y="79.000000" font-family="Arial" font-size="7">S</text>
<rect x="35.900000" y="139.000000" width="24.000000" height="24.000000" rx="0.1" ry="0.1" style="stroke:none;fill:#aaaaaa;;filter:url(#filter);"/>
<rect x="34.900000" y="138.000000" width="24.000000" height="24.000000" rx="0" ry="0" style="stroke:none;fill:#f44800;"/>
<text x="46.900000" y="152.000000" font-family="Arial" font-size="7" text-anchor="middle" fill="#FFFFFF">1</text>
<circle cx="36.900000" cy="140.000000" r="1"/>
<line x1="25.900000" y1="129.000000" x2="25.900000" y2="171.000000"  style="stroke: black; stroke-linecap:round; stroke-width:0.25; stroke-dasharray:3,3;"/>
<line x1="25.900000" y1="171.000000" x2="67.900000" y2="171.000000"  style="stroke: black; stroke-linecap:round; stroke-width:0.25; stroke-dasharray:3,3;"/>
<line x1="67.900000" y1="171.000000" x2="67.900000" y2="129.000000"  style="stroke: black; stroke-linecap:round; stroke-width:0.25; stroke-dasharray:3,3;"/>
<line x1="25.900000" y1="129.000000" x2="30.900000" y2="129.000000"  style="stroke: black; stroke-linecap:round; stroke-width:0.25; stroke-dasharray:3,3;"/>
<line x1="40.575000" y1="129.000000" x2="67.900000" y2="129.000000"  style="stroke: black; stroke-linecap:round; stroke-width:0.25; stroke-dasharray:3,3;"/>
<text x="30.900000" y="131.000000" font-family="Arial" font-size="7">S</text>
<rect x="35.900000" y="191.000000" width="24.000000" height="24.000000" rx="0.1" ry="0.1" style="stroke:none;fill:#aaaaaa;;filter:url(#filter);"/>
<rect x="34.900000" y="190.000000" width="24.000000" height="24.000000" rx="0" ry="0" style="stroke:none;fill:#f44800;"/>
<text x="46.900000" y="204.000000" font-family="Arial" font-size="7" text-anchor="middle" fill="#FFFFFF">1</text>
<circle cx="36.900000" cy="192.000000" r="1"/>
<line x1="25.900000" y1="181.000000" x2="25.900000" y2="223.000000"  style="stroke: black; stroke-linecap:round; stroke-width:0.25; stroke-dasharray:3,3;"/>
<line x1="25.900000" y1="223.000000" x2="67.900000" y2="223.000000"  style="stroke: black; stroke-linecap:round; stroke-width:0.25; stroke-dasharray:3,3;"/>
<line x1="67.900000" y1="223.000000" x2="67.900000" y2="181.000000"  style="stroke: black; stroke-linecap:round; stroke-width:0.25; stroke-dasharray:3,3;"/>
<line x1="25.900000" y1="181.000000" x2="30.900000" y2="181.000000"  style="stroke: black; stroke-linecap:round; stroke-width:0.25; stroke-dasharray:3,3;"/>
<line x1="40.575000" y1="181.000000" x2="67.900000" y2="181.000000"  style="stroke: black; stroke-linecap:round; stroke-width:0.25; stroke-dasharray:3,3;"/>
<text x="30.900000" y="183.000000" font-family="Arial" font-size="7">S</text>
<rect x="35.000000" y="243.000000" width="25.800000" height="24.000000" rx="0.1" ry="0.1" style="stroke:none;fill:#aaaaaa;;filter:url(#filter);"/>
<rect x="34.000000" y="242.000000" width="25.800000" height="24.000000" rx="0" ry="0" style="stroke:none;fill:#f44800;"/>
<text x="46.900000" y="256.000000" font-family="Arial" font-size="7" text-anchor="middle" fill="#FFFFFF">1.0023</text>
<circle cx="36.000000" cy="244.000000" r="1"/>
<line x1="25.000000" y1="233.000000" x2="25.000000" y2="275.000000"  style="stroke: black; stroke-linecap:round; stroke-width:0.25; stroke-dasharray:3,3;"/>
<line x1="25.000000" y1="275.000000" x2="68.800000" y2="275.000000"  style="stroke: black; stroke-linecap:round; stroke-width:0.25; stroke-dasharray:3,3;"/>
<line x1="68.800000" y1="275.000000" x2="68.800000" y2="233.000000"  style="stroke: black; stroke-linecap:round; stroke-width:0.25; stroke-dasharray:3,3;"/>
<line x1="25.000000" y1="233.000000" x2="30.000000" y2="233.000000"  style="stroke: black; stroke-linecap:round; stroke-width:0.25; stroke-dasharray:3,3;"/>
<line x1="42.900000" y1="233.000000" x2="68.800000" y2="233.000000"  style="stroke: black; stroke-linecap:round; stroke-width:0.25; stroke-dasharray:3,3;"/>
<text x="30.000000" y="235.000000" font-family="Arial" font-size="7">fd</text>
<rect x="86.800000" y="191.000000" width="38.700000" height="24.000000" rx="0.1" ry="0.1" style="stroke:none;fill:#aaaaaa;;filter:url(#filter);"/>
<rect x="85.800000" y="190.000000" width="38.700000" height="24.000000" rx="0" ry="0" style="stroke:none;fill:#4B71A1;"/>
<text x="105.150000" y="204.000000" font-family="Arial" font-size="7" text-anchor="middle" fill="#FFFFFF">select2</text>
<circle cx="87.800000" cy="192.000000" r="1"/>
<line x1="82.800000" y1="193.000000" x2="85.800000" y2="194.000000"  transform="rotate(0.000000,85.800000,194.000000)" style="stroke: black; stroke-width:0.25;"/>
<line x1="82.800000" y1="195.000000" x2="85.800000" y2="194.000000"  transform="rotate(0.000000,85.800000,194.000000)" style="stroke: black; stroke-width:0.25;"/>
<line x1="82.800000" y1="201.000000" x2="85.800000" y2="202.000000"  transform="rotate(0.000000,85.800000,202.000000)" style="stroke: black; stroke-width:0.25;"/>
<line x1="82.800000" y1="203.000000" x2="85.800000" y2="202.000000"  transform="rotate(0.000000,85.800000,202.000000)" style="stroke: black; stroke-width:0.25;"/>
<line x1="82.800000" y1="209.000000" x2="85.800000" y2="210.000000"  transform="rotate(0.000000,85.800000,210.000000)" style="stroke: black; stroke-width:0.25;"/>
<line x1="82.800000" y1="211.000000" x2="85.800000" y2="210.000000"  transform="rotate(0.000000,85.800000,210.000000)" style="stroke: black; stroke-width:0.25;"/>
<rect x="149.500000" y="139.000000" width="38.700000" height="24.000000" rx="0.1" ry="0.1" style="stroke:none;fill:#aaaaaa;;filter:url(#filter);"/>
<rect x="148.500000" y="138.000000" width="38.700000" height="24.000000" rx="0" ry="0" style="stroke:none;fill:#4B71A1;"/>
<text x="167.850000" y="152.000000" font-family="Arial" font-size="7" text-anchor="middle" fill="#FFFFFF">select2</text>
<circle cx="150.500000" cy="140.000000" r="1"/>
<line x1="145.500000" y1="141.000000" x2="148.500000" y2="142.000000"  transform="rotate(0.000000,148.500000,142.000000)" style="stroke: black; stroke-width:0.25;"/>
<line x1="145.500000" y1="143.000000" x2="148.500000" y2="142.000000"  transform="rotate(0.000000,148.500000,142.000000)" style="stroke: black; stroke-width:0.25;"/>
<line x1="145.500000" y1="149.000000" x2="148.500000" y2="150.000000"  transform="rotate(0.000000,148.500000,150.000000)" style="stroke: black; stroke-width:0.25;"/>
<line x1="145.500000" y1="151.000000" x2="148.500000" y2="150.000000"  transform="rotate(0.000000,148.500000,150.000000)" style="stroke: black; stroke-width:0.25;"/>
<line x1="145.500000" y1="157.000000" x2="148.500000" y2="158.000000"  transform="rotate(0.000000,148.500000,158.000000)" style="stroke: black; stroke-width:0.25;"/>
<line x1="145.500000" y1="159.000000" x2="148.500000" y2="158.000000"  transform="rotate(0.000000,148.500000,158.000000)" style="stroke: black; stroke-width:0.25;"/>
<line x1="15.000000" y1="15.000000" x2="15.000000" y2="285.000000"  style="stroke: black; stroke-linecap:round; stroke-width:0.25; stroke-dasharray:3,3;"/>
<line x1="15.000000" y1="285.000000" x2="204.200000" y2="285.000000"  style="stroke: black; stroke-linecap:round; stroke-width:0.25; stroke-dasharray:3,3;"/>
<line x1="204.200000" y1="285.000000" x2="204.200000" y2="15.000000"  style="stroke: black; stroke-linecap:round; stroke-width:0.25; stroke-dasharray:3,3;"/>
<line x1="15.000000" y1="15.000000" x2="20.000000" y2="15.000000"  style="stroke: black; stroke-linecap:round; stroke-width:0.25; stroke-dasharray:3,3;"/>
<line x1="129.650000" y1="15.000000" x2="204.200000" y2="15.000000"  style="stroke: black; stroke-linecap:round; stroke-width:0.25; stroke-dasharray:3,3;"/>
<text x="20.000000" y="17.000000" font-family="Arial" font-size="7">facs1(2)(1.0022953328232533f)(1)</text>
<line x1="206.200000" y1="149.000000" x2="209.200000" y2="150.000000"  transform="rotate(0.000000,209.200000,150.000000)" style="stroke: black; stroke-width:0.25;"/>
<line x1="206.200000" y1="151.000000" x2="209.200000" y2="150.000000"  transform="rotate(0.000000,209.200000,150.000000)" style="stroke: black; stroke-width:0.25;"/>
<line x1="58.900000" y1="150.000000" x2="62.900000" y2="150.000000"  style="stroke:black; stroke-linecap:round; stroke-width:0.25;"/>
<line x1="58.900000" y1="202.000000" x2="62.900000" y2="202.000000"  style="stroke:black; stroke-linecap:round; stroke-width:0.25;"/>
<line x1="59.800000" y1="254.000000" x2="63.800000" y2="254.000000"  style="stroke:black; stroke-linecap:round; stroke-width:0.25;"/>
<line x1="62.900000" y1="150.000000" x2="72.900000" y2="150.000000"  style="stroke:black; stroke-linecap:round; stroke-width:0.25;"/>
<line x1="62.900000" y1="202.000000" x2="72.900000" y2="202.000000"  style="stroke:black; stroke-linecap:round; stroke-width:0.25;"/>
<line x1="63.800000" y1="254.000000" x2="73.800000" y2="254.000000"  style="stroke:black; stroke-linecap:round; stroke-width:0.25;"/>
<line x1="72.900000" y1="150.000000" x2="73.800000" y2="150.000000"  style="stroke:black; stroke-linecap:round; stroke-width:0.25;"/>
<line x1="72.900000" y1="202.000000" x2="73.800000" y2="202.000000"  style="stroke:black; stroke-linecap:round; stroke-width:0.25;"/>
<line x1="73.800000" y1="210.000000" x2="81.800000" y2="210.000000"  style="stroke:black; stroke-linecap:round; stroke-width:0.25;"/>
<line x1="73.800000" y1="254.000000" x2="73.800000" y2="210.000000"  style="stroke:black; stroke-linecap:round; stroke-width:0.25;"/>
<line x1="73.800000" y1="254.000000" x2="73.800000" y2="254.000000"  style="stroke:black; stroke-linecap:round; stroke-width:0.25;"/>
<line x1="73.800000" y1="150.000000" x2="81.800000" y2="150.000000"  style="stroke:black; stroke-linecap:round; stroke-width:0.25;"/>
<line x1="73.800000" y1="202.000000" x2="81.800000" y2="202.000000"  style="stroke:black; stroke-linecap:round; stroke-width:0.25;"/>
<line x1="81.800000" y1="194.000000" x2="85.800000" y2="194.000000"  style="stroke:black; stroke-linecap:round; stroke-width:0.25;"/>
<line x1="81.800000" y1="202.000000" x2="85.800000" y2="202.000000"  style="stroke:black; stroke-linecap:round; stroke-width:0.25;"/>
<line x1="81.800000" y1="210.000000" x2="85.800000" y2="210.000000"  style="stroke:black; stroke-linecap:round; stroke-width:0.25;"/>
<line x1="81.800000" y1="150.000000" x2="81.800000" y2="194.000000"  style="stroke:black; stroke-linecap:round; stroke-width:0.25;"/>
<line x1="81.800000" y1="194.000000" x2="81.800000" y2="194.000000"  style="stroke:black; stroke-linecap:round; stroke-width:0.25;"/>
<line x1="86.250000" y1="46.000000" x2="90.250000" y2="46.000000"  style="stroke:black; stroke-linecap:round; stroke-width:0.25;"/>
<line x1="86.250000" y1="98.000000" x2="90.250000" y2="98.000000"  style="stroke:black; stroke-linecap:round; stroke-width:0.25;"/>
<line x1="90.250000" y1="46.000000" x2="100.250000" y2="46.000000"  style="stroke:black; stroke-linecap:round; stroke-width:0.25;"/>
<line x1="90.250000" y1="98.000000" x2="100.250000" y2="98.000000"  style="stroke:black; stroke-linecap:round; stroke-width:0.25;"/>
<line x1="100.250000" y1="46.000000" x2="128.500000" y2="46.000000"  style="stroke:black; stroke-linecap:round; stroke-width:0.25;"/>
<line x1="100.250000" y1="98.000000" x2="128.500000" y2="98.000000"  style="stroke:black; stroke-linecap:round; stroke-width:0.25;"/>
<line x1="124.500000" y1="202.000000" x2="128.500000" y2="202.000000"  style="stroke:black; stroke-linecap:round; stroke-width:0.25;"/>
<line x1="128.500000" y1="46.000000" x2="144.500000" y2="46.000000"  style="stroke:black; stroke-linecap:round; stroke-width:0.25;"/>
<line x1="128.500000" y1="98.000000" x2="136.500000" y2="98.000000"  style="stroke:black; stroke-linecap:round; stroke-width:0.25;"/>
<line x1="128.500000" y1="158.000000" x2="144.500000" y2="158.000000"  style="stroke:black; stroke-linecap:round; stroke-width:0.25;"/>
<line x1="128.500000" y1="202.000000" x2="128.500000" y2="158.000000"  style="stroke:black; stroke-linecap:round; stroke-width:0.25;"/>
<line x1="128.500000" y1="202.000000" x2="128.500000" y2="202.000000"  style="stroke:black; stroke-linecap:round; stroke-width:0.25;"/>
<line x1="136.500000" y1="98.000000" x2="136.500000" y2="150.000000"  style="stroke:black; stroke-linecap:round; stroke-width:0.25;"/>
<line x1="136.500000" y1="150.000000" x2="144.500000" y2="150.000000"  style="stroke:black; stroke-linecap:round; stroke-width:0.25;"/>
<line x1="144.500000" y1="46.000000" x2="144.500000" y2="142.000000"  style="stroke:black; stroke-linecap:round; stroke-width:0.25;"/>
<line x1="144.500000" y1="142.000000" x2="144.500000" y2="142.000000"  style="stroke:black; stroke-linecap:round; stroke-width:0.25;"/>
<line x1="144.500000" y1="142.000000" x2="148.500000" y2="142.000000"  style="stroke:black; stroke-linecap:round; stroke-width:0.25;"/>
<line x1="144.500000" y1="150.000000" x2="148.500000" y2="150.000000"  style="stroke:black; stroke-linecap:round; stroke-width:0.25;"/>
<line x1="144.500000" y1="158.000000" x2="148.500000" y2="158.000000"  style="stroke:black; stroke-linecap:round; stroke-width:0.25;"/>
<line x1="187.200000" y1="150.000000" x2="191.200000" y2="150.000000"  style="stroke:black; stroke-linecap:round; stroke-width:0.25;"/>
<line x1="191.200000" y1="150.000000" x2="191.200000" y2="150.000000"  style="stroke:black; stroke-linecap:round; stroke-width:0.25;"/>
<line x1="191.200000" y1="150.000000" x2="195.200000" y2="150.000000"  style="stroke:black; stroke-linecap:round; stroke-width:0.25;"/>
<line x1="195.200000" y1="150.000000" x2="199.200000" y2="150.000000"  style="stroke:black; stroke-linecap:round; stroke-width:0.25;"/>
<line x1="199.200000" y1="150.000000" x2="209.200000" y2="150.000000"  style="stroke:black; stroke-linecap:round; stroke-width:0.25;"/>
</svg>
