<?xml version="1.0"?>
<svg xmlns="http://www.w3.org/2000/svg" xmlns:xlink="http://www.w3.org/1999/xlink" viewBox="0 0 232.100000 300.000000" width="116.050000mm" height="150.000000mm" version="1.1">
<defs>
   <filter id="filter" filterRes="18" x="0" y="0">
     <feGaussianBlur in="SourceGraphic" stdDeviation="1.55" result="blur"/>
     <feOffset in="blur" dx="3" dy="3"/>
   </filter>
</defs>
<a xlink:href="h-0x7f8f93184e70.svg">
<rect x="1.000000" y="1.000000" width="231.100000" height="299.000000" rx="0.1" ry="0.1" style="stroke:none;fill:#aaaaaa;;filter:url(#filter);"/>
<rect x="0.000000" y="0.000000" width="231.100000" height="299.000000" rx="0" ry="0" style="stroke:none;fill:#ffffff;"/>
</a>
<text x="10.000000" y="7.000000" font-family="Arial" font-size="7"></text>
<rect x="69.700000" y="35.000000" width="24.000000" height="24.000000" rx="0.1" ry="0.1" style="stroke:none;fill:#aaaaaa;;filter:url(#filter);"/>
<rect x="68.700000" y="34.000000" width="24.000000" height="24.000000" rx="0" ry="0" style="stroke:none;fill:#f44800;"/>
<text x="80.700000" y="48.000000" font-family="Arial" font-size="7" text-anchor="middle" fill="#FFFFFF">1</text>
<circle cx="70.700000" cy="36.000000" r="1"/>
<line x1="59.700000" y1="25.000000" x2="59.700000" y2="67.000000"  style="stroke: black; stroke-linecap:round; stroke-width:0.25; stroke-dasharray:3,3;"/>
<line x1="59.700000" y1="67.000000" x2="101.700000" y2="67.000000"  style="stroke: black; stroke-linecap:round; stroke-width:0.25; stroke-dasharray:3,3;"/>
<line x1="101.700000" y1="67.000000" x2="101.700000" y2="25.000000"  style="stroke: black; stroke-linecap:round; stroke-width:0.25; stroke-dasharray:3,3;"/>
<line x1="59.700000" y1="25.000000" x2="64.700000" y2="25.000000"  style="stroke: black; stroke-linecap:round; stroke-width:0.25; stroke-dasharray:3,3;"/>
<line x1="74.375000" y1="25.000000" x2="101.700000" y2="25.000000"  style="stroke: black; stroke-linecap:round; stroke-width:0.25; stroke-dasharray:3,3;"/>
<text x="64.700000" y="27.000000" font-family="Arial" font-size="7">S</text>
<rect x="69.700000" y="87.000000" width="24.000000" height="24.000000" rx="0.1" ry="0.1" style="stroke:none;fill:#aaaaaa;;filter:url(#filter);"/>
<rect x="68.700000" y="86.000000" width="24.000000" height="24.000000" rx="0" ry="0" style="stroke:none;fill:#f44800;"/>
<text x="80.700000" y="100.000000" font-family="Arial" font-size="7" text-anchor="middle" fill="#FFFFFF">1</text>
<circle cx="70.700000" cy="88.000000" r="1"/>
<line x1="59.700000" y1="77.000000" x2="59.700000" y2="119.000000"  style="stroke: black; stroke-linecap:round; stroke-width:0.25; stroke-dasharray:3,3;"/>
<line x1="59.700000" y1="119.000000" x2="101.700000" y2="119.000000"  style="stroke: black; stroke-linecap:round; stroke-width:0.25; stroke-dasharray:3,3;"/>
<line x1="101.700000" y1="119.000000" x2="101.700000" y2="77.000000"  style="stroke: black; stroke-linecap:round; stroke-width:0.25; stroke-dasharray:3,3;"/>
<line x1="59.700000" y1="77.000000" x2="64.700000" y2="77.000000"  style="stroke: black; stroke-linecap:round; stroke-width:0.25; stroke-dasharray:3,3;"/>
<line x1="74.375000" y1="77.000000" x2="101.700000" y2="77.000000"  style="stroke: black; stroke-linecap:round; stroke-width:0.25; stroke-dasharray:3,3;"/>
<text x="64.700000" y="79.000000" font-family="Arial" font-size="7">S</text>
<rect x="42.350000" y="139.000000" width="24.000000" height="24.000000" rx="0.1" ry="0.1" style="stroke:none;fill:#aaaaaa;;filter:url(#filter);"/>
<rect x="41.350000" y="138.000000" width="24.000000" height="24.000000" rx="0" ry="0" style="stroke:none;fill:#f44800;"/>
<text x="53.350000" y="152.000000" font-family="Arial" font-size="7" text-anchor="middle" fill="#FFFFFF">1</text>
<circle cx="43.350000" cy="140.000000" r="1"/>
<line x1="32.350000" y1="129.000000" x2="32.350000" y2="171.000000"  style="stroke: black; stroke-linecap:round; stroke-width:0.25; stroke-dasharray:3,3;"/>
<line x1="32.350000" y1="171.000000" x2="74.350000" y2="171.000000"  style="stroke: black; stroke-linecap:round; stroke-width:0.25; stroke-dasharray:3,3;"/>
<line x1="74.350000" y1="171.000000" x2="74.350000" y2="129.000000"  style="stroke: black; stroke-linecap:round; stroke-width:0.25; stroke-dasharray:3,3;"/>
<line x1="32.350000" y1="129.000000" x2="37.350000" y2="129.000000"  style="stroke: black; stroke-linecap:round; stroke-width:0.25; stroke-dasharray:3,3;"/>
<line x1="47.025000" y1="129.000000" x2="74.350000" y2="129.000000"  style="stroke: black; stroke-linecap:round; stroke-width:0.25; stroke-dasharray:3,3;"/>
<text x="37.350000" y="131.000000" font-family="Arial" font-size="7">S</text>
<rect x="42.350000" y="191.000000" width="24.000000" height="24.000000" rx="0.1" ry="0.1" style="stroke:none;fill:#aaaaaa;;filter:url(#filter);"/>
<rect x="41.350000" y="190.000000" width="24.000000" height="24.000000" rx="0" ry="0" style="stroke:none;fill:#f44800;"/>
<text x="53.350000" y="204.000000" font-family="Arial" font-size="7" text-anchor="middle" fill="#FFFFFF">1</text>
<circle cx="43.350000" cy="192.000000" r="1"/>
<line x1="32.350000" y1="181.000000" x2="32.350000" y2="223.000000"  style="stroke: black; stroke-linecap:round; stroke-width:0.25; stroke-dasharray:3,3;"/>
<line x1="32.350000" y1="223.000000" x2="74.350000" y2="223.000000"  style="stroke: black; stroke-linecap:round; stroke-width:0.25; stroke-dasharray:3,3;"/>
<line x1="74.350000" y1="223.000000" x2="74.350000" y2="181.000000"  style="stroke: black; stroke-linecap:round; stroke-width:0.25; stroke-dasharray:3,3;"/>
<line x1="32.350000" y1="181.000000" x2="37.350000" y2="181.000000"  style="stroke: black; stroke-linecap:round; stroke-width:0.25; stroke-dasharray:3,3;"/>
<line x1="47.025000" y1="181.000000" x2="74.350000" y2="181.000000"  style="stroke: black; stroke-linecap:round; stroke-width:0.25; stroke-dasharray:3,3;"/>
<text x="37.350000" y="183.000000" font-family="Arial" font-size="7">S</text>
<rect x="35.000000" y="243.000000" width="38.700000" height="24.000000" rx="0.1" ry="0.1" style="stroke:none;fill:#aaaaaa;;filter:url(#filter);"/>
<rect x="34.000000" y="242.000000" width="38.700000" height="24.000000" rx="0" ry="0" style="stroke:none;fill:#f44800;"/>
<text x="53.350000" y="256.000000" font-family="Arial" font-size="7" text-anchor="middle" fill="#FFFFFF">0.71831</text>
<circle cx="36.000000" cy="244.000000" r="1"/>
<line x1="25.000000" y1="233.000000" x2="25.000000" y2="275.000000"  style="stroke: black; stroke-linecap:round; stroke-width:0.25; stroke-dasharray:3,3;"/>
<line x1="25.000000" y1="275.000000" x2="81.700000" y2="275.000000"  style="stroke: black; stroke-linecap:round; stroke-width:0.25; stroke-dasharray:3,3;"/>
<line x1="81.700000" y1="275.000000" x2="81.700000" y2="233.000000"  style="stroke: black; stroke-linecap:round; stroke-width:0.25; stroke-dasharray:3,3;"/>
<line x1="25.000000" y1="233.000000" x2="30.000000" y2="233.000000"  style="stroke: black; stroke-linecap:round; stroke-width:0.25; stroke-dasharray:3,3;"/>
<line x1="42.900000" y1="233.000000" x2="81.700000" y2="233.000000"  style="stroke: black; stroke-linecap:round; stroke-width:0.25; stroke-dasharray:3,3;"/>
<text x="30.000000" y="235.000000" font-family="Arial" font-size="7">fd</text>
<rect x="99.700000" y="191.000000" width="38.700000" height="24.000000" rx="0.1" ry="0.1" style="stroke:none;fill:#aaaaaa;;filter:url(#filter);"/>
<rect x="98.700000" y="190.000000" width="38.700000" height="24.000000" rx="0" ry="0" style="stroke:none;fill:#4B71A1;"/>
<text x="118.050000" y="204.000000" font-family="Arial" font-size="7" text-anchor="middle" fill="#FFFFFF">select2</text>
<circle cx="100.700000" cy="192.000000" r="1"/>
<line x1="95.700000" y1="193.000000" x2="98.700000" y2="194.000000"  transform="rotate(0.000000,98.700000,194.000000)" style="stroke: black; stroke-width:0.25;"/>
<line x1="95.700000" y1="195.000000" x2="98.700000" y2="194.000000"  transform="rotate(0.000000,98.700000,194.000000)" style="stroke: black; stroke-width:0.25;"/>
<line x1="95.700000" y1="201.000000" x2="98.700000" y2="202.000000"  transform="rotate(0.000000,98.700000,202.000000)" style="stroke: black; stroke-width:0.25;"/>
<line x1="95.700000" y1="203.000000" x2="98.700000" y2="202.000000"  transform="rotate(0.000000,98.700000,202.000000)" style="stroke: black; stroke-width:0.25;"/>
<line x1="95.700000" y1="209.000000" x2="98.700000" y2="210.000000"  transform="rotate(0.000000,98.700000,210.000000)" style="stroke: black; stroke-width:0.25;"/>
<line x1="95.700000" y1="211.000000" x2="98.700000" y2="210.000000"  transform="rotate(0.000000,98.700000,210.000000)" style="stroke: black; stroke-width:0.25;"/>
<rect x="162.400000" y="139.000000" width="38.700000" height="24.000000" rx="0.1" ry="0.1" style="stroke:none;fill:#aaaaaa;;filter:url(#filter);"/>
<rect x="161.400000" y="138.000000" width="38.700000" height="24.000000" rx="0" ry="0" style="stroke:none;fill:#4B71A1;"/>
<text x="180.750000" y="152.000000" font-family="Arial" font-size="7" text-anchor="middle" fill="#FFFFFF">select2</text>
<circle cx="163.400000" cy="140.000000" r="1"/>
<line x1="158.400000" y1="141.000000" x2="161.400000" y2="142.000000"  transform="rotate(0.000000,161.400000,142.000000)" style="stroke: black; stroke-width:0.25;"/>
<line x1="158.400000" y1="143.000000" x2="161.400000" y2="142.000000"  transform="rotate(0.000000,161.400000,142.000000)" style="stroke: black; stroke-width:0.25;"/>
<line x1="158.400000" y1="149.000000" x2="161.400000" y2="150.000000"  transform="rotate(0.000000,161.400000,150.000000)" style="stroke: black; stroke-width:0.25;"/>
<line x1="158.400000" y1="151.000000" x2="161.400000" y2="150.000000"  transform="rotate(0.000000,161.400000,150.000000)" style="stroke: black; stroke-width:0.25;"/>
<line x1="158.400000" y1="157.000000" x2="161.400000" y2="158.000000"  transform="rotate(0.000000,161.400000,158.000000)" style="stroke: black; stroke-width:0.25;"/>
<line x1="158.400000" y1="159.000000" x2="161.400000" y2="158.000000"  transform="rotate(0.000000,161.400000,158.000000)" style="stroke: black; stroke-width:0.25;"/>
<line x1="15.000000" y1="15.000000" x2="15.000000" y2="285.000000"  style="stroke: black; stroke-linecap:round; stroke-width:0.25; stroke-dasharray:3,3;"/>
<line x1="15.000000" y1="285.000000" x2="217.100000" y2="285.000000"  style="stroke: black; stroke-linecap:round; stroke-width:0.25; stroke-dasharray:3,3;"/>
<line x1="217.100000" y1="285.000000" x2="217.100000" y2="15.000000"  style="stroke: black; stroke-linecap:round; stroke-width:0.25; stroke-dasharray:3,3;"/>
<line x1="15.000000" y1="15.000000" x2="20.000000" y2="15.000000"  style="stroke: black; stroke-linecap:round; stroke-width:0.25; stroke-dasharray:3,3;"/>
<line x1="132.875000" y1="15.000000" x2="217.100000" y2="15.000000"  style="stroke: black; stroke-linecap:round; stroke-width:0.25; stroke-dasharray:3,3;"/>
<text x="20.000000" y="17.000000" font-family="Arial" font-size="7">facs1(2)(0.71830985915481604f)(1)</text>
<line x1="219.100000" y1="149.000000" x2="222.100000" y2="150.000000"  transform="rotate(0.000000,222.100000,150.000000)" style="stroke: black; stroke-width:0.25;"/>
<line x1="219.100000" y1="151.000000" x2="222.100000" y2="150.000000"  transform="rotate(0.000000,222.100000,150.000000)" style="stroke: black; stroke-width:0.25;"/>
<line x1="65.350000" y1="150.000000" x2="69.350000" y2="150.000000"  style="stroke:black; stroke-linecap:round; stroke-width:0.25;"/>
<line x1="65.350000" y1="202.000000" x2="69.350000" y2="202.000000"  style="stroke:black; stroke-linecap:round; stroke-width:0.25;"/>
<line x1="69.350000" y1="150.000000" x2="79.350000" y2="150.000000"  style="stroke:black; stroke-linecap:round; stroke-width:0.25;"/>
<line x1="69.350000" y1="202.000000" x2="79.350000" y2="202.000000"  style="stroke:black; stroke-linecap:round; stroke-width:0.25;"/>
<line x1="72.700000" y1="254.000000" x2="76.700000" y2="254.000000"  style="stroke:black; stroke-linecap:round; stroke-width:0.25;"/>
<line x1="76.700000" y1="254.000000" x2="86.700000" y2="254.000000"  style="stroke:black; stroke-linecap:round; stroke-width:0.25;"/>
<line x1="79.350000" y1="150.000000" x2="86.700000" y2="150.000000"  style="stroke:black; stroke-linecap:round; stroke-width:0.25;"/>
<line x1="79.350000" y1="202.000000" x2="86.700000" y2="202.000000"  style="stroke:black; stroke-linecap:round; stroke-width:0.25;"/>
<line x1="86.700000" y1="150.000000" x2="94.700000" y2="150.000000"  style="stroke:black; stroke-linecap:round; stroke-width:0.25;"/>
<line x1="86.700000" y1="202.000000" x2="94.700000" y2="202.000000"  style="stroke:black; stroke-linecap:round; stroke-width:0.25;"/>
<line x1="86.700000" y1="210.000000" x2="94.700000" y2="210.000000"  style="stroke:black; stroke-linecap:round; stroke-width:0.25;"/>
<line x1="86.700000" y1="254.000000" x2="86.700000" y2="210.000000"  style="stroke:black; stroke-linecap:round; stroke-width:0.25;"/>
<line x1="86.700000" y1="254.000000" x2="86.700000" y2="254.000000"  style="stroke:black; stroke-linecap:round; stroke-width:0.25;"/>
<line x1="92.700000" y1="46.000000" x2="96.700000" y2="46.000000"  style="stroke:black; stroke-linecap:round; stroke-width:0.25;"/>
<line x1="92.700000" y1="98.000000" x2="96.700000" y2="98.000000"  style="stroke:black; stroke-linecap:round; stroke-width:0.25;"/>
<line x1="94.700000" y1="150.000000" x2="94.700000" y2="194.000000"  style="stroke:black; stroke-linecap:round; stroke-width:0.25;"/>
<line x1="94.700000" y1="194.000000" x2="94.700000" y2="194.000000"  style="stroke:black; stroke-linecap:round; stroke-width:0.25;"/>
<line x1="94.700000" y1="194.000000" x2="98.700000" y2="194.000000"  style="stroke:black; stroke-linecap:round; stroke-width:0.25;"/>
<line x1="94.700000" y1="202.000000" x2="98.700000" y2="202.000000"  style="stroke:black; stroke-linecap:round; stroke-width:0.25;"/>
<line x1="94.700000" y1="210.000000" x2="98.700000" y2="210.000000"  style="stroke:black; stroke-linecap:round; stroke-width:0.25;"/>
<line x1="96.700000" y1="46.000000" x2="106.700000" y2="46.000000"  style="stroke:black; stroke-linecap:round; stroke-width:0.25;"/>
<line x1="96.700000" y1="98.000000" x2="106.700000" y2="98.000000"  style="stroke:black; stroke-linecap:round; stroke-width:0.25;"/>
<line x1="106.700000" y1="46.000000" x2="141.400000" y2="46.000000"  style="stroke:black; stroke-linecap:round; stroke-width:0.25;"/>
<line x1="106.700000" y1="98.000000" x2="141.400000" y2="98.000000"  style="stroke:black; stroke-linecap:round; stroke-width:0.25;"/>
<line x1="137.400000" y1="202.000000" x2="141.400000" y2="202.000000"  style="stroke:black; stroke-linecap:round; stroke-width:0.25;"/>
<line x1="141.400000" y1="46.000000" x2="157.400000" y2="46.000000"  style="stroke:black; stroke-linecap:round; stroke-width:0.25;"/>
<line x1="141.400000" y1="98.000000" x2="149.400000" y2="98.000000"  style="stroke:black; stroke-linecap:round; stroke-width:0.25;"/>
<line x1="141.400000" y1="158.000000" x2="157.400000" y2="158.000000"  style="stroke:black; stroke-linecap:round; stroke-width:0.25;"/>
<line x1="141.400000" y1="202.000000" x2="141.400000" y2="158.000000"  style="stroke:black; stroke-linecap:round; stroke-width:0.25;"/>
<line x1="141.400000" y1="202.000000" x2="141.400000" y2="202.000000"  style="stroke:black; stroke-linecap:round; stroke-width:0.25;"/>
<line x1="149.400000" y1="98.000000" x2="149.400000" y2="150.000000"  style="stroke:black; stroke-linecap:round; stroke-width:0.25;"/>
<line x1="149.400000" y1="150.000000" x2="157.400000" y2="150.000000"  style="stroke:black; stroke-linecap:round; stroke-width:0.25;"/>
<line x1="157.400000" y1="46.000000" x2="157.400000" y2="142.000000"  style="stroke:black; stroke-linecap:round; stroke-width:0.25;"/>
<line x1="157.400000" y1="142.000000" x2="157.400000" y2="142.000000"  style="stroke:black; stroke-linecap:round; stroke-width:0.25;"/>
<line x1="157.400000" y1="142.000000" x2="161.400000" y2="142.000000"  style="stroke:black; stroke-linecap:round; stroke-width:0.25;"/>
<line x1="157.400000" y1="150.000000" x2="161.400000" y2="150.000000"  style="stroke:black; stroke-linecap:round; stroke-width:0.25;"/>
<line x1="157.400000" y1="158.000000" x2="161.400000" y2="158.000000"  style="stroke:black; stroke-linecap:round; stroke-width:0.25;"/>
<line x1="200.100000" y1="150.000000" x2="204.100000" y2="150.000000"  style="stroke:black; stroke-linecap:round; stroke-width:0.25;"/>
<line x1="204.100000" y1="150.000000" x2="204.100000" y2="150.000000"  style="stroke:black; stroke-linecap:round; stroke-width:0.25;"/>
<line x1="204.100000" y1="150.000000" x2="208.100000" y2="150.000000"  style="stroke:black; stroke-linecap:round; stroke-width:0.25;"/>
<line x1="208.100000" y1="150.000000" x2="212.100000" y2="150.000000"  style="stroke:black; stroke-linecap:round; stroke-width:0.25;"/>
<line x1="212.100000" y1="150.000000" x2="222.100000" y2="150.000000"  style="stroke:black; stroke-linecap:round; stroke-width:0.25;"/>
</svg>
