<?xml version="1.0"?>
<svg xmlns="http://www.w3.org/2000/svg" xmlns:xlink="http://www.w3.org/1999/xlink" viewBox="0 0 272.100000 436.000000" width="136.050000mm" height="218.000000mm" version="1.1">
<defs>
   <filter id="filter" filterRes="18" x="0" y="0">
     <feGaussianBlur in="SourceGraphic" stdDeviation="1.55" result="blur"/>
     <feOffset in="blur" dx="3" dy="3"/>
   </filter>
</defs>
<a xlink:href="h-0x7f8f931a1730.svg">
<rect x="1.000000" y="1.000000" width="271.100000" height="435.000000" rx="0.1" ry="0.1" style="stroke:none;fill:#aaaaaa;;filter:url(#filter);"/>
<rect x="0.000000" y="0.000000" width="271.100000" height="435.000000" rx="0" ry="0" style="stroke:none;fill:#ffffff;"/>
</a>
<text x="10.000000" y="7.000000" font-family="Arial" font-size="7"></text>
<rect x="89.700000" y="25.000000" width="24.000000" height="24.000000" rx="0.1" ry="0.1" style="stroke:none;fill:#aaaaaa;;filter:url(#filter);"/>
<rect x="88.700000" y="24.000000" width="24.000000" height="24.000000" rx="0" ry="0" style="stroke:none;fill:#f44800;"/>
<text x="100.700000" y="38.000000" font-family="Arial" font-size="7" text-anchor="middle" fill="#FFFFFF">2</text>
<circle cx="90.700000" cy="26.000000" r="1"/>
<rect x="89.700000" y="67.000000" width="24.000000" height="24.000000" rx="0.1" ry="0.1" style="stroke:none;fill:#aaaaaa;;filter:url(#filter);"/>
<rect x="88.700000" y="66.000000" width="24.000000" height="24.000000" rx="0" ry="0" style="stroke:none;fill:#f44800;"/>
<text x="100.700000" y="80.000000" font-family="Arial" font-size="7" text-anchor="middle" fill="#FFFFFF">1</text>
<circle cx="90.700000" cy="68.000000" r="1"/>
<line x1="79.700000" y1="57.000000" x2="79.700000" y2="99.000000"  style="stroke: black; stroke-linecap:round; stroke-width:0.25; stroke-dasharray:3,3;"/>
<line x1="79.700000" y1="99.000000" x2="121.700000" y2="99.000000"  style="stroke: black; stroke-linecap:round; stroke-width:0.25; stroke-dasharray:3,3;"/>
<line x1="121.700000" y1="99.000000" x2="121.700000" y2="57.000000"  style="stroke: black; stroke-linecap:round; stroke-width:0.25; stroke-dasharray:3,3;"/>
<line x1="79.700000" y1="57.000000" x2="84.700000" y2="57.000000"  style="stroke: black; stroke-linecap:round; stroke-width:0.25; stroke-dasharray:3,3;"/>
<line x1="94.375000" y1="57.000000" x2="121.700000" y2="57.000000"  style="stroke: black; stroke-linecap:round; stroke-width:0.25; stroke-dasharray:3,3;"/>
<text x="84.700000" y="59.000000" font-family="Arial" font-size="7">S</text>
<rect x="42.350000" y="119.000000" width="24.000000" height="24.000000" rx="0.1" ry="0.1" style="stroke:none;fill:#aaaaaa;;filter:url(#filter);"/>
<rect x="41.350000" y="118.000000" width="24.000000" height="24.000000" rx="0" ry="0" style="stroke:none;fill:#f44800;"/>
<text x="53.350000" y="132.000000" font-family="Arial" font-size="7" text-anchor="middle" fill="#FFFFFF">1</text>
<circle cx="43.350000" cy="120.000000" r="1"/>
<line x1="32.350000" y1="109.000000" x2="32.350000" y2="151.000000"  style="stroke: black; stroke-linecap:round; stroke-width:0.25; stroke-dasharray:3,3;"/>
<line x1="32.350000" y1="151.000000" x2="74.350000" y2="151.000000"  style="stroke: black; stroke-linecap:round; stroke-width:0.25; stroke-dasharray:3,3;"/>
<line x1="74.350000" y1="151.000000" x2="74.350000" y2="109.000000"  style="stroke: black; stroke-linecap:round; stroke-width:0.25; stroke-dasharray:3,3;"/>
<line x1="32.350000" y1="109.000000" x2="37.350000" y2="109.000000"  style="stroke: black; stroke-linecap:round; stroke-width:0.25; stroke-dasharray:3,3;"/>
<line x1="47.025000" y1="109.000000" x2="74.350000" y2="109.000000"  style="stroke: black; stroke-linecap:round; stroke-width:0.25; stroke-dasharray:3,3;"/>
<text x="37.350000" y="111.000000" font-family="Arial" font-size="7">S</text>
<rect x="42.350000" y="171.000000" width="24.000000" height="24.000000" rx="0.1" ry="0.1" style="stroke:none;fill:#aaaaaa;;filter:url(#filter);"/>
<rect x="41.350000" y="170.000000" width="24.000000" height="24.000000" rx="0" ry="0" style="stroke:none;fill:#f44800;"/>
<text x="53.350000" y="184.000000" font-family="Arial" font-size="7" text-anchor="middle" fill="#FFFFFF">1</text>
<circle cx="43.350000" cy="172.000000" r="1"/>
<line x1="32.350000" y1="161.000000" x2="32.350000" y2="203.000000"  style="stroke: black; stroke-linecap:round; stroke-width:0.25; stroke-dasharray:3,3;"/>
<line x1="32.350000" y1="203.000000" x2="74.350000" y2="203.000000"  style="stroke: black; stroke-linecap:round; stroke-width:0.25; stroke-dasharray:3,3;"/>
<line x1="74.350000" y1="203.000000" x2="74.350000" y2="161.000000"  style="stroke: black; stroke-linecap:round; stroke-width:0.25; stroke-dasharray:3,3;"/>
<line x1="32.350000" y1="161.000000" x2="37.350000" y2="161.000000"  style="stroke: black; stroke-linecap:round; stroke-width:0.25; stroke-dasharray:3,3;"/>
<line x1="47.025000" y1="161.000000" x2="74.350000" y2="161.000000"  style="stroke: black; stroke-linecap:round; stroke-width:0.25; stroke-dasharray:3,3;"/>
<text x="37.350000" y="163.000000" font-family="Arial" font-size="7">S</text>
<rect x="35.000000" y="223.000000" width="38.700000" height="24.000000" rx="0.1" ry="0.1" style="stroke:none;fill:#aaaaaa;;filter:url(#filter);"/>
<rect x="34.000000" y="222.000000" width="38.700000" height="24.000000" rx="0" ry="0" style="stroke:none;fill:#f44800;"/>
<text x="53.350000" y="236.000000" font-family="Arial" font-size="7" text-anchor="middle" fill="#FFFFFF">0.359155</text>
<circle cx="36.000000" cy="224.000000" r="1"/>
<line x1="25.000000" y1="213.000000" x2="25.000000" y2="255.000000"  style="stroke: black; stroke-linecap:round; stroke-width:0.25; stroke-dasharray:3,3;"/>
<line x1="25.000000" y1="255.000000" x2="81.700000" y2="255.000000"  style="stroke: black; stroke-linecap:round; stroke-width:0.25; stroke-dasharray:3,3;"/>
<line x1="81.700000" y1="255.000000" x2="81.700000" y2="213.000000"  style="stroke: black; stroke-linecap:round; stroke-width:0.25; stroke-dasharray:3,3;"/>
<line x1="25.000000" y1="213.000000" x2="30.000000" y2="213.000000"  style="stroke: black; stroke-linecap:round; stroke-width:0.25; stroke-dasharray:3,3;"/>
<line x1="81.700000" y1="213.000000" x2="81.700000" y2="213.000000"  style="stroke: black; stroke-linecap:round; stroke-width:0.25; stroke-dasharray:3,3;"/>
<text x="30.000000" y="215.000000" font-family="Arial" font-size="7">fac(0.71830985915481604f)(2)(0)</text>
<rect x="99.700000" y="171.000000" width="38.700000" height="24.000000" rx="0.1" ry="0.1" style="stroke:none;fill:#aaaaaa;;filter:url(#filter);"/>
<rect x="98.700000" y="170.000000" width="38.700000" height="24.000000" rx="0" ry="0" style="stroke:none;fill:#4B71A1;"/>
<text x="118.050000" y="184.000000" font-family="Arial" font-size="7" text-anchor="middle" fill="#FFFFFF">select2</text>
<circle cx="100.700000" cy="172.000000" r="1"/>
<line x1="95.700000" y1="173.000000" x2="98.700000" y2="174.000000"  transform="rotate(0.000000,98.700000,174.000000)" style="stroke: black; stroke-width:0.25;"/>
<line x1="95.700000" y1="175.000000" x2="98.700000" y2="174.000000"  transform="rotate(0.000000,98.700000,174.000000)" style="stroke: black; stroke-width:0.25;"/>
<line x1="95.700000" y1="181.000000" x2="98.700000" y2="182.000000"  transform="rotate(0.000000,98.700000,182.000000)" style="stroke: black; stroke-width:0.25;"/>
<line x1="95.700000" y1="183.000000" x2="98.700000" y2="182.000000"  transform="rotate(0.000000,98.700000,182.000000)" style="stroke: black; stroke-width:0.25;"/>
<line x1="95.700000" y1="189.000000" x2="98.700000" y2="190.000000"  transform="rotate(0.000000,98.700000,190.000000)" style="stroke: black; stroke-width:0.25;"/>
<line x1="95.700000" y1="191.000000" x2="98.700000" y2="190.000000"  transform="rotate(0.000000,98.700000,190.000000)" style="stroke: black; stroke-width:0.25;"/>
<rect x="42.350000" y="275.000000" width="24.000000" height="24.000000" rx="0.1" ry="0.1" style="stroke:none;fill:#aaaaaa;;filter:url(#filter);"/>
<rect x="41.350000" y="274.000000" width="24.000000" height="24.000000" rx="0" ry="0" style="stroke:none;fill:#f44800;"/>
<text x="53.350000" y="288.000000" font-family="Arial" font-size="7" text-anchor="middle" fill="#FFFFFF">1</text>
<circle cx="43.350000" cy="276.000000" r="1"/>
<line x1="32.350000" y1="265.000000" x2="32.350000" y2="307.000000"  style="stroke: black; stroke-linecap:round; stroke-width:0.25; stroke-dasharray:3,3;"/>
<line x1="32.350000" y1="307.000000" x2="74.350000" y2="307.000000"  style="stroke: black; stroke-linecap:round; stroke-width:0.25; stroke-dasharray:3,3;"/>
<line x1="74.350000" y1="307.000000" x2="74.350000" y2="265.000000"  style="stroke: black; stroke-linecap:round; stroke-width:0.25; stroke-dasharray:3,3;"/>
<line x1="32.350000" y1="265.000000" x2="37.350000" y2="265.000000"  style="stroke: black; stroke-linecap:round; stroke-width:0.25; stroke-dasharray:3,3;"/>
<line x1="47.025000" y1="265.000000" x2="74.350000" y2="265.000000"  style="stroke: black; stroke-linecap:round; stroke-width:0.25; stroke-dasharray:3,3;"/>
<text x="37.350000" y="267.000000" font-family="Arial" font-size="7">S</text>
<rect x="42.350000" y="327.000000" width="24.000000" height="24.000000" rx="0.1" ry="0.1" style="stroke:none;fill:#aaaaaa;;filter:url(#filter);"/>
<rect x="41.350000" y="326.000000" width="24.000000" height="24.000000" rx="0" ry="0" style="stroke:none;fill:#f44800;"/>
<text x="53.350000" y="340.000000" font-family="Arial" font-size="7" text-anchor="middle" fill="#FFFFFF">1</text>
<circle cx="43.350000" cy="328.000000" r="1"/>
<line x1="32.350000" y1="317.000000" x2="32.350000" y2="359.000000"  style="stroke: black; stroke-linecap:round; stroke-width:0.25; stroke-dasharray:3,3;"/>
<line x1="32.350000" y1="359.000000" x2="74.350000" y2="359.000000"  style="stroke: black; stroke-linecap:round; stroke-width:0.25; stroke-dasharray:3,3;"/>
<line x1="74.350000" y1="359.000000" x2="74.350000" y2="317.000000"  style="stroke: black; stroke-linecap:round; stroke-width:0.25; stroke-dasharray:3,3;"/>
<line x1="32.350000" y1="317.000000" x2="37.350000" y2="317.000000"  style="stroke: black; stroke-linecap:round; stroke-width:0.25; stroke-dasharray:3,3;"/>
<line x1="47.025000" y1="317.000000" x2="74.350000" y2="317.000000"  style="stroke: black; stroke-linecap:round; stroke-width:0.25; stroke-dasharray:3,3;"/>
<text x="37.350000" y="319.000000" font-family="Arial" font-size="7">S</text>
<rect x="35.000000" y="379.000000" width="38.700000" height="24.000000" rx="0.1" ry="0.1" style="stroke:none;fill:#aaaaaa;;filter:url(#filter);"/>
<rect x="34.000000" y="378.000000" width="38.700000" height="24.000000" rx="0" ry="0" style="stroke:none;fill:#f44800;"/>
<text x="53.350000" y="392.000000" font-family="Arial" font-size="7" text-anchor="middle" fill="#FFFFFF">-0.28169</text>
<circle cx="36.000000" cy="380.000000" r="1"/>
<line x1="25.000000" y1="369.000000" x2="25.000000" y2="411.000000"  style="stroke: black; stroke-linecap:round; stroke-width:0.25; stroke-dasharray:3,3;"/>
<line x1="25.000000" y1="411.000000" x2="81.700000" y2="411.000000"  style="stroke: black; stroke-linecap:round; stroke-width:0.25; stroke-dasharray:3,3;"/>
<line x1="81.700000" y1="411.000000" x2="81.700000" y2="369.000000"  style="stroke: black; stroke-linecap:round; stroke-width:0.25; stroke-dasharray:3,3;"/>
<line x1="25.000000" y1="369.000000" x2="30.000000" y2="369.000000"  style="stroke: black; stroke-linecap:round; stroke-width:0.25; stroke-dasharray:3,3;"/>
<line x1="81.700000" y1="369.000000" x2="81.700000" y2="369.000000"  style="stroke: black; stroke-linecap:round; stroke-width:0.25; stroke-dasharray:3,3;"/>
<text x="30.000000" y="371.000000" font-family="Arial" font-size="7">fac(0.71830985915481604f)(2)(1)</text>
<rect x="99.700000" y="327.000000" width="38.700000" height="24.000000" rx="0.1" ry="0.1" style="stroke:none;fill:#aaaaaa;;filter:url(#filter);"/>
<rect x="98.700000" y="326.000000" width="38.700000" height="24.000000" rx="0" ry="0" style="stroke:none;fill:#4B71A1;"/>
<text x="118.050000" y="340.000000" font-family="Arial" font-size="7" text-anchor="middle" fill="#FFFFFF">select2</text>
<circle cx="100.700000" cy="328.000000" r="1"/>
<line x1="95.700000" y1="329.000000" x2="98.700000" y2="330.000000"  transform="rotate(0.000000,98.700000,330.000000)" style="stroke: black; stroke-width:0.25;"/>
<line x1="95.700000" y1="331.000000" x2="98.700000" y2="330.000000"  transform="rotate(0.000000,98.700000,330.000000)" style="stroke: black; stroke-width:0.25;"/>
<line x1="95.700000" y1="337.000000" x2="98.700000" y2="338.000000"  transform="rotate(0.000000,98.700000,338.000000)" style="stroke: black; stroke-width:0.25;"/>
<line x1="95.700000" y1="339.000000" x2="98.700000" y2="338.000000"  transform="rotate(0.000000,98.700000,338.000000)" style="stroke: black; stroke-width:0.25;"/>
<line x1="95.700000" y1="345.000000" x2="98.700000" y2="346.000000"  transform="rotate(0.000000,98.700000,346.000000)" style="stroke: black; stroke-width:0.25;"/>
<line x1="95.700000" y1="347.000000" x2="98.700000" y2="346.000000"  transform="rotate(0.000000,98.700000,346.000000)" style="stroke: black; stroke-width:0.25;"/>
<rect x="154.400000" y="249.000000" width="24.000000" height="24.000000" rx="0.1" ry="0.1" style="stroke:none;fill:#aaaaaa;;filter:url(#filter);"/>
<rect x="153.400000" y="248.000000" width="24.000000" height="24.000000" rx="0" ry="0" style="stroke:none;fill:#4B71A1;"/>
<text x="165.400000" y="262.000000" font-family="Arial" font-size="7" text-anchor="middle" fill="#FFFFFF">*</text>
<circle cx="155.400000" cy="250.000000" r="1"/>
<line x1="150.400000" y1="255.000000" x2="153.400000" y2="256.000000"  transform="rotate(0.000000,153.400000,256.000000)" style="stroke: black; stroke-width:0.25;"/>
<line x1="150.400000" y1="257.000000" x2="153.400000" y2="256.000000"  transform="rotate(0.000000,153.400000,256.000000)" style="stroke: black; stroke-width:0.25;"/>
<line x1="150.400000" y1="263.000000" x2="153.400000" y2="264.000000"  transform="rotate(0.000000,153.400000,264.000000)" style="stroke: black; stroke-width:0.25;"/>
<line x1="150.400000" y1="265.000000" x2="153.400000" y2="264.000000"  transform="rotate(0.000000,153.400000,264.000000)" style="stroke: black; stroke-width:0.25;"/>
<rect x="202.400000" y="207.000000" width="38.700000" height="24.000000" rx="0.1" ry="0.1" style="stroke:none;fill:#aaaaaa;;filter:url(#filter);"/>
<rect x="201.400000" y="206.000000" width="38.700000" height="24.000000" rx="0" ry="0" style="stroke:none;fill:#4B71A1;"/>
<text x="220.750000" y="220.000000" font-family="Arial" font-size="7" text-anchor="middle" fill="#FFFFFF">select2</text>
<circle cx="203.400000" cy="208.000000" r="1"/>
<line x1="198.400000" y1="209.000000" x2="201.400000" y2="210.000000"  transform="rotate(0.000000,201.400000,210.000000)" style="stroke: black; stroke-width:0.25;"/>
<line x1="198.400000" y1="211.000000" x2="201.400000" y2="210.000000"  transform="rotate(0.000000,201.400000,210.000000)" style="stroke: black; stroke-width:0.25;"/>
<line x1="198.400000" y1="217.000000" x2="201.400000" y2="218.000000"  transform="rotate(0.000000,201.400000,218.000000)" style="stroke: black; stroke-width:0.25;"/>
<line x1="198.400000" y1="219.000000" x2="201.400000" y2="218.000000"  transform="rotate(0.000000,201.400000,218.000000)" style="stroke: black; stroke-width:0.25;"/>
<line x1="198.400000" y1="225.000000" x2="201.400000" y2="226.000000"  transform="rotate(0.000000,201.400000,226.000000)" style="stroke: black; stroke-width:0.25;"/>
<line x1="198.400000" y1="227.000000" x2="201.400000" y2="226.000000"  transform="rotate(0.000000,201.400000,226.000000)" style="stroke: black; stroke-width:0.25;"/>
<line x1="15.000000" y1="15.000000" x2="15.000000" y2="421.000000"  style="stroke: black; stroke-linecap:round; stroke-width:0.25; stroke-dasharray:3,3;"/>
<line x1="15.000000" y1="421.000000" x2="257.100000" y2="421.000000"  style="stroke: black; stroke-linecap:round; stroke-width:0.25; stroke-dasharray:3,3;"/>
<line x1="257.100000" y1="421.000000" x2="257.100000" y2="15.000000"  style="stroke: black; stroke-linecap:round; stroke-width:0.25; stroke-dasharray:3,3;"/>
<line x1="15.000000" y1="15.000000" x2="20.000000" y2="15.000000"  style="stroke: black; stroke-linecap:round; stroke-width:0.25; stroke-dasharray:3,3;"/>
<line x1="132.875000" y1="15.000000" x2="257.100000" y2="15.000000"  style="stroke: black; stroke-linecap:round; stroke-width:0.25; stroke-dasharray:3,3;"/>
<text x="20.000000" y="17.000000" font-family="Arial" font-size="7">facs1(2)(0.71830985915481604f)(2)</text>
<line x1="259.100000" y1="217.000000" x2="262.100000" y2="218.000000"  transform="rotate(0.000000,262.100000,218.000000)" style="stroke: black; stroke-width:0.25;"/>
<line x1="259.100000" y1="219.000000" x2="262.100000" y2="218.000000"  transform="rotate(0.000000,262.100000,218.000000)" style="stroke: black; stroke-width:0.25;"/>
<line x1="65.350000" y1="130.000000" x2="69.350000" y2="130.000000"  style="stroke:black; stroke-linecap:round; stroke-width:0.25;"/>
<line x1="65.350000" y1="182.000000" x2="69.350000" y2="182.000000"  style="stroke:black; stroke-linecap:round; stroke-width:0.25;"/>
<line x1="65.350000" y1="286.000000" x2="69.350000" y2="286.000000"  style="stroke:black; stroke-linecap:round; stroke-width:0.25;"/>
<line x1="65.350000" y1="338.000000" x2="69.350000" y2="338.000000"  style="stroke:black; stroke-linecap:round; stroke-width:0.25;"/>
<line x1="69.350000" y1="130.000000" x2="79.350000" y2="130.000000"  style="stroke:black; stroke-linecap:round; stroke-width:0.25;"/>
<line x1="69.350000" y1="182.000000" x2="79.350000" y2="182.000000"  style="stroke:black; stroke-linecap:round; stroke-width:0.25;"/>
<line x1="69.350000" y1="286.000000" x2="79.350000" y2="286.000000"  style="stroke:black; stroke-linecap:round; stroke-width:0.25;"/>
<line x1="69.350000" y1="338.000000" x2="79.350000" y2="338.000000"  style="stroke:black; stroke-linecap:round; stroke-width:0.25;"/>
<line x1="72.700000" y1="234.000000" x2="76.700000" y2="234.000000"  style="stroke:black; stroke-linecap:round; stroke-width:0.25;"/>
<line x1="72.700000" y1="390.000000" x2="76.700000" y2="390.000000"  style="stroke:black; stroke-linecap:round; stroke-width:0.25;"/>
<line x1="76.700000" y1="234.000000" x2="86.700000" y2="234.000000"  style="stroke:black; stroke-linecap:round; stroke-width:0.25;"/>
<line x1="76.700000" y1="390.000000" x2="86.700000" y2="390.000000"  style="stroke:black; stroke-linecap:round; stroke-width:0.25;"/>
<line x1="79.350000" y1="130.000000" x2="86.700000" y2="130.000000"  style="stroke:black; stroke-linecap:round; stroke-width:0.25;"/>
<line x1="79.350000" y1="182.000000" x2="86.700000" y2="182.000000"  style="stroke:black; stroke-linecap:round; stroke-width:0.25;"/>
<line x1="79.350000" y1="286.000000" x2="86.700000" y2="286.000000"  style="stroke:black; stroke-linecap:round; stroke-width:0.25;"/>
<line x1="79.350000" y1="338.000000" x2="86.700000" y2="338.000000"  style="stroke:black; stroke-linecap:round; stroke-width:0.25;"/>
<line x1="86.700000" y1="130.000000" x2="94.700000" y2="130.000000"  style="stroke:black; stroke-linecap:round; stroke-width:0.25;"/>
<line x1="86.700000" y1="182.000000" x2="94.700000" y2="182.000000"  style="stroke:black; stroke-linecap:round; stroke-width:0.25;"/>
<line x1="86.700000" y1="190.000000" x2="94.700000" y2="190.000000"  style="stroke:black; stroke-linecap:round; stroke-width:0.25;"/>
<line x1="86.700000" y1="234.000000" x2="86.700000" y2="190.000000"  style="stroke:black; stroke-linecap:round; stroke-width:0.25;"/>
<line x1="86.700000" y1="234.000000" x2="86.700000" y2="234.000000"  style="stroke:black; stroke-linecap:round; stroke-width:0.25;"/>
<line x1="86.700000" y1="286.000000" x2="94.700000" y2="286.000000"  style="stroke:black; stroke-linecap:round; stroke-width:0.25;"/>
<line x1="86.700000" y1="338.000000" x2="94.700000" y2="338.000000"  style="stroke:black; stroke-linecap:round; stroke-width:0.25;"/>
<line x1="86.700000" y1="346.000000" x2="94.700000" y2="346.000000"  style="stroke:black; stroke-linecap:round; stroke-width:0.25;"/>
<line x1="86.700000" y1="390.000000" x2="86.700000" y2="346.000000"  style="stroke:black; stroke-linecap:round; stroke-width:0.25;"/>
<line x1="86.700000" y1="390.000000" x2="86.700000" y2="390.000000"  style="stroke:black; stroke-linecap:round; stroke-width:0.25;"/>
<line x1="94.700000" y1="130.000000" x2="94.700000" y2="174.000000"  style="stroke:black; stroke-linecap:round; stroke-width:0.25;"/>
<line x1="94.700000" y1="174.000000" x2="94.700000" y2="174.000000"  style="stroke:black; stroke-linecap:round; stroke-width:0.25;"/>
<line x1="94.700000" y1="174.000000" x2="98.700000" y2="174.000000"  style="stroke:black; stroke-linecap:round; stroke-width:0.25;"/>
<line x1="94.700000" y1="182.000000" x2="98.700000" y2="182.000000"  style="stroke:black; stroke-linecap:round; stroke-width:0.25;"/>
<line x1="94.700000" y1="190.000000" x2="98.700000" y2="190.000000"  style="stroke:black; stroke-linecap:round; stroke-width:0.25;"/>
<line x1="94.700000" y1="286.000000" x2="94.700000" y2="330.000000"  style="stroke:black; stroke-linecap:round; stroke-width:0.25;"/>
<line x1="94.700000" y1="330.000000" x2="94.700000" y2="330.000000"  style="stroke:black; stroke-linecap:round; stroke-width:0.25;"/>
<line x1="94.700000" y1="330.000000" x2="98.700000" y2="330.000000"  style="stroke:black; stroke-linecap:round; stroke-width:0.25;"/>
<line x1="94.700000" y1="338.000000" x2="98.700000" y2="338.000000"  style="stroke:black; stroke-linecap:round; stroke-width:0.25;"/>
<line x1="94.700000" y1="346.000000" x2="98.700000" y2="346.000000"  style="stroke:black; stroke-linecap:round; stroke-width:0.25;"/>
<line x1="112.700000" y1="36.000000" x2="116.700000" y2="36.000000"  style="stroke:black; stroke-linecap:round; stroke-width:0.25;"/>
<line x1="112.700000" y1="78.000000" x2="116.700000" y2="78.000000"  style="stroke:black; stroke-linecap:round; stroke-width:0.25;"/>
<line x1="116.700000" y1="36.000000" x2="181.400000" y2="36.000000"  style="stroke:black; stroke-linecap:round; stroke-width:0.25;"/>
<line x1="116.700000" y1="78.000000" x2="126.700000" y2="78.000000"  style="stroke:black; stroke-linecap:round; stroke-width:0.25;"/>
<line x1="126.700000" y1="78.000000" x2="181.400000" y2="78.000000"  style="stroke:black; stroke-linecap:round; stroke-width:0.25;"/>
<line x1="137.400000" y1="182.000000" x2="141.400000" y2="182.000000"  style="stroke:black; stroke-linecap:round; stroke-width:0.25;"/>
<line x1="137.400000" y1="338.000000" x2="141.400000" y2="338.000000"  style="stroke:black; stroke-linecap:round; stroke-width:0.25;"/>
<line x1="141.400000" y1="182.000000" x2="149.400000" y2="182.000000"  style="stroke:black; stroke-linecap:round; stroke-width:0.25;"/>
<line x1="141.400000" y1="264.000000" x2="149.400000" y2="264.000000"  style="stroke:black; stroke-linecap:round; stroke-width:0.25;"/>
<line x1="141.400000" y1="338.000000" x2="141.400000" y2="264.000000"  style="stroke:black; stroke-linecap:round; stroke-width:0.25;"/>
<line x1="141.400000" y1="338.000000" x2="141.400000" y2="338.000000"  style="stroke:black; stroke-linecap:round; stroke-width:0.25;"/>
<line x1="149.400000" y1="182.000000" x2="149.400000" y2="256.000000"  style="stroke:black; stroke-linecap:round; stroke-width:0.25;"/>
<line x1="149.400000" y1="256.000000" x2="149.400000" y2="256.000000"  style="stroke:black; stroke-linecap:round; stroke-width:0.25;"/>
<line x1="149.400000" y1="256.000000" x2="153.400000" y2="256.000000"  style="stroke:black; stroke-linecap:round; stroke-width:0.25;"/>
<line x1="149.400000" y1="264.000000" x2="153.400000" y2="264.000000"  style="stroke:black; stroke-linecap:round; stroke-width:0.25;"/>
<line x1="177.400000" y1="260.000000" x2="181.400000" y2="260.000000"  style="stroke:black; stroke-linecap:round; stroke-width:0.25;"/>
<line x1="181.400000" y1="36.000000" x2="197.400000" y2="36.000000"  style="stroke:black; stroke-linecap:round; stroke-width:0.25;"/>
<line x1="181.400000" y1="78.000000" x2="189.400000" y2="78.000000"  style="stroke:black; stroke-linecap:round; stroke-width:0.25;"/>
<line x1="181.400000" y1="226.000000" x2="197.400000" y2="226.000000"  style="stroke:black; stroke-linecap:round; stroke-width:0.25;"/>
<line x1="181.400000" y1="260.000000" x2="181.400000" y2="226.000000"  style="stroke:black; stroke-linecap:round; stroke-width:0.25;"/>
<line x1="181.400000" y1="260.000000" x2="181.400000" y2="260.000000"  style="stroke:black; stroke-linecap:round; stroke-width:0.25;"/>
<line x1="189.400000" y1="78.000000" x2="189.400000" y2="218.000000"  style="stroke:black; stroke-linecap:round; stroke-width:0.25;"/>
<line x1="189.400000" y1="218.000000" x2="197.400000" y2="218.000000"  style="stroke:black; stroke-linecap:round; stroke-width:0.25;"/>
<line x1="197.400000" y1="36.000000" x2="197.400000" y2="210.000000"  style="stroke:black; stroke-linecap:round; stroke-width:0.25;"/>
<line x1="197.400000" y1="210.000000" x2="197.400000" y2="210.000000"  style="stroke:black; stroke-linecap:round; stroke-width:0.25;"/>
<line x1="197.400000" y1="210.000000" x2="201.400000" y2="210.000000"  style="stroke:black; stroke-linecap:round; stroke-width:0.25;"/>
<line x1="197.400000" y1="218.000000" x2="201.400000" y2="218.000000"  style="stroke:black; stroke-linecap:round; stroke-width:0.25;"/>
<line x1="197.400000" y1="226.000000" x2="201.400000" y2="226.000000"  style="stroke:black; stroke-linecap:round; stroke-width:0.25;"/>
<line x1="240.100000" y1="218.000000" x2="244.100000" y2="218.000000"  style="stroke:black; stroke-linecap:round; stroke-width:0.25;"/>
<line x1="244.100000" y1="218.000000" x2="244.100000" y2="218.000000"  style="stroke:black; stroke-linecap:round; stroke-width:0.25;"/>
<line x1="244.100000" y1="218.000000" x2="248.100000" y2="218.000000"  style="stroke:black; stroke-linecap:round; stroke-width:0.25;"/>
<line x1="248.100000" y1="218.000000" x2="252.100000" y2="218.000000"  style="stroke:black; stroke-linecap:round; stroke-width:0.25;"/>
<line x1="252.100000" y1="218.000000" x2="262.100000" y2="218.000000"  style="stroke:black; stroke-linecap:round; stroke-width:0.25;"/>
</svg>
