<?xml version="1.0"?>
<svg xmlns="http://www.w3.org/2000/svg" xmlns:xlink="http://www.w3.org/1999/xlink" viewBox="0 0 285.000000 436.000000" width="142.500000mm" height="218.000000mm" version="1.1">
<defs>
   <filter id="filter" filterRes="18" x="0" y="0">
     <feGaussianBlur in="SourceGraphic" stdDeviation="1.55" result="blur"/>
     <feOffset in="blur" dx="3" dy="3"/>
   </filter>
</defs>
<a xlink:href="h-0x7f8f93007ac0.svg">
<rect x="1.000000" y="1.000000" width="284.000000" height="435.000000" rx="0.1" ry="0.1" style="stroke:none;fill:#aaaaaa;;filter:url(#filter);"/>
<rect x="0.000000" y="0.000000" width="284.000000" height="435.000000" rx="0" ry="0" style="stroke:none;fill:#ffffff;"/>
</a>
<text x="10.000000" y="7.000000" font-family="Arial" font-size="7"></text>
<rect x="96.150000" y="25.000000" width="24.000000" height="24.000000" rx="0.1" ry="0.1" style="stroke:none;fill:#aaaaaa;;filter:url(#filter);"/>
<rect x="95.150000" y="24.000000" width="24.000000" height="24.000000" rx="0" ry="0" style="stroke:none;fill:#f44800;"/>
<text x="107.150000" y="38.000000" font-family="Arial" font-size="7" text-anchor="middle" fill="#FFFFFF">2</text>
<circle cx="97.150000" cy="26.000000" r="1"/>
<rect x="96.150000" y="67.000000" width="24.000000" height="24.000000" rx="0.1" ry="0.1" style="stroke:none;fill:#aaaaaa;;filter:url(#filter);"/>
<rect x="95.150000" y="66.000000" width="24.000000" height="24.000000" rx="0" ry="0" style="stroke:none;fill:#f44800;"/>
<text x="107.150000" y="80.000000" font-family="Arial" font-size="7" text-anchor="middle" fill="#FFFFFF">1</text>
<circle cx="97.150000" cy="68.000000" r="1"/>
<line x1="86.150000" y1="57.000000" x2="86.150000" y2="99.000000"  style="stroke: black; stroke-linecap:round; stroke-width:0.25; stroke-dasharray:3,3;"/>
<line x1="86.150000" y1="99.000000" x2="128.150000" y2="99.000000"  style="stroke: black; stroke-linecap:round; stroke-width:0.25; stroke-dasharray:3,3;"/>
<line x1="128.150000" y1="99.000000" x2="128.150000" y2="57.000000"  style="stroke: black; stroke-linecap:round; stroke-width:0.25; stroke-dasharray:3,3;"/>
<line x1="86.150000" y1="57.000000" x2="91.150000" y2="57.000000"  style="stroke: black; stroke-linecap:round; stroke-width:0.25; stroke-dasharray:3,3;"/>
<line x1="100.825000" y1="57.000000" x2="128.150000" y2="57.000000"  style="stroke: black; stroke-linecap:round; stroke-width:0.25; stroke-dasharray:3,3;"/>
<text x="91.150000" y="59.000000" font-family="Arial" font-size="7">S</text>
<rect x="48.800000" y="119.000000" width="24.000000" height="24.000000" rx="0.1" ry="0.1" style="stroke:none;fill:#aaaaaa;;filter:url(#filter);"/>
<rect x="47.800000" y="118.000000" width="24.000000" height="24.000000" rx="0" ry="0" style="stroke:none;fill:#f44800;"/>
<text x="59.800000" y="132.000000" font-family="Arial" font-size="7" text-anchor="middle" fill="#FFFFFF">1</text>
<circle cx="49.800000" cy="120.000000" r="1"/>
<line x1="38.800000" y1="109.000000" x2="38.800000" y2="151.000000"  style="stroke: black; stroke-linecap:round; stroke-width:0.25; stroke-dasharray:3,3;"/>
<line x1="38.800000" y1="151.000000" x2="80.800000" y2="151.000000"  style="stroke: black; stroke-linecap:round; stroke-width:0.25; stroke-dasharray:3,3;"/>
<line x1="80.800000" y1="151.000000" x2="80.800000" y2="109.000000"  style="stroke: black; stroke-linecap:round; stroke-width:0.25; stroke-dasharray:3,3;"/>
<line x1="38.800000" y1="109.000000" x2="43.800000" y2="109.000000"  style="stroke: black; stroke-linecap:round; stroke-width:0.25; stroke-dasharray:3,3;"/>
<line x1="53.475000" y1="109.000000" x2="80.800000" y2="109.000000"  style="stroke: black; stroke-linecap:round; stroke-width:0.25; stroke-dasharray:3,3;"/>
<text x="43.800000" y="111.000000" font-family="Arial" font-size="7">S</text>
<rect x="48.800000" y="171.000000" width="24.000000" height="24.000000" rx="0.1" ry="0.1" style="stroke:none;fill:#aaaaaa;;filter:url(#filter);"/>
<rect x="47.800000" y="170.000000" width="24.000000" height="24.000000" rx="0" ry="0" style="stroke:none;fill:#f44800;"/>
<text x="59.800000" y="184.000000" font-family="Arial" font-size="7" text-anchor="middle" fill="#FFFFFF">1</text>
<circle cx="49.800000" cy="172.000000" r="1"/>
<line x1="38.800000" y1="161.000000" x2="38.800000" y2="203.000000"  style="stroke: black; stroke-linecap:round; stroke-width:0.25; stroke-dasharray:3,3;"/>
<line x1="38.800000" y1="203.000000" x2="80.800000" y2="203.000000"  style="stroke: black; stroke-linecap:round; stroke-width:0.25; stroke-dasharray:3,3;"/>
<line x1="80.800000" y1="203.000000" x2="80.800000" y2="161.000000"  style="stroke: black; stroke-linecap:round; stroke-width:0.25; stroke-dasharray:3,3;"/>
<line x1="38.800000" y1="161.000000" x2="43.800000" y2="161.000000"  style="stroke: black; stroke-linecap:round; stroke-width:0.25; stroke-dasharray:3,3;"/>
<line x1="53.475000" y1="161.000000" x2="80.800000" y2="161.000000"  style="stroke: black; stroke-linecap:round; stroke-width:0.25; stroke-dasharray:3,3;"/>
<text x="43.800000" y="163.000000" font-family="Arial" font-size="7">S</text>
<rect x="41.450000" y="223.000000" width="38.700000" height="24.000000" rx="0.1" ry="0.1" style="stroke:none;fill:#aaaaaa;;filter:url(#filter);"/>
<rect x="40.450000" y="222.000000" width="38.700000" height="24.000000" rx="0" ry="0" style="stroke:none;fill:#f44800;"/>
<text x="59.800000" y="236.000000" font-family="Arial" font-size="7" text-anchor="middle" fill="#FFFFFF">0.451289</text>
<circle cx="42.450000" cy="224.000000" r="1"/>
<line x1="31.450000" y1="213.000000" x2="31.450000" y2="255.000000"  style="stroke: black; stroke-linecap:round; stroke-width:0.25; stroke-dasharray:3,3;"/>
<line x1="31.450000" y1="255.000000" x2="88.150000" y2="255.000000"  style="stroke: black; stroke-linecap:round; stroke-width:0.25; stroke-dasharray:3,3;"/>
<line x1="88.150000" y1="255.000000" x2="88.150000" y2="213.000000"  style="stroke: black; stroke-linecap:round; stroke-width:0.25; stroke-dasharray:3,3;"/>
<line x1="31.450000" y1="213.000000" x2="36.450000" y2="213.000000"  style="stroke: black; stroke-linecap:round; stroke-width:0.25; stroke-dasharray:3,3;"/>
<line x1="88.150000" y1="213.000000" x2="88.150000" y2="213.000000"  style="stroke: black; stroke-linecap:round; stroke-width:0.25; stroke-dasharray:3,3;"/>
<text x="36.450000" y="215.000000" font-family="Arial" font-size="7">fac(0.9025787965616574f)(2)(0)</text>
<rect x="106.150000" y="171.000000" width="38.700000" height="24.000000" rx="0.1" ry="0.1" style="stroke:none;fill:#aaaaaa;;filter:url(#filter);"/>
<rect x="105.150000" y="170.000000" width="38.700000" height="24.000000" rx="0" ry="0" style="stroke:none;fill:#4B71A1;"/>
<text x="124.500000" y="184.000000" font-family="Arial" font-size="7" text-anchor="middle" fill="#FFFFFF">select2</text>
<circle cx="107.150000" cy="172.000000" r="1"/>
<line x1="102.150000" y1="173.000000" x2="105.150000" y2="174.000000"  transform="rotate(0.000000,105.150000,174.000000)" style="stroke: black; stroke-width:0.25;"/>
<line x1="102.150000" y1="175.000000" x2="105.150000" y2="174.000000"  transform="rotate(0.000000,105.150000,174.000000)" style="stroke: black; stroke-width:0.25;"/>
<line x1="102.150000" y1="181.000000" x2="105.150000" y2="182.000000"  transform="rotate(0.000000,105.150000,182.000000)" style="stroke: black; stroke-width:0.25;"/>
<line x1="102.150000" y1="183.000000" x2="105.150000" y2="182.000000"  transform="rotate(0.000000,105.150000,182.000000)" style="stroke: black; stroke-width:0.25;"/>
<line x1="102.150000" y1="189.000000" x2="105.150000" y2="190.000000"  transform="rotate(0.000000,105.150000,190.000000)" style="stroke: black; stroke-width:0.25;"/>
<line x1="102.150000" y1="191.000000" x2="105.150000" y2="190.000000"  transform="rotate(0.000000,105.150000,190.000000)" style="stroke: black; stroke-width:0.25;"/>
<rect x="48.800000" y="275.000000" width="24.000000" height="24.000000" rx="0.1" ry="0.1" style="stroke:none;fill:#aaaaaa;;filter:url(#filter);"/>
<rect x="47.800000" y="274.000000" width="24.000000" height="24.000000" rx="0" ry="0" style="stroke:none;fill:#f44800;"/>
<text x="59.800000" y="288.000000" font-family="Arial" font-size="7" text-anchor="middle" fill="#FFFFFF">1</text>
<circle cx="49.800000" cy="276.000000" r="1"/>
<line x1="38.800000" y1="265.000000" x2="38.800000" y2="307.000000"  style="stroke: black; stroke-linecap:round; stroke-width:0.25; stroke-dasharray:3,3;"/>
<line x1="38.800000" y1="307.000000" x2="80.800000" y2="307.000000"  style="stroke: black; stroke-linecap:round; stroke-width:0.25; stroke-dasharray:3,3;"/>
<line x1="80.800000" y1="307.000000" x2="80.800000" y2="265.000000"  style="stroke: black; stroke-linecap:round; stroke-width:0.25; stroke-dasharray:3,3;"/>
<line x1="38.800000" y1="265.000000" x2="43.800000" y2="265.000000"  style="stroke: black; stroke-linecap:round; stroke-width:0.25; stroke-dasharray:3,3;"/>
<line x1="53.475000" y1="265.000000" x2="80.800000" y2="265.000000"  style="stroke: black; stroke-linecap:round; stroke-width:0.25; stroke-dasharray:3,3;"/>
<text x="43.800000" y="267.000000" font-family="Arial" font-size="7">S</text>
<rect x="48.800000" y="327.000000" width="24.000000" height="24.000000" rx="0.1" ry="0.1" style="stroke:none;fill:#aaaaaa;;filter:url(#filter);"/>
<rect x="47.800000" y="326.000000" width="24.000000" height="24.000000" rx="0" ry="0" style="stroke:none;fill:#f44800;"/>
<text x="59.800000" y="340.000000" font-family="Arial" font-size="7" text-anchor="middle" fill="#FFFFFF">1</text>
<circle cx="49.800000" cy="328.000000" r="1"/>
<line x1="38.800000" y1="317.000000" x2="38.800000" y2="359.000000"  style="stroke: black; stroke-linecap:round; stroke-width:0.25; stroke-dasharray:3,3;"/>
<line x1="38.800000" y1="359.000000" x2="80.800000" y2="359.000000"  style="stroke: black; stroke-linecap:round; stroke-width:0.25; stroke-dasharray:3,3;"/>
<line x1="80.800000" y1="359.000000" x2="80.800000" y2="317.000000"  style="stroke: black; stroke-linecap:round; stroke-width:0.25; stroke-dasharray:3,3;"/>
<line x1="38.800000" y1="317.000000" x2="43.800000" y2="317.000000"  style="stroke: black; stroke-linecap:round; stroke-width:0.25; stroke-dasharray:3,3;"/>
<line x1="53.475000" y1="317.000000" x2="80.800000" y2="317.000000"  style="stroke: black; stroke-linecap:round; stroke-width:0.25; stroke-dasharray:3,3;"/>
<text x="43.800000" y="319.000000" font-family="Arial" font-size="7">S</text>
<rect x="35.000000" y="379.000000" width="51.600000" height="24.000000" rx="0.1" ry="0.1" style="stroke:none;fill:#aaaaaa;;filter:url(#filter);"/>
<rect x="34.000000" y="378.000000" width="51.600000" height="24.000000" rx="0" ry="0" style="stroke:none;fill:#f44800;"/>
<text x="59.800000" y="392.000000" font-family="Arial" font-size="7" text-anchor="middle" fill="#FFFFFF">-0.0974212</text>
<circle cx="36.000000" cy="380.000000" r="1"/>
<line x1="25.000000" y1="369.000000" x2="25.000000" y2="411.000000"  style="stroke: black; stroke-linecap:round; stroke-width:0.25; stroke-dasharray:3,3;"/>
<line x1="25.000000" y1="411.000000" x2="94.600000" y2="411.000000"  style="stroke: black; stroke-linecap:round; stroke-width:0.25; stroke-dasharray:3,3;"/>
<line x1="94.600000" y1="411.000000" x2="94.600000" y2="369.000000"  style="stroke: black; stroke-linecap:round; stroke-width:0.25; stroke-dasharray:3,3;"/>
<line x1="25.000000" y1="369.000000" x2="30.000000" y2="369.000000"  style="stroke: black; stroke-linecap:round; stroke-width:0.25; stroke-dasharray:3,3;"/>
<line x1="94.600000" y1="369.000000" x2="94.600000" y2="369.000000"  style="stroke: black; stroke-linecap:round; stroke-width:0.25; stroke-dasharray:3,3;"/>
<text x="30.000000" y="371.000000" font-family="Arial" font-size="7">fac(0.9025787965616574f)(2)(1)</text>
<rect x="112.600000" y="327.000000" width="38.700000" height="24.000000" rx="0.1" ry="0.1" style="stroke:none;fill:#aaaaaa;;filter:url(#filter);"/>
<rect x="111.600000" y="326.000000" width="38.700000" height="24.000000" rx="0" ry="0" style="stroke:none;fill:#4B71A1;"/>
<text x="130.950000" y="340.000000" font-family="Arial" font-size="7" text-anchor="middle" fill="#FFFFFF">select2</text>
<circle cx="113.600000" cy="328.000000" r="1"/>
<line x1="108.600000" y1="329.000000" x2="111.600000" y2="330.000000"  transform="rotate(0.000000,111.600000,330.000000)" style="stroke: black; stroke-width:0.25;"/>
<line x1="108.600000" y1="331.000000" x2="111.600000" y2="330.000000"  transform="rotate(0.000000,111.600000,330.000000)" style="stroke: black; stroke-width:0.25;"/>
<line x1="108.600000" y1="337.000000" x2="111.600000" y2="338.000000"  transform="rotate(0.000000,111.600000,338.000000)" style="stroke: black; stroke-width:0.25;"/>
<line x1="108.600000" y1="339.000000" x2="111.600000" y2="338.000000"  transform="rotate(0.000000,111.600000,338.000000)" style="stroke: black; stroke-width:0.25;"/>
<line x1="108.600000" y1="345.000000" x2="111.600000" y2="346.000000"  transform="rotate(0.000000,111.600000,346.000000)" style="stroke: black; stroke-width:0.25;"/>
<line x1="108.600000" y1="347.000000" x2="111.600000" y2="346.000000"  transform="rotate(0.000000,111.600000,346.000000)" style="stroke: black; stroke-width:0.25;"/>
<rect x="167.300000" y="249.000000" width="24.000000" height="24.000000" rx="0.1" ry="0.1" style="stroke:none;fill:#aaaaaa;;filter:url(#filter);"/>
<rect x="166.300000" y="248.000000" width="24.000000" height="24.000000" rx="0" ry="0" style="stroke:none;fill:#4B71A1;"/>
<text x="178.300000" y="262.000000" font-family="Arial" font-size="7" text-anchor="middle" fill="#FFFFFF">*</text>
<circle cx="168.300000" cy="250.000000" r="1"/>
<line x1="163.300000" y1="255.000000" x2="166.300000" y2="256.000000"  transform="rotate(0.000000,166.300000,256.000000)" style="stroke: black; stroke-width:0.25;"/>
<line x1="163.300000" y1="257.000000" x2="166.300000" y2="256.000000"  transform="rotate(0.000000,166.300000,256.000000)" style="stroke: black; stroke-width:0.25;"/>
<line x1="163.300000" y1="263.000000" x2="166.300000" y2="264.000000"  transform="rotate(0.000000,166.300000,264.000000)" style="stroke: black; stroke-width:0.25;"/>
<line x1="163.300000" y1="265.000000" x2="166.300000" y2="264.000000"  transform="rotate(0.000000,166.300000,264.000000)" style="stroke: black; stroke-width:0.25;"/>
<rect x="215.300000" y="207.000000" width="38.700000" height="24.000000" rx="0.1" ry="0.1" style="stroke:none;fill:#aaaaaa;;filter:url(#filter);"/>
<rect x="214.300000" y="206.000000" width="38.700000" height="24.000000" rx="0" ry="0" style="stroke:none;fill:#4B71A1;"/>
<text x="233.650000" y="220.000000" font-family="Arial" font-size="7" text-anchor="middle" fill="#FFFFFF">select2</text>
<circle cx="216.300000" cy="208.000000" r="1"/>
<line x1="211.300000" y1="209.000000" x2="214.300000" y2="210.000000"  transform="rotate(0.000000,214.300000,210.000000)" style="stroke: black; stroke-width:0.25;"/>
<line x1="211.300000" y1="211.000000" x2="214.300000" y2="210.000000"  transform="rotate(0.000000,214.300000,210.000000)" style="stroke: black; stroke-width:0.25;"/>
<line x1="211.300000" y1="217.000000" x2="214.300000" y2="218.000000"  transform="rotate(0.000000,214.300000,218.000000)" style="stroke: black; stroke-width:0.25;"/>
<line x1="211.300000" y1="219.000000" x2="214.300000" y2="218.000000"  transform="rotate(0.000000,214.300000,218.000000)" style="stroke: black; stroke-width:0.25;"/>
<line x1="211.300000" y1="225.000000" x2="214.300000" y2="226.000000"  transform="rotate(0.000000,214.300000,226.000000)" style="stroke: black; stroke-width:0.25;"/>
<line x1="211.300000" y1="227.000000" x2="214.300000" y2="226.000000"  transform="rotate(0.000000,214.300000,226.000000)" style="stroke: black; stroke-width:0.25;"/>
<line x1="15.000000" y1="15.000000" x2="15.000000" y2="421.000000"  style="stroke: black; stroke-linecap:round; stroke-width:0.25; stroke-dasharray:3,3;"/>
<line x1="15.000000" y1="421.000000" x2="270.000000" y2="421.000000"  style="stroke: black; stroke-linecap:round; stroke-width:0.25; stroke-dasharray:3,3;"/>
<line x1="270.000000" y1="421.000000" x2="270.000000" y2="15.000000"  style="stroke: black; stroke-linecap:round; stroke-width:0.25; stroke-dasharray:3,3;"/>
<line x1="15.000000" y1="15.000000" x2="20.000000" y2="15.000000"  style="stroke: black; stroke-linecap:round; stroke-width:0.25; stroke-dasharray:3,3;"/>
<line x1="129.650000" y1="15.000000" x2="270.000000" y2="15.000000"  style="stroke: black; stroke-linecap:round; stroke-width:0.25; stroke-dasharray:3,3;"/>
<text x="20.000000" y="17.000000" font-family="Arial" font-size="7">facs1(2)(0.9025787965616574f)(2)</text>
<line x1="272.000000" y1="217.000000" x2="275.000000" y2="218.000000"  transform="rotate(0.000000,275.000000,218.000000)" style="stroke: black; stroke-width:0.25;"/>
<line x1="272.000000" y1="219.000000" x2="275.000000" y2="218.000000"  transform="rotate(0.000000,275.000000,218.000000)" style="stroke: black; stroke-width:0.25;"/>
<line x1="71.800000" y1="130.000000" x2="75.800000" y2="130.000000"  style="stroke:black; stroke-linecap:round; stroke-width:0.25;"/>
<line x1="71.800000" y1="182.000000" x2="75.800000" y2="182.000000"  style="stroke:black; stroke-linecap:round; stroke-width:0.25;"/>
<line x1="71.800000" y1="286.000000" x2="75.800000" y2="286.000000"  style="stroke:black; stroke-linecap:round; stroke-width:0.25;"/>
<line x1="71.800000" y1="338.000000" x2="75.800000" y2="338.000000"  style="stroke:black; stroke-linecap:round; stroke-width:0.25;"/>
<line x1="75.800000" y1="130.000000" x2="85.800000" y2="130.000000"  style="stroke:black; stroke-linecap:round; stroke-width:0.25;"/>
<line x1="75.800000" y1="182.000000" x2="85.800000" y2="182.000000"  style="stroke:black; stroke-linecap:round; stroke-width:0.25;"/>
<line x1="75.800000" y1="286.000000" x2="85.800000" y2="286.000000"  style="stroke:black; stroke-linecap:round; stroke-width:0.25;"/>
<line x1="75.800000" y1="338.000000" x2="85.800000" y2="338.000000"  style="stroke:black; stroke-linecap:round; stroke-width:0.25;"/>
<line x1="79.150000" y1="234.000000" x2="83.150000" y2="234.000000"  style="stroke:black; stroke-linecap:round; stroke-width:0.25;"/>
<line x1="83.150000" y1="234.000000" x2="93.150000" y2="234.000000"  style="stroke:black; stroke-linecap:round; stroke-width:0.25;"/>
<line x1="85.600000" y1="390.000000" x2="89.600000" y2="390.000000"  style="stroke:black; stroke-linecap:round; stroke-width:0.25;"/>
<line x1="85.800000" y1="130.000000" x2="93.150000" y2="130.000000"  style="stroke:black; stroke-linecap:round; stroke-width:0.25;"/>
<line x1="85.800000" y1="182.000000" x2="93.150000" y2="182.000000"  style="stroke:black; stroke-linecap:round; stroke-width:0.25;"/>
<line x1="85.800000" y1="286.000000" x2="99.600000" y2="286.000000"  style="stroke:black; stroke-linecap:round; stroke-width:0.25;"/>
<line x1="85.800000" y1="338.000000" x2="99.600000" y2="338.000000"  style="stroke:black; stroke-linecap:round; stroke-width:0.25;"/>
<line x1="89.600000" y1="390.000000" x2="99.600000" y2="390.000000"  style="stroke:black; stroke-linecap:round; stroke-width:0.25;"/>
<line x1="93.150000" y1="130.000000" x2="101.150000" y2="130.000000"  style="stroke:black; stroke-linecap:round; stroke-width:0.25;"/>
<line x1="93.150000" y1="182.000000" x2="101.150000" y2="182.000000"  style="stroke:black; stroke-linecap:round; stroke-width:0.25;"/>
<line x1="93.150000" y1="190.000000" x2="101.150000" y2="190.000000"  style="stroke:black; stroke-linecap:round; stroke-width:0.25;"/>
<line x1="93.150000" y1="234.000000" x2="93.150000" y2="190.000000"  style="stroke:black; stroke-linecap:round; stroke-width:0.25;"/>
<line x1="93.150000" y1="234.000000" x2="93.150000" y2="234.000000"  style="stroke:black; stroke-linecap:round; stroke-width:0.25;"/>
<line x1="99.600000" y1="286.000000" x2="107.600000" y2="286.000000"  style="stroke:black; stroke-linecap:round; stroke-width:0.25;"/>
<line x1="99.600000" y1="338.000000" x2="107.600000" y2="338.000000"  style="stroke:black; stroke-linecap:round; stroke-width:0.25;"/>
<line x1="99.600000" y1="346.000000" x2="107.600000" y2="346.000000"  style="stroke:black; stroke-linecap:round; stroke-width:0.25;"/>
<line x1="99.600000" y1="390.000000" x2="99.600000" y2="346.000000"  style="stroke:black; stroke-linecap:round; stroke-width:0.25;"/>
<line x1="99.600000" y1="390.000000" x2="99.600000" y2="390.000000"  style="stroke:black; stroke-linecap:round; stroke-width:0.25;"/>
<line x1="101.150000" y1="130.000000" x2="101.150000" y2="174.000000"  style="stroke:black; stroke-linecap:round; stroke-width:0.25;"/>
<line x1="101.150000" y1="174.000000" x2="101.150000" y2="174.000000"  style="stroke:black; stroke-linecap:round; stroke-width:0.25;"/>
<line x1="101.150000" y1="174.000000" x2="105.150000" y2="174.000000"  style="stroke:black; stroke-linecap:round; stroke-width:0.25;"/>
<line x1="101.150000" y1="182.000000" x2="105.150000" y2="182.000000"  style="stroke:black; stroke-linecap:round; stroke-width:0.25;"/>
<line x1="101.150000" y1="190.000000" x2="105.150000" y2="190.000000"  style="stroke:black; stroke-linecap:round; stroke-width:0.25;"/>
<line x1="107.600000" y1="286.000000" x2="107.600000" y2="330.000000"  style="stroke:black; stroke-linecap:round; stroke-width:0.25;"/>
<line x1="107.600000" y1="330.000000" x2="107.600000" y2="330.000000"  style="stroke:black; stroke-linecap:round; stroke-width:0.25;"/>
<line x1="107.600000" y1="330.000000" x2="111.600000" y2="330.000000"  style="stroke:black; stroke-linecap:round; stroke-width:0.25;"/>
<line x1="107.600000" y1="338.000000" x2="111.600000" y2="338.000000"  style="stroke:black; stroke-linecap:round; stroke-width:0.25;"/>
<line x1="107.600000" y1="346.000000" x2="111.600000" y2="346.000000"  style="stroke:black; stroke-linecap:round; stroke-width:0.25;"/>
<line x1="119.150000" y1="36.000000" x2="123.150000" y2="36.000000"  style="stroke:black; stroke-linecap:round; stroke-width:0.25;"/>
<line x1="119.150000" y1="78.000000" x2="123.150000" y2="78.000000"  style="stroke:black; stroke-linecap:round; stroke-width:0.25;"/>
<line x1="123.150000" y1="36.000000" x2="194.300000" y2="36.000000"  style="stroke:black; stroke-linecap:round; stroke-width:0.25;"/>
<line x1="123.150000" y1="78.000000" x2="133.150000" y2="78.000000"  style="stroke:black; stroke-linecap:round; stroke-width:0.25;"/>
<line x1="133.150000" y1="78.000000" x2="194.300000" y2="78.000000"  style="stroke:black; stroke-linecap:round; stroke-width:0.25;"/>
<line x1="143.850000" y1="182.000000" x2="147.850000" y2="182.000000"  style="stroke:black; stroke-linecap:round; stroke-width:0.25;"/>
<line x1="147.850000" y1="182.000000" x2="154.300000" y2="182.000000"  style="stroke:black; stroke-linecap:round; stroke-width:0.25;"/>
<line x1="150.300000" y1="338.000000" x2="154.300000" y2="338.000000"  style="stroke:black; stroke-linecap:round; stroke-width:0.25;"/>
<line x1="154.300000" y1="264.000000" x2="162.300000" y2="264.000000"  style="stroke:black; stroke-linecap:round; stroke-width:0.25;"/>
<line x1="154.300000" y1="338.000000" x2="154.300000" y2="264.000000"  style="stroke:black; stroke-linecap:round; stroke-width:0.25;"/>
<line x1="154.300000" y1="338.000000" x2="154.300000" y2="338.000000"  style="stroke:black; stroke-linecap:round; stroke-width:0.25;"/>
<line x1="154.300000" y1="182.000000" x2="162.300000" y2="182.000000"  style="stroke:black; stroke-linecap:round; stroke-width:0.25;"/>
<line x1="162.300000" y1="256.000000" x2="166.300000" y2="256.000000"  style="stroke:black; stroke-linecap:round; stroke-width:0.25;"/>
<line x1="162.300000" y1="264.000000" x2="166.300000" y2="264.000000"  style="stroke:black; stroke-linecap:round; stroke-width:0.25;"/>
<line x1="162.300000" y1="182.000000" x2="162.300000" y2="256.000000"  style="stroke:black; stroke-linecap:round; stroke-width:0.25;"/>
<line x1="162.300000" y1="256.000000" x2="162.300000" y2="256.000000"  style="stroke:black; stroke-linecap:round; stroke-width:0.25;"/>
<line x1="190.300000" y1="260.000000" x2="194.300000" y2="260.000000"  style="stroke:black; stroke-linecap:round; stroke-width:0.25;"/>
<line x1="194.300000" y1="78.000000" x2="202.300000" y2="78.000000"  style="stroke:black; stroke-linecap:round; stroke-width:0.25;"/>
<line x1="194.300000" y1="36.000000" x2="210.300000" y2="36.000000"  style="stroke:black; stroke-linecap:round; stroke-width:0.25;"/>
<line x1="194.300000" y1="226.000000" x2="210.300000" y2="226.000000"  style="stroke:black; stroke-linecap:round; stroke-width:0.25;"/>
<line x1="194.300000" y1="260.000000" x2="194.300000" y2="226.000000"  style="stroke:black; stroke-linecap:round; stroke-width:0.25;"/>
<line x1="194.300000" y1="260.000000" x2="194.300000" y2="260.000000"  style="stroke:black; stroke-linecap:round; stroke-width:0.25;"/>
<line x1="202.300000" y1="78.000000" x2="202.300000" y2="218.000000"  style="stroke:black; stroke-linecap:round; stroke-width:0.25;"/>
<line x1="202.300000" y1="218.000000" x2="210.300000" y2="218.000000"  style="stroke:black; stroke-linecap:round; stroke-width:0.25;"/>
<line x1="210.300000" y1="36.000000" x2="210.300000" y2="210.000000"  style="stroke:black; stroke-linecap:round; stroke-width:0.25;"/>
<line x1="210.300000" y1="210.000000" x2="210.300000" y2="210.000000"  style="stroke:black; stroke-linecap:round; stroke-width:0.25;"/>
<line x1="210.300000" y1="210.000000" x2="214.300000" y2="210.000000"  style="stroke:black; stroke-linecap:round; stroke-width:0.25;"/>
<line x1="210.300000" y1="218.000000" x2="214.300000" y2="218.000000"  style="stroke:black; stroke-linecap:round; stroke-width:0.25;"/>
<line x1="210.300000" y1="226.000000" x2="214.300000" y2="226.000000"  style="stroke:black; stroke-linecap:round; stroke-width:0.25;"/>
<line x1="253.000000" y1="218.000000" x2="257.000000" y2="218.000000"  style="stroke:black; stroke-linecap:round; stroke-width:0.25;"/>
<line x1="257.000000" y1="218.000000" x2="257.000000" y2="218.000000"  style="stroke:black; stroke-linecap:round; stroke-width:0.25;"/>
<line x1="257.000000" y1="218.000000" x2="261.000000" y2="218.000000"  style="stroke:black; stroke-linecap:round; stroke-width:0.25;"/>
<line x1="261.000000" y1="218.000000" x2="265.000000" y2="218.000000"  style="stroke:black; stroke-linecap:round; stroke-width:0.25;"/>
<line x1="265.000000" y1="218.000000" x2="275.000000" y2="218.000000"  style="stroke:black; stroke-linecap:round; stroke-width:0.25;"/>
</svg>
