<?xml version="1.0"?>
<svg xmlns="http://www.w3.org/2000/svg" xmlns:xlink="http://www.w3.org/1999/xlink" viewBox="0 0 259.200000 436.000000" width="129.600000mm" height="218.000000mm" version="1.1">
<defs>
   <filter id="filter" filterRes="18" x="0" y="0">
     <feGaussianBlur in="SourceGraphic" stdDeviation="1.55" result="blur"/>
     <feOffset in="blur" dx="3" dy="3"/>
   </filter>
</defs>
<a xlink:href="h-0x7f8f92de6fc0.svg">
<rect x="1.000000" y="1.000000" width="258.200000" height="435.000000" rx="0.1" ry="0.1" style="stroke:none;fill:#aaaaaa;;filter:url(#filter);"/>
<rect x="0.000000" y="0.000000" width="258.200000" height="435.000000" rx="0" ry="0" style="stroke:none;fill:#ffffff;"/>
</a>
<text x="10.000000" y="7.000000" font-family="Arial" font-size="7"></text>
<rect x="83.250000" y="25.000000" width="24.000000" height="24.000000" rx="0.1" ry="0.1" style="stroke:none;fill:#aaaaaa;;filter:url(#filter);"/>
<rect x="82.250000" y="24.000000" width="24.000000" height="24.000000" rx="0" ry="0" style="stroke:none;fill:#f44800;"/>
<text x="94.250000" y="38.000000" font-family="Arial" font-size="7" text-anchor="middle" fill="#FFFFFF">2</text>
<circle cx="84.250000" cy="26.000000" r="1"/>
<rect x="83.250000" y="67.000000" width="24.000000" height="24.000000" rx="0.1" ry="0.1" style="stroke:none;fill:#aaaaaa;;filter:url(#filter);"/>
<rect x="82.250000" y="66.000000" width="24.000000" height="24.000000" rx="0" ry="0" style="stroke:none;fill:#f44800;"/>
<text x="94.250000" y="80.000000" font-family="Arial" font-size="7" text-anchor="middle" fill="#FFFFFF">1</text>
<circle cx="84.250000" cy="68.000000" r="1"/>
<line x1="73.250000" y1="57.000000" x2="73.250000" y2="99.000000"  style="stroke: black; stroke-linecap:round; stroke-width:0.25; stroke-dasharray:3,3;"/>
<line x1="73.250000" y1="99.000000" x2="115.250000" y2="99.000000"  style="stroke: black; stroke-linecap:round; stroke-width:0.25; stroke-dasharray:3,3;"/>
<line x1="115.250000" y1="99.000000" x2="115.250000" y2="57.000000"  style="stroke: black; stroke-linecap:round; stroke-width:0.25; stroke-dasharray:3,3;"/>
<line x1="73.250000" y1="57.000000" x2="78.250000" y2="57.000000"  style="stroke: black; stroke-linecap:round; stroke-width:0.25; stroke-dasharray:3,3;"/>
<line x1="87.925000" y1="57.000000" x2="115.250000" y2="57.000000"  style="stroke: black; stroke-linecap:round; stroke-width:0.25; stroke-dasharray:3,3;"/>
<text x="78.250000" y="59.000000" font-family="Arial" font-size="7">S</text>
<rect x="35.900000" y="119.000000" width="24.000000" height="24.000000" rx="0.1" ry="0.1" style="stroke:none;fill:#aaaaaa;;filter:url(#filter);"/>
<rect x="34.900000" y="118.000000" width="24.000000" height="24.000000" rx="0" ry="0" style="stroke:none;fill:#f44800;"/>
<text x="46.900000" y="132.000000" font-family="Arial" font-size="7" text-anchor="middle" fill="#FFFFFF">1</text>
<circle cx="36.900000" cy="120.000000" r="1"/>
<line x1="25.900000" y1="109.000000" x2="25.900000" y2="151.000000"  style="stroke: black; stroke-linecap:round; stroke-width:0.25; stroke-dasharray:3,3;"/>
<line x1="25.900000" y1="151.000000" x2="67.900000" y2="151.000000"  style="stroke: black; stroke-linecap:round; stroke-width:0.25; stroke-dasharray:3,3;"/>
<line x1="67.900000" y1="151.000000" x2="67.900000" y2="109.000000"  style="stroke: black; stroke-linecap:round; stroke-width:0.25; stroke-dasharray:3,3;"/>
<line x1="25.900000" y1="109.000000" x2="30.900000" y2="109.000000"  style="stroke: black; stroke-linecap:round; stroke-width:0.25; stroke-dasharray:3,3;"/>
<line x1="40.575000" y1="109.000000" x2="67.900000" y2="109.000000"  style="stroke: black; stroke-linecap:round; stroke-width:0.25; stroke-dasharray:3,3;"/>
<text x="30.900000" y="111.000000" font-family="Arial" font-size="7">S</text>
<rect x="35.900000" y="171.000000" width="24.000000" height="24.000000" rx="0.1" ry="0.1" style="stroke:none;fill:#aaaaaa;;filter:url(#filter);"/>
<rect x="34.900000" y="170.000000" width="24.000000" height="24.000000" rx="0" ry="0" style="stroke:none;fill:#f44800;"/>
<text x="46.900000" y="184.000000" font-family="Arial" font-size="7" text-anchor="middle" fill="#FFFFFF">1</text>
<circle cx="36.900000" cy="172.000000" r="1"/>
<line x1="25.900000" y1="161.000000" x2="25.900000" y2="203.000000"  style="stroke: black; stroke-linecap:round; stroke-width:0.25; stroke-dasharray:3,3;"/>
<line x1="25.900000" y1="203.000000" x2="67.900000" y2="203.000000"  style="stroke: black; stroke-linecap:round; stroke-width:0.25; stroke-dasharray:3,3;"/>
<line x1="67.900000" y1="203.000000" x2="67.900000" y2="161.000000"  style="stroke: black; stroke-linecap:round; stroke-width:0.25; stroke-dasharray:3,3;"/>
<line x1="25.900000" y1="161.000000" x2="30.900000" y2="161.000000"  style="stroke: black; stroke-linecap:round; stroke-width:0.25; stroke-dasharray:3,3;"/>
<line x1="40.575000" y1="161.000000" x2="67.900000" y2="161.000000"  style="stroke: black; stroke-linecap:round; stroke-width:0.25; stroke-dasharray:3,3;"/>
<text x="30.900000" y="163.000000" font-family="Arial" font-size="7">S</text>
<rect x="35.000000" y="223.000000" width="25.800000" height="24.000000" rx="0.1" ry="0.1" style="stroke:none;fill:#aaaaaa;;filter:url(#filter);"/>
<rect x="34.000000" y="222.000000" width="25.800000" height="24.000000" rx="0" ry="0" style="stroke:none;fill:#f44800;"/>
<text x="46.900000" y="236.000000" font-family="Arial" font-size="7" text-anchor="middle" fill="#FFFFFF">0.25</text>
<circle cx="36.000000" cy="224.000000" r="1"/>
<line x1="25.000000" y1="213.000000" x2="25.000000" y2="255.000000"  style="stroke: black; stroke-linecap:round; stroke-width:0.25; stroke-dasharray:3,3;"/>
<line x1="25.000000" y1="255.000000" x2="68.800000" y2="255.000000"  style="stroke: black; stroke-linecap:round; stroke-width:0.25; stroke-dasharray:3,3;"/>
<line x1="68.800000" y1="255.000000" x2="68.800000" y2="213.000000"  style="stroke: black; stroke-linecap:round; stroke-width:0.25; stroke-dasharray:3,3;"/>
<line x1="25.000000" y1="213.000000" x2="30.000000" y2="213.000000"  style="stroke: black; stroke-linecap:round; stroke-width:0.25; stroke-dasharray:3,3;"/>
<line x1="68.800000" y1="213.000000" x2="68.800000" y2="213.000000"  style="stroke: black; stroke-linecap:round; stroke-width:0.25; stroke-dasharray:3,3;"/>
<text x="30.000000" y="215.000000" font-family="Arial" font-size="7">fac(0.49999999999987366f)(2)(0)</text>
<rect x="86.800000" y="171.000000" width="38.700000" height="24.000000" rx="0.1" ry="0.1" style="stroke:none;fill:#aaaaaa;;filter:url(#filter);"/>
<rect x="85.800000" y="170.000000" width="38.700000" height="24.000000" rx="0" ry="0" style="stroke:none;fill:#4B71A1;"/>
<text x="105.150000" y="184.000000" font-family="Arial" font-size="7" text-anchor="middle" fill="#FFFFFF">select2</text>
<circle cx="87.800000" cy="172.000000" r="1"/>
<line x1="82.800000" y1="173.000000" x2="85.800000" y2="174.000000"  transform="rotate(0.000000,85.800000,174.000000)" style="stroke: black; stroke-width:0.25;"/>
<line x1="82.800000" y1="175.000000" x2="85.800000" y2="174.000000"  transform="rotate(0.000000,85.800000,174.000000)" style="stroke: black; stroke-width:0.25;"/>
<line x1="82.800000" y1="181.000000" x2="85.800000" y2="182.000000"  transform="rotate(0.000000,85.800000,182.000000)" style="stroke: black; stroke-width:0.25;"/>
<line x1="82.800000" y1="183.000000" x2="85.800000" y2="182.000000"  transform="rotate(0.000000,85.800000,182.000000)" style="stroke: black; stroke-width:0.25;"/>
<line x1="82.800000" y1="189.000000" x2="85.800000" y2="190.000000"  transform="rotate(0.000000,85.800000,190.000000)" style="stroke: black; stroke-width:0.25;"/>
<line x1="82.800000" y1="191.000000" x2="85.800000" y2="190.000000"  transform="rotate(0.000000,85.800000,190.000000)" style="stroke: black; stroke-width:0.25;"/>
<rect x="35.900000" y="275.000000" width="24.000000" height="24.000000" rx="0.1" ry="0.1" style="stroke:none;fill:#aaaaaa;;filter:url(#filter);"/>
<rect x="34.900000" y="274.000000" width="24.000000" height="24.000000" rx="0" ry="0" style="stroke:none;fill:#f44800;"/>
<text x="46.900000" y="288.000000" font-family="Arial" font-size="7" text-anchor="middle" fill="#FFFFFF">1</text>
<circle cx="36.900000" cy="276.000000" r="1"/>
<line x1="25.900000" y1="265.000000" x2="25.900000" y2="307.000000"  style="stroke: black; stroke-linecap:round; stroke-width:0.25; stroke-dasharray:3,3;"/>
<line x1="25.900000" y1="307.000000" x2="67.900000" y2="307.000000"  style="stroke: black; stroke-linecap:round; stroke-width:0.25; stroke-dasharray:3,3;"/>
<line x1="67.900000" y1="307.000000" x2="67.900000" y2="265.000000"  style="stroke: black; stroke-linecap:round; stroke-width:0.25; stroke-dasharray:3,3;"/>
<line x1="25.900000" y1="265.000000" x2="30.900000" y2="265.000000"  style="stroke: black; stroke-linecap:round; stroke-width:0.25; stroke-dasharray:3,3;"/>
<line x1="40.575000" y1="265.000000" x2="67.900000" y2="265.000000"  style="stroke: black; stroke-linecap:round; stroke-width:0.25; stroke-dasharray:3,3;"/>
<text x="30.900000" y="267.000000" font-family="Arial" font-size="7">S</text>
<rect x="35.900000" y="327.000000" width="24.000000" height="24.000000" rx="0.1" ry="0.1" style="stroke:none;fill:#aaaaaa;;filter:url(#filter);"/>
<rect x="34.900000" y="326.000000" width="24.000000" height="24.000000" rx="0" ry="0" style="stroke:none;fill:#f44800;"/>
<text x="46.900000" y="340.000000" font-family="Arial" font-size="7" text-anchor="middle" fill="#FFFFFF">1</text>
<circle cx="36.900000" cy="328.000000" r="1"/>
<line x1="25.900000" y1="317.000000" x2="25.900000" y2="359.000000"  style="stroke: black; stroke-linecap:round; stroke-width:0.25; stroke-dasharray:3,3;"/>
<line x1="25.900000" y1="359.000000" x2="67.900000" y2="359.000000"  style="stroke: black; stroke-linecap:round; stroke-width:0.25; stroke-dasharray:3,3;"/>
<line x1="67.900000" y1="359.000000" x2="67.900000" y2="317.000000"  style="stroke: black; stroke-linecap:round; stroke-width:0.25; stroke-dasharray:3,3;"/>
<line x1="25.900000" y1="317.000000" x2="30.900000" y2="317.000000"  style="stroke: black; stroke-linecap:round; stroke-width:0.25; stroke-dasharray:3,3;"/>
<line x1="40.575000" y1="317.000000" x2="67.900000" y2="317.000000"  style="stroke: black; stroke-linecap:round; stroke-width:0.25; stroke-dasharray:3,3;"/>
<text x="30.900000" y="319.000000" font-family="Arial" font-size="7">S</text>
<rect x="35.000000" y="379.000000" width="25.800000" height="24.000000" rx="0.1" ry="0.1" style="stroke:none;fill:#aaaaaa;;filter:url(#filter);"/>
<rect x="34.000000" y="378.000000" width="25.800000" height="24.000000" rx="0" ry="0" style="stroke:none;fill:#f44800;"/>
<text x="46.900000" y="392.000000" font-family="Arial" font-size="7" text-anchor="middle" fill="#FFFFFF">-0.5</text>
<circle cx="36.000000" cy="380.000000" r="1"/>
<line x1="25.000000" y1="369.000000" x2="25.000000" y2="411.000000"  style="stroke: black; stroke-linecap:round; stroke-width:0.25; stroke-dasharray:3,3;"/>
<line x1="25.000000" y1="411.000000" x2="68.800000" y2="411.000000"  style="stroke: black; stroke-linecap:round; stroke-width:0.25; stroke-dasharray:3,3;"/>
<line x1="68.800000" y1="411.000000" x2="68.800000" y2="369.000000"  style="stroke: black; stroke-linecap:round; stroke-width:0.25; stroke-dasharray:3,3;"/>
<line x1="25.000000" y1="369.000000" x2="30.000000" y2="369.000000"  style="stroke: black; stroke-linecap:round; stroke-width:0.25; stroke-dasharray:3,3;"/>
<line x1="68.800000" y1="369.000000" x2="68.800000" y2="369.000000"  style="stroke: black; stroke-linecap:round; stroke-width:0.25; stroke-dasharray:3,3;"/>
<text x="30.000000" y="371.000000" font-family="Arial" font-size="7">fac(0.49999999999987366f)(2)(1)</text>
<rect x="86.800000" y="327.000000" width="38.700000" height="24.000000" rx="0.1" ry="0.1" style="stroke:none;fill:#aaaaaa;;filter:url(#filter);"/>
<rect x="85.800000" y="326.000000" width="38.700000" height="24.000000" rx="0" ry="0" style="stroke:none;fill:#4B71A1;"/>
<text x="105.150000" y="340.000000" font-family="Arial" font-size="7" text-anchor="middle" fill="#FFFFFF">select2</text>
<circle cx="87.800000" cy="328.000000" r="1"/>
<line x1="82.800000" y1="329.000000" x2="85.800000" y2="330.000000"  transform="rotate(0.000000,85.800000,330.000000)" style="stroke: black; stroke-width:0.25;"/>
<line x1="82.800000" y1="331.000000" x2="85.800000" y2="330.000000"  transform="rotate(0.000000,85.800000,330.000000)" style="stroke: black; stroke-width:0.25;"/>
<line x1="82.800000" y1="337.000000" x2="85.800000" y2="338.000000"  transform="rotate(0.000000,85.800000,338.000000)" style="stroke: black; stroke-width:0.25;"/>
<line x1="82.800000" y1="339.000000" x2="85.800000" y2="338.000000"  transform="rotate(0.000000,85.800000,338.000000)" style="stroke: black; stroke-width:0.25;"/>
<line x1="82.800000" y1="345.000000" x2="85.800000" y2="346.000000"  transform="rotate(0.000000,85.800000,346.000000)" style="stroke: black; stroke-width:0.25;"/>
<line x1="82.800000" y1="347.000000" x2="85.800000" y2="346.000000"  transform="rotate(0.000000,85.800000,346.000000)" style="stroke: black; stroke-width:0.25;"/>
<rect x="141.500000" y="249.000000" width="24.000000" height="24.000000" rx="0.1" ry="0.1" style="stroke:none;fill:#aaaaaa;;filter:url(#filter);"/>
<rect x="140.500000" y="248.000000" width="24.000000" height="24.000000" rx="0" ry="0" style="stroke:none;fill:#4B71A1;"/>
<text x="152.500000" y="262.000000" font-family="Arial" font-size="7" text-anchor="middle" fill="#FFFFFF">*</text>
<circle cx="142.500000" cy="250.000000" r="1"/>
<line x1="137.500000" y1="255.000000" x2="140.500000" y2="256.000000"  transform="rotate(0.000000,140.500000,256.000000)" style="stroke: black; stroke-width:0.25;"/>
<line x1="137.500000" y1="257.000000" x2="140.500000" y2="256.000000"  transform="rotate(0.000000,140.500000,256.000000)" style="stroke: black; stroke-width:0.25;"/>
<line x1="137.500000" y1="263.000000" x2="140.500000" y2="264.000000"  transform="rotate(0.000000,140.500000,264.000000)" style="stroke: black; stroke-width:0.25;"/>
<line x1="137.500000" y1="265.000000" x2="140.500000" y2="264.000000"  transform="rotate(0.000000,140.500000,264.000000)" style="stroke: black; stroke-width:0.25;"/>
<rect x="189.500000" y="207.000000" width="38.700000" height="24.000000" rx="0.1" ry="0.1" style="stroke:none;fill:#aaaaaa;;filter:url(#filter);"/>
<rect x="188.500000" y="206.000000" width="38.700000" height="24.000000" rx="0" ry="0" style="stroke:none;fill:#4B71A1;"/>
<text x="207.850000" y="220.000000" font-family="Arial" font-size="7" text-anchor="middle" fill="#FFFFFF">select2</text>
<circle cx="190.500000" cy="208.000000" r="1"/>
<line x1="185.500000" y1="209.000000" x2="188.500000" y2="210.000000"  transform="rotate(0.000000,188.500000,210.000000)" style="stroke: black; stroke-width:0.25;"/>
<line x1="185.500000" y1="211.000000" x2="188.500000" y2="210.000000"  transform="rotate(0.000000,188.500000,210.000000)" style="stroke: black; stroke-width:0.25;"/>
<line x1="185.500000" y1="217.000000" x2="188.500000" y2="218.000000"  transform="rotate(0.000000,188.500000,218.000000)" style="stroke: black; stroke-width:0.25;"/>
<line x1="185.500000" y1="219.000000" x2="188.500000" y2="218.000000"  transform="rotate(0.000000,188.500000,218.000000)" style="stroke: black; stroke-width:0.25;"/>
<line x1="185.500000" y1="225.000000" x2="188.500000" y2="226.000000"  transform="rotate(0.000000,188.500000,226.000000)" style="stroke: black; stroke-width:0.25;"/>
<line x1="185.500000" y1="227.000000" x2="188.500000" y2="226.000000"  transform="rotate(0.000000,188.500000,226.000000)" style="stroke: black; stroke-width:0.25;"/>
<line x1="15.000000" y1="15.000000" x2="15.000000" y2="421.000000"  style="stroke: black; stroke-linecap:round; stroke-width:0.25; stroke-dasharray:3,3;"/>
<line x1="15.000000" y1="421.000000" x2="244.200000" y2="421.000000"  style="stroke: black; stroke-linecap:round; stroke-width:0.25; stroke-dasharray:3,3;"/>
<line x1="244.200000" y1="421.000000" x2="244.200000" y2="15.000000"  style="stroke: black; stroke-linecap:round; stroke-width:0.25; stroke-dasharray:3,3;"/>
<line x1="15.000000" y1="15.000000" x2="20.000000" y2="15.000000"  style="stroke: black; stroke-linecap:round; stroke-width:0.25; stroke-dasharray:3,3;"/>
<line x1="132.875000" y1="15.000000" x2="244.200000" y2="15.000000"  style="stroke: black; stroke-linecap:round; stroke-width:0.25; stroke-dasharray:3,3;"/>
<text x="20.000000" y="17.000000" font-family="Arial" font-size="7">facs1(2)(0.49999999999987366f)(2)</text>
<line x1="246.200000" y1="217.000000" x2="249.200000" y2="218.000000"  transform="rotate(0.000000,249.200000,218.000000)" style="stroke: black; stroke-width:0.25;"/>
<line x1="246.200000" y1="219.000000" x2="249.200000" y2="218.000000"  transform="rotate(0.000000,249.200000,218.000000)" style="stroke: black; stroke-width:0.25;"/>
<line x1="58.900000" y1="130.000000" x2="62.900000" y2="130.000000"  style="stroke:black; stroke-linecap:round; stroke-width:0.25;"/>
<line x1="58.900000" y1="182.000000" x2="62.900000" y2="182.000000"  style="stroke:black; stroke-linecap:round; stroke-width:0.25;"/>
<line x1="58.900000" y1="286.000000" x2="62.900000" y2="286.000000"  style="stroke:black; stroke-linecap:round; stroke-width:0.25;"/>
<line x1="58.900000" y1="338.000000" x2="62.900000" y2="338.000000"  style="stroke:black; stroke-linecap:round; stroke-width:0.25;"/>
<line x1="59.800000" y1="234.000000" x2="63.800000" y2="234.000000"  style="stroke:black; stroke-linecap:round; stroke-width:0.25;"/>
<line x1="59.800000" y1="390.000000" x2="63.800000" y2="390.000000"  style="stroke:black; stroke-linecap:round; stroke-width:0.25;"/>
<line x1="62.900000" y1="130.000000" x2="72.900000" y2="130.000000"  style="stroke:black; stroke-linecap:round; stroke-width:0.25;"/>
<line x1="62.900000" y1="182.000000" x2="72.900000" y2="182.000000"  style="stroke:black; stroke-linecap:round; stroke-width:0.25;"/>
<line x1="62.900000" y1="286.000000" x2="72.900000" y2="286.000000"  style="stroke:black; stroke-linecap:round; stroke-width:0.25;"/>
<line x1="62.900000" y1="338.000000" x2="72.900000" y2="338.000000"  style="stroke:black; stroke-linecap:round; stroke-width:0.25;"/>
<line x1="63.800000" y1="234.000000" x2="73.800000" y2="234.000000"  style="stroke:black; stroke-linecap:round; stroke-width:0.25;"/>
<line x1="63.800000" y1="390.000000" x2="73.800000" y2="390.000000"  style="stroke:black; stroke-linecap:round; stroke-width:0.25;"/>
<line x1="72.900000" y1="130.000000" x2="73.800000" y2="130.000000"  style="stroke:black; stroke-linecap:round; stroke-width:0.25;"/>
<line x1="72.900000" y1="182.000000" x2="73.800000" y2="182.000000"  style="stroke:black; stroke-linecap:round; stroke-width:0.25;"/>
<line x1="72.900000" y1="286.000000" x2="73.800000" y2="286.000000"  style="stroke:black; stroke-linecap:round; stroke-width:0.25;"/>
<line x1="72.900000" y1="338.000000" x2="73.800000" y2="338.000000"  style="stroke:black; stroke-linecap:round; stroke-width:0.25;"/>
<line x1="73.800000" y1="190.000000" x2="81.800000" y2="190.000000"  style="stroke:black; stroke-linecap:round; stroke-width:0.25;"/>
<line x1="73.800000" y1="234.000000" x2="73.800000" y2="190.000000"  style="stroke:black; stroke-linecap:round; stroke-width:0.25;"/>
<line x1="73.800000" y1="234.000000" x2="73.800000" y2="234.000000"  style="stroke:black; stroke-linecap:round; stroke-width:0.25;"/>
<line x1="73.800000" y1="346.000000" x2="81.800000" y2="346.000000"  style="stroke:black; stroke-linecap:round; stroke-width:0.25;"/>
<line x1="73.800000" y1="390.000000" x2="73.800000" y2="346.000000"  style="stroke:black; stroke-linecap:round; stroke-width:0.25;"/>
<line x1="73.800000" y1="390.000000" x2="73.800000" y2="390.000000"  style="stroke:black; stroke-linecap:round; stroke-width:0.25;"/>
<line x1="73.800000" y1="130.000000" x2="81.800000" y2="130.000000"  style="stroke:black; stroke-linecap:round; stroke-width:0.25;"/>
<line x1="73.800000" y1="182.000000" x2="81.800000" y2="182.000000"  style="stroke:black; stroke-linecap:round; stroke-width:0.25;"/>
<line x1="73.800000" y1="286.000000" x2="81.800000" y2="286.000000"  style="stroke:black; stroke-linecap:round; stroke-width:0.25;"/>
<line x1="73.800000" y1="338.000000" x2="81.800000" y2="338.000000"  style="stroke:black; stroke-linecap:round; stroke-width:0.25;"/>
<line x1="81.800000" y1="174.000000" x2="85.800000" y2="174.000000"  style="stroke:black; stroke-linecap:round; stroke-width:0.25;"/>
<line x1="81.800000" y1="182.000000" x2="85.800000" y2="182.000000"  style="stroke:black; stroke-linecap:round; stroke-width:0.25;"/>
<line x1="81.800000" y1="190.000000" x2="85.800000" y2="190.000000"  style="stroke:black; stroke-linecap:round; stroke-width:0.25;"/>
<line x1="81.800000" y1="330.000000" x2="85.800000" y2="330.000000"  style="stroke:black; stroke-linecap:round; stroke-width:0.25;"/>
<line x1="81.800000" y1="338.000000" x2="85.800000" y2="338.000000"  style="stroke:black; stroke-linecap:round; stroke-width:0.25;"/>
<line x1="81.800000" y1="346.000000" x2="85.800000" y2="346.000000"  style="stroke:black; stroke-linecap:round; stroke-width:0.25;"/>
<line x1="81.800000" y1="130.000000" x2="81.800000" y2="174.000000"  style="stroke:black; stroke-linecap:round; stroke-width:0.25;"/>
<line x1="81.800000" y1="174.000000" x2="81.800000" y2="174.000000"  style="stroke:black; stroke-linecap:round; stroke-width:0.25;"/>
<line x1="81.800000" y1="286.000000" x2="81.800000" y2="330.000000"  style="stroke:black; stroke-linecap:round; stroke-width:0.25;"/>
<line x1="81.800000" y1="330.000000" x2="81.800000" y2="330.000000"  style="stroke:black; stroke-linecap:round; stroke-width:0.25;"/>
<line x1="106.250000" y1="36.000000" x2="110.250000" y2="36.000000"  style="stroke:black; stroke-linecap:round; stroke-width:0.25;"/>
<line x1="106.250000" y1="78.000000" x2="110.250000" y2="78.000000"  style="stroke:black; stroke-linecap:round; stroke-width:0.25;"/>
<line x1="110.250000" y1="36.000000" x2="168.500000" y2="36.000000"  style="stroke:black; stroke-linecap:round; stroke-width:0.25;"/>
<line x1="110.250000" y1="78.000000" x2="120.250000" y2="78.000000"  style="stroke:black; stroke-linecap:round; stroke-width:0.25;"/>
<line x1="120.250000" y1="78.000000" x2="168.500000" y2="78.000000"  style="stroke:black; stroke-linecap:round; stroke-width:0.25;"/>
<line x1="124.500000" y1="182.000000" x2="128.500000" y2="182.000000"  style="stroke:black; stroke-linecap:round; stroke-width:0.25;"/>
<line x1="124.500000" y1="338.000000" x2="128.500000" y2="338.000000"  style="stroke:black; stroke-linecap:round; stroke-width:0.25;"/>
<line x1="128.500000" y1="182.000000" x2="136.500000" y2="182.000000"  style="stroke:black; stroke-linecap:round; stroke-width:0.25;"/>
<line x1="128.500000" y1="264.000000" x2="136.500000" y2="264.000000"  style="stroke:black; stroke-linecap:round; stroke-width:0.25;"/>
<line x1="128.500000" y1="338.000000" x2="128.500000" y2="264.000000"  style="stroke:black; stroke-linecap:round; stroke-width:0.25;"/>
<line x1="128.500000" y1="338.000000" x2="128.500000" y2="338.000000"  style="stroke:black; stroke-linecap:round; stroke-width:0.25;"/>
<line x1="136.500000" y1="182.000000" x2="136.500000" y2="256.000000"  style="stroke:black; stroke-linecap:round; stroke-width:0.25;"/>
<line x1="136.500000" y1="256.000000" x2="136.500000" y2="256.000000"  style="stroke:black; stroke-linecap:round; stroke-width:0.25;"/>
<line x1="136.500000" y1="256.000000" x2="140.500000" y2="256.000000"  style="stroke:black; stroke-linecap:round; stroke-width:0.25;"/>
<line x1="136.500000" y1="264.000000" x2="140.500000" y2="264.000000"  style="stroke:black; stroke-linecap:round; stroke-width:0.25;"/>
<line x1="164.500000" y1="260.000000" x2="168.500000" y2="260.000000"  style="stroke:black; stroke-linecap:round; stroke-width:0.25;"/>
<line x1="168.500000" y1="36.000000" x2="184.500000" y2="36.000000"  style="stroke:black; stroke-linecap:round; stroke-width:0.25;"/>
<line x1="168.500000" y1="78.000000" x2="176.500000" y2="78.000000"  style="stroke:black; stroke-linecap:round; stroke-width:0.25;"/>
<line x1="168.500000" y1="226.000000" x2="184.500000" y2="226.000000"  style="stroke:black; stroke-linecap:round; stroke-width:0.25;"/>
<line x1="168.500000" y1="260.000000" x2="168.500000" y2="226.000000"  style="stroke:black; stroke-linecap:round; stroke-width:0.25;"/>
<line x1="168.500000" y1="260.000000" x2="168.500000" y2="260.000000"  style="stroke:black; stroke-linecap:round; stroke-width:0.25;"/>
<line x1="176.500000" y1="78.000000" x2="176.500000" y2="218.000000"  style="stroke:black; stroke-linecap:round; stroke-width:0.25;"/>
<line x1="176.500000" y1="218.000000" x2="184.500000" y2="218.000000"  style="stroke:black; stroke-linecap:round; stroke-width:0.25;"/>
<line x1="184.500000" y1="36.000000" x2="184.500000" y2="210.000000"  style="stroke:black; stroke-linecap:round; stroke-width:0.25;"/>
<line x1="184.500000" y1="210.000000" x2="184.500000" y2="210.000000"  style="stroke:black; stroke-linecap:round; stroke-width:0.25;"/>
<line x1="184.500000" y1="210.000000" x2="188.500000" y2="210.000000"  style="stroke:black; stroke-linecap:round; stroke-width:0.25;"/>
<line x1="184.500000" y1="218.000000" x2="188.500000" y2="218.000000"  style="stroke:black; stroke-linecap:round; stroke-width:0.25;"/>
<line x1="184.500000" y1="226.000000" x2="188.500000" y2="226.000000"  style="stroke:black; stroke-linecap:round; stroke-width:0.25;"/>
<line x1="227.200000" y1="218.000000" x2="231.200000" y2="218.000000"  style="stroke:black; stroke-linecap:round; stroke-width:0.25;"/>
<line x1="231.200000" y1="218.000000" x2="231.200000" y2="218.000000"  style="stroke:black; stroke-linecap:round; stroke-width:0.25;"/>
<line x1="231.200000" y1="218.000000" x2="235.200000" y2="218.000000"  style="stroke:black; stroke-linecap:round; stroke-width:0.25;"/>
<line x1="235.200000" y1="218.000000" x2="239.200000" y2="218.000000"  style="stroke:black; stroke-linecap:round; stroke-width:0.25;"/>
<line x1="239.200000" y1="218.000000" x2="249.200000" y2="218.000000"  style="stroke:black; stroke-linecap:round; stroke-width:0.25;"/>
</svg>
