<?xml version="1.0"?>
<svg xmlns="http://www.w3.org/2000/svg" xmlns:xlink="http://www.w3.org/1999/xlink" viewBox="0 0 204.500000 248.000000" width="102.250000mm" height="124.000000mm" version="1.1">
<defs>
   <filter id="filter" filterRes="18" x="0" y="0">
     <feGaussianBlur in="SourceGraphic" stdDeviation="1.55" result="blur"/>
     <feOffset in="blur" dx="3" dy="3"/>
   </filter>
</defs>
<a xlink:href="h-0x7f8f92db3d90.svg">
<rect x="1.000000" y="1.000000" width="203.500000" height="247.000000" rx="0.1" ry="0.1" style="stroke:none;fill:#aaaaaa;;filter:url(#filter);"/>
<rect x="0.000000" y="0.000000" width="203.500000" height="247.000000" rx="0" ry="0" style="stroke:none;fill:#ffffff;"/>
</a>
<text x="10.000000" y="7.000000" font-family="Arial" font-size="7"></text>
<rect x="55.900000" y="35.000000" width="24.000000" height="24.000000" rx="0.1" ry="0.1" style="stroke:none;fill:#aaaaaa;;filter:url(#filter);"/>
<rect x="54.900000" y="34.000000" width="24.000000" height="24.000000" rx="0" ry="0" style="stroke:none;fill:#f44800;"/>
<text x="66.900000" y="48.000000" font-family="Arial" font-size="7" text-anchor="middle" fill="#FFFFFF">1</text>
<circle cx="56.900000" cy="36.000000" r="1"/>
<line x1="45.900000" y1="25.000000" x2="45.900000" y2="67.000000"  style="stroke: black; stroke-linecap:round; stroke-width:0.25; stroke-dasharray:3,3;"/>
<line x1="45.900000" y1="67.000000" x2="87.900000" y2="67.000000"  style="stroke: black; stroke-linecap:round; stroke-width:0.25; stroke-dasharray:3,3;"/>
<line x1="87.900000" y1="67.000000" x2="87.900000" y2="25.000000"  style="stroke: black; stroke-linecap:round; stroke-width:0.25; stroke-dasharray:3,3;"/>
<line x1="45.900000" y1="25.000000" x2="50.900000" y2="25.000000"  style="stroke: black; stroke-linecap:round; stroke-width:0.25; stroke-dasharray:3,3;"/>
<line x1="60.575000" y1="25.000000" x2="87.900000" y2="25.000000"  style="stroke: black; stroke-linecap:round; stroke-width:0.25; stroke-dasharray:3,3;"/>
<text x="50.900000" y="27.000000" font-family="Arial" font-size="7">S</text>
<rect x="55.900000" y="87.000000" width="24.000000" height="24.000000" rx="0.1" ry="0.1" style="stroke:none;fill:#aaaaaa;;filter:url(#filter);"/>
<rect x="54.900000" y="86.000000" width="24.000000" height="24.000000" rx="0" ry="0" style="stroke:none;fill:#f44800;"/>
<text x="66.900000" y="100.000000" font-family="Arial" font-size="7" text-anchor="middle" fill="#FFFFFF">1</text>
<circle cx="56.900000" cy="88.000000" r="1"/>
<line x1="45.900000" y1="77.000000" x2="45.900000" y2="119.000000"  style="stroke: black; stroke-linecap:round; stroke-width:0.25; stroke-dasharray:3,3;"/>
<line x1="45.900000" y1="119.000000" x2="87.900000" y2="119.000000"  style="stroke: black; stroke-linecap:round; stroke-width:0.25; stroke-dasharray:3,3;"/>
<line x1="87.900000" y1="119.000000" x2="87.900000" y2="77.000000"  style="stroke: black; stroke-linecap:round; stroke-width:0.25; stroke-dasharray:3,3;"/>
<line x1="45.900000" y1="77.000000" x2="50.900000" y2="77.000000"  style="stroke: black; stroke-linecap:round; stroke-width:0.25; stroke-dasharray:3,3;"/>
<line x1="60.575000" y1="77.000000" x2="87.900000" y2="77.000000"  style="stroke: black; stroke-linecap:round; stroke-width:0.25; stroke-dasharray:3,3;"/>
<text x="50.900000" y="79.000000" font-family="Arial" font-size="7">S</text>
<rect x="35.900000" y="139.000000" width="24.000000" height="24.000000" rx="0.1" ry="0.1" style="stroke:none;fill:#aaaaaa;;filter:url(#filter);"/>
<rect x="34.900000" y="138.000000" width="24.000000" height="24.000000" rx="0" ry="0" style="stroke:none;fill:#f44800;"/>
<text x="46.900000" y="152.000000" font-family="Arial" font-size="7" text-anchor="middle" fill="#FFFFFF">0.5</text>
<circle cx="36.900000" cy="140.000000" r="1"/>
<line x1="25.900000" y1="129.000000" x2="25.900000" y2="171.000000"  style="stroke: black; stroke-linecap:round; stroke-width:0.25; stroke-dasharray:3,3;"/>
<line x1="25.900000" y1="171.000000" x2="67.900000" y2="171.000000"  style="stroke: black; stroke-linecap:round; stroke-width:0.25; stroke-dasharray:3,3;"/>
<line x1="67.900000" y1="171.000000" x2="67.900000" y2="129.000000"  style="stroke: black; stroke-linecap:round; stroke-width:0.25; stroke-dasharray:3,3;"/>
<line x1="25.900000" y1="129.000000" x2="30.900000" y2="129.000000"  style="stroke: black; stroke-linecap:round; stroke-width:0.25; stroke-dasharray:3,3;"/>
<line x1="67.900000" y1="129.000000" x2="67.900000" y2="129.000000"  style="stroke: black; stroke-linecap:round; stroke-width:0.25; stroke-dasharray:3,3;"/>
<text x="30.900000" y="131.000000" font-family="Arial" font-size="7">fac(0.49999999999987366f)(0)(1)</text>
<rect x="35.000000" y="191.000000" width="25.800000" height="24.000000" rx="0.1" ry="0.1" style="stroke:none;fill:#aaaaaa;;filter:url(#filter);"/>
<rect x="34.000000" y="190.000000" width="25.800000" height="24.000000" rx="0" ry="0" style="stroke:none;fill:#f44800;"/>
<text x="46.900000" y="204.000000" font-family="Arial" font-size="7" text-anchor="middle" fill="#FFFFFF">0.75</text>
<circle cx="36.000000" cy="192.000000" r="1"/>
<line x1="25.000000" y1="181.000000" x2="25.000000" y2="223.000000"  style="stroke: black; stroke-linecap:round; stroke-width:0.25; stroke-dasharray:3,3;"/>
<line x1="25.000000" y1="223.000000" x2="68.800000" y2="223.000000"  style="stroke: black; stroke-linecap:round; stroke-width:0.25; stroke-dasharray:3,3;"/>
<line x1="68.800000" y1="223.000000" x2="68.800000" y2="181.000000"  style="stroke: black; stroke-linecap:round; stroke-width:0.25; stroke-dasharray:3,3;"/>
<line x1="25.000000" y1="181.000000" x2="30.000000" y2="181.000000"  style="stroke: black; stroke-linecap:round; stroke-width:0.25; stroke-dasharray:3,3;"/>
<line x1="68.800000" y1="181.000000" x2="68.800000" y2="181.000000"  style="stroke: black; stroke-linecap:round; stroke-width:0.25; stroke-dasharray:3,3;"/>
<text x="30.000000" y="183.000000" font-family="Arial" font-size="7">fac(0.49999999999987366f)(0)(2)</text>
<rect x="86.800000" y="165.000000" width="24.000000" height="24.000000" rx="0.1" ry="0.1" style="stroke:none;fill:#aaaaaa;;filter:url(#filter);"/>
<rect x="85.800000" y="164.000000" width="24.000000" height="24.000000" rx="0" ry="0" style="stroke:none;fill:#4B71A1;"/>
<text x="97.800000" y="178.000000" font-family="Arial" font-size="7" text-anchor="middle" fill="#FFFFFF">*</text>
<circle cx="87.800000" cy="166.000000" r="1"/>
<line x1="82.800000" y1="171.000000" x2="85.800000" y2="172.000000"  transform="rotate(0.000000,85.800000,172.000000)" style="stroke: black; stroke-width:0.25;"/>
<line x1="82.800000" y1="173.000000" x2="85.800000" y2="172.000000"  transform="rotate(0.000000,85.800000,172.000000)" style="stroke: black; stroke-width:0.25;"/>
<line x1="82.800000" y1="179.000000" x2="85.800000" y2="180.000000"  transform="rotate(0.000000,85.800000,180.000000)" style="stroke: black; stroke-width:0.25;"/>
<line x1="82.800000" y1="181.000000" x2="85.800000" y2="180.000000"  transform="rotate(0.000000,85.800000,180.000000)" style="stroke: black; stroke-width:0.25;"/>
<rect x="134.800000" y="113.000000" width="38.700000" height="24.000000" rx="0.1" ry="0.1" style="stroke:none;fill:#aaaaaa;;filter:url(#filter);"/>
<rect x="133.800000" y="112.000000" width="38.700000" height="24.000000" rx="0" ry="0" style="stroke:none;fill:#4B71A1;"/>
<text x="153.150000" y="126.000000" font-family="Arial" font-size="7" text-anchor="middle" fill="#FFFFFF">select2</text>
<circle cx="135.800000" cy="114.000000" r="1"/>
<line x1="130.800000" y1="115.000000" x2="133.800000" y2="116.000000"  transform="rotate(0.000000,133.800000,116.000000)" style="stroke: black; stroke-width:0.25;"/>
<line x1="130.800000" y1="117.000000" x2="133.800000" y2="116.000000"  transform="rotate(0.000000,133.800000,116.000000)" style="stroke: black; stroke-width:0.25;"/>
<line x1="130.800000" y1="123.000000" x2="133.800000" y2="124.000000"  transform="rotate(0.000000,133.800000,124.000000)" style="stroke: black; stroke-width:0.25;"/>
<line x1="130.800000" y1="125.000000" x2="133.800000" y2="124.000000"  transform="rotate(0.000000,133.800000,124.000000)" style="stroke: black; stroke-width:0.25;"/>
<line x1="130.800000" y1="131.000000" x2="133.800000" y2="132.000000"  transform="rotate(0.000000,133.800000,132.000000)" style="stroke: black; stroke-width:0.25;"/>
<line x1="130.800000" y1="133.000000" x2="133.800000" y2="132.000000"  transform="rotate(0.000000,133.800000,132.000000)" style="stroke: black; stroke-width:0.25;"/>
<line x1="15.000000" y1="15.000000" x2="15.000000" y2="233.000000"  style="stroke: black; stroke-linecap:round; stroke-width:0.25; stroke-dasharray:3,3;"/>
<line x1="15.000000" y1="233.000000" x2="189.500000" y2="233.000000"  style="stroke: black; stroke-linecap:round; stroke-width:0.25; stroke-dasharray:3,3;"/>
<line x1="189.500000" y1="233.000000" x2="189.500000" y2="15.000000"  style="stroke: black; stroke-linecap:round; stroke-width:0.25; stroke-dasharray:3,3;"/>
<line x1="15.000000" y1="15.000000" x2="20.000000" y2="15.000000"  style="stroke: black; stroke-linecap:round; stroke-width:0.25; stroke-dasharray:3,3;"/>
<line x1="132.875000" y1="15.000000" x2="189.500000" y2="15.000000"  style="stroke: black; stroke-linecap:round; stroke-width:0.25; stroke-dasharray:3,3;"/>
<text x="20.000000" y="17.000000" font-family="Arial" font-size="7">facs2(2)(0.49999999999987366f)(0)</text>
<line x1="191.500000" y1="123.000000" x2="194.500000" y2="124.000000"  transform="rotate(0.000000,194.500000,124.000000)" style="stroke: black; stroke-width:0.25;"/>
<line x1="191.500000" y1="125.000000" x2="194.500000" y2="124.000000"  transform="rotate(0.000000,194.500000,124.000000)" style="stroke: black; stroke-width:0.25;"/>
<line x1="58.900000" y1="150.000000" x2="62.900000" y2="150.000000"  style="stroke:black; stroke-linecap:round; stroke-width:0.25;"/>
<line x1="59.800000" y1="202.000000" x2="63.800000" y2="202.000000"  style="stroke:black; stroke-linecap:round; stroke-width:0.25;"/>
<line x1="62.900000" y1="150.000000" x2="72.900000" y2="150.000000"  style="stroke:black; stroke-linecap:round; stroke-width:0.25;"/>
<line x1="63.800000" y1="202.000000" x2="73.800000" y2="202.000000"  style="stroke:black; stroke-linecap:round; stroke-width:0.25;"/>
<line x1="72.900000" y1="150.000000" x2="73.800000" y2="150.000000"  style="stroke:black; stroke-linecap:round; stroke-width:0.25;"/>
<line x1="73.800000" y1="180.000000" x2="81.800000" y2="180.000000"  style="stroke:black; stroke-linecap:round; stroke-width:0.25;"/>
<line x1="73.800000" y1="202.000000" x2="73.800000" y2="180.000000"  style="stroke:black; stroke-linecap:round; stroke-width:0.25;"/>
<line x1="73.800000" y1="202.000000" x2="73.800000" y2="202.000000"  style="stroke:black; stroke-linecap:round; stroke-width:0.25;"/>
<line x1="73.800000" y1="150.000000" x2="81.800000" y2="150.000000"  style="stroke:black; stroke-linecap:round; stroke-width:0.25;"/>
<line x1="78.900000" y1="46.000000" x2="82.900000" y2="46.000000"  style="stroke:black; stroke-linecap:round; stroke-width:0.25;"/>
<line x1="78.900000" y1="98.000000" x2="82.900000" y2="98.000000"  style="stroke:black; stroke-linecap:round; stroke-width:0.25;"/>
<line x1="81.800000" y1="172.000000" x2="85.800000" y2="172.000000"  style="stroke:black; stroke-linecap:round; stroke-width:0.25;"/>
<line x1="81.800000" y1="180.000000" x2="85.800000" y2="180.000000"  style="stroke:black; stroke-linecap:round; stroke-width:0.25;"/>
<line x1="81.800000" y1="150.000000" x2="81.800000" y2="172.000000"  style="stroke:black; stroke-linecap:round; stroke-width:0.25;"/>
<line x1="81.800000" y1="172.000000" x2="81.800000" y2="172.000000"  style="stroke:black; stroke-linecap:round; stroke-width:0.25;"/>
<line x1="82.900000" y1="46.000000" x2="92.900000" y2="46.000000"  style="stroke:black; stroke-linecap:round; stroke-width:0.25;"/>
<line x1="82.900000" y1="98.000000" x2="92.900000" y2="98.000000"  style="stroke:black; stroke-linecap:round; stroke-width:0.25;"/>
<line x1="92.900000" y1="46.000000" x2="113.800000" y2="46.000000"  style="stroke:black; stroke-linecap:round; stroke-width:0.25;"/>
<line x1="92.900000" y1="98.000000" x2="113.800000" y2="98.000000"  style="stroke:black; stroke-linecap:round; stroke-width:0.25;"/>
<line x1="109.800000" y1="176.000000" x2="113.800000" y2="176.000000"  style="stroke:black; stroke-linecap:round; stroke-width:0.25;"/>
<line x1="113.800000" y1="132.000000" x2="129.800000" y2="132.000000"  style="stroke:black; stroke-linecap:round; stroke-width:0.25;"/>
<line x1="113.800000" y1="176.000000" x2="113.800000" y2="132.000000"  style="stroke:black; stroke-linecap:round; stroke-width:0.25;"/>
<line x1="113.800000" y1="176.000000" x2="113.800000" y2="176.000000"  style="stroke:black; stroke-linecap:round; stroke-width:0.25;"/>
<line x1="113.800000" y1="46.000000" x2="129.800000" y2="46.000000"  style="stroke:black; stroke-linecap:round; stroke-width:0.25;"/>
<line x1="113.800000" y1="98.000000" x2="121.800000" y2="98.000000"  style="stroke:black; stroke-linecap:round; stroke-width:0.25;"/>
<line x1="121.800000" y1="98.000000" x2="121.800000" y2="124.000000"  style="stroke:black; stroke-linecap:round; stroke-width:0.25;"/>
<line x1="121.800000" y1="124.000000" x2="129.800000" y2="124.000000"  style="stroke:black; stroke-linecap:round; stroke-width:0.25;"/>
<line x1="129.800000" y1="46.000000" x2="129.800000" y2="116.000000"  style="stroke:black; stroke-linecap:round; stroke-width:0.25;"/>
<line x1="129.800000" y1="116.000000" x2="129.800000" y2="116.000000"  style="stroke:black; stroke-linecap:round; stroke-width:0.25;"/>
<line x1="129.800000" y1="116.000000" x2="133.800000" y2="116.000000"  style="stroke:black; stroke-linecap:round; stroke-width:0.25;"/>
<line x1="129.800000" y1="124.000000" x2="133.800000" y2="124.000000"  style="stroke:black; stroke-linecap:round; stroke-width:0.25;"/>
<line x1="129.800000" y1="132.000000" x2="133.800000" y2="132.000000"  style="stroke:black; stroke-linecap:round; stroke-width:0.25;"/>
<line x1="172.500000" y1="124.000000" x2="176.500000" y2="124.000000"  style="stroke:black; stroke-linecap:round; stroke-width:0.25;"/>
<line x1="176.500000" y1="124.000000" x2="176.500000" y2="124.000000"  style="stroke:black; stroke-linecap:round; stroke-width:0.25;"/>
<line x1="176.500000" y1="124.000000" x2="180.500000" y2="124.000000"  style="stroke:black; stroke-linecap:round; stroke-width:0.25;"/>
<line x1="180.500000" y1="124.000000" x2="184.500000" y2="124.000000"  style="stroke:black; stroke-linecap:round; stroke-width:0.25;"/>
<line x1="184.500000" y1="124.000000" x2="194.500000" y2="124.000000"  style="stroke:black; stroke-linecap:round; stroke-width:0.25;"/>
</svg>
