<?xml version="1.0"?>
<svg xmlns="http://www.w3.org/2000/svg" xmlns:xlink="http://www.w3.org/1999/xlink" viewBox="0 0 230.300000 248.000000" width="115.150000mm" height="124.000000mm" version="1.1">
<defs>
   <filter id="filter" filterRes="18" x="0" y="0">
     <feGaussianBlur in="SourceGraphic" stdDeviation="1.55" result="blur"/>
     <feOffset in="blur" dx="3" dy="3"/>
   </filter>
</defs>
<a xlink:href="h-0x7f8f939c4580.svg">
<rect x="1.000000" y="1.000000" width="229.300000" height="247.000000" rx="0.1" ry="0.1" style="stroke:none;fill:#aaaaaa;;filter:url(#filter);"/>
<rect x="0.000000" y="0.000000" width="229.300000" height="247.000000" rx="0" ry="0" style="stroke:none;fill:#ffffff;"/>
</a>
<text x="10.000000" y="7.000000" font-family="Arial" font-size="7"></text>
<rect x="68.800000" y="35.000000" width="24.000000" height="24.000000" rx="0.1" ry="0.1" style="stroke:none;fill:#aaaaaa;;filter:url(#filter);"/>
<rect x="67.800000" y="34.000000" width="24.000000" height="24.000000" rx="0" ry="0" style="stroke:none;fill:#f44800;"/>
<text x="79.800000" y="48.000000" font-family="Arial" font-size="7" text-anchor="middle" fill="#FFFFFF">1</text>
<circle cx="69.800000" cy="36.000000" r="1"/>
<line x1="58.800000" y1="25.000000" x2="58.800000" y2="67.000000"  style="stroke: black; stroke-linecap:round; stroke-width:0.25; stroke-dasharray:3,3;"/>
<line x1="58.800000" y1="67.000000" x2="100.800000" y2="67.000000"  style="stroke: black; stroke-linecap:round; stroke-width:0.25; stroke-dasharray:3,3;"/>
<line x1="100.800000" y1="67.000000" x2="100.800000" y2="25.000000"  style="stroke: black; stroke-linecap:round; stroke-width:0.25; stroke-dasharray:3,3;"/>
<line x1="58.800000" y1="25.000000" x2="63.800000" y2="25.000000"  style="stroke: black; stroke-linecap:round; stroke-width:0.25; stroke-dasharray:3,3;"/>
<line x1="73.475000" y1="25.000000" x2="100.800000" y2="25.000000"  style="stroke: black; stroke-linecap:round; stroke-width:0.25; stroke-dasharray:3,3;"/>
<text x="63.800000" y="27.000000" font-family="Arial" font-size="7">S</text>
<rect x="68.800000" y="87.000000" width="24.000000" height="24.000000" rx="0.1" ry="0.1" style="stroke:none;fill:#aaaaaa;;filter:url(#filter);"/>
<rect x="67.800000" y="86.000000" width="24.000000" height="24.000000" rx="0" ry="0" style="stroke:none;fill:#f44800;"/>
<text x="79.800000" y="100.000000" font-family="Arial" font-size="7" text-anchor="middle" fill="#FFFFFF">1</text>
<circle cx="69.800000" cy="88.000000" r="1"/>
<line x1="58.800000" y1="77.000000" x2="58.800000" y2="119.000000"  style="stroke: black; stroke-linecap:round; stroke-width:0.25; stroke-dasharray:3,3;"/>
<line x1="58.800000" y1="119.000000" x2="100.800000" y2="119.000000"  style="stroke: black; stroke-linecap:round; stroke-width:0.25; stroke-dasharray:3,3;"/>
<line x1="100.800000" y1="119.000000" x2="100.800000" y2="77.000000"  style="stroke: black; stroke-linecap:round; stroke-width:0.25; stroke-dasharray:3,3;"/>
<line x1="58.800000" y1="77.000000" x2="63.800000" y2="77.000000"  style="stroke: black; stroke-linecap:round; stroke-width:0.25; stroke-dasharray:3,3;"/>
<line x1="73.475000" y1="77.000000" x2="100.800000" y2="77.000000"  style="stroke: black; stroke-linecap:round; stroke-width:0.25; stroke-dasharray:3,3;"/>
<text x="63.800000" y="79.000000" font-family="Arial" font-size="7">S</text>
<rect x="35.000000" y="139.000000" width="51.600000" height="24.000000" rx="0.1" ry="0.1" style="stroke:none;fill:#aaaaaa;;filter:url(#filter);"/>
<rect x="34.000000" y="138.000000" width="51.600000" height="24.000000" rx="0" ry="0" style="stroke:none;fill:#f44800;"/>
<text x="59.800000" y="152.000000" font-family="Arial" font-size="7" text-anchor="middle" fill="#FFFFFF">-0.00229533</text>
<circle cx="36.000000" cy="140.000000" r="1"/>
<line x1="25.000000" y1="129.000000" x2="25.000000" y2="171.000000"  style="stroke: black; stroke-linecap:round; stroke-width:0.25; stroke-dasharray:3,3;"/>
<line x1="25.000000" y1="171.000000" x2="94.600000" y2="171.000000"  style="stroke: black; stroke-linecap:round; stroke-width:0.25; stroke-dasharray:3,3;"/>
<line x1="94.600000" y1="171.000000" x2="94.600000" y2="129.000000"  style="stroke: black; stroke-linecap:round; stroke-width:0.25; stroke-dasharray:3,3;"/>
<line x1="25.000000" y1="129.000000" x2="30.000000" y2="129.000000"  style="stroke: black; stroke-linecap:round; stroke-width:0.25; stroke-dasharray:3,3;"/>
<line x1="94.600000" y1="129.000000" x2="94.600000" y2="129.000000"  style="stroke: black; stroke-linecap:round; stroke-width:0.25; stroke-dasharray:3,3;"/>
<text x="30.000000" y="131.000000" font-family="Arial" font-size="7">fac(1.0022953328232533f)(0)(1)</text>
<rect x="41.450000" y="191.000000" width="38.700000" height="24.000000" rx="0.1" ry="0.1" style="stroke:none;fill:#aaaaaa;;filter:url(#filter);"/>
<rect x="40.450000" y="190.000000" width="38.700000" height="24.000000" rx="0" ry="0" style="stroke:none;fill:#f44800;"/>
<text x="59.800000" y="204.000000" font-family="Arial" font-size="7" text-anchor="middle" fill="#FFFFFF">0.498852</text>
<circle cx="42.450000" cy="192.000000" r="1"/>
<line x1="31.450000" y1="181.000000" x2="31.450000" y2="223.000000"  style="stroke: black; stroke-linecap:round; stroke-width:0.25; stroke-dasharray:3,3;"/>
<line x1="31.450000" y1="223.000000" x2="88.150000" y2="223.000000"  style="stroke: black; stroke-linecap:round; stroke-width:0.25; stroke-dasharray:3,3;"/>
<line x1="88.150000" y1="223.000000" x2="88.150000" y2="181.000000"  style="stroke: black; stroke-linecap:round; stroke-width:0.25; stroke-dasharray:3,3;"/>
<line x1="31.450000" y1="181.000000" x2="36.450000" y2="181.000000"  style="stroke: black; stroke-linecap:round; stroke-width:0.25; stroke-dasharray:3,3;"/>
<line x1="88.150000" y1="181.000000" x2="88.150000" y2="181.000000"  style="stroke: black; stroke-linecap:round; stroke-width:0.25; stroke-dasharray:3,3;"/>
<text x="36.450000" y="183.000000" font-family="Arial" font-size="7">fac(1.0022953328232533f)(0)(2)</text>
<rect x="112.600000" y="165.000000" width="24.000000" height="24.000000" rx="0.1" ry="0.1" style="stroke:none;fill:#aaaaaa;;filter:url(#filter);"/>
<rect x="111.600000" y="164.000000" width="24.000000" height="24.000000" rx="0" ry="0" style="stroke:none;fill:#4B71A1;"/>
<text x="123.600000" y="178.000000" font-family="Arial" font-size="7" text-anchor="middle" fill="#FFFFFF">*</text>
<circle cx="113.600000" cy="166.000000" r="1"/>
<line x1="108.600000" y1="171.000000" x2="111.600000" y2="172.000000"  transform="rotate(0.000000,111.600000,172.000000)" style="stroke: black; stroke-width:0.25;"/>
<line x1="108.600000" y1="173.000000" x2="111.600000" y2="172.000000"  transform="rotate(0.000000,111.600000,172.000000)" style="stroke: black; stroke-width:0.25;"/>
<line x1="108.600000" y1="179.000000" x2="111.600000" y2="180.000000"  transform="rotate(0.000000,111.600000,180.000000)" style="stroke: black; stroke-width:0.25;"/>
<line x1="108.600000" y1="181.000000" x2="111.600000" y2="180.000000"  transform="rotate(0.000000,111.600000,180.000000)" style="stroke: black; stroke-width:0.25;"/>
<rect x="160.600000" y="113.000000" width="38.700000" height="24.000000" rx="0.1" ry="0.1" style="stroke:none;fill:#aaaaaa;;filter:url(#filter);"/>
<rect x="159.600000" y="112.000000" width="38.700000" height="24.000000" rx="0" ry="0" style="stroke:none;fill:#4B71A1;"/>
<text x="178.950000" y="126.000000" font-family="Arial" font-size="7" text-anchor="middle" fill="#FFFFFF">select2</text>
<circle cx="161.600000" cy="114.000000" r="1"/>
<line x1="156.600000" y1="115.000000" x2="159.600000" y2="116.000000"  transform="rotate(0.000000,159.600000,116.000000)" style="stroke: black; stroke-width:0.25;"/>
<line x1="156.600000" y1="117.000000" x2="159.600000" y2="116.000000"  transform="rotate(0.000000,159.600000,116.000000)" style="stroke: black; stroke-width:0.25;"/>
<line x1="156.600000" y1="123.000000" x2="159.600000" y2="124.000000"  transform="rotate(0.000000,159.600000,124.000000)" style="stroke: black; stroke-width:0.25;"/>
<line x1="156.600000" y1="125.000000" x2="159.600000" y2="124.000000"  transform="rotate(0.000000,159.600000,124.000000)" style="stroke: black; stroke-width:0.25;"/>
<line x1="156.600000" y1="131.000000" x2="159.600000" y2="132.000000"  transform="rotate(0.000000,159.600000,132.000000)" style="stroke: black; stroke-width:0.25;"/>
<line x1="156.600000" y1="133.000000" x2="159.600000" y2="132.000000"  transform="rotate(0.000000,159.600000,132.000000)" style="stroke: black; stroke-width:0.25;"/>
<line x1="15.000000" y1="15.000000" x2="15.000000" y2="233.000000"  style="stroke: black; stroke-linecap:round; stroke-width:0.25; stroke-dasharray:3,3;"/>
<line x1="15.000000" y1="233.000000" x2="215.300000" y2="233.000000"  style="stroke: black; stroke-linecap:round; stroke-width:0.25; stroke-dasharray:3,3;"/>
<line x1="215.300000" y1="233.000000" x2="215.300000" y2="15.000000"  style="stroke: black; stroke-linecap:round; stroke-width:0.25; stroke-dasharray:3,3;"/>
<line x1="15.000000" y1="15.000000" x2="20.000000" y2="15.000000"  style="stroke: black; stroke-linecap:round; stroke-width:0.25; stroke-dasharray:3,3;"/>
<line x1="129.650000" y1="15.000000" x2="215.300000" y2="15.000000"  style="stroke: black; stroke-linecap:round; stroke-width:0.25; stroke-dasharray:3,3;"/>
<text x="20.000000" y="17.000000" font-family="Arial" font-size="7">facs2(2)(1.0022953328232533f)(0)</text>
<line x1="217.300000" y1="123.000000" x2="220.300000" y2="124.000000"  transform="rotate(0.000000,220.300000,124.000000)" style="stroke: black; stroke-width:0.25;"/>
<line x1="217.300000" y1="125.000000" x2="220.300000" y2="124.000000"  transform="rotate(0.000000,220.300000,124.000000)" style="stroke: black; stroke-width:0.25;"/>
<line x1="79.150000" y1="202.000000" x2="83.150000" y2="202.000000"  style="stroke:black; stroke-linecap:round; stroke-width:0.25;"/>
<line x1="83.150000" y1="202.000000" x2="93.150000" y2="202.000000"  style="stroke:black; stroke-linecap:round; stroke-width:0.25;"/>
<line x1="85.600000" y1="150.000000" x2="89.600000" y2="150.000000"  style="stroke:black; stroke-linecap:round; stroke-width:0.25;"/>
<line x1="89.600000" y1="150.000000" x2="99.600000" y2="150.000000"  style="stroke:black; stroke-linecap:round; stroke-width:0.25;"/>
<line x1="91.800000" y1="46.000000" x2="95.800000" y2="46.000000"  style="stroke:black; stroke-linecap:round; stroke-width:0.25;"/>
<line x1="91.800000" y1="98.000000" x2="95.800000" y2="98.000000"  style="stroke:black; stroke-linecap:round; stroke-width:0.25;"/>
<line x1="93.150000" y1="202.000000" x2="99.600000" y2="202.000000"  style="stroke:black; stroke-linecap:round; stroke-width:0.25;"/>
<line x1="95.800000" y1="46.000000" x2="105.800000" y2="46.000000"  style="stroke:black; stroke-linecap:round; stroke-width:0.25;"/>
<line x1="95.800000" y1="98.000000" x2="105.800000" y2="98.000000"  style="stroke:black; stroke-linecap:round; stroke-width:0.25;"/>
<line x1="99.600000" y1="150.000000" x2="107.600000" y2="150.000000"  style="stroke:black; stroke-linecap:round; stroke-width:0.25;"/>
<line x1="99.600000" y1="180.000000" x2="107.600000" y2="180.000000"  style="stroke:black; stroke-linecap:round; stroke-width:0.25;"/>
<line x1="99.600000" y1="202.000000" x2="99.600000" y2="180.000000"  style="stroke:black; stroke-linecap:round; stroke-width:0.25;"/>
<line x1="99.600000" y1="202.000000" x2="99.600000" y2="202.000000"  style="stroke:black; stroke-linecap:round; stroke-width:0.25;"/>
<line x1="105.800000" y1="46.000000" x2="139.600000" y2="46.000000"  style="stroke:black; stroke-linecap:round; stroke-width:0.25;"/>
<line x1="105.800000" y1="98.000000" x2="139.600000" y2="98.000000"  style="stroke:black; stroke-linecap:round; stroke-width:0.25;"/>
<line x1="107.600000" y1="150.000000" x2="107.600000" y2="172.000000"  style="stroke:black; stroke-linecap:round; stroke-width:0.25;"/>
<line x1="107.600000" y1="172.000000" x2="107.600000" y2="172.000000"  style="stroke:black; stroke-linecap:round; stroke-width:0.25;"/>
<line x1="107.600000" y1="172.000000" x2="111.600000" y2="172.000000"  style="stroke:black; stroke-linecap:round; stroke-width:0.25;"/>
<line x1="107.600000" y1="180.000000" x2="111.600000" y2="180.000000"  style="stroke:black; stroke-linecap:round; stroke-width:0.25;"/>
<line x1="135.600000" y1="176.000000" x2="139.600000" y2="176.000000"  style="stroke:black; stroke-linecap:round; stroke-width:0.25;"/>
<line x1="139.600000" y1="46.000000" x2="155.600000" y2="46.000000"  style="stroke:black; stroke-linecap:round; stroke-width:0.25;"/>
<line x1="139.600000" y1="98.000000" x2="147.600000" y2="98.000000"  style="stroke:black; stroke-linecap:round; stroke-width:0.25;"/>
<line x1="139.600000" y1="132.000000" x2="155.600000" y2="132.000000"  style="stroke:black; stroke-linecap:round; stroke-width:0.25;"/>
<line x1="139.600000" y1="176.000000" x2="139.600000" y2="132.000000"  style="stroke:black; stroke-linecap:round; stroke-width:0.25;"/>
<line x1="139.600000" y1="176.000000" x2="139.600000" y2="176.000000"  style="stroke:black; stroke-linecap:round; stroke-width:0.25;"/>
<line x1="147.600000" y1="98.000000" x2="147.600000" y2="124.000000"  style="stroke:black; stroke-linecap:round; stroke-width:0.25;"/>
<line x1="147.600000" y1="124.000000" x2="155.600000" y2="124.000000"  style="stroke:black; stroke-linecap:round; stroke-width:0.25;"/>
<line x1="155.600000" y1="46.000000" x2="155.600000" y2="116.000000"  style="stroke:black; stroke-linecap:round; stroke-width:0.25;"/>
<line x1="155.600000" y1="116.000000" x2="155.600000" y2="116.000000"  style="stroke:black; stroke-linecap:round; stroke-width:0.25;"/>
<line x1="155.600000" y1="116.000000" x2="159.600000" y2="116.000000"  style="stroke:black; stroke-linecap:round; stroke-width:0.25;"/>
<line x1="155.600000" y1="124.000000" x2="159.600000" y2="124.000000"  style="stroke:black; stroke-linecap:round; stroke-width:0.25;"/>
<line x1="155.600000" y1="132.000000" x2="159.600000" y2="132.000000"  style="stroke:black; stroke-linecap:round; stroke-width:0.25;"/>
<line x1="198.300000" y1="124.000000" x2="202.300000" y2="124.000000"  style="stroke:black; stroke-linecap:round; stroke-width:0.25;"/>
<line x1="202.300000" y1="124.000000" x2="202.300000" y2="124.000000"  style="stroke:black; stroke-linecap:round; stroke-width:0.25;"/>
<line x1="202.300000" y1="124.000000" x2="206.300000" y2="124.000000"  style="stroke:black; stroke-linecap:round; stroke-width:0.25;"/>
<line x1="206.300000" y1="124.000000" x2="210.300000" y2="124.000000"  style="stroke:black; stroke-linecap:round; stroke-width:0.25;"/>
<line x1="210.300000" y1="124.000000" x2="220.300000" y2="124.000000"  style="stroke:black; stroke-linecap:round; stroke-width:0.25;"/>
</svg>
