<?xml version="1.0"?>
<svg xmlns="http://www.w3.org/2000/svg" xmlns:xlink="http://www.w3.org/1999/xlink" viewBox="0 0 267.600000 220.000000" width="133.800000mm" height="110.000000mm" version="1.1">
<defs>
   <filter id="filter" filterRes="18" x="0" y="0">
     <feGaussianBlur in="SourceGraphic" stdDeviation="1.55" result="blur"/>
     <feOffset in="blur" dx="3" dy="3"/>
   </filter>
</defs>
<a xlink:href="allpass-0x7f8f8fee9880.svg">
<rect x="1.000000" y="1.000000" width="266.600000" height="219.000000" rx="0.1" ry="0.1" style="stroke:none;fill:#aaaaaa;;filter:url(#filter);"/>
<rect x="0.000000" y="0.000000" width="266.600000" height="219.000000" rx="0" ry="0" style="stroke:none;fill:#ffffff;"/>
</a>
<text x="10.000000" y="7.000000" font-family="Arial" font-size="7"></text>
<rect x="33.000000" y="99.000000" width="24.000000" height="24.000000" rx="0.1" ry="0.1" style="stroke:none;fill:#aaaaaa;;filter:url(#filter);"/>
<rect x="32.000000" y="98.000000" width="24.000000" height="24.000000" rx="0" ry="0" style="stroke:none;fill:#47945E;"/>
<text x="44.000000" y="112.000000" font-family="Arial" font-size="7" text-anchor="middle" fill="#FFFFFF">x</text>
<circle cx="34.000000" cy="100.000000" r="1"/>
<line x1="29.000000" y1="109.000000" x2="32.000000" y2="110.000000"  transform="rotate(0.000000,32.000000,110.000000)" style="stroke: black; stroke-width:0.25;"/>
<line x1="29.000000" y1="111.000000" x2="32.000000" y2="110.000000"  transform="rotate(0.000000,32.000000,110.000000)" style="stroke: black; stroke-width:0.25;"/>
<a xlink:href="delay-0x7f8f8fee31f0.svg">
<rect x="65.650000" y="25.000000" width="90.300000" height="24.000000" rx="0.1" ry="0.1" style="stroke:none;fill:#aaaaaa;;filter:url(#filter);"/>
<rect x="64.650000" y="24.000000" width="90.300000" height="24.000000" rx="0" ry="0" style="stroke:none;fill:#003366;"/>
</a>
<a xlink:href="delay-0x7f8f8fee31f0.svg">
<text x="109.800000" y="38.000000" font-family="Arial" font-size="7" text-anchor="middle" fill="#FFFFFF">delay(6721)(671)(x67)</text>
</a>
<circle cx="66.650000" cy="26.000000" r="1"/>
<rect x="78.800000" y="67.000000" width="24.000000" height="24.000000" rx="0.1" ry="0.1" style="stroke:none;fill:#aaaaaa;;filter:url(#filter);"/>
<rect x="77.800000" y="66.000000" width="24.000000" height="24.000000" rx="0" ry="0" style="stroke:none;fill:#f44800;"/>
<text x="89.800000" y="80.000000" font-family="Arial" font-size="7" text-anchor="middle" fill="#FFFFFF">1</text>
<circle cx="79.800000" cy="68.000000" r="1"/>
<line x1="68.800000" y1="57.000000" x2="68.800000" y2="99.000000"  style="stroke: black; stroke-linecap:round; stroke-width:0.25; stroke-dasharray:3,3;"/>
<line x1="68.800000" y1="99.000000" x2="110.800000" y2="99.000000"  style="stroke: black; stroke-linecap:round; stroke-width:0.25; stroke-dasharray:3,3;"/>
<line x1="110.800000" y1="99.000000" x2="110.800000" y2="57.000000"  style="stroke: black; stroke-linecap:round; stroke-width:0.25; stroke-dasharray:3,3;"/>
<line x1="68.800000" y1="57.000000" x2="73.800000" y2="57.000000"  style="stroke: black; stroke-linecap:round; stroke-width:0.25; stroke-dasharray:3,3;"/>
<line x1="83.475000" y1="57.000000" x2="110.800000" y2="57.000000"  style="stroke: black; stroke-linecap:round; stroke-width:0.25; stroke-dasharray:3,3;"/>
<text x="73.800000" y="59.000000" font-family="Arial" font-size="7">S</text>
<a xlink:href="decimal-0x7f8f8fee4670.svg">
<rect x="65.000000" y="109.000000" width="51.600000" height="24.000000" rx="0.1" ry="0.1" style="stroke:none;fill:#aaaaaa;;filter:url(#filter);"/>
<rect x="64.000000" y="108.000000" width="51.600000" height="24.000000" rx="0" ry="0" style="stroke:none;fill:#003366;"/>
</a>
<a xlink:href="decimal-0x7f8f8fee4670.svg">
<text x="89.800000" y="122.000000" font-family="Arial" font-size="7" text-anchor="middle" fill="#FFFFFF">decimal(671)</text>
</a>
<circle cx="66.000000" cy="110.000000" r="1"/>
<rect x="132.600000" y="83.000000" width="24.000000" height="24.000000" rx="0.1" ry="0.1" style="stroke:none;fill:#aaaaaa;;filter:url(#filter);"/>
<rect x="131.600000" y="82.000000" width="24.000000" height="24.000000" rx="0" ry="0" style="stroke:none;fill:#4B71A1;"/>
<text x="143.600000" y="96.000000" font-family="Arial" font-size="7" text-anchor="middle" fill="#FFFFFF">-</text>
<circle cx="133.600000" cy="84.000000" r="1"/>
<line x1="128.600000" y1="89.000000" x2="131.600000" y2="90.000000"  transform="rotate(0.000000,131.600000,90.000000)" style="stroke: black; stroke-width:0.25;"/>
<line x1="128.600000" y1="91.000000" x2="131.600000" y2="90.000000"  transform="rotate(0.000000,131.600000,90.000000)" style="stroke: black; stroke-width:0.25;"/>
<line x1="128.600000" y1="97.000000" x2="131.600000" y2="98.000000"  transform="rotate(0.000000,131.600000,98.000000)" style="stroke: black; stroke-width:0.25;"/>
<line x1="128.600000" y1="99.000000" x2="131.600000" y2="98.000000"  transform="rotate(0.000000,131.600000,98.000000)" style="stroke: black; stroke-width:0.25;"/>
<rect x="172.600000" y="67.000000" width="24.000000" height="24.000000" rx="0.1" ry="0.1" style="stroke:none;fill:#aaaaaa;;filter:url(#filter);"/>
<rect x="171.600000" y="66.000000" width="24.000000" height="24.000000" rx="0" ry="0" style="stroke:none;fill:#4B71A1;"/>
<text x="183.600000" y="80.000000" font-family="Arial" font-size="7" text-anchor="middle" fill="#FFFFFF">*</text>
<circle cx="173.600000" cy="68.000000" r="1"/>
<line x1="168.600000" y1="73.000000" x2="171.600000" y2="74.000000"  transform="rotate(0.000000,171.600000,74.000000)" style="stroke: black; stroke-width:0.25;"/>
<line x1="168.600000" y1="75.000000" x2="171.600000" y2="74.000000"  transform="rotate(0.000000,171.600000,74.000000)" style="stroke: black; stroke-width:0.25;"/>
<line x1="168.600000" y1="81.000000" x2="171.600000" y2="82.000000"  transform="rotate(0.000000,171.600000,82.000000)" style="stroke: black; stroke-width:0.25;"/>
<line x1="168.600000" y1="83.000000" x2="171.600000" y2="82.000000"  transform="rotate(0.000000,171.600000,82.000000)" style="stroke: black; stroke-width:0.25;"/>
<a xlink:href="delay-0x7f8f8fee8a30.svg">
<rect x="65.650000" y="141.000000" width="90.300000" height="24.000000" rx="0.1" ry="0.1" style="stroke:none;fill:#aaaaaa;;filter:url(#filter);"/>
<rect x="64.650000" y="140.000000" width="90.300000" height="24.000000" rx="0" ry="0" style="stroke:none;fill:#003366;"/>
</a>
<a xlink:href="delay-0x7f8f8fee8a30.svg">
<text x="109.800000" y="154.000000" font-family="Arial" font-size="7" text-anchor="middle" fill="#FFFFFF">delay(6721)(672)(x67)</text>
</a>
<circle cx="66.650000" cy="142.000000" r="1"/>
<a xlink:href="decimal-0x7f8f8fee4670.svg">
<rect x="85.000000" y="173.000000" width="51.600000" height="24.000000" rx="0.1" ry="0.1" style="stroke:none;fill:#aaaaaa;;filter:url(#filter);"/>
<rect x="84.000000" y="172.000000" width="51.600000" height="24.000000" rx="0" ry="0" style="stroke:none;fill:#003366;"/>
</a>
<a xlink:href="decimal-0x7f8f8fee4670.svg">
<text x="109.800000" y="186.000000" font-family="Arial" font-size="7" text-anchor="middle" fill="#FFFFFF">decimal(671)</text>
</a>
<circle cx="86.000000" cy="174.000000" r="1"/>
<rect x="171.950000" y="157.000000" width="24.000000" height="24.000000" rx="0.1" ry="0.1" style="stroke:none;fill:#aaaaaa;;filter:url(#filter);"/>
<rect x="170.950000" y="156.000000" width="24.000000" height="24.000000" rx="0" ry="0" style="stroke:none;fill:#4B71A1;"/>
<text x="182.950000" y="170.000000" font-family="Arial" font-size="7" text-anchor="middle" fill="#FFFFFF">*</text>
<circle cx="172.950000" cy="158.000000" r="1"/>
<line x1="167.950000" y1="163.000000" x2="170.950000" y2="164.000000"  transform="rotate(0.000000,170.950000,164.000000)" style="stroke: black; stroke-width:0.25;"/>
<line x1="167.950000" y1="165.000000" x2="170.950000" y2="164.000000"  transform="rotate(0.000000,170.950000,164.000000)" style="stroke: black; stroke-width:0.25;"/>
<line x1="167.950000" y1="171.000000" x2="170.950000" y2="172.000000"  transform="rotate(0.000000,170.950000,172.000000)" style="stroke: black; stroke-width:0.25;"/>
<line x1="167.950000" y1="173.000000" x2="170.950000" y2="172.000000"  transform="rotate(0.000000,170.950000,172.000000)" style="stroke: black; stroke-width:0.25;"/>
<rect x="212.600000" y="99.000000" width="24.000000" height="24.000000" rx="0.1" ry="0.1" style="stroke:none;fill:#aaaaaa;;filter:url(#filter);"/>
<rect x="211.600000" y="98.000000" width="24.000000" height="24.000000" rx="0" ry="0" style="stroke:none;fill:#4B71A1;"/>
<text x="223.600000" y="112.000000" font-family="Arial" font-size="7" text-anchor="middle" fill="#FFFFFF">+</text>
<circle cx="213.600000" cy="100.000000" r="1"/>
<line x1="208.600000" y1="105.000000" x2="211.600000" y2="106.000000"  transform="rotate(0.000000,211.600000,106.000000)" style="stroke: black; stroke-width:0.25;"/>
<line x1="208.600000" y1="107.000000" x2="211.600000" y2="106.000000"  transform="rotate(0.000000,211.600000,106.000000)" style="stroke: black; stroke-width:0.25;"/>
<line x1="208.600000" y1="113.000000" x2="211.600000" y2="114.000000"  transform="rotate(0.000000,211.600000,114.000000)" style="stroke: black; stroke-width:0.25;"/>
<line x1="208.600000" y1="115.000000" x2="211.600000" y2="114.000000"  transform="rotate(0.000000,211.600000,114.000000)" style="stroke: black; stroke-width:0.25;"/>
<line x1="15.000000" y1="15.000000" x2="15.000000" y2="205.000000"  style="stroke: black; stroke-linecap:round; stroke-width:0.25; stroke-dasharray:3,3;"/>
<line x1="15.000000" y1="205.000000" x2="252.600000" y2="205.000000"  style="stroke: black; stroke-linecap:round; stroke-width:0.25; stroke-dasharray:3,3;"/>
<line x1="252.600000" y1="205.000000" x2="252.600000" y2="15.000000"  style="stroke: black; stroke-linecap:round; stroke-width:0.25; stroke-dasharray:3,3;"/>
<line x1="15.000000" y1="15.000000" x2="20.000000" y2="15.000000"  style="stroke: black; stroke-linecap:round; stroke-width:0.25; stroke-dasharray:3,3;"/>
<line x1="81.275000" y1="15.000000" x2="252.600000" y2="15.000000"  style="stroke: black; stroke-linecap:round; stroke-width:0.25; stroke-dasharray:3,3;"/>
<text x="20.000000" y="17.000000" font-family="Arial" font-size="7">fdelay(6720)(671)</text>
<line x1="254.600000" y1="109.000000" x2="257.600000" y2="110.000000"  transform="rotate(0.000000,257.600000,110.000000)" style="stroke: black; stroke-width:0.25;"/>
<line x1="254.600000" y1="111.000000" x2="257.600000" y2="110.000000"  transform="rotate(0.000000,257.600000,110.000000)" style="stroke: black; stroke-width:0.25;"/>
<line x1="10.000000" y1="110.000000" x2="20.000000" y2="110.000000"  style="stroke:black; stroke-linecap:round; stroke-width:0.25;"/>
<line x1="20.000000" y1="110.000000" x2="24.000000" y2="110.000000"  style="stroke:black; stroke-linecap:round; stroke-width:0.25;"/>
<line x1="24.000000" y1="110.000000" x2="28.000000" y2="110.000000"  style="stroke:black; stroke-linecap:round; stroke-width:0.25;"/>
<line x1="28.000000" y1="110.000000" x2="28.000000" y2="110.000000"  style="stroke:black; stroke-linecap:round; stroke-width:0.25;"/>
<line x1="28.000000" y1="110.000000" x2="32.000000" y2="110.000000"  style="stroke:black; stroke-linecap:round; stroke-width:0.25;"/>
<line x1="101.800000" y1="78.000000" x2="105.800000" y2="78.000000"  style="stroke:black; stroke-linecap:round; stroke-width:0.25;"/>
<line x1="105.800000" y1="78.000000" x2="115.800000" y2="78.000000"  style="stroke:black; stroke-linecap:round; stroke-width:0.25;"/>
<line x1="115.600000" y1="120.000000" x2="119.600000" y2="120.000000"  style="stroke:black; stroke-linecap:round; stroke-width:0.25;"/>
<line x1="115.800000" y1="78.000000" x2="119.600000" y2="78.000000"  style="stroke:black; stroke-linecap:round; stroke-width:0.25;"/>
<line x1="119.600000" y1="78.000000" x2="127.600000" y2="78.000000"  style="stroke:black; stroke-linecap:round; stroke-width:0.25;"/>
<line x1="119.600000" y1="98.000000" x2="127.600000" y2="98.000000"  style="stroke:black; stroke-linecap:round; stroke-width:0.25;"/>
<line x1="119.600000" y1="120.000000" x2="119.600000" y2="98.000000"  style="stroke:black; stroke-linecap:round; stroke-width:0.25;"/>
<line x1="119.600000" y1="120.000000" x2="119.600000" y2="120.000000"  style="stroke:black; stroke-linecap:round; stroke-width:0.25;"/>
<line x1="127.600000" y1="78.000000" x2="127.600000" y2="90.000000"  style="stroke:black; stroke-linecap:round; stroke-width:0.25;"/>
<line x1="127.600000" y1="90.000000" x2="127.600000" y2="90.000000"  style="stroke:black; stroke-linecap:round; stroke-width:0.25;"/>
<line x1="127.600000" y1="90.000000" x2="131.600000" y2="90.000000"  style="stroke:black; stroke-linecap:round; stroke-width:0.25;"/>
<line x1="127.600000" y1="98.000000" x2="131.600000" y2="98.000000"  style="stroke:black; stroke-linecap:round; stroke-width:0.25;"/>
<line x1="135.600000" y1="184.000000" x2="139.600000" y2="184.000000"  style="stroke:black; stroke-linecap:round; stroke-width:0.25;"/>
<line x1="139.600000" y1="184.000000" x2="158.950000" y2="184.000000"  style="stroke:black; stroke-linecap:round; stroke-width:0.25;"/>
<line x1="154.950000" y1="36.000000" x2="158.950000" y2="36.000000"  style="stroke:black; stroke-linecap:round; stroke-width:0.25;"/>
<line x1="154.950000" y1="152.000000" x2="158.950000" y2="152.000000"  style="stroke:black; stroke-linecap:round; stroke-width:0.25;"/>
<line x1="155.600000" y1="94.000000" x2="159.600000" y2="94.000000"  style="stroke:black; stroke-linecap:round; stroke-width:0.25;"/>
<line x1="158.950000" y1="36.000000" x2="159.600000" y2="36.000000"  style="stroke:black; stroke-linecap:round; stroke-width:0.25;"/>
<line x1="158.950000" y1="152.000000" x2="166.950000" y2="152.000000"  style="stroke:black; stroke-linecap:round; stroke-width:0.25;"/>
<line x1="158.950000" y1="172.000000" x2="166.950000" y2="172.000000"  style="stroke:black; stroke-linecap:round; stroke-width:0.25;"/>
<line x1="158.950000" y1="184.000000" x2="158.950000" y2="172.000000"  style="stroke:black; stroke-linecap:round; stroke-width:0.25;"/>
<line x1="158.950000" y1="184.000000" x2="158.950000" y2="184.000000"  style="stroke:black; stroke-linecap:round; stroke-width:0.25;"/>
<line x1="159.600000" y1="36.000000" x2="167.600000" y2="36.000000"  style="stroke:black; stroke-linecap:round; stroke-width:0.25;"/>
<line x1="159.600000" y1="82.000000" x2="167.600000" y2="82.000000"  style="stroke:black; stroke-linecap:round; stroke-width:0.25;"/>
<line x1="159.600000" y1="94.000000" x2="159.600000" y2="82.000000"  style="stroke:black; stroke-linecap:round; stroke-width:0.25;"/>
<line x1="159.600000" y1="94.000000" x2="159.600000" y2="94.000000"  style="stroke:black; stroke-linecap:round; stroke-width:0.25;"/>
<line x1="166.950000" y1="152.000000" x2="166.950000" y2="164.000000"  style="stroke:black; stroke-linecap:round; stroke-width:0.25;"/>
<line x1="166.950000" y1="164.000000" x2="166.950000" y2="164.000000"  style="stroke:black; stroke-linecap:round; stroke-width:0.25;"/>
<line x1="166.950000" y1="164.000000" x2="170.950000" y2="164.000000"  style="stroke:black; stroke-linecap:round; stroke-width:0.25;"/>
<line x1="166.950000" y1="172.000000" x2="170.950000" y2="172.000000"  style="stroke:black; stroke-linecap:round; stroke-width:0.25;"/>
<line x1="167.600000" y1="36.000000" x2="167.600000" y2="74.000000"  style="stroke:black; stroke-linecap:round; stroke-width:0.25;"/>
<line x1="167.600000" y1="74.000000" x2="167.600000" y2="74.000000"  style="stroke:black; stroke-linecap:round; stroke-width:0.25;"/>
<line x1="167.600000" y1="74.000000" x2="171.600000" y2="74.000000"  style="stroke:black; stroke-linecap:round; stroke-width:0.25;"/>
<line x1="167.600000" y1="82.000000" x2="171.600000" y2="82.000000"  style="stroke:black; stroke-linecap:round; stroke-width:0.25;"/>
<line x1="194.950000" y1="168.000000" x2="198.950000" y2="168.000000"  style="stroke:black; stroke-linecap:round; stroke-width:0.25;"/>
<line x1="195.600000" y1="78.000000" x2="199.600000" y2="78.000000"  style="stroke:black; stroke-linecap:round; stroke-width:0.25;"/>
<line x1="198.950000" y1="168.000000" x2="199.600000" y2="168.000000"  style="stroke:black; stroke-linecap:round; stroke-width:0.25;"/>
<line x1="199.600000" y1="114.000000" x2="207.600000" y2="114.000000"  style="stroke:black; stroke-linecap:round; stroke-width:0.25;"/>
<line x1="199.600000" y1="168.000000" x2="199.600000" y2="114.000000"  style="stroke:black; stroke-linecap:round; stroke-width:0.25;"/>
<line x1="199.600000" y1="168.000000" x2="199.600000" y2="168.000000"  style="stroke:black; stroke-linecap:round; stroke-width:0.25;"/>
<line x1="199.600000" y1="78.000000" x2="207.600000" y2="78.000000"  style="stroke:black; stroke-linecap:round; stroke-width:0.25;"/>
<line x1="207.600000" y1="78.000000" x2="207.600000" y2="106.000000"  style="stroke:black; stroke-linecap:round; stroke-width:0.25;"/>
<line x1="207.600000" y1="106.000000" x2="207.600000" y2="106.000000"  style="stroke:black; stroke-linecap:round; stroke-width:0.25;"/>
<line x1="207.600000" y1="106.000000" x2="211.600000" y2="106.000000"  style="stroke:black; stroke-linecap:round; stroke-width:0.25;"/>
<line x1="207.600000" y1="114.000000" x2="211.600000" y2="114.000000"  style="stroke:black; stroke-linecap:round; stroke-width:0.25;"/>
<line x1="235.600000" y1="110.000000" x2="239.600000" y2="110.000000"  style="stroke:black; stroke-linecap:round; stroke-width:0.25;"/>
<line x1="239.600000" y1="110.000000" x2="239.600000" y2="110.000000"  style="stroke:black; stroke-linecap:round; stroke-width:0.25;"/>
<line x1="239.600000" y1="110.000000" x2="243.600000" y2="110.000000"  style="stroke:black; stroke-linecap:round; stroke-width:0.25;"/>
<line x1="243.600000" y1="110.000000" x2="247.600000" y2="110.000000"  style="stroke:black; stroke-linecap:round; stroke-width:0.25;"/>
<line x1="247.600000" y1="110.000000" x2="257.600000" y2="110.000000"  style="stroke:black; stroke-linecap:round; stroke-width:0.25;"/>
</svg>
