<?xml version="1.0"?>
<svg xmlns="http://www.w3.org/2000/svg" xmlns:xlink="http://www.w3.org/1999/xlink" viewBox="0 0 345.000000 232.000000" width="172.500000mm" height="116.000000mm" version="1.1">
<defs>
   <filter id="filter" filterRes="18" x="0" y="0">
     <feGaussianBlur in="SourceGraphic" stdDeviation="1.55" result="blur"/>
     <feOffset in="blur" dx="3" dy="3"/>
   </filter>
</defs>
<a xlink:href="right-0x7f8f93b58a60.svg">
<rect x="1.000000" y="1.000000" width="344.000000" height="231.000000" rx="0.1" ry="0.1" style="stroke:none;fill:#aaaaaa;;filter:url(#filter);"/>
<rect x="0.000000" y="0.000000" width="344.000000" height="231.000000" rx="0" ry="0" style="stroke:none;fill:#ffffff;"/>
</a>
<text x="10.000000" y="7.000000" font-family="Arial" font-size="7"></text>
<rect x="33.000000" y="105.000000" width="24.000000" height="24.000000" rx="0.1" ry="0.1" style="stroke:none;fill:#aaaaaa;;filter:url(#filter);"/>
<rect x="32.000000" y="104.000000" width="24.000000" height="24.000000" rx="0" ry="0" style="stroke:none;fill:#47945E;"/>
<text x="44.000000" y="118.000000" font-family="Arial" font-size="7" text-anchor="middle" fill="#FFFFFF">x</text>
<circle cx="34.000000" cy="106.000000" r="1"/>
<line x1="29.000000" y1="115.000000" x2="32.000000" y2="116.000000"  transform="rotate(0.000000,32.000000,116.000000)" style="stroke: black; stroke-width:0.25;"/>
<line x1="29.000000" y1="117.000000" x2="32.000000" y2="116.000000"  transform="rotate(0.000000,32.000000,116.000000)" style="stroke: black; stroke-width:0.25;"/>
<a xlink:href="delay-0x7f8f92d96960.svg">
<rect x="71.450000" y="25.000000" width="116.100000" height="24.000000" rx="0.1" ry="0.1" style="stroke:none;fill:#aaaaaa;;filter:url(#filter);"/>
<rect x="70.450000" y="24.000000" width="116.100000" height="24.000000" rx="0" ry="0" style="stroke:none;fill:#003366;"/>
</a>
<a xlink:href="delay-0x7f8f92d96960.svg">
<text x="128.500000" y="38.000000" font-family="Arial" font-size="7" text-anchor="middle" fill="#FFFFFF">delay(10542.5f)(2108)(x175)</text>
</a>
<circle cx="72.450000" cy="26.000000" r="1"/>
<a xlink:href="h-0x7f8f92db3d90.svg">
<rect x="65.000000" y="57.000000" width="129.000000" height="24.000000" rx="0.1" ry="0.1" style="stroke:none;fill:#aaaaaa;;filter:url(#filter);"/>
<rect x="64.000000" y="56.000000" width="129.000000" height="24.000000" rx="0" ry="0" style="stroke:none;fill:#003366;"/>
</a>
<a xlink:href="h-0x7f8f92db3d90.svg">
<text x="128.500000" y="70.000000" font-family="Arial" font-size="7" text-anchor="middle" fill="#FFFFFF">h(2)(0.49999999999987366f)(0)</text>
</a>
<circle cx="66.000000" cy="58.000000" r="1"/>
<rect x="210.000000" y="41.000000" width="24.000000" height="24.000000" rx="0.1" ry="0.1" style="stroke:none;fill:#aaaaaa;;filter:url(#filter);"/>
<rect x="209.000000" y="40.000000" width="24.000000" height="24.000000" rx="0" ry="0" style="stroke:none;fill:#4B71A1;"/>
<text x="221.000000" y="54.000000" font-family="Arial" font-size="7" text-anchor="middle" fill="#FFFFFF">*</text>
<circle cx="211.000000" cy="42.000000" r="1"/>
<line x1="206.000000" y1="47.000000" x2="209.000000" y2="48.000000"  transform="rotate(0.000000,209.000000,48.000000)" style="stroke: black; stroke-width:0.25;"/>
<line x1="206.000000" y1="49.000000" x2="209.000000" y2="48.000000"  transform="rotate(0.000000,209.000000,48.000000)" style="stroke: black; stroke-width:0.25;"/>
<line x1="206.000000" y1="55.000000" x2="209.000000" y2="56.000000"  transform="rotate(0.000000,209.000000,56.000000)" style="stroke: black; stroke-width:0.25;"/>
<line x1="206.000000" y1="57.000000" x2="209.000000" y2="56.000000"  transform="rotate(0.000000,209.000000,56.000000)" style="stroke: black; stroke-width:0.25;"/>
<a xlink:href="delay-0x7f8f92db8c30.svg">
<rect x="71.450000" y="89.000000" width="116.100000" height="24.000000" rx="0.1" ry="0.1" style="stroke:none;fill:#aaaaaa;;filter:url(#filter);"/>
<rect x="70.450000" y="88.000000" width="116.100000" height="24.000000" rx="0" ry="0" style="stroke:none;fill:#003366;"/>
</a>
<a xlink:href="delay-0x7f8f92db8c30.svg">
<text x="128.500000" y="102.000000" font-family="Arial" font-size="7" text-anchor="middle" fill="#FFFFFF">delay(10542.5f)(2109)(x175)</text>
</a>
<circle cx="72.450000" cy="90.000000" r="1"/>
<a xlink:href="h-0x7f8f92dca730.svg">
<rect x="65.000000" y="121.000000" width="129.000000" height="24.000000" rx="0.1" ry="0.1" style="stroke:none;fill:#aaaaaa;;filter:url(#filter);"/>
<rect x="64.000000" y="120.000000" width="129.000000" height="24.000000" rx="0" ry="0" style="stroke:none;fill:#003366;"/>
</a>
<a xlink:href="h-0x7f8f92dca730.svg">
<text x="128.500000" y="134.000000" font-family="Arial" font-size="7" text-anchor="middle" fill="#FFFFFF">h(2)(0.49999999999987366f)(1)</text>
</a>
<circle cx="66.000000" cy="122.000000" r="1"/>
<rect x="210.000000" y="105.000000" width="24.000000" height="24.000000" rx="0.1" ry="0.1" style="stroke:none;fill:#aaaaaa;;filter:url(#filter);"/>
<rect x="209.000000" y="104.000000" width="24.000000" height="24.000000" rx="0" ry="0" style="stroke:none;fill:#4B71A1;"/>
<text x="221.000000" y="118.000000" font-family="Arial" font-size="7" text-anchor="middle" fill="#FFFFFF">*</text>
<circle cx="211.000000" cy="106.000000" r="1"/>
<line x1="206.000000" y1="111.000000" x2="209.000000" y2="112.000000"  transform="rotate(0.000000,209.000000,112.000000)" style="stroke: black; stroke-width:0.25;"/>
<line x1="206.000000" y1="113.000000" x2="209.000000" y2="112.000000"  transform="rotate(0.000000,209.000000,112.000000)" style="stroke: black; stroke-width:0.25;"/>
<line x1="206.000000" y1="119.000000" x2="209.000000" y2="120.000000"  transform="rotate(0.000000,209.000000,120.000000)" style="stroke: black; stroke-width:0.25;"/>
<line x1="206.000000" y1="121.000000" x2="209.000000" y2="120.000000"  transform="rotate(0.000000,209.000000,120.000000)" style="stroke: black; stroke-width:0.25;"/>
<rect x="250.000000" y="73.000000" width="24.000000" height="24.000000" rx="0.1" ry="0.1" style="stroke:none;fill:#aaaaaa;;filter:url(#filter);"/>
<rect x="249.000000" y="72.000000" width="24.000000" height="24.000000" rx="0" ry="0" style="stroke:none;fill:#4B71A1;"/>
<text x="261.000000" y="86.000000" font-family="Arial" font-size="7" text-anchor="middle" fill="#FFFFFF">+</text>
<circle cx="251.000000" cy="74.000000" r="1"/>
<line x1="246.000000" y1="79.000000" x2="249.000000" y2="80.000000"  transform="rotate(0.000000,249.000000,80.000000)" style="stroke: black; stroke-width:0.25;"/>
<line x1="246.000000" y1="81.000000" x2="249.000000" y2="80.000000"  transform="rotate(0.000000,249.000000,80.000000)" style="stroke: black; stroke-width:0.25;"/>
<line x1="246.000000" y1="87.000000" x2="249.000000" y2="88.000000"  transform="rotate(0.000000,249.000000,88.000000)" style="stroke: black; stroke-width:0.25;"/>
<line x1="246.000000" y1="89.000000" x2="249.000000" y2="88.000000"  transform="rotate(0.000000,249.000000,88.000000)" style="stroke: black; stroke-width:0.25;"/>
<a xlink:href="delay-0x7f8f92dcf750.svg">
<rect x="91.450000" y="153.000000" width="116.100000" height="24.000000" rx="0.1" ry="0.1" style="stroke:none;fill:#aaaaaa;;filter:url(#filter);"/>
<rect x="90.450000" y="152.000000" width="116.100000" height="24.000000" rx="0" ry="0" style="stroke:none;fill:#003366;"/>
</a>
<a xlink:href="delay-0x7f8f92dcf750.svg">
<text x="148.500000" y="166.000000" font-family="Arial" font-size="7" text-anchor="middle" fill="#FFFFFF">delay(10542.5f)(2110)(x175)</text>
</a>
<circle cx="92.450000" cy="154.000000" r="1"/>
<a xlink:href="h-0x7f8f92de6fc0.svg">
<rect x="85.000000" y="185.000000" width="129.000000" height="24.000000" rx="0.1" ry="0.1" style="stroke:none;fill:#aaaaaa;;filter:url(#filter);"/>
<rect x="84.000000" y="184.000000" width="129.000000" height="24.000000" rx="0" ry="0" style="stroke:none;fill:#003366;"/>
</a>
<a xlink:href="h-0x7f8f92de6fc0.svg">
<text x="148.500000" y="198.000000" font-family="Arial" font-size="7" text-anchor="middle" fill="#FFFFFF">h(2)(0.49999999999987366f)(2)</text>
</a>
<circle cx="86.000000" cy="186.000000" r="1"/>
<rect x="230.000000" y="169.000000" width="24.000000" height="24.000000" rx="0.1" ry="0.1" style="stroke:none;fill:#aaaaaa;;filter:url(#filter);"/>
<rect x="229.000000" y="168.000000" width="24.000000" height="24.000000" rx="0" ry="0" style="stroke:none;fill:#4B71A1;"/>
<text x="241.000000" y="182.000000" font-family="Arial" font-size="7" text-anchor="middle" fill="#FFFFFF">*</text>
<circle cx="231.000000" cy="170.000000" r="1"/>
<line x1="226.000000" y1="175.000000" x2="229.000000" y2="176.000000"  transform="rotate(0.000000,229.000000,176.000000)" style="stroke: black; stroke-width:0.25;"/>
<line x1="226.000000" y1="177.000000" x2="229.000000" y2="176.000000"  transform="rotate(0.000000,229.000000,176.000000)" style="stroke: black; stroke-width:0.25;"/>
<line x1="226.000000" y1="183.000000" x2="229.000000" y2="184.000000"  transform="rotate(0.000000,229.000000,184.000000)" style="stroke: black; stroke-width:0.25;"/>
<line x1="226.000000" y1="185.000000" x2="229.000000" y2="184.000000"  transform="rotate(0.000000,229.000000,184.000000)" style="stroke: black; stroke-width:0.25;"/>
<rect x="290.000000" y="105.000000" width="24.000000" height="24.000000" rx="0.1" ry="0.1" style="stroke:none;fill:#aaaaaa;;filter:url(#filter);"/>
<rect x="289.000000" y="104.000000" width="24.000000" height="24.000000" rx="0" ry="0" style="stroke:none;fill:#4B71A1;"/>
<text x="301.000000" y="118.000000" font-family="Arial" font-size="7" text-anchor="middle" fill="#FFFFFF">+</text>
<circle cx="291.000000" cy="106.000000" r="1"/>
<line x1="286.000000" y1="111.000000" x2="289.000000" y2="112.000000"  transform="rotate(0.000000,289.000000,112.000000)" style="stroke: black; stroke-width:0.25;"/>
<line x1="286.000000" y1="113.000000" x2="289.000000" y2="112.000000"  transform="rotate(0.000000,289.000000,112.000000)" style="stroke: black; stroke-width:0.25;"/>
<line x1="286.000000" y1="119.000000" x2="289.000000" y2="120.000000"  transform="rotate(0.000000,289.000000,120.000000)" style="stroke: black; stroke-width:0.25;"/>
<line x1="286.000000" y1="121.000000" x2="289.000000" y2="120.000000"  transform="rotate(0.000000,289.000000,120.000000)" style="stroke: black; stroke-width:0.25;"/>
<line x1="15.000000" y1="15.000000" x2="15.000000" y2="217.000000"  style="stroke: black; stroke-linecap:round; stroke-width:0.25; stroke-dasharray:3,3;"/>
<line x1="15.000000" y1="217.000000" x2="330.000000" y2="217.000000"  style="stroke: black; stroke-linecap:round; stroke-width:0.25; stroke-dasharray:3,3;"/>
<line x1="330.000000" y1="217.000000" x2="330.000000" y2="15.000000"  style="stroke: black; stroke-linecap:round; stroke-width:0.25; stroke-dasharray:3,3;"/>
<line x1="15.000000" y1="15.000000" x2="20.000000" y2="15.000000"  style="stroke: black; stroke-linecap:round; stroke-width:0.25; stroke-dasharray:3,3;"/>
<line x1="110.300000" y1="15.000000" x2="330.000000" y2="15.000000"  style="stroke: black; stroke-linecap:round; stroke-width:0.25; stroke-dasharray:3,3;"/>
<text x="20.000000" y="17.000000" font-family="Arial" font-size="7">fdelay2(10542.5f)(2108.5f)</text>
<line x1="332.000000" y1="115.000000" x2="335.000000" y2="116.000000"  transform="rotate(0.000000,335.000000,116.000000)" style="stroke: black; stroke-width:0.25;"/>
<line x1="332.000000" y1="117.000000" x2="335.000000" y2="116.000000"  transform="rotate(0.000000,335.000000,116.000000)" style="stroke: black; stroke-width:0.25;"/>
<line x1="10.000000" y1="116.000000" x2="20.000000" y2="116.000000"  style="stroke:black; stroke-linecap:round; stroke-width:0.25;"/>
<line x1="20.000000" y1="116.000000" x2="24.000000" y2="116.000000"  style="stroke:black; stroke-linecap:round; stroke-width:0.25;"/>
<line x1="24.000000" y1="116.000000" x2="28.000000" y2="116.000000"  style="stroke:black; stroke-linecap:round; stroke-width:0.25;"/>
<line x1="28.000000" y1="116.000000" x2="28.000000" y2="116.000000"  style="stroke:black; stroke-linecap:round; stroke-width:0.25;"/>
<line x1="28.000000" y1="116.000000" x2="32.000000" y2="116.000000"  style="stroke:black; stroke-linecap:round; stroke-width:0.25;"/>
<line x1="186.550000" y1="36.000000" x2="190.550000" y2="36.000000"  style="stroke:black; stroke-linecap:round; stroke-width:0.25;"/>
<line x1="186.550000" y1="100.000000" x2="190.550000" y2="100.000000"  style="stroke:black; stroke-linecap:round; stroke-width:0.25;"/>
<line x1="190.550000" y1="36.000000" x2="197.000000" y2="36.000000"  style="stroke:black; stroke-linecap:round; stroke-width:0.25;"/>
<line x1="190.550000" y1="100.000000" x2="197.000000" y2="100.000000"  style="stroke:black; stroke-linecap:round; stroke-width:0.25;"/>
<line x1="193.000000" y1="68.000000" x2="197.000000" y2="68.000000"  style="stroke:black; stroke-linecap:round; stroke-width:0.25;"/>
<line x1="193.000000" y1="132.000000" x2="197.000000" y2="132.000000"  style="stroke:black; stroke-linecap:round; stroke-width:0.25;"/>
<line x1="197.000000" y1="36.000000" x2="205.000000" y2="36.000000"  style="stroke:black; stroke-linecap:round; stroke-width:0.25;"/>
<line x1="197.000000" y1="56.000000" x2="205.000000" y2="56.000000"  style="stroke:black; stroke-linecap:round; stroke-width:0.25;"/>
<line x1="197.000000" y1="68.000000" x2="197.000000" y2="56.000000"  style="stroke:black; stroke-linecap:round; stroke-width:0.25;"/>
<line x1="197.000000" y1="68.000000" x2="197.000000" y2="68.000000"  style="stroke:black; stroke-linecap:round; stroke-width:0.25;"/>
<line x1="197.000000" y1="100.000000" x2="205.000000" y2="100.000000"  style="stroke:black; stroke-linecap:round; stroke-width:0.25;"/>
<line x1="197.000000" y1="120.000000" x2="205.000000" y2="120.000000"  style="stroke:black; stroke-linecap:round; stroke-width:0.25;"/>
<line x1="197.000000" y1="132.000000" x2="197.000000" y2="120.000000"  style="stroke:black; stroke-linecap:round; stroke-width:0.25;"/>
<line x1="197.000000" y1="132.000000" x2="197.000000" y2="132.000000"  style="stroke:black; stroke-linecap:round; stroke-width:0.25;"/>
<line x1="205.000000" y1="36.000000" x2="205.000000" y2="48.000000"  style="stroke:black; stroke-linecap:round; stroke-width:0.25;"/>
<line x1="205.000000" y1="48.000000" x2="205.000000" y2="48.000000"  style="stroke:black; stroke-linecap:round; stroke-width:0.25;"/>
<line x1="205.000000" y1="48.000000" x2="209.000000" y2="48.000000"  style="stroke:black; stroke-linecap:round; stroke-width:0.25;"/>
<line x1="205.000000" y1="56.000000" x2="209.000000" y2="56.000000"  style="stroke:black; stroke-linecap:round; stroke-width:0.25;"/>
<line x1="205.000000" y1="100.000000" x2="205.000000" y2="112.000000"  style="stroke:black; stroke-linecap:round; stroke-width:0.25;"/>
<line x1="205.000000" y1="112.000000" x2="205.000000" y2="112.000000"  style="stroke:black; stroke-linecap:round; stroke-width:0.25;"/>
<line x1="205.000000" y1="112.000000" x2="209.000000" y2="112.000000"  style="stroke:black; stroke-linecap:round; stroke-width:0.25;"/>
<line x1="205.000000" y1="120.000000" x2="209.000000" y2="120.000000"  style="stroke:black; stroke-linecap:round; stroke-width:0.25;"/>
<line x1="206.550000" y1="164.000000" x2="210.550000" y2="164.000000"  style="stroke:black; stroke-linecap:round; stroke-width:0.25;"/>
<line x1="210.550000" y1="164.000000" x2="217.000000" y2="164.000000"  style="stroke:black; stroke-linecap:round; stroke-width:0.25;"/>
<line x1="213.000000" y1="196.000000" x2="217.000000" y2="196.000000"  style="stroke:black; stroke-linecap:round; stroke-width:0.25;"/>
<line x1="217.000000" y1="164.000000" x2="225.000000" y2="164.000000"  style="stroke:black; stroke-linecap:round; stroke-width:0.25;"/>
<line x1="217.000000" y1="184.000000" x2="225.000000" y2="184.000000"  style="stroke:black; stroke-linecap:round; stroke-width:0.25;"/>
<line x1="217.000000" y1="196.000000" x2="217.000000" y2="184.000000"  style="stroke:black; stroke-linecap:round; stroke-width:0.25;"/>
<line x1="217.000000" y1="196.000000" x2="217.000000" y2="196.000000"  style="stroke:black; stroke-linecap:round; stroke-width:0.25;"/>
<line x1="225.000000" y1="164.000000" x2="225.000000" y2="176.000000"  style="stroke:black; stroke-linecap:round; stroke-width:0.25;"/>
<line x1="225.000000" y1="176.000000" x2="225.000000" y2="176.000000"  style="stroke:black; stroke-linecap:round; stroke-width:0.25;"/>
<line x1="225.000000" y1="176.000000" x2="229.000000" y2="176.000000"  style="stroke:black; stroke-linecap:round; stroke-width:0.25;"/>
<line x1="225.000000" y1="184.000000" x2="229.000000" y2="184.000000"  style="stroke:black; stroke-linecap:round; stroke-width:0.25;"/>
<line x1="233.000000" y1="52.000000" x2="237.000000" y2="52.000000"  style="stroke:black; stroke-linecap:round; stroke-width:0.25;"/>
<line x1="233.000000" y1="116.000000" x2="237.000000" y2="116.000000"  style="stroke:black; stroke-linecap:round; stroke-width:0.25;"/>
<line x1="237.000000" y1="52.000000" x2="245.000000" y2="52.000000"  style="stroke:black; stroke-linecap:round; stroke-width:0.25;"/>
<line x1="237.000000" y1="88.000000" x2="245.000000" y2="88.000000"  style="stroke:black; stroke-linecap:round; stroke-width:0.25;"/>
<line x1="237.000000" y1="116.000000" x2="237.000000" y2="88.000000"  style="stroke:black; stroke-linecap:round; stroke-width:0.25;"/>
<line x1="237.000000" y1="116.000000" x2="237.000000" y2="116.000000"  style="stroke:black; stroke-linecap:round; stroke-width:0.25;"/>
<line x1="245.000000" y1="52.000000" x2="245.000000" y2="80.000000"  style="stroke:black; stroke-linecap:round; stroke-width:0.25;"/>
<line x1="245.000000" y1="80.000000" x2="245.000000" y2="80.000000"  style="stroke:black; stroke-linecap:round; stroke-width:0.25;"/>
<line x1="245.000000" y1="80.000000" x2="249.000000" y2="80.000000"  style="stroke:black; stroke-linecap:round; stroke-width:0.25;"/>
<line x1="245.000000" y1="88.000000" x2="249.000000" y2="88.000000"  style="stroke:black; stroke-linecap:round; stroke-width:0.25;"/>
<line x1="253.000000" y1="180.000000" x2="257.000000" y2="180.000000"  style="stroke:black; stroke-linecap:round; stroke-width:0.25;"/>
<line x1="257.000000" y1="180.000000" x2="277.000000" y2="180.000000"  style="stroke:black; stroke-linecap:round; stroke-width:0.25;"/>
<line x1="273.000000" y1="84.000000" x2="277.000000" y2="84.000000"  style="stroke:black; stroke-linecap:round; stroke-width:0.25;"/>
<line x1="277.000000" y1="84.000000" x2="285.000000" y2="84.000000"  style="stroke:black; stroke-linecap:round; stroke-width:0.25;"/>
<line x1="277.000000" y1="120.000000" x2="285.000000" y2="120.000000"  style="stroke:black; stroke-linecap:round; stroke-width:0.25;"/>
<line x1="277.000000" y1="180.000000" x2="277.000000" y2="120.000000"  style="stroke:black; stroke-linecap:round; stroke-width:0.25;"/>
<line x1="277.000000" y1="180.000000" x2="277.000000" y2="180.000000"  style="stroke:black; stroke-linecap:round; stroke-width:0.25;"/>
<line x1="285.000000" y1="84.000000" x2="285.000000" y2="112.000000"  style="stroke:black; stroke-linecap:round; stroke-width:0.25;"/>
<line x1="285.000000" y1="112.000000" x2="285.000000" y2="112.000000"  style="stroke:black; stroke-linecap:round; stroke-width:0.25;"/>
<line x1="285.000000" y1="112.000000" x2="289.000000" y2="112.000000"  style="stroke:black; stroke-linecap:round; stroke-width:0.25;"/>
<line x1="285.000000" y1="120.000000" x2="289.000000" y2="120.000000"  style="stroke:black; stroke-linecap:round; stroke-width:0.25;"/>
<line x1="313.000000" y1="116.000000" x2="317.000000" y2="116.000000"  style="stroke:black; stroke-linecap:round; stroke-width:0.25;"/>
<line x1="317.000000" y1="116.000000" x2="317.000000" y2="116.000000"  style="stroke:black; stroke-linecap:round; stroke-width:0.25;"/>
<line x1="317.000000" y1="116.000000" x2="321.000000" y2="116.000000"  style="stroke:black; stroke-linecap:round; stroke-width:0.25;"/>
<line x1="321.000000" y1="116.000000" x2="325.000000" y2="116.000000"  style="stroke:black; stroke-linecap:round; stroke-width:0.25;"/>
<line x1="325.000000" y1="116.000000" x2="335.000000" y2="116.000000"  style="stroke:black; stroke-linecap:round; stroke-width:0.25;"/>
</svg>
