<?xml version="1.0"?>
<svg xmlns="http://www.w3.org/2000/svg" xmlns:xlink="http://www.w3.org/1999/xlink" viewBox="0 0 383.700000 232.000000" width="191.850000mm" height="116.000000mm" version="1.1">
<defs>
   <filter id="filter" filterRes="18" x="0" y="0">
     <feGaussianBlur in="SourceGraphic" stdDeviation="1.55" result="blur"/>
     <feOffset in="blur" dx="3" dy="3"/>
   </filter>
</defs>
<a xlink:href="left-0x7f8f93009d30.svg">
<rect x="1.000000" y="1.000000" width="382.700000" height="231.000000" rx="0.1" ry="0.1" style="stroke:none;fill:#aaaaaa;;filter:url(#filter);"/>
<rect x="0.000000" y="0.000000" width="382.700000" height="231.000000" rx="0" ry="0" style="stroke:none;fill:#ffffff;"/>
</a>
<text x="10.000000" y="7.000000" font-family="Arial" font-size="7"></text>
<rect x="33.000000" y="105.000000" width="24.000000" height="24.000000" rx="0.1" ry="0.1" style="stroke:none;fill:#aaaaaa;;filter:url(#filter);"/>
<rect x="32.000000" y="104.000000" width="24.000000" height="24.000000" rx="0" ry="0" style="stroke:none;fill:#47945E;"/>
<text x="44.000000" y="118.000000" font-family="Arial" font-size="7" text-anchor="middle" fill="#FFFFFF">x</text>
<circle cx="34.000000" cy="106.000000" r="1"/>
<line x1="29.000000" y1="115.000000" x2="32.000000" y2="116.000000"  transform="rotate(0.000000,32.000000,116.000000)" style="stroke: black; stroke-width:0.25;"/>
<line x1="29.000000" y1="117.000000" x2="32.000000" y2="116.000000"  transform="rotate(0.000000,32.000000,116.000000)" style="stroke: black; stroke-width:0.25;"/>
<a xlink:href="delay-0x7f8f91987c20.svg">
<rect x="65.000000" y="25.000000" width="167.700000" height="24.000000" rx="0.1" ry="0.1" style="stroke:none;fill:#aaaaaa;;filter:url(#filter);"/>
<rect x="64.000000" y="24.000000" width="167.700000" height="24.000000" rx="0" ry="0" style="stroke:none;fill:#003366;"/>
</a>
<a xlink:href="delay-0x7f8f91987c20.svg">
<text x="147.850000" y="38.000000" font-family="Arial" font-size="7" text-anchor="middle" fill="#FFFFFF">delay(18257.299999999999f)(3619)(x71)</text>
</a>
<circle cx="66.000000" cy="26.000000" r="1"/>
<a xlink:href="h-0x7f8f919a1510.svg">
<rect x="90.800000" y="57.000000" width="116.100000" height="24.000000" rx="0.1" ry="0.1" style="stroke:none;fill:#aaaaaa;;filter:url(#filter);"/>
<rect x="89.800000" y="56.000000" width="116.100000" height="24.000000" rx="0" ry="0" style="stroke:none;fill:#003366;"/>
</a>
<a xlink:href="h-0x7f8f919a1510.svg">
<text x="147.850000" y="70.000000" font-family="Arial" font-size="7" text-anchor="middle" fill="#FFFFFF">h(2)(1.325203252032553f)(0)</text>
</a>
<circle cx="91.800000" cy="58.000000" r="1"/>
<rect x="248.700000" y="41.000000" width="24.000000" height="24.000000" rx="0.1" ry="0.1" style="stroke:none;fill:#aaaaaa;;filter:url(#filter);"/>
<rect x="247.700000" y="40.000000" width="24.000000" height="24.000000" rx="0" ry="0" style="stroke:none;fill:#4B71A1;"/>
<text x="259.700000" y="54.000000" font-family="Arial" font-size="7" text-anchor="middle" fill="#FFFFFF">*</text>
<circle cx="249.700000" cy="42.000000" r="1"/>
<line x1="244.700000" y1="47.000000" x2="247.700000" y2="48.000000"  transform="rotate(0.000000,247.700000,48.000000)" style="stroke: black; stroke-width:0.25;"/>
<line x1="244.700000" y1="49.000000" x2="247.700000" y2="48.000000"  transform="rotate(0.000000,247.700000,48.000000)" style="stroke: black; stroke-width:0.25;"/>
<line x1="244.700000" y1="55.000000" x2="247.700000" y2="56.000000"  transform="rotate(0.000000,247.700000,56.000000)" style="stroke: black; stroke-width:0.25;"/>
<line x1="244.700000" y1="57.000000" x2="247.700000" y2="56.000000"  transform="rotate(0.000000,247.700000,56.000000)" style="stroke: black; stroke-width:0.25;"/>
<a xlink:href="delay-0x7f8f919a5f60.svg">
<rect x="65.000000" y="89.000000" width="167.700000" height="24.000000" rx="0.1" ry="0.1" style="stroke:none;fill:#aaaaaa;;filter:url(#filter);"/>
<rect x="64.000000" y="88.000000" width="167.700000" height="24.000000" rx="0" ry="0" style="stroke:none;fill:#003366;"/>
</a>
<a xlink:href="delay-0x7f8f919a5f60.svg">
<text x="147.850000" y="102.000000" font-family="Arial" font-size="7" text-anchor="middle" fill="#FFFFFF">delay(18257.299999999999f)(3620)(x71)</text>
</a>
<circle cx="66.000000" cy="90.000000" r="1"/>
<a xlink:href="h-0x7f8f919b5660.svg">
<rect x="90.800000" y="121.000000" width="116.100000" height="24.000000" rx="0.1" ry="0.1" style="stroke:none;fill:#aaaaaa;;filter:url(#filter);"/>
<rect x="89.800000" y="120.000000" width="116.100000" height="24.000000" rx="0" ry="0" style="stroke:none;fill:#003366;"/>
</a>
<a xlink:href="h-0x7f8f919b5660.svg">
<text x="147.850000" y="134.000000" font-family="Arial" font-size="7" text-anchor="middle" fill="#FFFFFF">h(2)(1.325203252032553f)(1)</text>
</a>
<circle cx="91.800000" cy="122.000000" r="1"/>
<rect x="248.700000" y="105.000000" width="24.000000" height="24.000000" rx="0.1" ry="0.1" style="stroke:none;fill:#aaaaaa;;filter:url(#filter);"/>
<rect x="247.700000" y="104.000000" width="24.000000" height="24.000000" rx="0" ry="0" style="stroke:none;fill:#4B71A1;"/>
<text x="259.700000" y="118.000000" font-family="Arial" font-size="7" text-anchor="middle" fill="#FFFFFF">*</text>
<circle cx="249.700000" cy="106.000000" r="1"/>
<line x1="244.700000" y1="111.000000" x2="247.700000" y2="112.000000"  transform="rotate(0.000000,247.700000,112.000000)" style="stroke: black; stroke-width:0.25;"/>
<line x1="244.700000" y1="113.000000" x2="247.700000" y2="112.000000"  transform="rotate(0.000000,247.700000,112.000000)" style="stroke: black; stroke-width:0.25;"/>
<line x1="244.700000" y1="119.000000" x2="247.700000" y2="120.000000"  transform="rotate(0.000000,247.700000,120.000000)" style="stroke: black; stroke-width:0.25;"/>
<line x1="244.700000" y1="121.000000" x2="247.700000" y2="120.000000"  transform="rotate(0.000000,247.700000,120.000000)" style="stroke: black; stroke-width:0.25;"/>
<rect x="288.700000" y="73.000000" width="24.000000" height="24.000000" rx="0.1" ry="0.1" style="stroke:none;fill:#aaaaaa;;filter:url(#filter);"/>
<rect x="287.700000" y="72.000000" width="24.000000" height="24.000000" rx="0" ry="0" style="stroke:none;fill:#4B71A1;"/>
<text x="299.700000" y="86.000000" font-family="Arial" font-size="7" text-anchor="middle" fill="#FFFFFF">+</text>
<circle cx="289.700000" cy="74.000000" r="1"/>
<line x1="284.700000" y1="79.000000" x2="287.700000" y2="80.000000"  transform="rotate(0.000000,287.700000,80.000000)" style="stroke: black; stroke-width:0.25;"/>
<line x1="284.700000" y1="81.000000" x2="287.700000" y2="80.000000"  transform="rotate(0.000000,287.700000,80.000000)" style="stroke: black; stroke-width:0.25;"/>
<line x1="284.700000" y1="87.000000" x2="287.700000" y2="88.000000"  transform="rotate(0.000000,287.700000,88.000000)" style="stroke: black; stroke-width:0.25;"/>
<line x1="284.700000" y1="89.000000" x2="287.700000" y2="88.000000"  transform="rotate(0.000000,287.700000,88.000000)" style="stroke: black; stroke-width:0.25;"/>
<a xlink:href="delay-0x7f8f919ba230.svg">
<rect x="85.000000" y="153.000000" width="167.700000" height="24.000000" rx="0.1" ry="0.1" style="stroke:none;fill:#aaaaaa;;filter:url(#filter);"/>
<rect x="84.000000" y="152.000000" width="167.700000" height="24.000000" rx="0" ry="0" style="stroke:none;fill:#003366;"/>
</a>
<a xlink:href="delay-0x7f8f919ba230.svg">
<text x="167.850000" y="166.000000" font-family="Arial" font-size="7" text-anchor="middle" fill="#FFFFFF">delay(18257.299999999999f)(3621)(x71)</text>
</a>
<circle cx="86.000000" cy="154.000000" r="1"/>
<a xlink:href="h-0x7f8f919ceda0.svg">
<rect x="110.800000" y="185.000000" width="116.100000" height="24.000000" rx="0.1" ry="0.1" style="stroke:none;fill:#aaaaaa;;filter:url(#filter);"/>
<rect x="109.800000" y="184.000000" width="116.100000" height="24.000000" rx="0" ry="0" style="stroke:none;fill:#003366;"/>
</a>
<a xlink:href="h-0x7f8f919ceda0.svg">
<text x="167.850000" y="198.000000" font-family="Arial" font-size="7" text-anchor="middle" fill="#FFFFFF">h(2)(1.325203252032553f)(2)</text>
</a>
<circle cx="111.800000" cy="186.000000" r="1"/>
<rect x="268.700000" y="169.000000" width="24.000000" height="24.000000" rx="0.1" ry="0.1" style="stroke:none;fill:#aaaaaa;;filter:url(#filter);"/>
<rect x="267.700000" y="168.000000" width="24.000000" height="24.000000" rx="0" ry="0" style="stroke:none;fill:#4B71A1;"/>
<text x="279.700000" y="182.000000" font-family="Arial" font-size="7" text-anchor="middle" fill="#FFFFFF">*</text>
<circle cx="269.700000" cy="170.000000" r="1"/>
<line x1="264.700000" y1="175.000000" x2="267.700000" y2="176.000000"  transform="rotate(0.000000,267.700000,176.000000)" style="stroke: black; stroke-width:0.25;"/>
<line x1="264.700000" y1="177.000000" x2="267.700000" y2="176.000000"  transform="rotate(0.000000,267.700000,176.000000)" style="stroke: black; stroke-width:0.25;"/>
<line x1="264.700000" y1="183.000000" x2="267.700000" y2="184.000000"  transform="rotate(0.000000,267.700000,184.000000)" style="stroke: black; stroke-width:0.25;"/>
<line x1="264.700000" y1="185.000000" x2="267.700000" y2="184.000000"  transform="rotate(0.000000,267.700000,184.000000)" style="stroke: black; stroke-width:0.25;"/>
<rect x="328.700000" y="105.000000" width="24.000000" height="24.000000" rx="0.1" ry="0.1" style="stroke:none;fill:#aaaaaa;;filter:url(#filter);"/>
<rect x="327.700000" y="104.000000" width="24.000000" height="24.000000" rx="0" ry="0" style="stroke:none;fill:#4B71A1;"/>
<text x="339.700000" y="118.000000" font-family="Arial" font-size="7" text-anchor="middle" fill="#FFFFFF">+</text>
<circle cx="329.700000" cy="106.000000" r="1"/>
<line x1="324.700000" y1="111.000000" x2="327.700000" y2="112.000000"  transform="rotate(0.000000,327.700000,112.000000)" style="stroke: black; stroke-width:0.25;"/>
<line x1="324.700000" y1="113.000000" x2="327.700000" y2="112.000000"  transform="rotate(0.000000,327.700000,112.000000)" style="stroke: black; stroke-width:0.25;"/>
<line x1="324.700000" y1="119.000000" x2="327.700000" y2="120.000000"  transform="rotate(0.000000,327.700000,120.000000)" style="stroke: black; stroke-width:0.25;"/>
<line x1="324.700000" y1="121.000000" x2="327.700000" y2="120.000000"  transform="rotate(0.000000,327.700000,120.000000)" style="stroke: black; stroke-width:0.25;"/>
<line x1="15.000000" y1="15.000000" x2="15.000000" y2="217.000000"  style="stroke: black; stroke-linecap:round; stroke-width:0.25; stroke-dasharray:3,3;"/>
<line x1="15.000000" y1="217.000000" x2="368.700000" y2="217.000000"  style="stroke: black; stroke-linecap:round; stroke-width:0.25; stroke-dasharray:3,3;"/>
<line x1="368.700000" y1="217.000000" x2="368.700000" y2="15.000000"  style="stroke: black; stroke-linecap:round; stroke-width:0.25; stroke-dasharray:3,3;"/>
<line x1="15.000000" y1="15.000000" x2="20.000000" y2="15.000000"  style="stroke: black; stroke-linecap:round; stroke-width:0.25; stroke-dasharray:3,3;"/>
<line x1="119.975000" y1="15.000000" x2="368.700000" y2="15.000000"  style="stroke: black; stroke-linecap:round; stroke-width:0.25; stroke-dasharray:3,3;"/>
<text x="20.000000" y="17.000000" font-family="Arial" font-size="7">fdelay2(18257...52032520327f)</text>
<line x1="370.700000" y1="115.000000" x2="373.700000" y2="116.000000"  transform="rotate(0.000000,373.700000,116.000000)" style="stroke: black; stroke-width:0.25;"/>
<line x1="370.700000" y1="117.000000" x2="373.700000" y2="116.000000"  transform="rotate(0.000000,373.700000,116.000000)" style="stroke: black; stroke-width:0.25;"/>
<line x1="10.000000" y1="116.000000" x2="20.000000" y2="116.000000"  style="stroke:black; stroke-linecap:round; stroke-width:0.25;"/>
<line x1="20.000000" y1="116.000000" x2="24.000000" y2="116.000000"  style="stroke:black; stroke-linecap:round; stroke-width:0.25;"/>
<line x1="24.000000" y1="116.000000" x2="28.000000" y2="116.000000"  style="stroke:black; stroke-linecap:round; stroke-width:0.25;"/>
<line x1="28.000000" y1="116.000000" x2="28.000000" y2="116.000000"  style="stroke:black; stroke-linecap:round; stroke-width:0.25;"/>
<line x1="28.000000" y1="116.000000" x2="32.000000" y2="116.000000"  style="stroke:black; stroke-linecap:round; stroke-width:0.25;"/>
<line x1="205.900000" y1="68.000000" x2="209.900000" y2="68.000000"  style="stroke:black; stroke-linecap:round; stroke-width:0.25;"/>
<line x1="205.900000" y1="132.000000" x2="209.900000" y2="132.000000"  style="stroke:black; stroke-linecap:round; stroke-width:0.25;"/>
<line x1="209.900000" y1="68.000000" x2="235.700000" y2="68.000000"  style="stroke:black; stroke-linecap:round; stroke-width:0.25;"/>
<line x1="209.900000" y1="132.000000" x2="235.700000" y2="132.000000"  style="stroke:black; stroke-linecap:round; stroke-width:0.25;"/>
<line x1="225.900000" y1="196.000000" x2="229.900000" y2="196.000000"  style="stroke:black; stroke-linecap:round; stroke-width:0.25;"/>
<line x1="229.900000" y1="196.000000" x2="255.700000" y2="196.000000"  style="stroke:black; stroke-linecap:round; stroke-width:0.25;"/>
<line x1="231.700000" y1="36.000000" x2="235.700000" y2="36.000000"  style="stroke:black; stroke-linecap:round; stroke-width:0.25;"/>
<line x1="231.700000" y1="100.000000" x2="235.700000" y2="100.000000"  style="stroke:black; stroke-linecap:round; stroke-width:0.25;"/>
<line x1="235.700000" y1="36.000000" x2="243.700000" y2="36.000000"  style="stroke:black; stroke-linecap:round; stroke-width:0.25;"/>
<line x1="235.700000" y1="56.000000" x2="243.700000" y2="56.000000"  style="stroke:black; stroke-linecap:round; stroke-width:0.25;"/>
<line x1="235.700000" y1="68.000000" x2="235.700000" y2="56.000000"  style="stroke:black; stroke-linecap:round; stroke-width:0.25;"/>
<line x1="235.700000" y1="68.000000" x2="235.700000" y2="68.000000"  style="stroke:black; stroke-linecap:round; stroke-width:0.25;"/>
<line x1="235.700000" y1="100.000000" x2="243.700000" y2="100.000000"  style="stroke:black; stroke-linecap:round; stroke-width:0.25;"/>
<line x1="235.700000" y1="120.000000" x2="243.700000" y2="120.000000"  style="stroke:black; stroke-linecap:round; stroke-width:0.25;"/>
<line x1="235.700000" y1="132.000000" x2="235.700000" y2="120.000000"  style="stroke:black; stroke-linecap:round; stroke-width:0.25;"/>
<line x1="235.700000" y1="132.000000" x2="235.700000" y2="132.000000"  style="stroke:black; stroke-linecap:round; stroke-width:0.25;"/>
<line x1="243.700000" y1="36.000000" x2="243.700000" y2="48.000000"  style="stroke:black; stroke-linecap:round; stroke-width:0.25;"/>
<line x1="243.700000" y1="48.000000" x2="243.700000" y2="48.000000"  style="stroke:black; stroke-linecap:round; stroke-width:0.25;"/>
<line x1="243.700000" y1="48.000000" x2="247.700000" y2="48.000000"  style="stroke:black; stroke-linecap:round; stroke-width:0.25;"/>
<line x1="243.700000" y1="56.000000" x2="247.700000" y2="56.000000"  style="stroke:black; stroke-linecap:round; stroke-width:0.25;"/>
<line x1="243.700000" y1="100.000000" x2="243.700000" y2="112.000000"  style="stroke:black; stroke-linecap:round; stroke-width:0.25;"/>
<line x1="243.700000" y1="112.000000" x2="243.700000" y2="112.000000"  style="stroke:black; stroke-linecap:round; stroke-width:0.25;"/>
<line x1="243.700000" y1="112.000000" x2="247.700000" y2="112.000000"  style="stroke:black; stroke-linecap:round; stroke-width:0.25;"/>
<line x1="243.700000" y1="120.000000" x2="247.700000" y2="120.000000"  style="stroke:black; stroke-linecap:round; stroke-width:0.25;"/>
<line x1="251.700000" y1="164.000000" x2="255.700000" y2="164.000000"  style="stroke:black; stroke-linecap:round; stroke-width:0.25;"/>
<line x1="255.700000" y1="164.000000" x2="263.700000" y2="164.000000"  style="stroke:black; stroke-linecap:round; stroke-width:0.25;"/>
<line x1="255.700000" y1="184.000000" x2="263.700000" y2="184.000000"  style="stroke:black; stroke-linecap:round; stroke-width:0.25;"/>
<line x1="255.700000" y1="196.000000" x2="255.700000" y2="184.000000"  style="stroke:black; stroke-linecap:round; stroke-width:0.25;"/>
<line x1="255.700000" y1="196.000000" x2="255.700000" y2="196.000000"  style="stroke:black; stroke-linecap:round; stroke-width:0.25;"/>
<line x1="263.700000" y1="164.000000" x2="263.700000" y2="176.000000"  style="stroke:black; stroke-linecap:round; stroke-width:0.25;"/>
<line x1="263.700000" y1="176.000000" x2="263.700000" y2="176.000000"  style="stroke:black; stroke-linecap:round; stroke-width:0.25;"/>
<line x1="263.700000" y1="176.000000" x2="267.700000" y2="176.000000"  style="stroke:black; stroke-linecap:round; stroke-width:0.25;"/>
<line x1="263.700000" y1="184.000000" x2="267.700000" y2="184.000000"  style="stroke:black; stroke-linecap:round; stroke-width:0.25;"/>
<line x1="271.700000" y1="52.000000" x2="275.700000" y2="52.000000"  style="stroke:black; stroke-linecap:round; stroke-width:0.25;"/>
<line x1="271.700000" y1="116.000000" x2="275.700000" y2="116.000000"  style="stroke:black; stroke-linecap:round; stroke-width:0.25;"/>
<line x1="275.700000" y1="52.000000" x2="283.700000" y2="52.000000"  style="stroke:black; stroke-linecap:round; stroke-width:0.25;"/>
<line x1="275.700000" y1="88.000000" x2="283.700000" y2="88.000000"  style="stroke:black; stroke-linecap:round; stroke-width:0.25;"/>
<line x1="275.700000" y1="116.000000" x2="275.700000" y2="88.000000"  style="stroke:black; stroke-linecap:round; stroke-width:0.25;"/>
<line x1="275.700000" y1="116.000000" x2="275.700000" y2="116.000000"  style="stroke:black; stroke-linecap:round; stroke-width:0.25;"/>
<line x1="283.700000" y1="52.000000" x2="283.700000" y2="80.000000"  style="stroke:black; stroke-linecap:round; stroke-width:0.25;"/>
<line x1="283.700000" y1="80.000000" x2="283.700000" y2="80.000000"  style="stroke:black; stroke-linecap:round; stroke-width:0.25;"/>
<line x1="283.700000" y1="80.000000" x2="287.700000" y2="80.000000"  style="stroke:black; stroke-linecap:round; stroke-width:0.25;"/>
<line x1="283.700000" y1="88.000000" x2="287.700000" y2="88.000000"  style="stroke:black; stroke-linecap:round; stroke-width:0.25;"/>
<line x1="291.700000" y1="180.000000" x2="295.700000" y2="180.000000"  style="stroke:black; stroke-linecap:round; stroke-width:0.25;"/>
<line x1="295.700000" y1="180.000000" x2="315.700000" y2="180.000000"  style="stroke:black; stroke-linecap:round; stroke-width:0.25;"/>
<line x1="311.700000" y1="84.000000" x2="315.700000" y2="84.000000"  style="stroke:black; stroke-linecap:round; stroke-width:0.25;"/>
<line x1="315.700000" y1="84.000000" x2="323.700000" y2="84.000000"  style="stroke:black; stroke-linecap:round; stroke-width:0.25;"/>
<line x1="315.700000" y1="120.000000" x2="323.700000" y2="120.000000"  style="stroke:black; stroke-linecap:round; stroke-width:0.25;"/>
<line x1="315.700000" y1="180.000000" x2="315.700000" y2="120.000000"  style="stroke:black; stroke-linecap:round; stroke-width:0.25;"/>
<line x1="315.700000" y1="180.000000" x2="315.700000" y2="180.000000"  style="stroke:black; stroke-linecap:round; stroke-width:0.25;"/>
<line x1="323.700000" y1="84.000000" x2="323.700000" y2="112.000000"  style="stroke:black; stroke-linecap:round; stroke-width:0.25;"/>
<line x1="323.700000" y1="112.000000" x2="323.700000" y2="112.000000"  style="stroke:black; stroke-linecap:round; stroke-width:0.25;"/>
<line x1="323.700000" y1="112.000000" x2="327.700000" y2="112.000000"  style="stroke:black; stroke-linecap:round; stroke-width:0.25;"/>
<line x1="323.700000" y1="120.000000" x2="327.700000" y2="120.000000"  style="stroke:black; stroke-linecap:round; stroke-width:0.25;"/>
<line x1="351.700000" y1="116.000000" x2="355.700000" y2="116.000000"  style="stroke:black; stroke-linecap:round; stroke-width:0.25;"/>
<line x1="355.700000" y1="116.000000" x2="355.700000" y2="116.000000"  style="stroke:black; stroke-linecap:round; stroke-width:0.25;"/>
<line x1="355.700000" y1="116.000000" x2="359.700000" y2="116.000000"  style="stroke:black; stroke-linecap:round; stroke-width:0.25;"/>
<line x1="359.700000" y1="116.000000" x2="363.700000" y2="116.000000"  style="stroke:black; stroke-linecap:round; stroke-width:0.25;"/>
<line x1="363.700000" y1="116.000000" x2="373.700000" y2="116.000000"  style="stroke:black; stroke-linecap:round; stroke-width:0.25;"/>
</svg>
