<?xml version="1.0"?>
<svg xmlns="http://www.w3.org/2000/svg" xmlns:xlink="http://www.w3.org/1999/xlink" viewBox="0 0 345.000000 220.000000" width="172.500000mm" height="110.000000mm" version="1.1">
<defs>
   <filter id="filter" filterRes="18" x="0" y="0">
     <feGaussianBlur in="SourceGraphic" stdDeviation="1.55" result="blur"/>
     <feOffset in="blur" dx="3" dy="3"/>
   </filter>
</defs>
<a xlink:href="allpass-0x7f8f92800c00.svg">
<rect x="1.000000" y="1.000000" width="344.000000" height="219.000000" rx="0.1" ry="0.1" style="stroke:none;fill:#aaaaaa;;filter:url(#filter);"/>
<rect x="0.000000" y="0.000000" width="344.000000" height="219.000000" rx="0" ry="0" style="stroke:none;fill:#ffffff;"/>
</a>
<text x="10.000000" y="7.000000" font-family="Arial" font-size="7"></text>
<rect x="33.000000" y="99.000000" width="24.000000" height="24.000000" rx="0.1" ry="0.1" style="stroke:none;fill:#aaaaaa;;filter:url(#filter);"/>
<rect x="32.000000" y="98.000000" width="24.000000" height="24.000000" rx="0" ry="0" style="stroke:none;fill:#47945E;"/>
<text x="44.000000" y="112.000000" font-family="Arial" font-size="7" text-anchor="middle" fill="#FFFFFF">x</text>
<circle cx="34.000000" cy="100.000000" r="1"/>
<line x1="29.000000" y1="109.000000" x2="32.000000" y2="110.000000"  transform="rotate(0.000000,32.000000,110.000000)" style="stroke: black; stroke-width:0.25;"/>
<line x1="29.000000" y1="111.000000" x2="32.000000" y2="110.000000"  transform="rotate(0.000000,32.000000,110.000000)" style="stroke: black; stroke-width:0.25;"/>
<a xlink:href="delay-0x7f8f91ffb980.svg">
<rect x="72.100000" y="25.000000" width="154.800000" height="24.000000" rx="0.1" ry="0.1" style="stroke:none;fill:#aaaaaa;;filter:url(#filter);"/>
<rect x="71.100000" y="24.000000" width="154.800000" height="24.000000" rx="0" ry="0" style="stroke:none;fill:#003366;"/>
</a>
<a xlink:href="delay-0x7f8f91ffb980.svg">
<text x="148.500000" y="38.000000" font-family="Arial" font-size="7" text-anchor="middle" fill="#FFFFFF">delay(3927)((...,1 : - : int)(x63)</text>
</a>
<circle cx="73.100000" cy="26.000000" r="1"/>
<rect x="117.500000" y="67.000000" width="24.000000" height="24.000000" rx="0.1" ry="0.1" style="stroke:none;fill:#aaaaaa;;filter:url(#filter);"/>
<rect x="116.500000" y="66.000000" width="24.000000" height="24.000000" rx="0" ry="0" style="stroke:none;fill:#f44800;"/>
<text x="128.500000" y="80.000000" font-family="Arial" font-size="7" text-anchor="middle" fill="#FFFFFF">1</text>
<circle cx="118.500000" cy="68.000000" r="1"/>
<line x1="107.500000" y1="57.000000" x2="107.500000" y2="99.000000"  style="stroke: black; stroke-linecap:round; stroke-width:0.25; stroke-dasharray:3,3;"/>
<line x1="107.500000" y1="99.000000" x2="149.500000" y2="99.000000"  style="stroke: black; stroke-linecap:round; stroke-width:0.25; stroke-dasharray:3,3;"/>
<line x1="149.500000" y1="99.000000" x2="149.500000" y2="57.000000"  style="stroke: black; stroke-linecap:round; stroke-width:0.25; stroke-dasharray:3,3;"/>
<line x1="107.500000" y1="57.000000" x2="112.500000" y2="57.000000"  style="stroke: black; stroke-linecap:round; stroke-width:0.25; stroke-dasharray:3,3;"/>
<line x1="122.175000" y1="57.000000" x2="149.500000" y2="57.000000"  style="stroke: black; stroke-linecap:round; stroke-width:0.25; stroke-dasharray:3,3;"/>
<text x="112.500000" y="59.000000" font-family="Arial" font-size="7">S</text>
<a xlink:href="decimal-0x7f8f91ffbca0.svg">
<rect x="65.000000" y="109.000000" width="129.000000" height="24.000000" rx="0.1" ry="0.1" style="stroke:none;fill:#aaaaaa;;filter:url(#filter);"/>
<rect x="64.000000" y="108.000000" width="129.000000" height="24.000000" rx="0" ry="0" style="stroke:none;fill:#003366;"/>
</a>
<a xlink:href="decimal-0x7f8f91ffbca0.svg">
<text x="128.500000" y="122.000000" font-family="Arial" font-size="7" text-anchor="middle" fill="#FFFFFF">decimal((((hs...) : +),1 : -)</text>
</a>
<circle cx="66.000000" cy="110.000000" r="1"/>
<rect x="210.000000" y="83.000000" width="24.000000" height="24.000000" rx="0.1" ry="0.1" style="stroke:none;fill:#aaaaaa;;filter:url(#filter);"/>
<rect x="209.000000" y="82.000000" width="24.000000" height="24.000000" rx="0" ry="0" style="stroke:none;fill:#4B71A1;"/>
<text x="221.000000" y="96.000000" font-family="Arial" font-size="7" text-anchor="middle" fill="#FFFFFF">-</text>
<circle cx="211.000000" cy="84.000000" r="1"/>
<line x1="206.000000" y1="89.000000" x2="209.000000" y2="90.000000"  transform="rotate(0.000000,209.000000,90.000000)" style="stroke: black; stroke-width:0.25;"/>
<line x1="206.000000" y1="91.000000" x2="209.000000" y2="90.000000"  transform="rotate(0.000000,209.000000,90.000000)" style="stroke: black; stroke-width:0.25;"/>
<line x1="206.000000" y1="97.000000" x2="209.000000" y2="98.000000"  transform="rotate(0.000000,209.000000,98.000000)" style="stroke: black; stroke-width:0.25;"/>
<line x1="206.000000" y1="99.000000" x2="209.000000" y2="98.000000"  transform="rotate(0.000000,209.000000,98.000000)" style="stroke: black; stroke-width:0.25;"/>
<rect x="250.000000" y="67.000000" width="24.000000" height="24.000000" rx="0.1" ry="0.1" style="stroke:none;fill:#aaaaaa;;filter:url(#filter);"/>
<rect x="249.000000" y="66.000000" width="24.000000" height="24.000000" rx="0" ry="0" style="stroke:none;fill:#4B71A1;"/>
<text x="261.000000" y="80.000000" font-family="Arial" font-size="7" text-anchor="middle" fill="#FFFFFF">*</text>
<circle cx="251.000000" cy="68.000000" r="1"/>
<line x1="246.000000" y1="73.000000" x2="249.000000" y2="74.000000"  transform="rotate(0.000000,249.000000,74.000000)" style="stroke: black; stroke-width:0.25;"/>
<line x1="246.000000" y1="75.000000" x2="249.000000" y2="74.000000"  transform="rotate(0.000000,249.000000,74.000000)" style="stroke: black; stroke-width:0.25;"/>
<line x1="246.000000" y1="81.000000" x2="249.000000" y2="82.000000"  transform="rotate(0.000000,249.000000,82.000000)" style="stroke: black; stroke-width:0.25;"/>
<line x1="246.000000" y1="83.000000" x2="249.000000" y2="82.000000"  transform="rotate(0.000000,249.000000,82.000000)" style="stroke: black; stroke-width:0.25;"/>
<a xlink:href="delay-0x7f8f928003b0.svg">
<rect x="72.100000" y="141.000000" width="154.800000" height="24.000000" rx="0.1" ry="0.1" style="stroke:none;fill:#aaaaaa;;filter:url(#filter);"/>
<rect x="71.100000" y="140.000000" width="154.800000" height="24.000000" rx="0" ry="0" style="stroke:none;fill:#003366;"/>
</a>
<a xlink:href="delay-0x7f8f928003b0.svg">
<text x="148.500000" y="154.000000" font-family="Arial" font-size="7" text-anchor="middle" fill="#FFFFFF">delay(3927)((...: int),1 : +)(x63)</text>
</a>
<circle cx="73.100000" cy="142.000000" r="1"/>
<a xlink:href="decimal-0x7f8f91ffbca0.svg">
<rect x="85.000000" y="173.000000" width="129.000000" height="24.000000" rx="0.1" ry="0.1" style="stroke:none;fill:#aaaaaa;;filter:url(#filter);"/>
<rect x="84.000000" y="172.000000" width="129.000000" height="24.000000" rx="0" ry="0" style="stroke:none;fill:#003366;"/>
</a>
<a xlink:href="decimal-0x7f8f91ffbca0.svg">
<text x="148.500000" y="186.000000" font-family="Arial" font-size="7" text-anchor="middle" fill="#FFFFFF">decimal((((hs...) : +),1 : -)</text>
</a>
<circle cx="86.000000" cy="174.000000" r="1"/>
<rect x="242.900000" y="157.000000" width="24.000000" height="24.000000" rx="0.1" ry="0.1" style="stroke:none;fill:#aaaaaa;;filter:url(#filter);"/>
<rect x="241.900000" y="156.000000" width="24.000000" height="24.000000" rx="0" ry="0" style="stroke:none;fill:#4B71A1;"/>
<text x="253.900000" y="170.000000" font-family="Arial" font-size="7" text-anchor="middle" fill="#FFFFFF">*</text>
<circle cx="243.900000" cy="158.000000" r="1"/>
<line x1="238.900000" y1="163.000000" x2="241.900000" y2="164.000000"  transform="rotate(0.000000,241.900000,164.000000)" style="stroke: black; stroke-width:0.25;"/>
<line x1="238.900000" y1="165.000000" x2="241.900000" y2="164.000000"  transform="rotate(0.000000,241.900000,164.000000)" style="stroke: black; stroke-width:0.25;"/>
<line x1="238.900000" y1="171.000000" x2="241.900000" y2="172.000000"  transform="rotate(0.000000,241.900000,172.000000)" style="stroke: black; stroke-width:0.25;"/>
<line x1="238.900000" y1="173.000000" x2="241.900000" y2="172.000000"  transform="rotate(0.000000,241.900000,172.000000)" style="stroke: black; stroke-width:0.25;"/>
<rect x="290.000000" y="99.000000" width="24.000000" height="24.000000" rx="0.1" ry="0.1" style="stroke:none;fill:#aaaaaa;;filter:url(#filter);"/>
<rect x="289.000000" y="98.000000" width="24.000000" height="24.000000" rx="0" ry="0" style="stroke:none;fill:#4B71A1;"/>
<text x="301.000000" y="112.000000" font-family="Arial" font-size="7" text-anchor="middle" fill="#FFFFFF">+</text>
<circle cx="291.000000" cy="100.000000" r="1"/>
<line x1="286.000000" y1="105.000000" x2="289.000000" y2="106.000000"  transform="rotate(0.000000,289.000000,106.000000)" style="stroke: black; stroke-width:0.25;"/>
<line x1="286.000000" y1="107.000000" x2="289.000000" y2="106.000000"  transform="rotate(0.000000,289.000000,106.000000)" style="stroke: black; stroke-width:0.25;"/>
<line x1="286.000000" y1="113.000000" x2="289.000000" y2="114.000000"  transform="rotate(0.000000,289.000000,114.000000)" style="stroke: black; stroke-width:0.25;"/>
<line x1="286.000000" y1="115.000000" x2="289.000000" y2="114.000000"  transform="rotate(0.000000,289.000000,114.000000)" style="stroke: black; stroke-width:0.25;"/>
<line x1="15.000000" y1="15.000000" x2="15.000000" y2="205.000000"  style="stroke: black; stroke-linecap:round; stroke-width:0.25; stroke-dasharray:3,3;"/>
<line x1="15.000000" y1="205.000000" x2="330.000000" y2="205.000000"  style="stroke: black; stroke-linecap:round; stroke-width:0.25; stroke-dasharray:3,3;"/>
<line x1="330.000000" y1="205.000000" x2="330.000000" y2="15.000000"  style="stroke: black; stroke-linecap:round; stroke-width:0.25; stroke-dasharray:3,3;"/>
<line x1="15.000000" y1="15.000000" x2="20.000000" y2="15.000000"  style="stroke: black; stroke-linecap:round; stroke-width:0.25; stroke-dasharray:3,3;"/>
<line x1="119.975000" y1="15.000000" x2="330.000000" y2="15.000000"  style="stroke: black; stroke-linecap:round; stroke-width:0.25; stroke-dasharray:3,3;"/>
<text x="20.000000" y="17.000000" font-family="Arial" font-size="7">fdelay(3926)(...) : +),1 : -)</text>
<line x1="332.000000" y1="109.000000" x2="335.000000" y2="110.000000"  transform="rotate(0.000000,335.000000,110.000000)" style="stroke: black; stroke-width:0.25;"/>
<line x1="332.000000" y1="111.000000" x2="335.000000" y2="110.000000"  transform="rotate(0.000000,335.000000,110.000000)" style="stroke: black; stroke-width:0.25;"/>
<line x1="10.000000" y1="110.000000" x2="20.000000" y2="110.000000"  style="stroke:black; stroke-linecap:round; stroke-width:0.25;"/>
<line x1="20.000000" y1="110.000000" x2="24.000000" y2="110.000000"  style="stroke:black; stroke-linecap:round; stroke-width:0.25;"/>
<line x1="24.000000" y1="110.000000" x2="28.000000" y2="110.000000"  style="stroke:black; stroke-linecap:round; stroke-width:0.25;"/>
<line x1="28.000000" y1="110.000000" x2="28.000000" y2="110.000000"  style="stroke:black; stroke-linecap:round; stroke-width:0.25;"/>
<line x1="28.000000" y1="110.000000" x2="32.000000" y2="110.000000"  style="stroke:black; stroke-linecap:round; stroke-width:0.25;"/>
<line x1="140.500000" y1="78.000000" x2="144.500000" y2="78.000000"  style="stroke:black; stroke-linecap:round; stroke-width:0.25;"/>
<line x1="144.500000" y1="78.000000" x2="154.500000" y2="78.000000"  style="stroke:black; stroke-linecap:round; stroke-width:0.25;"/>
<line x1="154.500000" y1="78.000000" x2="197.000000" y2="78.000000"  style="stroke:black; stroke-linecap:round; stroke-width:0.25;"/>
<line x1="193.000000" y1="120.000000" x2="197.000000" y2="120.000000"  style="stroke:black; stroke-linecap:round; stroke-width:0.25;"/>
<line x1="197.000000" y1="78.000000" x2="205.000000" y2="78.000000"  style="stroke:black; stroke-linecap:round; stroke-width:0.25;"/>
<line x1="197.000000" y1="98.000000" x2="205.000000" y2="98.000000"  style="stroke:black; stroke-linecap:round; stroke-width:0.25;"/>
<line x1="197.000000" y1="120.000000" x2="197.000000" y2="98.000000"  style="stroke:black; stroke-linecap:round; stroke-width:0.25;"/>
<line x1="197.000000" y1="120.000000" x2="197.000000" y2="120.000000"  style="stroke:black; stroke-linecap:round; stroke-width:0.25;"/>
<line x1="205.000000" y1="78.000000" x2="205.000000" y2="90.000000"  style="stroke:black; stroke-linecap:round; stroke-width:0.25;"/>
<line x1="205.000000" y1="90.000000" x2="205.000000" y2="90.000000"  style="stroke:black; stroke-linecap:round; stroke-width:0.25;"/>
<line x1="205.000000" y1="90.000000" x2="209.000000" y2="90.000000"  style="stroke:black; stroke-linecap:round; stroke-width:0.25;"/>
<line x1="205.000000" y1="98.000000" x2="209.000000" y2="98.000000"  style="stroke:black; stroke-linecap:round; stroke-width:0.25;"/>
<line x1="213.000000" y1="184.000000" x2="217.000000" y2="184.000000"  style="stroke:black; stroke-linecap:round; stroke-width:0.25;"/>
<line x1="217.000000" y1="184.000000" x2="229.900000" y2="184.000000"  style="stroke:black; stroke-linecap:round; stroke-width:0.25;"/>
<line x1="225.900000" y1="36.000000" x2="229.900000" y2="36.000000"  style="stroke:black; stroke-linecap:round; stroke-width:0.25;"/>
<line x1="225.900000" y1="152.000000" x2="229.900000" y2="152.000000"  style="stroke:black; stroke-linecap:round; stroke-width:0.25;"/>
<line x1="229.900000" y1="36.000000" x2="237.000000" y2="36.000000"  style="stroke:black; stroke-linecap:round; stroke-width:0.25;"/>
<line x1="229.900000" y1="152.000000" x2="237.900000" y2="152.000000"  style="stroke:black; stroke-linecap:round; stroke-width:0.25;"/>
<line x1="229.900000" y1="172.000000" x2="237.900000" y2="172.000000"  style="stroke:black; stroke-linecap:round; stroke-width:0.25;"/>
<line x1="229.900000" y1="184.000000" x2="229.900000" y2="172.000000"  style="stroke:black; stroke-linecap:round; stroke-width:0.25;"/>
<line x1="229.900000" y1="184.000000" x2="229.900000" y2="184.000000"  style="stroke:black; stroke-linecap:round; stroke-width:0.25;"/>
<line x1="233.000000" y1="94.000000" x2="237.000000" y2="94.000000"  style="stroke:black; stroke-linecap:round; stroke-width:0.25;"/>
<line x1="237.000000" y1="36.000000" x2="245.000000" y2="36.000000"  style="stroke:black; stroke-linecap:round; stroke-width:0.25;"/>
<line x1="237.000000" y1="82.000000" x2="245.000000" y2="82.000000"  style="stroke:black; stroke-linecap:round; stroke-width:0.25;"/>
<line x1="237.000000" y1="94.000000" x2="237.000000" y2="82.000000"  style="stroke:black; stroke-linecap:round; stroke-width:0.25;"/>
<line x1="237.000000" y1="94.000000" x2="237.000000" y2="94.000000"  style="stroke:black; stroke-linecap:round; stroke-width:0.25;"/>
<line x1="237.900000" y1="152.000000" x2="237.900000" y2="164.000000"  style="stroke:black; stroke-linecap:round; stroke-width:0.25;"/>
<line x1="237.900000" y1="164.000000" x2="237.900000" y2="164.000000"  style="stroke:black; stroke-linecap:round; stroke-width:0.25;"/>
<line x1="237.900000" y1="164.000000" x2="241.900000" y2="164.000000"  style="stroke:black; stroke-linecap:round; stroke-width:0.25;"/>
<line x1="237.900000" y1="172.000000" x2="241.900000" y2="172.000000"  style="stroke:black; stroke-linecap:round; stroke-width:0.25;"/>
<line x1="245.000000" y1="36.000000" x2="245.000000" y2="74.000000"  style="stroke:black; stroke-linecap:round; stroke-width:0.25;"/>
<line x1="245.000000" y1="74.000000" x2="245.000000" y2="74.000000"  style="stroke:black; stroke-linecap:round; stroke-width:0.25;"/>
<line x1="245.000000" y1="74.000000" x2="249.000000" y2="74.000000"  style="stroke:black; stroke-linecap:round; stroke-width:0.25;"/>
<line x1="245.000000" y1="82.000000" x2="249.000000" y2="82.000000"  style="stroke:black; stroke-linecap:round; stroke-width:0.25;"/>
<line x1="265.900000" y1="168.000000" x2="269.900000" y2="168.000000"  style="stroke:black; stroke-linecap:round; stroke-width:0.25;"/>
<line x1="269.900000" y1="168.000000" x2="277.000000" y2="168.000000"  style="stroke:black; stroke-linecap:round; stroke-width:0.25;"/>
<line x1="273.000000" y1="78.000000" x2="277.000000" y2="78.000000"  style="stroke:black; stroke-linecap:round; stroke-width:0.25;"/>
<line x1="277.000000" y1="78.000000" x2="285.000000" y2="78.000000"  style="stroke:black; stroke-linecap:round; stroke-width:0.25;"/>
<line x1="277.000000" y1="114.000000" x2="285.000000" y2="114.000000"  style="stroke:black; stroke-linecap:round; stroke-width:0.25;"/>
<line x1="277.000000" y1="168.000000" x2="277.000000" y2="114.000000"  style="stroke:black; stroke-linecap:round; stroke-width:0.25;"/>
<line x1="277.000000" y1="168.000000" x2="277.000000" y2="168.000000"  style="stroke:black; stroke-linecap:round; stroke-width:0.25;"/>
<line x1="285.000000" y1="78.000000" x2="285.000000" y2="106.000000"  style="stroke:black; stroke-linecap:round; stroke-width:0.25;"/>
<line x1="285.000000" y1="106.000000" x2="285.000000" y2="106.000000"  style="stroke:black; stroke-linecap:round; stroke-width:0.25;"/>
<line x1="285.000000" y1="106.000000" x2="289.000000" y2="106.000000"  style="stroke:black; stroke-linecap:round; stroke-width:0.25;"/>
<line x1="285.000000" y1="114.000000" x2="289.000000" y2="114.000000"  style="stroke:black; stroke-linecap:round; stroke-width:0.25;"/>
<line x1="313.000000" y1="110.000000" x2="317.000000" y2="110.000000"  style="stroke:black; stroke-linecap:round; stroke-width:0.25;"/>
<line x1="317.000000" y1="110.000000" x2="317.000000" y2="110.000000"  style="stroke:black; stroke-linecap:round; stroke-width:0.25;"/>
<line x1="317.000000" y1="110.000000" x2="321.000000" y2="110.000000"  style="stroke:black; stroke-linecap:round; stroke-width:0.25;"/>
<line x1="321.000000" y1="110.000000" x2="325.000000" y2="110.000000"  style="stroke:black; stroke-linecap:round; stroke-width:0.25;"/>
<line x1="325.000000" y1="110.000000" x2="335.000000" y2="110.000000"  style="stroke:black; stroke-linecap:round; stroke-width:0.25;"/>
</svg>
