<?xml version="1.0"?>
<svg xmlns="http://www.w3.org/2000/svg" xmlns:xlink="http://www.w3.org/1999/xlink" viewBox="0 0 370.800000 232.000000" width="185.400000mm" height="116.000000mm" version="1.1">
<defs>
   <filter id="filter" filterRes="18" x="0" y="0">
     <feGaussianBlur in="SourceGraphic" stdDeviation="1.55" result="blur"/>
     <feOffset in="blur" dx="3" dy="3"/>
   </filter>
</defs>
<a xlink:href="right-0x7f8f93b58a60.svg">
<rect x="1.000000" y="1.000000" width="369.800000" height="231.000000" rx="0.1" ry="0.1" style="stroke:none;fill:#aaaaaa;;filter:url(#filter);"/>
<rect x="0.000000" y="0.000000" width="369.800000" height="231.000000" rx="0" ry="0" style="stroke:none;fill:#ffffff;"/>
</a>
<text x="10.000000" y="7.000000" font-family="Arial" font-size="7"></text>
<rect x="33.000000" y="105.000000" width="24.000000" height="24.000000" rx="0.1" ry="0.1" style="stroke:none;fill:#aaaaaa;;filter:url(#filter);"/>
<rect x="32.000000" y="104.000000" width="24.000000" height="24.000000" rx="0" ry="0" style="stroke:none;fill:#47945E;"/>
<text x="44.000000" y="118.000000" font-family="Arial" font-size="7" text-anchor="middle" fill="#FFFFFF">x</text>
<circle cx="34.000000" cy="106.000000" r="1"/>
<line x1="29.000000" y1="115.000000" x2="32.000000" y2="116.000000"  transform="rotate(0.000000,32.000000,116.000000)" style="stroke: black; stroke-width:0.25;"/>
<line x1="29.000000" y1="117.000000" x2="32.000000" y2="116.000000"  transform="rotate(0.000000,32.000000,116.000000)" style="stroke: black; stroke-width:0.25;"/>
<a xlink:href="delay-0x7f8f9399a9d0.svg">
<rect x="65.000000" y="25.000000" width="154.800000" height="24.000000" rx="0.1" ry="0.1" style="stroke:none;fill:#aaaaaa;;filter:url(#filter);"/>
<rect x="64.000000" y="24.000000" width="154.800000" height="24.000000" rx="0" ry="0" style="stroke:none;fill:#003366;"/>
</a>
<a xlink:href="delay-0x7f8f9399a9d0.svg">
<text x="141.400000" y="38.000000" font-family="Arial" font-size="7" text-anchor="middle" fill="#FFFFFF">delay(15865)(...: int),0 : +)(x216)</text>
</a>
<circle cx="66.000000" cy="26.000000" r="1"/>
<a xlink:href="h-0x7f8f9399b1e0.svg">
<rect x="71.450000" y="57.000000" width="141.900000" height="24.000000" rx="0.1" ry="0.1" style="stroke:none;fill:#aaaaaa;;filter:url(#filter);"/>
<rect x="70.450000" y="56.000000" width="141.900000" height="24.000000" rx="0" ry="0" style="stroke:none;fill:#003366;"/>
</a>
<a xlink:href="h-0x7f8f9399b1e0.svg">
<text x="141.400000" y="70.000000" font-family="Arial" font-size="7" text-anchor="middle" fill="#FFFFFF">h(2)(0.499994...or) : -) : +)(0)</text>
</a>
<circle cx="72.450000" cy="58.000000" r="1"/>
<rect x="235.800000" y="41.000000" width="24.000000" height="24.000000" rx="0.1" ry="0.1" style="stroke:none;fill:#aaaaaa;;filter:url(#filter);"/>
<rect x="234.800000" y="40.000000" width="24.000000" height="24.000000" rx="0" ry="0" style="stroke:none;fill:#4B71A1;"/>
<text x="246.800000" y="54.000000" font-family="Arial" font-size="7" text-anchor="middle" fill="#FFFFFF">*</text>
<circle cx="236.800000" cy="42.000000" r="1"/>
<line x1="231.800000" y1="47.000000" x2="234.800000" y2="48.000000"  transform="rotate(0.000000,234.800000,48.000000)" style="stroke: black; stroke-width:0.25;"/>
<line x1="231.800000" y1="49.000000" x2="234.800000" y2="48.000000"  transform="rotate(0.000000,234.800000,48.000000)" style="stroke: black; stroke-width:0.25;"/>
<line x1="231.800000" y1="55.000000" x2="234.800000" y2="56.000000"  transform="rotate(0.000000,234.800000,56.000000)" style="stroke: black; stroke-width:0.25;"/>
<line x1="231.800000" y1="57.000000" x2="234.800000" y2="56.000000"  transform="rotate(0.000000,234.800000,56.000000)" style="stroke: black; stroke-width:0.25;"/>
<a xlink:href="delay-0x7f8f9399b7b0.svg">
<rect x="65.000000" y="89.000000" width="154.800000" height="24.000000" rx="0.1" ry="0.1" style="stroke:none;fill:#aaaaaa;;filter:url(#filter);"/>
<rect x="64.000000" y="88.000000" width="154.800000" height="24.000000" rx="0" ry="0" style="stroke:none;fill:#003366;"/>
</a>
<a xlink:href="delay-0x7f8f9399b7b0.svg">
<text x="141.400000" y="102.000000" font-family="Arial" font-size="7" text-anchor="middle" fill="#FFFFFF">delay(15865)(...: int),1 : +)(x216)</text>
</a>
<circle cx="66.000000" cy="90.000000" r="1"/>
<a xlink:href="h-0x7f8f9399bfc0.svg">
<rect x="71.450000" y="121.000000" width="141.900000" height="24.000000" rx="0.1" ry="0.1" style="stroke:none;fill:#aaaaaa;;filter:url(#filter);"/>
<rect x="70.450000" y="120.000000" width="141.900000" height="24.000000" rx="0" ry="0" style="stroke:none;fill:#003366;"/>
</a>
<a xlink:href="h-0x7f8f9399bfc0.svg">
<text x="141.400000" y="134.000000" font-family="Arial" font-size="7" text-anchor="middle" fill="#FFFFFF">h(2)(0.499994...or) : -) : +)(1)</text>
</a>
<circle cx="72.450000" cy="122.000000" r="1"/>
<rect x="235.800000" y="105.000000" width="24.000000" height="24.000000" rx="0.1" ry="0.1" style="stroke:none;fill:#aaaaaa;;filter:url(#filter);"/>
<rect x="234.800000" y="104.000000" width="24.000000" height="24.000000" rx="0" ry="0" style="stroke:none;fill:#4B71A1;"/>
<text x="246.800000" y="118.000000" font-family="Arial" font-size="7" text-anchor="middle" fill="#FFFFFF">*</text>
<circle cx="236.800000" cy="106.000000" r="1"/>
<line x1="231.800000" y1="111.000000" x2="234.800000" y2="112.000000"  transform="rotate(0.000000,234.800000,112.000000)" style="stroke: black; stroke-width:0.25;"/>
<line x1="231.800000" y1="113.000000" x2="234.800000" y2="112.000000"  transform="rotate(0.000000,234.800000,112.000000)" style="stroke: black; stroke-width:0.25;"/>
<line x1="231.800000" y1="119.000000" x2="234.800000" y2="120.000000"  transform="rotate(0.000000,234.800000,120.000000)" style="stroke: black; stroke-width:0.25;"/>
<line x1="231.800000" y1="121.000000" x2="234.800000" y2="120.000000"  transform="rotate(0.000000,234.800000,120.000000)" style="stroke: black; stroke-width:0.25;"/>
<rect x="275.800000" y="73.000000" width="24.000000" height="24.000000" rx="0.1" ry="0.1" style="stroke:none;fill:#aaaaaa;;filter:url(#filter);"/>
<rect x="274.800000" y="72.000000" width="24.000000" height="24.000000" rx="0" ry="0" style="stroke:none;fill:#4B71A1;"/>
<text x="286.800000" y="86.000000" font-family="Arial" font-size="7" text-anchor="middle" fill="#FFFFFF">+</text>
<circle cx="276.800000" cy="74.000000" r="1"/>
<line x1="271.800000" y1="79.000000" x2="274.800000" y2="80.000000"  transform="rotate(0.000000,274.800000,80.000000)" style="stroke: black; stroke-width:0.25;"/>
<line x1="271.800000" y1="81.000000" x2="274.800000" y2="80.000000"  transform="rotate(0.000000,274.800000,80.000000)" style="stroke: black; stroke-width:0.25;"/>
<line x1="271.800000" y1="87.000000" x2="274.800000" y2="88.000000"  transform="rotate(0.000000,274.800000,88.000000)" style="stroke: black; stroke-width:0.25;"/>
<line x1="271.800000" y1="89.000000" x2="274.800000" y2="88.000000"  transform="rotate(0.000000,274.800000,88.000000)" style="stroke: black; stroke-width:0.25;"/>
<a xlink:href="delay-0x7f8f9399c750.svg">
<rect x="85.000000" y="153.000000" width="154.800000" height="24.000000" rx="0.1" ry="0.1" style="stroke:none;fill:#aaaaaa;;filter:url(#filter);"/>
<rect x="84.000000" y="152.000000" width="154.800000" height="24.000000" rx="0" ry="0" style="stroke:none;fill:#003366;"/>
</a>
<a xlink:href="delay-0x7f8f9399c750.svg">
<text x="161.400000" y="166.000000" font-family="Arial" font-size="7" text-anchor="middle" fill="#FFFFFF">delay(15865)(...: int),2 : +)(x216)</text>
</a>
<circle cx="86.000000" cy="154.000000" r="1"/>
<a xlink:href="h-0x7f8f9399cf60.svg">
<rect x="91.450000" y="185.000000" width="141.900000" height="24.000000" rx="0.1" ry="0.1" style="stroke:none;fill:#aaaaaa;;filter:url(#filter);"/>
<rect x="90.450000" y="184.000000" width="141.900000" height="24.000000" rx="0" ry="0" style="stroke:none;fill:#003366;"/>
</a>
<a xlink:href="h-0x7f8f9399cf60.svg">
<text x="161.400000" y="198.000000" font-family="Arial" font-size="7" text-anchor="middle" fill="#FFFFFF">h(2)(0.499994...or) : -) : +)(2)</text>
</a>
<circle cx="92.450000" cy="186.000000" r="1"/>
<rect x="255.800000" y="169.000000" width="24.000000" height="24.000000" rx="0.1" ry="0.1" style="stroke:none;fill:#aaaaaa;;filter:url(#filter);"/>
<rect x="254.800000" y="168.000000" width="24.000000" height="24.000000" rx="0" ry="0" style="stroke:none;fill:#4B71A1;"/>
<text x="266.800000" y="182.000000" font-family="Arial" font-size="7" text-anchor="middle" fill="#FFFFFF">*</text>
<circle cx="256.800000" cy="170.000000" r="1"/>
<line x1="251.800000" y1="175.000000" x2="254.800000" y2="176.000000"  transform="rotate(0.000000,254.800000,176.000000)" style="stroke: black; stroke-width:0.25;"/>
<line x1="251.800000" y1="177.000000" x2="254.800000" y2="176.000000"  transform="rotate(0.000000,254.800000,176.000000)" style="stroke: black; stroke-width:0.25;"/>
<line x1="251.800000" y1="183.000000" x2="254.800000" y2="184.000000"  transform="rotate(0.000000,254.800000,184.000000)" style="stroke: black; stroke-width:0.25;"/>
<line x1="251.800000" y1="185.000000" x2="254.800000" y2="184.000000"  transform="rotate(0.000000,254.800000,184.000000)" style="stroke: black; stroke-width:0.25;"/>
<rect x="315.800000" y="105.000000" width="24.000000" height="24.000000" rx="0.1" ry="0.1" style="stroke:none;fill:#aaaaaa;;filter:url(#filter);"/>
<rect x="314.800000" y="104.000000" width="24.000000" height="24.000000" rx="0" ry="0" style="stroke:none;fill:#4B71A1;"/>
<text x="326.800000" y="118.000000" font-family="Arial" font-size="7" text-anchor="middle" fill="#FFFFFF">+</text>
<circle cx="316.800000" cy="106.000000" r="1"/>
<line x1="311.800000" y1="111.000000" x2="314.800000" y2="112.000000"  transform="rotate(0.000000,314.800000,112.000000)" style="stroke: black; stroke-width:0.25;"/>
<line x1="311.800000" y1="113.000000" x2="314.800000" y2="112.000000"  transform="rotate(0.000000,314.800000,112.000000)" style="stroke: black; stroke-width:0.25;"/>
<line x1="311.800000" y1="119.000000" x2="314.800000" y2="120.000000"  transform="rotate(0.000000,314.800000,120.000000)" style="stroke: black; stroke-width:0.25;"/>
<line x1="311.800000" y1="121.000000" x2="314.800000" y2="120.000000"  transform="rotate(0.000000,314.800000,120.000000)" style="stroke: black; stroke-width:0.25;"/>
<line x1="15.000000" y1="15.000000" x2="15.000000" y2="217.000000"  style="stroke: black; stroke-linecap:round; stroke-width:0.25; stroke-dasharray:3,3;"/>
<line x1="15.000000" y1="217.000000" x2="355.800000" y2="217.000000"  style="stroke: black; stroke-linecap:round; stroke-width:0.25; stroke-dasharray:3,3;"/>
<line x1="355.800000" y1="217.000000" x2="355.800000" y2="15.000000"  style="stroke: black; stroke-linecap:round; stroke-width:0.25; stroke-dasharray:3,3;"/>
<line x1="15.000000" y1="15.000000" x2="20.000000" y2="15.000000"  style="stroke: black; stroke-linecap:round; stroke-width:0.25; stroke-dasharray:3,3;"/>
<line x1="119.975000" y1="15.000000" x2="355.800000" y2="15.000000"  style="stroke: black; stroke-linecap:round; stroke-width:0.25; stroke-dasharray:3,3;"/>
<text x="20.000000" y="17.000000" font-family="Arial" font-size="7">fdelay2(15865...= {}]~_) : +)</text>
<line x1="357.800000" y1="115.000000" x2="360.800000" y2="116.000000"  transform="rotate(0.000000,360.800000,116.000000)" style="stroke: black; stroke-width:0.25;"/>
<line x1="357.800000" y1="117.000000" x2="360.800000" y2="116.000000"  transform="rotate(0.000000,360.800000,116.000000)" style="stroke: black; stroke-width:0.25;"/>
<line x1="10.000000" y1="116.000000" x2="20.000000" y2="116.000000"  style="stroke:black; stroke-linecap:round; stroke-width:0.25;"/>
<line x1="20.000000" y1="116.000000" x2="24.000000" y2="116.000000"  style="stroke:black; stroke-linecap:round; stroke-width:0.25;"/>
<line x1="24.000000" y1="116.000000" x2="28.000000" y2="116.000000"  style="stroke:black; stroke-linecap:round; stroke-width:0.25;"/>
<line x1="28.000000" y1="116.000000" x2="28.000000" y2="116.000000"  style="stroke:black; stroke-linecap:round; stroke-width:0.25;"/>
<line x1="28.000000" y1="116.000000" x2="32.000000" y2="116.000000"  style="stroke:black; stroke-linecap:round; stroke-width:0.25;"/>
<line x1="212.350000" y1="68.000000" x2="216.350000" y2="68.000000"  style="stroke:black; stroke-linecap:round; stroke-width:0.25;"/>
<line x1="212.350000" y1="132.000000" x2="216.350000" y2="132.000000"  style="stroke:black; stroke-linecap:round; stroke-width:0.25;"/>
<line x1="216.350000" y1="68.000000" x2="222.800000" y2="68.000000"  style="stroke:black; stroke-linecap:round; stroke-width:0.25;"/>
<line x1="216.350000" y1="132.000000" x2="222.800000" y2="132.000000"  style="stroke:black; stroke-linecap:round; stroke-width:0.25;"/>
<line x1="218.800000" y1="36.000000" x2="222.800000" y2="36.000000"  style="stroke:black; stroke-linecap:round; stroke-width:0.25;"/>
<line x1="218.800000" y1="100.000000" x2="222.800000" y2="100.000000"  style="stroke:black; stroke-linecap:round; stroke-width:0.25;"/>
<line x1="222.800000" y1="36.000000" x2="230.800000" y2="36.000000"  style="stroke:black; stroke-linecap:round; stroke-width:0.25;"/>
<line x1="222.800000" y1="56.000000" x2="230.800000" y2="56.000000"  style="stroke:black; stroke-linecap:round; stroke-width:0.25;"/>
<line x1="222.800000" y1="68.000000" x2="222.800000" y2="56.000000"  style="stroke:black; stroke-linecap:round; stroke-width:0.25;"/>
<line x1="222.800000" y1="68.000000" x2="222.800000" y2="68.000000"  style="stroke:black; stroke-linecap:round; stroke-width:0.25;"/>
<line x1="222.800000" y1="100.000000" x2="230.800000" y2="100.000000"  style="stroke:black; stroke-linecap:round; stroke-width:0.25;"/>
<line x1="222.800000" y1="120.000000" x2="230.800000" y2="120.000000"  style="stroke:black; stroke-linecap:round; stroke-width:0.25;"/>
<line x1="222.800000" y1="132.000000" x2="222.800000" y2="120.000000"  style="stroke:black; stroke-linecap:round; stroke-width:0.25;"/>
<line x1="222.800000" y1="132.000000" x2="222.800000" y2="132.000000"  style="stroke:black; stroke-linecap:round; stroke-width:0.25;"/>
<line x1="230.800000" y1="36.000000" x2="230.800000" y2="48.000000"  style="stroke:black; stroke-linecap:round; stroke-width:0.25;"/>
<line x1="230.800000" y1="48.000000" x2="230.800000" y2="48.000000"  style="stroke:black; stroke-linecap:round; stroke-width:0.25;"/>
<line x1="230.800000" y1="48.000000" x2="234.800000" y2="48.000000"  style="stroke:black; stroke-linecap:round; stroke-width:0.25;"/>
<line x1="230.800000" y1="56.000000" x2="234.800000" y2="56.000000"  style="stroke:black; stroke-linecap:round; stroke-width:0.25;"/>
<line x1="230.800000" y1="100.000000" x2="230.800000" y2="112.000000"  style="stroke:black; stroke-linecap:round; stroke-width:0.25;"/>
<line x1="230.800000" y1="112.000000" x2="230.800000" y2="112.000000"  style="stroke:black; stroke-linecap:round; stroke-width:0.25;"/>
<line x1="230.800000" y1="112.000000" x2="234.800000" y2="112.000000"  style="stroke:black; stroke-linecap:round; stroke-width:0.25;"/>
<line x1="230.800000" y1="120.000000" x2="234.800000" y2="120.000000"  style="stroke:black; stroke-linecap:round; stroke-width:0.25;"/>
<line x1="232.350000" y1="196.000000" x2="236.350000" y2="196.000000"  style="stroke:black; stroke-linecap:round; stroke-width:0.25;"/>
<line x1="236.350000" y1="196.000000" x2="242.800000" y2="196.000000"  style="stroke:black; stroke-linecap:round; stroke-width:0.25;"/>
<line x1="238.800000" y1="164.000000" x2="242.800000" y2="164.000000"  style="stroke:black; stroke-linecap:round; stroke-width:0.25;"/>
<line x1="242.800000" y1="164.000000" x2="250.800000" y2="164.000000"  style="stroke:black; stroke-linecap:round; stroke-width:0.25;"/>
<line x1="242.800000" y1="184.000000" x2="250.800000" y2="184.000000"  style="stroke:black; stroke-linecap:round; stroke-width:0.25;"/>
<line x1="242.800000" y1="196.000000" x2="242.800000" y2="184.000000"  style="stroke:black; stroke-linecap:round; stroke-width:0.25;"/>
<line x1="242.800000" y1="196.000000" x2="242.800000" y2="196.000000"  style="stroke:black; stroke-linecap:round; stroke-width:0.25;"/>
<line x1="250.800000" y1="164.000000" x2="250.800000" y2="176.000000"  style="stroke:black; stroke-linecap:round; stroke-width:0.25;"/>
<line x1="250.800000" y1="176.000000" x2="250.800000" y2="176.000000"  style="stroke:black; stroke-linecap:round; stroke-width:0.25;"/>
<line x1="250.800000" y1="176.000000" x2="254.800000" y2="176.000000"  style="stroke:black; stroke-linecap:round; stroke-width:0.25;"/>
<line x1="250.800000" y1="184.000000" x2="254.800000" y2="184.000000"  style="stroke:black; stroke-linecap:round; stroke-width:0.25;"/>
<line x1="258.800000" y1="52.000000" x2="262.800000" y2="52.000000"  style="stroke:black; stroke-linecap:round; stroke-width:0.25;"/>
<line x1="258.800000" y1="116.000000" x2="262.800000" y2="116.000000"  style="stroke:black; stroke-linecap:round; stroke-width:0.25;"/>
<line x1="262.800000" y1="52.000000" x2="270.800000" y2="52.000000"  style="stroke:black; stroke-linecap:round; stroke-width:0.25;"/>
<line x1="262.800000" y1="88.000000" x2="270.800000" y2="88.000000"  style="stroke:black; stroke-linecap:round; stroke-width:0.25;"/>
<line x1="262.800000" y1="116.000000" x2="262.800000" y2="88.000000"  style="stroke:black; stroke-linecap:round; stroke-width:0.25;"/>
<line x1="262.800000" y1="116.000000" x2="262.800000" y2="116.000000"  style="stroke:black; stroke-linecap:round; stroke-width:0.25;"/>
<line x1="270.800000" y1="52.000000" x2="270.800000" y2="80.000000"  style="stroke:black; stroke-linecap:round; stroke-width:0.25;"/>
<line x1="270.800000" y1="80.000000" x2="270.800000" y2="80.000000"  style="stroke:black; stroke-linecap:round; stroke-width:0.25;"/>
<line x1="270.800000" y1="80.000000" x2="274.800000" y2="80.000000"  style="stroke:black; stroke-linecap:round; stroke-width:0.25;"/>
<line x1="270.800000" y1="88.000000" x2="274.800000" y2="88.000000"  style="stroke:black; stroke-linecap:round; stroke-width:0.25;"/>
<line x1="278.800000" y1="180.000000" x2="282.800000" y2="180.000000"  style="stroke:black; stroke-linecap:round; stroke-width:0.25;"/>
<line x1="282.800000" y1="180.000000" x2="302.800000" y2="180.000000"  style="stroke:black; stroke-linecap:round; stroke-width:0.25;"/>
<line x1="298.800000" y1="84.000000" x2="302.800000" y2="84.000000"  style="stroke:black; stroke-linecap:round; stroke-width:0.25;"/>
<line x1="302.800000" y1="84.000000" x2="310.800000" y2="84.000000"  style="stroke:black; stroke-linecap:round; stroke-width:0.25;"/>
<line x1="302.800000" y1="120.000000" x2="310.800000" y2="120.000000"  style="stroke:black; stroke-linecap:round; stroke-width:0.25;"/>
<line x1="302.800000" y1="180.000000" x2="302.800000" y2="120.000000"  style="stroke:black; stroke-linecap:round; stroke-width:0.25;"/>
<line x1="302.800000" y1="180.000000" x2="302.800000" y2="180.000000"  style="stroke:black; stroke-linecap:round; stroke-width:0.25;"/>
<line x1="310.800000" y1="84.000000" x2="310.800000" y2="112.000000"  style="stroke:black; stroke-linecap:round; stroke-width:0.25;"/>
<line x1="310.800000" y1="112.000000" x2="310.800000" y2="112.000000"  style="stroke:black; stroke-linecap:round; stroke-width:0.25;"/>
<line x1="310.800000" y1="112.000000" x2="314.800000" y2="112.000000"  style="stroke:black; stroke-linecap:round; stroke-width:0.25;"/>
<line x1="310.800000" y1="120.000000" x2="314.800000" y2="120.000000"  style="stroke:black; stroke-linecap:round; stroke-width:0.25;"/>
<line x1="338.800000" y1="116.000000" x2="342.800000" y2="116.000000"  style="stroke:black; stroke-linecap:round; stroke-width:0.25;"/>
<line x1="342.800000" y1="116.000000" x2="342.800000" y2="116.000000"  style="stroke:black; stroke-linecap:round; stroke-width:0.25;"/>
<line x1="342.800000" y1="116.000000" x2="346.800000" y2="116.000000"  style="stroke:black; stroke-linecap:round; stroke-width:0.25;"/>
<line x1="346.800000" y1="116.000000" x2="350.800000" y2="116.000000"  style="stroke:black; stroke-linecap:round; stroke-width:0.25;"/>
<line x1="350.800000" y1="116.000000" x2="360.800000" y2="116.000000"  style="stroke:black; stroke-linecap:round; stroke-width:0.25;"/>
</svg>
