<?xml version="1.0"?>
<svg xmlns="http://www.w3.org/2000/svg" xmlns:xlink="http://www.w3.org/1999/xlink" viewBox="0 0 273.500000 232.000000" width="136.750000mm" height="116.000000mm" version="1.1">
<defs>
   <filter id="filter" filterRes="18" x="0" y="0">
     <feGaussianBlur in="SourceGraphic" stdDeviation="1.55" result="blur"/>
     <feOffset in="blur" dx="3" dy="3"/>
   </filter>
</defs>
<a xlink:href="mod-0x7f8f935ca600.svg">
<rect x="1.000000" y="1.000000" width="272.500000" height="231.000000" rx="0.1" ry="0.1" style="stroke:none;fill:#aaaaaa;;filter:url(#filter);"/>
<rect x="0.000000" y="0.000000" width="272.500000" height="231.000000" rx="0" ry="0" style="stroke:none;fill:#ffffff;"/>
</a>
<text x="10.000000" y="7.000000" font-family="Arial" font-size="7"></text>
<rect x="50.400000" y="25.000000" width="24.000000" height="24.000000" rx="0.1" ry="0.1" style="stroke:none;fill:#aaaaaa;;filter:url(#filter);"/>
<rect x="49.400000" y="24.000000" width="24.000000" height="24.000000" rx="0" ry="0" style="stroke:none;fill:#47945E;"/>
<text x="61.400000" y="38.000000" font-family="Arial" font-size="7" text-anchor="middle" fill="#FFFFFF">y</text>
<circle cx="51.400000" cy="26.000000" r="1"/>
<rect x="49.500000" y="57.000000" width="25.800000" height="24.000000" rx="0.1" ry="0.1" style="stroke:none;fill:#aaaaaa;;filter:url(#filter);"/>
<rect x="48.500000" y="56.000000" width="25.800000" height="24.000000" rx="0" ry="0" style="stroke:none;fill:#f44800;"/>
<text x="61.400000" y="70.000000" font-family="Arial" font-size="7" text-anchor="middle" fill="#FFFFFF">0.001</text>
<circle cx="50.500000" cy="58.000000" r="1"/>
<rect x="91.300000" y="41.000000" width="24.000000" height="24.000000" rx="0.1" ry="0.1" style="stroke:none;fill:#aaaaaa;;filter:url(#filter);"/>
<rect x="90.300000" y="40.000000" width="24.000000" height="24.000000" rx="0" ry="0" style="stroke:none;fill:#4B71A1;"/>
<text x="102.300000" y="54.000000" font-family="Arial" font-size="7" text-anchor="middle" fill="#FFFFFF">+</text>
<circle cx="92.300000" cy="42.000000" r="1"/>
<line x1="87.300000" y1="47.000000" x2="90.300000" y2="48.000000"  transform="rotate(0.000000,90.300000,48.000000)" style="stroke: black; stroke-width:0.25;"/>
<line x1="87.300000" y1="49.000000" x2="90.300000" y2="48.000000"  transform="rotate(0.000000,90.300000,48.000000)" style="stroke: black; stroke-width:0.25;"/>
<line x1="87.300000" y1="55.000000" x2="90.300000" y2="56.000000"  transform="rotate(0.000000,90.300000,56.000000)" style="stroke: black; stroke-width:0.25;"/>
<line x1="87.300000" y1="57.000000" x2="90.300000" y2="56.000000"  transform="rotate(0.000000,90.300000,56.000000)" style="stroke: black; stroke-width:0.25;"/>
<rect x="70.400000" y="89.000000" width="24.000000" height="24.000000" rx="0.1" ry="0.1" style="stroke:none;fill:#aaaaaa;;filter:url(#filter);"/>
<rect x="69.400000" y="88.000000" width="24.000000" height="24.000000" rx="0" ry="0" style="stroke:none;fill:#47945E;"/>
<text x="81.400000" y="102.000000" font-family="Arial" font-size="7" text-anchor="middle" fill="#FFFFFF">x</text>
<circle cx="71.400000" cy="90.000000" r="1"/>
<rect x="131.300000" y="57.000000" width="24.000000" height="24.000000" rx="0.1" ry="0.1" style="stroke:none;fill:#aaaaaa;;filter:url(#filter);"/>
<rect x="130.300000" y="56.000000" width="24.000000" height="24.000000" rx="0" ry="0" style="stroke:none;fill:#4B71A1;"/>
<text x="142.300000" y="70.000000" font-family="Arial" font-size="7" text-anchor="middle" fill="#FFFFFF">&lt;</text>
<circle cx="132.300000" cy="58.000000" r="1"/>
<line x1="127.300000" y1="63.000000" x2="130.300000" y2="64.000000"  transform="rotate(0.000000,130.300000,64.000000)" style="stroke: black; stroke-width:0.25;"/>
<line x1="127.300000" y1="65.000000" x2="130.300000" y2="64.000000"  transform="rotate(0.000000,130.300000,64.000000)" style="stroke: black; stroke-width:0.25;"/>
<line x1="127.300000" y1="71.000000" x2="130.300000" y2="72.000000"  transform="rotate(0.000000,130.300000,72.000000)" style="stroke: black; stroke-width:0.25;"/>
<line x1="127.300000" y1="73.000000" x2="130.300000" y2="72.000000"  transform="rotate(0.000000,130.300000,72.000000)" style="stroke: black; stroke-width:0.25;"/>
<a xlink:href="if-0x7f8f935c41b0.svg">
<rect x="25.000000" y="121.000000" width="154.800000" height="24.000000" rx="0.1" ry="0.1" style="stroke:none;fill:#aaaaaa;;filter:url(#filter);"/>
<rect x="24.000000" y="120.000000" width="154.800000" height="24.000000" rx="0" ry="0" style="stroke:none;fill:#003366;"/>
</a>
<a xlink:href="if-0x7f8f935c41b0.svg">
<text x="101.400000" y="134.000000" font-family="Arial" font-size="7" text-anchor="middle" fill="#FFFFFF">if((x406,0.00...6,0.001f : -)(x407)</text>
</a>
<circle cx="26.000000" cy="122.000000" r="1"/>
<rect x="70.400000" y="153.000000" width="24.000000" height="24.000000" rx="0.1" ry="0.1" style="stroke:none;fill:#aaaaaa;;filter:url(#filter);"/>
<rect x="69.400000" y="152.000000" width="24.000000" height="24.000000" rx="0" ry="0" style="stroke:none;fill:#47945E;"/>
<text x="81.400000" y="166.000000" font-family="Arial" font-size="7" text-anchor="middle" fill="#FFFFFF">y</text>
<circle cx="71.400000" cy="154.000000" r="1"/>
<rect x="69.500000" y="185.000000" width="25.800000" height="24.000000" rx="0.1" ry="0.1" style="stroke:none;fill:#aaaaaa;;filter:url(#filter);"/>
<rect x="68.500000" y="184.000000" width="25.800000" height="24.000000" rx="0" ry="0" style="stroke:none;fill:#f44800;"/>
<text x="81.400000" y="198.000000" font-family="Arial" font-size="7" text-anchor="middle" fill="#FFFFFF">0.001</text>
<circle cx="70.500000" cy="186.000000" r="1"/>
<rect x="111.300000" y="169.000000" width="24.000000" height="24.000000" rx="0.1" ry="0.1" style="stroke:none;fill:#aaaaaa;;filter:url(#filter);"/>
<rect x="110.300000" y="168.000000" width="24.000000" height="24.000000" rx="0" ry="0" style="stroke:none;fill:#4B71A1;"/>
<text x="122.300000" y="182.000000" font-family="Arial" font-size="7" text-anchor="middle" fill="#FFFFFF">+</text>
<circle cx="112.300000" cy="170.000000" r="1"/>
<line x1="107.300000" y1="175.000000" x2="110.300000" y2="176.000000"  transform="rotate(0.000000,110.300000,176.000000)" style="stroke: black; stroke-width:0.25;"/>
<line x1="107.300000" y1="177.000000" x2="110.300000" y2="176.000000"  transform="rotate(0.000000,110.300000,176.000000)" style="stroke: black; stroke-width:0.25;"/>
<line x1="107.300000" y1="183.000000" x2="110.300000" y2="184.000000"  transform="rotate(0.000000,110.300000,184.000000)" style="stroke: black; stroke-width:0.25;"/>
<line x1="107.300000" y1="185.000000" x2="110.300000" y2="184.000000"  transform="rotate(0.000000,110.300000,184.000000)" style="stroke: black; stroke-width:0.25;"/>
<rect x="203.800000" y="105.000000" width="38.700000" height="24.000000" rx="0.1" ry="0.1" style="stroke:none;fill:#aaaaaa;;filter:url(#filter);"/>
<rect x="202.800000" y="104.000000" width="38.700000" height="24.000000" rx="0" ry="0" style="stroke:none;fill:#4B71A1;"/>
<text x="222.150000" y="118.000000" font-family="Arial" font-size="7" text-anchor="middle" fill="#FFFFFF">select2</text>
<circle cx="204.800000" cy="106.000000" r="1"/>
<line x1="199.800000" y1="107.000000" x2="202.800000" y2="108.000000"  transform="rotate(0.000000,202.800000,108.000000)" style="stroke: black; stroke-width:0.25;"/>
<line x1="199.800000" y1="109.000000" x2="202.800000" y2="108.000000"  transform="rotate(0.000000,202.800000,108.000000)" style="stroke: black; stroke-width:0.25;"/>
<line x1="199.800000" y1="115.000000" x2="202.800000" y2="116.000000"  transform="rotate(0.000000,202.800000,116.000000)" style="stroke: black; stroke-width:0.25;"/>
<line x1="199.800000" y1="117.000000" x2="202.800000" y2="116.000000"  transform="rotate(0.000000,202.800000,116.000000)" style="stroke: black; stroke-width:0.25;"/>
<line x1="199.800000" y1="123.000000" x2="202.800000" y2="124.000000"  transform="rotate(0.000000,202.800000,124.000000)" style="stroke: black; stroke-width:0.25;"/>
<line x1="199.800000" y1="125.000000" x2="202.800000" y2="124.000000"  transform="rotate(0.000000,202.800000,124.000000)" style="stroke: black; stroke-width:0.25;"/>
<line x1="15.000000" y1="15.000000" x2="15.000000" y2="217.000000"  style="stroke: black; stroke-linecap:round; stroke-width:0.25; stroke-dasharray:3,3;"/>
<line x1="15.000000" y1="217.000000" x2="258.500000" y2="217.000000"  style="stroke: black; stroke-linecap:round; stroke-width:0.25; stroke-dasharray:3,3;"/>
<line x1="258.500000" y1="217.000000" x2="258.500000" y2="15.000000"  style="stroke: black; stroke-linecap:round; stroke-width:0.25; stroke-dasharray:3,3;"/>
<line x1="15.000000" y1="15.000000" x2="20.000000" y2="15.000000"  style="stroke: black; stroke-linecap:round; stroke-width:0.25; stroke-dasharray:3,3;"/>
<line x1="119.975000" y1="15.000000" x2="258.500000" y2="15.000000"  style="stroke: black; stroke-linecap:round; stroke-width:0.25; stroke-dasharray:3,3;"/>
<text x="20.000000" y="17.000000" font-family="Arial" font-size="7">if((x406,0.00...-) : select2)</text>
<line x1="260.500000" y1="115.000000" x2="263.500000" y2="116.000000"  transform="rotate(0.000000,263.500000,116.000000)" style="stroke: black; stroke-width:0.25;"/>
<line x1="260.500000" y1="117.000000" x2="263.500000" y2="116.000000"  transform="rotate(0.000000,263.500000,116.000000)" style="stroke: black; stroke-width:0.25;"/>
<line x1="73.400000" y1="36.000000" x2="77.400000" y2="36.000000"  style="stroke:black; stroke-linecap:round; stroke-width:0.25;"/>
<line x1="74.300000" y1="68.000000" x2="78.300000" y2="68.000000"  style="stroke:black; stroke-linecap:round; stroke-width:0.25;"/>
<line x1="77.400000" y1="36.000000" x2="78.300000" y2="36.000000"  style="stroke:black; stroke-linecap:round; stroke-width:0.25;"/>
<line x1="78.300000" y1="36.000000" x2="86.300000" y2="36.000000"  style="stroke:black; stroke-linecap:round; stroke-width:0.25;"/>
<line x1="78.300000" y1="56.000000" x2="86.300000" y2="56.000000"  style="stroke:black; stroke-linecap:round; stroke-width:0.25;"/>
<line x1="78.300000" y1="68.000000" x2="78.300000" y2="56.000000"  style="stroke:black; stroke-linecap:round; stroke-width:0.25;"/>
<line x1="78.300000" y1="68.000000" x2="78.300000" y2="68.000000"  style="stroke:black; stroke-linecap:round; stroke-width:0.25;"/>
<line x1="86.300000" y1="36.000000" x2="86.300000" y2="48.000000"  style="stroke:black; stroke-linecap:round; stroke-width:0.25;"/>
<line x1="86.300000" y1="48.000000" x2="86.300000" y2="48.000000"  style="stroke:black; stroke-linecap:round; stroke-width:0.25;"/>
<line x1="86.300000" y1="48.000000" x2="90.300000" y2="48.000000"  style="stroke:black; stroke-linecap:round; stroke-width:0.25;"/>
<line x1="86.300000" y1="56.000000" x2="90.300000" y2="56.000000"  style="stroke:black; stroke-linecap:round; stroke-width:0.25;"/>
<line x1="93.400000" y1="100.000000" x2="97.400000" y2="100.000000"  style="stroke:black; stroke-linecap:round; stroke-width:0.25;"/>
<line x1="93.400000" y1="164.000000" x2="97.400000" y2="164.000000"  style="stroke:black; stroke-linecap:round; stroke-width:0.25;"/>
<line x1="94.300000" y1="196.000000" x2="98.300000" y2="196.000000"  style="stroke:black; stroke-linecap:round; stroke-width:0.25;"/>
<line x1="97.400000" y1="100.000000" x2="118.300000" y2="100.000000"  style="stroke:black; stroke-linecap:round; stroke-width:0.25;"/>
<line x1="97.400000" y1="164.000000" x2="98.300000" y2="164.000000"  style="stroke:black; stroke-linecap:round; stroke-width:0.25;"/>
<line x1="98.300000" y1="184.000000" x2="106.300000" y2="184.000000"  style="stroke:black; stroke-linecap:round; stroke-width:0.25;"/>
<line x1="98.300000" y1="196.000000" x2="98.300000" y2="184.000000"  style="stroke:black; stroke-linecap:round; stroke-width:0.25;"/>
<line x1="98.300000" y1="196.000000" x2="98.300000" y2="196.000000"  style="stroke:black; stroke-linecap:round; stroke-width:0.25;"/>
<line x1="98.300000" y1="164.000000" x2="106.300000" y2="164.000000"  style="stroke:black; stroke-linecap:round; stroke-width:0.25;"/>
<line x1="106.300000" y1="176.000000" x2="110.300000" y2="176.000000"  style="stroke:black; stroke-linecap:round; stroke-width:0.25;"/>
<line x1="106.300000" y1="184.000000" x2="110.300000" y2="184.000000"  style="stroke:black; stroke-linecap:round; stroke-width:0.25;"/>
<line x1="106.300000" y1="164.000000" x2="106.300000" y2="176.000000"  style="stroke:black; stroke-linecap:round; stroke-width:0.25;"/>
<line x1="106.300000" y1="176.000000" x2="106.300000" y2="176.000000"  style="stroke:black; stroke-linecap:round; stroke-width:0.25;"/>
<line x1="114.300000" y1="52.000000" x2="118.300000" y2="52.000000"  style="stroke:black; stroke-linecap:round; stroke-width:0.25;"/>
<line x1="118.300000" y1="52.000000" x2="126.300000" y2="52.000000"  style="stroke:black; stroke-linecap:round; stroke-width:0.25;"/>
<line x1="118.300000" y1="72.000000" x2="126.300000" y2="72.000000"  style="stroke:black; stroke-linecap:round; stroke-width:0.25;"/>
<line x1="118.300000" y1="100.000000" x2="118.300000" y2="72.000000"  style="stroke:black; stroke-linecap:round; stroke-width:0.25;"/>
<line x1="118.300000" y1="100.000000" x2="118.300000" y2="100.000000"  style="stroke:black; stroke-linecap:round; stroke-width:0.25;"/>
<line x1="126.300000" y1="52.000000" x2="126.300000" y2="64.000000"  style="stroke:black; stroke-linecap:round; stroke-width:0.25;"/>
<line x1="126.300000" y1="64.000000" x2="126.300000" y2="64.000000"  style="stroke:black; stroke-linecap:round; stroke-width:0.25;"/>
<line x1="126.300000" y1="64.000000" x2="130.300000" y2="64.000000"  style="stroke:black; stroke-linecap:round; stroke-width:0.25;"/>
<line x1="126.300000" y1="72.000000" x2="130.300000" y2="72.000000"  style="stroke:black; stroke-linecap:round; stroke-width:0.25;"/>
<line x1="134.300000" y1="180.000000" x2="138.300000" y2="180.000000"  style="stroke:black; stroke-linecap:round; stroke-width:0.25;"/>
<line x1="138.300000" y1="180.000000" x2="182.800000" y2="180.000000"  style="stroke:black; stroke-linecap:round; stroke-width:0.25;"/>
<line x1="154.300000" y1="68.000000" x2="158.300000" y2="68.000000"  style="stroke:black; stroke-linecap:round; stroke-width:0.25;"/>
<line x1="158.300000" y1="68.000000" x2="182.800000" y2="68.000000"  style="stroke:black; stroke-linecap:round; stroke-width:0.25;"/>
<line x1="178.800000" y1="132.000000" x2="182.800000" y2="132.000000"  style="stroke:black; stroke-linecap:round; stroke-width:0.25;"/>
<line x1="182.800000" y1="68.000000" x2="198.800000" y2="68.000000"  style="stroke:black; stroke-linecap:round; stroke-width:0.25;"/>
<line x1="182.800000" y1="116.000000" x2="198.800000" y2="116.000000"  style="stroke:black; stroke-linecap:round; stroke-width:0.25;"/>
<line x1="182.800000" y1="132.000000" x2="182.800000" y2="116.000000"  style="stroke:black; stroke-linecap:round; stroke-width:0.25;"/>
<line x1="182.800000" y1="132.000000" x2="182.800000" y2="132.000000"  style="stroke:black; stroke-linecap:round; stroke-width:0.25;"/>
<line x1="182.800000" y1="180.000000" x2="190.800000" y2="180.000000"  style="stroke:black; stroke-linecap:round; stroke-width:0.25;"/>
<line x1="190.800000" y1="124.000000" x2="198.800000" y2="124.000000"  style="stroke:black; stroke-linecap:round; stroke-width:0.25;"/>
<line x1="190.800000" y1="180.000000" x2="190.800000" y2="124.000000"  style="stroke:black; stroke-linecap:round; stroke-width:0.25;"/>
<line x1="198.800000" y1="68.000000" x2="198.800000" y2="108.000000"  style="stroke:black; stroke-linecap:round; stroke-width:0.25;"/>
<line x1="198.800000" y1="108.000000" x2="198.800000" y2="108.000000"  style="stroke:black; stroke-linecap:round; stroke-width:0.25;"/>
<line x1="198.800000" y1="108.000000" x2="202.800000" y2="108.000000"  style="stroke:black; stroke-linecap:round; stroke-width:0.25;"/>
<line x1="198.800000" y1="116.000000" x2="202.800000" y2="116.000000"  style="stroke:black; stroke-linecap:round; stroke-width:0.25;"/>
<line x1="198.800000" y1="124.000000" x2="202.800000" y2="124.000000"  style="stroke:black; stroke-linecap:round; stroke-width:0.25;"/>
<line x1="241.500000" y1="116.000000" x2="245.500000" y2="116.000000"  style="stroke:black; stroke-linecap:round; stroke-width:0.25;"/>
<line x1="245.500000" y1="116.000000" x2="245.500000" y2="116.000000"  style="stroke:black; stroke-linecap:round; stroke-width:0.25;"/>
<line x1="245.500000" y1="116.000000" x2="249.500000" y2="116.000000"  style="stroke:black; stroke-linecap:round; stroke-width:0.25;"/>
<line x1="249.500000" y1="116.000000" x2="253.500000" y2="116.000000"  style="stroke:black; stroke-linecap:round; stroke-width:0.25;"/>
<line x1="253.500000" y1="116.000000" x2="263.500000" y2="116.000000"  style="stroke:black; stroke-linecap:round; stroke-width:0.25;"/>
</svg>
