<?xml version="1.0"?>
<svg xmlns="http://www.w3.org/2000/svg" xmlns:xlink="http://www.w3.org/1999/xlink" viewBox="0 0 733.000000 72.000000" width="366.500000mm" height="36.000000mm" version="1.1">
<defs>
   <filter id="filter" filterRes="18" x="0" y="0">
     <feGaussianBlur in="SourceGraphic" stdDeviation="1.55" result="blur"/>
     <feOffset in="blur" dx="3" dy="3"/>
   </filter>
</defs>
<a xlink:href="process.svg">
<rect x="1.000000" y="1.000000" width="732.000000" height="71.000000" rx="0.1" ry="0.1" style="stroke:none;fill:#aaaaaa;;filter:url(#filter);"/>
<rect x="0.000000" y="0.000000" width="732.000000" height="71.000000" rx="0" ry="0" style="stroke:none;fill:#ffffff;"/>
</a>
<text x="10.000000" y="7.000000" font-family="Arial" font-size="7"></text>
<a xlink:href="allpass-0x7f8f91f60a40.svg">
<rect x="33.000000" y="25.000000" width="154.800000" height="24.000000" rx="0.1" ry="0.1" style="stroke:none;fill:#aaaaaa;;filter:url(#filter);"/>
<rect x="32.000000" y="24.000000" width="154.800000" height="24.000000" rx="0" ry="0" style="stroke:none;fill:#003366;"/>
</a>
<a xlink:href="allpass-0x7f8f91f60a40.svg">
<text x="109.400000" y="38.000000" font-family="Arial" font-size="7" text-anchor="middle" fill="#FFFFFF">allpass_fcomb...= {}]~_) : +)(0.75f)</text>
</a>
<circle cx="34.000000" cy="26.000000" r="1"/>
<line x1="29.000000" y1="35.000000" x2="32.000000" y2="36.000000"  transform="rotate(0.000000,32.000000,36.000000)" style="stroke: black; stroke-width:0.25;"/>
<line x1="29.000000" y1="37.000000" x2="32.000000" y2="36.000000"  transform="rotate(0.000000,32.000000,36.000000)" style="stroke: black; stroke-width:0.25;"/>
<a xlink:href="allpass-0x7f8f91f87ab0.svg">
<rect x="195.800000" y="25.000000" width="154.800000" height="24.000000" rx="0.1" ry="0.1" style="stroke:none;fill:#aaaaaa;;filter:url(#filter);"/>
<rect x="194.800000" y="24.000000" width="154.800000" height="24.000000" rx="0" ry="0" style="stroke:none;fill:#003366;"/>
</a>
<a xlink:href="allpass-0x7f8f91f87ab0.svg">
<text x="272.200000" y="38.000000" font-family="Arial" font-size="7" text-anchor="middle" fill="#FFFFFF">allpass_fcomb...= {}]~_) : -)(0.75f)</text>
</a>
<circle cx="196.800000" cy="26.000000" r="1"/>
<line x1="191.800000" y1="35.000000" x2="194.800000" y2="36.000000"  transform="rotate(0.000000,194.800000,36.000000)" style="stroke: black; stroke-width:0.25;"/>
<line x1="191.800000" y1="37.000000" x2="194.800000" y2="36.000000"  transform="rotate(0.000000,194.800000,36.000000)" style="stroke: black; stroke-width:0.25;"/>
<a xlink:href="allpass-0x7f8f91faeab0.svg">
<rect x="358.600000" y="25.000000" width="167.700000" height="24.000000" rx="0.1" ry="0.1" style="stroke:none;fill:#aaaaaa;;filter:url(#filter);"/>
<rect x="357.600000" y="24.000000" width="167.700000" height="24.000000" rx="0" ry="0" style="stroke:none;fill:#003366;"/>
</a>
<a xlink:href="allpass-0x7f8f91faeab0.svg">
<text x="441.450000" y="38.000000" font-family="Arial" font-size="7" text-anchor="middle" fill="#FFFFFF">allpass_fcomb...= {}]~_) : +)(0.625f)</text>
</a>
<circle cx="359.600000" cy="26.000000" r="1"/>
<line x1="354.600000" y1="35.000000" x2="357.600000" y2="36.000000"  transform="rotate(0.000000,357.600000,36.000000)" style="stroke: black; stroke-width:0.25;"/>
<line x1="354.600000" y1="37.000000" x2="357.600000" y2="36.000000"  transform="rotate(0.000000,357.600000,36.000000)" style="stroke: black; stroke-width:0.25;"/>
<a xlink:href="allpass-0x7f8f91fd59a0.svg">
<rect x="534.300000" y="25.000000" width="167.700000" height="24.000000" rx="0.1" ry="0.1" style="stroke:none;fill:#aaaaaa;;filter:url(#filter);"/>
<rect x="533.300000" y="24.000000" width="167.700000" height="24.000000" rx="0" ry="0" style="stroke:none;fill:#003366;"/>
</a>
<a xlink:href="allpass-0x7f8f91fd59a0.svg">
<text x="617.150000" y="38.000000" font-family="Arial" font-size="7" text-anchor="middle" fill="#FFFFFF">allpass_fcomb...= {}]~_) : -)(0.625f)</text>
</a>
<circle cx="535.300000" cy="26.000000" r="1"/>
<line x1="530.300000" y1="35.000000" x2="533.300000" y2="36.000000"  transform="rotate(0.000000,533.300000,36.000000)" style="stroke: black; stroke-width:0.25;"/>
<line x1="530.300000" y1="37.000000" x2="533.300000" y2="36.000000"  transform="rotate(0.000000,533.300000,36.000000)" style="stroke: black; stroke-width:0.25;"/>
<line x1="15.000000" y1="15.000000" x2="15.000000" y2="57.000000"  style="stroke: black; stroke-linecap:round; stroke-width:0.25; stroke-dasharray:3,3;"/>
<line x1="15.000000" y1="57.000000" x2="718.000000" y2="57.000000"  style="stroke: black; stroke-linecap:round; stroke-width:0.25; stroke-dasharray:3,3;"/>
<line x1="718.000000" y1="57.000000" x2="718.000000" y2="15.000000"  style="stroke: black; stroke-linecap:round; stroke-width:0.25; stroke-dasharray:3,3;"/>
<line x1="15.000000" y1="15.000000" x2="20.000000" y2="15.000000"  style="stroke: black; stroke-linecap:round; stroke-width:0.25; stroke-dasharray:3,3;"/>
<line x1="65.150000" y1="15.000000" x2="718.000000" y2="15.000000"  style="stroke: black; stroke-linecap:round; stroke-width:0.25; stroke-dasharray:3,3;"/>
<text x="20.000000" y="17.000000" font-family="Arial" font-size="7">input_diff_l</text>
<line x1="720.000000" y1="35.000000" x2="723.000000" y2="36.000000"  transform="rotate(0.000000,723.000000,36.000000)" style="stroke: black; stroke-width:0.25;"/>
<line x1="720.000000" y1="37.000000" x2="723.000000" y2="36.000000"  transform="rotate(0.000000,723.000000,36.000000)" style="stroke: black; stroke-width:0.25;"/>
<line x1="10.000000" y1="36.000000" x2="20.000000" y2="36.000000"  style="stroke:black; stroke-linecap:round; stroke-width:0.25;"/>
<line x1="20.000000" y1="36.000000" x2="24.000000" y2="36.000000"  style="stroke:black; stroke-linecap:round; stroke-width:0.25;"/>
<line x1="24.000000" y1="36.000000" x2="28.000000" y2="36.000000"  style="stroke:black; stroke-linecap:round; stroke-width:0.25;"/>
<line x1="28.000000" y1="36.000000" x2="28.000000" y2="36.000000"  style="stroke:black; stroke-linecap:round; stroke-width:0.25;"/>
<line x1="28.000000" y1="36.000000" x2="32.000000" y2="36.000000"  style="stroke:black; stroke-linecap:round; stroke-width:0.25;"/>
<line x1="186.800000" y1="36.000000" x2="190.800000" y2="36.000000"  style="stroke:black; stroke-linecap:round; stroke-width:0.25;"/>
<line x1="190.800000" y1="36.000000" x2="190.800000" y2="36.000000"  style="stroke:black; stroke-linecap:round; stroke-width:0.25;"/>
<line x1="190.800000" y1="36.000000" x2="194.800000" y2="36.000000"  style="stroke:black; stroke-linecap:round; stroke-width:0.25;"/>
<line x1="349.600000" y1="36.000000" x2="353.600000" y2="36.000000"  style="stroke:black; stroke-linecap:round; stroke-width:0.25;"/>
<line x1="353.600000" y1="36.000000" x2="353.600000" y2="36.000000"  style="stroke:black; stroke-linecap:round; stroke-width:0.25;"/>
<line x1="353.600000" y1="36.000000" x2="357.600000" y2="36.000000"  style="stroke:black; stroke-linecap:round; stroke-width:0.25;"/>
<line x1="525.300000" y1="36.000000" x2="529.300000" y2="36.000000"  style="stroke:black; stroke-linecap:round; stroke-width:0.25;"/>
<line x1="529.300000" y1="36.000000" x2="529.300000" y2="36.000000"  style="stroke:black; stroke-linecap:round; stroke-width:0.25;"/>
<line x1="529.300000" y1="36.000000" x2="533.300000" y2="36.000000"  style="stroke:black; stroke-linecap:round; stroke-width:0.25;"/>
<line x1="701.000000" y1="36.000000" x2="705.000000" y2="36.000000"  style="stroke:black; stroke-linecap:round; stroke-width:0.25;"/>
<line x1="705.000000" y1="36.000000" x2="709.000000" y2="36.000000"  style="stroke:black; stroke-linecap:round; stroke-width:0.25;"/>
<line x1="705.000000" y1="36.000000" x2="705.000000" y2="36.000000"  style="stroke:black; stroke-linecap:round; stroke-width:0.25;"/>
<line x1="705.000000" y1="36.000000" x2="705.000000" y2="36.000000"  style="stroke:black; stroke-linecap:round; stroke-width:0.25;"/>
<line x1="709.000000" y1="36.000000" x2="713.000000" y2="36.000000"  style="stroke:black; stroke-linecap:round; stroke-width:0.25;"/>
<line x1="713.000000" y1="36.000000" x2="723.000000" y2="36.000000"  style="stroke:black; stroke-linecap:round; stroke-width:0.25;"/>
</svg>
