<?xml version="1.0"?>
<svg xmlns="http://www.w3.org/2000/svg" xmlns:xlink="http://www.w3.org/1999/xlink" viewBox="0 0 515.800000 112.000000" width="257.900000mm" height="56.000000mm" version="1.1">
<defs>
   <filter id="filter" filterRes="18" x="0" y="0">
     <feGaussianBlur in="SourceGraphic" stdDeviation="1.55" result="blur"/>
     <feOffset in="blur" dx="3" dy="3"/>
   </filter>
</defs>
<a xlink:href="compression-0x7f8f94a4ef40.svg">
<rect x="1.000000" y="1.000000" width="514.800000" height="111.000000" rx="0.1" ry="0.1" style="stroke:none;fill:#aaaaaa;;filter:url(#filter);"/>
<rect x="0.000000" y="0.000000" width="514.800000" height="111.000000" rx="0" ry="0" style="stroke:none;fill:#ffffff;"/>
</a>
<text x="10.000000" y="7.000000" font-family="Arial" font-size="7"></text>
<rect x="99.950000" y="33.000000" width="24.000000" height="24.000000" rx="0.1" ry="0.1" style="stroke:none;fill:#aaaaaa;;filter:url(#filter);"/>
<rect x="98.950000" y="32.000000" width="24.000000" height="24.000000" rx="0" ry="0" style="stroke:none;fill:#f44800;"/>
<text x="110.950000" y="46.000000" font-family="Arial" font-size="7" text-anchor="middle" fill="#FFFFFF">1</text>
<circle cx="100.950000" cy="34.000000" r="1"/>
<a xlink:href="tau2pole-0x7f8f94a47a90.svg">
<rect x="41.000000" y="65.000000" width="141.900000" height="24.000000" rx="0.1" ry="0.1" style="stroke:none;fill:#aaaaaa;;filter:url(#filter);"/>
<rect x="40.000000" y="64.000000" width="141.900000" height="24.000000" rx="0" ry="0" style="stroke:none;fill:#003366;"/>
</a>
<a xlink:href="tau2pole-0x7f8f94a47a90.svg">
<text x="110.950000" y="78.000000" font-family="Arial" font-size="7" text-anchor="middle" fill="#FFFFFF">tau2pole(0.00040000000000000002f)</text>
</a>
<circle cx="42.000000" cy="66.000000" r="1"/>
<rect x="198.900000" y="49.000000" width="24.000000" height="24.000000" rx="0.1" ry="0.1" style="stroke:none;fill:#aaaaaa;;filter:url(#filter);"/>
<rect x="197.900000" y="48.000000" width="24.000000" height="24.000000" rx="0" ry="0" style="stroke:none;fill:#4B71A1;"/>
<text x="209.900000" y="62.000000" font-family="Arial" font-size="7" text-anchor="middle" fill="#FFFFFF">-</text>
<circle cx="199.900000" cy="50.000000" r="1"/>
<line x1="194.900000" y1="55.000000" x2="197.900000" y2="56.000000"  transform="rotate(0.000000,197.900000,56.000000)" style="stroke: black; stroke-width:0.25;"/>
<line x1="194.900000" y1="57.000000" x2="197.900000" y2="56.000000"  transform="rotate(0.000000,197.900000,56.000000)" style="stroke: black; stroke-width:0.25;"/>
<line x1="194.900000" y1="63.000000" x2="197.900000" y2="64.000000"  transform="rotate(0.000000,197.900000,64.000000)" style="stroke: black; stroke-width:0.25;"/>
<line x1="194.900000" y1="65.000000" x2="197.900000" y2="64.000000"  transform="rotate(0.000000,197.900000,64.000000)" style="stroke: black; stroke-width:0.25;"/>
<rect x="238.900000" y="45.000000" width="24.000000" height="24.000000" rx="0.1" ry="0.1" style="stroke:none;fill:#aaaaaa;;filter:url(#filter);"/>
<rect x="237.900000" y="44.000000" width="24.000000" height="24.000000" rx="0" ry="0" style="stroke:none;fill:#4B71A1;"/>
<text x="249.900000" y="58.000000" font-family="Arial" font-size="7" text-anchor="middle" fill="#FFFFFF">*</text>
<circle cx="239.900000" cy="46.000000" r="1"/>
<line x1="234.900000" y1="51.000000" x2="237.900000" y2="52.000000"  transform="rotate(0.000000,237.900000,52.000000)" style="stroke: black; stroke-width:0.25;"/>
<line x1="234.900000" y1="53.000000" x2="237.900000" y2="52.000000"  transform="rotate(0.000000,237.900000,52.000000)" style="stroke: black; stroke-width:0.25;"/>
<line x1="234.900000" y1="59.000000" x2="237.900000" y2="60.000000"  transform="rotate(0.000000,237.900000,60.000000)" style="stroke: black; stroke-width:0.25;"/>
<line x1="234.900000" y1="61.000000" x2="237.900000" y2="60.000000"  transform="rotate(0.000000,237.900000,60.000000)" style="stroke: black; stroke-width:0.25;"/>
<rect x="365.850000" y="65.000000" width="24.000000" height="24.000000" rx="0.1" ry="0.1" style="stroke:none;fill:#aaaaaa;;filter:url(#filter);"/>
<rect x="364.850000" y="64.000000" width="24.000000" height="24.000000" rx="0" ry="0" style="stroke:none;fill:#4B71A1;"/>
<text x="376.850000" y="78.000000" font-family="Arial" font-size="7" text-anchor="middle" fill="#FFFFFF">+</text>
<circle cx="366.850000" cy="66.000000" r="1"/>
<line x1="361.850000" y1="71.000000" x2="364.850000" y2="72.000000"  transform="rotate(0.000000,364.850000,72.000000)" style="stroke: black; stroke-width:0.25;"/>
<line x1="361.850000" y1="73.000000" x2="364.850000" y2="72.000000"  transform="rotate(0.000000,364.850000,72.000000)" style="stroke: black; stroke-width:0.25;"/>
<line x1="361.850000" y1="79.000000" x2="364.850000" y2="80.000000"  transform="rotate(0.000000,364.850000,80.000000)" style="stroke: black; stroke-width:0.25;"/>
<line x1="361.850000" y1="81.000000" x2="364.850000" y2="80.000000"  transform="rotate(0.000000,364.850000,80.000000)" style="stroke: black; stroke-width:0.25;"/>
<a xlink:href="tau2pole-0x7f8f94a47a90.svg">
<rect x="326.900000" y="25.000000" width="141.900000" height="24.000000" rx="0.1" ry="0.1" style="stroke:none;fill:#aaaaaa;;filter:url(#filter);"/>
<rect x="325.900000" y="24.000000" width="141.900000" height="24.000000" rx="0" ry="0" style="stroke:none;fill:#003366;"/>
</a>
<a xlink:href="tau2pole-0x7f8f94a47a90.svg">
<text x="396.850000" y="38.000000" font-family="Arial" font-size="7" text-anchor="middle" fill="#FFFFFF">tau2pole(0.00040000000000000002f)</text>
</a>
<circle cx="465.800000" cy="46.000000" r="1"/>
<rect x="286.900000" y="29.000000" width="24.000000" height="24.000000" rx="0.1" ry="0.1" style="stroke:none;fill:#aaaaaa;;filter:url(#filter);"/>
<rect x="285.900000" y="28.000000" width="24.000000" height="24.000000" rx="0" ry="0" style="stroke:none;fill:#4B71A1;"/>
<text x="297.900000" y="42.000000" font-family="Arial" font-size="7" text-anchor="middle" fill="#FFFFFF">*</text>
<circle cx="307.900000" cy="50.000000" r="1"/>
<line x1="312.900000" y1="43.000000" x2="309.900000" y2="44.000000"  transform="rotate(0.000000,309.900000,44.000000)" style="stroke: black; stroke-width:0.25;"/>
<line x1="312.900000" y1="45.000000" x2="309.900000" y2="44.000000"  transform="rotate(0.000000,309.900000,44.000000)" style="stroke: black; stroke-width:0.25;"/>
<line x1="312.900000" y1="35.000000" x2="309.900000" y2="36.000000"  transform="rotate(0.000000,309.900000,36.000000)" style="stroke: black; stroke-width:0.25;"/>
<line x1="312.900000" y1="37.000000" x2="309.900000" y2="36.000000"  transform="rotate(0.000000,309.900000,36.000000)" style="stroke: black; stroke-width:0.25;"/>
<line x1="469.800000" y1="76.000000" x2="469.800000" y2="72.000000"  style="stroke:black; stroke-linecap:round; stroke-width:0.25;"/>
<line x1="469.800000" y1="72.000000" x2="473.800000" y2="72.000000"  style="stroke:black; stroke-linecap:round; stroke-width:0.25;"/>
<line x1="473.800000" y1="72.000000" x2="473.800000" y2="76.000000"  style="stroke:black; stroke-linecap:round; stroke-width:0.25;"/>
<line x1="15.000000" y1="15.000000" x2="15.000000" y2="97.000000"  style="stroke: black; stroke-linecap:round; stroke-width:0.25; stroke-dasharray:3,3;"/>
<line x1="15.000000" y1="97.000000" x2="500.800000" y2="97.000000"  style="stroke: black; stroke-linecap:round; stroke-width:0.25; stroke-dasharray:3,3;"/>
<line x1="500.800000" y1="97.000000" x2="500.800000" y2="15.000000"  style="stroke: black; stroke-linecap:round; stroke-width:0.25; stroke-dasharray:3,3;"/>
<line x1="15.000000" y1="15.000000" x2="20.000000" y2="15.000000"  style="stroke: black; stroke-linecap:round; stroke-width:0.25; stroke-dasharray:3,3;"/>
<line x1="139.325000" y1="15.000000" x2="500.800000" y2="15.000000"  style="stroke: black; stroke-linecap:round; stroke-width:0.25; stroke-dasharray:3,3;"/>
<text x="20.000000" y="17.000000" font-family="Arial" font-size="7">kneesmooth(0.00080000000000000004f)</text>
<line x1="502.800000" y1="55.000000" x2="505.800000" y2="56.000000"  transform="rotate(0.000000,505.800000,56.000000)" style="stroke: black; stroke-width:0.25;"/>
<line x1="502.800000" y1="57.000000" x2="505.800000" y2="56.000000"  transform="rotate(0.000000,505.800000,56.000000)" style="stroke: black; stroke-width:0.25;"/>
<line x1="10.000000" y1="56.000000" x2="20.000000" y2="56.000000"  style="stroke:black; stroke-linecap:round; stroke-width:0.25;"/>
<line x1="20.000000" y1="56.000000" x2="24.000000" y2="56.000000"  style="stroke:black; stroke-linecap:round; stroke-width:0.25;"/>
<line x1="24.000000" y1="56.000000" x2="28.000000" y2="56.000000"  style="stroke:black; stroke-linecap:round; stroke-width:0.25;"/>
<line x1="28.000000" y1="24.000000" x2="36.000000" y2="24.000000"  style="stroke:black; stroke-linecap:round; stroke-width:0.25;"/>
<line x1="28.000000" y1="56.000000" x2="28.000000" y2="24.000000"  style="stroke:black; stroke-linecap:round; stroke-width:0.25;"/>
<line x1="28.000000" y1="56.000000" x2="28.000000" y2="56.000000"  style="stroke:black; stroke-linecap:round; stroke-width:0.25;"/>
<line x1="36.000000" y1="24.000000" x2="130.950000" y2="24.000000"  style="stroke:black; stroke-linecap:round; stroke-width:0.25;"/>
<line x1="122.950000" y1="44.000000" x2="126.950000" y2="44.000000"  style="stroke:black; stroke-linecap:round; stroke-width:0.25;"/>
<line x1="126.950000" y1="44.000000" x2="185.900000" y2="44.000000"  style="stroke:black; stroke-linecap:round; stroke-width:0.25;"/>
<line x1="130.950000" y1="24.000000" x2="225.900000" y2="24.000000"  style="stroke:black; stroke-linecap:round; stroke-width:0.25;"/>
<line x1="181.900000" y1="76.000000" x2="185.900000" y2="76.000000"  style="stroke:black; stroke-linecap:round; stroke-width:0.25;"/>
<line x1="185.900000" y1="44.000000" x2="193.900000" y2="44.000000"  style="stroke:black; stroke-linecap:round; stroke-width:0.25;"/>
<line x1="185.900000" y1="64.000000" x2="193.900000" y2="64.000000"  style="stroke:black; stroke-linecap:round; stroke-width:0.25;"/>
<line x1="185.900000" y1="76.000000" x2="185.900000" y2="64.000000"  style="stroke:black; stroke-linecap:round; stroke-width:0.25;"/>
<line x1="185.900000" y1="76.000000" x2="185.900000" y2="76.000000"  style="stroke:black; stroke-linecap:round; stroke-width:0.25;"/>
<line x1="193.900000" y1="44.000000" x2="193.900000" y2="56.000000"  style="stroke:black; stroke-linecap:round; stroke-width:0.25;"/>
<line x1="193.900000" y1="56.000000" x2="193.900000" y2="56.000000"  style="stroke:black; stroke-linecap:round; stroke-width:0.25;"/>
<line x1="193.900000" y1="56.000000" x2="197.900000" y2="56.000000"  style="stroke:black; stroke-linecap:round; stroke-width:0.25;"/>
<line x1="193.900000" y1="64.000000" x2="197.900000" y2="64.000000"  style="stroke:black; stroke-linecap:round; stroke-width:0.25;"/>
<line x1="221.900000" y1="60.000000" x2="225.900000" y2="60.000000"  style="stroke:black; stroke-linecap:round; stroke-width:0.25;"/>
<line x1="225.900000" y1="24.000000" x2="233.900000" y2="24.000000"  style="stroke:black; stroke-linecap:round; stroke-width:0.25;"/>
<line x1="225.900000" y1="60.000000" x2="233.900000" y2="60.000000"  style="stroke:black; stroke-linecap:round; stroke-width:0.25;"/>
<line x1="233.900000" y1="24.000000" x2="233.900000" y2="52.000000"  style="stroke:black; stroke-linecap:round; stroke-width:0.25;"/>
<line x1="233.900000" y1="52.000000" x2="233.900000" y2="52.000000"  style="stroke:black; stroke-linecap:round; stroke-width:0.25;"/>
<line x1="233.900000" y1="52.000000" x2="237.900000" y2="52.000000"  style="stroke:black; stroke-linecap:round; stroke-width:0.25;"/>
<line x1="233.900000" y1="60.000000" x2="237.900000" y2="60.000000"  style="stroke:black; stroke-linecap:round; stroke-width:0.25;"/>
<line x1="261.900000" y1="56.000000" x2="265.900000" y2="56.000000"  style="stroke:black; stroke-linecap:round; stroke-width:0.25;"/>
<line x1="265.900000" y1="56.000000" x2="273.900000" y2="56.000000"  style="stroke:black; stroke-linecap:round; stroke-width:0.25;"/>
<line x1="273.900000" y1="56.000000" x2="273.900000" y2="80.000000"  style="stroke:black; stroke-linecap:round; stroke-width:0.25;"/>
<line x1="273.900000" y1="80.000000" x2="273.900000" y2="80.000000"  style="stroke:black; stroke-linecap:round; stroke-width:0.25;"/>
<line x1="273.900000" y1="80.000000" x2="281.900000" y2="80.000000"  style="stroke:black; stroke-linecap:round; stroke-width:0.25;"/>
<line x1="281.900000" y1="40.000000" x2="281.900000" y2="40.000000"  style="stroke:black; stroke-linecap:round; stroke-width:0.25;"/>
<line x1="281.900000" y1="40.000000" x2="281.900000" y2="72.000000"  style="stroke:black; stroke-linecap:round; stroke-width:0.25;"/>
<line x1="281.900000" y1="72.000000" x2="281.900000" y2="72.000000"  style="stroke:black; stroke-linecap:round; stroke-width:0.25;"/>
<line x1="281.900000" y1="72.000000" x2="360.850000" y2="72.000000"  style="stroke:black; stroke-linecap:round; stroke-width:0.25;"/>
<line x1="281.900000" y1="80.000000" x2="360.850000" y2="80.000000"  style="stroke:black; stroke-linecap:round; stroke-width:0.25;"/>
<line x1="285.900000" y1="40.000000" x2="281.900000" y2="40.000000"  style="stroke:black; stroke-linecap:round; stroke-width:0.25;"/>
<line x1="313.900000" y1="36.000000" x2="309.900000" y2="36.000000"  style="stroke:black; stroke-linecap:round; stroke-width:0.25;"/>
<line x1="313.900000" y1="44.000000" x2="309.900000" y2="44.000000"  style="stroke:black; stroke-linecap:round; stroke-width:0.25;"/>
<line x1="313.900000" y1="44.000000" x2="313.900000" y2="44.000000"  style="stroke:black; stroke-linecap:round; stroke-width:0.25;"/>
<line x1="313.900000" y1="56.000000" x2="313.900000" y2="44.000000"  style="stroke:black; stroke-linecap:round; stroke-width:0.25;"/>
<line x1="321.900000" y1="36.000000" x2="313.900000" y2="36.000000"  style="stroke:black; stroke-linecap:round; stroke-width:0.25;"/>
<line x1="321.900000" y1="56.000000" x2="313.900000" y2="56.000000"  style="stroke:black; stroke-linecap:round; stroke-width:0.25;"/>
<line x1="325.900000" y1="36.000000" x2="321.900000" y2="36.000000"  style="stroke:black; stroke-linecap:round; stroke-width:0.25;"/>
<line x1="360.850000" y1="72.000000" x2="364.850000" y2="72.000000"  style="stroke:black; stroke-linecap:round; stroke-width:0.25;"/>
<line x1="360.850000" y1="80.000000" x2="364.850000" y2="80.000000"  style="stroke:black; stroke-linecap:round; stroke-width:0.25;"/>
<line x1="388.850000" y1="76.000000" x2="392.850000" y2="76.000000"  style="stroke:black; stroke-linecap:round; stroke-width:0.25;"/>
<line x1="392.850000" y1="76.000000" x2="471.800000" y2="76.000000"  style="stroke:black; stroke-linecap:round; stroke-width:0.25;"/>
<line x1="396.850000" y1="56.000000" x2="321.900000" y2="56.000000"  style="stroke:black; stroke-linecap:round; stroke-width:0.25;"/>
<line x1="471.800000" y1="56.000000" x2="396.850000" y2="56.000000"  style="stroke:black; stroke-linecap:round; stroke-width:0.25;"/>
<line x1="471.800000" y1="56.000000" x2="471.800000" y2="56.000000"  style="stroke:black; stroke-linecap:round; stroke-width:0.25;"/>
<line x1="471.800000" y1="72.000000" x2="471.800000" y2="56.000000"  style="stroke:black; stroke-linecap:round; stroke-width:0.25;"/>
<line x1="471.800000" y1="76.000000" x2="473.800000" y2="76.000000"  style="stroke:black; stroke-linecap:round; stroke-width:0.25;"/>
<line x1="473.800000" y1="76.000000" x2="479.800000" y2="76.000000"  style="stroke:black; stroke-linecap:round; stroke-width:0.25;"/>
<line x1="479.800000" y1="56.000000" x2="487.800000" y2="56.000000"  style="stroke:black; stroke-linecap:round; stroke-width:0.25;"/>
<line x1="479.800000" y1="76.000000" x2="479.800000" y2="56.000000"  style="stroke:black; stroke-linecap:round; stroke-width:0.25;"/>
<line x1="479.800000" y1="76.000000" x2="479.800000" y2="76.000000"  style="stroke:black; stroke-linecap:round; stroke-width:0.25;"/>
<line x1="487.800000" y1="56.000000" x2="491.800000" y2="56.000000"  style="stroke:black; stroke-linecap:round; stroke-width:0.25;"/>
<line x1="491.800000" y1="56.000000" x2="495.800000" y2="56.000000"  style="stroke:black; stroke-linecap:round; stroke-width:0.25;"/>
<line x1="495.800000" y1="56.000000" x2="505.800000" y2="56.000000"  style="stroke:black; stroke-linecap:round; stroke-width:0.25;"/>
</svg>
