<?xml version="1.0"?>
<svg xmlns="http://www.w3.org/2000/svg" xmlns:xlink="http://www.w3.org/1999/xlink" viewBox="0 0 274.100000 152.000000" width="137.050000mm" height="76.000000mm" version="1.1">
<defs>
   <filter id="filter" filterRes="18" x="0" y="0">
     <feGaussianBlur in="SourceGraphic" stdDeviation="1.55" result="blur"/>
     <feOffset in="blur" dx="3" dy="3"/>
   </filter>
</defs>
<a xlink:href="amp-0x7f8f94bd1a00.svg">
<rect x="1.000000" y="1.000000" width="273.100000" height="151.000000" rx="0.1" ry="0.1" style="stroke:none;fill:#aaaaaa;;filter:url(#filter);"/>
<rect x="0.000000" y="0.000000" width="273.100000" height="151.000000" rx="0" ry="0" style="stroke:none;fill:#ffffff;"/>
</a>
<text x="10.000000" y="7.000000" font-family="Arial" font-size="7"></text>
<rect x="92.800000" y="33.000000" width="24.000000" height="24.000000" rx="0.1" ry="0.1" style="stroke:none;fill:#aaaaaa;;filter:url(#filter);"/>
<rect x="91.800000" y="32.000000" width="24.000000" height="24.000000" rx="0" ry="0" style="stroke:none;fill:#4B71A1;"/>
<text x="103.800000" y="46.000000" font-family="Arial" font-size="7" text-anchor="middle" fill="#FFFFFF">&gt;</text>
<circle cx="93.800000" cy="34.000000" r="1"/>
<line x1="88.800000" y1="39.000000" x2="91.800000" y2="40.000000"  transform="rotate(0.000000,91.800000,40.000000)" style="stroke: black; stroke-width:0.25;"/>
<line x1="88.800000" y1="41.000000" x2="91.800000" y2="40.000000"  transform="rotate(0.000000,91.800000,40.000000)" style="stroke: black; stroke-width:0.25;"/>
<line x1="88.800000" y1="47.000000" x2="91.800000" y2="48.000000"  transform="rotate(0.000000,91.800000,48.000000)" style="stroke: black; stroke-width:0.25;"/>
<line x1="88.800000" y1="49.000000" x2="91.800000" y2="48.000000"  transform="rotate(0.000000,91.800000,48.000000)" style="stroke: black; stroke-width:0.25;"/>
<a xlink:href="tau2pole-0x7f8f94b8c0d0.svg">
<rect x="79.000000" y="65.000000" width="51.600000" height="24.000000" rx="0.1" ry="0.1" style="stroke:none;fill:#aaaaaa;;filter:url(#filter);"/>
<rect x="78.000000" y="64.000000" width="51.600000" height="24.000000" rx="0" ry="0" style="stroke:none;fill:#003366;"/>
</a>
<a xlink:href="tau2pole-0x7f8f94b8c0d0.svg">
<text x="103.800000" y="78.000000" font-family="Arial" font-size="7" text-anchor="middle" fill="#FFFFFF">tau2pole(1)</text>
</a>
<circle cx="80.000000" cy="66.000000" r="1"/>
<a xlink:href="tau2pole-0x7f8f94b9b380.svg">
<rect x="79.000000" y="97.000000" width="51.600000" height="24.000000" rx="0.1" ry="0.1" style="stroke:none;fill:#aaaaaa;;filter:url(#filter);"/>
<rect x="78.000000" y="96.000000" width="51.600000" height="24.000000" rx="0" ry="0" style="stroke:none;fill:#003366;"/>
</a>
<a xlink:href="tau2pole-0x7f8f94b9b380.svg">
<text x="103.800000" y="110.000000" font-family="Arial" font-size="7" text-anchor="middle" fill="#FFFFFF">tau2pole(3)</text>
</a>
<circle cx="80.000000" cy="98.000000" r="1"/>
<rect x="146.600000" y="65.000000" width="38.700000" height="24.000000" rx="0.1" ry="0.1" style="stroke:none;fill:#aaaaaa;;filter:url(#filter);"/>
<rect x="145.600000" y="64.000000" width="38.700000" height="24.000000" rx="0" ry="0" style="stroke:none;fill:#4B71A1;"/>
<text x="164.950000" y="78.000000" font-family="Arial" font-size="7" text-anchor="middle" fill="#FFFFFF">select2</text>
<circle cx="147.600000" cy="66.000000" r="1"/>
<line x1="142.600000" y1="67.000000" x2="145.600000" y2="68.000000"  transform="rotate(0.000000,145.600000,68.000000)" style="stroke: black; stroke-width:0.25;"/>
<line x1="142.600000" y1="69.000000" x2="145.600000" y2="68.000000"  transform="rotate(0.000000,145.600000,68.000000)" style="stroke: black; stroke-width:0.25;"/>
<line x1="142.600000" y1="75.000000" x2="145.600000" y2="76.000000"  transform="rotate(0.000000,145.600000,76.000000)" style="stroke: black; stroke-width:0.25;"/>
<line x1="142.600000" y1="77.000000" x2="145.600000" y2="76.000000"  transform="rotate(0.000000,145.600000,76.000000)" style="stroke: black; stroke-width:0.25;"/>
<line x1="142.600000" y1="83.000000" x2="145.600000" y2="84.000000"  transform="rotate(0.000000,145.600000,84.000000)" style="stroke: black; stroke-width:0.25;"/>
<line x1="142.600000" y1="85.000000" x2="145.600000" y2="84.000000"  transform="rotate(0.000000,145.600000,84.000000)" style="stroke: black; stroke-width:0.25;"/>
<a xlink:href="smooth-0x7f8f94bd1640.svg">
<rect x="201.300000" y="69.000000" width="25.800000" height="24.000000" rx="0.1" ry="0.1" style="stroke:none;fill:#aaaaaa;;filter:url(#filter);"/>
<rect x="200.300000" y="68.000000" width="25.800000" height="24.000000" rx="0" ry="0" style="stroke:none;fill:#003366;"/>
</a>
<a xlink:href="smooth-0x7f8f94bd1640.svg">
<text x="213.200000" y="82.000000" font-family="Arial" font-size="7" text-anchor="middle" fill="#FFFFFF">smooth</text>
</a>
<circle cx="202.300000" cy="70.000000" r="1"/>
<line x1="197.300000" y1="75.000000" x2="200.300000" y2="76.000000"  transform="rotate(0.000000,200.300000,76.000000)" style="stroke: black; stroke-width:0.25;"/>
<line x1="197.300000" y1="77.000000" x2="200.300000" y2="76.000000"  transform="rotate(0.000000,200.300000,76.000000)" style="stroke: black; stroke-width:0.25;"/>
<line x1="197.300000" y1="83.000000" x2="200.300000" y2="84.000000"  transform="rotate(0.000000,200.300000,84.000000)" style="stroke: black; stroke-width:0.25;"/>
<line x1="197.300000" y1="85.000000" x2="200.300000" y2="84.000000"  transform="rotate(0.000000,200.300000,84.000000)" style="stroke: black; stroke-width:0.25;"/>
<line x1="228.100000" y1="80.000000" x2="228.100000" y2="76.000000"  style="stroke:black; stroke-linecap:round; stroke-width:0.25;"/>
<line x1="228.100000" y1="76.000000" x2="232.100000" y2="76.000000"  style="stroke:black; stroke-linecap:round; stroke-width:0.25;"/>
<line x1="232.100000" y1="76.000000" x2="232.100000" y2="80.000000"  style="stroke:black; stroke-linecap:round; stroke-width:0.25;"/>
<line x1="15.000000" y1="15.000000" x2="15.000000" y2="137.000000"  style="stroke: black; stroke-linecap:round; stroke-width:0.25; stroke-dasharray:3,3;"/>
<line x1="15.000000" y1="137.000000" x2="259.100000" y2="137.000000"  style="stroke: black; stroke-linecap:round; stroke-width:0.25; stroke-dasharray:3,3;"/>
<line x1="259.100000" y1="137.000000" x2="259.100000" y2="15.000000"  style="stroke: black; stroke-linecap:round; stroke-width:0.25; stroke-dasharray:3,3;"/>
<line x1="15.000000" y1="15.000000" x2="20.000000" y2="15.000000"  style="stroke: black; stroke-linecap:round; stroke-width:0.25; stroke-dasharray:3,3;"/>
<line x1="65.150000" y1="15.000000" x2="259.100000" y2="15.000000"  style="stroke: black; stroke-linecap:round; stroke-width:0.25; stroke-dasharray:3,3;"/>
<text x="20.000000" y="17.000000" font-family="Arial" font-size="7">lag_ud(1)(3)</text>
<line x1="261.100000" y1="75.000000" x2="264.100000" y2="76.000000"  transform="rotate(0.000000,264.100000,76.000000)" style="stroke: black; stroke-width:0.25;"/>
<line x1="261.100000" y1="77.000000" x2="264.100000" y2="76.000000"  transform="rotate(0.000000,264.100000,76.000000)" style="stroke: black; stroke-width:0.25;"/>
<line x1="10.000000" y1="76.000000" x2="20.000000" y2="76.000000"  style="stroke:black; stroke-linecap:round; stroke-width:0.25;"/>
<line x1="20.000000" y1="76.000000" x2="24.000000" y2="76.000000"  style="stroke:black; stroke-linecap:round; stroke-width:0.25;"/>
<line x1="24.000000" y1="76.000000" x2="28.000000" y2="76.000000"  style="stroke:black; stroke-linecap:round; stroke-width:0.25;"/>
<line x1="28.000000" y1="76.000000" x2="28.000000" y2="76.000000"  style="stroke:black; stroke-linecap:round; stroke-width:0.25;"/>
<line x1="28.000000" y1="76.000000" x2="32.000000" y2="76.000000"  style="stroke:black; stroke-linecap:round; stroke-width:0.25;"/>
<line x1="32.000000" y1="76.000000" x2="36.000000" y2="76.000000"  style="stroke:black; stroke-linecap:round; stroke-width:0.25;"/>
<line x1="36.000000" y1="76.000000" x2="66.000000" y2="128.000000"  style="stroke:black; stroke-linecap:round; stroke-width:0.25;"/>
<line x1="36.000000" y1="76.000000" x2="66.000000" y2="48.000000"  style="stroke:black; stroke-linecap:round; stroke-width:0.25;"/>
<line x1="66.000000" y1="128.000000" x2="74.000000" y2="128.000000"  style="stroke:black; stroke-linecap:round; stroke-width:0.25;"/>
<line x1="66.000000" y1="48.000000" x2="74.000000" y2="48.000000"  style="stroke:black; stroke-linecap:round; stroke-width:0.25;"/>
<line x1="74.000000" y1="128.000000" x2="131.150000" y2="128.000000"  style="stroke:black; stroke-linecap:round; stroke-width:0.25;"/>
<line x1="74.000000" y1="24.000000" x2="74.000000" y2="24.000000"  style="stroke:black; stroke-linecap:round; stroke-width:0.25;"/>
<line x1="74.000000" y1="24.000000" x2="74.000000" y2="40.000000"  style="stroke:black; stroke-linecap:round; stroke-width:0.25;"/>
<line x1="74.000000" y1="40.000000" x2="74.000000" y2="40.000000"  style="stroke:black; stroke-linecap:round; stroke-width:0.25;"/>
<line x1="74.000000" y1="40.000000" x2="87.800000" y2="40.000000"  style="stroke:black; stroke-linecap:round; stroke-width:0.25;"/>
<line x1="74.000000" y1="48.000000" x2="87.800000" y2="48.000000"  style="stroke:black; stroke-linecap:round; stroke-width:0.25;"/>
<line x1="87.800000" y1="40.000000" x2="91.800000" y2="40.000000"  style="stroke:black; stroke-linecap:round; stroke-width:0.25;"/>
<line x1="87.800000" y1="48.000000" x2="91.800000" y2="48.000000"  style="stroke:black; stroke-linecap:round; stroke-width:0.25;"/>
<line x1="115.800000" y1="44.000000" x2="119.800000" y2="44.000000"  style="stroke:black; stroke-linecap:round; stroke-width:0.25;"/>
<line x1="119.800000" y1="44.000000" x2="133.600000" y2="44.000000"  style="stroke:black; stroke-linecap:round; stroke-width:0.25;"/>
<line x1="129.600000" y1="76.000000" x2="133.600000" y2="76.000000"  style="stroke:black; stroke-linecap:round; stroke-width:0.25;"/>
<line x1="129.600000" y1="108.000000" x2="133.600000" y2="108.000000"  style="stroke:black; stroke-linecap:round; stroke-width:0.25;"/>
<line x1="131.150000" y1="128.000000" x2="188.300000" y2="128.000000"  style="stroke:black; stroke-linecap:round; stroke-width:0.25;"/>
<line x1="133.600000" y1="44.000000" x2="141.600000" y2="44.000000"  style="stroke:black; stroke-linecap:round; stroke-width:0.25;"/>
<line x1="133.600000" y1="76.000000" x2="141.600000" y2="76.000000"  style="stroke:black; stroke-linecap:round; stroke-width:0.25;"/>
<line x1="133.600000" y1="84.000000" x2="141.600000" y2="84.000000"  style="stroke:black; stroke-linecap:round; stroke-width:0.25;"/>
<line x1="133.600000" y1="108.000000" x2="133.600000" y2="84.000000"  style="stroke:black; stroke-linecap:round; stroke-width:0.25;"/>
<line x1="133.600000" y1="108.000000" x2="133.600000" y2="108.000000"  style="stroke:black; stroke-linecap:round; stroke-width:0.25;"/>
<line x1="141.600000" y1="44.000000" x2="141.600000" y2="68.000000"  style="stroke:black; stroke-linecap:round; stroke-width:0.25;"/>
<line x1="141.600000" y1="68.000000" x2="141.600000" y2="68.000000"  style="stroke:black; stroke-linecap:round; stroke-width:0.25;"/>
<line x1="141.600000" y1="68.000000" x2="145.600000" y2="68.000000"  style="stroke:black; stroke-linecap:round; stroke-width:0.25;"/>
<line x1="141.600000" y1="76.000000" x2="145.600000" y2="76.000000"  style="stroke:black; stroke-linecap:round; stroke-width:0.25;"/>
<line x1="141.600000" y1="84.000000" x2="145.600000" y2="84.000000"  style="stroke:black; stroke-linecap:round; stroke-width:0.25;"/>
<line x1="152.050000" y1="24.000000" x2="74.000000" y2="24.000000"  style="stroke:black; stroke-linecap:round; stroke-width:0.25;"/>
<line x1="184.300000" y1="76.000000" x2="188.300000" y2="76.000000"  style="stroke:black; stroke-linecap:round; stroke-width:0.25;"/>
<line x1="188.300000" y1="84.000000" x2="196.300000" y2="84.000000"  style="stroke:black; stroke-linecap:round; stroke-width:0.25;"/>
<line x1="188.300000" y1="128.000000" x2="188.300000" y2="84.000000"  style="stroke:black; stroke-linecap:round; stroke-width:0.25;"/>
<line x1="188.300000" y1="128.000000" x2="188.300000" y2="128.000000"  style="stroke:black; stroke-linecap:round; stroke-width:0.25;"/>
<line x1="188.300000" y1="76.000000" x2="196.300000" y2="76.000000"  style="stroke:black; stroke-linecap:round; stroke-width:0.25;"/>
<line x1="196.300000" y1="76.000000" x2="200.300000" y2="76.000000"  style="stroke:black; stroke-linecap:round; stroke-width:0.25;"/>
<line x1="196.300000" y1="84.000000" x2="200.300000" y2="84.000000"  style="stroke:black; stroke-linecap:round; stroke-width:0.25;"/>
<line x1="226.100000" y1="80.000000" x2="230.100000" y2="80.000000"  style="stroke:black; stroke-linecap:round; stroke-width:0.25;"/>
<line x1="230.100000" y1="24.000000" x2="152.050000" y2="24.000000"  style="stroke:black; stroke-linecap:round; stroke-width:0.25;"/>
<line x1="230.100000" y1="24.000000" x2="230.100000" y2="24.000000"  style="stroke:black; stroke-linecap:round; stroke-width:0.25;"/>
<line x1="230.100000" y1="76.000000" x2="230.100000" y2="24.000000"  style="stroke:black; stroke-linecap:round; stroke-width:0.25;"/>
<line x1="230.100000" y1="80.000000" x2="232.100000" y2="80.000000"  style="stroke:black; stroke-linecap:round; stroke-width:0.25;"/>
<line x1="232.100000" y1="80.000000" x2="238.100000" y2="80.000000"  style="stroke:black; stroke-linecap:round; stroke-width:0.25;"/>
<line x1="238.100000" y1="76.000000" x2="246.100000" y2="76.000000"  style="stroke:black; stroke-linecap:round; stroke-width:0.25;"/>
<line x1="238.100000" y1="80.000000" x2="238.100000" y2="76.000000"  style="stroke:black; stroke-linecap:round; stroke-width:0.25;"/>
<line x1="238.100000" y1="80.000000" x2="238.100000" y2="80.000000"  style="stroke:black; stroke-linecap:round; stroke-width:0.25;"/>
<line x1="246.100000" y1="76.000000" x2="250.100000" y2="76.000000"  style="stroke:black; stroke-linecap:round; stroke-width:0.25;"/>
<line x1="250.100000" y1="76.000000" x2="254.100000" y2="76.000000"  style="stroke:black; stroke-linecap:round; stroke-width:0.25;"/>
<line x1="254.100000" y1="76.000000" x2="264.100000" y2="76.000000"  style="stroke:black; stroke-linecap:round; stroke-width:0.25;"/>
</svg>
