<?xml version="1.0"?>
<svg xmlns="http://www.w3.org/2000/svg" xmlns:xlink="http://www.w3.org/1999/xlink" viewBox="0 0 355.800000 72.000000" width="177.900000mm" height="36.000000mm" version="1.1">
<defs>
   <filter id="filter" filterRes="18" x="0" y="0">
     <feGaussianBlur in="SourceGraphic" stdDeviation="1.55" result="blur"/>
     <feOffset in="blur" dx="3" dy="3"/>
   </filter>
</defs>
<a xlink:href="lfnoiseN-0x7f8f92edb120.svg">
<rect x="1.000000" y="1.000000" width="354.800000" height="71.000000" rx="0.1" ry="0.1" style="stroke:none;fill:#aaaaaa;;filter:url(#filter);"/>
<rect x="0.000000" y="0.000000" width="354.800000" height="71.000000" rx="0" ry="0" style="stroke:none;fill:#ffffff;"/>
</a>
<text x="10.000000" y="7.000000" font-family="Arial" font-size="7"></text>
<a xlink:href="tf1s-0x7f8f91be6a80.svg">
<rect x="33.000000" y="25.000000" width="154.800000" height="24.000000" rx="0.1" ry="0.1" style="stroke:none;fill:#aaaaaa;;filter:url(#filter);"/>
<rect x="32.000000" y="24.000000" width="154.800000" height="24.000000" rx="0" ry="0" style="stroke:none;fill:#003366;"/>
</a>
<a xlink:href="tf1s-0x7f8f91be6a80.svg">
<text x="109.400000" y="38.000000" font-family="Arial" font-size="7" text-anchor="middle" fill="#FFFFFF">tf1s(0)(1)(1)(62.831853071795862f)</text>
</a>
<circle cx="34.000000" cy="26.000000" r="1"/>
<line x1="29.000000" y1="35.000000" x2="32.000000" y2="36.000000"  transform="rotate(0.000000,32.000000,36.000000)" style="stroke: black; stroke-width:0.25;"/>
<line x1="29.000000" y1="37.000000" x2="32.000000" y2="36.000000"  transform="rotate(0.000000,32.000000,36.000000)" style="stroke: black; stroke-width:0.25;"/>
<a xlink:href="tf2s-0x7f8f92edaf00.svg">
<rect x="195.800000" y="25.000000" width="129.000000" height="24.000000" rx="0.1" ry="0.1" style="stroke:none;fill:#aaaaaa;;filter:url(#filter);"/>
<rect x="194.800000" y="24.000000" width="129.000000" height="24.000000" rx="0" ry="0" style="stroke:none;fill:#003366;"/>
</a>
<a xlink:href="tf2s-0x7f8f92edaf00.svg">
<text x="259.300000" y="38.000000" font-family="Arial" font-size="7" text-anchor="middle" fill="#FFFFFF">tf2s(0)(0)(1)...53071795862f)</text>
</a>
<circle cx="196.800000" cy="26.000000" r="1"/>
<line x1="191.800000" y1="35.000000" x2="194.800000" y2="36.000000"  transform="rotate(0.000000,194.800000,36.000000)" style="stroke: black; stroke-width:0.25;"/>
<line x1="191.800000" y1="37.000000" x2="194.800000" y2="36.000000"  transform="rotate(0.000000,194.800000,36.000000)" style="stroke: black; stroke-width:0.25;"/>
<line x1="15.000000" y1="15.000000" x2="15.000000" y2="57.000000"  style="stroke: black; stroke-linecap:round; stroke-width:0.25; stroke-dasharray:3,3;"/>
<line x1="15.000000" y1="57.000000" x2="340.800000" y2="57.000000"  style="stroke: black; stroke-linecap:round; stroke-width:0.25; stroke-dasharray:3,3;"/>
<line x1="340.800000" y1="57.000000" x2="340.800000" y2="15.000000"  style="stroke: black; stroke-linecap:round; stroke-width:0.25; stroke-dasharray:3,3;"/>
<line x1="15.000000" y1="15.000000" x2="20.000000" y2="15.000000"  style="stroke: black; stroke-linecap:round; stroke-width:0.25; stroke-dasharray:3,3;"/>
<line x1="71.600000" y1="15.000000" x2="340.800000" y2="15.000000"  style="stroke: black; stroke-linecap:round; stroke-width:0.25; stroke-dasharray:3,3;"/>
<text x="20.000000" y="17.000000" font-family="Arial" font-size="7">lowpass(3)(10)</text>
<line x1="342.800000" y1="35.000000" x2="345.800000" y2="36.000000"  transform="rotate(0.000000,345.800000,36.000000)" style="stroke: black; stroke-width:0.25;"/>
<line x1="342.800000" y1="37.000000" x2="345.800000" y2="36.000000"  transform="rotate(0.000000,345.800000,36.000000)" style="stroke: black; stroke-width:0.25;"/>
<line x1="10.000000" y1="36.000000" x2="20.000000" y2="36.000000"  style="stroke:black; stroke-linecap:round; stroke-width:0.25;"/>
<line x1="20.000000" y1="36.000000" x2="24.000000" y2="36.000000"  style="stroke:black; stroke-linecap:round; stroke-width:0.25;"/>
<line x1="24.000000" y1="36.000000" x2="28.000000" y2="36.000000"  style="stroke:black; stroke-linecap:round; stroke-width:0.25;"/>
<line x1="28.000000" y1="36.000000" x2="28.000000" y2="36.000000"  style="stroke:black; stroke-linecap:round; stroke-width:0.25;"/>
<line x1="28.000000" y1="36.000000" x2="32.000000" y2="36.000000"  style="stroke:black; stroke-linecap:round; stroke-width:0.25;"/>
<line x1="186.800000" y1="36.000000" x2="190.800000" y2="36.000000"  style="stroke:black; stroke-linecap:round; stroke-width:0.25;"/>
<line x1="190.800000" y1="36.000000" x2="190.800000" y2="36.000000"  style="stroke:black; stroke-linecap:round; stroke-width:0.25;"/>
<line x1="190.800000" y1="36.000000" x2="194.800000" y2="36.000000"  style="stroke:black; stroke-linecap:round; stroke-width:0.25;"/>
<line x1="323.800000" y1="36.000000" x2="327.800000" y2="36.000000"  style="stroke:black; stroke-linecap:round; stroke-width:0.25;"/>
<line x1="327.800000" y1="36.000000" x2="327.800000" y2="36.000000"  style="stroke:black; stroke-linecap:round; stroke-width:0.25;"/>
<line x1="327.800000" y1="36.000000" x2="331.800000" y2="36.000000"  style="stroke:black; stroke-linecap:round; stroke-width:0.25;"/>
<line x1="331.800000" y1="36.000000" x2="335.800000" y2="36.000000"  style="stroke:black; stroke-linecap:round; stroke-width:0.25;"/>
<line x1="335.800000" y1="36.000000" x2="345.800000" y2="36.000000"  style="stroke:black; stroke-linecap:round; stroke-width:0.25;"/>
</svg>
