<?xml version="1.0"?>
<svg xmlns="http://www.w3.org/2000/svg" xmlns:xlink="http://www.w3.org/1999/xlink" viewBox="0 0 815.500000 164.000000" width="407.750000mm" height="82.000000mm" version="1.1">
<defs>
   <filter id="filter" filterRes="18" x="0" y="0">
     <feGaussianBlur in="SourceGraphic" stdDeviation="1.55" result="blur"/>
     <feOffset in="blur" dx="3" dy="3"/>
   </filter>
</defs>
<a xlink:href="delay-0x7f8f8fedc510.svg">
<rect x="1.000000" y="1.000000" width="814.500000" height="163.000000" rx="0.1" ry="0.1" style="stroke:none;fill:#aaaaaa;;filter:url(#filter);"/>
<rect x="0.000000" y="0.000000" width="814.500000" height="163.000000" rx="0" ry="0" style="stroke:none;fill:#ffffff;"/>
</a>
<text x="10.000000" y="7.000000" font-family="Arial" font-size="7"></text>
<rect x="25.000000" y="71.000000" width="258.000000" height="24.000000" rx="0.1" ry="0.1" style="stroke:none;fill:#aaaaaa;;filter:url(#filter);"/>
<rect x="24.000000" y="70.000000" width="258.000000" height="24.000000" rx="0" ry="0" style="stroke:none;fill:#477881;"/>
<text x="153.000000" y="84.000000" font-family="Arial" font-size="7" text-anchor="middle" fill="#FFFFFF">hslider(modulate, 0.20000000000000001f, 0.0f, 1.0f, 0.01f)</text>
<circle cx="26.000000" cy="72.000000" r="1"/>
<a xlink:href="lfnoiseN-0x7f8f91aef4d0.svg">
<rect x="299.000000" y="33.000000" width="64.500000" height="24.000000" rx="0.1" ry="0.1" style="stroke:none;fill:#aaaaaa;;filter:url(#filter);"/>
<rect x="298.000000" y="32.000000" width="64.500000" height="24.000000" rx="0" ry="0" style="stroke:none;fill:#003366;"/>
</a>
<a xlink:href="lfnoiseN-0x7f8f91aef4d0.svg">
<text x="330.250000" y="46.000000" font-family="Arial" font-size="7" text-anchor="middle" fill="#FFFFFF">lfnoiseN(3)(10)</text>
</a>
<circle cx="300.000000" cy="34.000000" r="1"/>
<rect x="319.250000" y="75.000000" width="24.000000" height="24.000000" rx="0.1" ry="0.1" style="stroke:none;fill:#aaaaaa;;filter:url(#filter);"/>
<rect x="318.250000" y="74.000000" width="24.000000" height="24.000000" rx="0" ry="0" style="stroke:none;fill:#f44800;"/>
<text x="330.250000" y="88.000000" font-family="Arial" font-size="7" text-anchor="middle" fill="#FFFFFF">1</text>
<circle cx="320.250000" cy="76.000000" r="1"/>
<line x1="309.250000" y1="65.000000" x2="309.250000" y2="107.000000"  style="stroke: black; stroke-linecap:round; stroke-width:0.25; stroke-dasharray:3,3;"/>
<line x1="309.250000" y1="107.000000" x2="351.250000" y2="107.000000"  style="stroke: black; stroke-linecap:round; stroke-width:0.25; stroke-dasharray:3,3;"/>
<line x1="351.250000" y1="107.000000" x2="351.250000" y2="65.000000"  style="stroke: black; stroke-linecap:round; stroke-width:0.25; stroke-dasharray:3,3;"/>
<line x1="309.250000" y1="65.000000" x2="314.250000" y2="65.000000"  style="stroke: black; stroke-linecap:round; stroke-width:0.25; stroke-dasharray:3,3;"/>
<line x1="323.925000" y1="65.000000" x2="351.250000" y2="65.000000"  style="stroke: black; stroke-linecap:round; stroke-width:0.25; stroke-dasharray:3,3;"/>
<text x="314.250000" y="67.000000" font-family="Arial" font-size="7">S</text>
<rect x="379.500000" y="59.000000" width="24.000000" height="24.000000" rx="0.1" ry="0.1" style="stroke:none;fill:#aaaaaa;;filter:url(#filter);"/>
<rect x="378.500000" y="58.000000" width="24.000000" height="24.000000" rx="0" ry="0" style="stroke:none;fill:#4B71A1;"/>
<text x="390.500000" y="72.000000" font-family="Arial" font-size="7" text-anchor="middle" fill="#FFFFFF">+</text>
<circle cx="380.500000" cy="60.000000" r="1"/>
<line x1="375.500000" y1="65.000000" x2="378.500000" y2="66.000000"  transform="rotate(0.000000,378.500000,66.000000)" style="stroke: black; stroke-width:0.25;"/>
<line x1="375.500000" y1="67.000000" x2="378.500000" y2="66.000000"  transform="rotate(0.000000,378.500000,66.000000)" style="stroke: black; stroke-width:0.25;"/>
<line x1="375.500000" y1="73.000000" x2="378.500000" y2="74.000000"  transform="rotate(0.000000,378.500000,74.000000)" style="stroke: black; stroke-width:0.25;"/>
<line x1="375.500000" y1="75.000000" x2="378.500000" y2="74.000000"  transform="rotate(0.000000,378.500000,74.000000)" style="stroke: black; stroke-width:0.25;"/>
<rect x="339.250000" y="117.000000" width="24.000000" height="24.000000" rx="0.1" ry="0.1" style="stroke:none;fill:#aaaaaa;;filter:url(#filter);"/>
<rect x="338.250000" y="116.000000" width="24.000000" height="24.000000" rx="0" ry="0" style="stroke:none;fill:#f44800;"/>
<text x="350.250000" y="130.000000" font-family="Arial" font-size="7" text-anchor="middle" fill="#FFFFFF">2</text>
<circle cx="340.250000" cy="118.000000" r="1"/>
<rect x="419.500000" y="75.000000" width="24.000000" height="24.000000" rx="0.1" ry="0.1" style="stroke:none;fill:#aaaaaa;;filter:url(#filter);"/>
<rect x="418.500000" y="74.000000" width="24.000000" height="24.000000" rx="0" ry="0" style="stroke:none;fill:#4B71A1;"/>
<text x="430.500000" y="88.000000" font-family="Arial" font-size="7" text-anchor="middle" fill="#FFFFFF">/</text>
<circle cx="420.500000" cy="76.000000" r="1"/>
<line x1="415.500000" y1="81.000000" x2="418.500000" y2="82.000000"  transform="rotate(0.000000,418.500000,82.000000)" style="stroke: black; stroke-width:0.25;"/>
<line x1="415.500000" y1="83.000000" x2="418.500000" y2="82.000000"  transform="rotate(0.000000,418.500000,82.000000)" style="stroke: black; stroke-width:0.25;"/>
<line x1="415.500000" y1="89.000000" x2="418.500000" y2="90.000000"  transform="rotate(0.000000,418.500000,90.000000)" style="stroke: black; stroke-width:0.25;"/>
<line x1="415.500000" y1="91.000000" x2="418.500000" y2="90.000000"  transform="rotate(0.000000,418.500000,90.000000)" style="stroke: black; stroke-width:0.25;"/>
<rect x="459.500000" y="71.000000" width="24.000000" height="24.000000" rx="0.1" ry="0.1" style="stroke:none;fill:#aaaaaa;;filter:url(#filter);"/>
<rect x="458.500000" y="70.000000" width="24.000000" height="24.000000" rx="0" ry="0" style="stroke:none;fill:#4B71A1;"/>
<text x="470.500000" y="84.000000" font-family="Arial" font-size="7" text-anchor="middle" fill="#FFFFFF">*</text>
<circle cx="460.500000" cy="72.000000" r="1"/>
<line x1="455.500000" y1="77.000000" x2="458.500000" y2="78.000000"  transform="rotate(0.000000,458.500000,78.000000)" style="stroke: black; stroke-width:0.25;"/>
<line x1="455.500000" y1="79.000000" x2="458.500000" y2="78.000000"  transform="rotate(0.000000,458.500000,78.000000)" style="stroke: black; stroke-width:0.25;"/>
<line x1="455.500000" y1="85.000000" x2="458.500000" y2="86.000000"  transform="rotate(0.000000,458.500000,86.000000)" style="stroke: black; stroke-width:0.25;"/>
<line x1="455.500000" y1="87.000000" x2="458.500000" y2="86.000000"  transform="rotate(0.000000,458.500000,86.000000)" style="stroke: black; stroke-width:0.25;"/>
<rect x="499.500000" y="75.000000" width="24.000000" height="24.000000" rx="0.1" ry="0.1" style="stroke:none;fill:#aaaaaa;;filter:url(#filter);"/>
<rect x="498.500000" y="74.000000" width="24.000000" height="24.000000" rx="0" ry="0" style="stroke:none;fill:#f44800;"/>
<text x="510.500000" y="88.000000" font-family="Arial" font-size="7" text-anchor="middle" fill="#FFFFFF">50</text>
<circle cx="500.500000" cy="76.000000" r="1"/>
<rect x="539.500000" y="71.000000" width="24.000000" height="24.000000" rx="0.1" ry="0.1" style="stroke:none;fill:#aaaaaa;;filter:url(#filter);"/>
<rect x="538.500000" y="70.000000" width="24.000000" height="24.000000" rx="0" ry="0" style="stroke:none;fill:#4B71A1;"/>
<text x="550.500000" y="84.000000" font-family="Arial" font-size="7" text-anchor="middle" fill="#FFFFFF">*</text>
<circle cx="540.500000" cy="72.000000" r="1"/>
<line x1="535.500000" y1="77.000000" x2="538.500000" y2="78.000000"  transform="rotate(0.000000,538.500000,78.000000)" style="stroke: black; stroke-width:0.25;"/>
<line x1="535.500000" y1="79.000000" x2="538.500000" y2="78.000000"  transform="rotate(0.000000,538.500000,78.000000)" style="stroke: black; stroke-width:0.25;"/>
<line x1="535.500000" y1="85.000000" x2="538.500000" y2="86.000000"  transform="rotate(0.000000,538.500000,86.000000)" style="stroke: black; stroke-width:0.25;"/>
<line x1="535.500000" y1="87.000000" x2="538.500000" y2="86.000000"  transform="rotate(0.000000,538.500000,86.000000)" style="stroke: black; stroke-width:0.25;"/>
<rect x="597.500000" y="59.000000" width="24.000000" height="24.000000" rx="0.1" ry="0.1" style="stroke:none;fill:#aaaaaa;;filter:url(#filter);"/>
<rect x="596.500000" y="58.000000" width="24.000000" height="24.000000" rx="0" ry="0" style="stroke:none;fill:#47945E;"/>
<text x="608.500000" y="72.000000" font-family="Arial" font-size="7" text-anchor="middle" fill="#FFFFFF">y</text>
<circle cx="598.500000" cy="60.000000" r="1"/>
<line x1="593.500000" y1="69.000000" x2="596.500000" y2="70.000000"  transform="rotate(0.000000,596.500000,70.000000)" style="stroke: black; stroke-width:0.25;"/>
<line x1="593.500000" y1="71.000000" x2="596.500000" y2="70.000000"  transform="rotate(0.000000,596.500000,70.000000)" style="stroke: black; stroke-width:0.25;"/>
<rect x="597.500000" y="91.000000" width="24.000000" height="24.000000" rx="0.1" ry="0.1" style="stroke:none;fill:#aaaaaa;;filter:url(#filter);"/>
<rect x="596.500000" y="90.000000" width="24.000000" height="24.000000" rx="0" ry="0" style="stroke:none;fill:#47945E;"/>
<text x="608.500000" y="104.000000" font-family="Arial" font-size="7" text-anchor="middle" fill="#FFFFFF">x</text>
<circle cx="598.500000" cy="92.000000" r="1"/>
<line x1="593.500000" y1="101.000000" x2="596.500000" y2="102.000000"  transform="rotate(0.000000,596.500000,102.000000)" style="stroke: black; stroke-width:0.25;"/>
<line x1="593.500000" y1="103.000000" x2="596.500000" y2="102.000000"  transform="rotate(0.000000,596.500000,102.000000)" style="stroke: black; stroke-width:0.25;"/>
<a xlink:href="if-0x7f8f91f00d80.svg">
<rect x="629.500000" y="75.000000" width="129.000000" height="24.000000" rx="0.1" ry="0.1" style="stroke:none;fill:#aaaaaa;;filter:url(#filter);"/>
<rect x="628.500000" y="74.000000" width="129.000000" height="24.000000" rx="0" ry="0" style="stroke:none;fill:#003366;"/>
</a>
<a xlink:href="if-0x7f8f91f00d80.svg">
<text x="693.000000" y="88.000000" font-family="Arial" font-size="7" text-anchor="middle" fill="#FFFFFF">if((x48,0.001...-) : select2)</text>
</a>
<circle cx="630.500000" cy="76.000000" r="1"/>
<line x1="587.500000" y1="49.000000" x2="587.500000" y2="123.000000"  style="stroke: black; stroke-linecap:round; stroke-width:0.25; stroke-dasharray:3,3;"/>
<line x1="587.500000" y1="123.000000" x2="766.500000" y2="123.000000"  style="stroke: black; stroke-linecap:round; stroke-width:0.25; stroke-dasharray:3,3;"/>
<line x1="766.500000" y1="123.000000" x2="766.500000" y2="49.000000"  style="stroke: black; stroke-linecap:round; stroke-width:0.25; stroke-dasharray:3,3;"/>
<line x1="587.500000" y1="49.000000" x2="592.500000" y2="49.000000"  style="stroke: black; stroke-linecap:round; stroke-width:0.25; stroke-dasharray:3,3;"/>
<line x1="634.425000" y1="49.000000" x2="766.500000" y2="49.000000"  style="stroke: black; stroke-linecap:round; stroke-width:0.25; stroke-dasharray:3,3;"/>
<text x="592.500000" y="51.000000" font-family="Arial" font-size="7">Abstraction</text>
<line x1="769.500000" y1="86.000000" x2="769.500000" y2="82.000000"  style="stroke:black; stroke-linecap:round; stroke-width:0.25;"/>
<line x1="769.500000" y1="82.000000" x2="773.500000" y2="82.000000"  style="stroke:black; stroke-linecap:round; stroke-width:0.25;"/>
<line x1="773.500000" y1="82.000000" x2="773.500000" y2="86.000000"  style="stroke:black; stroke-linecap:round; stroke-width:0.25;"/>
<line x1="15.000000" y1="15.000000" x2="15.000000" y2="149.000000"  style="stroke: black; stroke-linecap:round; stroke-width:0.25; stroke-dasharray:3,3;"/>
<line x1="15.000000" y1="149.000000" x2="800.500000" y2="149.000000"  style="stroke: black; stroke-linecap:round; stroke-width:0.25; stroke-dasharray:3,3;"/>
<line x1="800.500000" y1="149.000000" x2="800.500000" y2="15.000000"  style="stroke: black; stroke-linecap:round; stroke-width:0.25; stroke-dasharray:3,3;"/>
<line x1="15.000000" y1="15.000000" x2="20.000000" y2="15.000000"  style="stroke: black; stroke-linecap:round; stroke-width:0.25; stroke-dasharray:3,3;"/>
<line x1="36.125000" y1="15.000000" x2="800.500000" y2="15.000000"  style="stroke: black; stroke-linecap:round; stroke-width:0.25; stroke-dasharray:3,3;"/>
<text x="20.000000" y="17.000000" font-family="Arial" font-size="7">mod</text>
<line x1="802.500000" y1="81.000000" x2="805.500000" y2="82.000000"  transform="rotate(0.000000,805.500000,82.000000)" style="stroke: black; stroke-width:0.25;"/>
<line x1="802.500000" y1="83.000000" x2="805.500000" y2="82.000000"  transform="rotate(0.000000,805.500000,82.000000)" style="stroke: black; stroke-width:0.25;"/>
<line x1="282.000000" y1="82.000000" x2="286.000000" y2="82.000000"  style="stroke:black; stroke-linecap:round; stroke-width:0.25;"/>
<line x1="286.000000" y1="24.000000" x2="294.000000" y2="24.000000"  style="stroke:black; stroke-linecap:round; stroke-width:0.25;"/>
<line x1="286.000000" y1="82.000000" x2="286.000000" y2="24.000000"  style="stroke:black; stroke-linecap:round; stroke-width:0.25;"/>
<line x1="286.000000" y1="82.000000" x2="286.000000" y2="82.000000"  style="stroke:black; stroke-linecap:round; stroke-width:0.25;"/>
<line x1="294.000000" y1="24.000000" x2="370.250000" y2="24.000000"  style="stroke:black; stroke-linecap:round; stroke-width:0.25;"/>
<line x1="342.250000" y1="86.000000" x2="346.250000" y2="86.000000"  style="stroke:black; stroke-linecap:round; stroke-width:0.25;"/>
<line x1="346.250000" y1="86.000000" x2="356.250000" y2="86.000000"  style="stroke:black; stroke-linecap:round; stroke-width:0.25;"/>
<line x1="356.250000" y1="86.000000" x2="366.500000" y2="86.000000"  style="stroke:black; stroke-linecap:round; stroke-width:0.25;"/>
<line x1="362.250000" y1="128.000000" x2="366.250000" y2="128.000000"  style="stroke:black; stroke-linecap:round; stroke-width:0.25;"/>
<line x1="362.500000" y1="44.000000" x2="366.500000" y2="44.000000"  style="stroke:black; stroke-linecap:round; stroke-width:0.25;"/>
<line x1="366.250000" y1="128.000000" x2="406.500000" y2="128.000000"  style="stroke:black; stroke-linecap:round; stroke-width:0.25;"/>
<line x1="366.500000" y1="44.000000" x2="374.500000" y2="44.000000"  style="stroke:black; stroke-linecap:round; stroke-width:0.25;"/>
<line x1="366.500000" y1="74.000000" x2="374.500000" y2="74.000000"  style="stroke:black; stroke-linecap:round; stroke-width:0.25;"/>
<line x1="366.500000" y1="86.000000" x2="366.500000" y2="74.000000"  style="stroke:black; stroke-linecap:round; stroke-width:0.25;"/>
<line x1="366.500000" y1="86.000000" x2="366.500000" y2="86.000000"  style="stroke:black; stroke-linecap:round; stroke-width:0.25;"/>
<line x1="370.250000" y1="24.000000" x2="446.500000" y2="24.000000"  style="stroke:black; stroke-linecap:round; stroke-width:0.25;"/>
<line x1="374.500000" y1="44.000000" x2="374.500000" y2="66.000000"  style="stroke:black; stroke-linecap:round; stroke-width:0.25;"/>
<line x1="374.500000" y1="66.000000" x2="374.500000" y2="66.000000"  style="stroke:black; stroke-linecap:round; stroke-width:0.25;"/>
<line x1="374.500000" y1="66.000000" x2="378.500000" y2="66.000000"  style="stroke:black; stroke-linecap:round; stroke-width:0.25;"/>
<line x1="374.500000" y1="74.000000" x2="378.500000" y2="74.000000"  style="stroke:black; stroke-linecap:round; stroke-width:0.25;"/>
<line x1="402.500000" y1="70.000000" x2="406.500000" y2="70.000000"  style="stroke:black; stroke-linecap:round; stroke-width:0.25;"/>
<line x1="406.500000" y1="70.000000" x2="414.500000" y2="70.000000"  style="stroke:black; stroke-linecap:round; stroke-width:0.25;"/>
<line x1="406.500000" y1="90.000000" x2="414.500000" y2="90.000000"  style="stroke:black; stroke-linecap:round; stroke-width:0.25;"/>
<line x1="406.500000" y1="128.000000" x2="406.500000" y2="90.000000"  style="stroke:black; stroke-linecap:round; stroke-width:0.25;"/>
<line x1="406.500000" y1="128.000000" x2="406.500000" y2="128.000000"  style="stroke:black; stroke-linecap:round; stroke-width:0.25;"/>
<line x1="414.500000" y1="70.000000" x2="414.500000" y2="82.000000"  style="stroke:black; stroke-linecap:round; stroke-width:0.25;"/>
<line x1="414.500000" y1="82.000000" x2="414.500000" y2="82.000000"  style="stroke:black; stroke-linecap:round; stroke-width:0.25;"/>
<line x1="414.500000" y1="82.000000" x2="418.500000" y2="82.000000"  style="stroke:black; stroke-linecap:round; stroke-width:0.25;"/>
<line x1="414.500000" y1="90.000000" x2="418.500000" y2="90.000000"  style="stroke:black; stroke-linecap:round; stroke-width:0.25;"/>
<line x1="442.500000" y1="86.000000" x2="446.500000" y2="86.000000"  style="stroke:black; stroke-linecap:round; stroke-width:0.25;"/>
<line x1="446.500000" y1="24.000000" x2="454.500000" y2="24.000000"  style="stroke:black; stroke-linecap:round; stroke-width:0.25;"/>
<line x1="446.500000" y1="86.000000" x2="454.500000" y2="86.000000"  style="stroke:black; stroke-linecap:round; stroke-width:0.25;"/>
<line x1="454.500000" y1="24.000000" x2="454.500000" y2="78.000000"  style="stroke:black; stroke-linecap:round; stroke-width:0.25;"/>
<line x1="454.500000" y1="78.000000" x2="454.500000" y2="78.000000"  style="stroke:black; stroke-linecap:round; stroke-width:0.25;"/>
<line x1="454.500000" y1="78.000000" x2="458.500000" y2="78.000000"  style="stroke:black; stroke-linecap:round; stroke-width:0.25;"/>
<line x1="454.500000" y1="86.000000" x2="458.500000" y2="86.000000"  style="stroke:black; stroke-linecap:round; stroke-width:0.25;"/>
<line x1="482.500000" y1="82.000000" x2="486.500000" y2="82.000000"  style="stroke:black; stroke-linecap:round; stroke-width:0.25;"/>
<line x1="486.500000" y1="66.000000" x2="494.500000" y2="66.000000"  style="stroke:black; stroke-linecap:round; stroke-width:0.25;"/>
<line x1="486.500000" y1="82.000000" x2="486.500000" y2="66.000000"  style="stroke:black; stroke-linecap:round; stroke-width:0.25;"/>
<line x1="486.500000" y1="82.000000" x2="486.500000" y2="82.000000"  style="stroke:black; stroke-linecap:round; stroke-width:0.25;"/>
<line x1="494.500000" y1="66.000000" x2="510.500000" y2="66.000000"  style="stroke:black; stroke-linecap:round; stroke-width:0.25;"/>
<line x1="510.500000" y1="66.000000" x2="526.500000" y2="66.000000"  style="stroke:black; stroke-linecap:round; stroke-width:0.25;"/>
<line x1="522.500000" y1="86.000000" x2="526.500000" y2="86.000000"  style="stroke:black; stroke-linecap:round; stroke-width:0.25;"/>
<line x1="526.500000" y1="66.000000" x2="534.500000" y2="66.000000"  style="stroke:black; stroke-linecap:round; stroke-width:0.25;"/>
<line x1="526.500000" y1="86.000000" x2="534.500000" y2="86.000000"  style="stroke:black; stroke-linecap:round; stroke-width:0.25;"/>
<line x1="534.500000" y1="66.000000" x2="534.500000" y2="78.000000"  style="stroke:black; stroke-linecap:round; stroke-width:0.25;"/>
<line x1="534.500000" y1="78.000000" x2="534.500000" y2="78.000000"  style="stroke:black; stroke-linecap:round; stroke-width:0.25;"/>
<line x1="534.500000" y1="78.000000" x2="538.500000" y2="78.000000"  style="stroke:black; stroke-linecap:round; stroke-width:0.25;"/>
<line x1="534.500000" y1="86.000000" x2="538.500000" y2="86.000000"  style="stroke:black; stroke-linecap:round; stroke-width:0.25;"/>
<line x1="562.500000" y1="82.000000" x2="566.500000" y2="82.000000"  style="stroke:black; stroke-linecap:round; stroke-width:0.25;"/>
<line x1="566.500000" y1="82.000000" x2="574.500000" y2="82.000000"  style="stroke:black; stroke-linecap:round; stroke-width:0.25;"/>
<line x1="574.500000" y1="82.000000" x2="574.500000" y2="102.000000"  style="stroke:black; stroke-linecap:round; stroke-width:0.25;"/>
<line x1="574.500000" y1="102.000000" x2="574.500000" y2="102.000000"  style="stroke:black; stroke-linecap:round; stroke-width:0.25;"/>
<line x1="574.500000" y1="102.000000" x2="582.500000" y2="102.000000"  style="stroke:black; stroke-linecap:round; stroke-width:0.25;"/>
<line x1="582.500000" y1="40.000000" x2="582.500000" y2="40.000000"  style="stroke:black; stroke-linecap:round; stroke-width:0.25;"/>
<line x1="582.500000" y1="40.000000" x2="582.500000" y2="70.000000"  style="stroke:black; stroke-linecap:round; stroke-width:0.25;"/>
<line x1="582.500000" y1="70.000000" x2="582.500000" y2="70.000000"  style="stroke:black; stroke-linecap:round; stroke-width:0.25;"/>
<line x1="582.500000" y1="70.000000" x2="592.500000" y2="70.000000"  style="stroke:black; stroke-linecap:round; stroke-width:0.25;"/>
<line x1="582.500000" y1="102.000000" x2="592.500000" y2="102.000000"  style="stroke:black; stroke-linecap:round; stroke-width:0.25;"/>
<line x1="592.500000" y1="70.000000" x2="596.500000" y2="70.000000"  style="stroke:black; stroke-linecap:round; stroke-width:0.25;"/>
<line x1="592.500000" y1="102.000000" x2="596.500000" y2="102.000000"  style="stroke:black; stroke-linecap:round; stroke-width:0.25;"/>
<line x1="677.000000" y1="40.000000" x2="582.500000" y2="40.000000"  style="stroke:black; stroke-linecap:round; stroke-width:0.25;"/>
<line x1="757.500000" y1="86.000000" x2="761.500000" y2="86.000000"  style="stroke:black; stroke-linecap:round; stroke-width:0.25;"/>
<line x1="761.500000" y1="86.000000" x2="771.500000" y2="86.000000"  style="stroke:black; stroke-linecap:round; stroke-width:0.25;"/>
<line x1="771.500000" y1="40.000000" x2="677.000000" y2="40.000000"  style="stroke:black; stroke-linecap:round; stroke-width:0.25;"/>
<line x1="771.500000" y1="40.000000" x2="771.500000" y2="40.000000"  style="stroke:black; stroke-linecap:round; stroke-width:0.25;"/>
<line x1="771.500000" y1="82.000000" x2="771.500000" y2="40.000000"  style="stroke:black; stroke-linecap:round; stroke-width:0.25;"/>
<line x1="771.500000" y1="86.000000" x2="773.500000" y2="86.000000"  style="stroke:black; stroke-linecap:round; stroke-width:0.25;"/>
<line x1="773.500000" y1="86.000000" x2="779.500000" y2="86.000000"  style="stroke:black; stroke-linecap:round; stroke-width:0.25;"/>
<line x1="779.500000" y1="82.000000" x2="787.500000" y2="82.000000"  style="stroke:black; stroke-linecap:round; stroke-width:0.25;"/>
<line x1="779.500000" y1="86.000000" x2="779.500000" y2="82.000000"  style="stroke:black; stroke-linecap:round; stroke-width:0.25;"/>
<line x1="779.500000" y1="86.000000" x2="779.500000" y2="86.000000"  style="stroke:black; stroke-linecap:round; stroke-width:0.25;"/>
<line x1="787.500000" y1="82.000000" x2="791.500000" y2="82.000000"  style="stroke:black; stroke-linecap:round; stroke-width:0.25;"/>
<line x1="791.500000" y1="82.000000" x2="795.500000" y2="82.000000"  style="stroke:black; stroke-linecap:round; stroke-width:0.25;"/>
<line x1="795.500000" y1="82.000000" x2="805.500000" y2="82.000000"  style="stroke:black; stroke-linecap:round; stroke-width:0.25;"/>
</svg>
