<?xml version="1.0"?>
<svg xmlns="http://www.w3.org/2000/svg" xmlns:xlink="http://www.w3.org/1999/xlink" viewBox="0 0 464.000000 236.240000" width="232.000000mm" height="118.120000mm" version="1.1">
<defs>
   <filter id="filter" filterRes="18" x="0" y="0">
     <feGaussianBlur in="SourceGraphic" stdDeviation="1.55" result="blur"/>
     <feOffset in="blur" dx="3" dy="3"/>
   </filter>
</defs>
<a xlink:href="left-0x7f8f93009d30.svg">
<rect x="1.000000" y="1.000000" width="463.000000" height="235.240000" rx="0.1" ry="0.1" style="stroke:none;fill:#aaaaaa;;filter:url(#filter);"/>
<rect x="0.000000" y="0.000000" width="463.000000" height="235.240000" rx="0" ry="0" style="stroke:none;fill:#ffffff;"/>
</a>
<text x="10.000000" y="7.000000" font-family="Arial" font-size="7"></text>
<rect x="73.000000" y="127.240000" width="24.000000" height="24.000000" rx="0.1" ry="0.1" style="stroke:none;fill:#aaaaaa;;filter:url(#filter);"/>
<rect x="72.000000" y="126.240000" width="24.000000" height="24.000000" rx="0" ry="0" style="stroke:none;fill:#4B71A1;"/>
<text x="84.000000" y="140.240000" font-family="Arial" font-size="7" text-anchor="middle" fill="#FFFFFF">+</text>
<circle cx="74.000000" cy="128.240000" r="1"/>
<line x1="69.000000" y1="133.240000" x2="72.000000" y2="134.240000"  transform="rotate(0.000000,72.000000,134.240000)" style="stroke: black; stroke-width:0.25;"/>
<line x1="69.000000" y1="135.240000" x2="72.000000" y2="134.240000"  transform="rotate(0.000000,72.000000,134.240000)" style="stroke: black; stroke-width:0.25;"/>
<line x1="69.000000" y1="141.240000" x2="72.000000" y2="142.240000"  transform="rotate(0.000000,72.000000,142.240000)" style="stroke: black; stroke-width:0.25;"/>
<line x1="69.000000" y1="143.240000" x2="72.000000" y2="142.240000"  transform="rotate(0.000000,72.000000,142.240000)" style="stroke: black; stroke-width:0.25;"/>
<a xlink:href="fdelay2-0x7f8f92c64fb0.svg">
<rect x="152.000000" y="65.240000" width="129.000000" height="24.000000" rx="0.1" ry="0.1" style="stroke:none;fill:#aaaaaa;;filter:url(#filter);"/>
<rect x="151.000000" y="64.240000" width="129.000000" height="24.000000" rx="0" ry="0" style="stroke:none;fill:#003366;"/>
</a>
<a xlink:href="fdelay2-0x7f8f92c64fb0.svg">
<text x="215.500000" y="78.240000" font-family="Arial" font-size="7" text-anchor="middle" fill="#FFFFFF">fdelay2(18050...= {}]~_) : +)</text>
</a>
<circle cx="153.000000" cy="66.240000" r="1"/>
<line x1="148.000000" y1="75.240000" x2="151.000000" y2="76.240000"  transform="rotate(0.000000,151.000000,76.240000)" style="stroke: black; stroke-width:0.25;"/>
<line x1="148.000000" y1="77.240000" x2="151.000000" y2="76.240000"  transform="rotate(0.000000,151.000000,76.240000)" style="stroke: black; stroke-width:0.25;"/>
<rect x="184.500000" y="115.240000" width="24.000000" height="24.000000" rx="0.1" ry="0.1" style="stroke:none;fill:#aaaaaa;;filter:url(#filter);"/>
<rect x="183.500000" y="114.240000" width="24.000000" height="24.000000" rx="0" ry="0" style="stroke:none;fill:#f44800;"/>
<text x="195.500000" y="128.240000" font-family="Arial" font-size="7" text-anchor="middle" fill="#FFFFFF">0.6</text>
<circle cx="185.500000" cy="116.240000" r="1"/>
<line x1="174.500000" y1="105.240000" x2="174.500000" y2="147.240000"  style="stroke: black; stroke-linecap:round; stroke-width:0.25; stroke-dasharray:3,3;"/>
<line x1="174.500000" y1="147.240000" x2="216.500000" y2="147.240000"  style="stroke: black; stroke-linecap:round; stroke-width:0.25; stroke-dasharray:3,3;"/>
<line x1="216.500000" y1="147.240000" x2="216.500000" y2="105.240000"  style="stroke: black; stroke-linecap:round; stroke-width:0.25; stroke-dasharray:3,3;"/>
<line x1="174.500000" y1="105.240000" x2="179.500000" y2="105.240000"  style="stroke: black; stroke-linecap:round; stroke-width:0.25; stroke-dasharray:3,3;"/>
<line x1="211.750000" y1="105.240000" x2="216.500000" y2="105.240000"  style="stroke: black; stroke-linecap:round; stroke-width:0.25; stroke-dasharray:3,3;"/>
<text x="179.500000" y="107.240000" font-family="Arial" font-size="7">d_diff_2</text>
<rect x="234.500000" y="111.240000" width="24.000000" height="24.000000" rx="0.1" ry="0.1" style="stroke:none;fill:#aaaaaa;;filter:url(#filter);"/>
<rect x="233.500000" y="110.240000" width="24.000000" height="24.000000" rx="0" ry="0" style="stroke:none;fill:#4B71A1;"/>
<text x="245.500000" y="124.240000" font-family="Arial" font-size="7" text-anchor="middle" fill="#FFFFFF">*</text>
<circle cx="235.500000" cy="112.240000" r="1"/>
<line x1="230.500000" y1="117.240000" x2="233.500000" y2="118.240000"  transform="rotate(0.000000,233.500000,118.240000)" style="stroke: black; stroke-width:0.25;"/>
<line x1="230.500000" y1="119.240000" x2="233.500000" y2="118.240000"  transform="rotate(0.000000,233.500000,118.240000)" style="stroke: black; stroke-width:0.25;"/>
<line x1="230.500000" y1="125.240000" x2="233.500000" y2="126.240000"  transform="rotate(0.000000,233.500000,126.240000)" style="stroke: black; stroke-width:0.25;"/>
<line x1="230.500000" y1="127.240000" x2="233.500000" y2="126.240000"  transform="rotate(0.000000,233.500000,126.240000)" style="stroke: black; stroke-width:0.25;"/>
<a xlink:href="fdelay2-0x7f8f92cd3810.svg">
<rect x="152.000000" y="157.240000" width="129.000000" height="24.000000" rx="0.1" ry="0.1" style="stroke:none;fill:#aaaaaa;;filter:url(#filter);"/>
<rect x="151.000000" y="156.240000" width="129.000000" height="24.000000" rx="0" ry="0" style="stroke:none;fill:#003366;"/>
</a>
<a xlink:href="fdelay2-0x7f8f92cd3810.svg">
<text x="215.500000" y="170.240000" font-family="Arial" font-size="7" text-anchor="middle" fill="#FFFFFF">fdelay2(1872....0000008f : /)</text>
</a>
<circle cx="153.000000" cy="158.240000" r="1"/>
<line x1="148.000000" y1="167.240000" x2="151.000000" y2="168.240000"  transform="rotate(0.000000,151.000000,168.240000)" style="stroke: black; stroke-width:0.25;"/>
<line x1="148.000000" y1="169.240000" x2="151.000000" y2="168.240000"  transform="rotate(0.000000,151.000000,168.240000)" style="stroke: black; stroke-width:0.25;"/>
<a xlink:href="fdelay2-0x7f8f92d45c10.svg">
<rect x="152.000000" y="189.240000" width="129.000000" height="24.000000" rx="0.1" ry="0.1" style="stroke:none;fill:#aaaaaa;;filter:url(#filter);"/>
<rect x="151.000000" y="188.240000" width="129.000000" height="24.000000" rx="0" ry="0" style="stroke:none;fill:#003366;"/>
</a>
<a xlink:href="fdelay2-0x7f8f92d45c10.svg">
<text x="215.500000" y="202.240000" font-family="Arial" font-size="7" text-anchor="middle" fill="#FFFFFF">fdelay2(12330...*),1.46f : /)</text>
</a>
<circle cx="153.000000" cy="190.240000" r="1"/>
<line x1="148.000000" y1="199.240000" x2="151.000000" y2="200.240000"  transform="rotate(0.000000,151.000000,200.240000)" style="stroke: black; stroke-width:0.25;"/>
<line x1="148.000000" y1="201.240000" x2="151.000000" y2="200.240000"  transform="rotate(0.000000,151.000000,200.240000)" style="stroke: black; stroke-width:0.25;"/>
<rect x="184.100000" y="25.240000" width="25.800000" height="24.000000" rx="0.1" ry="0.1" style="stroke:none;fill:#aaaaaa;;filter:url(#filter);"/>
<rect x="183.100000" y="24.240000" width="25.800000" height="24.000000" rx="0" ry="0" style="stroke:none;fill:#f44800;"/>
<text x="196.000000" y="38.240000" font-family="Arial" font-size="7" text-anchor="middle" fill="#FFFFFF">-0.6</text>
<circle cx="206.900000" cy="46.240000" r="1"/>
<rect x="144.100000" y="29.240000" width="24.000000" height="24.000000" rx="0.1" ry="0.1" style="stroke:none;fill:#aaaaaa;;filter:url(#filter);"/>
<rect x="143.100000" y="28.240000" width="24.000000" height="24.000000" rx="0" ry="0" style="stroke:none;fill:#4B71A1;"/>
<text x="155.100000" y="42.240000" font-family="Arial" font-size="7" text-anchor="middle" fill="#FFFFFF">*</text>
<circle cx="165.100000" cy="50.240000" r="1"/>
<line x1="170.100000" y1="43.240000" x2="167.100000" y2="44.240000"  transform="rotate(0.000000,167.100000,44.240000)" style="stroke: black; stroke-width:0.25;"/>
<line x1="170.100000" y1="45.240000" x2="167.100000" y2="44.240000"  transform="rotate(0.000000,167.100000,44.240000)" style="stroke: black; stroke-width:0.25;"/>
<line x1="170.100000" y1="35.240000" x2="167.100000" y2="36.240000"  transform="rotate(0.000000,167.100000,36.240000)" style="stroke: black; stroke-width:0.25;"/>
<line x1="170.100000" y1="37.240000" x2="167.100000" y2="36.240000"  transform="rotate(0.000000,167.100000,36.240000)" style="stroke: black; stroke-width:0.25;"/>
<line x1="282.000000" y1="76.240000" x2="282.000000" y2="72.240000"  style="stroke:black; stroke-linecap:round; stroke-width:0.25;"/>
<line x1="282.000000" y1="72.240000" x2="286.000000" y2="72.240000"  style="stroke:black; stroke-linecap:round; stroke-width:0.25;"/>
<line x1="286.000000" y1="72.240000" x2="286.000000" y2="76.240000"  style="stroke:black; stroke-linecap:round; stroke-width:0.25;"/>
<line x1="290.000000" y1="122.240000" x2="290.000000" y2="118.240000"  style="stroke:black; stroke-linecap:round; stroke-width:0.25;"/>
<line x1="290.000000" y1="118.240000" x2="294.000000" y2="118.240000"  style="stroke:black; stroke-linecap:round; stroke-width:0.25;"/>
<line x1="294.000000" y1="118.240000" x2="294.000000" y2="122.240000"  style="stroke:black; stroke-linecap:round; stroke-width:0.25;"/>
<line x1="298.000000" y1="168.240000" x2="298.000000" y2="164.240000"  style="stroke:black; stroke-linecap:round; stroke-width:0.25;"/>
<line x1="298.000000" y1="164.240000" x2="302.000000" y2="164.240000"  style="stroke:black; stroke-linecap:round; stroke-width:0.25;"/>
<line x1="302.000000" y1="164.240000" x2="302.000000" y2="168.240000"  style="stroke:black; stroke-linecap:round; stroke-width:0.25;"/>
<line x1="306.000000" y1="200.240000" x2="306.000000" y2="196.240000"  style="stroke:black; stroke-linecap:round; stroke-width:0.25;"/>
<line x1="306.000000" y1="196.240000" x2="310.000000" y2="196.240000"  style="stroke:black; stroke-linecap:round; stroke-width:0.25;"/>
<line x1="310.000000" y1="196.240000" x2="310.000000" y2="200.240000"  style="stroke:black; stroke-linecap:round; stroke-width:0.25;"/>
<rect x="337.000000" y="95.120000" width="24.000000" height="24.000000" rx="0.1" ry="0.1" style="stroke:none;fill:#aaaaaa;;filter:url(#filter);"/>
<rect x="336.000000" y="94.120000" width="24.000000" height="24.000000" rx="0" ry="0" style="stroke:none;fill:#4B71A1;"/>
<text x="348.000000" y="108.120000" font-family="Arial" font-size="7" text-anchor="middle" fill="#FFFFFF">mem</text>
<circle cx="338.000000" cy="96.120000" r="1"/>
<line x1="333.000000" y1="105.120000" x2="336.000000" y2="106.120000"  transform="rotate(0.000000,336.000000,106.120000)" style="stroke: black; stroke-width:0.25;"/>
<line x1="333.000000" y1="107.120000" x2="336.000000" y2="106.120000"  transform="rotate(0.000000,336.000000,106.120000)" style="stroke: black; stroke-width:0.25;"/>
<rect x="393.000000" y="99.120000" width="24.000000" height="24.000000" rx="0.1" ry="0.1" style="stroke:none;fill:#aaaaaa;;filter:url(#filter);"/>
<rect x="392.000000" y="98.120000" width="24.000000" height="24.000000" rx="0" ry="0" style="stroke:none;fill:#4B71A1;"/>
<text x="404.000000" y="112.120000" font-family="Arial" font-size="7" text-anchor="middle" fill="#FFFFFF">+</text>
<circle cx="394.000000" cy="100.120000" r="1"/>
<line x1="389.000000" y1="105.120000" x2="392.000000" y2="106.120000"  transform="rotate(0.000000,392.000000,106.120000)" style="stroke: black; stroke-width:0.25;"/>
<line x1="389.000000" y1="107.120000" x2="392.000000" y2="106.120000"  transform="rotate(0.000000,392.000000,106.120000)" style="stroke: black; stroke-width:0.25;"/>
<line x1="389.000000" y1="113.120000" x2="392.000000" y2="114.120000"  transform="rotate(0.000000,392.000000,114.120000)" style="stroke: black; stroke-width:0.25;"/>
<line x1="389.000000" y1="115.120000" x2="392.000000" y2="114.120000"  transform="rotate(0.000000,392.000000,114.120000)" style="stroke: black; stroke-width:0.25;"/>
<line x1="15.000000" y1="15.000000" x2="15.000000" y2="221.240000"  style="stroke: black; stroke-linecap:round; stroke-width:0.25; stroke-dasharray:3,3;"/>
<line x1="15.000000" y1="221.240000" x2="449.000000" y2="221.240000"  style="stroke: black; stroke-linecap:round; stroke-width:0.25; stroke-dasharray:3,3;"/>
<line x1="449.000000" y1="221.240000" x2="449.000000" y2="15.000000"  style="stroke: black; stroke-linecap:round; stroke-width:0.25; stroke-dasharray:3,3;"/>
<line x1="15.000000" y1="15.000000" x2="20.000000" y2="15.000000"  style="stroke: black; stroke-linecap:round; stroke-width:0.25; stroke-dasharray:3,3;"/>
<line x1="119.975000" y1="15.000000" x2="449.000000" y2="15.000000"  style="stroke: black; stroke-linecap:round; stroke-width:0.25; stroke-dasharray:3,3;"/>
<text x="20.000000" y="17.000000" font-family="Arial" font-size="7">multi_tap_all...99999999998f)</text>
<line x1="451.000000" y1="109.120000" x2="454.000000" y2="110.120000"  transform="rotate(0.000000,454.000000,110.120000)" style="stroke: black; stroke-width:0.25;"/>
<line x1="451.000000" y1="111.120000" x2="454.000000" y2="110.120000"  transform="rotate(0.000000,454.000000,110.120000)" style="stroke: black; stroke-width:0.25;"/>
<line x1="451.000000" y1="117.120000" x2="454.000000" y2="118.120000"  transform="rotate(0.000000,454.000000,118.120000)" style="stroke: black; stroke-width:0.25;"/>
<line x1="451.000000" y1="119.120000" x2="454.000000" y2="118.120000"  transform="rotate(0.000000,454.000000,118.120000)" style="stroke: black; stroke-width:0.25;"/>
<line x1="451.000000" y1="125.120000" x2="454.000000" y2="126.120000"  transform="rotate(0.000000,454.000000,126.120000)" style="stroke: black; stroke-width:0.25;"/>
<line x1="451.000000" y1="127.120000" x2="454.000000" y2="126.120000"  transform="rotate(0.000000,454.000000,126.120000)" style="stroke: black; stroke-width:0.25;"/>
<line x1="10.000000" y1="118.120000" x2="20.000000" y2="118.120000"  style="stroke:black; stroke-linecap:round; stroke-width:0.25;"/>
<line x1="20.000000" y1="118.120000" x2="24.000000" y2="118.120000"  style="stroke:black; stroke-linecap:round; stroke-width:0.25;"/>
<line x1="24.000000" y1="118.120000" x2="28.000000" y2="118.120000"  style="stroke:black; stroke-linecap:round; stroke-width:0.25;"/>
<line x1="28.000000" y1="118.120000" x2="36.000000" y2="118.120000"  style="stroke:black; stroke-linecap:round; stroke-width:0.25;"/>
<line x1="36.000000" y1="118.120000" x2="36.000000" y2="142.240000"  style="stroke:black; stroke-linecap:round; stroke-width:0.25;"/>
<line x1="36.000000" y1="142.240000" x2="36.000000" y2="142.240000"  style="stroke:black; stroke-linecap:round; stroke-width:0.25;"/>
<line x1="36.000000" y1="142.240000" x2="68.000000" y2="142.240000"  style="stroke:black; stroke-linecap:round; stroke-width:0.25;"/>
<line x1="68.000000" y1="40.240000" x2="68.000000" y2="40.240000"  style="stroke:black; stroke-linecap:round; stroke-width:0.25;"/>
<line x1="68.000000" y1="40.240000" x2="68.000000" y2="134.240000"  style="stroke:black; stroke-linecap:round; stroke-width:0.25;"/>
<line x1="68.000000" y1="134.240000" x2="68.000000" y2="134.240000"  style="stroke:black; stroke-linecap:round; stroke-width:0.25;"/>
<line x1="68.000000" y1="134.240000" x2="72.000000" y2="134.240000"  style="stroke:black; stroke-linecap:round; stroke-width:0.25;"/>
<line x1="68.000000" y1="142.240000" x2="72.000000" y2="142.240000"  style="stroke:black; stroke-linecap:round; stroke-width:0.25;"/>
<line x1="96.000000" y1="138.240000" x2="100.000000" y2="138.240000"  style="stroke:black; stroke-linecap:round; stroke-width:0.25;"/>
<line x1="100.000000" y1="138.240000" x2="147.000000" y2="76.240000"  style="stroke:black; stroke-linecap:round; stroke-width:0.25;"/>
<line x1="100.000000" y1="138.240000" x2="147.000000" y2="96.240000"  style="stroke:black; stroke-linecap:round; stroke-width:0.25;"/>
<line x1="100.000000" y1="138.240000" x2="147.000000" y2="168.240000"  style="stroke:black; stroke-linecap:round; stroke-width:0.25;"/>
<line x1="100.000000" y1="138.240000" x2="147.000000" y2="200.240000"  style="stroke:black; stroke-linecap:round; stroke-width:0.25;"/>
<line x1="139.100000" y1="40.240000" x2="68.000000" y2="40.240000"  style="stroke:black; stroke-linecap:round; stroke-width:0.25;"/>
<line x1="143.100000" y1="40.240000" x2="139.100000" y2="40.240000"  style="stroke:black; stroke-linecap:round; stroke-width:0.25;"/>
<line x1="147.000000" y1="76.240000" x2="151.000000" y2="76.240000"  style="stroke:black; stroke-linecap:round; stroke-width:0.25;"/>
<line x1="147.000000" y1="96.240000" x2="169.500000" y2="96.240000"  style="stroke:black; stroke-linecap:round; stroke-width:0.25;"/>
<line x1="147.000000" y1="168.240000" x2="151.000000" y2="168.240000"  style="stroke:black; stroke-linecap:round; stroke-width:0.25;"/>
<line x1="147.000000" y1="200.240000" x2="151.000000" y2="200.240000"  style="stroke:black; stroke-linecap:round; stroke-width:0.25;"/>
<line x1="169.500000" y1="96.240000" x2="195.500000" y2="96.240000"  style="stroke:black; stroke-linecap:round; stroke-width:0.25;"/>
<line x1="171.100000" y1="36.240000" x2="167.100000" y2="36.240000"  style="stroke:black; stroke-linecap:round; stroke-width:0.25;"/>
<line x1="171.100000" y1="44.240000" x2="167.100000" y2="44.240000"  style="stroke:black; stroke-linecap:round; stroke-width:0.25;"/>
<line x1="171.100000" y1="44.240000" x2="171.100000" y2="44.240000"  style="stroke:black; stroke-linecap:round; stroke-width:0.25;"/>
<line x1="171.100000" y1="56.240000" x2="171.100000" y2="44.240000"  style="stroke:black; stroke-linecap:round; stroke-width:0.25;"/>
<line x1="179.100000" y1="36.240000" x2="171.100000" y2="36.240000"  style="stroke:black; stroke-linecap:round; stroke-width:0.25;"/>
<line x1="179.100000" y1="56.240000" x2="171.100000" y2="56.240000"  style="stroke:black; stroke-linecap:round; stroke-width:0.25;"/>
<line x1="183.100000" y1="36.240000" x2="179.100000" y2="36.240000"  style="stroke:black; stroke-linecap:round; stroke-width:0.25;"/>
<line x1="195.500000" y1="96.240000" x2="221.500000" y2="96.240000"  style="stroke:black; stroke-linecap:round; stroke-width:0.25;"/>
<line x1="196.000000" y1="56.240000" x2="179.100000" y2="56.240000"  style="stroke:black; stroke-linecap:round; stroke-width:0.25;"/>
<line x1="207.500000" y1="126.240000" x2="211.500000" y2="126.240000"  style="stroke:black; stroke-linecap:round; stroke-width:0.25;"/>
<line x1="211.500000" y1="126.240000" x2="221.500000" y2="126.240000"  style="stroke:black; stroke-linecap:round; stroke-width:0.25;"/>
<line x1="212.900000" y1="56.240000" x2="196.000000" y2="56.240000"  style="stroke:black; stroke-linecap:round; stroke-width:0.25;"/>
<line x1="221.500000" y1="96.240000" x2="229.500000" y2="96.240000"  style="stroke:black; stroke-linecap:round; stroke-width:0.25;"/>
<line x1="221.500000" y1="126.240000" x2="229.500000" y2="126.240000"  style="stroke:black; stroke-linecap:round; stroke-width:0.25;"/>
<line x1="229.500000" y1="96.240000" x2="229.500000" y2="118.240000"  style="stroke:black; stroke-linecap:round; stroke-width:0.25;"/>
<line x1="229.500000" y1="118.240000" x2="229.500000" y2="118.240000"  style="stroke:black; stroke-linecap:round; stroke-width:0.25;"/>
<line x1="229.500000" y1="118.240000" x2="233.500000" y2="118.240000"  style="stroke:black; stroke-linecap:round; stroke-width:0.25;"/>
<line x1="229.500000" y1="126.240000" x2="233.500000" y2="126.240000"  style="stroke:black; stroke-linecap:round; stroke-width:0.25;"/>
<line x1="257.500000" y1="122.240000" x2="261.500000" y2="122.240000"  style="stroke:black; stroke-linecap:round; stroke-width:0.25;"/>
<line x1="261.500000" y1="122.240000" x2="284.000000" y2="122.240000"  style="stroke:black; stroke-linecap:round; stroke-width:0.25;"/>
<line x1="280.000000" y1="76.240000" x2="284.000000" y2="76.240000"  style="stroke:black; stroke-linecap:round; stroke-width:0.25;"/>
<line x1="280.000000" y1="168.240000" x2="284.000000" y2="168.240000"  style="stroke:black; stroke-linecap:round; stroke-width:0.25;"/>
<line x1="280.000000" y1="200.240000" x2="284.000000" y2="200.240000"  style="stroke:black; stroke-linecap:round; stroke-width:0.25;"/>
<line x1="284.000000" y1="56.240000" x2="212.900000" y2="56.240000"  style="stroke:black; stroke-linecap:round; stroke-width:0.25;"/>
<line x1="284.000000" y1="56.240000" x2="284.000000" y2="56.240000"  style="stroke:black; stroke-linecap:round; stroke-width:0.25;"/>
<line x1="284.000000" y1="72.240000" x2="284.000000" y2="56.240000"  style="stroke:black; stroke-linecap:round; stroke-width:0.25;"/>
<line x1="284.000000" y1="76.240000" x2="286.000000" y2="76.240000"  style="stroke:black; stroke-linecap:round; stroke-width:0.25;"/>
<line x1="284.000000" y1="122.240000" x2="294.000000" y2="122.240000"  style="stroke:black; stroke-linecap:round; stroke-width:0.25;"/>
<line x1="284.000000" y1="168.240000" x2="302.000000" y2="168.240000"  style="stroke:black; stroke-linecap:round; stroke-width:0.25;"/>
<line x1="284.000000" y1="200.240000" x2="310.000000" y2="200.240000"  style="stroke:black; stroke-linecap:round; stroke-width:0.25;"/>
<line x1="286.000000" y1="76.240000" x2="316.000000" y2="76.240000"  style="stroke:black; stroke-linecap:round; stroke-width:0.25;"/>
<line x1="294.000000" y1="122.240000" x2="316.000000" y2="122.240000"  style="stroke:black; stroke-linecap:round; stroke-width:0.25;"/>
<line x1="302.000000" y1="168.240000" x2="316.000000" y2="168.240000"  style="stroke:black; stroke-linecap:round; stroke-width:0.25;"/>
<line x1="310.000000" y1="200.240000" x2="316.000000" y2="200.240000"  style="stroke:black; stroke-linecap:round; stroke-width:0.25;"/>
<line x1="316.000000" y1="76.240000" x2="332.000000" y2="76.240000"  style="stroke:black; stroke-linecap:round; stroke-width:0.25;"/>
<line x1="316.000000" y1="122.240000" x2="324.000000" y2="122.240000"  style="stroke:black; stroke-linecap:round; stroke-width:0.25;"/>
<line x1="316.000000" y1="134.120000" x2="332.000000" y2="134.120000"  style="stroke:black; stroke-linecap:round; stroke-width:0.25;"/>
<line x1="316.000000" y1="168.240000" x2="316.000000" y2="134.120000"  style="stroke:black; stroke-linecap:round; stroke-width:0.25;"/>
<line x1="316.000000" y1="168.240000" x2="316.000000" y2="168.240000"  style="stroke:black; stroke-linecap:round; stroke-width:0.25;"/>
<line x1="316.000000" y1="200.240000" x2="324.000000" y2="200.240000"  style="stroke:black; stroke-linecap:round; stroke-width:0.25;"/>
<line x1="324.000000" y1="122.240000" x2="324.000000" y2="126.120000"  style="stroke:black; stroke-linecap:round; stroke-width:0.25;"/>
<line x1="324.000000" y1="126.120000" x2="332.000000" y2="126.120000"  style="stroke:black; stroke-linecap:round; stroke-width:0.25;"/>
<line x1="324.000000" y1="142.120000" x2="332.000000" y2="142.120000"  style="stroke:black; stroke-linecap:round; stroke-width:0.25;"/>
<line x1="324.000000" y1="200.240000" x2="324.000000" y2="142.120000"  style="stroke:black; stroke-linecap:round; stroke-width:0.25;"/>
<line x1="332.000000" y1="76.240000" x2="332.000000" y2="106.120000"  style="stroke:black; stroke-linecap:round; stroke-width:0.25;"/>
<line x1="332.000000" y1="106.120000" x2="332.000000" y2="106.120000"  style="stroke:black; stroke-linecap:round; stroke-width:0.25;"/>
<line x1="332.000000" y1="106.120000" x2="336.000000" y2="106.120000"  style="stroke:black; stroke-linecap:round; stroke-width:0.25;"/>
<line x1="332.000000" y1="126.120000" x2="348.000000" y2="126.120000"  style="stroke:black; stroke-linecap:round; stroke-width:0.25;"/>
<line x1="332.000000" y1="134.120000" x2="348.000000" y2="134.120000"  style="stroke:black; stroke-linecap:round; stroke-width:0.25;"/>
<line x1="332.000000" y1="142.120000" x2="348.000000" y2="142.120000"  style="stroke:black; stroke-linecap:round; stroke-width:0.25;"/>
<line x1="348.000000" y1="126.120000" x2="364.000000" y2="126.120000"  style="stroke:black; stroke-linecap:round; stroke-width:0.25;"/>
<line x1="348.000000" y1="134.120000" x2="364.000000" y2="134.120000"  style="stroke:black; stroke-linecap:round; stroke-width:0.25;"/>
<line x1="348.000000" y1="142.120000" x2="364.000000" y2="142.120000"  style="stroke:black; stroke-linecap:round; stroke-width:0.25;"/>
<line x1="360.000000" y1="106.120000" x2="364.000000" y2="106.120000"  style="stroke:black; stroke-linecap:round; stroke-width:0.25;"/>
<line x1="364.000000" y1="106.120000" x2="388.000000" y2="106.120000"  style="stroke:black; stroke-linecap:round; stroke-width:0.25;"/>
<line x1="364.000000" y1="114.120000" x2="388.000000" y2="114.120000"  style="stroke:black; stroke-linecap:round; stroke-width:0.25;"/>
<line x1="364.000000" y1="126.120000" x2="364.000000" y2="114.120000"  style="stroke:black; stroke-linecap:round; stroke-width:0.25;"/>
<line x1="364.000000" y1="126.120000" x2="364.000000" y2="126.120000"  style="stroke:black; stroke-linecap:round; stroke-width:0.25;"/>
<line x1="364.000000" y1="134.120000" x2="372.000000" y2="134.120000"  style="stroke:black; stroke-linecap:round; stroke-width:0.25;"/>
<line x1="364.000000" y1="142.120000" x2="380.000000" y2="142.120000"  style="stroke:black; stroke-linecap:round; stroke-width:0.25;"/>
<line x1="372.000000" y1="130.120000" x2="388.000000" y2="130.120000"  style="stroke:black; stroke-linecap:round; stroke-width:0.25;"/>
<line x1="372.000000" y1="134.120000" x2="372.000000" y2="130.120000"  style="stroke:black; stroke-linecap:round; stroke-width:0.25;"/>
<line x1="380.000000" y1="138.120000" x2="388.000000" y2="138.120000"  style="stroke:black; stroke-linecap:round; stroke-width:0.25;"/>
<line x1="380.000000" y1="142.120000" x2="380.000000" y2="138.120000"  style="stroke:black; stroke-linecap:round; stroke-width:0.25;"/>
<line x1="388.000000" y1="106.120000" x2="388.000000" y2="106.120000"  style="stroke:black; stroke-linecap:round; stroke-width:0.25;"/>
<line x1="388.000000" y1="106.120000" x2="392.000000" y2="106.120000"  style="stroke:black; stroke-linecap:round; stroke-width:0.25;"/>
<line x1="388.000000" y1="114.120000" x2="388.000000" y2="114.120000"  style="stroke:black; stroke-linecap:round; stroke-width:0.25;"/>
<line x1="388.000000" y1="114.120000" x2="392.000000" y2="114.120000"  style="stroke:black; stroke-linecap:round; stroke-width:0.25;"/>
<line x1="388.000000" y1="130.120000" x2="404.000000" y2="130.120000"  style="stroke:black; stroke-linecap:round; stroke-width:0.25;"/>
<line x1="388.000000" y1="138.120000" x2="404.000000" y2="138.120000"  style="stroke:black; stroke-linecap:round; stroke-width:0.25;"/>
<line x1="404.000000" y1="130.120000" x2="420.000000" y2="130.120000"  style="stroke:black; stroke-linecap:round; stroke-width:0.25;"/>
<line x1="404.000000" y1="138.120000" x2="420.000000" y2="138.120000"  style="stroke:black; stroke-linecap:round; stroke-width:0.25;"/>
<line x1="416.000000" y1="110.120000" x2="420.000000" y2="110.120000"  style="stroke:black; stroke-linecap:round; stroke-width:0.25;"/>
<line x1="420.000000" y1="110.120000" x2="436.000000" y2="110.120000"  style="stroke:black; stroke-linecap:round; stroke-width:0.25;"/>
<line x1="420.000000" y1="118.120000" x2="436.000000" y2="118.120000"  style="stroke:black; stroke-linecap:round; stroke-width:0.25;"/>
<line x1="420.000000" y1="130.120000" x2="420.000000" y2="118.120000"  style="stroke:black; stroke-linecap:round; stroke-width:0.25;"/>
<line x1="420.000000" y1="130.120000" x2="420.000000" y2="130.120000"  style="stroke:black; stroke-linecap:round; stroke-width:0.25;"/>
<line x1="420.000000" y1="138.120000" x2="428.000000" y2="138.120000"  style="stroke:black; stroke-linecap:round; stroke-width:0.25;"/>
<line x1="428.000000" y1="126.120000" x2="436.000000" y2="126.120000"  style="stroke:black; stroke-linecap:round; stroke-width:0.25;"/>
<line x1="428.000000" y1="138.120000" x2="428.000000" y2="126.120000"  style="stroke:black; stroke-linecap:round; stroke-width:0.25;"/>
<line x1="436.000000" y1="110.120000" x2="440.000000" y2="110.120000"  style="stroke:black; stroke-linecap:round; stroke-width:0.25;"/>
<line x1="436.000000" y1="118.120000" x2="440.000000" y2="118.120000"  style="stroke:black; stroke-linecap:round; stroke-width:0.25;"/>
<line x1="436.000000" y1="126.120000" x2="440.000000" y2="126.120000"  style="stroke:black; stroke-linecap:round; stroke-width:0.25;"/>
<line x1="440.000000" y1="110.120000" x2="444.000000" y2="110.120000"  style="stroke:black; stroke-linecap:round; stroke-width:0.25;"/>
<line x1="440.000000" y1="118.120000" x2="444.000000" y2="118.120000"  style="stroke:black; stroke-linecap:round; stroke-width:0.25;"/>
<line x1="440.000000" y1="126.120000" x2="444.000000" y2="126.120000"  style="stroke:black; stroke-linecap:round; stroke-width:0.25;"/>
<line x1="444.000000" y1="110.120000" x2="454.000000" y2="110.120000"  style="stroke:black; stroke-linecap:round; stroke-width:0.25;"/>
<line x1="444.000000" y1="118.120000" x2="454.000000" y2="118.120000"  style="stroke:black; stroke-linecap:round; stroke-width:0.25;"/>
<line x1="444.000000" y1="126.120000" x2="454.000000" y2="126.120000"  style="stroke:black; stroke-linecap:round; stroke-width:0.25;"/>
</svg>
