<?xml version="1.0"?>
<svg xmlns="http://www.w3.org/2000/svg" xmlns:xlink="http://www.w3.org/1999/xlink" viewBox="0 0 476.000000 268.160000" width="238.000000mm" height="134.080000mm" version="1.1">
<defs>
   <filter id="filter" filterRes="18" x="0" y="0">
     <feGaussianBlur in="SourceGraphic" stdDeviation="1.55" result="blur"/>
     <feOffset in="blur" dx="3" dy="3"/>
   </filter>
</defs>
<a xlink:href="oscr-0x7f8f91c4d8f0.svg">
<rect x="1.000000" y="1.000000" width="475.000000" height="267.160000" rx="0.1" ry="0.1" style="stroke:none;fill:#aaaaaa;;filter:url(#filter);"/>
<rect x="0.000000" y="0.000000" width="475.000000" height="267.160000" rx="0" ry="0" style="stroke:none;fill:#ffffff;"/>
</a>
<text x="10.000000" y="7.000000" font-family="Arial" font-size="7"></text>
<rect x="33.000000" y="123.080000" width="24.000000" height="24.000000" rx="0.1" ry="0.1" style="stroke:none;fill:#aaaaaa;;filter:url(#filter);"/>
<rect x="32.000000" y="122.080000" width="24.000000" height="24.000000" rx="0" ry="0" style="stroke:none;fill:#47945E;"/>
<text x="44.000000" y="136.080000" font-family="Arial" font-size="7" text-anchor="middle" fill="#FFFFFF">x</text>
<circle cx="34.000000" cy="124.080000" r="1"/>
<line x1="29.000000" y1="133.080000" x2="32.000000" y2="134.080000"  transform="rotate(0.000000,32.000000,134.080000)" style="stroke: black; stroke-width:0.25;"/>
<line x1="29.000000" y1="135.080000" x2="32.000000" y2="134.080000"  transform="rotate(0.000000,32.000000,134.080000)" style="stroke: black; stroke-width:0.25;"/>
<a xlink:href="s-0x7f8f91ba0b70.svg">
<rect x="157.000000" y="49.160000" width="24.000000" height="24.000000" rx="0.1" ry="0.1" style="stroke:none;fill:#aaaaaa;;filter:url(#filter);"/>
<rect x="156.000000" y="48.160000" width="24.000000" height="24.000000" rx="0" ry="0" style="stroke:none;fill:#003366;"/>
</a>
<a xlink:href="s-0x7f8f91ba0b70.svg">
<text x="168.000000" y="62.160000" font-family="Arial" font-size="7" text-anchor="middle" fill="#FFFFFF">s</text>
</a>
<circle cx="158.000000" cy="50.160000" r="1"/>
<rect x="197.000000" y="45.160000" width="24.000000" height="24.000000" rx="0.1" ry="0.1" style="stroke:none;fill:#aaaaaa;;filter:url(#filter);"/>
<rect x="196.000000" y="44.160000" width="24.000000" height="24.000000" rx="0" ry="0" style="stroke:none;fill:#4B71A1;"/>
<text x="208.000000" y="58.160000" font-family="Arial" font-size="7" text-anchor="middle" fill="#FFFFFF">*</text>
<circle cx="198.000000" cy="46.160000" r="1"/>
<line x1="193.000000" y1="51.160000" x2="196.000000" y2="52.160000"  transform="rotate(0.000000,196.000000,52.160000)" style="stroke: black; stroke-width:0.25;"/>
<line x1="193.000000" y1="53.160000" x2="196.000000" y2="52.160000"  transform="rotate(0.000000,196.000000,52.160000)" style="stroke: black; stroke-width:0.25;"/>
<line x1="193.000000" y1="59.160000" x2="196.000000" y2="60.160000"  transform="rotate(0.000000,196.000000,60.160000)" style="stroke: black; stroke-width:0.25;"/>
<line x1="193.000000" y1="61.160000" x2="196.000000" y2="60.160000"  transform="rotate(0.000000,196.000000,60.160000)" style="stroke: black; stroke-width:0.25;"/>
<a xlink:href="c-0x7f8f91ba1be0.svg">
<rect x="157.000000" y="89.160000" width="24.000000" height="24.000000" rx="0.1" ry="0.1" style="stroke:none;fill:#aaaaaa;;filter:url(#filter);"/>
<rect x="156.000000" y="88.160000" width="24.000000" height="24.000000" rx="0" ry="0" style="stroke:none;fill:#003366;"/>
</a>
<a xlink:href="c-0x7f8f91ba1be0.svg">
<text x="168.000000" y="102.160000" font-family="Arial" font-size="7" text-anchor="middle" fill="#FFFFFF">c</text>
</a>
<circle cx="158.000000" cy="90.160000" r="1"/>
<rect x="197.000000" y="85.160000" width="24.000000" height="24.000000" rx="0.1" ry="0.1" style="stroke:none;fill:#aaaaaa;;filter:url(#filter);"/>
<rect x="196.000000" y="84.160000" width="24.000000" height="24.000000" rx="0" ry="0" style="stroke:none;fill:#4B71A1;"/>
<text x="208.000000" y="98.160000" font-family="Arial" font-size="7" text-anchor="middle" fill="#FFFFFF">*</text>
<circle cx="198.000000" cy="86.160000" r="1"/>
<line x1="193.000000" y1="91.160000" x2="196.000000" y2="92.160000"  transform="rotate(0.000000,196.000000,92.160000)" style="stroke: black; stroke-width:0.25;"/>
<line x1="193.000000" y1="93.160000" x2="196.000000" y2="92.160000"  transform="rotate(0.000000,196.000000,92.160000)" style="stroke: black; stroke-width:0.25;"/>
<line x1="193.000000" y1="99.160000" x2="196.000000" y2="100.160000"  transform="rotate(0.000000,196.000000,100.160000)" style="stroke: black; stroke-width:0.25;"/>
<line x1="193.000000" y1="101.160000" x2="196.000000" y2="100.160000"  transform="rotate(0.000000,196.000000,100.160000)" style="stroke: black; stroke-width:0.25;"/>
<a xlink:href="c-0x7f8f91ba1be0.svg">
<rect x="157.000000" y="129.160000" width="24.000000" height="24.000000" rx="0.1" ry="0.1" style="stroke:none;fill:#aaaaaa;;filter:url(#filter);"/>
<rect x="156.000000" y="128.160000" width="24.000000" height="24.000000" rx="0" ry="0" style="stroke:none;fill:#003366;"/>
</a>
<a xlink:href="c-0x7f8f91ba1be0.svg">
<text x="168.000000" y="142.160000" font-family="Arial" font-size="7" text-anchor="middle" fill="#FFFFFF">c</text>
</a>
<circle cx="158.000000" cy="130.160000" r="1"/>
<rect x="197.000000" y="125.160000" width="24.000000" height="24.000000" rx="0.1" ry="0.1" style="stroke:none;fill:#aaaaaa;;filter:url(#filter);"/>
<rect x="196.000000" y="124.160000" width="24.000000" height="24.000000" rx="0" ry="0" style="stroke:none;fill:#4B71A1;"/>
<text x="208.000000" y="138.160000" font-family="Arial" font-size="7" text-anchor="middle" fill="#FFFFFF">*</text>
<circle cx="198.000000" cy="126.160000" r="1"/>
<line x1="193.000000" y1="131.160000" x2="196.000000" y2="132.160000"  transform="rotate(0.000000,196.000000,132.160000)" style="stroke: black; stroke-width:0.25;"/>
<line x1="193.000000" y1="133.160000" x2="196.000000" y2="132.160000"  transform="rotate(0.000000,196.000000,132.160000)" style="stroke: black; stroke-width:0.25;"/>
<line x1="193.000000" y1="139.160000" x2="196.000000" y2="140.160000"  transform="rotate(0.000000,196.000000,140.160000)" style="stroke: black; stroke-width:0.25;"/>
<line x1="193.000000" y1="141.160000" x2="196.000000" y2="140.160000"  transform="rotate(0.000000,196.000000,140.160000)" style="stroke: black; stroke-width:0.25;"/>
<rect x="137.000000" y="179.160000" width="24.000000" height="24.000000" rx="0.1" ry="0.1" style="stroke:none;fill:#aaaaaa;;filter:url(#filter);"/>
<rect x="136.000000" y="178.160000" width="24.000000" height="24.000000" rx="0" ry="0" style="stroke:none;fill:#f44800;"/>
<text x="148.000000" y="192.160000" font-family="Arial" font-size="7" text-anchor="middle" fill="#FFFFFF">0</text>
<circle cx="138.000000" cy="180.160000" r="1"/>
<line x1="127.000000" y1="169.160000" x2="127.000000" y2="211.160000"  style="stroke: black; stroke-linecap:round; stroke-width:0.25; stroke-dasharray:3,3;"/>
<line x1="127.000000" y1="211.160000" x2="169.000000" y2="211.160000"  style="stroke: black; stroke-linecap:round; stroke-width:0.25; stroke-dasharray:3,3;"/>
<line x1="169.000000" y1="211.160000" x2="169.000000" y2="169.160000"  style="stroke: black; stroke-linecap:round; stroke-width:0.25; stroke-dasharray:3,3;"/>
<line x1="127.000000" y1="169.160000" x2="132.000000" y2="169.160000"  style="stroke: black; stroke-linecap:round; stroke-width:0.25; stroke-dasharray:3,3;"/>
<line x1="164.250000" y1="169.160000" x2="169.000000" y2="169.160000"  style="stroke: black; stroke-linecap:round; stroke-width:0.25; stroke-dasharray:3,3;"/>
<text x="132.000000" y="171.160000" font-family="Arial" font-size="7">clipCond</text>
<a xlink:href="s-0x7f8f91ba0b70.svg">
<rect x="137.000000" y="221.160000" width="24.000000" height="24.000000" rx="0.1" ry="0.1" style="stroke:none;fill:#aaaaaa;;filter:url(#filter);"/>
<rect x="136.000000" y="220.160000" width="24.000000" height="24.000000" rx="0" ry="0" style="stroke:none;fill:#003366;"/>
</a>
<a xlink:href="s-0x7f8f91ba0b70.svg">
<text x="148.000000" y="234.160000" font-family="Arial" font-size="7" text-anchor="middle" fill="#FFFFFF">s</text>
</a>
<circle cx="138.000000" cy="222.160000" r="1"/>
<rect x="187.000000" y="195.160000" width="24.000000" height="24.000000" rx="0.1" ry="0.1" style="stroke:none;fill:#aaaaaa;;filter:url(#filter);"/>
<rect x="186.000000" y="194.160000" width="24.000000" height="24.000000" rx="0" ry="0" style="stroke:none;fill:#4B71A1;"/>
<text x="198.000000" y="208.160000" font-family="Arial" font-size="7" text-anchor="middle" fill="#FFFFFF">-</text>
<circle cx="188.000000" cy="196.160000" r="1"/>
<line x1="183.000000" y1="201.160000" x2="186.000000" y2="202.160000"  transform="rotate(0.000000,186.000000,202.160000)" style="stroke: black; stroke-width:0.25;"/>
<line x1="183.000000" y1="203.160000" x2="186.000000" y2="202.160000"  transform="rotate(0.000000,186.000000,202.160000)" style="stroke: black; stroke-width:0.25;"/>
<line x1="183.000000" y1="209.160000" x2="186.000000" y2="210.160000"  transform="rotate(0.000000,186.000000,210.160000)" style="stroke: black; stroke-width:0.25;"/>
<line x1="183.000000" y1="211.160000" x2="186.000000" y2="210.160000"  transform="rotate(0.000000,186.000000,210.160000)" style="stroke: black; stroke-width:0.25;"/>
<rect x="227.000000" y="191.160000" width="24.000000" height="24.000000" rx="0.1" ry="0.1" style="stroke:none;fill:#aaaaaa;;filter:url(#filter);"/>
<rect x="226.000000" y="190.160000" width="24.000000" height="24.000000" rx="0" ry="0" style="stroke:none;fill:#4B71A1;"/>
<text x="238.000000" y="204.160000" font-family="Arial" font-size="7" text-anchor="middle" fill="#FFFFFF">*</text>
<circle cx="228.000000" cy="192.160000" r="1"/>
<line x1="223.000000" y1="197.160000" x2="226.000000" y2="198.160000"  transform="rotate(0.000000,226.000000,198.160000)" style="stroke: black; stroke-width:0.25;"/>
<line x1="223.000000" y1="199.160000" x2="226.000000" y2="198.160000"  transform="rotate(0.000000,226.000000,198.160000)" style="stroke: black; stroke-width:0.25;"/>
<line x1="223.000000" y1="205.160000" x2="226.000000" y2="206.160000"  transform="rotate(0.000000,226.000000,206.160000)" style="stroke: black; stroke-width:0.25;"/>
<line x1="223.000000" y1="207.160000" x2="226.000000" y2="206.160000"  transform="rotate(0.000000,226.000000,206.160000)" style="stroke: black; stroke-width:0.25;"/>
<rect x="347.000000" y="115.160000" width="24.000000" height="24.000000" rx="0.1" ry="0.1" style="stroke:none;fill:#aaaaaa;;filter:url(#filter);"/>
<rect x="346.000000" y="114.160000" width="24.000000" height="24.000000" rx="0" ry="0" style="stroke:none;fill:#f44800;"/>
<text x="358.000000" y="128.160000" font-family="Arial" font-size="7" text-anchor="middle" fill="#FFFFFF">1</text>
<circle cx="348.000000" cy="116.160000" r="1"/>
<line x1="337.000000" y1="105.160000" x2="337.000000" y2="147.160000"  style="stroke: black; stroke-linecap:round; stroke-width:0.25; stroke-dasharray:3,3;"/>
<line x1="337.000000" y1="147.160000" x2="379.000000" y2="147.160000"  style="stroke: black; stroke-linecap:round; stroke-width:0.25; stroke-dasharray:3,3;"/>
<line x1="379.000000" y1="147.160000" x2="379.000000" y2="105.160000"  style="stroke: black; stroke-linecap:round; stroke-width:0.25; stroke-dasharray:3,3;"/>
<line x1="337.000000" y1="105.160000" x2="342.000000" y2="105.160000"  style="stroke: black; stroke-linecap:round; stroke-width:0.25; stroke-dasharray:3,3;"/>
<line x1="351.675000" y1="105.160000" x2="379.000000" y2="105.160000"  style="stroke: black; stroke-linecap:round; stroke-width:0.25; stroke-dasharray:3,3;"/>
<text x="342.000000" y="107.160000" font-family="Arial" font-size="7">S</text>
<rect x="397.000000" y="111.160000" width="24.000000" height="24.000000" rx="0.1" ry="0.1" style="stroke:none;fill:#aaaaaa;;filter:url(#filter);"/>
<rect x="396.000000" y="110.160000" width="24.000000" height="24.000000" rx="0" ry="0" style="stroke:none;fill:#4B71A1;"/>
<text x="408.000000" y="124.160000" font-family="Arial" font-size="7" text-anchor="middle" fill="#FFFFFF">*</text>
<circle cx="398.000000" cy="112.160000" r="1"/>
<line x1="393.000000" y1="117.160000" x2="396.000000" y2="118.160000"  transform="rotate(0.000000,396.000000,118.160000)" style="stroke: black; stroke-width:0.25;"/>
<line x1="393.000000" y1="119.160000" x2="396.000000" y2="118.160000"  transform="rotate(0.000000,396.000000,118.160000)" style="stroke: black; stroke-width:0.25;"/>
<line x1="393.000000" y1="125.160000" x2="396.000000" y2="126.160000"  transform="rotate(0.000000,396.000000,126.160000)" style="stroke: black; stroke-width:0.25;"/>
<line x1="393.000000" y1="127.160000" x2="396.000000" y2="126.160000"  transform="rotate(0.000000,396.000000,126.160000)" style="stroke: black; stroke-width:0.25;"/>
<rect x="347.000000" y="165.160000" width="24.000000" height="24.000000" rx="0.1" ry="0.1" style="stroke:none;fill:#aaaaaa;;filter:url(#filter);"/>
<rect x="346.000000" y="164.160000" width="24.000000" height="24.000000" rx="0" ry="0" style="stroke:none;fill:#47945E;"/>
<text x="358.000000" y="178.160000" font-family="Arial" font-size="7" text-anchor="middle" fill="#FFFFFF">x</text>
<circle cx="348.000000" cy="166.160000" r="1"/>
<rect x="387.000000" y="161.160000" width="24.000000" height="24.000000" rx="0.1" ry="0.1" style="stroke:none;fill:#aaaaaa;;filter:url(#filter);"/>
<rect x="386.000000" y="160.160000" width="24.000000" height="24.000000" rx="0" ry="0" style="stroke:none;fill:#4B71A1;"/>
<text x="398.000000" y="174.160000" font-family="Arial" font-size="7" text-anchor="middle" fill="#FFFFFF">+</text>
<circle cx="388.000000" cy="162.160000" r="1"/>
<line x1="383.000000" y1="167.160000" x2="386.000000" y2="168.160000"  transform="rotate(0.000000,386.000000,168.160000)" style="stroke: black; stroke-width:0.25;"/>
<line x1="383.000000" y1="169.160000" x2="386.000000" y2="168.160000"  transform="rotate(0.000000,386.000000,168.160000)" style="stroke: black; stroke-width:0.25;"/>
<line x1="383.000000" y1="175.160000" x2="386.000000" y2="176.160000"  transform="rotate(0.000000,386.000000,176.160000)" style="stroke: black; stroke-width:0.25;"/>
<line x1="383.000000" y1="177.160000" x2="386.000000" y2="176.160000"  transform="rotate(0.000000,386.000000,176.160000)" style="stroke: black; stroke-width:0.25;"/>
<line x1="422.000000" y1="122.160000" x2="422.000000" y2="118.160000"  style="stroke:black; stroke-linecap:round; stroke-width:0.25;"/>
<line x1="422.000000" y1="118.160000" x2="426.000000" y2="118.160000"  style="stroke:black; stroke-linecap:round; stroke-width:0.25;"/>
<line x1="426.000000" y1="118.160000" x2="426.000000" y2="122.160000"  style="stroke:black; stroke-linecap:round; stroke-width:0.25;"/>
<line x1="430.000000" y1="172.160000" x2="430.000000" y2="168.160000"  style="stroke:black; stroke-linecap:round; stroke-width:0.25;"/>
<line x1="430.000000" y1="168.160000" x2="434.000000" y2="168.160000"  style="stroke:black; stroke-linecap:round; stroke-width:0.25;"/>
<line x1="434.000000" y1="168.160000" x2="434.000000" y2="172.160000"  style="stroke:black; stroke-linecap:round; stroke-width:0.25;"/>
<line x1="15.000000" y1="15.000000" x2="15.000000" y2="253.160000"  style="stroke: black; stroke-linecap:round; stroke-width:0.25; stroke-dasharray:3,3;"/>
<line x1="15.000000" y1="253.160000" x2="461.000000" y2="253.160000"  style="stroke: black; stroke-linecap:round; stroke-width:0.25; stroke-dasharray:3,3;"/>
<line x1="461.000000" y1="253.160000" x2="461.000000" y2="15.000000"  style="stroke: black; stroke-linecap:round; stroke-width:0.25; stroke-dasharray:3,3;"/>
<line x1="15.000000" y1="15.000000" x2="20.000000" y2="15.000000"  style="stroke: black; stroke-linecap:round; stroke-width:0.25; stroke-dasharray:3,3;"/>
<line x1="61.925000" y1="15.000000" x2="461.000000" y2="15.000000"  style="stroke: black; stroke-linecap:round; stroke-width:0.25; stroke-dasharray:3,3;"/>
<text x="20.000000" y="17.000000" font-family="Arial" font-size="7">nlf2(10)(1)</text>
<line x1="463.000000" y1="129.080000" x2="466.000000" y2="130.080000"  transform="rotate(0.000000,466.000000,130.080000)" style="stroke: black; stroke-width:0.25;"/>
<line x1="463.000000" y1="131.080000" x2="466.000000" y2="130.080000"  transform="rotate(0.000000,466.000000,130.080000)" style="stroke: black; stroke-width:0.25;"/>
<line x1="463.000000" y1="137.080000" x2="466.000000" y2="138.080000"  transform="rotate(0.000000,466.000000,138.080000)" style="stroke: black; stroke-width:0.25;"/>
<line x1="463.000000" y1="139.080000" x2="466.000000" y2="138.080000"  transform="rotate(0.000000,466.000000,138.080000)" style="stroke: black; stroke-width:0.25;"/>
<line x1="10.000000" y1="134.080000" x2="20.000000" y2="134.080000"  style="stroke:black; stroke-linecap:round; stroke-width:0.25;"/>
<line x1="20.000000" y1="134.080000" x2="24.000000" y2="134.080000"  style="stroke:black; stroke-linecap:round; stroke-width:0.25;"/>
<line x1="24.000000" y1="134.080000" x2="28.000000" y2="134.080000"  style="stroke:black; stroke-linecap:round; stroke-width:0.25;"/>
<line x1="28.000000" y1="134.080000" x2="28.000000" y2="134.080000"  style="stroke:black; stroke-linecap:round; stroke-width:0.25;"/>
<line x1="28.000000" y1="134.080000" x2="32.000000" y2="134.080000"  style="stroke:black; stroke-linecap:round; stroke-width:0.25;"/>
<line x1="68.000000" y1="24.080000" x2="68.000000" y2="150.160000"  style="stroke:black; stroke-linecap:round; stroke-width:0.25;"/>
<line x1="68.000000" y1="150.160000" x2="76.000000" y2="150.160000"  style="stroke:black; stroke-linecap:round; stroke-width:0.25;"/>
<line x1="76.000000" y1="24.080000" x2="68.000000" y2="24.080000"  style="stroke:black; stroke-linecap:round; stroke-width:0.25;"/>
<line x1="76.000000" y1="32.080000" x2="76.000000" y2="32.080000"  style="stroke:black; stroke-linecap:round; stroke-width:0.25;"/>
<line x1="76.000000" y1="32.080000" x2="76.000000" y2="134.160000"  style="stroke:black; stroke-linecap:round; stroke-width:0.25;"/>
<line x1="76.000000" y1="134.160000" x2="76.000000" y2="134.160000"  style="stroke:black; stroke-linecap:round; stroke-width:0.25;"/>
<line x1="76.000000" y1="134.160000" x2="80.000000" y2="134.160000"  style="stroke:black; stroke-linecap:round; stroke-width:0.25;"/>
<line x1="76.000000" y1="150.160000" x2="80.000000" y2="150.160000"  style="stroke:black; stroke-linecap:round; stroke-width:0.25;"/>
<line x1="80.000000" y1="134.160000" x2="84.000000" y2="134.160000"  style="stroke:black; stroke-linecap:round; stroke-width:0.25;"/>
<line x1="80.000000" y1="150.160000" x2="84.000000" y2="150.160000"  style="stroke:black; stroke-linecap:round; stroke-width:0.25;"/>
<line x1="84.000000" y1="134.160000" x2="90.000000" y2="130.160000"  style="stroke:black; stroke-linecap:round; stroke-width:0.25;"/>
<line x1="84.000000" y1="134.160000" x2="90.000000" y2="138.160000"  style="stroke:black; stroke-linecap:round; stroke-width:0.25;"/>
<line x1="84.000000" y1="150.160000" x2="90.000000" y2="146.160000"  style="stroke:black; stroke-linecap:round; stroke-width:0.25;"/>
<line x1="84.000000" y1="150.160000" x2="90.000000" y2="154.160000"  style="stroke:black; stroke-linecap:round; stroke-width:0.25;"/>
<line x1="90.000000" y1="130.160000" x2="94.000000" y2="130.160000"  style="stroke:black; stroke-linecap:round; stroke-width:0.25;"/>
<line x1="90.000000" y1="138.160000" x2="94.000000" y2="138.160000"  style="stroke:black; stroke-linecap:round; stroke-width:0.25;"/>
<line x1="90.000000" y1="146.160000" x2="94.000000" y2="146.160000"  style="stroke:black; stroke-linecap:round; stroke-width:0.25;"/>
<line x1="90.000000" y1="154.160000" x2="94.000000" y2="154.160000"  style="stroke:black; stroke-linecap:round; stroke-width:0.25;"/>
<line x1="94.000000" y1="130.160000" x2="98.000000" y2="130.160000"  style="stroke:black; stroke-linecap:round; stroke-width:0.25;"/>
<line x1="94.000000" y1="138.160000" x2="98.000000" y2="138.160000"  style="stroke:black; stroke-linecap:round; stroke-width:0.25;"/>
<line x1="94.000000" y1="146.160000" x2="98.000000" y2="146.160000"  style="stroke:black; stroke-linecap:round; stroke-width:0.25;"/>
<line x1="94.000000" y1="154.160000" x2="98.000000" y2="154.160000"  style="stroke:black; stroke-linecap:round; stroke-width:0.25;"/>
<line x1="98.000000" y1="40.160000" x2="122.000000" y2="40.160000"  style="stroke:black; stroke-linecap:round; stroke-width:0.25;"/>
<line x1="98.000000" y1="130.160000" x2="98.000000" y2="40.160000"  style="stroke:black; stroke-linecap:round; stroke-width:0.25;"/>
<line x1="98.000000" y1="130.160000" x2="98.000000" y2="130.160000"  style="stroke:black; stroke-linecap:round; stroke-width:0.25;"/>
<line x1="98.000000" y1="138.160000" x2="106.000000" y2="138.160000"  style="stroke:black; stroke-linecap:round; stroke-width:0.25;"/>
<line x1="98.000000" y1="146.160000" x2="114.000000" y2="146.160000"  style="stroke:black; stroke-linecap:round; stroke-width:0.25;"/>
<line x1="98.000000" y1="154.160000" x2="122.000000" y2="154.160000"  style="stroke:black; stroke-linecap:round; stroke-width:0.25;"/>
<line x1="106.000000" y1="80.160000" x2="122.000000" y2="80.160000"  style="stroke:black; stroke-linecap:round; stroke-width:0.25;"/>
<line x1="106.000000" y1="138.160000" x2="106.000000" y2="80.160000"  style="stroke:black; stroke-linecap:round; stroke-width:0.25;"/>
<line x1="114.000000" y1="120.160000" x2="122.000000" y2="120.160000"  style="stroke:black; stroke-linecap:round; stroke-width:0.25;"/>
<line x1="114.000000" y1="146.160000" x2="114.000000" y2="120.160000"  style="stroke:black; stroke-linecap:round; stroke-width:0.25;"/>
<line x1="122.000000" y1="40.160000" x2="152.000000" y2="40.160000"  style="stroke:black; stroke-linecap:round; stroke-width:0.25;"/>
<line x1="122.000000" y1="80.160000" x2="152.000000" y2="80.160000"  style="stroke:black; stroke-linecap:round; stroke-width:0.25;"/>
<line x1="122.000000" y1="120.160000" x2="152.000000" y2="120.160000"  style="stroke:black; stroke-linecap:round; stroke-width:0.25;"/>
<line x1="122.000000" y1="154.160000" x2="122.000000" y2="160.160000"  style="stroke:black; stroke-linecap:round; stroke-width:0.25;"/>
<line x1="122.000000" y1="160.160000" x2="122.000000" y2="160.160000"  style="stroke:black; stroke-linecap:round; stroke-width:0.25;"/>
<line x1="122.000000" y1="160.160000" x2="168.000000" y2="160.160000"  style="stroke:black; stroke-linecap:round; stroke-width:0.25;"/>
<line x1="152.000000" y1="40.160000" x2="168.000000" y2="40.160000"  style="stroke:black; stroke-linecap:round; stroke-width:0.25;"/>
<line x1="152.000000" y1="80.160000" x2="168.000000" y2="80.160000"  style="stroke:black; stroke-linecap:round; stroke-width:0.25;"/>
<line x1="152.000000" y1="120.160000" x2="168.000000" y2="120.160000"  style="stroke:black; stroke-linecap:round; stroke-width:0.25;"/>
<line x1="160.000000" y1="190.160000" x2="164.000000" y2="190.160000"  style="stroke:black; stroke-linecap:round; stroke-width:0.25;"/>
<line x1="160.000000" y1="232.160000" x2="164.000000" y2="232.160000"  style="stroke:black; stroke-linecap:round; stroke-width:0.25;"/>
<line x1="164.000000" y1="190.160000" x2="174.000000" y2="190.160000"  style="stroke:black; stroke-linecap:round; stroke-width:0.25;"/>
<line x1="164.000000" y1="232.160000" x2="174.000000" y2="232.160000"  style="stroke:black; stroke-linecap:round; stroke-width:0.25;"/>
<line x1="168.000000" y1="40.160000" x2="184.000000" y2="40.160000"  style="stroke:black; stroke-linecap:round; stroke-width:0.25;"/>
<line x1="168.000000" y1="80.160000" x2="184.000000" y2="80.160000"  style="stroke:black; stroke-linecap:round; stroke-width:0.25;"/>
<line x1="168.000000" y1="120.160000" x2="184.000000" y2="120.160000"  style="stroke:black; stroke-linecap:round; stroke-width:0.25;"/>
<line x1="168.000000" y1="160.160000" x2="214.000000" y2="160.160000"  style="stroke:black; stroke-linecap:round; stroke-width:0.25;"/>
<line x1="174.000000" y1="190.160000" x2="182.000000" y2="190.160000"  style="stroke:black; stroke-linecap:round; stroke-width:0.25;"/>
<line x1="174.000000" y1="210.160000" x2="182.000000" y2="210.160000"  style="stroke:black; stroke-linecap:round; stroke-width:0.25;"/>
<line x1="174.000000" y1="232.160000" x2="174.000000" y2="210.160000"  style="stroke:black; stroke-linecap:round; stroke-width:0.25;"/>
<line x1="174.000000" y1="232.160000" x2="174.000000" y2="232.160000"  style="stroke:black; stroke-linecap:round; stroke-width:0.25;"/>
<line x1="180.000000" y1="60.160000" x2="184.000000" y2="60.160000"  style="stroke:black; stroke-linecap:round; stroke-width:0.25;"/>
<line x1="180.000000" y1="100.160000" x2="184.000000" y2="100.160000"  style="stroke:black; stroke-linecap:round; stroke-width:0.25;"/>
<line x1="180.000000" y1="140.160000" x2="184.000000" y2="140.160000"  style="stroke:black; stroke-linecap:round; stroke-width:0.25;"/>
<line x1="182.000000" y1="190.160000" x2="182.000000" y2="202.160000"  style="stroke:black; stroke-linecap:round; stroke-width:0.25;"/>
<line x1="182.000000" y1="202.160000" x2="182.000000" y2="202.160000"  style="stroke:black; stroke-linecap:round; stroke-width:0.25;"/>
<line x1="182.000000" y1="202.160000" x2="186.000000" y2="202.160000"  style="stroke:black; stroke-linecap:round; stroke-width:0.25;"/>
<line x1="182.000000" y1="210.160000" x2="186.000000" y2="210.160000"  style="stroke:black; stroke-linecap:round; stroke-width:0.25;"/>
<line x1="184.000000" y1="40.160000" x2="192.000000" y2="40.160000"  style="stroke:black; stroke-linecap:round; stroke-width:0.25;"/>
<line x1="184.000000" y1="60.160000" x2="192.000000" y2="60.160000"  style="stroke:black; stroke-linecap:round; stroke-width:0.25;"/>
<line x1="184.000000" y1="80.160000" x2="192.000000" y2="80.160000"  style="stroke:black; stroke-linecap:round; stroke-width:0.25;"/>
<line x1="184.000000" y1="100.160000" x2="192.000000" y2="100.160000"  style="stroke:black; stroke-linecap:round; stroke-width:0.25;"/>
<line x1="184.000000" y1="120.160000" x2="192.000000" y2="120.160000"  style="stroke:black; stroke-linecap:round; stroke-width:0.25;"/>
<line x1="184.000000" y1="140.160000" x2="192.000000" y2="140.160000"  style="stroke:black; stroke-linecap:round; stroke-width:0.25;"/>
<line x1="192.000000" y1="40.160000" x2="192.000000" y2="52.160000"  style="stroke:black; stroke-linecap:round; stroke-width:0.25;"/>
<line x1="192.000000" y1="52.160000" x2="192.000000" y2="52.160000"  style="stroke:black; stroke-linecap:round; stroke-width:0.25;"/>
<line x1="192.000000" y1="52.160000" x2="196.000000" y2="52.160000"  style="stroke:black; stroke-linecap:round; stroke-width:0.25;"/>
<line x1="192.000000" y1="60.160000" x2="196.000000" y2="60.160000"  style="stroke:black; stroke-linecap:round; stroke-width:0.25;"/>
<line x1="192.000000" y1="80.160000" x2="192.000000" y2="92.160000"  style="stroke:black; stroke-linecap:round; stroke-width:0.25;"/>
<line x1="192.000000" y1="92.160000" x2="192.000000" y2="92.160000"  style="stroke:black; stroke-linecap:round; stroke-width:0.25;"/>
<line x1="192.000000" y1="92.160000" x2="196.000000" y2="92.160000"  style="stroke:black; stroke-linecap:round; stroke-width:0.25;"/>
<line x1="192.000000" y1="100.160000" x2="196.000000" y2="100.160000"  style="stroke:black; stroke-linecap:round; stroke-width:0.25;"/>
<line x1="192.000000" y1="120.160000" x2="192.000000" y2="132.160000"  style="stroke:black; stroke-linecap:round; stroke-width:0.25;"/>
<line x1="192.000000" y1="132.160000" x2="192.000000" y2="132.160000"  style="stroke:black; stroke-linecap:round; stroke-width:0.25;"/>
<line x1="192.000000" y1="132.160000" x2="196.000000" y2="132.160000"  style="stroke:black; stroke-linecap:round; stroke-width:0.25;"/>
<line x1="192.000000" y1="140.160000" x2="196.000000" y2="140.160000"  style="stroke:black; stroke-linecap:round; stroke-width:0.25;"/>
<line x1="210.000000" y1="206.160000" x2="214.000000" y2="206.160000"  style="stroke:black; stroke-linecap:round; stroke-width:0.25;"/>
<line x1="214.000000" y1="160.160000" x2="222.000000" y2="160.160000"  style="stroke:black; stroke-linecap:round; stroke-width:0.25;"/>
<line x1="214.000000" y1="206.160000" x2="222.000000" y2="206.160000"  style="stroke:black; stroke-linecap:round; stroke-width:0.25;"/>
<line x1="220.000000" y1="56.160000" x2="224.000000" y2="56.160000"  style="stroke:black; stroke-linecap:round; stroke-width:0.25;"/>
<line x1="220.000000" y1="96.160000" x2="224.000000" y2="96.160000"  style="stroke:black; stroke-linecap:round; stroke-width:0.25;"/>
<line x1="220.000000" y1="136.160000" x2="224.000000" y2="136.160000"  style="stroke:black; stroke-linecap:round; stroke-width:0.25;"/>
<line x1="222.000000" y1="160.160000" x2="222.000000" y2="198.160000"  style="stroke:black; stroke-linecap:round; stroke-width:0.25;"/>
<line x1="222.000000" y1="198.160000" x2="222.000000" y2="198.160000"  style="stroke:black; stroke-linecap:round; stroke-width:0.25;"/>
<line x1="222.000000" y1="198.160000" x2="226.000000" y2="198.160000"  style="stroke:black; stroke-linecap:round; stroke-width:0.25;"/>
<line x1="222.000000" y1="206.160000" x2="226.000000" y2="206.160000"  style="stroke:black; stroke-linecap:round; stroke-width:0.25;"/>
<line x1="224.000000" y1="56.160000" x2="254.000000" y2="56.160000"  style="stroke:black; stroke-linecap:round; stroke-width:0.25;"/>
<line x1="224.000000" y1="96.160000" x2="254.000000" y2="96.160000"  style="stroke:black; stroke-linecap:round; stroke-width:0.25;"/>
<line x1="224.000000" y1="136.160000" x2="254.000000" y2="136.160000"  style="stroke:black; stroke-linecap:round; stroke-width:0.25;"/>
<line x1="237.980000" y1="24.080000" x2="76.000000" y2="24.080000"  style="stroke:black; stroke-linecap:round; stroke-width:0.25;"/>
<line x1="237.980000" y1="32.080000" x2="76.000000" y2="32.080000"  style="stroke:black; stroke-linecap:round; stroke-width:0.25;"/>
<line x1="241.980000" y1="24.080000" x2="237.980000" y2="24.080000"  style="stroke:black; stroke-linecap:round; stroke-width:0.25;"/>
<line x1="241.980000" y1="32.080000" x2="237.980000" y2="32.080000"  style="stroke:black; stroke-linecap:round; stroke-width:0.25;"/>
<line x1="245.980000" y1="24.080000" x2="241.980000" y2="24.080000"  style="stroke:black; stroke-linecap:round; stroke-width:0.25;"/>
<line x1="245.980000" y1="32.080000" x2="241.980000" y2="32.080000"  style="stroke:black; stroke-linecap:round; stroke-width:0.25;"/>
<line x1="250.000000" y1="202.160000" x2="254.000000" y2="202.160000"  style="stroke:black; stroke-linecap:round; stroke-width:0.25;"/>
<line x1="254.000000" y1="56.160000" x2="332.000000" y2="96.160000"  style="stroke:black; stroke-linecap:round; stroke-width:0.25;"/>
<line x1="254.000000" y1="96.160000" x2="332.000000" y2="156.160000"  style="stroke:black; stroke-linecap:round; stroke-width:0.25;"/>
<line x1="254.000000" y1="136.160000" x2="332.000000" y2="96.160000"  style="stroke:black; stroke-linecap:round; stroke-width:0.25;"/>
<line x1="254.000000" y1="202.160000" x2="332.000000" y2="156.160000"  style="stroke:black; stroke-linecap:round; stroke-width:0.25;"/>
<line x1="254.020000" y1="24.080000" x2="245.980000" y2="32.080000"  style="stroke:black; stroke-linecap:round; stroke-width:0.25;"/>
<line x1="254.020000" y1="32.080000" x2="245.980000" y2="24.080000"  style="stroke:black; stroke-linecap:round; stroke-width:0.25;"/>
<line x1="258.020000" y1="24.080000" x2="254.020000" y2="24.080000"  style="stroke:black; stroke-linecap:round; stroke-width:0.25;"/>
<line x1="258.020000" y1="32.080000" x2="254.020000" y2="32.080000"  style="stroke:black; stroke-linecap:round; stroke-width:0.25;"/>
<line x1="262.020000" y1="24.080000" x2="258.020000" y2="24.080000"  style="stroke:black; stroke-linecap:round; stroke-width:0.25;"/>
<line x1="262.020000" y1="32.080000" x2="258.020000" y2="32.080000"  style="stroke:black; stroke-linecap:round; stroke-width:0.25;"/>
<line x1="332.000000" y1="96.160000" x2="358.000000" y2="96.160000"  style="stroke:black; stroke-linecap:round; stroke-width:0.25;"/>
<line x1="332.000000" y1="156.160000" x2="342.000000" y2="156.160000"  style="stroke:black; stroke-linecap:round; stroke-width:0.25;"/>
<line x1="342.000000" y1="156.160000" x2="358.000000" y2="156.160000"  style="stroke:black; stroke-linecap:round; stroke-width:0.25;"/>
<line x1="358.000000" y1="96.160000" x2="384.000000" y2="96.160000"  style="stroke:black; stroke-linecap:round; stroke-width:0.25;"/>
<line x1="358.000000" y1="156.160000" x2="374.000000" y2="156.160000"  style="stroke:black; stroke-linecap:round; stroke-width:0.25;"/>
<line x1="370.000000" y1="126.160000" x2="374.000000" y2="126.160000"  style="stroke:black; stroke-linecap:round; stroke-width:0.25;"/>
<line x1="370.000000" y1="176.160000" x2="374.000000" y2="176.160000"  style="stroke:black; stroke-linecap:round; stroke-width:0.25;"/>
<line x1="374.000000" y1="126.160000" x2="384.000000" y2="126.160000"  style="stroke:black; stroke-linecap:round; stroke-width:0.25;"/>
<line x1="374.000000" y1="156.160000" x2="382.000000" y2="156.160000"  style="stroke:black; stroke-linecap:round; stroke-width:0.25;"/>
<line x1="374.000000" y1="176.160000" x2="382.000000" y2="176.160000"  style="stroke:black; stroke-linecap:round; stroke-width:0.25;"/>
<line x1="382.000000" y1="156.160000" x2="382.000000" y2="168.160000"  style="stroke:black; stroke-linecap:round; stroke-width:0.25;"/>
<line x1="382.000000" y1="168.160000" x2="382.000000" y2="168.160000"  style="stroke:black; stroke-linecap:round; stroke-width:0.25;"/>
<line x1="382.000000" y1="168.160000" x2="386.000000" y2="168.160000"  style="stroke:black; stroke-linecap:round; stroke-width:0.25;"/>
<line x1="382.000000" y1="176.160000" x2="386.000000" y2="176.160000"  style="stroke:black; stroke-linecap:round; stroke-width:0.25;"/>
<line x1="384.000000" y1="96.160000" x2="392.000000" y2="96.160000"  style="stroke:black; stroke-linecap:round; stroke-width:0.25;"/>
<line x1="384.000000" y1="126.160000" x2="392.000000" y2="126.160000"  style="stroke:black; stroke-linecap:round; stroke-width:0.25;"/>
<line x1="392.000000" y1="96.160000" x2="392.000000" y2="118.160000"  style="stroke:black; stroke-linecap:round; stroke-width:0.25;"/>
<line x1="392.000000" y1="118.160000" x2="392.000000" y2="118.160000"  style="stroke:black; stroke-linecap:round; stroke-width:0.25;"/>
<line x1="392.000000" y1="118.160000" x2="396.000000" y2="118.160000"  style="stroke:black; stroke-linecap:round; stroke-width:0.25;"/>
<line x1="392.000000" y1="126.160000" x2="396.000000" y2="126.160000"  style="stroke:black; stroke-linecap:round; stroke-width:0.25;"/>
<line x1="410.000000" y1="172.160000" x2="414.000000" y2="172.160000"  style="stroke:black; stroke-linecap:round; stroke-width:0.25;"/>
<line x1="414.000000" y1="172.160000" x2="424.000000" y2="172.160000"  style="stroke:black; stroke-linecap:round; stroke-width:0.25;"/>
<line x1="420.000000" y1="122.160000" x2="424.000000" y2="122.160000"  style="stroke:black; stroke-linecap:round; stroke-width:0.25;"/>
<line x1="424.000000" y1="24.080000" x2="262.020000" y2="24.080000"  style="stroke:black; stroke-linecap:round; stroke-width:0.25;"/>
<line x1="424.000000" y1="32.080000" x2="262.020000" y2="32.080000"  style="stroke:black; stroke-linecap:round; stroke-width:0.25;"/>
<line x1="424.000000" y1="32.080000" x2="424.000000" y2="32.080000"  style="stroke:black; stroke-linecap:round; stroke-width:0.25;"/>
<line x1="424.000000" y1="118.160000" x2="424.000000" y2="32.080000"  style="stroke:black; stroke-linecap:round; stroke-width:0.25;"/>
<line x1="424.000000" y1="122.160000" x2="426.000000" y2="122.160000"  style="stroke:black; stroke-linecap:round; stroke-width:0.25;"/>
<line x1="424.000000" y1="172.160000" x2="434.000000" y2="172.160000"  style="stroke:black; stroke-linecap:round; stroke-width:0.25;"/>
<line x1="426.000000" y1="122.160000" x2="440.000000" y2="122.160000"  style="stroke:black; stroke-linecap:round; stroke-width:0.25;"/>
<line x1="432.000000" y1="24.080000" x2="424.000000" y2="24.080000"  style="stroke:black; stroke-linecap:round; stroke-width:0.25;"/>
<line x1="432.000000" y1="168.160000" x2="432.000000" y2="24.080000"  style="stroke:black; stroke-linecap:round; stroke-width:0.25;"/>
<line x1="434.000000" y1="172.160000" x2="440.000000" y2="172.160000"  style="stroke:black; stroke-linecap:round; stroke-width:0.25;"/>
<line x1="440.000000" y1="122.160000" x2="448.000000" y2="122.160000"  style="stroke:black; stroke-linecap:round; stroke-width:0.25;"/>
<line x1="440.000000" y1="138.080000" x2="448.000000" y2="138.080000"  style="stroke:black; stroke-linecap:round; stroke-width:0.25;"/>
<line x1="440.000000" y1="172.160000" x2="440.000000" y2="138.080000"  style="stroke:black; stroke-linecap:round; stroke-width:0.25;"/>
<line x1="440.000000" y1="172.160000" x2="440.000000" y2="172.160000"  style="stroke:black; stroke-linecap:round; stroke-width:0.25;"/>
<line x1="448.000000" y1="122.160000" x2="448.000000" y2="130.080000"  style="stroke:black; stroke-linecap:round; stroke-width:0.25;"/>
<line x1="448.000000" y1="130.080000" x2="448.000000" y2="130.080000"  style="stroke:black; stroke-linecap:round; stroke-width:0.25;"/>
<line x1="448.000000" y1="130.080000" x2="452.000000" y2="130.080000"  style="stroke:black; stroke-linecap:round; stroke-width:0.25;"/>
<line x1="448.000000" y1="138.080000" x2="452.000000" y2="138.080000"  style="stroke:black; stroke-linecap:round; stroke-width:0.25;"/>
<line x1="452.000000" y1="130.080000" x2="456.000000" y2="130.080000"  style="stroke:black; stroke-linecap:round; stroke-width:0.25;"/>
<line x1="452.000000" y1="138.080000" x2="456.000000" y2="138.080000"  style="stroke:black; stroke-linecap:round; stroke-width:0.25;"/>
<line x1="456.000000" y1="130.080000" x2="466.000000" y2="130.080000"  style="stroke:black; stroke-linecap:round; stroke-width:0.25;"/>
<line x1="456.000000" y1="138.080000" x2="466.000000" y2="138.080000"  style="stroke:black; stroke-linecap:round; stroke-width:0.25;"/>
</svg>
