<?xml version="1.0"?>
<svg xmlns="http://www.w3.org/2000/svg" xmlns:xlink="http://www.w3.org/1999/xlink" viewBox="0 0 170.300000 72.000000" width="85.150000mm" height="36.000000mm" version="1.1">
<defs>
   <filter id="filter" filterRes="18" x="0" y="0">
     <feGaussianBlur in="SourceGraphic" stdDeviation="1.55" result="blur"/>
     <feOffset in="blur" dx="3" dy="3"/>
   </filter>
</defs>
<a xlink:href="s-0x7f8f91c4e020.svg">
<rect x="1.000000" y="1.000000" width="169.300000" height="71.000000" rx="0.1" ry="0.1" style="stroke:none;fill:#aaaaaa;;filter:url(#filter);"/>
<rect x="0.000000" y="0.000000" width="169.300000" height="71.000000" rx="0" ry="0" style="stroke:none;fill:#ffffff;"/>
</a>
<text x="10.000000" y="7.000000" font-family="Arial" font-size="7"></text>
<a xlink:href="impulse-0x7f8f8fe24ff0.svg">
<rect x="25.000000" y="25.000000" width="38.700000" height="24.000000" rx="0.1" ry="0.1" style="stroke:none;fill:#aaaaaa;;filter:url(#filter);"/>
<rect x="24.000000" y="24.000000" width="38.700000" height="24.000000" rx="0" ry="0" style="stroke:none;fill:#003366;"/>
</a>
<a xlink:href="impulse-0x7f8f8fe24ff0.svg">
<text x="43.350000" y="38.000000" font-family="Arial" font-size="7" text-anchor="middle" fill="#FFFFFF">impulse</text>
</a>
<circle cx="26.000000" cy="26.000000" r="1"/>
<a xlink:href="nlf2-0x7f8f91c4d700.svg">
<rect x="71.700000" y="25.000000" width="51.600000" height="24.000000" rx="0.1" ry="0.1" style="stroke:none;fill:#aaaaaa;;filter:url(#filter);"/>
<rect x="70.700000" y="24.000000" width="51.600000" height="24.000000" rx="0" ry="0" style="stroke:none;fill:#003366;"/>
</a>
<a xlink:href="nlf2-0x7f8f91c4d700.svg">
<text x="96.500000" y="38.000000" font-family="Arial" font-size="7" text-anchor="middle" fill="#FFFFFF">nlf2(10)(1)</text>
</a>
<circle cx="72.700000" cy="26.000000" r="1"/>
<line x1="67.700000" y1="35.000000" x2="70.700000" y2="36.000000"  transform="rotate(0.000000,70.700000,36.000000)" style="stroke: black; stroke-width:0.25;"/>
<line x1="67.700000" y1="37.000000" x2="70.700000" y2="36.000000"  transform="rotate(0.000000,70.700000,36.000000)" style="stroke: black; stroke-width:0.25;"/>
<line x1="15.000000" y1="15.000000" x2="15.000000" y2="57.000000"  style="stroke: black; stroke-linecap:round; stroke-width:0.25; stroke-dasharray:3,3;"/>
<line x1="15.000000" y1="57.000000" x2="155.300000" y2="57.000000"  style="stroke: black; stroke-linecap:round; stroke-width:0.25; stroke-dasharray:3,3;"/>
<line x1="155.300000" y1="57.000000" x2="155.300000" y2="15.000000"  style="stroke: black; stroke-linecap:round; stroke-width:0.25; stroke-dasharray:3,3;"/>
<line x1="15.000000" y1="15.000000" x2="20.000000" y2="15.000000"  style="stroke: black; stroke-linecap:round; stroke-width:0.25; stroke-dasharray:3,3;"/>
<line x1="52.250000" y1="15.000000" x2="155.300000" y2="15.000000"  style="stroke: black; stroke-linecap:round; stroke-width:0.25; stroke-dasharray:3,3;"/>
<text x="20.000000" y="17.000000" font-family="Arial" font-size="7">oscr(10)</text>
<line x1="157.300000" y1="35.000000" x2="160.300000" y2="36.000000"  transform="rotate(0.000000,160.300000,36.000000)" style="stroke: black; stroke-width:0.25;"/>
<line x1="157.300000" y1="37.000000" x2="160.300000" y2="36.000000"  transform="rotate(0.000000,160.300000,36.000000)" style="stroke: black; stroke-width:0.25;"/>
<line x1="62.700000" y1="36.000000" x2="66.700000" y2="36.000000"  style="stroke:black; stroke-linecap:round; stroke-width:0.25;"/>
<line x1="66.700000" y1="36.000000" x2="66.700000" y2="36.000000"  style="stroke:black; stroke-linecap:round; stroke-width:0.25;"/>
<line x1="66.700000" y1="36.000000" x2="70.700000" y2="36.000000"  style="stroke:black; stroke-linecap:round; stroke-width:0.25;"/>
<line x1="122.300000" y1="32.000000" x2="126.300000" y2="32.000000"  style="stroke:black; stroke-linecap:round; stroke-width:0.25;"/>
<line x1="126.300000" y1="32.000000" x2="134.300000" y2="32.000000"  style="stroke:black; stroke-linecap:round; stroke-width:0.25;"/>
<line x1="134.300000" y1="32.000000" x2="134.300000" y2="35.960000"  style="stroke:black; stroke-linecap:round; stroke-width:0.25;"/>
<line x1="134.300000" y1="35.960000" x2="134.300000" y2="35.960000"  style="stroke:black; stroke-linecap:round; stroke-width:0.25;"/>
<line x1="134.300000" y1="35.960000" x2="142.300000" y2="35.960000"  style="stroke:black; stroke-linecap:round; stroke-width:0.25;"/>
<line x1="142.300000" y1="35.960000" x2="142.300000" y2="36.000000"  style="stroke:black; stroke-linecap:round; stroke-width:0.25;"/>
<line x1="142.300000" y1="36.000000" x2="142.300000" y2="36.000000"  style="stroke:black; stroke-linecap:round; stroke-width:0.25;"/>
<line x1="142.300000" y1="36.000000" x2="146.300000" y2="36.000000"  style="stroke:black; stroke-linecap:round; stroke-width:0.25;"/>
<line x1="146.300000" y1="36.000000" x2="150.300000" y2="36.000000"  style="stroke:black; stroke-linecap:round; stroke-width:0.25;"/>
<line x1="150.300000" y1="36.000000" x2="160.300000" y2="36.000000"  style="stroke:black; stroke-linecap:round; stroke-width:0.25;"/>
</svg>
