<?xml version="1.0"?>
<svg xmlns="http://www.w3.org/2000/svg" xmlns:xlink="http://www.w3.org/1999/xlink" viewBox="0 0 324.300000 172.000000" width="162.150000mm" height="86.000000mm" version="1.1">
<defs>
   <filter id="filter" filterRes="18" x="0" y="0">
     <feGaussianBlur in="SourceGraphic" stdDeviation="1.55" result="blur"/>
     <feOffset in="blur" dx="3" dy="3"/>
   </filter>
</defs>
<a xlink:href="right-0x7f8e69822060.svg">
<rect x="1.000000" y="1.000000" width="323.300000" height="171.000000" rx="0.1" ry="0.1" style="stroke:none;fill:#aaaaaa;;filter:url(#filter);"/>
<rect x="0.000000" y="0.000000" width="323.300000" height="171.000000" rx="0" ry="0" style="stroke:none;fill:#ffffff;"/>
</a>
<text x="10.000000" y="7.000000" font-family="Arial" font-size="7"></text>
<rect x="49.000000" y="105.000000" width="24.000000" height="24.000000" rx="0.1" ry="0.1" style="stroke:none;fill:#aaaaaa;;filter:url(#filter);"/>
<rect x="48.000000" y="104.000000" width="24.000000" height="24.000000" rx="0" ry="0" style="stroke:none;fill:#4B71A1;"/>
<text x="60.000000" y="118.000000" font-family="Arial" font-size="7" text-anchor="middle" fill="#FFFFFF">+</text>
<circle cx="50.000000" cy="106.000000" r="1"/>
<line x1="45.000000" y1="111.000000" x2="48.000000" y2="112.000000"  transform="rotate(0.000000,48.000000,112.000000)" style="stroke: black; stroke-width:0.25;"/>
<line x1="45.000000" y1="113.000000" x2="48.000000" y2="112.000000"  transform="rotate(0.000000,48.000000,112.000000)" style="stroke: black; stroke-width:0.25;"/>
<line x1="45.000000" y1="119.000000" x2="48.000000" y2="120.000000"  transform="rotate(0.000000,48.000000,120.000000)" style="stroke: black; stroke-width:0.25;"/>
<line x1="45.000000" y1="121.000000" x2="48.000000" y2="120.000000"  transform="rotate(0.000000,48.000000,120.000000)" style="stroke: black; stroke-width:0.25;"/>
<a xlink:href="fdelay2a-0x7f8e67699e20.svg">
<rect x="107.000000" y="85.000000" width="90.300000" height="24.000000" rx="0.1" ry="0.1" style="stroke:none;fill:#aaaaaa;;filter:url(#filter);"/>
<rect x="106.000000" y="84.000000" width="90.300000" height="24.000000" rx="0" ry="0" style="stroke:none;fill:#003366;"/>
</a>
<a xlink:href="fdelay2a-0x7f8e67699e20.svg">
<text x="151.150000" y="98.000000" font-family="Arial" font-size="7" text-anchor="middle" fill="#FFFFFF">fdelay2a(9080)(907)</text>
</a>
<circle cx="108.000000" cy="86.000000" r="1"/>
<line x1="103.000000" y1="95.000000" x2="106.000000" y2="96.000000"  transform="rotate(0.000000,106.000000,96.000000)" style="stroke: black; stroke-width:0.25;"/>
<line x1="103.000000" y1="97.000000" x2="106.000000" y2="96.000000"  transform="rotate(0.000000,106.000000,96.000000)" style="stroke: black; stroke-width:0.25;"/>
<rect x="119.250000" y="125.000000" width="25.800000" height="24.000000" rx="0.1" ry="0.1" style="stroke:none;fill:#aaaaaa;;filter:url(#filter);"/>
<rect x="118.250000" y="124.000000" width="25.800000" height="24.000000" rx="0" ry="0" style="stroke:none;fill:#f44800;"/>
<text x="131.150000" y="138.000000" font-family="Arial" font-size="7" text-anchor="middle" fill="#FFFFFF">-0.7</text>
<circle cx="120.250000" cy="126.000000" r="1"/>
<rect x="161.050000" y="121.000000" width="24.000000" height="24.000000" rx="0.1" ry="0.1" style="stroke:none;fill:#aaaaaa;;filter:url(#filter);"/>
<rect x="160.050000" y="120.000000" width="24.000000" height="24.000000" rx="0" ry="0" style="stroke:none;fill:#4B71A1;"/>
<text x="172.050000" y="134.000000" font-family="Arial" font-size="7" text-anchor="middle" fill="#FFFFFF">*</text>
<circle cx="162.050000" cy="122.000000" r="1"/>
<line x1="157.050000" y1="127.000000" x2="160.050000" y2="128.000000"  transform="rotate(0.000000,160.050000,128.000000)" style="stroke: black; stroke-width:0.25;"/>
<line x1="157.050000" y1="129.000000" x2="160.050000" y2="128.000000"  transform="rotate(0.000000,160.050000,128.000000)" style="stroke: black; stroke-width:0.25;"/>
<line x1="157.050000" y1="135.000000" x2="160.050000" y2="136.000000"  transform="rotate(0.000000,160.050000,136.000000)" style="stroke: black; stroke-width:0.25;"/>
<line x1="157.050000" y1="137.000000" x2="160.050000" y2="136.000000"  transform="rotate(0.000000,160.050000,136.000000)" style="stroke: black; stroke-width:0.25;"/>
<rect x="131.150000" y="35.000000" width="24.000000" height="24.000000" rx="0.1" ry="0.1" style="stroke:none;fill:#aaaaaa;;filter:url(#filter);"/>
<rect x="130.150000" y="34.000000" width="24.000000" height="24.000000" rx="0" ry="0" style="stroke:none;fill:#f44800;"/>
<text x="142.150000" y="48.000000" font-family="Arial" font-size="7" text-anchor="middle" fill="#FFFFFF">0.7</text>
<circle cx="152.150000" cy="56.000000" r="1"/>
<line x1="121.150000" y1="25.000000" x2="121.150000" y2="67.000000"  style="stroke: black; stroke-linecap:round; stroke-width:0.25; stroke-dasharray:3,3;"/>
<line x1="121.150000" y1="67.000000" x2="163.150000" y2="67.000000"  style="stroke: black; stroke-linecap:round; stroke-width:0.25; stroke-dasharray:3,3;"/>
<line x1="163.150000" y1="67.000000" x2="163.150000" y2="25.000000"  style="stroke: black; stroke-linecap:round; stroke-width:0.25; stroke-dasharray:3,3;"/>
<line x1="121.150000" y1="25.000000" x2="126.150000" y2="25.000000"  style="stroke: black; stroke-linecap:round; stroke-width:0.25; stroke-dasharray:3,3;"/>
<line x1="158.400000" y1="25.000000" x2="163.150000" y2="25.000000"  style="stroke: black; stroke-linecap:round; stroke-width:0.25; stroke-dasharray:3,3;"/>
<text x="126.150000" y="27.000000" font-family="Arial" font-size="7">d_diff_1</text>
<rect x="81.150000" y="39.000000" width="24.000000" height="24.000000" rx="0.1" ry="0.1" style="stroke:none;fill:#aaaaaa;;filter:url(#filter);"/>
<rect x="80.150000" y="38.000000" width="24.000000" height="24.000000" rx="0" ry="0" style="stroke:none;fill:#4B71A1;"/>
<text x="92.150000" y="52.000000" font-family="Arial" font-size="7" text-anchor="middle" fill="#FFFFFF">*</text>
<circle cx="102.150000" cy="60.000000" r="1"/>
<line x1="107.150000" y1="53.000000" x2="104.150000" y2="54.000000"  transform="rotate(0.000000,104.150000,54.000000)" style="stroke: black; stroke-width:0.25;"/>
<line x1="107.150000" y1="55.000000" x2="104.150000" y2="54.000000"  transform="rotate(0.000000,104.150000,54.000000)" style="stroke: black; stroke-width:0.25;"/>
<line x1="107.150000" y1="45.000000" x2="104.150000" y2="46.000000"  transform="rotate(0.000000,104.150000,46.000000)" style="stroke: black; stroke-width:0.25;"/>
<line x1="107.150000" y1="47.000000" x2="104.150000" y2="46.000000"  transform="rotate(0.000000,104.150000,46.000000)" style="stroke: black; stroke-width:0.25;"/>
<line x1="198.300000" y1="96.000000" x2="198.300000" y2="92.000000"  style="stroke:black; stroke-linecap:round; stroke-width:0.25;"/>
<line x1="198.300000" y1="92.000000" x2="202.300000" y2="92.000000"  style="stroke:black; stroke-linecap:round; stroke-width:0.25;"/>
<line x1="202.300000" y1="92.000000" x2="202.300000" y2="96.000000"  style="stroke:black; stroke-linecap:round; stroke-width:0.25;"/>
<rect x="229.300000" y="71.000000" width="24.000000" height="24.000000" rx="0.1" ry="0.1" style="stroke:none;fill:#aaaaaa;;filter:url(#filter);"/>
<rect x="228.300000" y="70.000000" width="24.000000" height="24.000000" rx="0" ry="0" style="stroke:none;fill:#4B71A1;"/>
<text x="240.300000" y="84.000000" font-family="Arial" font-size="7" text-anchor="middle" fill="#FFFFFF">mem</text>
<circle cx="230.300000" cy="72.000000" r="1"/>
<line x1="225.300000" y1="81.000000" x2="228.300000" y2="82.000000"  transform="rotate(0.000000,228.300000,82.000000)" style="stroke: black; stroke-width:0.25;"/>
<line x1="225.300000" y1="83.000000" x2="228.300000" y2="82.000000"  transform="rotate(0.000000,228.300000,82.000000)" style="stroke: black; stroke-width:0.25;"/>
<rect x="269.300000" y="75.000000" width="24.000000" height="24.000000" rx="0.1" ry="0.1" style="stroke:none;fill:#aaaaaa;;filter:url(#filter);"/>
<rect x="268.300000" y="74.000000" width="24.000000" height="24.000000" rx="0" ry="0" style="stroke:none;fill:#4B71A1;"/>
<text x="280.300000" y="88.000000" font-family="Arial" font-size="7" text-anchor="middle" fill="#FFFFFF">+</text>
<circle cx="270.300000" cy="76.000000" r="1"/>
<line x1="265.300000" y1="81.000000" x2="268.300000" y2="82.000000"  transform="rotate(0.000000,268.300000,82.000000)" style="stroke: black; stroke-width:0.25;"/>
<line x1="265.300000" y1="83.000000" x2="268.300000" y2="82.000000"  transform="rotate(0.000000,268.300000,82.000000)" style="stroke: black; stroke-width:0.25;"/>
<line x1="265.300000" y1="89.000000" x2="268.300000" y2="90.000000"  transform="rotate(0.000000,268.300000,90.000000)" style="stroke: black; stroke-width:0.25;"/>
<line x1="265.300000" y1="91.000000" x2="268.300000" y2="90.000000"  transform="rotate(0.000000,268.300000,90.000000)" style="stroke: black; stroke-width:0.25;"/>
<line x1="15.000000" y1="15.000000" x2="15.000000" y2="157.000000"  style="stroke: black; stroke-linecap:round; stroke-width:0.25; stroke-dasharray:3,3;"/>
<line x1="15.000000" y1="157.000000" x2="309.300000" y2="157.000000"  style="stroke: black; stroke-linecap:round; stroke-width:0.25; stroke-dasharray:3,3;"/>
<line x1="309.300000" y1="157.000000" x2="309.300000" y2="15.000000"  style="stroke: black; stroke-linecap:round; stroke-width:0.25; stroke-dasharray:3,3;"/>
<line x1="15.000000" y1="15.000000" x2="20.000000" y2="15.000000"  style="stroke: black; stroke-linecap:round; stroke-width:0.25; stroke-dasharray:3,3;"/>
<line x1="119.975000" y1="15.000000" x2="309.300000" y2="15.000000"  style="stroke: black; stroke-linecap:round; stroke-width:0.25; stroke-dasharray:3,3;"/>
<text x="20.000000" y="17.000000" font-family="Arial" font-size="7">allpass(9080)...99999999996f)</text>
<line x1="311.300000" y1="85.000000" x2="314.300000" y2="86.000000"  transform="rotate(0.000000,314.300000,86.000000)" style="stroke: black; stroke-width:0.25;"/>
<line x1="311.300000" y1="87.000000" x2="314.300000" y2="86.000000"  transform="rotate(0.000000,314.300000,86.000000)" style="stroke: black; stroke-width:0.25;"/>
<line x1="10.000000" y1="86.000000" x2="20.000000" y2="86.000000"  style="stroke:black; stroke-linecap:round; stroke-width:0.25;"/>
<line x1="20.000000" y1="86.000000" x2="24.000000" y2="86.000000"  style="stroke:black; stroke-linecap:round; stroke-width:0.25;"/>
<line x1="24.000000" y1="86.000000" x2="28.000000" y2="86.000000"  style="stroke:black; stroke-linecap:round; stroke-width:0.25;"/>
<line x1="28.000000" y1="86.000000" x2="36.000000" y2="86.000000"  style="stroke:black; stroke-linecap:round; stroke-width:0.25;"/>
<line x1="36.000000" y1="86.000000" x2="36.000000" y2="120.000000"  style="stroke:black; stroke-linecap:round; stroke-width:0.25;"/>
<line x1="36.000000" y1="120.000000" x2="36.000000" y2="120.000000"  style="stroke:black; stroke-linecap:round; stroke-width:0.25;"/>
<line x1="36.000000" y1="120.000000" x2="44.000000" y2="120.000000"  style="stroke:black; stroke-linecap:round; stroke-width:0.25;"/>
<line x1="44.000000" y1="50.000000" x2="44.000000" y2="50.000000"  style="stroke:black; stroke-linecap:round; stroke-width:0.25;"/>
<line x1="44.000000" y1="50.000000" x2="44.000000" y2="112.000000"  style="stroke:black; stroke-linecap:round; stroke-width:0.25;"/>
<line x1="44.000000" y1="112.000000" x2="44.000000" y2="112.000000"  style="stroke:black; stroke-linecap:round; stroke-width:0.25;"/>
<line x1="44.000000" y1="112.000000" x2="48.000000" y2="112.000000"  style="stroke:black; stroke-linecap:round; stroke-width:0.25;"/>
<line x1="44.000000" y1="120.000000" x2="48.000000" y2="120.000000"  style="stroke:black; stroke-linecap:round; stroke-width:0.25;"/>
<line x1="72.000000" y1="116.000000" x2="76.000000" y2="116.000000"  style="stroke:black; stroke-linecap:round; stroke-width:0.25;"/>
<line x1="76.000000" y1="116.000000" x2="102.000000" y2="96.000000"  style="stroke:black; stroke-linecap:round; stroke-width:0.25;"/>
<line x1="76.000000" y1="116.000000" x2="102.000000" y2="116.000000"  style="stroke:black; stroke-linecap:round; stroke-width:0.25;"/>
<line x1="76.150000" y1="50.000000" x2="44.000000" y2="50.000000"  style="stroke:black; stroke-linecap:round; stroke-width:0.25;"/>
<line x1="80.150000" y1="50.000000" x2="76.150000" y2="50.000000"  style="stroke:black; stroke-linecap:round; stroke-width:0.25;"/>
<line x1="102.000000" y1="96.000000" x2="106.000000" y2="96.000000"  style="stroke:black; stroke-linecap:round; stroke-width:0.25;"/>
<line x1="102.000000" y1="116.000000" x2="114.250000" y2="116.000000"  style="stroke:black; stroke-linecap:round; stroke-width:0.25;"/>
<line x1="108.150000" y1="46.000000" x2="104.150000" y2="46.000000"  style="stroke:black; stroke-linecap:round; stroke-width:0.25;"/>
<line x1="108.150000" y1="54.000000" x2="104.150000" y2="54.000000"  style="stroke:black; stroke-linecap:round; stroke-width:0.25;"/>
<line x1="108.150000" y1="54.000000" x2="108.150000" y2="54.000000"  style="stroke:black; stroke-linecap:round; stroke-width:0.25;"/>
<line x1="108.150000" y1="76.000000" x2="108.150000" y2="54.000000"  style="stroke:black; stroke-linecap:round; stroke-width:0.25;"/>
<line x1="114.250000" y1="116.000000" x2="131.150000" y2="116.000000"  style="stroke:black; stroke-linecap:round; stroke-width:0.25;"/>
<line x1="116.150000" y1="46.000000" x2="108.150000" y2="46.000000"  style="stroke:black; stroke-linecap:round; stroke-width:0.25;"/>
<line x1="116.150000" y1="76.000000" x2="108.150000" y2="76.000000"  style="stroke:black; stroke-linecap:round; stroke-width:0.25;"/>
<line x1="126.150000" y1="46.000000" x2="116.150000" y2="46.000000"  style="stroke:black; stroke-linecap:round; stroke-width:0.25;"/>
<line x1="130.150000" y1="46.000000" x2="126.150000" y2="46.000000"  style="stroke:black; stroke-linecap:round; stroke-width:0.25;"/>
<line x1="131.150000" y1="116.000000" x2="148.050000" y2="116.000000"  style="stroke:black; stroke-linecap:round; stroke-width:0.25;"/>
<line x1="142.150000" y1="76.000000" x2="116.150000" y2="76.000000"  style="stroke:black; stroke-linecap:round; stroke-width:0.25;"/>
<line x1="144.050000" y1="136.000000" x2="148.050000" y2="136.000000"  style="stroke:black; stroke-linecap:round; stroke-width:0.25;"/>
<line x1="148.050000" y1="116.000000" x2="156.050000" y2="116.000000"  style="stroke:black; stroke-linecap:round; stroke-width:0.25;"/>
<line x1="148.050000" y1="136.000000" x2="156.050000" y2="136.000000"  style="stroke:black; stroke-linecap:round; stroke-width:0.25;"/>
<line x1="156.050000" y1="116.000000" x2="156.050000" y2="128.000000"  style="stroke:black; stroke-linecap:round; stroke-width:0.25;"/>
<line x1="156.050000" y1="128.000000" x2="156.050000" y2="128.000000"  style="stroke:black; stroke-linecap:round; stroke-width:0.25;"/>
<line x1="156.050000" y1="128.000000" x2="160.050000" y2="128.000000"  style="stroke:black; stroke-linecap:round; stroke-width:0.25;"/>
<line x1="156.050000" y1="136.000000" x2="160.050000" y2="136.000000"  style="stroke:black; stroke-linecap:round; stroke-width:0.25;"/>
<line x1="168.150000" y1="76.000000" x2="142.150000" y2="76.000000"  style="stroke:black; stroke-linecap:round; stroke-width:0.25;"/>
<line x1="184.050000" y1="132.000000" x2="188.050000" y2="132.000000"  style="stroke:black; stroke-linecap:round; stroke-width:0.25;"/>
<line x1="188.050000" y1="132.000000" x2="200.300000" y2="132.000000"  style="stroke:black; stroke-linecap:round; stroke-width:0.25;"/>
<line x1="196.300000" y1="96.000000" x2="200.300000" y2="96.000000"  style="stroke:black; stroke-linecap:round; stroke-width:0.25;"/>
<line x1="200.300000" y1="76.000000" x2="168.150000" y2="76.000000"  style="stroke:black; stroke-linecap:round; stroke-width:0.25;"/>
<line x1="200.300000" y1="76.000000" x2="200.300000" y2="76.000000"  style="stroke:black; stroke-linecap:round; stroke-width:0.25;"/>
<line x1="200.300000" y1="92.000000" x2="200.300000" y2="76.000000"  style="stroke:black; stroke-linecap:round; stroke-width:0.25;"/>
<line x1="200.300000" y1="96.000000" x2="202.300000" y2="96.000000"  style="stroke:black; stroke-linecap:round; stroke-width:0.25;"/>
<line x1="200.300000" y1="132.000000" x2="208.300000" y2="132.000000"  style="stroke:black; stroke-linecap:round; stroke-width:0.25;"/>
<line x1="202.300000" y1="96.000000" x2="208.300000" y2="96.000000"  style="stroke:black; stroke-linecap:round; stroke-width:0.25;"/>
<line x1="208.300000" y1="82.000000" x2="224.300000" y2="82.000000"  style="stroke:black; stroke-linecap:round; stroke-width:0.25;"/>
<line x1="208.300000" y1="96.000000" x2="208.300000" y2="82.000000"  style="stroke:black; stroke-linecap:round; stroke-width:0.25;"/>
<line x1="208.300000" y1="96.000000" x2="208.300000" y2="96.000000"  style="stroke:black; stroke-linecap:round; stroke-width:0.25;"/>
<line x1="208.300000" y1="132.000000" x2="216.300000" y2="132.000000"  style="stroke:black; stroke-linecap:round; stroke-width:0.25;"/>
<line x1="216.300000" y1="102.000000" x2="224.300000" y2="102.000000"  style="stroke:black; stroke-linecap:round; stroke-width:0.25;"/>
<line x1="216.300000" y1="132.000000" x2="216.300000" y2="102.000000"  style="stroke:black; stroke-linecap:round; stroke-width:0.25;"/>
<line x1="224.300000" y1="82.000000" x2="228.300000" y2="82.000000"  style="stroke:black; stroke-linecap:round; stroke-width:0.25;"/>
<line x1="224.300000" y1="102.000000" x2="240.300000" y2="102.000000"  style="stroke:black; stroke-linecap:round; stroke-width:0.25;"/>
<line x1="240.300000" y1="102.000000" x2="256.300000" y2="102.000000"  style="stroke:black; stroke-linecap:round; stroke-width:0.25;"/>
<line x1="252.300000" y1="82.000000" x2="256.300000" y2="82.000000"  style="stroke:black; stroke-linecap:round; stroke-width:0.25;"/>
<line x1="256.300000" y1="82.000000" x2="264.300000" y2="82.000000"  style="stroke:black; stroke-linecap:round; stroke-width:0.25;"/>
<line x1="256.300000" y1="90.000000" x2="264.300000" y2="90.000000"  style="stroke:black; stroke-linecap:round; stroke-width:0.25;"/>
<line x1="256.300000" y1="102.000000" x2="256.300000" y2="90.000000"  style="stroke:black; stroke-linecap:round; stroke-width:0.25;"/>
<line x1="256.300000" y1="102.000000" x2="256.300000" y2="102.000000"  style="stroke:black; stroke-linecap:round; stroke-width:0.25;"/>
<line x1="264.300000" y1="82.000000" x2="268.300000" y2="82.000000"  style="stroke:black; stroke-linecap:round; stroke-width:0.25;"/>
<line x1="264.300000" y1="90.000000" x2="268.300000" y2="90.000000"  style="stroke:black; stroke-linecap:round; stroke-width:0.25;"/>
<line x1="292.300000" y1="86.000000" x2="296.300000" y2="86.000000"  style="stroke:black; stroke-linecap:round; stroke-width:0.25;"/>
<line x1="296.300000" y1="86.000000" x2="296.300000" y2="86.000000"  style="stroke:black; stroke-linecap:round; stroke-width:0.25;"/>
<line x1="296.300000" y1="86.000000" x2="300.300000" y2="86.000000"  style="stroke:black; stroke-linecap:round; stroke-width:0.25;"/>
<line x1="300.300000" y1="86.000000" x2="304.300000" y2="86.000000"  style="stroke:black; stroke-linecap:round; stroke-width:0.25;"/>
<line x1="304.300000" y1="86.000000" x2="314.300000" y2="86.000000"  style="stroke:black; stroke-linecap:round; stroke-width:0.25;"/>
</svg>
