<?xml version="1.0"?>
<svg xmlns="http://www.w3.org/2000/svg" xmlns:xlink="http://www.w3.org/1999/xlink" viewBox="0 0 360.000000 172.000000" width="180.000000mm" height="86.000000mm" version="1.1">
<defs>
   <filter id="filter" filterRes="18" x="0" y="0">
     <feGaussianBlur in="SourceGraphic" stdDeviation="1.55" result="blur"/>
     <feOffset in="blur" dx="3" dy="3"/>
   </filter>
</defs>
<a xlink:href="input-0x7f8e655c7170.svg">
<rect x="1.000000" y="1.000000" width="359.000000" height="171.000000" rx="0.1" ry="0.1" style="stroke:none;fill:#aaaaaa;;filter:url(#filter);"/>
<rect x="0.000000" y="0.000000" width="359.000000" height="171.000000" rx="0" ry="0" style="stroke:none;fill:#ffffff;"/>
</a>
<text x="10.000000" y="7.000000" font-family="Arial" font-size="7"></text>
<rect x="49.000000" y="95.000000" width="24.000000" height="24.000000" rx="0.1" ry="0.1" style="stroke:none;fill:#aaaaaa;;filter:url(#filter);"/>
<rect x="48.000000" y="94.000000" width="24.000000" height="24.000000" rx="0" ry="0" style="stroke:none;fill:#4B71A1;"/>
<text x="60.000000" y="108.000000" font-family="Arial" font-size="7" text-anchor="middle" fill="#FFFFFF">+</text>
<circle cx="50.000000" cy="96.000000" r="1"/>
<line x1="45.000000" y1="101.000000" x2="48.000000" y2="102.000000"  transform="rotate(0.000000,48.000000,102.000000)" style="stroke: black; stroke-width:0.25;"/>
<line x1="45.000000" y1="103.000000" x2="48.000000" y2="102.000000"  transform="rotate(0.000000,48.000000,102.000000)" style="stroke: black; stroke-width:0.25;"/>
<line x1="45.000000" y1="109.000000" x2="48.000000" y2="110.000000"  transform="rotate(0.000000,48.000000,110.000000)" style="stroke: black; stroke-width:0.25;"/>
<line x1="45.000000" y1="111.000000" x2="48.000000" y2="110.000000"  transform="rotate(0.000000,48.000000,110.000000)" style="stroke: black; stroke-width:0.25;"/>
<a xlink:href="fdelay2a-0x7f8e654757d0.svg">
<rect x="112.000000" y="65.000000" width="129.000000" height="24.000000" rx="0.1" ry="0.1" style="stroke:none;fill:#aaaaaa;;filter:url(#filter);"/>
<rect x="111.000000" y="64.000000" width="129.000000" height="24.000000" rx="0" ry="0" style="stroke:none;fill:#003366;"/>
</a>
<a xlink:href="fdelay2a-0x7f8e654757d0.svg">
<text x="175.500000" y="78.000000" font-family="Arial" font-size="7" text-anchor="middle" fill="#FFFFFF">fdelay2a(4260...2 : *),1 : -)</text>
</a>
<circle cx="113.000000" cy="66.000000" r="1"/>
<line x1="108.000000" y1="75.000000" x2="111.000000" y2="76.000000"  transform="rotate(0.000000,111.000000,76.000000)" style="stroke: black; stroke-width:0.25;"/>
<line x1="108.000000" y1="77.000000" x2="111.000000" y2="76.000000"  transform="rotate(0.000000,111.000000,76.000000)" style="stroke: black; stroke-width:0.25;"/>
<rect x="143.600000" y="115.000000" width="25.800000" height="24.000000" rx="0.1" ry="0.1" style="stroke:none;fill:#aaaaaa;;filter:url(#filter);"/>
<rect x="142.600000" y="114.000000" width="25.800000" height="24.000000" rx="0" ry="0" style="stroke:none;fill:#f44800;"/>
<text x="155.500000" y="128.000000" font-family="Arial" font-size="7" text-anchor="middle" fill="#FFFFFF">0.75</text>
<circle cx="144.600000" cy="116.000000" r="1"/>
<line x1="133.600000" y1="105.000000" x2="133.600000" y2="147.000000"  style="stroke: black; stroke-linecap:round; stroke-width:0.25; stroke-dasharray:3,3;"/>
<line x1="133.600000" y1="147.000000" x2="177.400000" y2="147.000000"  style="stroke: black; stroke-linecap:round; stroke-width:0.25; stroke-dasharray:3,3;"/>
<line x1="177.400000" y1="147.000000" x2="177.400000" y2="105.000000"  style="stroke: black; stroke-linecap:round; stroke-width:0.25; stroke-dasharray:3,3;"/>
<line x1="133.600000" y1="105.000000" x2="138.600000" y2="105.000000"  style="stroke: black; stroke-linecap:round; stroke-width:0.25; stroke-dasharray:3,3;"/>
<line x1="170.850000" y1="105.000000" x2="177.400000" y2="105.000000"  style="stroke: black; stroke-linecap:round; stroke-width:0.25; stroke-dasharray:3,3;"/>
<text x="138.600000" y="107.000000" font-family="Arial" font-size="7">i_diff_1</text>
<rect x="195.400000" y="111.000000" width="24.000000" height="24.000000" rx="0.1" ry="0.1" style="stroke:none;fill:#aaaaaa;;filter:url(#filter);"/>
<rect x="194.400000" y="110.000000" width="24.000000" height="24.000000" rx="0" ry="0" style="stroke:none;fill:#4B71A1;"/>
<text x="206.400000" y="124.000000" font-family="Arial" font-size="7" text-anchor="middle" fill="#FFFFFF">*</text>
<circle cx="196.400000" cy="112.000000" r="1"/>
<line x1="191.400000" y1="117.000000" x2="194.400000" y2="118.000000"  transform="rotate(0.000000,194.400000,118.000000)" style="stroke: black; stroke-width:0.25;"/>
<line x1="191.400000" y1="119.000000" x2="194.400000" y2="118.000000"  transform="rotate(0.000000,194.400000,118.000000)" style="stroke: black; stroke-width:0.25;"/>
<line x1="191.400000" y1="125.000000" x2="194.400000" y2="126.000000"  transform="rotate(0.000000,194.400000,126.000000)" style="stroke: black; stroke-width:0.25;"/>
<line x1="191.400000" y1="127.000000" x2="194.400000" y2="126.000000"  transform="rotate(0.000000,194.400000,126.000000)" style="stroke: black; stroke-width:0.25;"/>
<rect x="152.100000" y="25.000000" width="25.800000" height="24.000000" rx="0.1" ry="0.1" style="stroke:none;fill:#aaaaaa;;filter:url(#filter);"/>
<rect x="151.100000" y="24.000000" width="25.800000" height="24.000000" rx="0" ry="0" style="stroke:none;fill:#f44800;"/>
<text x="164.000000" y="38.000000" font-family="Arial" font-size="7" text-anchor="middle" fill="#FFFFFF">-0.75</text>
<circle cx="174.900000" cy="46.000000" r="1"/>
<rect x="112.100000" y="29.000000" width="24.000000" height="24.000000" rx="0.1" ry="0.1" style="stroke:none;fill:#aaaaaa;;filter:url(#filter);"/>
<rect x="111.100000" y="28.000000" width="24.000000" height="24.000000" rx="0" ry="0" style="stroke:none;fill:#4B71A1;"/>
<text x="123.100000" y="42.000000" font-family="Arial" font-size="7" text-anchor="middle" fill="#FFFFFF">*</text>
<circle cx="133.100000" cy="50.000000" r="1"/>
<line x1="138.100000" y1="43.000000" x2="135.100000" y2="44.000000"  transform="rotate(0.000000,135.100000,44.000000)" style="stroke: black; stroke-width:0.25;"/>
<line x1="138.100000" y1="45.000000" x2="135.100000" y2="44.000000"  transform="rotate(0.000000,135.100000,44.000000)" style="stroke: black; stroke-width:0.25;"/>
<line x1="138.100000" y1="35.000000" x2="135.100000" y2="36.000000"  transform="rotate(0.000000,135.100000,36.000000)" style="stroke: black; stroke-width:0.25;"/>
<line x1="138.100000" y1="37.000000" x2="135.100000" y2="36.000000"  transform="rotate(0.000000,135.100000,36.000000)" style="stroke: black; stroke-width:0.25;"/>
<line x1="242.000000" y1="76.000000" x2="242.000000" y2="72.000000"  style="stroke:black; stroke-linecap:round; stroke-width:0.25;"/>
<line x1="242.000000" y1="72.000000" x2="246.000000" y2="72.000000"  style="stroke:black; stroke-linecap:round; stroke-width:0.25;"/>
<line x1="246.000000" y1="72.000000" x2="246.000000" y2="76.000000"  style="stroke:black; stroke-linecap:round; stroke-width:0.25;"/>
<rect x="265.000000" y="71.000000" width="24.000000" height="24.000000" rx="0.1" ry="0.1" style="stroke:none;fill:#aaaaaa;;filter:url(#filter);"/>
<rect x="264.000000" y="70.000000" width="24.000000" height="24.000000" rx="0" ry="0" style="stroke:none;fill:#4B71A1;"/>
<text x="276.000000" y="84.000000" font-family="Arial" font-size="7" text-anchor="middle" fill="#FFFFFF">mem</text>
<circle cx="266.000000" cy="72.000000" r="1"/>
<line x1="261.000000" y1="81.000000" x2="264.000000" y2="82.000000"  transform="rotate(0.000000,264.000000,82.000000)" style="stroke: black; stroke-width:0.25;"/>
<line x1="261.000000" y1="83.000000" x2="264.000000" y2="82.000000"  transform="rotate(0.000000,264.000000,82.000000)" style="stroke: black; stroke-width:0.25;"/>
<rect x="305.000000" y="75.000000" width="24.000000" height="24.000000" rx="0.1" ry="0.1" style="stroke:none;fill:#aaaaaa;;filter:url(#filter);"/>
<rect x="304.000000" y="74.000000" width="24.000000" height="24.000000" rx="0" ry="0" style="stroke:none;fill:#4B71A1;"/>
<text x="316.000000" y="88.000000" font-family="Arial" font-size="7" text-anchor="middle" fill="#FFFFFF">+</text>
<circle cx="306.000000" cy="76.000000" r="1"/>
<line x1="301.000000" y1="81.000000" x2="304.000000" y2="82.000000"  transform="rotate(0.000000,304.000000,82.000000)" style="stroke: black; stroke-width:0.25;"/>
<line x1="301.000000" y1="83.000000" x2="304.000000" y2="82.000000"  transform="rotate(0.000000,304.000000,82.000000)" style="stroke: black; stroke-width:0.25;"/>
<line x1="301.000000" y1="89.000000" x2="304.000000" y2="90.000000"  transform="rotate(0.000000,304.000000,90.000000)" style="stroke: black; stroke-width:0.25;"/>
<line x1="301.000000" y1="91.000000" x2="304.000000" y2="90.000000"  transform="rotate(0.000000,304.000000,90.000000)" style="stroke: black; stroke-width:0.25;"/>
<line x1="15.000000" y1="15.000000" x2="15.000000" y2="157.000000"  style="stroke: black; stroke-linecap:round; stroke-width:0.25; stroke-dasharray:3,3;"/>
<line x1="15.000000" y1="157.000000" x2="345.000000" y2="157.000000"  style="stroke: black; stroke-linecap:round; stroke-width:0.25; stroke-dasharray:3,3;"/>
<line x1="345.000000" y1="157.000000" x2="345.000000" y2="15.000000"  style="stroke: black; stroke-linecap:round; stroke-width:0.25; stroke-dasharray:3,3;"/>
<line x1="15.000000" y1="15.000000" x2="20.000000" y2="15.000000"  style="stroke: black; stroke-linecap:round; stroke-width:0.25; stroke-dasharray:3,3;"/>
<line x1="142.550000" y1="15.000000" x2="345.000000" y2="15.000000"  style="stroke: black; stroke-linecap:round; stroke-width:0.25; stroke-dasharray:3,3;"/>
<text x="20.000000" y="17.000000" font-family="Arial" font-size="7">allpass(4260)... *)),142 : *)(0.75f)</text>
<line x1="347.000000" y1="85.000000" x2="350.000000" y2="86.000000"  transform="rotate(0.000000,350.000000,86.000000)" style="stroke: black; stroke-width:0.25;"/>
<line x1="347.000000" y1="87.000000" x2="350.000000" y2="86.000000"  transform="rotate(0.000000,350.000000,86.000000)" style="stroke: black; stroke-width:0.25;"/>
<line x1="10.000000" y1="86.000000" x2="20.000000" y2="86.000000"  style="stroke:black; stroke-linecap:round; stroke-width:0.25;"/>
<line x1="20.000000" y1="86.000000" x2="24.000000" y2="86.000000"  style="stroke:black; stroke-linecap:round; stroke-width:0.25;"/>
<line x1="24.000000" y1="86.000000" x2="28.000000" y2="86.000000"  style="stroke:black; stroke-linecap:round; stroke-width:0.25;"/>
<line x1="28.000000" y1="86.000000" x2="36.000000" y2="86.000000"  style="stroke:black; stroke-linecap:round; stroke-width:0.25;"/>
<line x1="36.000000" y1="86.000000" x2="36.000000" y2="110.000000"  style="stroke:black; stroke-linecap:round; stroke-width:0.25;"/>
<line x1="36.000000" y1="110.000000" x2="36.000000" y2="110.000000"  style="stroke:black; stroke-linecap:round; stroke-width:0.25;"/>
<line x1="36.000000" y1="110.000000" x2="44.000000" y2="110.000000"  style="stroke:black; stroke-linecap:round; stroke-width:0.25;"/>
<line x1="44.000000" y1="40.000000" x2="44.000000" y2="40.000000"  style="stroke:black; stroke-linecap:round; stroke-width:0.25;"/>
<line x1="44.000000" y1="40.000000" x2="44.000000" y2="102.000000"  style="stroke:black; stroke-linecap:round; stroke-width:0.25;"/>
<line x1="44.000000" y1="102.000000" x2="44.000000" y2="102.000000"  style="stroke:black; stroke-linecap:round; stroke-width:0.25;"/>
<line x1="44.000000" y1="102.000000" x2="48.000000" y2="102.000000"  style="stroke:black; stroke-linecap:round; stroke-width:0.25;"/>
<line x1="44.000000" y1="110.000000" x2="48.000000" y2="110.000000"  style="stroke:black; stroke-linecap:round; stroke-width:0.25;"/>
<line x1="72.000000" y1="106.000000" x2="76.000000" y2="106.000000"  style="stroke:black; stroke-linecap:round; stroke-width:0.25;"/>
<line x1="76.000000" y1="106.000000" x2="107.000000" y2="76.000000"  style="stroke:black; stroke-linecap:round; stroke-width:0.25;"/>
<line x1="76.000000" y1="106.000000" x2="107.000000" y2="96.000000"  style="stroke:black; stroke-linecap:round; stroke-width:0.25;"/>
<line x1="107.000000" y1="76.000000" x2="111.000000" y2="76.000000"  style="stroke:black; stroke-linecap:round; stroke-width:0.25;"/>
<line x1="107.000000" y1="96.000000" x2="128.600000" y2="96.000000"  style="stroke:black; stroke-linecap:round; stroke-width:0.25;"/>
<line x1="107.100000" y1="40.000000" x2="44.000000" y2="40.000000"  style="stroke:black; stroke-linecap:round; stroke-width:0.25;"/>
<line x1="111.100000" y1="40.000000" x2="107.100000" y2="40.000000"  style="stroke:black; stroke-linecap:round; stroke-width:0.25;"/>
<line x1="128.600000" y1="96.000000" x2="155.500000" y2="96.000000"  style="stroke:black; stroke-linecap:round; stroke-width:0.25;"/>
<line x1="139.100000" y1="36.000000" x2="135.100000" y2="36.000000"  style="stroke:black; stroke-linecap:round; stroke-width:0.25;"/>
<line x1="139.100000" y1="44.000000" x2="135.100000" y2="44.000000"  style="stroke:black; stroke-linecap:round; stroke-width:0.25;"/>
<line x1="139.100000" y1="44.000000" x2="139.100000" y2="44.000000"  style="stroke:black; stroke-linecap:round; stroke-width:0.25;"/>
<line x1="139.100000" y1="56.000000" x2="139.100000" y2="44.000000"  style="stroke:black; stroke-linecap:round; stroke-width:0.25;"/>
<line x1="147.100000" y1="36.000000" x2="139.100000" y2="36.000000"  style="stroke:black; stroke-linecap:round; stroke-width:0.25;"/>
<line x1="147.100000" y1="56.000000" x2="139.100000" y2="56.000000"  style="stroke:black; stroke-linecap:round; stroke-width:0.25;"/>
<line x1="151.100000" y1="36.000000" x2="147.100000" y2="36.000000"  style="stroke:black; stroke-linecap:round; stroke-width:0.25;"/>
<line x1="155.500000" y1="96.000000" x2="182.400000" y2="96.000000"  style="stroke:black; stroke-linecap:round; stroke-width:0.25;"/>
<line x1="164.000000" y1="56.000000" x2="147.100000" y2="56.000000"  style="stroke:black; stroke-linecap:round; stroke-width:0.25;"/>
<line x1="168.400000" y1="126.000000" x2="172.400000" y2="126.000000"  style="stroke:black; stroke-linecap:round; stroke-width:0.25;"/>
<line x1="172.400000" y1="126.000000" x2="182.400000" y2="126.000000"  style="stroke:black; stroke-linecap:round; stroke-width:0.25;"/>
<line x1="180.900000" y1="56.000000" x2="164.000000" y2="56.000000"  style="stroke:black; stroke-linecap:round; stroke-width:0.25;"/>
<line x1="182.400000" y1="126.000000" x2="190.400000" y2="126.000000"  style="stroke:black; stroke-linecap:round; stroke-width:0.25;"/>
<line x1="182.400000" y1="96.000000" x2="190.400000" y2="96.000000"  style="stroke:black; stroke-linecap:round; stroke-width:0.25;"/>
<line x1="190.400000" y1="118.000000" x2="194.400000" y2="118.000000"  style="stroke:black; stroke-linecap:round; stroke-width:0.25;"/>
<line x1="190.400000" y1="126.000000" x2="194.400000" y2="126.000000"  style="stroke:black; stroke-linecap:round; stroke-width:0.25;"/>
<line x1="190.400000" y1="96.000000" x2="190.400000" y2="118.000000"  style="stroke:black; stroke-linecap:round; stroke-width:0.25;"/>
<line x1="190.400000" y1="118.000000" x2="190.400000" y2="118.000000"  style="stroke:black; stroke-linecap:round; stroke-width:0.25;"/>
<line x1="218.400000" y1="122.000000" x2="222.400000" y2="122.000000"  style="stroke:black; stroke-linecap:round; stroke-width:0.25;"/>
<line x1="222.400000" y1="122.000000" x2="244.000000" y2="122.000000"  style="stroke:black; stroke-linecap:round; stroke-width:0.25;"/>
<line x1="240.000000" y1="76.000000" x2="244.000000" y2="76.000000"  style="stroke:black; stroke-linecap:round; stroke-width:0.25;"/>
<line x1="244.000000" y1="122.000000" x2="252.000000" y2="122.000000"  style="stroke:black; stroke-linecap:round; stroke-width:0.25;"/>
<line x1="244.000000" y1="56.000000" x2="180.900000" y2="56.000000"  style="stroke:black; stroke-linecap:round; stroke-width:0.25;"/>
<line x1="244.000000" y1="56.000000" x2="244.000000" y2="56.000000"  style="stroke:black; stroke-linecap:round; stroke-width:0.25;"/>
<line x1="244.000000" y1="72.000000" x2="244.000000" y2="56.000000"  style="stroke:black; stroke-linecap:round; stroke-width:0.25;"/>
<line x1="244.000000" y1="76.000000" x2="246.000000" y2="76.000000"  style="stroke:black; stroke-linecap:round; stroke-width:0.25;"/>
<line x1="246.000000" y1="76.000000" x2="252.000000" y2="76.000000"  style="stroke:black; stroke-linecap:round; stroke-width:0.25;"/>
<line x1="252.000000" y1="102.000000" x2="260.000000" y2="102.000000"  style="stroke:black; stroke-linecap:round; stroke-width:0.25;"/>
<line x1="252.000000" y1="122.000000" x2="252.000000" y2="102.000000"  style="stroke:black; stroke-linecap:round; stroke-width:0.25;"/>
<line x1="252.000000" y1="122.000000" x2="252.000000" y2="122.000000"  style="stroke:black; stroke-linecap:round; stroke-width:0.25;"/>
<line x1="252.000000" y1="76.000000" x2="260.000000" y2="76.000000"  style="stroke:black; stroke-linecap:round; stroke-width:0.25;"/>
<line x1="260.000000" y1="76.000000" x2="260.000000" y2="82.000000"  style="stroke:black; stroke-linecap:round; stroke-width:0.25;"/>
<line x1="260.000000" y1="82.000000" x2="260.000000" y2="82.000000"  style="stroke:black; stroke-linecap:round; stroke-width:0.25;"/>
<line x1="260.000000" y1="82.000000" x2="264.000000" y2="82.000000"  style="stroke:black; stroke-linecap:round; stroke-width:0.25;"/>
<line x1="260.000000" y1="102.000000" x2="276.000000" y2="102.000000"  style="stroke:black; stroke-linecap:round; stroke-width:0.25;"/>
<line x1="276.000000" y1="102.000000" x2="292.000000" y2="102.000000"  style="stroke:black; stroke-linecap:round; stroke-width:0.25;"/>
<line x1="288.000000" y1="82.000000" x2="292.000000" y2="82.000000"  style="stroke:black; stroke-linecap:round; stroke-width:0.25;"/>
<line x1="292.000000" y1="82.000000" x2="300.000000" y2="82.000000"  style="stroke:black; stroke-linecap:round; stroke-width:0.25;"/>
<line x1="292.000000" y1="90.000000" x2="300.000000" y2="90.000000"  style="stroke:black; stroke-linecap:round; stroke-width:0.25;"/>
<line x1="292.000000" y1="102.000000" x2="292.000000" y2="90.000000"  style="stroke:black; stroke-linecap:round; stroke-width:0.25;"/>
<line x1="292.000000" y1="102.000000" x2="292.000000" y2="102.000000"  style="stroke:black; stroke-linecap:round; stroke-width:0.25;"/>
<line x1="300.000000" y1="82.000000" x2="304.000000" y2="82.000000"  style="stroke:black; stroke-linecap:round; stroke-width:0.25;"/>
<line x1="300.000000" y1="90.000000" x2="304.000000" y2="90.000000"  style="stroke:black; stroke-linecap:round; stroke-width:0.25;"/>
<line x1="328.000000" y1="86.000000" x2="332.000000" y2="86.000000"  style="stroke:black; stroke-linecap:round; stroke-width:0.25;"/>
<line x1="332.000000" y1="86.000000" x2="332.000000" y2="86.000000"  style="stroke:black; stroke-linecap:round; stroke-width:0.25;"/>
<line x1="332.000000" y1="86.000000" x2="336.000000" y2="86.000000"  style="stroke:black; stroke-linecap:round; stroke-width:0.25;"/>
<line x1="336.000000" y1="86.000000" x2="340.000000" y2="86.000000"  style="stroke:black; stroke-linecap:round; stroke-width:0.25;"/>
<line x1="340.000000" y1="86.000000" x2="350.000000" y2="86.000000"  style="stroke:black; stroke-linecap:round; stroke-width:0.25;"/>
</svg>
