<?xml version="1.0"?>
<svg xmlns="http://www.w3.org/2000/svg" xmlns:xlink="http://www.w3.org/1999/xlink" viewBox="0 0 788.000000 156.000000" width="394.000000mm" height="78.000000mm" version="1.1">
<defs>
   <filter id="filter" filterRes="18" x="0" y="0">
     <feGaussianBlur in="SourceGraphic" stdDeviation="1.55" result="blur"/>
     <feOffset in="blur" dx="3" dy="3"/>
   </filter>
</defs>
<a xlink:href="right-0x7f8e69822060.svg">
<rect x="1.000000" y="1.000000" width="787.000000" height="155.000000" rx="0.1" ry="0.1" style="stroke:none;fill:#aaaaaa;;filter:url(#filter);"/>
<rect x="0.000000" y="0.000000" width="787.000000" height="155.000000" rx="0" ry="0" style="stroke:none;fill:#ffffff;"/>
</a>
<text x="10.000000" y="7.000000" font-family="Arial" font-size="7"></text>
<rect x="168.000000" y="45.000000" width="24.000000" height="24.000000" rx="0.1" ry="0.1" style="stroke:none;fill:#aaaaaa;;filter:url(#filter);"/>
<rect x="167.000000" y="44.000000" width="24.000000" height="24.000000" rx="0" ry="0" style="stroke:none;fill:#f44800;"/>
<text x="179.000000" y="58.000000" font-family="Arial" font-size="7" text-anchor="middle" fill="#FFFFFF">1</text>
<circle cx="169.000000" cy="46.000000" r="1"/>
<rect x="51.000000" y="87.000000" width="258.000000" height="24.000000" rx="0.1" ry="0.1" style="stroke:none;fill:#aaaaaa;;filter:url(#filter);"/>
<rect x="50.000000" y="86.000000" width="258.000000" height="24.000000" rx="0" ry="0" style="stroke:none;fill:#477881;"/>
<text x="179.000000" y="100.000000" font-family="Arial" font-size="7" text-anchor="middle" fill="#FFFFFF">hslider(Brightness, 0.20000000000000001f, 0.0f, 1.0f, 0.01f)</text>
<circle cx="52.000000" cy="88.000000" r="1"/>
<line x1="41.000000" y1="77.000000" x2="41.000000" y2="119.000000"  style="stroke: black; stroke-linecap:round; stroke-width:0.25; stroke-dasharray:3,3;"/>
<line x1="41.000000" y1="119.000000" x2="317.000000" y2="119.000000"  style="stroke: black; stroke-linecap:round; stroke-width:0.25; stroke-dasharray:3,3;"/>
<line x1="317.000000" y1="119.000000" x2="317.000000" y2="77.000000"  style="stroke: black; stroke-linecap:round; stroke-width:0.25; stroke-dasharray:3,3;"/>
<line x1="41.000000" y1="77.000000" x2="46.000000" y2="77.000000"  style="stroke: black; stroke-linecap:round; stroke-width:0.25; stroke-dasharray:3,3;"/>
<line x1="65.350000" y1="77.000000" x2="317.000000" y2="77.000000"  style="stroke: black; stroke-linecap:round; stroke-width:0.25; stroke-dasharray:3,3;"/>
<text x="46.000000" y="79.000000" font-family="Arial" font-size="7">damp</text>
<rect x="335.000000" y="71.000000" width="24.000000" height="24.000000" rx="0.1" ry="0.1" style="stroke:none;fill:#aaaaaa;;filter:url(#filter);"/>
<rect x="334.000000" y="70.000000" width="24.000000" height="24.000000" rx="0" ry="0" style="stroke:none;fill:#4B71A1;"/>
<text x="346.000000" y="84.000000" font-family="Arial" font-size="7" text-anchor="middle" fill="#FFFFFF">-</text>
<circle cx="336.000000" cy="72.000000" r="1"/>
<line x1="331.000000" y1="77.000000" x2="334.000000" y2="78.000000"  transform="rotate(0.000000,334.000000,78.000000)" style="stroke: black; stroke-width:0.25;"/>
<line x1="331.000000" y1="79.000000" x2="334.000000" y2="78.000000"  transform="rotate(0.000000,334.000000,78.000000)" style="stroke: black; stroke-width:0.25;"/>
<line x1="331.000000" y1="85.000000" x2="334.000000" y2="86.000000"  transform="rotate(0.000000,334.000000,86.000000)" style="stroke: black; stroke-width:0.25;"/>
<line x1="331.000000" y1="87.000000" x2="334.000000" y2="86.000000"  transform="rotate(0.000000,334.000000,86.000000)" style="stroke: black; stroke-width:0.25;"/>
<rect x="375.000000" y="67.000000" width="24.000000" height="24.000000" rx="0.1" ry="0.1" style="stroke:none;fill:#aaaaaa;;filter:url(#filter);"/>
<rect x="374.000000" y="66.000000" width="24.000000" height="24.000000" rx="0" ry="0" style="stroke:none;fill:#4B71A1;"/>
<text x="386.000000" y="80.000000" font-family="Arial" font-size="7" text-anchor="middle" fill="#FFFFFF">*</text>
<circle cx="376.000000" cy="68.000000" r="1"/>
<line x1="371.000000" y1="73.000000" x2="374.000000" y2="74.000000"  transform="rotate(0.000000,374.000000,74.000000)" style="stroke: black; stroke-width:0.25;"/>
<line x1="371.000000" y1="75.000000" x2="374.000000" y2="74.000000"  transform="rotate(0.000000,374.000000,74.000000)" style="stroke: black; stroke-width:0.25;"/>
<line x1="371.000000" y1="81.000000" x2="374.000000" y2="82.000000"  transform="rotate(0.000000,374.000000,82.000000)" style="stroke: black; stroke-width:0.25;"/>
<line x1="371.000000" y1="83.000000" x2="374.000000" y2="82.000000"  transform="rotate(0.000000,374.000000,82.000000)" style="stroke: black; stroke-width:0.25;"/>
<rect x="570.000000" y="109.000000" width="24.000000" height="24.000000" rx="0.1" ry="0.1" style="stroke:none;fill:#aaaaaa;;filter:url(#filter);"/>
<rect x="569.000000" y="108.000000" width="24.000000" height="24.000000" rx="0" ry="0" style="stroke:none;fill:#4B71A1;"/>
<text x="581.000000" y="122.000000" font-family="Arial" font-size="7" text-anchor="middle" fill="#FFFFFF">+</text>
<circle cx="571.000000" cy="110.000000" r="1"/>
<line x1="566.000000" y1="115.000000" x2="569.000000" y2="116.000000"  transform="rotate(0.000000,569.000000,116.000000)" style="stroke: black; stroke-width:0.25;"/>
<line x1="566.000000" y1="117.000000" x2="569.000000" y2="116.000000"  transform="rotate(0.000000,569.000000,116.000000)" style="stroke: black; stroke-width:0.25;"/>
<line x1="566.000000" y1="123.000000" x2="569.000000" y2="124.000000"  transform="rotate(0.000000,569.000000,124.000000)" style="stroke: black; stroke-width:0.25;"/>
<line x1="566.000000" y1="125.000000" x2="569.000000" y2="124.000000"  transform="rotate(0.000000,569.000000,124.000000)" style="stroke: black; stroke-width:0.25;"/>
<rect x="590.000000" y="77.000000" width="24.000000" height="24.000000" rx="0.1" ry="0.1" style="stroke:none;fill:#aaaaaa;;filter:url(#filter);"/>
<rect x="589.000000" y="76.000000" width="24.000000" height="24.000000" rx="0" ry="0" style="stroke:none;fill:#4B71A1;"/>
<text x="601.000000" y="90.000000" font-family="Arial" font-size="7" text-anchor="middle" fill="#FFFFFF">mem</text>
<circle cx="611.000000" cy="98.000000" r="1"/>
<line x1="616.000000" y1="87.000000" x2="613.000000" y2="88.000000"  transform="rotate(0.000000,613.000000,88.000000)" style="stroke: black; stroke-width:0.25;"/>
<line x1="616.000000" y1="89.000000" x2="613.000000" y2="88.000000"  transform="rotate(0.000000,613.000000,88.000000)" style="stroke: black; stroke-width:0.25;"/>
<rect x="473.000000" y="35.000000" width="258.000000" height="24.000000" rx="0.1" ry="0.1" style="stroke:none;fill:#aaaaaa;;filter:url(#filter);"/>
<rect x="472.000000" y="34.000000" width="258.000000" height="24.000000" rx="0" ry="0" style="stroke:none;fill:#477881;"/>
<text x="601.000000" y="48.000000" font-family="Arial" font-size="7" text-anchor="middle" fill="#FFFFFF">hslider(Brightness, 0.20000000000000001f, 0.0f, 1.0f, 0.01f)</text>
<circle cx="728.000000" cy="56.000000" r="1"/>
<line x1="463.000000" y1="25.000000" x2="463.000000" y2="67.000000"  style="stroke: black; stroke-linecap:round; stroke-width:0.25; stroke-dasharray:3,3;"/>
<line x1="463.000000" y1="67.000000" x2="739.000000" y2="67.000000"  style="stroke: black; stroke-linecap:round; stroke-width:0.25; stroke-dasharray:3,3;"/>
<line x1="739.000000" y1="67.000000" x2="739.000000" y2="25.000000"  style="stroke: black; stroke-linecap:round; stroke-width:0.25; stroke-dasharray:3,3;"/>
<line x1="463.000000" y1="25.000000" x2="468.000000" y2="25.000000"  style="stroke: black; stroke-linecap:round; stroke-width:0.25; stroke-dasharray:3,3;"/>
<line x1="487.350000" y1="25.000000" x2="739.000000" y2="25.000000"  style="stroke: black; stroke-linecap:round; stroke-width:0.25; stroke-dasharray:3,3;"/>
<text x="468.000000" y="27.000000" font-family="Arial" font-size="7">damp</text>
<rect x="423.000000" y="51.000000" width="24.000000" height="24.000000" rx="0.1" ry="0.1" style="stroke:none;fill:#aaaaaa;;filter:url(#filter);"/>
<rect x="422.000000" y="50.000000" width="24.000000" height="24.000000" rx="0" ry="0" style="stroke:none;fill:#4B71A1;"/>
<text x="434.000000" y="64.000000" font-family="Arial" font-size="7" text-anchor="middle" fill="#FFFFFF">*</text>
<circle cx="444.000000" cy="72.000000" r="1"/>
<line x1="449.000000" y1="65.000000" x2="446.000000" y2="66.000000"  transform="rotate(0.000000,446.000000,66.000000)" style="stroke: black; stroke-width:0.25;"/>
<line x1="449.000000" y1="67.000000" x2="446.000000" y2="66.000000"  transform="rotate(0.000000,446.000000,66.000000)" style="stroke: black; stroke-width:0.25;"/>
<line x1="449.000000" y1="57.000000" x2="446.000000" y2="58.000000"  transform="rotate(0.000000,446.000000,58.000000)" style="stroke: black; stroke-width:0.25;"/>
<line x1="449.000000" y1="59.000000" x2="446.000000" y2="58.000000"  transform="rotate(0.000000,446.000000,58.000000)" style="stroke: black; stroke-width:0.25;"/>
<line x1="742.000000" y1="120.000000" x2="742.000000" y2="116.000000"  style="stroke:black; stroke-linecap:round; stroke-width:0.25;"/>
<line x1="742.000000" y1="116.000000" x2="746.000000" y2="116.000000"  style="stroke:black; stroke-linecap:round; stroke-width:0.25;"/>
<line x1="746.000000" y1="116.000000" x2="746.000000" y2="120.000000"  style="stroke:black; stroke-linecap:round; stroke-width:0.25;"/>
<line x1="15.000000" y1="15.000000" x2="15.000000" y2="141.000000"  style="stroke: black; stroke-linecap:round; stroke-width:0.25; stroke-dasharray:3,3;"/>
<line x1="15.000000" y1="141.000000" x2="773.000000" y2="141.000000"  style="stroke: black; stroke-linecap:round; stroke-width:0.25; stroke-dasharray:3,3;"/>
<line x1="773.000000" y1="141.000000" x2="773.000000" y2="15.000000"  style="stroke: black; stroke-linecap:round; stroke-width:0.25; stroke-dasharray:3,3;"/>
<line x1="15.000000" y1="15.000000" x2="20.000000" y2="15.000000"  style="stroke: black; stroke-linecap:round; stroke-width:0.25; stroke-dasharray:3,3;"/>
<line x1="119.975000" y1="15.000000" x2="773.000000" y2="15.000000"  style="stroke: black; stroke-linecap:round; stroke-width:0.25; stroke-dasharray:3,3;"/>
<text x="20.000000" y="17.000000" font-family="Arial" font-size="7">damping(hslid...1.0f, 0.01f))</text>
<line x1="775.000000" y1="77.000000" x2="778.000000" y2="78.000000"  transform="rotate(0.000000,778.000000,78.000000)" style="stroke: black; stroke-width:0.25;"/>
<line x1="775.000000" y1="79.000000" x2="778.000000" y2="78.000000"  transform="rotate(0.000000,778.000000,78.000000)" style="stroke: black; stroke-width:0.25;"/>
<line x1="10.000000" y1="78.000000" x2="20.000000" y2="78.000000"  style="stroke:black; stroke-linecap:round; stroke-width:0.25;"/>
<line x1="20.000000" y1="78.000000" x2="24.000000" y2="78.000000"  style="stroke:black; stroke-linecap:round; stroke-width:0.25;"/>
<line x1="24.000000" y1="78.000000" x2="28.000000" y2="78.000000"  style="stroke:black; stroke-linecap:round; stroke-width:0.25;"/>
<line x1="28.000000" y1="36.000000" x2="36.000000" y2="36.000000"  style="stroke:black; stroke-linecap:round; stroke-width:0.25;"/>
<line x1="28.000000" y1="78.000000" x2="28.000000" y2="36.000000"  style="stroke:black; stroke-linecap:round; stroke-width:0.25;"/>
<line x1="28.000000" y1="78.000000" x2="28.000000" y2="78.000000"  style="stroke:black; stroke-linecap:round; stroke-width:0.25;"/>
<line x1="36.000000" y1="36.000000" x2="199.000000" y2="36.000000"  style="stroke:black; stroke-linecap:round; stroke-width:0.25;"/>
<line x1="191.000000" y1="56.000000" x2="195.000000" y2="56.000000"  style="stroke:black; stroke-linecap:round; stroke-width:0.25;"/>
<line x1="195.000000" y1="56.000000" x2="322.000000" y2="56.000000"  style="stroke:black; stroke-linecap:round; stroke-width:0.25;"/>
<line x1="199.000000" y1="36.000000" x2="362.000000" y2="36.000000"  style="stroke:black; stroke-linecap:round; stroke-width:0.25;"/>
<line x1="308.000000" y1="98.000000" x2="312.000000" y2="98.000000"  style="stroke:black; stroke-linecap:round; stroke-width:0.25;"/>
<line x1="312.000000" y1="98.000000" x2="322.000000" y2="98.000000"  style="stroke:black; stroke-linecap:round; stroke-width:0.25;"/>
<line x1="322.000000" y1="56.000000" x2="330.000000" y2="56.000000"  style="stroke:black; stroke-linecap:round; stroke-width:0.25;"/>
<line x1="322.000000" y1="86.000000" x2="330.000000" y2="86.000000"  style="stroke:black; stroke-linecap:round; stroke-width:0.25;"/>
<line x1="322.000000" y1="98.000000" x2="322.000000" y2="86.000000"  style="stroke:black; stroke-linecap:round; stroke-width:0.25;"/>
<line x1="322.000000" y1="98.000000" x2="322.000000" y2="98.000000"  style="stroke:black; stroke-linecap:round; stroke-width:0.25;"/>
<line x1="330.000000" y1="56.000000" x2="330.000000" y2="78.000000"  style="stroke:black; stroke-linecap:round; stroke-width:0.25;"/>
<line x1="330.000000" y1="78.000000" x2="330.000000" y2="78.000000"  style="stroke:black; stroke-linecap:round; stroke-width:0.25;"/>
<line x1="330.000000" y1="78.000000" x2="334.000000" y2="78.000000"  style="stroke:black; stroke-linecap:round; stroke-width:0.25;"/>
<line x1="330.000000" y1="86.000000" x2="334.000000" y2="86.000000"  style="stroke:black; stroke-linecap:round; stroke-width:0.25;"/>
<line x1="358.000000" y1="82.000000" x2="362.000000" y2="82.000000"  style="stroke:black; stroke-linecap:round; stroke-width:0.25;"/>
<line x1="362.000000" y1="36.000000" x2="370.000000" y2="36.000000"  style="stroke:black; stroke-linecap:round; stroke-width:0.25;"/>
<line x1="362.000000" y1="82.000000" x2="370.000000" y2="82.000000"  style="stroke:black; stroke-linecap:round; stroke-width:0.25;"/>
<line x1="370.000000" y1="36.000000" x2="370.000000" y2="74.000000"  style="stroke:black; stroke-linecap:round; stroke-width:0.25;"/>
<line x1="370.000000" y1="74.000000" x2="370.000000" y2="74.000000"  style="stroke:black; stroke-linecap:round; stroke-width:0.25;"/>
<line x1="370.000000" y1="74.000000" x2="374.000000" y2="74.000000"  style="stroke:black; stroke-linecap:round; stroke-width:0.25;"/>
<line x1="370.000000" y1="82.000000" x2="374.000000" y2="82.000000"  style="stroke:black; stroke-linecap:round; stroke-width:0.25;"/>
<line x1="398.000000" y1="78.000000" x2="402.000000" y2="78.000000"  style="stroke:black; stroke-linecap:round; stroke-width:0.25;"/>
<line x1="402.000000" y1="78.000000" x2="410.000000" y2="78.000000"  style="stroke:black; stroke-linecap:round; stroke-width:0.25;"/>
<line x1="410.000000" y1="78.000000" x2="410.000000" y2="124.000000"  style="stroke:black; stroke-linecap:round; stroke-width:0.25;"/>
<line x1="410.000000" y1="124.000000" x2="410.000000" y2="124.000000"  style="stroke:black; stroke-linecap:round; stroke-width:0.25;"/>
<line x1="410.000000" y1="124.000000" x2="418.000000" y2="124.000000"  style="stroke:black; stroke-linecap:round; stroke-width:0.25;"/>
<line x1="418.000000" y1="62.000000" x2="418.000000" y2="62.000000"  style="stroke:black; stroke-linecap:round; stroke-width:0.25;"/>
<line x1="418.000000" y1="62.000000" x2="418.000000" y2="116.000000"  style="stroke:black; stroke-linecap:round; stroke-width:0.25;"/>
<line x1="418.000000" y1="116.000000" x2="418.000000" y2="116.000000"  style="stroke:black; stroke-linecap:round; stroke-width:0.25;"/>
<line x1="418.000000" y1="116.000000" x2="565.000000" y2="116.000000"  style="stroke:black; stroke-linecap:round; stroke-width:0.25;"/>
<line x1="418.000000" y1="124.000000" x2="565.000000" y2="124.000000"  style="stroke:black; stroke-linecap:round; stroke-width:0.25;"/>
<line x1="422.000000" y1="62.000000" x2="418.000000" y2="62.000000"  style="stroke:black; stroke-linecap:round; stroke-width:0.25;"/>
<line x1="450.000000" y1="58.000000" x2="446.000000" y2="58.000000"  style="stroke:black; stroke-linecap:round; stroke-width:0.25;"/>
<line x1="450.000000" y1="66.000000" x2="446.000000" y2="66.000000"  style="stroke:black; stroke-linecap:round; stroke-width:0.25;"/>
<line x1="450.000000" y1="66.000000" x2="450.000000" y2="66.000000"  style="stroke:black; stroke-linecap:round; stroke-width:0.25;"/>
<line x1="450.000000" y1="88.000000" x2="450.000000" y2="66.000000"  style="stroke:black; stroke-linecap:round; stroke-width:0.25;"/>
<line x1="458.000000" y1="46.000000" x2="458.000000" y2="46.000000"  style="stroke:black; stroke-linecap:round; stroke-width:0.25;"/>
<line x1="458.000000" y1="46.000000" x2="458.000000" y2="58.000000"  style="stroke:black; stroke-linecap:round; stroke-width:0.25;"/>
<line x1="458.000000" y1="58.000000" x2="450.000000" y2="58.000000"  style="stroke:black; stroke-linecap:round; stroke-width:0.25;"/>
<line x1="458.000000" y1="88.000000" x2="450.000000" y2="88.000000"  style="stroke:black; stroke-linecap:round; stroke-width:0.25;"/>
<line x1="468.000000" y1="46.000000" x2="458.000000" y2="46.000000"  style="stroke:black; stroke-linecap:round; stroke-width:0.25;"/>
<line x1="472.000000" y1="46.000000" x2="468.000000" y2="46.000000"  style="stroke:black; stroke-linecap:round; stroke-width:0.25;"/>
<line x1="565.000000" y1="116.000000" x2="569.000000" y2="116.000000"  style="stroke:black; stroke-linecap:round; stroke-width:0.25;"/>
<line x1="565.000000" y1="124.000000" x2="569.000000" y2="124.000000"  style="stroke:black; stroke-linecap:round; stroke-width:0.25;"/>
<line x1="585.000000" y1="88.000000" x2="458.000000" y2="88.000000"  style="stroke:black; stroke-linecap:round; stroke-width:0.25;"/>
<line x1="589.000000" y1="88.000000" x2="585.000000" y2="88.000000"  style="stroke:black; stroke-linecap:round; stroke-width:0.25;"/>
<line x1="593.000000" y1="120.000000" x2="597.000000" y2="120.000000"  style="stroke:black; stroke-linecap:round; stroke-width:0.25;"/>
<line x1="597.000000" y1="120.000000" x2="744.000000" y2="120.000000"  style="stroke:black; stroke-linecap:round; stroke-width:0.25;"/>
<line x1="617.000000" y1="88.000000" x2="613.000000" y2="88.000000"  style="stroke:black; stroke-linecap:round; stroke-width:0.25;"/>
<line x1="744.000000" y1="88.000000" x2="617.000000" y2="88.000000"  style="stroke:black; stroke-linecap:round; stroke-width:0.25;"/>
<line x1="744.000000" y1="88.000000" x2="744.000000" y2="88.000000"  style="stroke:black; stroke-linecap:round; stroke-width:0.25;"/>
<line x1="744.000000" y1="116.000000" x2="744.000000" y2="88.000000"  style="stroke:black; stroke-linecap:round; stroke-width:0.25;"/>
<line x1="744.000000" y1="120.000000" x2="746.000000" y2="120.000000"  style="stroke:black; stroke-linecap:round; stroke-width:0.25;"/>
<line x1="746.000000" y1="120.000000" x2="752.000000" y2="120.000000"  style="stroke:black; stroke-linecap:round; stroke-width:0.25;"/>
<line x1="752.000000" y1="78.000000" x2="760.000000" y2="78.000000"  style="stroke:black; stroke-linecap:round; stroke-width:0.25;"/>
<line x1="752.000000" y1="120.000000" x2="752.000000" y2="78.000000"  style="stroke:black; stroke-linecap:round; stroke-width:0.25;"/>
<line x1="752.000000" y1="120.000000" x2="752.000000" y2="120.000000"  style="stroke:black; stroke-linecap:round; stroke-width:0.25;"/>
<line x1="760.000000" y1="78.000000" x2="764.000000" y2="78.000000"  style="stroke:black; stroke-linecap:round; stroke-width:0.25;"/>
<line x1="764.000000" y1="78.000000" x2="768.000000" y2="78.000000"  style="stroke:black; stroke-linecap:round; stroke-width:0.25;"/>
<line x1="768.000000" y1="78.000000" x2="778.000000" y2="78.000000"  style="stroke:black; stroke-linecap:round; stroke-width:0.25;"/>
</svg>
