<?xml version="1.0"?>
<svg xmlns="http://www.w3.org/2000/svg" xmlns:xlink="http://www.w3.org/1999/xlink" viewBox="0 0 221.800000 188.000000" width="110.900000mm" height="94.000000mm" version="1.1">
<defs>
   <filter id="filter" filterRes="18" x="0" y="0">
     <feGaussianBlur in="SourceGraphic" stdDeviation="1.55" result="blur"/>
     <feOffset in="blur" dx="3" dy="3"/>
   </filter>
</defs>
<a xlink:href="fdelay2a-0x7f8e674b9590.svg">
<rect x="1.000000" y="1.000000" width="220.800000" height="187.000000" rx="0.1" ry="0.1" style="stroke:none;fill:#aaaaaa;;filter:url(#filter);"/>
<rect x="0.000000" y="0.000000" width="220.800000" height="187.000000" rx="0" ry="0" style="stroke:none;fill:#ffffff;"/>
</a>
<text x="10.000000" y="7.000000" font-family="Arial" font-size="7"></text>
<rect x="75.900000" y="25.000000" width="24.000000" height="24.000000" rx="0.1" ry="0.1" style="stroke:none;fill:#aaaaaa;;filter:url(#filter);"/>
<rect x="74.900000" y="24.000000" width="24.000000" height="24.000000" rx="0" ry="0" style="stroke:none;fill:#47945E;"/>
<text x="86.900000" y="38.000000" font-family="Arial" font-size="7" text-anchor="middle" fill="#FFFFFF">x</text>
<circle cx="76.900000" cy="26.000000" r="1"/>
<rect x="55.000000" y="57.000000" width="25.800000" height="24.000000" rx="0.1" ry="0.1" style="stroke:none;fill:#aaaaaa;;filter:url(#filter);"/>
<rect x="54.000000" y="56.000000" width="25.800000" height="24.000000" rx="0" ry="0" style="stroke:none;fill:#f44800;"/>
<text x="66.900000" y="70.000000" font-family="Arial" font-size="7" text-anchor="middle" fill="#FFFFFF">14886</text>
<circle cx="56.000000" cy="58.000000" r="1"/>
<rect x="35.900000" y="89.000000" width="24.000000" height="24.000000" rx="0.1" ry="0.1" style="stroke:none;fill:#aaaaaa;;filter:url(#filter);"/>
<rect x="34.900000" y="88.000000" width="24.000000" height="24.000000" rx="0" ry="0" style="stroke:none;fill:#f44800;"/>
<text x="46.900000" y="102.000000" font-family="Arial" font-size="7" text-anchor="middle" fill="#FFFFFF">0</text>
<circle cx="36.900000" cy="90.000000" r="1"/>
<rect x="35.000000" y="131.000000" width="25.800000" height="24.000000" rx="0.1" ry="0.1" style="stroke:none;fill:#aaaaaa;;filter:url(#filter);"/>
<rect x="34.000000" y="130.000000" width="25.800000" height="24.000000" rx="0" ry="0" style="stroke:none;fill:#f44800;"/>
<text x="46.900000" y="144.000000" font-family="Arial" font-size="7" text-anchor="middle" fill="#FFFFFF">2968</text>
<circle cx="36.000000" cy="132.000000" r="1"/>
<line x1="25.000000" y1="121.000000" x2="25.000000" y2="163.000000"  style="stroke: black; stroke-linecap:round; stroke-width:0.25; stroke-dasharray:3,3;"/>
<line x1="25.000000" y1="163.000000" x2="68.800000" y2="163.000000"  style="stroke: black; stroke-linecap:round; stroke-width:0.25; stroke-dasharray:3,3;"/>
<line x1="68.800000" y1="163.000000" x2="68.800000" y2="121.000000"  style="stroke: black; stroke-linecap:round; stroke-width:0.25; stroke-dasharray:3,3;"/>
<line x1="25.000000" y1="121.000000" x2="30.000000" y2="121.000000"  style="stroke: black; stroke-linecap:round; stroke-width:0.25; stroke-dasharray:3,3;"/>
<line x1="42.900000" y1="121.000000" x2="68.800000" y2="121.000000"  style="stroke: black; stroke-linecap:round; stroke-width:0.25; stroke-dasharray:3,3;"/>
<text x="30.000000" y="123.000000" font-family="Arial" font-size="7">id</text>
<rect x="86.800000" y="115.000000" width="24.000000" height="24.000000" rx="0.1" ry="0.1" style="stroke:none;fill:#aaaaaa;;filter:url(#filter);"/>
<rect x="85.800000" y="114.000000" width="24.000000" height="24.000000" rx="0" ry="0" style="stroke:none;fill:#4B71A1;"/>
<text x="97.800000" y="128.000000" font-family="Arial" font-size="7" text-anchor="middle" fill="#FFFFFF">max</text>
<circle cx="87.800000" cy="116.000000" r="1"/>
<line x1="82.800000" y1="121.000000" x2="85.800000" y2="122.000000"  transform="rotate(0.000000,85.800000,122.000000)" style="stroke: black; stroke-width:0.25;"/>
<line x1="82.800000" y1="123.000000" x2="85.800000" y2="122.000000"  transform="rotate(0.000000,85.800000,122.000000)" style="stroke: black; stroke-width:0.25;"/>
<line x1="82.800000" y1="129.000000" x2="85.800000" y2="130.000000"  transform="rotate(0.000000,85.800000,130.000000)" style="stroke: black; stroke-width:0.25;"/>
<line x1="82.800000" y1="131.000000" x2="85.800000" y2="130.000000"  transform="rotate(0.000000,85.800000,130.000000)" style="stroke: black; stroke-width:0.25;"/>
<rect x="126.800000" y="99.000000" width="24.000000" height="24.000000" rx="0.1" ry="0.1" style="stroke:none;fill:#aaaaaa;;filter:url(#filter);"/>
<rect x="125.800000" y="98.000000" width="24.000000" height="24.000000" rx="0" ry="0" style="stroke:none;fill:#4B71A1;"/>
<text x="137.800000" y="112.000000" font-family="Arial" font-size="7" text-anchor="middle" fill="#FFFFFF">min</text>
<circle cx="127.800000" cy="100.000000" r="1"/>
<line x1="122.800000" y1="105.000000" x2="125.800000" y2="106.000000"  transform="rotate(0.000000,125.800000,106.000000)" style="stroke: black; stroke-width:0.25;"/>
<line x1="122.800000" y1="107.000000" x2="125.800000" y2="106.000000"  transform="rotate(0.000000,125.800000,106.000000)" style="stroke: black; stroke-width:0.25;"/>
<line x1="122.800000" y1="113.000000" x2="125.800000" y2="114.000000"  transform="rotate(0.000000,125.800000,114.000000)" style="stroke: black; stroke-width:0.25;"/>
<line x1="122.800000" y1="115.000000" x2="125.800000" y2="114.000000"  transform="rotate(0.000000,125.800000,114.000000)" style="stroke: black; stroke-width:0.25;"/>
<rect x="166.800000" y="83.000000" width="24.000000" height="24.000000" rx="0.1" ry="0.1" style="stroke:none;fill:#aaaaaa;;filter:url(#filter);"/>
<rect x="165.800000" y="82.000000" width="24.000000" height="24.000000" rx="0" ry="0" style="stroke:none;fill:#4B71A1;"/>
<text x="177.800000" y="96.000000" font-family="Arial" font-size="7" text-anchor="middle" fill="#FFFFFF">@</text>
<circle cx="167.800000" cy="84.000000" r="1"/>
<line x1="162.800000" y1="89.000000" x2="165.800000" y2="90.000000"  transform="rotate(0.000000,165.800000,90.000000)" style="stroke: black; stroke-width:0.25;"/>
<line x1="162.800000" y1="91.000000" x2="165.800000" y2="90.000000"  transform="rotate(0.000000,165.800000,90.000000)" style="stroke: black; stroke-width:0.25;"/>
<line x1="162.800000" y1="97.000000" x2="165.800000" y2="98.000000"  transform="rotate(0.000000,165.800000,98.000000)" style="stroke: black; stroke-width:0.25;"/>
<line x1="162.800000" y1="99.000000" x2="165.800000" y2="98.000000"  transform="rotate(0.000000,165.800000,98.000000)" style="stroke: black; stroke-width:0.25;"/>
<line x1="15.000000" y1="15.000000" x2="15.000000" y2="173.000000"  style="stroke: black; stroke-linecap:round; stroke-width:0.25; stroke-dasharray:3,3;"/>
<line x1="15.000000" y1="173.000000" x2="206.800000" y2="173.000000"  style="stroke: black; stroke-linecap:round; stroke-width:0.25; stroke-dasharray:3,3;"/>
<line x1="206.800000" y1="173.000000" x2="206.800000" y2="15.000000"  style="stroke: black; stroke-linecap:round; stroke-width:0.25; stroke-dasharray:3,3;"/>
<line x1="15.000000" y1="15.000000" x2="20.000000" y2="15.000000"  style="stroke: black; stroke-linecap:round; stroke-width:0.25; stroke-dasharray:3,3;"/>
<line x1="145.775000" y1="15.000000" x2="206.800000" y2="15.000000"  style="stroke: black; stroke-linecap:round; stroke-width:0.25; stroke-dasharray:3,3;"/>
<text x="20.000000" y="17.000000" font-family="Arial" font-size="7">delay(14886.009999999998f)(2968)(x22)</text>
<line x1="208.800000" y1="93.000000" x2="211.800000" y2="94.000000"  transform="rotate(0.000000,211.800000,94.000000)" style="stroke: black; stroke-width:0.25;"/>
<line x1="208.800000" y1="95.000000" x2="211.800000" y2="94.000000"  transform="rotate(0.000000,211.800000,94.000000)" style="stroke: black; stroke-width:0.25;"/>
<line x1="58.900000" y1="100.000000" x2="62.900000" y2="100.000000"  style="stroke:black; stroke-linecap:round; stroke-width:0.25;"/>
<line x1="59.800000" y1="142.000000" x2="63.800000" y2="142.000000"  style="stroke:black; stroke-linecap:round; stroke-width:0.25;"/>
<line x1="62.900000" y1="100.000000" x2="73.800000" y2="100.000000"  style="stroke:black; stroke-linecap:round; stroke-width:0.25;"/>
<line x1="63.800000" y1="142.000000" x2="73.800000" y2="142.000000"  style="stroke:black; stroke-linecap:round; stroke-width:0.25;"/>
<line x1="73.800000" y1="100.000000" x2="81.800000" y2="100.000000"  style="stroke:black; stroke-linecap:round; stroke-width:0.25;"/>
<line x1="73.800000" y1="130.000000" x2="81.800000" y2="130.000000"  style="stroke:black; stroke-linecap:round; stroke-width:0.25;"/>
<line x1="73.800000" y1="142.000000" x2="73.800000" y2="130.000000"  style="stroke:black; stroke-linecap:round; stroke-width:0.25;"/>
<line x1="73.800000" y1="142.000000" x2="73.800000" y2="142.000000"  style="stroke:black; stroke-linecap:round; stroke-width:0.25;"/>
<line x1="79.800000" y1="68.000000" x2="83.800000" y2="68.000000"  style="stroke:black; stroke-linecap:round; stroke-width:0.25;"/>
<line x1="81.800000" y1="100.000000" x2="81.800000" y2="122.000000"  style="stroke:black; stroke-linecap:round; stroke-width:0.25;"/>
<line x1="81.800000" y1="122.000000" x2="81.800000" y2="122.000000"  style="stroke:black; stroke-linecap:round; stroke-width:0.25;"/>
<line x1="81.800000" y1="122.000000" x2="85.800000" y2="122.000000"  style="stroke:black; stroke-linecap:round; stroke-width:0.25;"/>
<line x1="81.800000" y1="130.000000" x2="85.800000" y2="130.000000"  style="stroke:black; stroke-linecap:round; stroke-width:0.25;"/>
<line x1="83.800000" y1="68.000000" x2="113.800000" y2="68.000000"  style="stroke:black; stroke-linecap:round; stroke-width:0.25;"/>
<line x1="98.900000" y1="36.000000" x2="102.900000" y2="36.000000"  style="stroke:black; stroke-linecap:round; stroke-width:0.25;"/>
<line x1="102.900000" y1="36.000000" x2="153.800000" y2="36.000000"  style="stroke:black; stroke-linecap:round; stroke-width:0.25;"/>
<line x1="109.800000" y1="126.000000" x2="113.800000" y2="126.000000"  style="stroke:black; stroke-linecap:round; stroke-width:0.25;"/>
<line x1="113.800000" y1="68.000000" x2="121.800000" y2="68.000000"  style="stroke:black; stroke-linecap:round; stroke-width:0.25;"/>
<line x1="113.800000" y1="114.000000" x2="121.800000" y2="114.000000"  style="stroke:black; stroke-linecap:round; stroke-width:0.25;"/>
<line x1="113.800000" y1="126.000000" x2="113.800000" y2="114.000000"  style="stroke:black; stroke-linecap:round; stroke-width:0.25;"/>
<line x1="113.800000" y1="126.000000" x2="113.800000" y2="126.000000"  style="stroke:black; stroke-linecap:round; stroke-width:0.25;"/>
<line x1="121.800000" y1="68.000000" x2="121.800000" y2="106.000000"  style="stroke:black; stroke-linecap:round; stroke-width:0.25;"/>
<line x1="121.800000" y1="106.000000" x2="121.800000" y2="106.000000"  style="stroke:black; stroke-linecap:round; stroke-width:0.25;"/>
<line x1="121.800000" y1="106.000000" x2="125.800000" y2="106.000000"  style="stroke:black; stroke-linecap:round; stroke-width:0.25;"/>
<line x1="121.800000" y1="114.000000" x2="125.800000" y2="114.000000"  style="stroke:black; stroke-linecap:round; stroke-width:0.25;"/>
<line x1="149.800000" y1="110.000000" x2="153.800000" y2="110.000000"  style="stroke:black; stroke-linecap:round; stroke-width:0.25;"/>
<line x1="153.800000" y1="36.000000" x2="161.800000" y2="36.000000"  style="stroke:black; stroke-linecap:round; stroke-width:0.25;"/>
<line x1="153.800000" y1="98.000000" x2="161.800000" y2="98.000000"  style="stroke:black; stroke-linecap:round; stroke-width:0.25;"/>
<line x1="153.800000" y1="110.000000" x2="153.800000" y2="98.000000"  style="stroke:black; stroke-linecap:round; stroke-width:0.25;"/>
<line x1="153.800000" y1="110.000000" x2="153.800000" y2="110.000000"  style="stroke:black; stroke-linecap:round; stroke-width:0.25;"/>
<line x1="161.800000" y1="36.000000" x2="161.800000" y2="90.000000"  style="stroke:black; stroke-linecap:round; stroke-width:0.25;"/>
<line x1="161.800000" y1="90.000000" x2="161.800000" y2="90.000000"  style="stroke:black; stroke-linecap:round; stroke-width:0.25;"/>
<line x1="161.800000" y1="90.000000" x2="165.800000" y2="90.000000"  style="stroke:black; stroke-linecap:round; stroke-width:0.25;"/>
<line x1="161.800000" y1="98.000000" x2="165.800000" y2="98.000000"  style="stroke:black; stroke-linecap:round; stroke-width:0.25;"/>
<line x1="189.800000" y1="94.000000" x2="193.800000" y2="94.000000"  style="stroke:black; stroke-linecap:round; stroke-width:0.25;"/>
<line x1="193.800000" y1="94.000000" x2="193.800000" y2="94.000000"  style="stroke:black; stroke-linecap:round; stroke-width:0.25;"/>
<line x1="193.800000" y1="94.000000" x2="197.800000" y2="94.000000"  style="stroke:black; stroke-linecap:round; stroke-width:0.25;"/>
<line x1="197.800000" y1="94.000000" x2="201.800000" y2="94.000000"  style="stroke:black; stroke-linecap:round; stroke-width:0.25;"/>
<line x1="201.800000" y1="94.000000" x2="211.800000" y2="94.000000"  style="stroke:black; stroke-linecap:round; stroke-width:0.25;"/>
</svg>
