<?xml version="1.0"?>
<svg xmlns="http://www.w3.org/2000/svg" xmlns:xlink="http://www.w3.org/1999/xlink" viewBox="0 0 700.800000 132.000000" width="350.400000mm" height="66.000000mm" version="1.1">
<defs>
   <filter id="filter" filterRes="18" x="0" y="0">
     <feGaussianBlur in="SourceGraphic" stdDeviation="1.55" result="blur"/>
     <feOffset in="blur" dx="3" dy="3"/>
   </filter>
</defs>
<a xlink:href="process.svg">
<rect x="1.000000" y="1.000000" width="699.800000" height="131.000000" rx="0.1" ry="0.1" style="stroke:none;fill:#aaaaaa;;filter:url(#filter);"/>
<rect x="0.000000" y="0.000000" width="699.800000" height="131.000000" rx="0" ry="0" style="stroke:none;fill:#ffffff;"/>
</a>
<text x="10.000000" y="7.000000" font-family="Arial" font-size="7"></text>
<rect x="59.000000" y="29.000000" width="24.000000" height="24.000000" rx="0.1" ry="0.1" style="stroke:none;fill:#aaaaaa;;filter:url(#filter);"/>
<rect x="58.000000" y="28.000000" width="24.000000" height="24.000000" rx="0" ry="0" style="stroke:none;fill:#4B71A1;"/>
<text x="70.000000" y="42.000000" font-family="Arial" font-size="7" text-anchor="middle" fill="#FFFFFF">+</text>
<circle cx="60.000000" cy="30.000000" r="1"/>
<line x1="55.000000" y1="35.000000" x2="58.000000" y2="36.000000"  transform="rotate(0.000000,58.000000,36.000000)" style="stroke: black; stroke-width:0.25;"/>
<line x1="55.000000" y1="37.000000" x2="58.000000" y2="36.000000"  transform="rotate(0.000000,58.000000,36.000000)" style="stroke: black; stroke-width:0.25;"/>
<line x1="55.000000" y1="43.000000" x2="58.000000" y2="44.000000"  transform="rotate(0.000000,58.000000,44.000000)" style="stroke: black; stroke-width:0.25;"/>
<line x1="55.000000" y1="45.000000" x2="58.000000" y2="44.000000"  transform="rotate(0.000000,58.000000,44.000000)" style="stroke: black; stroke-width:0.25;"/>
<rect x="59.000000" y="71.000000" width="24.000000" height="24.000000" rx="0.1" ry="0.1" style="stroke:none;fill:#aaaaaa;;filter:url(#filter);"/>
<rect x="58.000000" y="70.000000" width="24.000000" height="24.000000" rx="0" ry="0" style="stroke:none;fill:#f44800;"/>
<text x="70.000000" y="84.000000" font-family="Arial" font-size="7" text-anchor="middle" fill="#FFFFFF">0.5</text>
<circle cx="60.000000" cy="72.000000" r="1"/>
<line x1="49.000000" y1="61.000000" x2="49.000000" y2="103.000000"  style="stroke: black; stroke-linecap:round; stroke-width:0.25; stroke-dasharray:3,3;"/>
<line x1="49.000000" y1="103.000000" x2="91.000000" y2="103.000000"  style="stroke: black; stroke-linecap:round; stroke-width:0.25; stroke-dasharray:3,3;"/>
<line x1="91.000000" y1="103.000000" x2="91.000000" y2="61.000000"  style="stroke: black; stroke-linecap:round; stroke-width:0.25; stroke-dasharray:3,3;"/>
<line x1="49.000000" y1="61.000000" x2="54.000000" y2="61.000000"  style="stroke: black; stroke-linecap:round; stroke-width:0.25; stroke-dasharray:3,3;"/>
<line x1="86.250000" y1="61.000000" x2="91.000000" y2="61.000000"  style="stroke: black; stroke-linecap:round; stroke-width:0.25; stroke-dasharray:3,3;"/>
<text x="54.000000" y="63.000000" font-family="Arial" font-size="7">d_diff_2</text>
<rect x="109.000000" y="55.000000" width="24.000000" height="24.000000" rx="0.1" ry="0.1" style="stroke:none;fill:#aaaaaa;;filter:url(#filter);"/>
<rect x="108.000000" y="54.000000" width="24.000000" height="24.000000" rx="0" ry="0" style="stroke:none;fill:#4B71A1;"/>
<text x="120.000000" y="68.000000" font-family="Arial" font-size="7" text-anchor="middle" fill="#FFFFFF">*</text>
<circle cx="110.000000" cy="56.000000" r="1"/>
<line x1="105.000000" y1="61.000000" x2="108.000000" y2="62.000000"  transform="rotate(0.000000,108.000000,62.000000)" style="stroke: black; stroke-width:0.25;"/>
<line x1="105.000000" y1="63.000000" x2="108.000000" y2="62.000000"  transform="rotate(0.000000,108.000000,62.000000)" style="stroke: black; stroke-width:0.25;"/>
<line x1="105.000000" y1="69.000000" x2="108.000000" y2="70.000000"  transform="rotate(0.000000,108.000000,70.000000)" style="stroke: black; stroke-width:0.25;"/>
<line x1="105.000000" y1="71.000000" x2="108.000000" y2="70.000000"  transform="rotate(0.000000,108.000000,70.000000)" style="stroke: black; stroke-width:0.25;"/>
<rect x="159.000000" y="43.000000" width="270.900000" height="24.000000" rx="0.1" ry="0.1" style="stroke:none;fill:#aaaaaa;;filter:url(#filter);"/>
<rect x="158.000000" y="42.000000" width="270.900000" height="24.000000" rx="0" ry="0" style="stroke:none;fill:#477881;"/>
<text x="293.450000" y="56.000000" font-family="Arial" font-size="7" text-anchor="middle" fill="#FFFFFF">hslider(Pre-delay, 10.0f, 0.10000000000000001f, 300.0f, 1.0f)</text>
<circle cx="160.000000" cy="44.000000" r="1"/>
<line x1="149.000000" y1="33.000000" x2="149.000000" y2="75.000000"  style="stroke: black; stroke-linecap:round; stroke-width:0.25; stroke-dasharray:3,3;"/>
<line x1="149.000000" y1="75.000000" x2="437.900000" y2="75.000000"  style="stroke: black; stroke-linecap:round; stroke-width:0.25; stroke-dasharray:3,3;"/>
<line x1="437.900000" y1="75.000000" x2="437.900000" y2="33.000000"  style="stroke: black; stroke-linecap:round; stroke-width:0.25; stroke-dasharray:3,3;"/>
<line x1="149.000000" y1="33.000000" x2="154.000000" y2="33.000000"  style="stroke: black; stroke-linecap:round; stroke-width:0.25; stroke-dasharray:3,3;"/>
<line x1="186.250000" y1="33.000000" x2="437.900000" y2="33.000000"  style="stroke: black; stroke-linecap:round; stroke-width:0.25; stroke-dasharray:3,3;"/>
<text x="154.000000" y="35.000000" font-family="Arial" font-size="7">predelay</text>
<rect x="281.550000" y="85.000000" width="25.800000" height="24.000000" rx="0.1" ry="0.1" style="stroke:none;fill:#aaaaaa;;filter:url(#filter);"/>
<rect x="280.550000" y="84.000000" width="25.800000" height="24.000000" rx="0" ry="0" style="stroke:none;fill:#f44800;"/>
<text x="293.450000" y="98.000000" font-family="Arial" font-size="7" text-anchor="middle" fill="#FFFFFF">44.1</text>
<circle cx="282.550000" cy="86.000000" r="1"/>
<rect x="455.900000" y="59.000000" width="24.000000" height="24.000000" rx="0.1" ry="0.1" style="stroke:none;fill:#aaaaaa;;filter:url(#filter);"/>
<rect x="454.900000" y="58.000000" width="24.000000" height="24.000000" rx="0" ry="0" style="stroke:none;fill:#4B71A1;"/>
<text x="466.900000" y="72.000000" font-family="Arial" font-size="7" text-anchor="middle" fill="#FFFFFF">*</text>
<circle cx="456.900000" cy="60.000000" r="1"/>
<line x1="451.900000" y1="65.000000" x2="454.900000" y2="66.000000"  transform="rotate(0.000000,454.900000,66.000000)" style="stroke: black; stroke-width:0.25;"/>
<line x1="451.900000" y1="67.000000" x2="454.900000" y2="66.000000"  transform="rotate(0.000000,454.900000,66.000000)" style="stroke: black; stroke-width:0.25;"/>
<line x1="451.900000" y1="73.000000" x2="454.900000" y2="74.000000"  transform="rotate(0.000000,454.900000,74.000000)" style="stroke: black; stroke-width:0.25;"/>
<line x1="451.900000" y1="75.000000" x2="454.900000" y2="74.000000"  transform="rotate(0.000000,454.900000,74.000000)" style="stroke: black; stroke-width:0.25;"/>
<rect x="495.900000" y="55.000000" width="24.000000" height="24.000000" rx="0.1" ry="0.1" style="stroke:none;fill:#aaaaaa;;filter:url(#filter);"/>
<rect x="494.900000" y="54.000000" width="24.000000" height="24.000000" rx="0" ry="0" style="stroke:none;fill:#4B71A1;"/>
<text x="506.900000" y="68.000000" font-family="Arial" font-size="7" text-anchor="middle" fill="#FFFFFF">@</text>
<circle cx="496.900000" cy="56.000000" r="1"/>
<line x1="491.900000" y1="61.000000" x2="494.900000" y2="62.000000"  transform="rotate(0.000000,494.900000,62.000000)" style="stroke: black; stroke-width:0.25;"/>
<line x1="491.900000" y1="63.000000" x2="494.900000" y2="62.000000"  transform="rotate(0.000000,494.900000,62.000000)" style="stroke: black; stroke-width:0.25;"/>
<line x1="491.900000" y1="69.000000" x2="494.900000" y2="70.000000"  transform="rotate(0.000000,494.900000,70.000000)" style="stroke: black; stroke-width:0.25;"/>
<line x1="491.900000" y1="71.000000" x2="494.900000" y2="70.000000"  transform="rotate(0.000000,494.900000,70.000000)" style="stroke: black; stroke-width:0.25;"/>
<a xlink:href="bandwidth-0x7f8e6554fc80.svg">
<rect x="527.900000" y="55.000000" width="141.900000" height="24.000000" rx="0.1" ry="0.1" style="stroke:none;fill:#aaaaaa;;filter:url(#filter);"/>
<rect x="526.900000" y="54.000000" width="141.900000" height="24.000000" rx="0" ry="0" style="stroke:none;fill:#003366;"/>
</a>
<a xlink:href="bandwidth-0x7f8e6554fc80.svg">
<text x="597.850000" y="68.000000" font-family="Arial" font-size="7" text-anchor="middle" fill="#FFFFFF">bandwidth(0.99950000000000006f)</text>
</a>
<circle cx="528.900000" cy="56.000000" r="1"/>
<line x1="523.900000" y1="65.000000" x2="526.900000" y2="66.000000"  transform="rotate(0.000000,526.900000,66.000000)" style="stroke: black; stroke-width:0.25;"/>
<line x1="523.900000" y1="67.000000" x2="526.900000" y2="66.000000"  transform="rotate(0.000000,526.900000,66.000000)" style="stroke: black; stroke-width:0.25;"/>
<line x1="15.000000" y1="15.000000" x2="15.000000" y2="117.000000"  style="stroke: black; stroke-linecap:round; stroke-width:0.25; stroke-dasharray:3,3;"/>
<line x1="15.000000" y1="117.000000" x2="685.800000" y2="117.000000"  style="stroke: black; stroke-linecap:round; stroke-width:0.25; stroke-dasharray:3,3;"/>
<line x1="685.800000" y1="117.000000" x2="685.800000" y2="15.000000"  style="stroke: black; stroke-linecap:round; stroke-width:0.25; stroke-dasharray:3,3;"/>
<line x1="15.000000" y1="15.000000" x2="20.000000" y2="15.000000"  style="stroke: black; stroke-linecap:round; stroke-width:0.25; stroke-dasharray:3,3;"/>
<line x1="119.975000" y1="15.000000" x2="685.800000" y2="15.000000"  style="stroke: black; stroke-linecap:round; stroke-width:0.25; stroke-dasharray:3,3;"/>
<text x="20.000000" y="17.000000" font-family="Arial" font-size="7">input_proc(hs...00000000006f)</text>
<line x1="687.800000" y1="65.000000" x2="690.800000" y2="66.000000"  transform="rotate(0.000000,690.800000,66.000000)" style="stroke: black; stroke-width:0.25;"/>
<line x1="687.800000" y1="67.000000" x2="690.800000" y2="66.000000"  transform="rotate(0.000000,690.800000,66.000000)" style="stroke: black; stroke-width:0.25;"/>
<line x1="10.000000" y1="62.000000" x2="20.000000" y2="62.000000"  style="stroke:black; stroke-linecap:round; stroke-width:0.25;"/>
<line x1="10.000000" y1="70.000000" x2="20.000000" y2="70.000000"  style="stroke:black; stroke-linecap:round; stroke-width:0.25;"/>
<line x1="20.000000" y1="62.000000" x2="24.000000" y2="62.000000"  style="stroke:black; stroke-linecap:round; stroke-width:0.25;"/>
<line x1="20.000000" y1="70.000000" x2="24.000000" y2="70.000000"  style="stroke:black; stroke-linecap:round; stroke-width:0.25;"/>
<line x1="24.000000" y1="62.000000" x2="28.000000" y2="62.000000"  style="stroke:black; stroke-linecap:round; stroke-width:0.25;"/>
<line x1="24.000000" y1="70.000000" x2="28.000000" y2="70.000000"  style="stroke:black; stroke-linecap:round; stroke-width:0.25;"/>
<line x1="28.000000" y1="36.000000" x2="44.000000" y2="36.000000"  style="stroke:black; stroke-linecap:round; stroke-width:0.25;"/>
<line x1="28.000000" y1="62.000000" x2="28.000000" y2="36.000000"  style="stroke:black; stroke-linecap:round; stroke-width:0.25;"/>
<line x1="28.000000" y1="62.000000" x2="28.000000" y2="62.000000"  style="stroke:black; stroke-linecap:round; stroke-width:0.25;"/>
<line x1="28.000000" y1="70.000000" x2="36.000000" y2="70.000000"  style="stroke:black; stroke-linecap:round; stroke-width:0.25;"/>
<line x1="36.000000" y1="44.000000" x2="44.000000" y2="44.000000"  style="stroke:black; stroke-linecap:round; stroke-width:0.25;"/>
<line x1="36.000000" y1="70.000000" x2="36.000000" y2="44.000000"  style="stroke:black; stroke-linecap:round; stroke-width:0.25;"/>
<line x1="44.000000" y1="36.000000" x2="54.000000" y2="36.000000"  style="stroke:black; stroke-linecap:round; stroke-width:0.25;"/>
<line x1="44.000000" y1="44.000000" x2="54.000000" y2="44.000000"  style="stroke:black; stroke-linecap:round; stroke-width:0.25;"/>
<line x1="54.000000" y1="36.000000" x2="54.000000" y2="36.000000"  style="stroke:black; stroke-linecap:round; stroke-width:0.25;"/>
<line x1="54.000000" y1="36.000000" x2="58.000000" y2="36.000000"  style="stroke:black; stroke-linecap:round; stroke-width:0.25;"/>
<line x1="54.000000" y1="44.000000" x2="54.000000" y2="44.000000"  style="stroke:black; stroke-linecap:round; stroke-width:0.25;"/>
<line x1="54.000000" y1="44.000000" x2="58.000000" y2="44.000000"  style="stroke:black; stroke-linecap:round; stroke-width:0.25;"/>
<line x1="82.000000" y1="40.000000" x2="86.000000" y2="40.000000"  style="stroke:black; stroke-linecap:round; stroke-width:0.25;"/>
<line x1="82.000000" y1="82.000000" x2="86.000000" y2="82.000000"  style="stroke:black; stroke-linecap:round; stroke-width:0.25;"/>
<line x1="86.000000" y1="40.000000" x2="96.000000" y2="40.000000"  style="stroke:black; stroke-linecap:round; stroke-width:0.25;"/>
<line x1="86.000000" y1="82.000000" x2="96.000000" y2="82.000000"  style="stroke:black; stroke-linecap:round; stroke-width:0.25;"/>
<line x1="96.000000" y1="40.000000" x2="104.000000" y2="40.000000"  style="stroke:black; stroke-linecap:round; stroke-width:0.25;"/>
<line x1="96.000000" y1="70.000000" x2="104.000000" y2="70.000000"  style="stroke:black; stroke-linecap:round; stroke-width:0.25;"/>
<line x1="96.000000" y1="82.000000" x2="96.000000" y2="70.000000"  style="stroke:black; stroke-linecap:round; stroke-width:0.25;"/>
<line x1="96.000000" y1="82.000000" x2="96.000000" y2="82.000000"  style="stroke:black; stroke-linecap:round; stroke-width:0.25;"/>
<line x1="104.000000" y1="40.000000" x2="104.000000" y2="62.000000"  style="stroke:black; stroke-linecap:round; stroke-width:0.25;"/>
<line x1="104.000000" y1="62.000000" x2="104.000000" y2="62.000000"  style="stroke:black; stroke-linecap:round; stroke-width:0.25;"/>
<line x1="104.000000" y1="62.000000" x2="108.000000" y2="62.000000"  style="stroke:black; stroke-linecap:round; stroke-width:0.25;"/>
<line x1="104.000000" y1="70.000000" x2="108.000000" y2="70.000000"  style="stroke:black; stroke-linecap:round; stroke-width:0.25;"/>
<line x1="132.000000" y1="66.000000" x2="136.000000" y2="66.000000"  style="stroke:black; stroke-linecap:round; stroke-width:0.25;"/>
<line x1="136.000000" y1="24.000000" x2="144.000000" y2="24.000000"  style="stroke:black; stroke-linecap:round; stroke-width:0.25;"/>
<line x1="136.000000" y1="66.000000" x2="136.000000" y2="24.000000"  style="stroke:black; stroke-linecap:round; stroke-width:0.25;"/>
<line x1="136.000000" y1="66.000000" x2="136.000000" y2="66.000000"  style="stroke:black; stroke-linecap:round; stroke-width:0.25;"/>
<line x1="144.000000" y1="24.000000" x2="313.450000" y2="24.000000"  style="stroke:black; stroke-linecap:round; stroke-width:0.25;"/>
<line x1="306.350000" y1="96.000000" x2="310.350000" y2="96.000000"  style="stroke:black; stroke-linecap:round; stroke-width:0.25;"/>
<line x1="310.350000" y1="96.000000" x2="442.900000" y2="96.000000"  style="stroke:black; stroke-linecap:round; stroke-width:0.25;"/>
<line x1="313.450000" y1="24.000000" x2="482.900000" y2="24.000000"  style="stroke:black; stroke-linecap:round; stroke-width:0.25;"/>
<line x1="428.900000" y1="54.000000" x2="432.900000" y2="54.000000"  style="stroke:black; stroke-linecap:round; stroke-width:0.25;"/>
<line x1="432.900000" y1="54.000000" x2="442.900000" y2="54.000000"  style="stroke:black; stroke-linecap:round; stroke-width:0.25;"/>
<line x1="442.900000" y1="54.000000" x2="450.900000" y2="54.000000"  style="stroke:black; stroke-linecap:round; stroke-width:0.25;"/>
<line x1="442.900000" y1="74.000000" x2="450.900000" y2="74.000000"  style="stroke:black; stroke-linecap:round; stroke-width:0.25;"/>
<line x1="442.900000" y1="96.000000" x2="442.900000" y2="74.000000"  style="stroke:black; stroke-linecap:round; stroke-width:0.25;"/>
<line x1="442.900000" y1="96.000000" x2="442.900000" y2="96.000000"  style="stroke:black; stroke-linecap:round; stroke-width:0.25;"/>
<line x1="450.900000" y1="54.000000" x2="450.900000" y2="66.000000"  style="stroke:black; stroke-linecap:round; stroke-width:0.25;"/>
<line x1="450.900000" y1="66.000000" x2="450.900000" y2="66.000000"  style="stroke:black; stroke-linecap:round; stroke-width:0.25;"/>
<line x1="450.900000" y1="66.000000" x2="454.900000" y2="66.000000"  style="stroke:black; stroke-linecap:round; stroke-width:0.25;"/>
<line x1="450.900000" y1="74.000000" x2="454.900000" y2="74.000000"  style="stroke:black; stroke-linecap:round; stroke-width:0.25;"/>
<line x1="478.900000" y1="70.000000" x2="482.900000" y2="70.000000"  style="stroke:black; stroke-linecap:round; stroke-width:0.25;"/>
<line x1="482.900000" y1="24.000000" x2="490.900000" y2="24.000000"  style="stroke:black; stroke-linecap:round; stroke-width:0.25;"/>
<line x1="482.900000" y1="70.000000" x2="490.900000" y2="70.000000"  style="stroke:black; stroke-linecap:round; stroke-width:0.25;"/>
<line x1="490.900000" y1="24.000000" x2="490.900000" y2="62.000000"  style="stroke:black; stroke-linecap:round; stroke-width:0.25;"/>
<line x1="490.900000" y1="62.000000" x2="490.900000" y2="62.000000"  style="stroke:black; stroke-linecap:round; stroke-width:0.25;"/>
<line x1="490.900000" y1="62.000000" x2="494.900000" y2="62.000000"  style="stroke:black; stroke-linecap:round; stroke-width:0.25;"/>
<line x1="490.900000" y1="70.000000" x2="494.900000" y2="70.000000"  style="stroke:black; stroke-linecap:round; stroke-width:0.25;"/>
<line x1="518.900000" y1="66.000000" x2="522.900000" y2="66.000000"  style="stroke:black; stroke-linecap:round; stroke-width:0.25;"/>
<line x1="522.900000" y1="66.000000" x2="522.900000" y2="66.000000"  style="stroke:black; stroke-linecap:round; stroke-width:0.25;"/>
<line x1="522.900000" y1="66.000000" x2="526.900000" y2="66.000000"  style="stroke:black; stroke-linecap:round; stroke-width:0.25;"/>
<line x1="668.800000" y1="66.000000" x2="672.800000" y2="66.000000"  style="stroke:black; stroke-linecap:round; stroke-width:0.25;"/>
<line x1="672.800000" y1="66.000000" x2="672.800000" y2="66.000000"  style="stroke:black; stroke-linecap:round; stroke-width:0.25;"/>
<line x1="672.800000" y1="66.000000" x2="676.800000" y2="66.000000"  style="stroke:black; stroke-linecap:round; stroke-width:0.25;"/>
<line x1="676.800000" y1="66.000000" x2="680.800000" y2="66.000000"  style="stroke:black; stroke-linecap:round; stroke-width:0.25;"/>
<line x1="680.800000" y1="66.000000" x2="690.800000" y2="66.000000"  style="stroke:black; stroke-linecap:round; stroke-width:0.25;"/>
</svg>
