<?xml version="1.0"?>
<svg xmlns="http://www.w3.org/2000/svg" xmlns:xlink="http://www.w3.org/1999/xlink" viewBox="0 0 639.600000 200.000000" width="319.800000mm" height="100.000000mm" version="1.1">
<defs>
   <filter id="filter" filterRes="18" x="0" y="0">
     <feGaussianBlur in="SourceGraphic" stdDeviation="1.55" result="blur"/>
     <feOffset in="blur" dx="3" dy="3"/>
   </filter>
</defs>
<a xlink:href="fdelay2a-0x7f8e67731da0.svg">
<rect x="1.000000" y="1.000000" width="638.600000" height="199.000000" rx="0.1" ry="0.1" style="stroke:none;fill:#aaaaaa;;filter:url(#filter);"/>
<rect x="0.000000" y="0.000000" width="638.600000" height="199.000000" rx="0" ry="0" style="stroke:none;fill:#ffffff;"/>
</a>
<text x="10.000000" y="7.000000" font-family="Arial" font-size="7"></text>
<a xlink:href="sub-0x7f8e65475030.svg">
<rect x="172.800000" y="149.000000" width="24.000000" height="24.000000" rx="0.1" ry="0.1" style="stroke:none;fill:#aaaaaa;;filter:url(#filter);"/>
<rect x="171.800000" y="148.000000" width="24.000000" height="24.000000" rx="0" ry="0" style="stroke:none;fill:#003366;"/>
</a>
<a xlink:href="sub-0x7f8e65475030.svg">
<text x="183.800000" y="162.000000" font-family="Arial" font-size="7" text-anchor="middle" fill="#FFFFFF">sub</text>
</a>
<circle cx="173.800000" cy="150.000000" r="1"/>
<line x1="168.800000" y1="155.000000" x2="171.800000" y2="156.000000"  transform="rotate(0.000000,171.800000,156.000000)" style="stroke: black; stroke-width:0.25;"/>
<line x1="168.800000" y1="157.000000" x2="171.800000" y2="156.000000"  transform="rotate(0.000000,171.800000,156.000000)" style="stroke: black; stroke-width:0.25;"/>
<line x1="168.800000" y1="163.000000" x2="171.800000" y2="164.000000"  transform="rotate(0.000000,171.800000,164.000000)" style="stroke: black; stroke-width:0.25;"/>
<line x1="168.800000" y1="165.000000" x2="171.800000" y2="164.000000"  transform="rotate(0.000000,171.800000,164.000000)" style="stroke: black; stroke-width:0.25;"/>
<rect x="192.800000" y="99.000000" width="24.000000" height="24.000000" rx="0.1" ry="0.1" style="stroke:none;fill:#aaaaaa;;filter:url(#filter);"/>
<rect x="191.800000" y="98.000000" width="24.000000" height="24.000000" rx="0" ry="0" style="stroke:none;fill:#f44800;"/>
<text x="203.800000" y="112.000000" font-family="Arial" font-size="7" text-anchor="middle" fill="#FFFFFF">0.4</text>
<circle cx="213.800000" cy="120.000000" r="1"/>
<line x1="182.800000" y1="89.000000" x2="182.800000" y2="131.000000"  style="stroke: black; stroke-linecap:round; stroke-width:0.25; stroke-dasharray:3,3;"/>
<line x1="182.800000" y1="131.000000" x2="224.800000" y2="131.000000"  style="stroke: black; stroke-linecap:round; stroke-width:0.25; stroke-dasharray:3,3;"/>
<line x1="224.800000" y1="131.000000" x2="224.800000" y2="89.000000"  style="stroke: black; stroke-linecap:round; stroke-width:0.25; stroke-dasharray:3,3;"/>
<line x1="182.800000" y1="89.000000" x2="187.800000" y2="89.000000"  style="stroke: black; stroke-linecap:round; stroke-width:0.25; stroke-dasharray:3,3;"/>
<line x1="200.700000" y1="89.000000" x2="224.800000" y2="89.000000"  style="stroke: black; stroke-linecap:round; stroke-width:0.25; stroke-dasharray:3,3;"/>
<text x="187.800000" y="91.000000" font-family="Arial" font-size="7">a1</text>
<rect x="142.800000" y="103.000000" width="24.000000" height="24.000000" rx="0.1" ry="0.1" style="stroke:none;fill:#aaaaaa;;filter:url(#filter);"/>
<rect x="141.800000" y="102.000000" width="24.000000" height="24.000000" rx="0" ry="0" style="stroke:none;fill:#4B71A1;"/>
<text x="153.800000" y="116.000000" font-family="Arial" font-size="7" text-anchor="middle" fill="#FFFFFF">*</text>
<circle cx="163.800000" cy="124.000000" r="1"/>
<line x1="168.800000" y1="117.000000" x2="165.800000" y2="118.000000"  transform="rotate(0.000000,165.800000,118.000000)" style="stroke: black; stroke-width:0.25;"/>
<line x1="168.800000" y1="119.000000" x2="165.800000" y2="118.000000"  transform="rotate(0.000000,165.800000,118.000000)" style="stroke: black; stroke-width:0.25;"/>
<line x1="168.800000" y1="109.000000" x2="165.800000" y2="110.000000"  transform="rotate(0.000000,165.800000,110.000000)" style="stroke: black; stroke-width:0.25;"/>
<line x1="168.800000" y1="111.000000" x2="165.800000" y2="110.000000"  transform="rotate(0.000000,165.800000,110.000000)" style="stroke: black; stroke-width:0.25;"/>
<rect x="256.600000" y="39.000000" width="24.000000" height="24.000000" rx="0.1" ry="0.1" style="stroke:none;fill:#aaaaaa;;filter:url(#filter);"/>
<rect x="255.600000" y="38.000000" width="24.000000" height="24.000000" rx="0" ry="0" style="stroke:none;fill:#f44800;"/>
<text x="267.600000" y="52.000000" font-family="Arial" font-size="7" text-anchor="middle" fill="#FFFFFF">1</text>
<circle cx="277.600000" cy="60.000000" r="1"/>
<rect x="216.600000" y="43.000000" width="24.000000" height="24.000000" rx="0.1" ry="0.1" style="stroke:none;fill:#aaaaaa;;filter:url(#filter);"/>
<rect x="215.600000" y="42.000000" width="24.000000" height="24.000000" rx="0" ry="0" style="stroke:none;fill:#4B71A1;"/>
<text x="227.600000" y="56.000000" font-family="Arial" font-size="7" text-anchor="middle" fill="#FFFFFF">@</text>
<circle cx="237.600000" cy="64.000000" r="1"/>
<line x1="242.600000" y1="57.000000" x2="239.600000" y2="58.000000"  transform="rotate(0.000000,239.600000,58.000000)" style="stroke: black; stroke-width:0.25;"/>
<line x1="242.600000" y1="59.000000" x2="239.600000" y2="58.000000"  transform="rotate(0.000000,239.600000,58.000000)" style="stroke: black; stroke-width:0.25;"/>
<line x1="242.600000" y1="49.000000" x2="239.600000" y2="50.000000"  transform="rotate(0.000000,239.600000,50.000000)" style="stroke: black; stroke-width:0.25;"/>
<line x1="242.600000" y1="51.000000" x2="239.600000" y2="50.000000"  transform="rotate(0.000000,239.600000,50.000000)" style="stroke: black; stroke-width:0.25;"/>
<rect x="139.000000" y="39.000000" width="51.600000" height="24.000000" rx="0.1" ry="0.1" style="stroke:none;fill:#aaaaaa;;filter:url(#filter);"/>
<rect x="138.000000" y="38.000000" width="51.600000" height="24.000000" rx="0" ry="0" style="stroke:none;fill:#f44800;"/>
<text x="163.800000" y="52.000000" font-family="Arial" font-size="7" text-anchor="middle" fill="#FFFFFF">-0.0285714</text>
<circle cx="187.600000" cy="60.000000" r="1"/>
<line x1="129.000000" y1="29.000000" x2="129.000000" y2="71.000000"  style="stroke: black; stroke-linecap:round; stroke-width:0.25; stroke-dasharray:3,3;"/>
<line x1="129.000000" y1="71.000000" x2="198.600000" y2="71.000000"  style="stroke: black; stroke-linecap:round; stroke-width:0.25; stroke-dasharray:3,3;"/>
<line x1="198.600000" y1="71.000000" x2="198.600000" y2="29.000000"  style="stroke: black; stroke-linecap:round; stroke-width:0.25; stroke-dasharray:3,3;"/>
<line x1="129.000000" y1="29.000000" x2="134.000000" y2="29.000000"  style="stroke: black; stroke-linecap:round; stroke-width:0.25; stroke-dasharray:3,3;"/>
<line x1="146.900000" y1="29.000000" x2="198.600000" y2="29.000000"  style="stroke: black; stroke-linecap:round; stroke-width:0.25; stroke-dasharray:3,3;"/>
<text x="134.000000" y="31.000000" font-family="Arial" font-size="7">a2</text>
<rect x="89.000000" y="43.000000" width="24.000000" height="24.000000" rx="0.1" ry="0.1" style="stroke:none;fill:#aaaaaa;;filter:url(#filter);"/>
<rect x="88.000000" y="42.000000" width="24.000000" height="24.000000" rx="0" ry="0" style="stroke:none;fill:#4B71A1;"/>
<text x="100.000000" y="56.000000" font-family="Arial" font-size="7" text-anchor="middle" fill="#FFFFFF">*</text>
<circle cx="110.000000" cy="64.000000" r="1"/>
<line x1="115.000000" y1="57.000000" x2="112.000000" y2="58.000000"  transform="rotate(0.000000,112.000000,58.000000)" style="stroke: black; stroke-width:0.25;"/>
<line x1="115.000000" y1="59.000000" x2="112.000000" y2="58.000000"  transform="rotate(0.000000,112.000000,58.000000)" style="stroke: black; stroke-width:0.25;"/>
<line x1="115.000000" y1="49.000000" x2="112.000000" y2="50.000000"  transform="rotate(0.000000,112.000000,50.000000)" style="stroke: black; stroke-width:0.25;"/>
<line x1="115.000000" y1="51.000000" x2="112.000000" y2="50.000000"  transform="rotate(0.000000,112.000000,50.000000)" style="stroke: black; stroke-width:0.25;"/>
<line x1="321.600000" y1="160.000000" x2="321.600000" y2="156.000000"  style="stroke:black; stroke-linecap:round; stroke-width:0.25;"/>
<line x1="321.600000" y1="156.000000" x2="325.600000" y2="156.000000"  style="stroke:black; stroke-linecap:round; stroke-width:0.25;"/>
<line x1="325.600000" y1="156.000000" x2="325.600000" y2="160.000000"  style="stroke:black; stroke-linecap:round; stroke-width:0.25;"/>
<rect x="430.800000" y="43.000000" width="51.600000" height="24.000000" rx="0.1" ry="0.1" style="stroke:none;fill:#aaaaaa;;filter:url(#filter);"/>
<rect x="429.800000" y="42.000000" width="51.600000" height="24.000000" rx="0" ry="0" style="stroke:none;fill:#f44800;"/>
<text x="455.600000" y="56.000000" font-family="Arial" font-size="7" text-anchor="middle" fill="#FFFFFF">-0.0285714</text>
<circle cx="431.800000" cy="44.000000" r="1"/>
<line x1="420.800000" y1="33.000000" x2="420.800000" y2="75.000000"  style="stroke: black; stroke-linecap:round; stroke-width:0.25; stroke-dasharray:3,3;"/>
<line x1="420.800000" y1="75.000000" x2="490.400000" y2="75.000000"  style="stroke: black; stroke-linecap:round; stroke-width:0.25; stroke-dasharray:3,3;"/>
<line x1="490.400000" y1="75.000000" x2="490.400000" y2="33.000000"  style="stroke: black; stroke-linecap:round; stroke-width:0.25; stroke-dasharray:3,3;"/>
<line x1="420.800000" y1="33.000000" x2="425.800000" y2="33.000000"  style="stroke: black; stroke-linecap:round; stroke-width:0.25; stroke-dasharray:3,3;"/>
<line x1="438.700000" y1="33.000000" x2="490.400000" y2="33.000000"  style="stroke: black; stroke-linecap:round; stroke-width:0.25; stroke-dasharray:3,3;"/>
<text x="425.800000" y="35.000000" font-family="Arial" font-size="7">a2</text>
<rect x="508.400000" y="39.000000" width="24.000000" height="24.000000" rx="0.1" ry="0.1" style="stroke:none;fill:#aaaaaa;;filter:url(#filter);"/>
<rect x="507.400000" y="38.000000" width="24.000000" height="24.000000" rx="0" ry="0" style="stroke:none;fill:#4B71A1;"/>
<text x="519.400000" y="52.000000" font-family="Arial" font-size="7" text-anchor="middle" fill="#FFFFFF">*</text>
<circle cx="509.400000" cy="40.000000" r="1"/>
<line x1="504.400000" y1="45.000000" x2="507.400000" y2="46.000000"  transform="rotate(0.000000,507.400000,46.000000)" style="stroke: black; stroke-width:0.25;"/>
<line x1="504.400000" y1="47.000000" x2="507.400000" y2="46.000000"  transform="rotate(0.000000,507.400000,46.000000)" style="stroke: black; stroke-width:0.25;"/>
<line x1="504.400000" y1="53.000000" x2="507.400000" y2="54.000000"  transform="rotate(0.000000,507.400000,54.000000)" style="stroke: black; stroke-width:0.25;"/>
<line x1="504.400000" y1="55.000000" x2="507.400000" y2="54.000000"  transform="rotate(0.000000,507.400000,54.000000)" style="stroke: black; stroke-width:0.25;"/>
<rect x="394.600000" y="103.000000" width="24.000000" height="24.000000" rx="0.1" ry="0.1" style="stroke:none;fill:#aaaaaa;;filter:url(#filter);"/>
<rect x="393.600000" y="102.000000" width="24.000000" height="24.000000" rx="0" ry="0" style="stroke:none;fill:#f44800;"/>
<text x="405.600000" y="116.000000" font-family="Arial" font-size="7" text-anchor="middle" fill="#FFFFFF">1</text>
<circle cx="395.600000" cy="104.000000" r="1"/>
<rect x="434.600000" y="99.000000" width="24.000000" height="24.000000" rx="0.1" ry="0.1" style="stroke:none;fill:#aaaaaa;;filter:url(#filter);"/>
<rect x="433.600000" y="98.000000" width="24.000000" height="24.000000" rx="0" ry="0" style="stroke:none;fill:#4B71A1;"/>
<text x="445.600000" y="112.000000" font-family="Arial" font-size="7" text-anchor="middle" fill="#FFFFFF">@</text>
<circle cx="435.600000" cy="100.000000" r="1"/>
<line x1="430.600000" y1="105.000000" x2="433.600000" y2="106.000000"  transform="rotate(0.000000,433.600000,106.000000)" style="stroke: black; stroke-width:0.25;"/>
<line x1="430.600000" y1="107.000000" x2="433.600000" y2="106.000000"  transform="rotate(0.000000,433.600000,106.000000)" style="stroke: black; stroke-width:0.25;"/>
<line x1="430.600000" y1="113.000000" x2="433.600000" y2="114.000000"  transform="rotate(0.000000,433.600000,114.000000)" style="stroke: black; stroke-width:0.25;"/>
<line x1="430.600000" y1="115.000000" x2="433.600000" y2="114.000000"  transform="rotate(0.000000,433.600000,114.000000)" style="stroke: black; stroke-width:0.25;"/>
<rect x="484.600000" y="103.000000" width="24.000000" height="24.000000" rx="0.1" ry="0.1" style="stroke:none;fill:#aaaaaa;;filter:url(#filter);"/>
<rect x="483.600000" y="102.000000" width="24.000000" height="24.000000" rx="0" ry="0" style="stroke:none;fill:#f44800;"/>
<text x="495.600000" y="116.000000" font-family="Arial" font-size="7" text-anchor="middle" fill="#FFFFFF">0.4</text>
<circle cx="485.600000" cy="104.000000" r="1"/>
<line x1="474.600000" y1="93.000000" x2="474.600000" y2="135.000000"  style="stroke: black; stroke-linecap:round; stroke-width:0.25; stroke-dasharray:3,3;"/>
<line x1="474.600000" y1="135.000000" x2="516.600000" y2="135.000000"  style="stroke: black; stroke-linecap:round; stroke-width:0.25; stroke-dasharray:3,3;"/>
<line x1="516.600000" y1="135.000000" x2="516.600000" y2="93.000000"  style="stroke: black; stroke-linecap:round; stroke-width:0.25; stroke-dasharray:3,3;"/>
<line x1="474.600000" y1="93.000000" x2="479.600000" y2="93.000000"  style="stroke: black; stroke-linecap:round; stroke-width:0.25; stroke-dasharray:3,3;"/>
<line x1="492.500000" y1="93.000000" x2="516.600000" y2="93.000000"  style="stroke: black; stroke-linecap:round; stroke-width:0.25; stroke-dasharray:3,3;"/>
<text x="479.600000" y="95.000000" font-family="Arial" font-size="7">a1</text>
<rect x="534.600000" y="99.000000" width="24.000000" height="24.000000" rx="0.1" ry="0.1" style="stroke:none;fill:#aaaaaa;;filter:url(#filter);"/>
<rect x="533.600000" y="98.000000" width="24.000000" height="24.000000" rx="0" ry="0" style="stroke:none;fill:#4B71A1;"/>
<text x="545.600000" y="112.000000" font-family="Arial" font-size="7" text-anchor="middle" fill="#FFFFFF">*</text>
<circle cx="535.600000" cy="100.000000" r="1"/>
<line x1="530.600000" y1="105.000000" x2="533.600000" y2="106.000000"  transform="rotate(0.000000,533.600000,106.000000)" style="stroke: black; stroke-width:0.25;"/>
<line x1="530.600000" y1="107.000000" x2="533.600000" y2="106.000000"  transform="rotate(0.000000,533.600000,106.000000)" style="stroke: black; stroke-width:0.25;"/>
<line x1="530.600000" y1="113.000000" x2="533.600000" y2="114.000000"  transform="rotate(0.000000,533.600000,114.000000)" style="stroke: black; stroke-width:0.25;"/>
<line x1="530.600000" y1="115.000000" x2="533.600000" y2="114.000000"  transform="rotate(0.000000,533.600000,114.000000)" style="stroke: black; stroke-width:0.25;"/>
<rect x="404.600000" y="153.000000" width="24.000000" height="24.000000" rx="0.1" ry="0.1" style="stroke:none;fill:#aaaaaa;;filter:url(#filter);"/>
<rect x="403.600000" y="152.000000" width="24.000000" height="24.000000" rx="0" ry="0" style="stroke:none;fill:#f44800;"/>
<text x="415.600000" y="166.000000" font-family="Arial" font-size="7" text-anchor="middle" fill="#FFFFFF">2</text>
<circle cx="405.600000" cy="154.000000" r="1"/>
<rect x="444.600000" y="149.000000" width="24.000000" height="24.000000" rx="0.1" ry="0.1" style="stroke:none;fill:#aaaaaa;;filter:url(#filter);"/>
<rect x="443.600000" y="148.000000" width="24.000000" height="24.000000" rx="0" ry="0" style="stroke:none;fill:#4B71A1;"/>
<text x="455.600000" y="162.000000" font-family="Arial" font-size="7" text-anchor="middle" fill="#FFFFFF">@</text>
<circle cx="445.600000" cy="150.000000" r="1"/>
<line x1="440.600000" y1="155.000000" x2="443.600000" y2="156.000000"  transform="rotate(0.000000,443.600000,156.000000)" style="stroke: black; stroke-width:0.25;"/>
<line x1="440.600000" y1="157.000000" x2="443.600000" y2="156.000000"  transform="rotate(0.000000,443.600000,156.000000)" style="stroke: black; stroke-width:0.25;"/>
<line x1="440.600000" y1="163.000000" x2="443.600000" y2="164.000000"  transform="rotate(0.000000,443.600000,164.000000)" style="stroke: black; stroke-width:0.25;"/>
<line x1="440.600000" y1="165.000000" x2="443.600000" y2="164.000000"  transform="rotate(0.000000,443.600000,164.000000)" style="stroke: black; stroke-width:0.25;"/>
<rect x="484.600000" y="153.000000" width="24.000000" height="24.000000" rx="0.1" ry="0.1" style="stroke:none;fill:#aaaaaa;;filter:url(#filter);"/>
<rect x="483.600000" y="152.000000" width="24.000000" height="24.000000" rx="0" ry="0" style="stroke:none;fill:#f44800;"/>
<text x="495.600000" y="166.000000" font-family="Arial" font-size="7" text-anchor="middle" fill="#FFFFFF">1</text>
<circle cx="485.600000" cy="154.000000" r="1"/>
<rect x="524.600000" y="149.000000" width="24.000000" height="24.000000" rx="0.1" ry="0.1" style="stroke:none;fill:#aaaaaa;;filter:url(#filter);"/>
<rect x="523.600000" y="148.000000" width="24.000000" height="24.000000" rx="0" ry="0" style="stroke:none;fill:#4B71A1;"/>
<text x="535.600000" y="162.000000" font-family="Arial" font-size="7" text-anchor="middle" fill="#FFFFFF">*</text>
<circle cx="525.600000" cy="150.000000" r="1"/>
<line x1="520.600000" y1="155.000000" x2="523.600000" y2="156.000000"  transform="rotate(0.000000,523.600000,156.000000)" style="stroke: black; stroke-width:0.25;"/>
<line x1="520.600000" y1="157.000000" x2="523.600000" y2="156.000000"  transform="rotate(0.000000,523.600000,156.000000)" style="stroke: black; stroke-width:0.25;"/>
<line x1="520.600000" y1="163.000000" x2="523.600000" y2="164.000000"  transform="rotate(0.000000,523.600000,164.000000)" style="stroke: black; stroke-width:0.25;"/>
<line x1="520.600000" y1="165.000000" x2="523.600000" y2="164.000000"  transform="rotate(0.000000,523.600000,164.000000)" style="stroke: black; stroke-width:0.25;"/>
<line x1="15.000000" y1="15.000000" x2="15.000000" y2="185.000000"  style="stroke: black; stroke-linecap:round; stroke-width:0.25; stroke-dasharray:3,3;"/>
<line x1="15.000000" y1="185.000000" x2="624.600000" y2="185.000000"  style="stroke: black; stroke-linecap:round; stroke-width:0.25; stroke-dasharray:3,3;"/>
<line x1="624.600000" y1="185.000000" x2="624.600000" y2="15.000000"  style="stroke: black; stroke-linecap:round; stroke-width:0.25; stroke-dasharray:3,3;"/>
<line x1="15.000000" y1="15.000000" x2="20.000000" y2="15.000000"  style="stroke: black; stroke-linecap:round; stroke-width:0.25; stroke-dasharray:3,3;"/>
<line x1="119.975000" y1="15.000000" x2="624.600000" y2="15.000000"  style="stroke: black; stroke-linecap:round; stroke-width:0.25; stroke-dasharray:3,3;"/>
<text x="20.000000" y="17.000000" font-family="Arial" font-size="7">tf2(-0.028571...28571424612f)</text>
<line x1="626.600000" y1="99.000000" x2="629.600000" y2="100.000000"  transform="rotate(0.000000,629.600000,100.000000)" style="stroke: black; stroke-width:0.25;"/>
<line x1="626.600000" y1="101.000000" x2="629.600000" y2="100.000000"  transform="rotate(0.000000,629.600000,100.000000)" style="stroke: black; stroke-width:0.25;"/>
<line x1="10.000000" y1="100.000000" x2="20.000000" y2="100.000000"  style="stroke:black; stroke-linecap:round; stroke-width:0.25;"/>
<line x1="20.000000" y1="100.000000" x2="24.000000" y2="100.000000"  style="stroke:black; stroke-linecap:round; stroke-width:0.25;"/>
<line x1="24.000000" y1="100.000000" x2="28.000000" y2="100.000000"  style="stroke:black; stroke-linecap:round; stroke-width:0.25;"/>
<line x1="28.000000" y1="100.000000" x2="36.000000" y2="100.000000"  style="stroke:black; stroke-linecap:round; stroke-width:0.25;"/>
<line x1="36.000000" y1="100.000000" x2="36.000000" y2="164.000000"  style="stroke:black; stroke-linecap:round; stroke-width:0.25;"/>
<line x1="36.000000" y1="164.000000" x2="36.000000" y2="164.000000"  style="stroke:black; stroke-linecap:round; stroke-width:0.25;"/>
<line x1="36.000000" y1="164.000000" x2="44.000000" y2="164.000000"  style="stroke:black; stroke-linecap:round; stroke-width:0.25;"/>
<line x1="44.000000" y1="84.000000" x2="44.000000" y2="84.000000"  style="stroke:black; stroke-linecap:round; stroke-width:0.25;"/>
<line x1="44.000000" y1="84.000000" x2="44.000000" y2="156.000000"  style="stroke:black; stroke-linecap:round; stroke-width:0.25;"/>
<line x1="44.000000" y1="156.000000" x2="44.000000" y2="156.000000"  style="stroke:black; stroke-linecap:round; stroke-width:0.25;"/>
<line x1="44.000000" y1="156.000000" x2="167.800000" y2="156.000000"  style="stroke:black; stroke-linecap:round; stroke-width:0.25;"/>
<line x1="44.000000" y1="164.000000" x2="167.800000" y2="164.000000"  style="stroke:black; stroke-linecap:round; stroke-width:0.25;"/>
<line x1="48.000000" y1="84.000000" x2="44.000000" y2="84.000000"  style="stroke:black; stroke-linecap:round; stroke-width:0.25;"/>
<line x1="52.000000" y1="84.000000" x2="48.000000" y2="84.000000"  style="stroke:black; stroke-linecap:round; stroke-width:0.25;"/>
<line x1="84.000000" y1="54.000000" x2="52.000000" y2="84.000000"  style="stroke:black; stroke-linecap:round; stroke-width:0.25;"/>
<line x1="84.000000" y1="114.000000" x2="52.000000" y2="84.000000"  style="stroke:black; stroke-linecap:round; stroke-width:0.25;"/>
<line x1="88.000000" y1="54.000000" x2="84.000000" y2="54.000000"  style="stroke:black; stroke-linecap:round; stroke-width:0.25;"/>
<line x1="116.000000" y1="50.000000" x2="112.000000" y2="50.000000"  style="stroke:black; stroke-linecap:round; stroke-width:0.25;"/>
<line x1="116.000000" y1="58.000000" x2="112.000000" y2="58.000000"  style="stroke:black; stroke-linecap:round; stroke-width:0.25;"/>
<line x1="116.000000" y1="58.000000" x2="116.000000" y2="58.000000"  style="stroke:black; stroke-linecap:round; stroke-width:0.25;"/>
<line x1="116.000000" y1="80.000000" x2="116.000000" y2="58.000000"  style="stroke:black; stroke-linecap:round; stroke-width:0.25;"/>
<line x1="124.000000" y1="50.000000" x2="116.000000" y2="50.000000"  style="stroke:black; stroke-linecap:round; stroke-width:0.25;"/>
<line x1="124.000000" y1="80.000000" x2="116.000000" y2="80.000000"  style="stroke:black; stroke-linecap:round; stroke-width:0.25;"/>
<line x1="134.000000" y1="50.000000" x2="124.000000" y2="50.000000"  style="stroke:black; stroke-linecap:round; stroke-width:0.25;"/>
<line x1="137.800000" y1="114.000000" x2="84.000000" y2="114.000000"  style="stroke:black; stroke-linecap:round; stroke-width:0.25;"/>
<line x1="138.000000" y1="50.000000" x2="134.000000" y2="50.000000"  style="stroke:black; stroke-linecap:round; stroke-width:0.25;"/>
<line x1="141.800000" y1="114.000000" x2="137.800000" y2="114.000000"  style="stroke:black; stroke-linecap:round; stroke-width:0.25;"/>
<line x1="163.800000" y1="80.000000" x2="124.000000" y2="80.000000"  style="stroke:black; stroke-linecap:round; stroke-width:0.25;"/>
<line x1="167.800000" y1="156.000000" x2="171.800000" y2="156.000000"  style="stroke:black; stroke-linecap:round; stroke-width:0.25;"/>
<line x1="167.800000" y1="164.000000" x2="171.800000" y2="164.000000"  style="stroke:black; stroke-linecap:round; stroke-width:0.25;"/>
<line x1="169.800000" y1="110.000000" x2="165.800000" y2="110.000000"  style="stroke:black; stroke-linecap:round; stroke-width:0.25;"/>
<line x1="169.800000" y1="118.000000" x2="165.800000" y2="118.000000"  style="stroke:black; stroke-linecap:round; stroke-width:0.25;"/>
<line x1="169.800000" y1="118.000000" x2="169.800000" y2="118.000000"  style="stroke:black; stroke-linecap:round; stroke-width:0.25;"/>
<line x1="169.800000" y1="140.000000" x2="169.800000" y2="118.000000"  style="stroke:black; stroke-linecap:round; stroke-width:0.25;"/>
<line x1="177.800000" y1="110.000000" x2="169.800000" y2="110.000000"  style="stroke:black; stroke-linecap:round; stroke-width:0.25;"/>
<line x1="177.800000" y1="140.000000" x2="169.800000" y2="140.000000"  style="stroke:black; stroke-linecap:round; stroke-width:0.25;"/>
<line x1="187.800000" y1="110.000000" x2="177.800000" y2="110.000000"  style="stroke:black; stroke-linecap:round; stroke-width:0.25;"/>
<line x1="191.800000" y1="110.000000" x2="187.800000" y2="110.000000"  style="stroke:black; stroke-linecap:round; stroke-width:0.25;"/>
<line x1="195.800000" y1="160.000000" x2="199.800000" y2="160.000000"  style="stroke:black; stroke-linecap:round; stroke-width:0.25;"/>
<line x1="199.800000" y1="160.000000" x2="323.600000" y2="160.000000"  style="stroke:black; stroke-linecap:round; stroke-width:0.25;"/>
<line x1="203.600000" y1="80.000000" x2="163.800000" y2="80.000000"  style="stroke:black; stroke-linecap:round; stroke-width:0.25;"/>
<line x1="203.800000" y1="140.000000" x2="177.800000" y2="140.000000"  style="stroke:black; stroke-linecap:round; stroke-width:0.25;"/>
<line x1="211.600000" y1="54.000000" x2="211.600000" y2="54.000000"  style="stroke:black; stroke-linecap:round; stroke-width:0.25;"/>
<line x1="211.600000" y1="54.000000" x2="211.600000" y2="80.000000"  style="stroke:black; stroke-linecap:round; stroke-width:0.25;"/>
<line x1="211.600000" y1="80.000000" x2="203.600000" y2="80.000000"  style="stroke:black; stroke-linecap:round; stroke-width:0.25;"/>
<line x1="215.600000" y1="54.000000" x2="211.600000" y2="54.000000"  style="stroke:black; stroke-linecap:round; stroke-width:0.25;"/>
<line x1="229.800000" y1="140.000000" x2="203.800000" y2="140.000000"  style="stroke:black; stroke-linecap:round; stroke-width:0.25;"/>
<line x1="243.600000" y1="50.000000" x2="239.600000" y2="50.000000"  style="stroke:black; stroke-linecap:round; stroke-width:0.25;"/>
<line x1="243.600000" y1="58.000000" x2="239.600000" y2="58.000000"  style="stroke:black; stroke-linecap:round; stroke-width:0.25;"/>
<line x1="243.600000" y1="58.000000" x2="243.600000" y2="58.000000"  style="stroke:black; stroke-linecap:round; stroke-width:0.25;"/>
<line x1="243.600000" y1="70.000000" x2="243.600000" y2="58.000000"  style="stroke:black; stroke-linecap:round; stroke-width:0.25;"/>
<line x1="251.600000" y1="50.000000" x2="243.600000" y2="50.000000"  style="stroke:black; stroke-linecap:round; stroke-width:0.25;"/>
<line x1="251.600000" y1="70.000000" x2="243.600000" y2="70.000000"  style="stroke:black; stroke-linecap:round; stroke-width:0.25;"/>
<line x1="255.600000" y1="50.000000" x2="251.600000" y2="50.000000"  style="stroke:black; stroke-linecap:round; stroke-width:0.25;"/>
<line x1="267.600000" y1="70.000000" x2="251.600000" y2="70.000000"  style="stroke:black; stroke-linecap:round; stroke-width:0.25;"/>
<line x1="283.600000" y1="70.000000" x2="267.600000" y2="70.000000"  style="stroke:black; stroke-linecap:round; stroke-width:0.25;"/>
<line x1="283.600000" y1="140.000000" x2="229.800000" y2="140.000000"  style="stroke:black; stroke-linecap:round; stroke-width:0.25;"/>
<line x1="315.600000" y1="84.000000" x2="283.600000" y2="70.000000"  style="stroke:black; stroke-linecap:round; stroke-width:0.25;"/>
<line x1="315.600000" y1="84.000000" x2="283.600000" y2="140.000000"  style="stroke:black; stroke-linecap:round; stroke-width:0.25;"/>
<line x1="319.600000" y1="84.000000" x2="315.600000" y2="84.000000"  style="stroke:black; stroke-linecap:round; stroke-width:0.25;"/>
<line x1="323.600000" y1="84.000000" x2="319.600000" y2="84.000000"  style="stroke:black; stroke-linecap:round; stroke-width:0.25;"/>
<line x1="323.600000" y1="84.000000" x2="323.600000" y2="84.000000"  style="stroke:black; stroke-linecap:round; stroke-width:0.25;"/>
<line x1="323.600000" y1="156.000000" x2="323.600000" y2="84.000000"  style="stroke:black; stroke-linecap:round; stroke-width:0.25;"/>
<line x1="323.600000" y1="160.000000" x2="325.600000" y2="160.000000"  style="stroke:black; stroke-linecap:round; stroke-width:0.25;"/>
<line x1="325.600000" y1="160.000000" x2="331.600000" y2="160.000000"  style="stroke:black; stroke-linecap:round; stroke-width:0.25;"/>
<line x1="331.600000" y1="100.000000" x2="339.600000" y2="100.000000"  style="stroke:black; stroke-linecap:round; stroke-width:0.25;"/>
<line x1="331.600000" y1="160.000000" x2="331.600000" y2="100.000000"  style="stroke:black; stroke-linecap:round; stroke-width:0.25;"/>
<line x1="331.600000" y1="160.000000" x2="331.600000" y2="160.000000"  style="stroke:black; stroke-linecap:round; stroke-width:0.25;"/>
<line x1="339.600000" y1="100.000000" x2="343.600000" y2="100.000000"  style="stroke:black; stroke-linecap:round; stroke-width:0.25;"/>
<line x1="343.600000" y1="100.000000" x2="347.600000" y2="100.000000"  style="stroke:black; stroke-linecap:round; stroke-width:0.25;"/>
<line x1="347.600000" y1="100.000000" x2="389.600000" y2="24.000000"  style="stroke:black; stroke-linecap:round; stroke-width:0.25;"/>
<line x1="347.600000" y1="100.000000" x2="389.600000" y2="94.000000"  style="stroke:black; stroke-linecap:round; stroke-width:0.25;"/>
<line x1="347.600000" y1="100.000000" x2="389.600000" y2="144.000000"  style="stroke:black; stroke-linecap:round; stroke-width:0.25;"/>
<line x1="389.600000" y1="24.000000" x2="415.800000" y2="24.000000"  style="stroke:black; stroke-linecap:round; stroke-width:0.25;"/>
<line x1="389.600000" y1="94.000000" x2="405.600000" y2="94.000000"  style="stroke:black; stroke-linecap:round; stroke-width:0.25;"/>
<line x1="389.600000" y1="144.000000" x2="399.600000" y2="144.000000"  style="stroke:black; stroke-linecap:round; stroke-width:0.25;"/>
<line x1="399.600000" y1="144.000000" x2="415.600000" y2="144.000000"  style="stroke:black; stroke-linecap:round; stroke-width:0.25;"/>
<line x1="405.600000" y1="94.000000" x2="421.600000" y2="94.000000"  style="stroke:black; stroke-linecap:round; stroke-width:0.25;"/>
<line x1="415.600000" y1="144.000000" x2="431.600000" y2="144.000000"  style="stroke:black; stroke-linecap:round; stroke-width:0.25;"/>
<line x1="415.800000" y1="24.000000" x2="455.600000" y2="24.000000"  style="stroke:black; stroke-linecap:round; stroke-width:0.25;"/>
<line x1="417.600000" y1="114.000000" x2="421.600000" y2="114.000000"  style="stroke:black; stroke-linecap:round; stroke-width:0.25;"/>
<line x1="421.600000" y1="94.000000" x2="429.600000" y2="94.000000"  style="stroke:black; stroke-linecap:round; stroke-width:0.25;"/>
<line x1="421.600000" y1="114.000000" x2="429.600000" y2="114.000000"  style="stroke:black; stroke-linecap:round; stroke-width:0.25;"/>
<line x1="427.600000" y1="164.000000" x2="431.600000" y2="164.000000"  style="stroke:black; stroke-linecap:round; stroke-width:0.25;"/>
<line x1="429.600000" y1="94.000000" x2="429.600000" y2="106.000000"  style="stroke:black; stroke-linecap:round; stroke-width:0.25;"/>
<line x1="429.600000" y1="106.000000" x2="429.600000" y2="106.000000"  style="stroke:black; stroke-linecap:round; stroke-width:0.25;"/>
<line x1="429.600000" y1="106.000000" x2="433.600000" y2="106.000000"  style="stroke:black; stroke-linecap:round; stroke-width:0.25;"/>
<line x1="429.600000" y1="114.000000" x2="433.600000" y2="114.000000"  style="stroke:black; stroke-linecap:round; stroke-width:0.25;"/>
<line x1="431.600000" y1="144.000000" x2="439.600000" y2="144.000000"  style="stroke:black; stroke-linecap:round; stroke-width:0.25;"/>
<line x1="431.600000" y1="164.000000" x2="439.600000" y2="164.000000"  style="stroke:black; stroke-linecap:round; stroke-width:0.25;"/>
<line x1="439.600000" y1="144.000000" x2="439.600000" y2="156.000000"  style="stroke:black; stroke-linecap:round; stroke-width:0.25;"/>
<line x1="439.600000" y1="156.000000" x2="439.600000" y2="156.000000"  style="stroke:black; stroke-linecap:round; stroke-width:0.25;"/>
<line x1="439.600000" y1="156.000000" x2="443.600000" y2="156.000000"  style="stroke:black; stroke-linecap:round; stroke-width:0.25;"/>
<line x1="439.600000" y1="164.000000" x2="443.600000" y2="164.000000"  style="stroke:black; stroke-linecap:round; stroke-width:0.25;"/>
<line x1="455.600000" y1="24.000000" x2="495.400000" y2="24.000000"  style="stroke:black; stroke-linecap:round; stroke-width:0.25;"/>
<line x1="457.600000" y1="110.000000" x2="461.600000" y2="110.000000"  style="stroke:black; stroke-linecap:round; stroke-width:0.25;"/>
<line x1="461.600000" y1="84.000000" x2="469.600000" y2="84.000000"  style="stroke:black; stroke-linecap:round; stroke-width:0.25;"/>
<line x1="461.600000" y1="110.000000" x2="461.600000" y2="84.000000"  style="stroke:black; stroke-linecap:round; stroke-width:0.25;"/>
<line x1="461.600000" y1="110.000000" x2="461.600000" y2="110.000000"  style="stroke:black; stroke-linecap:round; stroke-width:0.25;"/>
<line x1="467.600000" y1="160.000000" x2="471.600000" y2="160.000000"  style="stroke:black; stroke-linecap:round; stroke-width:0.25;"/>
<line x1="469.600000" y1="84.000000" x2="495.600000" y2="84.000000"  style="stroke:black; stroke-linecap:round; stroke-width:0.25;"/>
<line x1="471.600000" y1="144.000000" x2="479.600000" y2="144.000000"  style="stroke:black; stroke-linecap:round; stroke-width:0.25;"/>
<line x1="471.600000" y1="160.000000" x2="471.600000" y2="144.000000"  style="stroke:black; stroke-linecap:round; stroke-width:0.25;"/>
<line x1="471.600000" y1="160.000000" x2="471.600000" y2="160.000000"  style="stroke:black; stroke-linecap:round; stroke-width:0.25;"/>
<line x1="479.600000" y1="144.000000" x2="495.600000" y2="144.000000"  style="stroke:black; stroke-linecap:round; stroke-width:0.25;"/>
<line x1="481.400000" y1="54.000000" x2="485.400000" y2="54.000000"  style="stroke:black; stroke-linecap:round; stroke-width:0.25;"/>
<line x1="485.400000" y1="54.000000" x2="495.400000" y2="54.000000"  style="stroke:black; stroke-linecap:round; stroke-width:0.25;"/>
<line x1="495.400000" y1="54.000000" x2="503.400000" y2="54.000000"  style="stroke:black; stroke-linecap:round; stroke-width:0.25;"/>
<line x1="495.400000" y1="24.000000" x2="503.400000" y2="24.000000"  style="stroke:black; stroke-linecap:round; stroke-width:0.25;"/>
<line x1="495.600000" y1="84.000000" x2="521.600000" y2="84.000000"  style="stroke:black; stroke-linecap:round; stroke-width:0.25;"/>
<line x1="495.600000" y1="144.000000" x2="511.600000" y2="144.000000"  style="stroke:black; stroke-linecap:round; stroke-width:0.25;"/>
<line x1="503.400000" y1="46.000000" x2="507.400000" y2="46.000000"  style="stroke:black; stroke-linecap:round; stroke-width:0.25;"/>
<line x1="503.400000" y1="54.000000" x2="507.400000" y2="54.000000"  style="stroke:black; stroke-linecap:round; stroke-width:0.25;"/>
<line x1="503.400000" y1="24.000000" x2="503.400000" y2="46.000000"  style="stroke:black; stroke-linecap:round; stroke-width:0.25;"/>
<line x1="503.400000" y1="46.000000" x2="503.400000" y2="46.000000"  style="stroke:black; stroke-linecap:round; stroke-width:0.25;"/>
<line x1="507.600000" y1="114.000000" x2="511.600000" y2="114.000000"  style="stroke:black; stroke-linecap:round; stroke-width:0.25;"/>
<line x1="507.600000" y1="164.000000" x2="511.600000" y2="164.000000"  style="stroke:black; stroke-linecap:round; stroke-width:0.25;"/>
<line x1="511.600000" y1="114.000000" x2="521.600000" y2="114.000000"  style="stroke:black; stroke-linecap:round; stroke-width:0.25;"/>
<line x1="511.600000" y1="144.000000" x2="519.600000" y2="144.000000"  style="stroke:black; stroke-linecap:round; stroke-width:0.25;"/>
<line x1="511.600000" y1="164.000000" x2="519.600000" y2="164.000000"  style="stroke:black; stroke-linecap:round; stroke-width:0.25;"/>
<line x1="519.600000" y1="144.000000" x2="519.600000" y2="156.000000"  style="stroke:black; stroke-linecap:round; stroke-width:0.25;"/>
<line x1="519.600000" y1="156.000000" x2="519.600000" y2="156.000000"  style="stroke:black; stroke-linecap:round; stroke-width:0.25;"/>
<line x1="519.600000" y1="156.000000" x2="523.600000" y2="156.000000"  style="stroke:black; stroke-linecap:round; stroke-width:0.25;"/>
<line x1="519.600000" y1="164.000000" x2="523.600000" y2="164.000000"  style="stroke:black; stroke-linecap:round; stroke-width:0.25;"/>
<line x1="521.600000" y1="84.000000" x2="529.600000" y2="84.000000"  style="stroke:black; stroke-linecap:round; stroke-width:0.25;"/>
<line x1="521.600000" y1="114.000000" x2="529.600000" y2="114.000000"  style="stroke:black; stroke-linecap:round; stroke-width:0.25;"/>
<line x1="529.600000" y1="84.000000" x2="529.600000" y2="106.000000"  style="stroke:black; stroke-linecap:round; stroke-width:0.25;"/>
<line x1="529.600000" y1="106.000000" x2="529.600000" y2="106.000000"  style="stroke:black; stroke-linecap:round; stroke-width:0.25;"/>
<line x1="529.600000" y1="106.000000" x2="533.600000" y2="106.000000"  style="stroke:black; stroke-linecap:round; stroke-width:0.25;"/>
<line x1="529.600000" y1="114.000000" x2="533.600000" y2="114.000000"  style="stroke:black; stroke-linecap:round; stroke-width:0.25;"/>
<line x1="531.400000" y1="50.000000" x2="535.400000" y2="50.000000"  style="stroke:black; stroke-linecap:round; stroke-width:0.25;"/>
<line x1="535.400000" y1="50.000000" x2="561.600000" y2="50.000000"  style="stroke:black; stroke-linecap:round; stroke-width:0.25;"/>
<line x1="547.600000" y1="160.000000" x2="551.600000" y2="160.000000"  style="stroke:black; stroke-linecap:round; stroke-width:0.25;"/>
<line x1="551.600000" y1="160.000000" x2="561.600000" y2="160.000000"  style="stroke:black; stroke-linecap:round; stroke-width:0.25;"/>
<line x1="557.600000" y1="110.000000" x2="561.600000" y2="110.000000"  style="stroke:black; stroke-linecap:round; stroke-width:0.25;"/>
<line x1="561.600000" y1="50.000000" x2="603.600000" y2="100.000000"  style="stroke:black; stroke-linecap:round; stroke-width:0.25;"/>
<line x1="561.600000" y1="110.000000" x2="603.600000" y2="100.000000"  style="stroke:black; stroke-linecap:round; stroke-width:0.25;"/>
<line x1="561.600000" y1="160.000000" x2="603.600000" y2="100.000000"  style="stroke:black; stroke-linecap:round; stroke-width:0.25;"/>
<line x1="603.600000" y1="100.000000" x2="607.600000" y2="100.000000"  style="stroke:black; stroke-linecap:round; stroke-width:0.25;"/>
<line x1="607.600000" y1="100.000000" x2="611.600000" y2="100.000000"  style="stroke:black; stroke-linecap:round; stroke-width:0.25;"/>
<line x1="611.600000" y1="100.000000" x2="611.600000" y2="100.000000"  style="stroke:black; stroke-linecap:round; stroke-width:0.25;"/>
<line x1="611.600000" y1="100.000000" x2="615.600000" y2="100.000000"  style="stroke:black; stroke-linecap:round; stroke-width:0.25;"/>
<line x1="615.600000" y1="100.000000" x2="619.600000" y2="100.000000"  style="stroke:black; stroke-linecap:round; stroke-width:0.25;"/>
<line x1="619.600000" y1="100.000000" x2="629.600000" y2="100.000000"  style="stroke:black; stroke-linecap:round; stroke-width:0.25;"/>
</svg>
