<?xml version="1.0"?>
<svg xmlns="http://www.w3.org/2000/svg" xmlns:xlink="http://www.w3.org/1999/xlink" viewBox="0 0 654.300000 200.000000" width="327.150000mm" height="100.000000mm" version="1.1">
<defs>
   <filter id="filter" filterRes="18" x="0" y="0">
     <feGaussianBlur in="SourceGraphic" stdDeviation="1.55" result="blur"/>
     <feOffset in="blur" dx="3" dy="3"/>
   </filter>
</defs>
<a xlink:href="fdelay2a-0x7f8e698210e0.svg">
<rect x="1.000000" y="1.000000" width="653.300000" height="199.000000" rx="0.1" ry="0.1" style="stroke:none;fill:#aaaaaa;;filter:url(#filter);"/>
<rect x="0.000000" y="0.000000" width="653.300000" height="199.000000" rx="0" ry="0" style="stroke:none;fill:#ffffff;"/>
</a>
<text x="10.000000" y="7.000000" font-family="Arial" font-size="7"></text>
<a xlink:href="sub-0x7f8e65475030.svg">
<rect x="172.800000" y="149.000000" width="24.000000" height="24.000000" rx="0.1" ry="0.1" style="stroke:none;fill:#aaaaaa;;filter:url(#filter);"/>
<rect x="171.800000" y="148.000000" width="24.000000" height="24.000000" rx="0" ry="0" style="stroke:none;fill:#003366;"/>
</a>
<a xlink:href="sub-0x7f8e65475030.svg">
<text x="183.800000" y="162.000000" font-family="Arial" font-size="7" text-anchor="middle" fill="#FFFFFF">sub</text>
</a>
<circle cx="173.800000" cy="150.000000" r="1"/>
<line x1="168.800000" y1="155.000000" x2="171.800000" y2="156.000000"  transform="rotate(0.000000,171.800000,156.000000)" style="stroke: black; stroke-width:0.25;"/>
<line x1="168.800000" y1="157.000000" x2="171.800000" y2="156.000000"  transform="rotate(0.000000,171.800000,156.000000)" style="stroke: black; stroke-width:0.25;"/>
<line x1="168.800000" y1="163.000000" x2="171.800000" y2="164.000000"  transform="rotate(0.000000,171.800000,164.000000)" style="stroke: black; stroke-width:0.25;"/>
<line x1="168.800000" y1="165.000000" x2="171.800000" y2="164.000000"  transform="rotate(0.000000,171.800000,164.000000)" style="stroke: black; stroke-width:0.25;"/>
<rect x="185.450000" y="99.000000" width="38.700000" height="24.000000" rx="0.1" ry="0.1" style="stroke:none;fill:#aaaaaa;;filter:url(#filter);"/>
<rect x="184.450000" y="98.000000" width="38.700000" height="24.000000" rx="0" ry="0" style="stroke:none;fill:#f44800;"/>
<text x="203.800000" y="112.000000" font-family="Arial" font-size="7" text-anchor="middle" fill="#FFFFFF">0.069869</text>
<circle cx="221.150000" cy="120.000000" r="1"/>
<line x1="175.450000" y1="89.000000" x2="175.450000" y2="131.000000"  style="stroke: black; stroke-linecap:round; stroke-width:0.25; stroke-dasharray:3,3;"/>
<line x1="175.450000" y1="131.000000" x2="232.150000" y2="131.000000"  style="stroke: black; stroke-linecap:round; stroke-width:0.25; stroke-dasharray:3,3;"/>
<line x1="232.150000" y1="131.000000" x2="232.150000" y2="89.000000"  style="stroke: black; stroke-linecap:round; stroke-width:0.25; stroke-dasharray:3,3;"/>
<line x1="175.450000" y1="89.000000" x2="180.450000" y2="89.000000"  style="stroke: black; stroke-linecap:round; stroke-width:0.25; stroke-dasharray:3,3;"/>
<line x1="193.350000" y1="89.000000" x2="232.150000" y2="89.000000"  style="stroke: black; stroke-linecap:round; stroke-width:0.25; stroke-dasharray:3,3;"/>
<text x="180.450000" y="91.000000" font-family="Arial" font-size="7">a1</text>
<rect x="135.450000" y="103.000000" width="24.000000" height="24.000000" rx="0.1" ry="0.1" style="stroke:none;fill:#aaaaaa;;filter:url(#filter);"/>
<rect x="134.450000" y="102.000000" width="24.000000" height="24.000000" rx="0" ry="0" style="stroke:none;fill:#4B71A1;"/>
<text x="146.450000" y="116.000000" font-family="Arial" font-size="7" text-anchor="middle" fill="#FFFFFF">*</text>
<circle cx="156.450000" cy="124.000000" r="1"/>
<line x1="161.450000" y1="117.000000" x2="158.450000" y2="118.000000"  transform="rotate(0.000000,158.450000,118.000000)" style="stroke: black; stroke-width:0.25;"/>
<line x1="161.450000" y1="119.000000" x2="158.450000" y2="118.000000"  transform="rotate(0.000000,158.450000,118.000000)" style="stroke: black; stroke-width:0.25;"/>
<line x1="161.450000" y1="109.000000" x2="158.450000" y2="110.000000"  transform="rotate(0.000000,158.450000,110.000000)" style="stroke: black; stroke-width:0.25;"/>
<line x1="161.450000" y1="111.000000" x2="158.450000" y2="110.000000"  transform="rotate(0.000000,158.450000,110.000000)" style="stroke: black; stroke-width:0.25;"/>
<rect x="256.600000" y="39.000000" width="24.000000" height="24.000000" rx="0.1" ry="0.1" style="stroke:none;fill:#aaaaaa;;filter:url(#filter);"/>
<rect x="255.600000" y="38.000000" width="24.000000" height="24.000000" rx="0" ry="0" style="stroke:none;fill:#f44800;"/>
<text x="267.600000" y="52.000000" font-family="Arial" font-size="7" text-anchor="middle" fill="#FFFFFF">1</text>
<circle cx="277.600000" cy="60.000000" r="1"/>
<rect x="216.600000" y="43.000000" width="24.000000" height="24.000000" rx="0.1" ry="0.1" style="stroke:none;fill:#aaaaaa;;filter:url(#filter);"/>
<rect x="215.600000" y="42.000000" width="24.000000" height="24.000000" rx="0" ry="0" style="stroke:none;fill:#4B71A1;"/>
<text x="227.600000" y="56.000000" font-family="Arial" font-size="7" text-anchor="middle" fill="#FFFFFF">@</text>
<circle cx="237.600000" cy="64.000000" r="1"/>
<line x1="242.600000" y1="57.000000" x2="239.600000" y2="58.000000"  transform="rotate(0.000000,239.600000,58.000000)" style="stroke: black; stroke-width:0.25;"/>
<line x1="242.600000" y1="59.000000" x2="239.600000" y2="58.000000"  transform="rotate(0.000000,239.600000,58.000000)" style="stroke: black; stroke-width:0.25;"/>
<line x1="242.600000" y1="49.000000" x2="239.600000" y2="50.000000"  transform="rotate(0.000000,239.600000,50.000000)" style="stroke: black; stroke-width:0.25;"/>
<line x1="242.600000" y1="51.000000" x2="239.600000" y2="50.000000"  transform="rotate(0.000000,239.600000,50.000000)" style="stroke: black; stroke-width:0.25;"/>
<rect x="139.000000" y="39.000000" width="51.600000" height="24.000000" rx="0.1" ry="0.1" style="stroke:none;fill:#aaaaaa;;filter:url(#filter);"/>
<rect x="138.000000" y="38.000000" width="51.600000" height="24.000000" rx="0" ry="0" style="stroke:none;fill:#f44800;"/>
<text x="163.800000" y="52.000000" font-family="Arial" font-size="7" text-anchor="middle" fill="#FFFFFF">-0.00805308</text>
<circle cx="187.600000" cy="60.000000" r="1"/>
<line x1="129.000000" y1="29.000000" x2="129.000000" y2="71.000000"  style="stroke: black; stroke-linecap:round; stroke-width:0.25; stroke-dasharray:3,3;"/>
<line x1="129.000000" y1="71.000000" x2="198.600000" y2="71.000000"  style="stroke: black; stroke-linecap:round; stroke-width:0.25; stroke-dasharray:3,3;"/>
<line x1="198.600000" y1="71.000000" x2="198.600000" y2="29.000000"  style="stroke: black; stroke-linecap:round; stroke-width:0.25; stroke-dasharray:3,3;"/>
<line x1="129.000000" y1="29.000000" x2="134.000000" y2="29.000000"  style="stroke: black; stroke-linecap:round; stroke-width:0.25; stroke-dasharray:3,3;"/>
<line x1="146.900000" y1="29.000000" x2="198.600000" y2="29.000000"  style="stroke: black; stroke-linecap:round; stroke-width:0.25; stroke-dasharray:3,3;"/>
<text x="134.000000" y="31.000000" font-family="Arial" font-size="7">a2</text>
<rect x="89.000000" y="43.000000" width="24.000000" height="24.000000" rx="0.1" ry="0.1" style="stroke:none;fill:#aaaaaa;;filter:url(#filter);"/>
<rect x="88.000000" y="42.000000" width="24.000000" height="24.000000" rx="0" ry="0" style="stroke:none;fill:#4B71A1;"/>
<text x="100.000000" y="56.000000" font-family="Arial" font-size="7" text-anchor="middle" fill="#FFFFFF">*</text>
<circle cx="110.000000" cy="64.000000" r="1"/>
<line x1="115.000000" y1="57.000000" x2="112.000000" y2="58.000000"  transform="rotate(0.000000,112.000000,58.000000)" style="stroke: black; stroke-width:0.25;"/>
<line x1="115.000000" y1="59.000000" x2="112.000000" y2="58.000000"  transform="rotate(0.000000,112.000000,58.000000)" style="stroke: black; stroke-width:0.25;"/>
<line x1="115.000000" y1="49.000000" x2="112.000000" y2="50.000000"  transform="rotate(0.000000,112.000000,50.000000)" style="stroke: black; stroke-width:0.25;"/>
<line x1="115.000000" y1="51.000000" x2="112.000000" y2="50.000000"  transform="rotate(0.000000,112.000000,50.000000)" style="stroke: black; stroke-width:0.25;"/>
<line x1="321.600000" y1="160.000000" x2="321.600000" y2="156.000000"  style="stroke:black; stroke-linecap:round; stroke-width:0.25;"/>
<line x1="321.600000" y1="156.000000" x2="325.600000" y2="156.000000"  style="stroke:black; stroke-linecap:round; stroke-width:0.25;"/>
<line x1="325.600000" y1="156.000000" x2="325.600000" y2="160.000000"  style="stroke:black; stroke-linecap:round; stroke-width:0.25;"/>
<rect x="438.150000" y="43.000000" width="51.600000" height="24.000000" rx="0.1" ry="0.1" style="stroke:none;fill:#aaaaaa;;filter:url(#filter);"/>
<rect x="437.150000" y="42.000000" width="51.600000" height="24.000000" rx="0" ry="0" style="stroke:none;fill:#f44800;"/>
<text x="462.950000" y="56.000000" font-family="Arial" font-size="7" text-anchor="middle" fill="#FFFFFF">-0.00805308</text>
<circle cx="439.150000" cy="44.000000" r="1"/>
<line x1="428.150000" y1="33.000000" x2="428.150000" y2="75.000000"  style="stroke: black; stroke-linecap:round; stroke-width:0.25; stroke-dasharray:3,3;"/>
<line x1="428.150000" y1="75.000000" x2="497.750000" y2="75.000000"  style="stroke: black; stroke-linecap:round; stroke-width:0.25; stroke-dasharray:3,3;"/>
<line x1="497.750000" y1="75.000000" x2="497.750000" y2="33.000000"  style="stroke: black; stroke-linecap:round; stroke-width:0.25; stroke-dasharray:3,3;"/>
<line x1="428.150000" y1="33.000000" x2="433.150000" y2="33.000000"  style="stroke: black; stroke-linecap:round; stroke-width:0.25; stroke-dasharray:3,3;"/>
<line x1="446.050000" y1="33.000000" x2="497.750000" y2="33.000000"  style="stroke: black; stroke-linecap:round; stroke-width:0.25; stroke-dasharray:3,3;"/>
<text x="433.150000" y="35.000000" font-family="Arial" font-size="7">a2</text>
<rect x="515.750000" y="39.000000" width="24.000000" height="24.000000" rx="0.1" ry="0.1" style="stroke:none;fill:#aaaaaa;;filter:url(#filter);"/>
<rect x="514.750000" y="38.000000" width="24.000000" height="24.000000" rx="0" ry="0" style="stroke:none;fill:#4B71A1;"/>
<text x="526.750000" y="52.000000" font-family="Arial" font-size="7" text-anchor="middle" fill="#FFFFFF">*</text>
<circle cx="516.750000" cy="40.000000" r="1"/>
<line x1="511.750000" y1="45.000000" x2="514.750000" y2="46.000000"  transform="rotate(0.000000,514.750000,46.000000)" style="stroke: black; stroke-width:0.25;"/>
<line x1="511.750000" y1="47.000000" x2="514.750000" y2="46.000000"  transform="rotate(0.000000,514.750000,46.000000)" style="stroke: black; stroke-width:0.25;"/>
<line x1="511.750000" y1="53.000000" x2="514.750000" y2="54.000000"  transform="rotate(0.000000,514.750000,54.000000)" style="stroke: black; stroke-width:0.25;"/>
<line x1="511.750000" y1="55.000000" x2="514.750000" y2="54.000000"  transform="rotate(0.000000,514.750000,54.000000)" style="stroke: black; stroke-width:0.25;"/>
<rect x="394.600000" y="103.000000" width="24.000000" height="24.000000" rx="0.1" ry="0.1" style="stroke:none;fill:#aaaaaa;;filter:url(#filter);"/>
<rect x="393.600000" y="102.000000" width="24.000000" height="24.000000" rx="0" ry="0" style="stroke:none;fill:#f44800;"/>
<text x="405.600000" y="116.000000" font-family="Arial" font-size="7" text-anchor="middle" fill="#FFFFFF">1</text>
<circle cx="395.600000" cy="104.000000" r="1"/>
<rect x="434.600000" y="99.000000" width="24.000000" height="24.000000" rx="0.1" ry="0.1" style="stroke:none;fill:#aaaaaa;;filter:url(#filter);"/>
<rect x="433.600000" y="98.000000" width="24.000000" height="24.000000" rx="0" ry="0" style="stroke:none;fill:#4B71A1;"/>
<text x="445.600000" y="112.000000" font-family="Arial" font-size="7" text-anchor="middle" fill="#FFFFFF">@</text>
<circle cx="435.600000" cy="100.000000" r="1"/>
<line x1="430.600000" y1="105.000000" x2="433.600000" y2="106.000000"  transform="rotate(0.000000,433.600000,106.000000)" style="stroke: black; stroke-width:0.25;"/>
<line x1="430.600000" y1="107.000000" x2="433.600000" y2="106.000000"  transform="rotate(0.000000,433.600000,106.000000)" style="stroke: black; stroke-width:0.25;"/>
<line x1="430.600000" y1="113.000000" x2="433.600000" y2="114.000000"  transform="rotate(0.000000,433.600000,114.000000)" style="stroke: black; stroke-width:0.25;"/>
<line x1="430.600000" y1="115.000000" x2="433.600000" y2="114.000000"  transform="rotate(0.000000,433.600000,114.000000)" style="stroke: black; stroke-width:0.25;"/>
<rect x="484.600000" y="103.000000" width="38.700000" height="24.000000" rx="0.1" ry="0.1" style="stroke:none;fill:#aaaaaa;;filter:url(#filter);"/>
<rect x="483.600000" y="102.000000" width="38.700000" height="24.000000" rx="0" ry="0" style="stroke:none;fill:#f44800;"/>
<text x="502.950000" y="116.000000" font-family="Arial" font-size="7" text-anchor="middle" fill="#FFFFFF">0.069869</text>
<circle cx="485.600000" cy="104.000000" r="1"/>
<line x1="474.600000" y1="93.000000" x2="474.600000" y2="135.000000"  style="stroke: black; stroke-linecap:round; stroke-width:0.25; stroke-dasharray:3,3;"/>
<line x1="474.600000" y1="135.000000" x2="531.300000" y2="135.000000"  style="stroke: black; stroke-linecap:round; stroke-width:0.25; stroke-dasharray:3,3;"/>
<line x1="531.300000" y1="135.000000" x2="531.300000" y2="93.000000"  style="stroke: black; stroke-linecap:round; stroke-width:0.25; stroke-dasharray:3,3;"/>
<line x1="474.600000" y1="93.000000" x2="479.600000" y2="93.000000"  style="stroke: black; stroke-linecap:round; stroke-width:0.25; stroke-dasharray:3,3;"/>
<line x1="492.500000" y1="93.000000" x2="531.300000" y2="93.000000"  style="stroke: black; stroke-linecap:round; stroke-width:0.25; stroke-dasharray:3,3;"/>
<text x="479.600000" y="95.000000" font-family="Arial" font-size="7">a1</text>
<rect x="549.300000" y="99.000000" width="24.000000" height="24.000000" rx="0.1" ry="0.1" style="stroke:none;fill:#aaaaaa;;filter:url(#filter);"/>
<rect x="548.300000" y="98.000000" width="24.000000" height="24.000000" rx="0" ry="0" style="stroke:none;fill:#4B71A1;"/>
<text x="560.300000" y="112.000000" font-family="Arial" font-size="7" text-anchor="middle" fill="#FFFFFF">*</text>
<circle cx="550.300000" cy="100.000000" r="1"/>
<line x1="545.300000" y1="105.000000" x2="548.300000" y2="106.000000"  transform="rotate(0.000000,548.300000,106.000000)" style="stroke: black; stroke-width:0.25;"/>
<line x1="545.300000" y1="107.000000" x2="548.300000" y2="106.000000"  transform="rotate(0.000000,548.300000,106.000000)" style="stroke: black; stroke-width:0.25;"/>
<line x1="545.300000" y1="113.000000" x2="548.300000" y2="114.000000"  transform="rotate(0.000000,548.300000,114.000000)" style="stroke: black; stroke-width:0.25;"/>
<line x1="545.300000" y1="115.000000" x2="548.300000" y2="114.000000"  transform="rotate(0.000000,548.300000,114.000000)" style="stroke: black; stroke-width:0.25;"/>
<rect x="411.950000" y="153.000000" width="24.000000" height="24.000000" rx="0.1" ry="0.1" style="stroke:none;fill:#aaaaaa;;filter:url(#filter);"/>
<rect x="410.950000" y="152.000000" width="24.000000" height="24.000000" rx="0" ry="0" style="stroke:none;fill:#f44800;"/>
<text x="422.950000" y="166.000000" font-family="Arial" font-size="7" text-anchor="middle" fill="#FFFFFF">2</text>
<circle cx="412.950000" cy="154.000000" r="1"/>
<rect x="451.950000" y="149.000000" width="24.000000" height="24.000000" rx="0.1" ry="0.1" style="stroke:none;fill:#aaaaaa;;filter:url(#filter);"/>
<rect x="450.950000" y="148.000000" width="24.000000" height="24.000000" rx="0" ry="0" style="stroke:none;fill:#4B71A1;"/>
<text x="462.950000" y="162.000000" font-family="Arial" font-size="7" text-anchor="middle" fill="#FFFFFF">@</text>
<circle cx="452.950000" cy="150.000000" r="1"/>
<line x1="447.950000" y1="155.000000" x2="450.950000" y2="156.000000"  transform="rotate(0.000000,450.950000,156.000000)" style="stroke: black; stroke-width:0.25;"/>
<line x1="447.950000" y1="157.000000" x2="450.950000" y2="156.000000"  transform="rotate(0.000000,450.950000,156.000000)" style="stroke: black; stroke-width:0.25;"/>
<line x1="447.950000" y1="163.000000" x2="450.950000" y2="164.000000"  transform="rotate(0.000000,450.950000,164.000000)" style="stroke: black; stroke-width:0.25;"/>
<line x1="447.950000" y1="165.000000" x2="450.950000" y2="164.000000"  transform="rotate(0.000000,450.950000,164.000000)" style="stroke: black; stroke-width:0.25;"/>
<rect x="491.950000" y="153.000000" width="24.000000" height="24.000000" rx="0.1" ry="0.1" style="stroke:none;fill:#aaaaaa;;filter:url(#filter);"/>
<rect x="490.950000" y="152.000000" width="24.000000" height="24.000000" rx="0" ry="0" style="stroke:none;fill:#f44800;"/>
<text x="502.950000" y="166.000000" font-family="Arial" font-size="7" text-anchor="middle" fill="#FFFFFF">1</text>
<circle cx="492.950000" cy="154.000000" r="1"/>
<rect x="531.950000" y="149.000000" width="24.000000" height="24.000000" rx="0.1" ry="0.1" style="stroke:none;fill:#aaaaaa;;filter:url(#filter);"/>
<rect x="530.950000" y="148.000000" width="24.000000" height="24.000000" rx="0" ry="0" style="stroke:none;fill:#4B71A1;"/>
<text x="542.950000" y="162.000000" font-family="Arial" font-size="7" text-anchor="middle" fill="#FFFFFF">*</text>
<circle cx="532.950000" cy="150.000000" r="1"/>
<line x1="527.950000" y1="155.000000" x2="530.950000" y2="156.000000"  transform="rotate(0.000000,530.950000,156.000000)" style="stroke: black; stroke-width:0.25;"/>
<line x1="527.950000" y1="157.000000" x2="530.950000" y2="156.000000"  transform="rotate(0.000000,530.950000,156.000000)" style="stroke: black; stroke-width:0.25;"/>
<line x1="527.950000" y1="163.000000" x2="530.950000" y2="164.000000"  transform="rotate(0.000000,530.950000,164.000000)" style="stroke: black; stroke-width:0.25;"/>
<line x1="527.950000" y1="165.000000" x2="530.950000" y2="164.000000"  transform="rotate(0.000000,530.950000,164.000000)" style="stroke: black; stroke-width:0.25;"/>
<line x1="15.000000" y1="15.000000" x2="15.000000" y2="185.000000"  style="stroke: black; stroke-linecap:round; stroke-width:0.25; stroke-dasharray:3,3;"/>
<line x1="15.000000" y1="185.000000" x2="639.300000" y2="185.000000"  style="stroke: black; stroke-linecap:round; stroke-width:0.25; stroke-dasharray:3,3;"/>
<line x1="639.300000" y1="185.000000" x2="639.300000" y2="15.000000"  style="stroke: black; stroke-linecap:round; stroke-width:0.25; stroke-dasharray:3,3;"/>
<line x1="15.000000" y1="15.000000" x2="20.000000" y2="15.000000"  style="stroke: black; stroke-linecap:round; stroke-width:0.25; stroke-dasharray:3,3;"/>
<line x1="119.975000" y1="15.000000" x2="639.300000" y2="15.000000"  style="stroke: black; stroke-linecap:round; stroke-width:0.25; stroke-dasharray:3,3;"/>
<text x="20.000000" y="17.000000" font-family="Arial" font-size="7">tf2(-0.008053...22888953135f)</text>
<line x1="641.300000" y1="99.000000" x2="644.300000" y2="100.000000"  transform="rotate(0.000000,644.300000,100.000000)" style="stroke: black; stroke-width:0.25;"/>
<line x1="641.300000" y1="101.000000" x2="644.300000" y2="100.000000"  transform="rotate(0.000000,644.300000,100.000000)" style="stroke: black; stroke-width:0.25;"/>
<line x1="10.000000" y1="100.000000" x2="20.000000" y2="100.000000"  style="stroke:black; stroke-linecap:round; stroke-width:0.25;"/>
<line x1="20.000000" y1="100.000000" x2="24.000000" y2="100.000000"  style="stroke:black; stroke-linecap:round; stroke-width:0.25;"/>
<line x1="24.000000" y1="100.000000" x2="28.000000" y2="100.000000"  style="stroke:black; stroke-linecap:round; stroke-width:0.25;"/>
<line x1="28.000000" y1="100.000000" x2="36.000000" y2="100.000000"  style="stroke:black; stroke-linecap:round; stroke-width:0.25;"/>
<line x1="36.000000" y1="100.000000" x2="36.000000" y2="164.000000"  style="stroke:black; stroke-linecap:round; stroke-width:0.25;"/>
<line x1="36.000000" y1="164.000000" x2="36.000000" y2="164.000000"  style="stroke:black; stroke-linecap:round; stroke-width:0.25;"/>
<line x1="36.000000" y1="164.000000" x2="44.000000" y2="164.000000"  style="stroke:black; stroke-linecap:round; stroke-width:0.25;"/>
<line x1="44.000000" y1="84.000000" x2="44.000000" y2="84.000000"  style="stroke:black; stroke-linecap:round; stroke-width:0.25;"/>
<line x1="44.000000" y1="84.000000" x2="44.000000" y2="156.000000"  style="stroke:black; stroke-linecap:round; stroke-width:0.25;"/>
<line x1="44.000000" y1="156.000000" x2="44.000000" y2="156.000000"  style="stroke:black; stroke-linecap:round; stroke-width:0.25;"/>
<line x1="44.000000" y1="156.000000" x2="167.800000" y2="156.000000"  style="stroke:black; stroke-linecap:round; stroke-width:0.25;"/>
<line x1="44.000000" y1="164.000000" x2="167.800000" y2="164.000000"  style="stroke:black; stroke-linecap:round; stroke-width:0.25;"/>
<line x1="48.000000" y1="84.000000" x2="44.000000" y2="84.000000"  style="stroke:black; stroke-linecap:round; stroke-width:0.25;"/>
<line x1="52.000000" y1="84.000000" x2="48.000000" y2="84.000000"  style="stroke:black; stroke-linecap:round; stroke-width:0.25;"/>
<line x1="84.000000" y1="114.000000" x2="52.000000" y2="84.000000"  style="stroke:black; stroke-linecap:round; stroke-width:0.25;"/>
<line x1="84.000000" y1="54.000000" x2="52.000000" y2="84.000000"  style="stroke:black; stroke-linecap:round; stroke-width:0.25;"/>
<line x1="88.000000" y1="54.000000" x2="84.000000" y2="54.000000"  style="stroke:black; stroke-linecap:round; stroke-width:0.25;"/>
<line x1="116.000000" y1="50.000000" x2="112.000000" y2="50.000000"  style="stroke:black; stroke-linecap:round; stroke-width:0.25;"/>
<line x1="116.000000" y1="58.000000" x2="112.000000" y2="58.000000"  style="stroke:black; stroke-linecap:round; stroke-width:0.25;"/>
<line x1="116.000000" y1="58.000000" x2="116.000000" y2="58.000000"  style="stroke:black; stroke-linecap:round; stroke-width:0.25;"/>
<line x1="116.000000" y1="80.000000" x2="116.000000" y2="58.000000"  style="stroke:black; stroke-linecap:round; stroke-width:0.25;"/>
<line x1="124.000000" y1="50.000000" x2="116.000000" y2="50.000000"  style="stroke:black; stroke-linecap:round; stroke-width:0.25;"/>
<line x1="124.000000" y1="80.000000" x2="116.000000" y2="80.000000"  style="stroke:black; stroke-linecap:round; stroke-width:0.25;"/>
<line x1="130.450000" y1="114.000000" x2="84.000000" y2="114.000000"  style="stroke:black; stroke-linecap:round; stroke-width:0.25;"/>
<line x1="134.000000" y1="50.000000" x2="124.000000" y2="50.000000"  style="stroke:black; stroke-linecap:round; stroke-width:0.25;"/>
<line x1="134.450000" y1="114.000000" x2="130.450000" y2="114.000000"  style="stroke:black; stroke-linecap:round; stroke-width:0.25;"/>
<line x1="138.000000" y1="50.000000" x2="134.000000" y2="50.000000"  style="stroke:black; stroke-linecap:round; stroke-width:0.25;"/>
<line x1="162.450000" y1="110.000000" x2="158.450000" y2="110.000000"  style="stroke:black; stroke-linecap:round; stroke-width:0.25;"/>
<line x1="162.450000" y1="118.000000" x2="158.450000" y2="118.000000"  style="stroke:black; stroke-linecap:round; stroke-width:0.25;"/>
<line x1="162.450000" y1="118.000000" x2="162.450000" y2="118.000000"  style="stroke:black; stroke-linecap:round; stroke-width:0.25;"/>
<line x1="162.450000" y1="140.000000" x2="162.450000" y2="118.000000"  style="stroke:black; stroke-linecap:round; stroke-width:0.25;"/>
<line x1="163.800000" y1="80.000000" x2="124.000000" y2="80.000000"  style="stroke:black; stroke-linecap:round; stroke-width:0.25;"/>
<line x1="167.800000" y1="156.000000" x2="171.800000" y2="156.000000"  style="stroke:black; stroke-linecap:round; stroke-width:0.25;"/>
<line x1="167.800000" y1="164.000000" x2="171.800000" y2="164.000000"  style="stroke:black; stroke-linecap:round; stroke-width:0.25;"/>
<line x1="170.450000" y1="110.000000" x2="162.450000" y2="110.000000"  style="stroke:black; stroke-linecap:round; stroke-width:0.25;"/>
<line x1="170.450000" y1="140.000000" x2="162.450000" y2="140.000000"  style="stroke:black; stroke-linecap:round; stroke-width:0.25;"/>
<line x1="180.450000" y1="110.000000" x2="170.450000" y2="110.000000"  style="stroke:black; stroke-linecap:round; stroke-width:0.25;"/>
<line x1="184.450000" y1="110.000000" x2="180.450000" y2="110.000000"  style="stroke:black; stroke-linecap:round; stroke-width:0.25;"/>
<line x1="195.800000" y1="160.000000" x2="199.800000" y2="160.000000"  style="stroke:black; stroke-linecap:round; stroke-width:0.25;"/>
<line x1="199.800000" y1="160.000000" x2="323.600000" y2="160.000000"  style="stroke:black; stroke-linecap:round; stroke-width:0.25;"/>
<line x1="203.600000" y1="80.000000" x2="163.800000" y2="80.000000"  style="stroke:black; stroke-linecap:round; stroke-width:0.25;"/>
<line x1="203.800000" y1="140.000000" x2="170.450000" y2="140.000000"  style="stroke:black; stroke-linecap:round; stroke-width:0.25;"/>
<line x1="211.600000" y1="54.000000" x2="211.600000" y2="54.000000"  style="stroke:black; stroke-linecap:round; stroke-width:0.25;"/>
<line x1="211.600000" y1="54.000000" x2="211.600000" y2="80.000000"  style="stroke:black; stroke-linecap:round; stroke-width:0.25;"/>
<line x1="211.600000" y1="80.000000" x2="203.600000" y2="80.000000"  style="stroke:black; stroke-linecap:round; stroke-width:0.25;"/>
<line x1="215.600000" y1="54.000000" x2="211.600000" y2="54.000000"  style="stroke:black; stroke-linecap:round; stroke-width:0.25;"/>
<line x1="237.150000" y1="140.000000" x2="203.800000" y2="140.000000"  style="stroke:black; stroke-linecap:round; stroke-width:0.25;"/>
<line x1="243.600000" y1="50.000000" x2="239.600000" y2="50.000000"  style="stroke:black; stroke-linecap:round; stroke-width:0.25;"/>
<line x1="243.600000" y1="58.000000" x2="239.600000" y2="58.000000"  style="stroke:black; stroke-linecap:round; stroke-width:0.25;"/>
<line x1="243.600000" y1="58.000000" x2="243.600000" y2="58.000000"  style="stroke:black; stroke-linecap:round; stroke-width:0.25;"/>
<line x1="243.600000" y1="70.000000" x2="243.600000" y2="58.000000"  style="stroke:black; stroke-linecap:round; stroke-width:0.25;"/>
<line x1="251.600000" y1="50.000000" x2="243.600000" y2="50.000000"  style="stroke:black; stroke-linecap:round; stroke-width:0.25;"/>
<line x1="251.600000" y1="70.000000" x2="243.600000" y2="70.000000"  style="stroke:black; stroke-linecap:round; stroke-width:0.25;"/>
<line x1="255.600000" y1="50.000000" x2="251.600000" y2="50.000000"  style="stroke:black; stroke-linecap:round; stroke-width:0.25;"/>
<line x1="267.600000" y1="70.000000" x2="251.600000" y2="70.000000"  style="stroke:black; stroke-linecap:round; stroke-width:0.25;"/>
<line x1="283.600000" y1="140.000000" x2="237.150000" y2="140.000000"  style="stroke:black; stroke-linecap:round; stroke-width:0.25;"/>
<line x1="283.600000" y1="70.000000" x2="267.600000" y2="70.000000"  style="stroke:black; stroke-linecap:round; stroke-width:0.25;"/>
<line x1="315.600000" y1="84.000000" x2="283.600000" y2="140.000000"  style="stroke:black; stroke-linecap:round; stroke-width:0.25;"/>
<line x1="315.600000" y1="84.000000" x2="283.600000" y2="70.000000"  style="stroke:black; stroke-linecap:round; stroke-width:0.25;"/>
<line x1="319.600000" y1="84.000000" x2="315.600000" y2="84.000000"  style="stroke:black; stroke-linecap:round; stroke-width:0.25;"/>
<line x1="323.600000" y1="84.000000" x2="319.600000" y2="84.000000"  style="stroke:black; stroke-linecap:round; stroke-width:0.25;"/>
<line x1="323.600000" y1="84.000000" x2="323.600000" y2="84.000000"  style="stroke:black; stroke-linecap:round; stroke-width:0.25;"/>
<line x1="323.600000" y1="156.000000" x2="323.600000" y2="84.000000"  style="stroke:black; stroke-linecap:round; stroke-width:0.25;"/>
<line x1="323.600000" y1="160.000000" x2="325.600000" y2="160.000000"  style="stroke:black; stroke-linecap:round; stroke-width:0.25;"/>
<line x1="325.600000" y1="160.000000" x2="331.600000" y2="160.000000"  style="stroke:black; stroke-linecap:round; stroke-width:0.25;"/>
<line x1="331.600000" y1="100.000000" x2="339.600000" y2="100.000000"  style="stroke:black; stroke-linecap:round; stroke-width:0.25;"/>
<line x1="331.600000" y1="160.000000" x2="331.600000" y2="100.000000"  style="stroke:black; stroke-linecap:round; stroke-width:0.25;"/>
<line x1="331.600000" y1="160.000000" x2="331.600000" y2="160.000000"  style="stroke:black; stroke-linecap:round; stroke-width:0.25;"/>
<line x1="339.600000" y1="100.000000" x2="343.600000" y2="100.000000"  style="stroke:black; stroke-linecap:round; stroke-width:0.25;"/>
<line x1="343.600000" y1="100.000000" x2="347.600000" y2="100.000000"  style="stroke:black; stroke-linecap:round; stroke-width:0.25;"/>
<line x1="347.600000" y1="100.000000" x2="389.600000" y2="24.000000"  style="stroke:black; stroke-linecap:round; stroke-width:0.25;"/>
<line x1="347.600000" y1="100.000000" x2="389.600000" y2="94.000000"  style="stroke:black; stroke-linecap:round; stroke-width:0.25;"/>
<line x1="347.600000" y1="100.000000" x2="389.600000" y2="144.000000"  style="stroke:black; stroke-linecap:round; stroke-width:0.25;"/>
<line x1="389.600000" y1="24.000000" x2="423.150000" y2="24.000000"  style="stroke:black; stroke-linecap:round; stroke-width:0.25;"/>
<line x1="389.600000" y1="94.000000" x2="405.600000" y2="94.000000"  style="stroke:black; stroke-linecap:round; stroke-width:0.25;"/>
<line x1="389.600000" y1="144.000000" x2="406.950000" y2="144.000000"  style="stroke:black; stroke-linecap:round; stroke-width:0.25;"/>
<line x1="405.600000" y1="94.000000" x2="421.600000" y2="94.000000"  style="stroke:black; stroke-linecap:round; stroke-width:0.25;"/>
<line x1="406.950000" y1="144.000000" x2="422.950000" y2="144.000000"  style="stroke:black; stroke-linecap:round; stroke-width:0.25;"/>
<line x1="417.600000" y1="114.000000" x2="421.600000" y2="114.000000"  style="stroke:black; stroke-linecap:round; stroke-width:0.25;"/>
<line x1="421.600000" y1="94.000000" x2="429.600000" y2="94.000000"  style="stroke:black; stroke-linecap:round; stroke-width:0.25;"/>
<line x1="421.600000" y1="114.000000" x2="429.600000" y2="114.000000"  style="stroke:black; stroke-linecap:round; stroke-width:0.25;"/>
<line x1="422.950000" y1="144.000000" x2="438.950000" y2="144.000000"  style="stroke:black; stroke-linecap:round; stroke-width:0.25;"/>
<line x1="423.150000" y1="24.000000" x2="462.950000" y2="24.000000"  style="stroke:black; stroke-linecap:round; stroke-width:0.25;"/>
<line x1="429.600000" y1="94.000000" x2="429.600000" y2="106.000000"  style="stroke:black; stroke-linecap:round; stroke-width:0.25;"/>
<line x1="429.600000" y1="106.000000" x2="429.600000" y2="106.000000"  style="stroke:black; stroke-linecap:round; stroke-width:0.25;"/>
<line x1="429.600000" y1="106.000000" x2="433.600000" y2="106.000000"  style="stroke:black; stroke-linecap:round; stroke-width:0.25;"/>
<line x1="429.600000" y1="114.000000" x2="433.600000" y2="114.000000"  style="stroke:black; stroke-linecap:round; stroke-width:0.25;"/>
<line x1="434.950000" y1="164.000000" x2="438.950000" y2="164.000000"  style="stroke:black; stroke-linecap:round; stroke-width:0.25;"/>
<line x1="438.950000" y1="144.000000" x2="446.950000" y2="144.000000"  style="stroke:black; stroke-linecap:round; stroke-width:0.25;"/>
<line x1="438.950000" y1="164.000000" x2="446.950000" y2="164.000000"  style="stroke:black; stroke-linecap:round; stroke-width:0.25;"/>
<line x1="446.950000" y1="144.000000" x2="446.950000" y2="156.000000"  style="stroke:black; stroke-linecap:round; stroke-width:0.25;"/>
<line x1="446.950000" y1="156.000000" x2="446.950000" y2="156.000000"  style="stroke:black; stroke-linecap:round; stroke-width:0.25;"/>
<line x1="446.950000" y1="156.000000" x2="450.950000" y2="156.000000"  style="stroke:black; stroke-linecap:round; stroke-width:0.25;"/>
<line x1="446.950000" y1="164.000000" x2="450.950000" y2="164.000000"  style="stroke:black; stroke-linecap:round; stroke-width:0.25;"/>
<line x1="457.600000" y1="110.000000" x2="461.600000" y2="110.000000"  style="stroke:black; stroke-linecap:round; stroke-width:0.25;"/>
<line x1="461.600000" y1="84.000000" x2="469.600000" y2="84.000000"  style="stroke:black; stroke-linecap:round; stroke-width:0.25;"/>
<line x1="461.600000" y1="110.000000" x2="461.600000" y2="84.000000"  style="stroke:black; stroke-linecap:round; stroke-width:0.25;"/>
<line x1="461.600000" y1="110.000000" x2="461.600000" y2="110.000000"  style="stroke:black; stroke-linecap:round; stroke-width:0.25;"/>
<line x1="462.950000" y1="24.000000" x2="502.750000" y2="24.000000"  style="stroke:black; stroke-linecap:round; stroke-width:0.25;"/>
<line x1="469.600000" y1="84.000000" x2="502.950000" y2="84.000000"  style="stroke:black; stroke-linecap:round; stroke-width:0.25;"/>
<line x1="474.950000" y1="160.000000" x2="478.950000" y2="160.000000"  style="stroke:black; stroke-linecap:round; stroke-width:0.25;"/>
<line x1="478.950000" y1="144.000000" x2="486.950000" y2="144.000000"  style="stroke:black; stroke-linecap:round; stroke-width:0.25;"/>
<line x1="478.950000" y1="160.000000" x2="478.950000" y2="144.000000"  style="stroke:black; stroke-linecap:round; stroke-width:0.25;"/>
<line x1="478.950000" y1="160.000000" x2="478.950000" y2="160.000000"  style="stroke:black; stroke-linecap:round; stroke-width:0.25;"/>
<line x1="486.950000" y1="144.000000" x2="502.950000" y2="144.000000"  style="stroke:black; stroke-linecap:round; stroke-width:0.25;"/>
<line x1="488.750000" y1="54.000000" x2="492.750000" y2="54.000000"  style="stroke:black; stroke-linecap:round; stroke-width:0.25;"/>
<line x1="492.750000" y1="54.000000" x2="502.750000" y2="54.000000"  style="stroke:black; stroke-linecap:round; stroke-width:0.25;"/>
<line x1="502.750000" y1="54.000000" x2="510.750000" y2="54.000000"  style="stroke:black; stroke-linecap:round; stroke-width:0.25;"/>
<line x1="502.750000" y1="24.000000" x2="510.750000" y2="24.000000"  style="stroke:black; stroke-linecap:round; stroke-width:0.25;"/>
<line x1="502.950000" y1="84.000000" x2="536.300000" y2="84.000000"  style="stroke:black; stroke-linecap:round; stroke-width:0.25;"/>
<line x1="502.950000" y1="144.000000" x2="518.950000" y2="144.000000"  style="stroke:black; stroke-linecap:round; stroke-width:0.25;"/>
<line x1="510.750000" y1="46.000000" x2="514.750000" y2="46.000000"  style="stroke:black; stroke-linecap:round; stroke-width:0.25;"/>
<line x1="510.750000" y1="54.000000" x2="514.750000" y2="54.000000"  style="stroke:black; stroke-linecap:round; stroke-width:0.25;"/>
<line x1="510.750000" y1="24.000000" x2="510.750000" y2="46.000000"  style="stroke:black; stroke-linecap:round; stroke-width:0.25;"/>
<line x1="510.750000" y1="46.000000" x2="510.750000" y2="46.000000"  style="stroke:black; stroke-linecap:round; stroke-width:0.25;"/>
<line x1="514.950000" y1="164.000000" x2="518.950000" y2="164.000000"  style="stroke:black; stroke-linecap:round; stroke-width:0.25;"/>
<line x1="518.950000" y1="144.000000" x2="526.950000" y2="144.000000"  style="stroke:black; stroke-linecap:round; stroke-width:0.25;"/>
<line x1="518.950000" y1="164.000000" x2="526.950000" y2="164.000000"  style="stroke:black; stroke-linecap:round; stroke-width:0.25;"/>
<line x1="522.300000" y1="114.000000" x2="526.300000" y2="114.000000"  style="stroke:black; stroke-linecap:round; stroke-width:0.25;"/>
<line x1="526.300000" y1="114.000000" x2="536.300000" y2="114.000000"  style="stroke:black; stroke-linecap:round; stroke-width:0.25;"/>
<line x1="526.950000" y1="144.000000" x2="526.950000" y2="156.000000"  style="stroke:black; stroke-linecap:round; stroke-width:0.25;"/>
<line x1="526.950000" y1="156.000000" x2="526.950000" y2="156.000000"  style="stroke:black; stroke-linecap:round; stroke-width:0.25;"/>
<line x1="526.950000" y1="156.000000" x2="530.950000" y2="156.000000"  style="stroke:black; stroke-linecap:round; stroke-width:0.25;"/>
<line x1="526.950000" y1="164.000000" x2="530.950000" y2="164.000000"  style="stroke:black; stroke-linecap:round; stroke-width:0.25;"/>
<line x1="536.300000" y1="84.000000" x2="544.300000" y2="84.000000"  style="stroke:black; stroke-linecap:round; stroke-width:0.25;"/>
<line x1="536.300000" y1="114.000000" x2="544.300000" y2="114.000000"  style="stroke:black; stroke-linecap:round; stroke-width:0.25;"/>
<line x1="538.750000" y1="50.000000" x2="542.750000" y2="50.000000"  style="stroke:black; stroke-linecap:round; stroke-width:0.25;"/>
<line x1="542.750000" y1="50.000000" x2="576.300000" y2="50.000000"  style="stroke:black; stroke-linecap:round; stroke-width:0.25;"/>
<line x1="544.300000" y1="106.000000" x2="548.300000" y2="106.000000"  style="stroke:black; stroke-linecap:round; stroke-width:0.25;"/>
<line x1="544.300000" y1="114.000000" x2="548.300000" y2="114.000000"  style="stroke:black; stroke-linecap:round; stroke-width:0.25;"/>
<line x1="544.300000" y1="84.000000" x2="544.300000" y2="106.000000"  style="stroke:black; stroke-linecap:round; stroke-width:0.25;"/>
<line x1="544.300000" y1="106.000000" x2="544.300000" y2="106.000000"  style="stroke:black; stroke-linecap:round; stroke-width:0.25;"/>
<line x1="554.950000" y1="160.000000" x2="558.950000" y2="160.000000"  style="stroke:black; stroke-linecap:round; stroke-width:0.25;"/>
<line x1="558.950000" y1="160.000000" x2="576.300000" y2="160.000000"  style="stroke:black; stroke-linecap:round; stroke-width:0.25;"/>
<line x1="572.300000" y1="110.000000" x2="576.300000" y2="110.000000"  style="stroke:black; stroke-linecap:round; stroke-width:0.25;"/>
<line x1="576.300000" y1="50.000000" x2="618.300000" y2="100.000000"  style="stroke:black; stroke-linecap:round; stroke-width:0.25;"/>
<line x1="576.300000" y1="110.000000" x2="618.300000" y2="100.000000"  style="stroke:black; stroke-linecap:round; stroke-width:0.25;"/>
<line x1="576.300000" y1="160.000000" x2="618.300000" y2="100.000000"  style="stroke:black; stroke-linecap:round; stroke-width:0.25;"/>
<line x1="618.300000" y1="100.000000" x2="622.300000" y2="100.000000"  style="stroke:black; stroke-linecap:round; stroke-width:0.25;"/>
<line x1="622.300000" y1="100.000000" x2="626.300000" y2="100.000000"  style="stroke:black; stroke-linecap:round; stroke-width:0.25;"/>
<line x1="626.300000" y1="100.000000" x2="626.300000" y2="100.000000"  style="stroke:black; stroke-linecap:round; stroke-width:0.25;"/>
<line x1="626.300000" y1="100.000000" x2="630.300000" y2="100.000000"  style="stroke:black; stroke-linecap:round; stroke-width:0.25;"/>
<line x1="630.300000" y1="100.000000" x2="634.300000" y2="100.000000"  style="stroke:black; stroke-linecap:round; stroke-width:0.25;"/>
<line x1="634.300000" y1="100.000000" x2="644.300000" y2="100.000000"  style="stroke:black; stroke-linecap:round; stroke-width:0.25;"/>
</svg>
