<?xml version="1.0"?>
<svg xmlns="http://www.w3.org/2000/svg" xmlns:xlink="http://www.w3.org/1999/xlink" viewBox="0 0 641.400000 200.000000" width="320.700000mm" height="100.000000mm" version="1.1">
<defs>
   <filter id="filter" filterRes="18" x="0" y="0">
     <feGaussianBlur in="SourceGraphic" stdDeviation="1.55" result="blur"/>
     <feOffset in="blur" dx="3" dy="3"/>
   </filter>
</defs>
<a xlink:href="fdelay2a-0x7f8e675443d0.svg">
<rect x="1.000000" y="1.000000" width="640.400000" height="199.000000" rx="0.1" ry="0.1" style="stroke:none;fill:#aaaaaa;;filter:url(#filter);"/>
<rect x="0.000000" y="0.000000" width="640.400000" height="199.000000" rx="0" ry="0" style="stroke:none;fill:#ffffff;"/>
</a>
<text x="10.000000" y="7.000000" font-family="Arial" font-size="7"></text>
<a xlink:href="sub-0x7f8e65475030.svg">
<rect x="166.350000" y="149.000000" width="24.000000" height="24.000000" rx="0.1" ry="0.1" style="stroke:none;fill:#aaaaaa;;filter:url(#filter);"/>
<rect x="165.350000" y="148.000000" width="24.000000" height="24.000000" rx="0" ry="0" style="stroke:none;fill:#003366;"/>
</a>
<a xlink:href="sub-0x7f8e65475030.svg">
<text x="177.350000" y="162.000000" font-family="Arial" font-size="7" text-anchor="middle" fill="#FFFFFF">sub</text>
</a>
<circle cx="167.350000" cy="150.000000" r="1"/>
<line x1="162.350000" y1="155.000000" x2="165.350000" y2="156.000000"  transform="rotate(0.000000,165.350000,156.000000)" style="stroke: black; stroke-width:0.25;"/>
<line x1="162.350000" y1="157.000000" x2="165.350000" y2="156.000000"  transform="rotate(0.000000,165.350000,156.000000)" style="stroke: black; stroke-width:0.25;"/>
<line x1="162.350000" y1="163.000000" x2="165.350000" y2="164.000000"  transform="rotate(0.000000,165.350000,164.000000)" style="stroke: black; stroke-width:0.25;"/>
<line x1="162.350000" y1="165.000000" x2="165.350000" y2="164.000000"  transform="rotate(0.000000,165.350000,164.000000)" style="stroke: black; stroke-width:0.25;"/>
<rect x="179.000000" y="99.000000" width="38.700000" height="24.000000" rx="0.1" ry="0.1" style="stroke:none;fill:#aaaaaa;;filter:url(#filter);"/>
<rect x="178.000000" y="98.000000" width="38.700000" height="24.000000" rx="0" ry="0" style="stroke:none;fill:#f44800;"/>
<text x="197.350000" y="112.000000" font-family="Arial" font-size="7" text-anchor="middle" fill="#FFFFFF">-0.084557</text>
<circle cx="214.700000" cy="120.000000" r="1"/>
<line x1="169.000000" y1="89.000000" x2="169.000000" y2="131.000000"  style="stroke: black; stroke-linecap:round; stroke-width:0.25; stroke-dasharray:3,3;"/>
<line x1="169.000000" y1="131.000000" x2="225.700000" y2="131.000000"  style="stroke: black; stroke-linecap:round; stroke-width:0.25; stroke-dasharray:3,3;"/>
<line x1="225.700000" y1="131.000000" x2="225.700000" y2="89.000000"  style="stroke: black; stroke-linecap:round; stroke-width:0.25; stroke-dasharray:3,3;"/>
<line x1="169.000000" y1="89.000000" x2="174.000000" y2="89.000000"  style="stroke: black; stroke-linecap:round; stroke-width:0.25; stroke-dasharray:3,3;"/>
<line x1="186.900000" y1="89.000000" x2="225.700000" y2="89.000000"  style="stroke: black; stroke-linecap:round; stroke-width:0.25; stroke-dasharray:3,3;"/>
<text x="174.000000" y="91.000000" font-family="Arial" font-size="7">a1</text>
<rect x="129.000000" y="103.000000" width="24.000000" height="24.000000" rx="0.1" ry="0.1" style="stroke:none;fill:#aaaaaa;;filter:url(#filter);"/>
<rect x="128.000000" y="102.000000" width="24.000000" height="24.000000" rx="0" ry="0" style="stroke:none;fill:#4B71A1;"/>
<text x="140.000000" y="116.000000" font-family="Arial" font-size="7" text-anchor="middle" fill="#FFFFFF">*</text>
<circle cx="150.000000" cy="124.000000" r="1"/>
<line x1="155.000000" y1="117.000000" x2="152.000000" y2="118.000000"  transform="rotate(0.000000,152.000000,118.000000)" style="stroke: black; stroke-width:0.25;"/>
<line x1="155.000000" y1="119.000000" x2="152.000000" y2="118.000000"  transform="rotate(0.000000,152.000000,118.000000)" style="stroke: black; stroke-width:0.25;"/>
<line x1="155.000000" y1="109.000000" x2="152.000000" y2="110.000000"  transform="rotate(0.000000,152.000000,110.000000)" style="stroke: black; stroke-width:0.25;"/>
<line x1="155.000000" y1="111.000000" x2="152.000000" y2="110.000000"  transform="rotate(0.000000,152.000000,110.000000)" style="stroke: black; stroke-width:0.25;"/>
<rect x="243.700000" y="39.000000" width="24.000000" height="24.000000" rx="0.1" ry="0.1" style="stroke:none;fill:#aaaaaa;;filter:url(#filter);"/>
<rect x="242.700000" y="38.000000" width="24.000000" height="24.000000" rx="0" ry="0" style="stroke:none;fill:#f44800;"/>
<text x="254.700000" y="52.000000" font-family="Arial" font-size="7" text-anchor="middle" fill="#FFFFFF">1</text>
<circle cx="264.700000" cy="60.000000" r="1"/>
<rect x="203.700000" y="43.000000" width="24.000000" height="24.000000" rx="0.1" ry="0.1" style="stroke:none;fill:#aaaaaa;;filter:url(#filter);"/>
<rect x="202.700000" y="42.000000" width="24.000000" height="24.000000" rx="0" ry="0" style="stroke:none;fill:#4B71A1;"/>
<text x="214.700000" y="56.000000" font-family="Arial" font-size="7" text-anchor="middle" fill="#FFFFFF">@</text>
<circle cx="224.700000" cy="64.000000" r="1"/>
<line x1="229.700000" y1="57.000000" x2="226.700000" y2="58.000000"  transform="rotate(0.000000,226.700000,58.000000)" style="stroke: black; stroke-width:0.25;"/>
<line x1="229.700000" y1="59.000000" x2="226.700000" y2="58.000000"  transform="rotate(0.000000,226.700000,58.000000)" style="stroke: black; stroke-width:0.25;"/>
<line x1="229.700000" y1="49.000000" x2="226.700000" y2="50.000000"  transform="rotate(0.000000,226.700000,50.000000)" style="stroke: black; stroke-width:0.25;"/>
<line x1="229.700000" y1="51.000000" x2="226.700000" y2="50.000000"  transform="rotate(0.000000,226.700000,50.000000)" style="stroke: black; stroke-width:0.25;"/>
<rect x="139.000000" y="39.000000" width="38.700000" height="24.000000" rx="0.1" ry="0.1" style="stroke:none;fill:#aaaaaa;;filter:url(#filter);"/>
<rect x="138.000000" y="38.000000" width="38.700000" height="24.000000" rx="0" ry="0" style="stroke:none;fill:#f44800;"/>
<text x="157.350000" y="52.000000" font-family="Arial" font-size="7" text-anchor="middle" fill="#FFFFFF">0.0115858</text>
<circle cx="174.700000" cy="60.000000" r="1"/>
<line x1="129.000000" y1="29.000000" x2="129.000000" y2="71.000000"  style="stroke: black; stroke-linecap:round; stroke-width:0.25; stroke-dasharray:3,3;"/>
<line x1="129.000000" y1="71.000000" x2="185.700000" y2="71.000000"  style="stroke: black; stroke-linecap:round; stroke-width:0.25; stroke-dasharray:3,3;"/>
<line x1="185.700000" y1="71.000000" x2="185.700000" y2="29.000000"  style="stroke: black; stroke-linecap:round; stroke-width:0.25; stroke-dasharray:3,3;"/>
<line x1="129.000000" y1="29.000000" x2="134.000000" y2="29.000000"  style="stroke: black; stroke-linecap:round; stroke-width:0.25; stroke-dasharray:3,3;"/>
<line x1="146.900000" y1="29.000000" x2="185.700000" y2="29.000000"  style="stroke: black; stroke-linecap:round; stroke-width:0.25; stroke-dasharray:3,3;"/>
<text x="134.000000" y="31.000000" font-family="Arial" font-size="7">a2</text>
<rect x="89.000000" y="43.000000" width="24.000000" height="24.000000" rx="0.1" ry="0.1" style="stroke:none;fill:#aaaaaa;;filter:url(#filter);"/>
<rect x="88.000000" y="42.000000" width="24.000000" height="24.000000" rx="0" ry="0" style="stroke:none;fill:#4B71A1;"/>
<text x="100.000000" y="56.000000" font-family="Arial" font-size="7" text-anchor="middle" fill="#FFFFFF">*</text>
<circle cx="110.000000" cy="64.000000" r="1"/>
<line x1="115.000000" y1="57.000000" x2="112.000000" y2="58.000000"  transform="rotate(0.000000,112.000000,58.000000)" style="stroke: black; stroke-width:0.25;"/>
<line x1="115.000000" y1="59.000000" x2="112.000000" y2="58.000000"  transform="rotate(0.000000,112.000000,58.000000)" style="stroke: black; stroke-width:0.25;"/>
<line x1="115.000000" y1="49.000000" x2="112.000000" y2="50.000000"  transform="rotate(0.000000,112.000000,50.000000)" style="stroke: black; stroke-width:0.25;"/>
<line x1="115.000000" y1="51.000000" x2="112.000000" y2="50.000000"  transform="rotate(0.000000,112.000000,50.000000)" style="stroke: black; stroke-width:0.25;"/>
<line x1="308.700000" y1="160.000000" x2="308.700000" y2="156.000000"  style="stroke:black; stroke-linecap:round; stroke-width:0.25;"/>
<line x1="308.700000" y1="156.000000" x2="312.700000" y2="156.000000"  style="stroke:black; stroke-linecap:round; stroke-width:0.25;"/>
<line x1="312.700000" y1="156.000000" x2="312.700000" y2="160.000000"  style="stroke:black; stroke-linecap:round; stroke-width:0.25;"/>
<rect x="431.700000" y="43.000000" width="38.700000" height="24.000000" rx="0.1" ry="0.1" style="stroke:none;fill:#aaaaaa;;filter:url(#filter);"/>
<rect x="430.700000" y="42.000000" width="38.700000" height="24.000000" rx="0" ry="0" style="stroke:none;fill:#f44800;"/>
<text x="450.050000" y="56.000000" font-family="Arial" font-size="7" text-anchor="middle" fill="#FFFFFF">0.0115858</text>
<circle cx="432.700000" cy="44.000000" r="1"/>
<line x1="421.700000" y1="33.000000" x2="421.700000" y2="75.000000"  style="stroke: black; stroke-linecap:round; stroke-width:0.25; stroke-dasharray:3,3;"/>
<line x1="421.700000" y1="75.000000" x2="478.400000" y2="75.000000"  style="stroke: black; stroke-linecap:round; stroke-width:0.25; stroke-dasharray:3,3;"/>
<line x1="478.400000" y1="75.000000" x2="478.400000" y2="33.000000"  style="stroke: black; stroke-linecap:round; stroke-width:0.25; stroke-dasharray:3,3;"/>
<line x1="421.700000" y1="33.000000" x2="426.700000" y2="33.000000"  style="stroke: black; stroke-linecap:round; stroke-width:0.25; stroke-dasharray:3,3;"/>
<line x1="439.600000" y1="33.000000" x2="478.400000" y2="33.000000"  style="stroke: black; stroke-linecap:round; stroke-width:0.25; stroke-dasharray:3,3;"/>
<text x="426.700000" y="35.000000" font-family="Arial" font-size="7">a2</text>
<rect x="496.400000" y="39.000000" width="24.000000" height="24.000000" rx="0.1" ry="0.1" style="stroke:none;fill:#aaaaaa;;filter:url(#filter);"/>
<rect x="495.400000" y="38.000000" width="24.000000" height="24.000000" rx="0" ry="0" style="stroke:none;fill:#4B71A1;"/>
<text x="507.400000" y="52.000000" font-family="Arial" font-size="7" text-anchor="middle" fill="#FFFFFF">*</text>
<circle cx="497.400000" cy="40.000000" r="1"/>
<line x1="492.400000" y1="45.000000" x2="495.400000" y2="46.000000"  transform="rotate(0.000000,495.400000,46.000000)" style="stroke: black; stroke-width:0.25;"/>
<line x1="492.400000" y1="47.000000" x2="495.400000" y2="46.000000"  transform="rotate(0.000000,495.400000,46.000000)" style="stroke: black; stroke-width:0.25;"/>
<line x1="492.400000" y1="53.000000" x2="495.400000" y2="54.000000"  transform="rotate(0.000000,495.400000,54.000000)" style="stroke: black; stroke-width:0.25;"/>
<line x1="492.400000" y1="55.000000" x2="495.400000" y2="54.000000"  transform="rotate(0.000000,495.400000,54.000000)" style="stroke: black; stroke-width:0.25;"/>
<rect x="381.700000" y="103.000000" width="24.000000" height="24.000000" rx="0.1" ry="0.1" style="stroke:none;fill:#aaaaaa;;filter:url(#filter);"/>
<rect x="380.700000" y="102.000000" width="24.000000" height="24.000000" rx="0" ry="0" style="stroke:none;fill:#f44800;"/>
<text x="392.700000" y="116.000000" font-family="Arial" font-size="7" text-anchor="middle" fill="#FFFFFF">1</text>
<circle cx="382.700000" cy="104.000000" r="1"/>
<rect x="421.700000" y="99.000000" width="24.000000" height="24.000000" rx="0.1" ry="0.1" style="stroke:none;fill:#aaaaaa;;filter:url(#filter);"/>
<rect x="420.700000" y="98.000000" width="24.000000" height="24.000000" rx="0" ry="0" style="stroke:none;fill:#4B71A1;"/>
<text x="432.700000" y="112.000000" font-family="Arial" font-size="7" text-anchor="middle" fill="#FFFFFF">@</text>
<circle cx="422.700000" cy="100.000000" r="1"/>
<line x1="417.700000" y1="105.000000" x2="420.700000" y2="106.000000"  transform="rotate(0.000000,420.700000,106.000000)" style="stroke: black; stroke-width:0.25;"/>
<line x1="417.700000" y1="107.000000" x2="420.700000" y2="106.000000"  transform="rotate(0.000000,420.700000,106.000000)" style="stroke: black; stroke-width:0.25;"/>
<line x1="417.700000" y1="113.000000" x2="420.700000" y2="114.000000"  transform="rotate(0.000000,420.700000,114.000000)" style="stroke: black; stroke-width:0.25;"/>
<line x1="417.700000" y1="115.000000" x2="420.700000" y2="114.000000"  transform="rotate(0.000000,420.700000,114.000000)" style="stroke: black; stroke-width:0.25;"/>
<rect x="471.700000" y="103.000000" width="38.700000" height="24.000000" rx="0.1" ry="0.1" style="stroke:none;fill:#aaaaaa;;filter:url(#filter);"/>
<rect x="470.700000" y="102.000000" width="38.700000" height="24.000000" rx="0" ry="0" style="stroke:none;fill:#f44800;"/>
<text x="490.050000" y="116.000000" font-family="Arial" font-size="7" text-anchor="middle" fill="#FFFFFF">-0.084557</text>
<circle cx="472.700000" cy="104.000000" r="1"/>
<line x1="461.700000" y1="93.000000" x2="461.700000" y2="135.000000"  style="stroke: black; stroke-linecap:round; stroke-width:0.25; stroke-dasharray:3,3;"/>
<line x1="461.700000" y1="135.000000" x2="518.400000" y2="135.000000"  style="stroke: black; stroke-linecap:round; stroke-width:0.25; stroke-dasharray:3,3;"/>
<line x1="518.400000" y1="135.000000" x2="518.400000" y2="93.000000"  style="stroke: black; stroke-linecap:round; stroke-width:0.25; stroke-dasharray:3,3;"/>
<line x1="461.700000" y1="93.000000" x2="466.700000" y2="93.000000"  style="stroke: black; stroke-linecap:round; stroke-width:0.25; stroke-dasharray:3,3;"/>
<line x1="479.600000" y1="93.000000" x2="518.400000" y2="93.000000"  style="stroke: black; stroke-linecap:round; stroke-width:0.25; stroke-dasharray:3,3;"/>
<text x="466.700000" y="95.000000" font-family="Arial" font-size="7">a1</text>
<rect x="536.400000" y="99.000000" width="24.000000" height="24.000000" rx="0.1" ry="0.1" style="stroke:none;fill:#aaaaaa;;filter:url(#filter);"/>
<rect x="535.400000" y="98.000000" width="24.000000" height="24.000000" rx="0" ry="0" style="stroke:none;fill:#4B71A1;"/>
<text x="547.400000" y="112.000000" font-family="Arial" font-size="7" text-anchor="middle" fill="#FFFFFF">*</text>
<circle cx="537.400000" cy="100.000000" r="1"/>
<line x1="532.400000" y1="105.000000" x2="535.400000" y2="106.000000"  transform="rotate(0.000000,535.400000,106.000000)" style="stroke: black; stroke-width:0.25;"/>
<line x1="532.400000" y1="107.000000" x2="535.400000" y2="106.000000"  transform="rotate(0.000000,535.400000,106.000000)" style="stroke: black; stroke-width:0.25;"/>
<line x1="532.400000" y1="113.000000" x2="535.400000" y2="114.000000"  transform="rotate(0.000000,535.400000,114.000000)" style="stroke: black; stroke-width:0.25;"/>
<line x1="532.400000" y1="115.000000" x2="535.400000" y2="114.000000"  transform="rotate(0.000000,535.400000,114.000000)" style="stroke: black; stroke-width:0.25;"/>
<rect x="399.050000" y="153.000000" width="24.000000" height="24.000000" rx="0.1" ry="0.1" style="stroke:none;fill:#aaaaaa;;filter:url(#filter);"/>
<rect x="398.050000" y="152.000000" width="24.000000" height="24.000000" rx="0" ry="0" style="stroke:none;fill:#f44800;"/>
<text x="410.050000" y="166.000000" font-family="Arial" font-size="7" text-anchor="middle" fill="#FFFFFF">2</text>
<circle cx="400.050000" cy="154.000000" r="1"/>
<rect x="439.050000" y="149.000000" width="24.000000" height="24.000000" rx="0.1" ry="0.1" style="stroke:none;fill:#aaaaaa;;filter:url(#filter);"/>
<rect x="438.050000" y="148.000000" width="24.000000" height="24.000000" rx="0" ry="0" style="stroke:none;fill:#4B71A1;"/>
<text x="450.050000" y="162.000000" font-family="Arial" font-size="7" text-anchor="middle" fill="#FFFFFF">@</text>
<circle cx="440.050000" cy="150.000000" r="1"/>
<line x1="435.050000" y1="155.000000" x2="438.050000" y2="156.000000"  transform="rotate(0.000000,438.050000,156.000000)" style="stroke: black; stroke-width:0.25;"/>
<line x1="435.050000" y1="157.000000" x2="438.050000" y2="156.000000"  transform="rotate(0.000000,438.050000,156.000000)" style="stroke: black; stroke-width:0.25;"/>
<line x1="435.050000" y1="163.000000" x2="438.050000" y2="164.000000"  transform="rotate(0.000000,438.050000,164.000000)" style="stroke: black; stroke-width:0.25;"/>
<line x1="435.050000" y1="165.000000" x2="438.050000" y2="164.000000"  transform="rotate(0.000000,438.050000,164.000000)" style="stroke: black; stroke-width:0.25;"/>
<rect x="479.050000" y="153.000000" width="24.000000" height="24.000000" rx="0.1" ry="0.1" style="stroke:none;fill:#aaaaaa;;filter:url(#filter);"/>
<rect x="478.050000" y="152.000000" width="24.000000" height="24.000000" rx="0" ry="0" style="stroke:none;fill:#f44800;"/>
<text x="490.050000" y="166.000000" font-family="Arial" font-size="7" text-anchor="middle" fill="#FFFFFF">1</text>
<circle cx="480.050000" cy="154.000000" r="1"/>
<rect x="519.050000" y="149.000000" width="24.000000" height="24.000000" rx="0.1" ry="0.1" style="stroke:none;fill:#aaaaaa;;filter:url(#filter);"/>
<rect x="518.050000" y="148.000000" width="24.000000" height="24.000000" rx="0" ry="0" style="stroke:none;fill:#4B71A1;"/>
<text x="530.050000" y="162.000000" font-family="Arial" font-size="7" text-anchor="middle" fill="#FFFFFF">*</text>
<circle cx="520.050000" cy="150.000000" r="1"/>
<line x1="515.050000" y1="155.000000" x2="518.050000" y2="156.000000"  transform="rotate(0.000000,518.050000,156.000000)" style="stroke: black; stroke-width:0.25;"/>
<line x1="515.050000" y1="157.000000" x2="518.050000" y2="156.000000"  transform="rotate(0.000000,518.050000,156.000000)" style="stroke: black; stroke-width:0.25;"/>
<line x1="515.050000" y1="163.000000" x2="518.050000" y2="164.000000"  transform="rotate(0.000000,518.050000,164.000000)" style="stroke: black; stroke-width:0.25;"/>
<line x1="515.050000" y1="165.000000" x2="518.050000" y2="164.000000"  transform="rotate(0.000000,518.050000,164.000000)" style="stroke: black; stroke-width:0.25;"/>
<line x1="15.000000" y1="15.000000" x2="15.000000" y2="185.000000"  style="stroke: black; stroke-linecap:round; stroke-width:0.25; stroke-dasharray:3,3;"/>
<line x1="15.000000" y1="185.000000" x2="626.400000" y2="185.000000"  style="stroke: black; stroke-linecap:round; stroke-width:0.25; stroke-dasharray:3,3;"/>
<line x1="626.400000" y1="185.000000" x2="626.400000" y2="15.000000"  style="stroke: black; stroke-linecap:round; stroke-width:0.25; stroke-dasharray:3,3;"/>
<line x1="15.000000" y1="15.000000" x2="20.000000" y2="15.000000"  style="stroke: black; stroke-linecap:round; stroke-width:0.25; stroke-dasharray:3,3;"/>
<line x1="119.975000" y1="15.000000" x2="626.400000" y2="15.000000"  style="stroke: black; stroke-linecap:round; stroke-width:0.25; stroke-dasharray:3,3;"/>
<text x="20.000000" y="17.000000" font-family="Arial" font-size="7">tf2(0.0115858...12873933746f)</text>
<line x1="628.400000" y1="99.000000" x2="631.400000" y2="100.000000"  transform="rotate(0.000000,631.400000,100.000000)" style="stroke: black; stroke-width:0.25;"/>
<line x1="628.400000" y1="101.000000" x2="631.400000" y2="100.000000"  transform="rotate(0.000000,631.400000,100.000000)" style="stroke: black; stroke-width:0.25;"/>
<line x1="10.000000" y1="100.000000" x2="20.000000" y2="100.000000"  style="stroke:black; stroke-linecap:round; stroke-width:0.25;"/>
<line x1="20.000000" y1="100.000000" x2="24.000000" y2="100.000000"  style="stroke:black; stroke-linecap:round; stroke-width:0.25;"/>
<line x1="24.000000" y1="100.000000" x2="28.000000" y2="100.000000"  style="stroke:black; stroke-linecap:round; stroke-width:0.25;"/>
<line x1="28.000000" y1="100.000000" x2="36.000000" y2="100.000000"  style="stroke:black; stroke-linecap:round; stroke-width:0.25;"/>
<line x1="36.000000" y1="100.000000" x2="36.000000" y2="164.000000"  style="stroke:black; stroke-linecap:round; stroke-width:0.25;"/>
<line x1="36.000000" y1="164.000000" x2="36.000000" y2="164.000000"  style="stroke:black; stroke-linecap:round; stroke-width:0.25;"/>
<line x1="36.000000" y1="164.000000" x2="44.000000" y2="164.000000"  style="stroke:black; stroke-linecap:round; stroke-width:0.25;"/>
<line x1="44.000000" y1="84.000000" x2="44.000000" y2="84.000000"  style="stroke:black; stroke-linecap:round; stroke-width:0.25;"/>
<line x1="44.000000" y1="84.000000" x2="44.000000" y2="156.000000"  style="stroke:black; stroke-linecap:round; stroke-width:0.25;"/>
<line x1="44.000000" y1="156.000000" x2="44.000000" y2="156.000000"  style="stroke:black; stroke-linecap:round; stroke-width:0.25;"/>
<line x1="44.000000" y1="156.000000" x2="161.350000" y2="156.000000"  style="stroke:black; stroke-linecap:round; stroke-width:0.25;"/>
<line x1="44.000000" y1="164.000000" x2="161.350000" y2="164.000000"  style="stroke:black; stroke-linecap:round; stroke-width:0.25;"/>
<line x1="48.000000" y1="84.000000" x2="44.000000" y2="84.000000"  style="stroke:black; stroke-linecap:round; stroke-width:0.25;"/>
<line x1="52.000000" y1="84.000000" x2="48.000000" y2="84.000000"  style="stroke:black; stroke-linecap:round; stroke-width:0.25;"/>
<line x1="84.000000" y1="54.000000" x2="52.000000" y2="84.000000"  style="stroke:black; stroke-linecap:round; stroke-width:0.25;"/>
<line x1="84.000000" y1="114.000000" x2="52.000000" y2="84.000000"  style="stroke:black; stroke-linecap:round; stroke-width:0.25;"/>
<line x1="88.000000" y1="54.000000" x2="84.000000" y2="54.000000"  style="stroke:black; stroke-linecap:round; stroke-width:0.25;"/>
<line x1="116.000000" y1="50.000000" x2="112.000000" y2="50.000000"  style="stroke:black; stroke-linecap:round; stroke-width:0.25;"/>
<line x1="116.000000" y1="58.000000" x2="112.000000" y2="58.000000"  style="stroke:black; stroke-linecap:round; stroke-width:0.25;"/>
<line x1="116.000000" y1="58.000000" x2="116.000000" y2="58.000000"  style="stroke:black; stroke-linecap:round; stroke-width:0.25;"/>
<line x1="116.000000" y1="80.000000" x2="116.000000" y2="58.000000"  style="stroke:black; stroke-linecap:round; stroke-width:0.25;"/>
<line x1="124.000000" y1="50.000000" x2="116.000000" y2="50.000000"  style="stroke:black; stroke-linecap:round; stroke-width:0.25;"/>
<line x1="124.000000" y1="80.000000" x2="116.000000" y2="80.000000"  style="stroke:black; stroke-linecap:round; stroke-width:0.25;"/>
<line x1="124.000000" y1="114.000000" x2="84.000000" y2="114.000000"  style="stroke:black; stroke-linecap:round; stroke-width:0.25;"/>
<line x1="128.000000" y1="114.000000" x2="124.000000" y2="114.000000"  style="stroke:black; stroke-linecap:round; stroke-width:0.25;"/>
<line x1="134.000000" y1="50.000000" x2="124.000000" y2="50.000000"  style="stroke:black; stroke-linecap:round; stroke-width:0.25;"/>
<line x1="138.000000" y1="50.000000" x2="134.000000" y2="50.000000"  style="stroke:black; stroke-linecap:round; stroke-width:0.25;"/>
<line x1="156.000000" y1="110.000000" x2="152.000000" y2="110.000000"  style="stroke:black; stroke-linecap:round; stroke-width:0.25;"/>
<line x1="156.000000" y1="118.000000" x2="152.000000" y2="118.000000"  style="stroke:black; stroke-linecap:round; stroke-width:0.25;"/>
<line x1="156.000000" y1="118.000000" x2="156.000000" y2="118.000000"  style="stroke:black; stroke-linecap:round; stroke-width:0.25;"/>
<line x1="156.000000" y1="140.000000" x2="156.000000" y2="118.000000"  style="stroke:black; stroke-linecap:round; stroke-width:0.25;"/>
<line x1="157.350000" y1="80.000000" x2="124.000000" y2="80.000000"  style="stroke:black; stroke-linecap:round; stroke-width:0.25;"/>
<line x1="161.350000" y1="156.000000" x2="165.350000" y2="156.000000"  style="stroke:black; stroke-linecap:round; stroke-width:0.25;"/>
<line x1="161.350000" y1="164.000000" x2="165.350000" y2="164.000000"  style="stroke:black; stroke-linecap:round; stroke-width:0.25;"/>
<line x1="164.000000" y1="110.000000" x2="156.000000" y2="110.000000"  style="stroke:black; stroke-linecap:round; stroke-width:0.25;"/>
<line x1="164.000000" y1="140.000000" x2="156.000000" y2="140.000000"  style="stroke:black; stroke-linecap:round; stroke-width:0.25;"/>
<line x1="174.000000" y1="110.000000" x2="164.000000" y2="110.000000"  style="stroke:black; stroke-linecap:round; stroke-width:0.25;"/>
<line x1="178.000000" y1="110.000000" x2="174.000000" y2="110.000000"  style="stroke:black; stroke-linecap:round; stroke-width:0.25;"/>
<line x1="189.350000" y1="160.000000" x2="193.350000" y2="160.000000"  style="stroke:black; stroke-linecap:round; stroke-width:0.25;"/>
<line x1="190.700000" y1="80.000000" x2="157.350000" y2="80.000000"  style="stroke:black; stroke-linecap:round; stroke-width:0.25;"/>
<line x1="193.350000" y1="160.000000" x2="310.700000" y2="160.000000"  style="stroke:black; stroke-linecap:round; stroke-width:0.25;"/>
<line x1="197.350000" y1="140.000000" x2="164.000000" y2="140.000000"  style="stroke:black; stroke-linecap:round; stroke-width:0.25;"/>
<line x1="198.700000" y1="54.000000" x2="198.700000" y2="54.000000"  style="stroke:black; stroke-linecap:round; stroke-width:0.25;"/>
<line x1="198.700000" y1="54.000000" x2="198.700000" y2="80.000000"  style="stroke:black; stroke-linecap:round; stroke-width:0.25;"/>
<line x1="198.700000" y1="80.000000" x2="190.700000" y2="80.000000"  style="stroke:black; stroke-linecap:round; stroke-width:0.25;"/>
<line x1="202.700000" y1="54.000000" x2="198.700000" y2="54.000000"  style="stroke:black; stroke-linecap:round; stroke-width:0.25;"/>
<line x1="230.700000" y1="50.000000" x2="226.700000" y2="50.000000"  style="stroke:black; stroke-linecap:round; stroke-width:0.25;"/>
<line x1="230.700000" y1="58.000000" x2="226.700000" y2="58.000000"  style="stroke:black; stroke-linecap:round; stroke-width:0.25;"/>
<line x1="230.700000" y1="58.000000" x2="230.700000" y2="58.000000"  style="stroke:black; stroke-linecap:round; stroke-width:0.25;"/>
<line x1="230.700000" y1="70.000000" x2="230.700000" y2="58.000000"  style="stroke:black; stroke-linecap:round; stroke-width:0.25;"/>
<line x1="230.700000" y1="140.000000" x2="197.350000" y2="140.000000"  style="stroke:black; stroke-linecap:round; stroke-width:0.25;"/>
<line x1="238.700000" y1="50.000000" x2="230.700000" y2="50.000000"  style="stroke:black; stroke-linecap:round; stroke-width:0.25;"/>
<line x1="238.700000" y1="70.000000" x2="230.700000" y2="70.000000"  style="stroke:black; stroke-linecap:round; stroke-width:0.25;"/>
<line x1="242.700000" y1="50.000000" x2="238.700000" y2="50.000000"  style="stroke:black; stroke-linecap:round; stroke-width:0.25;"/>
<line x1="254.700000" y1="70.000000" x2="238.700000" y2="70.000000"  style="stroke:black; stroke-linecap:round; stroke-width:0.25;"/>
<line x1="270.700000" y1="70.000000" x2="254.700000" y2="70.000000"  style="stroke:black; stroke-linecap:round; stroke-width:0.25;"/>
<line x1="270.700000" y1="140.000000" x2="230.700000" y2="140.000000"  style="stroke:black; stroke-linecap:round; stroke-width:0.25;"/>
<line x1="302.700000" y1="84.000000" x2="270.700000" y2="70.000000"  style="stroke:black; stroke-linecap:round; stroke-width:0.25;"/>
<line x1="302.700000" y1="84.000000" x2="270.700000" y2="140.000000"  style="stroke:black; stroke-linecap:round; stroke-width:0.25;"/>
<line x1="306.700000" y1="84.000000" x2="302.700000" y2="84.000000"  style="stroke:black; stroke-linecap:round; stroke-width:0.25;"/>
<line x1="310.700000" y1="84.000000" x2="306.700000" y2="84.000000"  style="stroke:black; stroke-linecap:round; stroke-width:0.25;"/>
<line x1="310.700000" y1="84.000000" x2="310.700000" y2="84.000000"  style="stroke:black; stroke-linecap:round; stroke-width:0.25;"/>
<line x1="310.700000" y1="156.000000" x2="310.700000" y2="84.000000"  style="stroke:black; stroke-linecap:round; stroke-width:0.25;"/>
<line x1="310.700000" y1="160.000000" x2="312.700000" y2="160.000000"  style="stroke:black; stroke-linecap:round; stroke-width:0.25;"/>
<line x1="312.700000" y1="160.000000" x2="318.700000" y2="160.000000"  style="stroke:black; stroke-linecap:round; stroke-width:0.25;"/>
<line x1="318.700000" y1="100.000000" x2="326.700000" y2="100.000000"  style="stroke:black; stroke-linecap:round; stroke-width:0.25;"/>
<line x1="318.700000" y1="160.000000" x2="318.700000" y2="100.000000"  style="stroke:black; stroke-linecap:round; stroke-width:0.25;"/>
<line x1="318.700000" y1="160.000000" x2="318.700000" y2="160.000000"  style="stroke:black; stroke-linecap:round; stroke-width:0.25;"/>
<line x1="326.700000" y1="100.000000" x2="330.700000" y2="100.000000"  style="stroke:black; stroke-linecap:round; stroke-width:0.25;"/>
<line x1="330.700000" y1="100.000000" x2="334.700000" y2="100.000000"  style="stroke:black; stroke-linecap:round; stroke-width:0.25;"/>
<line x1="334.700000" y1="100.000000" x2="376.700000" y2="24.000000"  style="stroke:black; stroke-linecap:round; stroke-width:0.25;"/>
<line x1="334.700000" y1="100.000000" x2="376.700000" y2="144.000000"  style="stroke:black; stroke-linecap:round; stroke-width:0.25;"/>
<line x1="334.700000" y1="100.000000" x2="376.700000" y2="94.000000"  style="stroke:black; stroke-linecap:round; stroke-width:0.25;"/>
<line x1="376.700000" y1="24.000000" x2="416.700000" y2="24.000000"  style="stroke:black; stroke-linecap:round; stroke-width:0.25;"/>
<line x1="376.700000" y1="144.000000" x2="394.050000" y2="144.000000"  style="stroke:black; stroke-linecap:round; stroke-width:0.25;"/>
<line x1="376.700000" y1="94.000000" x2="392.700000" y2="94.000000"  style="stroke:black; stroke-linecap:round; stroke-width:0.25;"/>
<line x1="392.700000" y1="94.000000" x2="408.700000" y2="94.000000"  style="stroke:black; stroke-linecap:round; stroke-width:0.25;"/>
<line x1="394.050000" y1="144.000000" x2="410.050000" y2="144.000000"  style="stroke:black; stroke-linecap:round; stroke-width:0.25;"/>
<line x1="404.700000" y1="114.000000" x2="408.700000" y2="114.000000"  style="stroke:black; stroke-linecap:round; stroke-width:0.25;"/>
<line x1="408.700000" y1="94.000000" x2="416.700000" y2="94.000000"  style="stroke:black; stroke-linecap:round; stroke-width:0.25;"/>
<line x1="408.700000" y1="114.000000" x2="416.700000" y2="114.000000"  style="stroke:black; stroke-linecap:round; stroke-width:0.25;"/>
<line x1="410.050000" y1="144.000000" x2="426.050000" y2="144.000000"  style="stroke:black; stroke-linecap:round; stroke-width:0.25;"/>
<line x1="416.700000" y1="24.000000" x2="450.050000" y2="24.000000"  style="stroke:black; stroke-linecap:round; stroke-width:0.25;"/>
<line x1="416.700000" y1="94.000000" x2="416.700000" y2="106.000000"  style="stroke:black; stroke-linecap:round; stroke-width:0.25;"/>
<line x1="416.700000" y1="106.000000" x2="416.700000" y2="106.000000"  style="stroke:black; stroke-linecap:round; stroke-width:0.25;"/>
<line x1="416.700000" y1="106.000000" x2="420.700000" y2="106.000000"  style="stroke:black; stroke-linecap:round; stroke-width:0.25;"/>
<line x1="416.700000" y1="114.000000" x2="420.700000" y2="114.000000"  style="stroke:black; stroke-linecap:round; stroke-width:0.25;"/>
<line x1="422.050000" y1="164.000000" x2="426.050000" y2="164.000000"  style="stroke:black; stroke-linecap:round; stroke-width:0.25;"/>
<line x1="426.050000" y1="144.000000" x2="434.050000" y2="144.000000"  style="stroke:black; stroke-linecap:round; stroke-width:0.25;"/>
<line x1="426.050000" y1="164.000000" x2="434.050000" y2="164.000000"  style="stroke:black; stroke-linecap:round; stroke-width:0.25;"/>
<line x1="434.050000" y1="144.000000" x2="434.050000" y2="156.000000"  style="stroke:black; stroke-linecap:round; stroke-width:0.25;"/>
<line x1="434.050000" y1="156.000000" x2="434.050000" y2="156.000000"  style="stroke:black; stroke-linecap:round; stroke-width:0.25;"/>
<line x1="434.050000" y1="156.000000" x2="438.050000" y2="156.000000"  style="stroke:black; stroke-linecap:round; stroke-width:0.25;"/>
<line x1="434.050000" y1="164.000000" x2="438.050000" y2="164.000000"  style="stroke:black; stroke-linecap:round; stroke-width:0.25;"/>
<line x1="444.700000" y1="110.000000" x2="448.700000" y2="110.000000"  style="stroke:black; stroke-linecap:round; stroke-width:0.25;"/>
<line x1="448.700000" y1="84.000000" x2="456.700000" y2="84.000000"  style="stroke:black; stroke-linecap:round; stroke-width:0.25;"/>
<line x1="448.700000" y1="110.000000" x2="448.700000" y2="84.000000"  style="stroke:black; stroke-linecap:round; stroke-width:0.25;"/>
<line x1="448.700000" y1="110.000000" x2="448.700000" y2="110.000000"  style="stroke:black; stroke-linecap:round; stroke-width:0.25;"/>
<line x1="450.050000" y1="24.000000" x2="483.400000" y2="24.000000"  style="stroke:black; stroke-linecap:round; stroke-width:0.25;"/>
<line x1="456.700000" y1="84.000000" x2="490.050000" y2="84.000000"  style="stroke:black; stroke-linecap:round; stroke-width:0.25;"/>
<line x1="462.050000" y1="160.000000" x2="466.050000" y2="160.000000"  style="stroke:black; stroke-linecap:round; stroke-width:0.25;"/>
<line x1="466.050000" y1="144.000000" x2="474.050000" y2="144.000000"  style="stroke:black; stroke-linecap:round; stroke-width:0.25;"/>
<line x1="466.050000" y1="160.000000" x2="466.050000" y2="144.000000"  style="stroke:black; stroke-linecap:round; stroke-width:0.25;"/>
<line x1="466.050000" y1="160.000000" x2="466.050000" y2="160.000000"  style="stroke:black; stroke-linecap:round; stroke-width:0.25;"/>
<line x1="469.400000" y1="54.000000" x2="473.400000" y2="54.000000"  style="stroke:black; stroke-linecap:round; stroke-width:0.25;"/>
<line x1="473.400000" y1="54.000000" x2="483.400000" y2="54.000000"  style="stroke:black; stroke-linecap:round; stroke-width:0.25;"/>
<line x1="474.050000" y1="144.000000" x2="490.050000" y2="144.000000"  style="stroke:black; stroke-linecap:round; stroke-width:0.25;"/>
<line x1="483.400000" y1="24.000000" x2="491.400000" y2="24.000000"  style="stroke:black; stroke-linecap:round; stroke-width:0.25;"/>
<line x1="483.400000" y1="54.000000" x2="491.400000" y2="54.000000"  style="stroke:black; stroke-linecap:round; stroke-width:0.25;"/>
<line x1="490.050000" y1="84.000000" x2="523.400000" y2="84.000000"  style="stroke:black; stroke-linecap:round; stroke-width:0.25;"/>
<line x1="490.050000" y1="144.000000" x2="506.050000" y2="144.000000"  style="stroke:black; stroke-linecap:round; stroke-width:0.25;"/>
<line x1="491.400000" y1="24.000000" x2="491.400000" y2="46.000000"  style="stroke:black; stroke-linecap:round; stroke-width:0.25;"/>
<line x1="491.400000" y1="46.000000" x2="491.400000" y2="46.000000"  style="stroke:black; stroke-linecap:round; stroke-width:0.25;"/>
<line x1="491.400000" y1="46.000000" x2="495.400000" y2="46.000000"  style="stroke:black; stroke-linecap:round; stroke-width:0.25;"/>
<line x1="491.400000" y1="54.000000" x2="495.400000" y2="54.000000"  style="stroke:black; stroke-linecap:round; stroke-width:0.25;"/>
<line x1="502.050000" y1="164.000000" x2="506.050000" y2="164.000000"  style="stroke:black; stroke-linecap:round; stroke-width:0.25;"/>
<line x1="506.050000" y1="144.000000" x2="514.050000" y2="144.000000"  style="stroke:black; stroke-linecap:round; stroke-width:0.25;"/>
<line x1="506.050000" y1="164.000000" x2="514.050000" y2="164.000000"  style="stroke:black; stroke-linecap:round; stroke-width:0.25;"/>
<line x1="509.400000" y1="114.000000" x2="513.400000" y2="114.000000"  style="stroke:black; stroke-linecap:round; stroke-width:0.25;"/>
<line x1="513.400000" y1="114.000000" x2="523.400000" y2="114.000000"  style="stroke:black; stroke-linecap:round; stroke-width:0.25;"/>
<line x1="514.050000" y1="144.000000" x2="514.050000" y2="156.000000"  style="stroke:black; stroke-linecap:round; stroke-width:0.25;"/>
<line x1="514.050000" y1="156.000000" x2="514.050000" y2="156.000000"  style="stroke:black; stroke-linecap:round; stroke-width:0.25;"/>
<line x1="514.050000" y1="156.000000" x2="518.050000" y2="156.000000"  style="stroke:black; stroke-linecap:round; stroke-width:0.25;"/>
<line x1="514.050000" y1="164.000000" x2="518.050000" y2="164.000000"  style="stroke:black; stroke-linecap:round; stroke-width:0.25;"/>
<line x1="519.400000" y1="50.000000" x2="523.400000" y2="50.000000"  style="stroke:black; stroke-linecap:round; stroke-width:0.25;"/>
<line x1="523.400000" y1="50.000000" x2="563.400000" y2="50.000000"  style="stroke:black; stroke-linecap:round; stroke-width:0.25;"/>
<line x1="523.400000" y1="84.000000" x2="531.400000" y2="84.000000"  style="stroke:black; stroke-linecap:round; stroke-width:0.25;"/>
<line x1="523.400000" y1="114.000000" x2="531.400000" y2="114.000000"  style="stroke:black; stroke-linecap:round; stroke-width:0.25;"/>
<line x1="531.400000" y1="84.000000" x2="531.400000" y2="106.000000"  style="stroke:black; stroke-linecap:round; stroke-width:0.25;"/>
<line x1="531.400000" y1="106.000000" x2="531.400000" y2="106.000000"  style="stroke:black; stroke-linecap:round; stroke-width:0.25;"/>
<line x1="531.400000" y1="106.000000" x2="535.400000" y2="106.000000"  style="stroke:black; stroke-linecap:round; stroke-width:0.25;"/>
<line x1="531.400000" y1="114.000000" x2="535.400000" y2="114.000000"  style="stroke:black; stroke-linecap:round; stroke-width:0.25;"/>
<line x1="542.050000" y1="160.000000" x2="546.050000" y2="160.000000"  style="stroke:black; stroke-linecap:round; stroke-width:0.25;"/>
<line x1="546.050000" y1="160.000000" x2="563.400000" y2="160.000000"  style="stroke:black; stroke-linecap:round; stroke-width:0.25;"/>
<line x1="559.400000" y1="110.000000" x2="563.400000" y2="110.000000"  style="stroke:black; stroke-linecap:round; stroke-width:0.25;"/>
<line x1="563.400000" y1="50.000000" x2="605.400000" y2="100.000000"  style="stroke:black; stroke-linecap:round; stroke-width:0.25;"/>
<line x1="563.400000" y1="110.000000" x2="605.400000" y2="100.000000"  style="stroke:black; stroke-linecap:round; stroke-width:0.25;"/>
<line x1="563.400000" y1="160.000000" x2="605.400000" y2="100.000000"  style="stroke:black; stroke-linecap:round; stroke-width:0.25;"/>
<line x1="605.400000" y1="100.000000" x2="609.400000" y2="100.000000"  style="stroke:black; stroke-linecap:round; stroke-width:0.25;"/>
<line x1="609.400000" y1="100.000000" x2="613.400000" y2="100.000000"  style="stroke:black; stroke-linecap:round; stroke-width:0.25;"/>
<line x1="613.400000" y1="100.000000" x2="613.400000" y2="100.000000"  style="stroke:black; stroke-linecap:round; stroke-width:0.25;"/>
<line x1="613.400000" y1="100.000000" x2="617.400000" y2="100.000000"  style="stroke:black; stroke-linecap:round; stroke-width:0.25;"/>
<line x1="617.400000" y1="100.000000" x2="621.400000" y2="100.000000"  style="stroke:black; stroke-linecap:round; stroke-width:0.25;"/>
<line x1="621.400000" y1="100.000000" x2="631.400000" y2="100.000000"  style="stroke:black; stroke-linecap:round; stroke-width:0.25;"/>
</svg>
