<?xml version="1.0"?>
<svg xmlns="http://www.w3.org/2000/svg" xmlns:xlink="http://www.w3.org/1999/xlink" viewBox="0 0 532.000000 160.000000" width="266.000000mm" height="80.000000mm" version="1.1">
<defs>
   <filter id="filter" filterRes="18" x="0" y="0">
     <feGaussianBlur in="SourceGraphic" stdDeviation="1.55" result="blur"/>
     <feOffset in="blur" dx="3" dy="3"/>
   </filter>
</defs>
<a xlink:href="fdelay2a-0x7f8e654757d0.svg">
<rect x="1.000000" y="1.000000" width="531.000000" height="159.000000" rx="0.1" ry="0.1" style="stroke:none;fill:#aaaaaa;;filter:url(#filter);"/>
<rect x="0.000000" y="0.000000" width="531.000000" height="159.000000" rx="0" ry="0" style="stroke:none;fill:#ffffff;"/>
</a>
<text x="10.000000" y="7.000000" font-family="Arial" font-size="7"></text>
<a xlink:href="sub-0x7f8e65475030.svg">
<rect x="139.000000" y="109.000000" width="24.000000" height="24.000000" rx="0.1" ry="0.1" style="stroke:none;fill:#aaaaaa;;filter:url(#filter);"/>
<rect x="138.000000" y="108.000000" width="24.000000" height="24.000000" rx="0" ry="0" style="stroke:none;fill:#003366;"/>
</a>
<a xlink:href="sub-0x7f8e65475030.svg">
<text x="150.000000" y="122.000000" font-family="Arial" font-size="7" text-anchor="middle" fill="#FFFFFF">sub</text>
</a>
<circle cx="140.000000" cy="110.000000" r="1"/>
<line x1="135.000000" y1="115.000000" x2="138.000000" y2="116.000000"  transform="rotate(0.000000,138.000000,116.000000)" style="stroke: black; stroke-width:0.25;"/>
<line x1="135.000000" y1="117.000000" x2="138.000000" y2="116.000000"  transform="rotate(0.000000,138.000000,116.000000)" style="stroke: black; stroke-width:0.25;"/>
<line x1="135.000000" y1="123.000000" x2="138.000000" y2="124.000000"  transform="rotate(0.000000,138.000000,124.000000)" style="stroke: black; stroke-width:0.25;"/>
<line x1="135.000000" y1="125.000000" x2="138.000000" y2="124.000000"  transform="rotate(0.000000,138.000000,124.000000)" style="stroke: black; stroke-width:0.25;"/>
<a xlink:href="a1-0x7f8e65444610.svg">
<rect x="159.000000" y="69.000000" width="24.000000" height="24.000000" rx="0.1" ry="0.1" style="stroke:none;fill:#aaaaaa;;filter:url(#filter);"/>
<rect x="158.000000" y="68.000000" width="24.000000" height="24.000000" rx="0" ry="0" style="stroke:none;fill:#003366;"/>
</a>
<a xlink:href="a1-0x7f8e65444610.svg">
<text x="170.000000" y="82.000000" font-family="Arial" font-size="7" text-anchor="middle" fill="#FFFFFF">a1</text>
</a>
<circle cx="180.000000" cy="90.000000" r="1"/>
<rect x="119.000000" y="73.000000" width="24.000000" height="24.000000" rx="0.1" ry="0.1" style="stroke:none;fill:#aaaaaa;;filter:url(#filter);"/>
<rect x="118.000000" y="72.000000" width="24.000000" height="24.000000" rx="0" ry="0" style="stroke:none;fill:#4B71A1;"/>
<text x="130.000000" y="86.000000" font-family="Arial" font-size="7" text-anchor="middle" fill="#FFFFFF">*</text>
<circle cx="140.000000" cy="94.000000" r="1"/>
<line x1="145.000000" y1="87.000000" x2="142.000000" y2="88.000000"  transform="rotate(0.000000,142.000000,88.000000)" style="stroke: black; stroke-width:0.25;"/>
<line x1="145.000000" y1="89.000000" x2="142.000000" y2="88.000000"  transform="rotate(0.000000,142.000000,88.000000)" style="stroke: black; stroke-width:0.25;"/>
<line x1="145.000000" y1="79.000000" x2="142.000000" y2="80.000000"  transform="rotate(0.000000,142.000000,80.000000)" style="stroke: black; stroke-width:0.25;"/>
<line x1="145.000000" y1="81.000000" x2="142.000000" y2="80.000000"  transform="rotate(0.000000,142.000000,80.000000)" style="stroke: black; stroke-width:0.25;"/>
<rect x="199.000000" y="29.000000" width="24.000000" height="24.000000" rx="0.1" ry="0.1" style="stroke:none;fill:#aaaaaa;;filter:url(#filter);"/>
<rect x="198.000000" y="28.000000" width="24.000000" height="24.000000" rx="0" ry="0" style="stroke:none;fill:#f44800;"/>
<text x="210.000000" y="42.000000" font-family="Arial" font-size="7" text-anchor="middle" fill="#FFFFFF">1</text>
<circle cx="220.000000" cy="50.000000" r="1"/>
<rect x="159.000000" y="33.000000" width="24.000000" height="24.000000" rx="0.1" ry="0.1" style="stroke:none;fill:#aaaaaa;;filter:url(#filter);"/>
<rect x="158.000000" y="32.000000" width="24.000000" height="24.000000" rx="0" ry="0" style="stroke:none;fill:#4B71A1;"/>
<text x="170.000000" y="46.000000" font-family="Arial" font-size="7" text-anchor="middle" fill="#FFFFFF">@</text>
<circle cx="180.000000" cy="54.000000" r="1"/>
<line x1="185.000000" y1="47.000000" x2="182.000000" y2="48.000000"  transform="rotate(0.000000,182.000000,48.000000)" style="stroke: black; stroke-width:0.25;"/>
<line x1="185.000000" y1="49.000000" x2="182.000000" y2="48.000000"  transform="rotate(0.000000,182.000000,48.000000)" style="stroke: black; stroke-width:0.25;"/>
<line x1="185.000000" y1="39.000000" x2="182.000000" y2="40.000000"  transform="rotate(0.000000,182.000000,40.000000)" style="stroke: black; stroke-width:0.25;"/>
<line x1="185.000000" y1="41.000000" x2="182.000000" y2="40.000000"  transform="rotate(0.000000,182.000000,40.000000)" style="stroke: black; stroke-width:0.25;"/>
<a xlink:href="a2-0x7f8e65443f20.svg">
<rect x="119.000000" y="29.000000" width="24.000000" height="24.000000" rx="0.1" ry="0.1" style="stroke:none;fill:#aaaaaa;;filter:url(#filter);"/>
<rect x="118.000000" y="28.000000" width="24.000000" height="24.000000" rx="0" ry="0" style="stroke:none;fill:#003366;"/>
</a>
<a xlink:href="a2-0x7f8e65443f20.svg">
<text x="130.000000" y="42.000000" font-family="Arial" font-size="7" text-anchor="middle" fill="#FFFFFF">a2</text>
</a>
<circle cx="140.000000" cy="50.000000" r="1"/>
<rect x="79.000000" y="33.000000" width="24.000000" height="24.000000" rx="0.1" ry="0.1" style="stroke:none;fill:#aaaaaa;;filter:url(#filter);"/>
<rect x="78.000000" y="32.000000" width="24.000000" height="24.000000" rx="0" ry="0" style="stroke:none;fill:#4B71A1;"/>
<text x="90.000000" y="46.000000" font-family="Arial" font-size="7" text-anchor="middle" fill="#FFFFFF">*</text>
<circle cx="100.000000" cy="54.000000" r="1"/>
<line x1="105.000000" y1="47.000000" x2="102.000000" y2="48.000000"  transform="rotate(0.000000,102.000000,48.000000)" style="stroke: black; stroke-width:0.25;"/>
<line x1="105.000000" y1="49.000000" x2="102.000000" y2="48.000000"  transform="rotate(0.000000,102.000000,48.000000)" style="stroke: black; stroke-width:0.25;"/>
<line x1="105.000000" y1="39.000000" x2="102.000000" y2="40.000000"  transform="rotate(0.000000,102.000000,40.000000)" style="stroke: black; stroke-width:0.25;"/>
<line x1="105.000000" y1="41.000000" x2="102.000000" y2="40.000000"  transform="rotate(0.000000,102.000000,40.000000)" style="stroke: black; stroke-width:0.25;"/>
<line x1="254.000000" y1="120.000000" x2="254.000000" y2="116.000000"  style="stroke:black; stroke-linecap:round; stroke-width:0.25;"/>
<line x1="254.000000" y1="116.000000" x2="258.000000" y2="116.000000"  style="stroke:black; stroke-linecap:round; stroke-width:0.25;"/>
<line x1="258.000000" y1="116.000000" x2="258.000000" y2="120.000000"  style="stroke:black; stroke-linecap:round; stroke-width:0.25;"/>
<a xlink:href="a2-0x7f8e65443f20.svg">
<rect x="357.000000" y="33.000000" width="24.000000" height="24.000000" rx="0.1" ry="0.1" style="stroke:none;fill:#aaaaaa;;filter:url(#filter);"/>
<rect x="356.000000" y="32.000000" width="24.000000" height="24.000000" rx="0" ry="0" style="stroke:none;fill:#003366;"/>
</a>
<a xlink:href="a2-0x7f8e65443f20.svg">
<text x="368.000000" y="46.000000" font-family="Arial" font-size="7" text-anchor="middle" fill="#FFFFFF">a2</text>
</a>
<circle cx="358.000000" cy="34.000000" r="1"/>
<rect x="397.000000" y="29.000000" width="24.000000" height="24.000000" rx="0.1" ry="0.1" style="stroke:none;fill:#aaaaaa;;filter:url(#filter);"/>
<rect x="396.000000" y="28.000000" width="24.000000" height="24.000000" rx="0" ry="0" style="stroke:none;fill:#4B71A1;"/>
<text x="408.000000" y="42.000000" font-family="Arial" font-size="7" text-anchor="middle" fill="#FFFFFF">*</text>
<circle cx="398.000000" cy="30.000000" r="1"/>
<line x1="393.000000" y1="35.000000" x2="396.000000" y2="36.000000"  transform="rotate(0.000000,396.000000,36.000000)" style="stroke: black; stroke-width:0.25;"/>
<line x1="393.000000" y1="37.000000" x2="396.000000" y2="36.000000"  transform="rotate(0.000000,396.000000,36.000000)" style="stroke: black; stroke-width:0.25;"/>
<line x1="393.000000" y1="43.000000" x2="396.000000" y2="44.000000"  transform="rotate(0.000000,396.000000,44.000000)" style="stroke: black; stroke-width:0.25;"/>
<line x1="393.000000" y1="45.000000" x2="396.000000" y2="44.000000"  transform="rotate(0.000000,396.000000,44.000000)" style="stroke: black; stroke-width:0.25;"/>
<rect x="317.000000" y="73.000000" width="24.000000" height="24.000000" rx="0.1" ry="0.1" style="stroke:none;fill:#aaaaaa;;filter:url(#filter);"/>
<rect x="316.000000" y="72.000000" width="24.000000" height="24.000000" rx="0" ry="0" style="stroke:none;fill:#f44800;"/>
<text x="328.000000" y="86.000000" font-family="Arial" font-size="7" text-anchor="middle" fill="#FFFFFF">1</text>
<circle cx="318.000000" cy="74.000000" r="1"/>
<rect x="357.000000" y="69.000000" width="24.000000" height="24.000000" rx="0.1" ry="0.1" style="stroke:none;fill:#aaaaaa;;filter:url(#filter);"/>
<rect x="356.000000" y="68.000000" width="24.000000" height="24.000000" rx="0" ry="0" style="stroke:none;fill:#4B71A1;"/>
<text x="368.000000" y="82.000000" font-family="Arial" font-size="7" text-anchor="middle" fill="#FFFFFF">@</text>
<circle cx="358.000000" cy="70.000000" r="1"/>
<line x1="353.000000" y1="75.000000" x2="356.000000" y2="76.000000"  transform="rotate(0.000000,356.000000,76.000000)" style="stroke: black; stroke-width:0.25;"/>
<line x1="353.000000" y1="77.000000" x2="356.000000" y2="76.000000"  transform="rotate(0.000000,356.000000,76.000000)" style="stroke: black; stroke-width:0.25;"/>
<line x1="353.000000" y1="83.000000" x2="356.000000" y2="84.000000"  transform="rotate(0.000000,356.000000,84.000000)" style="stroke: black; stroke-width:0.25;"/>
<line x1="353.000000" y1="85.000000" x2="356.000000" y2="84.000000"  transform="rotate(0.000000,356.000000,84.000000)" style="stroke: black; stroke-width:0.25;"/>
<a xlink:href="a1-0x7f8e65444610.svg">
<rect x="397.000000" y="73.000000" width="24.000000" height="24.000000" rx="0.1" ry="0.1" style="stroke:none;fill:#aaaaaa;;filter:url(#filter);"/>
<rect x="396.000000" y="72.000000" width="24.000000" height="24.000000" rx="0" ry="0" style="stroke:none;fill:#003366;"/>
</a>
<a xlink:href="a1-0x7f8e65444610.svg">
<text x="408.000000" y="86.000000" font-family="Arial" font-size="7" text-anchor="middle" fill="#FFFFFF">a1</text>
</a>
<circle cx="398.000000" cy="74.000000" r="1"/>
<rect x="437.000000" y="69.000000" width="24.000000" height="24.000000" rx="0.1" ry="0.1" style="stroke:none;fill:#aaaaaa;;filter:url(#filter);"/>
<rect x="436.000000" y="68.000000" width="24.000000" height="24.000000" rx="0" ry="0" style="stroke:none;fill:#4B71A1;"/>
<text x="448.000000" y="82.000000" font-family="Arial" font-size="7" text-anchor="middle" fill="#FFFFFF">*</text>
<circle cx="438.000000" cy="70.000000" r="1"/>
<line x1="433.000000" y1="75.000000" x2="436.000000" y2="76.000000"  transform="rotate(0.000000,436.000000,76.000000)" style="stroke: black; stroke-width:0.25;"/>
<line x1="433.000000" y1="77.000000" x2="436.000000" y2="76.000000"  transform="rotate(0.000000,436.000000,76.000000)" style="stroke: black; stroke-width:0.25;"/>
<line x1="433.000000" y1="83.000000" x2="436.000000" y2="84.000000"  transform="rotate(0.000000,436.000000,84.000000)" style="stroke: black; stroke-width:0.25;"/>
<line x1="433.000000" y1="85.000000" x2="436.000000" y2="84.000000"  transform="rotate(0.000000,436.000000,84.000000)" style="stroke: black; stroke-width:0.25;"/>
<rect x="317.000000" y="113.000000" width="24.000000" height="24.000000" rx="0.1" ry="0.1" style="stroke:none;fill:#aaaaaa;;filter:url(#filter);"/>
<rect x="316.000000" y="112.000000" width="24.000000" height="24.000000" rx="0" ry="0" style="stroke:none;fill:#f44800;"/>
<text x="328.000000" y="126.000000" font-family="Arial" font-size="7" text-anchor="middle" fill="#FFFFFF">2</text>
<circle cx="318.000000" cy="114.000000" r="1"/>
<rect x="357.000000" y="109.000000" width="24.000000" height="24.000000" rx="0.1" ry="0.1" style="stroke:none;fill:#aaaaaa;;filter:url(#filter);"/>
<rect x="356.000000" y="108.000000" width="24.000000" height="24.000000" rx="0" ry="0" style="stroke:none;fill:#4B71A1;"/>
<text x="368.000000" y="122.000000" font-family="Arial" font-size="7" text-anchor="middle" fill="#FFFFFF">@</text>
<circle cx="358.000000" cy="110.000000" r="1"/>
<line x1="353.000000" y1="115.000000" x2="356.000000" y2="116.000000"  transform="rotate(0.000000,356.000000,116.000000)" style="stroke: black; stroke-width:0.25;"/>
<line x1="353.000000" y1="117.000000" x2="356.000000" y2="116.000000"  transform="rotate(0.000000,356.000000,116.000000)" style="stroke: black; stroke-width:0.25;"/>
<line x1="353.000000" y1="123.000000" x2="356.000000" y2="124.000000"  transform="rotate(0.000000,356.000000,124.000000)" style="stroke: black; stroke-width:0.25;"/>
<line x1="353.000000" y1="125.000000" x2="356.000000" y2="124.000000"  transform="rotate(0.000000,356.000000,124.000000)" style="stroke: black; stroke-width:0.25;"/>
<rect x="397.000000" y="113.000000" width="24.000000" height="24.000000" rx="0.1" ry="0.1" style="stroke:none;fill:#aaaaaa;;filter:url(#filter);"/>
<rect x="396.000000" y="112.000000" width="24.000000" height="24.000000" rx="0" ry="0" style="stroke:none;fill:#f44800;"/>
<text x="408.000000" y="126.000000" font-family="Arial" font-size="7" text-anchor="middle" fill="#FFFFFF">1</text>
<circle cx="398.000000" cy="114.000000" r="1"/>
<rect x="437.000000" y="109.000000" width="24.000000" height="24.000000" rx="0.1" ry="0.1" style="stroke:none;fill:#aaaaaa;;filter:url(#filter);"/>
<rect x="436.000000" y="108.000000" width="24.000000" height="24.000000" rx="0" ry="0" style="stroke:none;fill:#4B71A1;"/>
<text x="448.000000" y="122.000000" font-family="Arial" font-size="7" text-anchor="middle" fill="#FFFFFF">*</text>
<circle cx="438.000000" cy="110.000000" r="1"/>
<line x1="433.000000" y1="115.000000" x2="436.000000" y2="116.000000"  transform="rotate(0.000000,436.000000,116.000000)" style="stroke: black; stroke-width:0.25;"/>
<line x1="433.000000" y1="117.000000" x2="436.000000" y2="116.000000"  transform="rotate(0.000000,436.000000,116.000000)" style="stroke: black; stroke-width:0.25;"/>
<line x1="433.000000" y1="123.000000" x2="436.000000" y2="124.000000"  transform="rotate(0.000000,436.000000,124.000000)" style="stroke: black; stroke-width:0.25;"/>
<line x1="433.000000" y1="125.000000" x2="436.000000" y2="124.000000"  transform="rotate(0.000000,436.000000,124.000000)" style="stroke: black; stroke-width:0.25;"/>
<line x1="15.000000" y1="15.000000" x2="15.000000" y2="145.000000"  style="stroke: black; stroke-linecap:round; stroke-width:0.25; stroke-dasharray:3,3;"/>
<line x1="15.000000" y1="145.000000" x2="517.000000" y2="145.000000"  style="stroke: black; stroke-linecap:round; stroke-width:0.25; stroke-dasharray:3,3;"/>
<line x1="517.000000" y1="145.000000" x2="517.000000" y2="15.000000"  style="stroke: black; stroke-linecap:round; stroke-width:0.25; stroke-dasharray:3,3;"/>
<line x1="15.000000" y1="15.000000" x2="20.000000" y2="15.000000"  style="stroke: black; stroke-linecap:round; stroke-width:0.25; stroke-dasharray:3,3;"/>
<line x1="119.975000" y1="15.000000" x2="517.000000" y2="15.000000"  style="stroke: black; stroke-linecap:round; stroke-width:0.25; stroke-dasharray:3,3;"/>
<text x="20.000000" y="17.000000" font-family="Arial" font-size="7">tf2((((2,(1.4... +) : +) : /)</text>
<line x1="519.000000" y1="79.000000" x2="522.000000" y2="80.000000"  transform="rotate(0.000000,522.000000,80.000000)" style="stroke: black; stroke-width:0.25;"/>
<line x1="519.000000" y1="81.000000" x2="522.000000" y2="80.000000"  transform="rotate(0.000000,522.000000,80.000000)" style="stroke: black; stroke-width:0.25;"/>
<line x1="10.000000" y1="80.000000" x2="20.000000" y2="80.000000"  style="stroke:black; stroke-linecap:round; stroke-width:0.25;"/>
<line x1="20.000000" y1="80.000000" x2="24.000000" y2="80.000000"  style="stroke:black; stroke-linecap:round; stroke-width:0.25;"/>
<line x1="24.000000" y1="80.000000" x2="28.000000" y2="80.000000"  style="stroke:black; stroke-linecap:round; stroke-width:0.25;"/>
<line x1="28.000000" y1="80.000000" x2="36.000000" y2="80.000000"  style="stroke:black; stroke-linecap:round; stroke-width:0.25;"/>
<line x1="36.000000" y1="80.000000" x2="36.000000" y2="124.000000"  style="stroke:black; stroke-linecap:round; stroke-width:0.25;"/>
<line x1="36.000000" y1="124.000000" x2="36.000000" y2="124.000000"  style="stroke:black; stroke-linecap:round; stroke-width:0.25;"/>
<line x1="36.000000" y1="124.000000" x2="44.000000" y2="124.000000"  style="stroke:black; stroke-linecap:round; stroke-width:0.25;"/>
<line x1="44.000000" y1="64.000000" x2="44.000000" y2="64.000000"  style="stroke:black; stroke-linecap:round; stroke-width:0.25;"/>
<line x1="44.000000" y1="64.000000" x2="44.000000" y2="116.000000"  style="stroke:black; stroke-linecap:round; stroke-width:0.25;"/>
<line x1="44.000000" y1="116.000000" x2="44.000000" y2="116.000000"  style="stroke:black; stroke-linecap:round; stroke-width:0.25;"/>
<line x1="44.000000" y1="116.000000" x2="134.000000" y2="116.000000"  style="stroke:black; stroke-linecap:round; stroke-width:0.25;"/>
<line x1="44.000000" y1="124.000000" x2="134.000000" y2="124.000000"  style="stroke:black; stroke-linecap:round; stroke-width:0.25;"/>
<line x1="48.000000" y1="64.000000" x2="44.000000" y2="64.000000"  style="stroke:black; stroke-linecap:round; stroke-width:0.25;"/>
<line x1="52.000000" y1="64.000000" x2="48.000000" y2="64.000000"  style="stroke:black; stroke-linecap:round; stroke-width:0.25;"/>
<line x1="74.000000" y1="44.000000" x2="52.000000" y2="64.000000"  style="stroke:black; stroke-linecap:round; stroke-width:0.25;"/>
<line x1="74.000000" y1="84.000000" x2="52.000000" y2="64.000000"  style="stroke:black; stroke-linecap:round; stroke-width:0.25;"/>
<line x1="78.000000" y1="44.000000" x2="74.000000" y2="44.000000"  style="stroke:black; stroke-linecap:round; stroke-width:0.25;"/>
<line x1="106.000000" y1="40.000000" x2="102.000000" y2="40.000000"  style="stroke:black; stroke-linecap:round; stroke-width:0.25;"/>
<line x1="106.000000" y1="48.000000" x2="102.000000" y2="48.000000"  style="stroke:black; stroke-linecap:round; stroke-width:0.25;"/>
<line x1="106.000000" y1="48.000000" x2="106.000000" y2="48.000000"  style="stroke:black; stroke-linecap:round; stroke-width:0.25;"/>
<line x1="106.000000" y1="60.000000" x2="106.000000" y2="48.000000"  style="stroke:black; stroke-linecap:round; stroke-width:0.25;"/>
<line x1="114.000000" y1="40.000000" x2="106.000000" y2="40.000000"  style="stroke:black; stroke-linecap:round; stroke-width:0.25;"/>
<line x1="114.000000" y1="60.000000" x2="106.000000" y2="60.000000"  style="stroke:black; stroke-linecap:round; stroke-width:0.25;"/>
<line x1="114.000000" y1="84.000000" x2="74.000000" y2="84.000000"  style="stroke:black; stroke-linecap:round; stroke-width:0.25;"/>
<line x1="118.000000" y1="40.000000" x2="114.000000" y2="40.000000"  style="stroke:black; stroke-linecap:round; stroke-width:0.25;"/>
<line x1="118.000000" y1="84.000000" x2="114.000000" y2="84.000000"  style="stroke:black; stroke-linecap:round; stroke-width:0.25;"/>
<line x1="130.000000" y1="60.000000" x2="114.000000" y2="60.000000"  style="stroke:black; stroke-linecap:round; stroke-width:0.25;"/>
<line x1="134.000000" y1="116.000000" x2="138.000000" y2="116.000000"  style="stroke:black; stroke-linecap:round; stroke-width:0.25;"/>
<line x1="134.000000" y1="124.000000" x2="138.000000" y2="124.000000"  style="stroke:black; stroke-linecap:round; stroke-width:0.25;"/>
<line x1="146.000000" y1="60.000000" x2="130.000000" y2="60.000000"  style="stroke:black; stroke-linecap:round; stroke-width:0.25;"/>
<line x1="146.000000" y1="80.000000" x2="142.000000" y2="80.000000"  style="stroke:black; stroke-linecap:round; stroke-width:0.25;"/>
<line x1="146.000000" y1="88.000000" x2="142.000000" y2="88.000000"  style="stroke:black; stroke-linecap:round; stroke-width:0.25;"/>
<line x1="146.000000" y1="88.000000" x2="146.000000" y2="88.000000"  style="stroke:black; stroke-linecap:round; stroke-width:0.25;"/>
<line x1="146.000000" y1="100.000000" x2="146.000000" y2="88.000000"  style="stroke:black; stroke-linecap:round; stroke-width:0.25;"/>
<line x1="154.000000" y1="44.000000" x2="154.000000" y2="44.000000"  style="stroke:black; stroke-linecap:round; stroke-width:0.25;"/>
<line x1="154.000000" y1="44.000000" x2="154.000000" y2="60.000000"  style="stroke:black; stroke-linecap:round; stroke-width:0.25;"/>
<line x1="154.000000" y1="60.000000" x2="146.000000" y2="60.000000"  style="stroke:black; stroke-linecap:round; stroke-width:0.25;"/>
<line x1="154.000000" y1="80.000000" x2="146.000000" y2="80.000000"  style="stroke:black; stroke-linecap:round; stroke-width:0.25;"/>
<line x1="154.000000" y1="100.000000" x2="146.000000" y2="100.000000"  style="stroke:black; stroke-linecap:round; stroke-width:0.25;"/>
<line x1="158.000000" y1="44.000000" x2="154.000000" y2="44.000000"  style="stroke:black; stroke-linecap:round; stroke-width:0.25;"/>
<line x1="158.000000" y1="80.000000" x2="154.000000" y2="80.000000"  style="stroke:black; stroke-linecap:round; stroke-width:0.25;"/>
<line x1="162.000000" y1="120.000000" x2="166.000000" y2="120.000000"  style="stroke:black; stroke-linecap:round; stroke-width:0.25;"/>
<line x1="166.000000" y1="120.000000" x2="256.000000" y2="120.000000"  style="stroke:black; stroke-linecap:round; stroke-width:0.25;"/>
<line x1="170.000000" y1="100.000000" x2="154.000000" y2="100.000000"  style="stroke:black; stroke-linecap:round; stroke-width:0.25;"/>
<line x1="186.000000" y1="40.000000" x2="182.000000" y2="40.000000"  style="stroke:black; stroke-linecap:round; stroke-width:0.25;"/>
<line x1="186.000000" y1="48.000000" x2="182.000000" y2="48.000000"  style="stroke:black; stroke-linecap:round; stroke-width:0.25;"/>
<line x1="186.000000" y1="48.000000" x2="186.000000" y2="48.000000"  style="stroke:black; stroke-linecap:round; stroke-width:0.25;"/>
<line x1="186.000000" y1="60.000000" x2="186.000000" y2="48.000000"  style="stroke:black; stroke-linecap:round; stroke-width:0.25;"/>
<line x1="186.000000" y1="100.000000" x2="170.000000" y2="100.000000"  style="stroke:black; stroke-linecap:round; stroke-width:0.25;"/>
<line x1="194.000000" y1="40.000000" x2="186.000000" y2="40.000000"  style="stroke:black; stroke-linecap:round; stroke-width:0.25;"/>
<line x1="194.000000" y1="60.000000" x2="186.000000" y2="60.000000"  style="stroke:black; stroke-linecap:round; stroke-width:0.25;"/>
<line x1="198.000000" y1="40.000000" x2="194.000000" y2="40.000000"  style="stroke:black; stroke-linecap:round; stroke-width:0.25;"/>
<line x1="210.000000" y1="60.000000" x2="194.000000" y2="60.000000"  style="stroke:black; stroke-linecap:round; stroke-width:0.25;"/>
<line x1="226.000000" y1="60.000000" x2="210.000000" y2="60.000000"  style="stroke:black; stroke-linecap:round; stroke-width:0.25;"/>
<line x1="226.000000" y1="100.000000" x2="186.000000" y2="100.000000"  style="stroke:black; stroke-linecap:round; stroke-width:0.25;"/>
<line x1="248.000000" y1="64.000000" x2="226.000000" y2="60.000000"  style="stroke:black; stroke-linecap:round; stroke-width:0.25;"/>
<line x1="248.000000" y1="64.000000" x2="226.000000" y2="100.000000"  style="stroke:black; stroke-linecap:round; stroke-width:0.25;"/>
<line x1="252.000000" y1="64.000000" x2="248.000000" y2="64.000000"  style="stroke:black; stroke-linecap:round; stroke-width:0.25;"/>
<line x1="256.000000" y1="64.000000" x2="252.000000" y2="64.000000"  style="stroke:black; stroke-linecap:round; stroke-width:0.25;"/>
<line x1="256.000000" y1="64.000000" x2="256.000000" y2="64.000000"  style="stroke:black; stroke-linecap:round; stroke-width:0.25;"/>
<line x1="256.000000" y1="116.000000" x2="256.000000" y2="64.000000"  style="stroke:black; stroke-linecap:round; stroke-width:0.25;"/>
<line x1="256.000000" y1="120.000000" x2="258.000000" y2="120.000000"  style="stroke:black; stroke-linecap:round; stroke-width:0.25;"/>
<line x1="258.000000" y1="120.000000" x2="264.000000" y2="120.000000"  style="stroke:black; stroke-linecap:round; stroke-width:0.25;"/>
<line x1="264.000000" y1="80.000000" x2="272.000000" y2="80.000000"  style="stroke:black; stroke-linecap:round; stroke-width:0.25;"/>
<line x1="264.000000" y1="120.000000" x2="264.000000" y2="80.000000"  style="stroke:black; stroke-linecap:round; stroke-width:0.25;"/>
<line x1="264.000000" y1="120.000000" x2="264.000000" y2="120.000000"  style="stroke:black; stroke-linecap:round; stroke-width:0.25;"/>
<line x1="272.000000" y1="80.000000" x2="276.000000" y2="80.000000"  style="stroke:black; stroke-linecap:round; stroke-width:0.25;"/>
<line x1="276.000000" y1="80.000000" x2="280.000000" y2="80.000000"  style="stroke:black; stroke-linecap:round; stroke-width:0.25;"/>
<line x1="280.000000" y1="80.000000" x2="312.000000" y2="24.000000"  style="stroke:black; stroke-linecap:round; stroke-width:0.25;"/>
<line x1="280.000000" y1="80.000000" x2="312.000000" y2="64.000000"  style="stroke:black; stroke-linecap:round; stroke-width:0.25;"/>
<line x1="280.000000" y1="80.000000" x2="312.000000" y2="104.000000"  style="stroke:black; stroke-linecap:round; stroke-width:0.25;"/>
<line x1="312.000000" y1="24.000000" x2="352.000000" y2="24.000000"  style="stroke:black; stroke-linecap:round; stroke-width:0.25;"/>
<line x1="312.000000" y1="64.000000" x2="328.000000" y2="64.000000"  style="stroke:black; stroke-linecap:round; stroke-width:0.25;"/>
<line x1="312.000000" y1="104.000000" x2="328.000000" y2="104.000000"  style="stroke:black; stroke-linecap:round; stroke-width:0.25;"/>
<line x1="328.000000" y1="64.000000" x2="344.000000" y2="64.000000"  style="stroke:black; stroke-linecap:round; stroke-width:0.25;"/>
<line x1="328.000000" y1="104.000000" x2="344.000000" y2="104.000000"  style="stroke:black; stroke-linecap:round; stroke-width:0.25;"/>
<line x1="340.000000" y1="84.000000" x2="344.000000" y2="84.000000"  style="stroke:black; stroke-linecap:round; stroke-width:0.25;"/>
<line x1="340.000000" y1="124.000000" x2="344.000000" y2="124.000000"  style="stroke:black; stroke-linecap:round; stroke-width:0.25;"/>
<line x1="344.000000" y1="64.000000" x2="352.000000" y2="64.000000"  style="stroke:black; stroke-linecap:round; stroke-width:0.25;"/>
<line x1="344.000000" y1="84.000000" x2="352.000000" y2="84.000000"  style="stroke:black; stroke-linecap:round; stroke-width:0.25;"/>
<line x1="344.000000" y1="104.000000" x2="352.000000" y2="104.000000"  style="stroke:black; stroke-linecap:round; stroke-width:0.25;"/>
<line x1="344.000000" y1="124.000000" x2="352.000000" y2="124.000000"  style="stroke:black; stroke-linecap:round; stroke-width:0.25;"/>
<line x1="352.000000" y1="24.000000" x2="368.000000" y2="24.000000"  style="stroke:black; stroke-linecap:round; stroke-width:0.25;"/>
<line x1="352.000000" y1="64.000000" x2="352.000000" y2="76.000000"  style="stroke:black; stroke-linecap:round; stroke-width:0.25;"/>
<line x1="352.000000" y1="76.000000" x2="352.000000" y2="76.000000"  style="stroke:black; stroke-linecap:round; stroke-width:0.25;"/>
<line x1="352.000000" y1="76.000000" x2="356.000000" y2="76.000000"  style="stroke:black; stroke-linecap:round; stroke-width:0.25;"/>
<line x1="352.000000" y1="84.000000" x2="356.000000" y2="84.000000"  style="stroke:black; stroke-linecap:round; stroke-width:0.25;"/>
<line x1="352.000000" y1="104.000000" x2="352.000000" y2="116.000000"  style="stroke:black; stroke-linecap:round; stroke-width:0.25;"/>
<line x1="352.000000" y1="116.000000" x2="352.000000" y2="116.000000"  style="stroke:black; stroke-linecap:round; stroke-width:0.25;"/>
<line x1="352.000000" y1="116.000000" x2="356.000000" y2="116.000000"  style="stroke:black; stroke-linecap:round; stroke-width:0.25;"/>
<line x1="352.000000" y1="124.000000" x2="356.000000" y2="124.000000"  style="stroke:black; stroke-linecap:round; stroke-width:0.25;"/>
<line x1="368.000000" y1="24.000000" x2="384.000000" y2="24.000000"  style="stroke:black; stroke-linecap:round; stroke-width:0.25;"/>
<line x1="380.000000" y1="44.000000" x2="384.000000" y2="44.000000"  style="stroke:black; stroke-linecap:round; stroke-width:0.25;"/>
<line x1="380.000000" y1="80.000000" x2="384.000000" y2="80.000000"  style="stroke:black; stroke-linecap:round; stroke-width:0.25;"/>
<line x1="380.000000" y1="120.000000" x2="384.000000" y2="120.000000"  style="stroke:black; stroke-linecap:round; stroke-width:0.25;"/>
<line x1="384.000000" y1="24.000000" x2="392.000000" y2="24.000000"  style="stroke:black; stroke-linecap:round; stroke-width:0.25;"/>
<line x1="384.000000" y1="44.000000" x2="392.000000" y2="44.000000"  style="stroke:black; stroke-linecap:round; stroke-width:0.25;"/>
<line x1="384.000000" y1="64.000000" x2="392.000000" y2="64.000000"  style="stroke:black; stroke-linecap:round; stroke-width:0.25;"/>
<line x1="384.000000" y1="80.000000" x2="384.000000" y2="64.000000"  style="stroke:black; stroke-linecap:round; stroke-width:0.25;"/>
<line x1="384.000000" y1="80.000000" x2="384.000000" y2="80.000000"  style="stroke:black; stroke-linecap:round; stroke-width:0.25;"/>
<line x1="384.000000" y1="104.000000" x2="392.000000" y2="104.000000"  style="stroke:black; stroke-linecap:round; stroke-width:0.25;"/>
<line x1="384.000000" y1="120.000000" x2="384.000000" y2="104.000000"  style="stroke:black; stroke-linecap:round; stroke-width:0.25;"/>
<line x1="384.000000" y1="120.000000" x2="384.000000" y2="120.000000"  style="stroke:black; stroke-linecap:round; stroke-width:0.25;"/>
<line x1="392.000000" y1="24.000000" x2="392.000000" y2="36.000000"  style="stroke:black; stroke-linecap:round; stroke-width:0.25;"/>
<line x1="392.000000" y1="36.000000" x2="392.000000" y2="36.000000"  style="stroke:black; stroke-linecap:round; stroke-width:0.25;"/>
<line x1="392.000000" y1="36.000000" x2="396.000000" y2="36.000000"  style="stroke:black; stroke-linecap:round; stroke-width:0.25;"/>
<line x1="392.000000" y1="44.000000" x2="396.000000" y2="44.000000"  style="stroke:black; stroke-linecap:round; stroke-width:0.25;"/>
<line x1="392.000000" y1="64.000000" x2="408.000000" y2="64.000000"  style="stroke:black; stroke-linecap:round; stroke-width:0.25;"/>
<line x1="392.000000" y1="104.000000" x2="408.000000" y2="104.000000"  style="stroke:black; stroke-linecap:round; stroke-width:0.25;"/>
<line x1="408.000000" y1="64.000000" x2="424.000000" y2="64.000000"  style="stroke:black; stroke-linecap:round; stroke-width:0.25;"/>
<line x1="408.000000" y1="104.000000" x2="424.000000" y2="104.000000"  style="stroke:black; stroke-linecap:round; stroke-width:0.25;"/>
<line x1="420.000000" y1="40.000000" x2="424.000000" y2="40.000000"  style="stroke:black; stroke-linecap:round; stroke-width:0.25;"/>
<line x1="420.000000" y1="84.000000" x2="424.000000" y2="84.000000"  style="stroke:black; stroke-linecap:round; stroke-width:0.25;"/>
<line x1="420.000000" y1="124.000000" x2="424.000000" y2="124.000000"  style="stroke:black; stroke-linecap:round; stroke-width:0.25;"/>
<line x1="424.000000" y1="40.000000" x2="464.000000" y2="40.000000"  style="stroke:black; stroke-linecap:round; stroke-width:0.25;"/>
<line x1="424.000000" y1="64.000000" x2="432.000000" y2="64.000000"  style="stroke:black; stroke-linecap:round; stroke-width:0.25;"/>
<line x1="424.000000" y1="84.000000" x2="432.000000" y2="84.000000"  style="stroke:black; stroke-linecap:round; stroke-width:0.25;"/>
<line x1="424.000000" y1="104.000000" x2="432.000000" y2="104.000000"  style="stroke:black; stroke-linecap:round; stroke-width:0.25;"/>
<line x1="424.000000" y1="124.000000" x2="432.000000" y2="124.000000"  style="stroke:black; stroke-linecap:round; stroke-width:0.25;"/>
<line x1="432.000000" y1="64.000000" x2="432.000000" y2="76.000000"  style="stroke:black; stroke-linecap:round; stroke-width:0.25;"/>
<line x1="432.000000" y1="76.000000" x2="432.000000" y2="76.000000"  style="stroke:black; stroke-linecap:round; stroke-width:0.25;"/>
<line x1="432.000000" y1="76.000000" x2="436.000000" y2="76.000000"  style="stroke:black; stroke-linecap:round; stroke-width:0.25;"/>
<line x1="432.000000" y1="84.000000" x2="436.000000" y2="84.000000"  style="stroke:black; stroke-linecap:round; stroke-width:0.25;"/>
<line x1="432.000000" y1="104.000000" x2="432.000000" y2="116.000000"  style="stroke:black; stroke-linecap:round; stroke-width:0.25;"/>
<line x1="432.000000" y1="116.000000" x2="432.000000" y2="116.000000"  style="stroke:black; stroke-linecap:round; stroke-width:0.25;"/>
<line x1="432.000000" y1="116.000000" x2="436.000000" y2="116.000000"  style="stroke:black; stroke-linecap:round; stroke-width:0.25;"/>
<line x1="432.000000" y1="124.000000" x2="436.000000" y2="124.000000"  style="stroke:black; stroke-linecap:round; stroke-width:0.25;"/>
<line x1="460.000000" y1="80.000000" x2="464.000000" y2="80.000000"  style="stroke:black; stroke-linecap:round; stroke-width:0.25;"/>
<line x1="460.000000" y1="120.000000" x2="464.000000" y2="120.000000"  style="stroke:black; stroke-linecap:round; stroke-width:0.25;"/>
<line x1="464.000000" y1="40.000000" x2="496.000000" y2="80.000000"  style="stroke:black; stroke-linecap:round; stroke-width:0.25;"/>
<line x1="464.000000" y1="80.000000" x2="496.000000" y2="80.000000"  style="stroke:black; stroke-linecap:round; stroke-width:0.25;"/>
<line x1="464.000000" y1="120.000000" x2="496.000000" y2="80.000000"  style="stroke:black; stroke-linecap:round; stroke-width:0.25;"/>
<line x1="496.000000" y1="80.000000" x2="500.000000" y2="80.000000"  style="stroke:black; stroke-linecap:round; stroke-width:0.25;"/>
<line x1="500.000000" y1="80.000000" x2="504.000000" y2="80.000000"  style="stroke:black; stroke-linecap:round; stroke-width:0.25;"/>
<line x1="504.000000" y1="80.000000" x2="504.000000" y2="80.000000"  style="stroke:black; stroke-linecap:round; stroke-width:0.25;"/>
<line x1="504.000000" y1="80.000000" x2="508.000000" y2="80.000000"  style="stroke:black; stroke-linecap:round; stroke-width:0.25;"/>
<line x1="508.000000" y1="80.000000" x2="512.000000" y2="80.000000"  style="stroke:black; stroke-linecap:round; stroke-width:0.25;"/>
<line x1="512.000000" y1="80.000000" x2="522.000000" y2="80.000000"  style="stroke:black; stroke-linecap:round; stroke-width:0.25;"/>
</svg>
